<?xml version="1.0" encoding="utf-8"?>
<!-- Generator: Adobe Illustrator 21.0.0, SVG Export Plug-In . SVG Version: 6.00 Build 0)  -->
<svg version="1.1" id="Calque_1" xmlns="http://www.w3.org/2000/svg" xmlns:xlink="http://www.w3.org/1999/xlink" x="0px" y="0px"
	 viewBox="0 0 48 48" enable-background="new 0 0 48 48" xml:space="preserve">
<path fill="#00A5E8" d="M48,36.763C48,42.969,42.969,48,36.763,48H11.237C5.031,48,0,42.969,0,36.763V11.237
	C0,5.031,5.031,0,11.237,0h25.526C42.969,0,48,5.031,48,11.237V36.763z M46,11.237C46,6.135,41.865,2,36.763,2H11.237
	C6.135,2,2,6.135,2,11.237v25.526C2,41.865,6.135,46,11.237,46h25.526C41.865,46,46,41.865,46,36.763V11.237z"/>
<path fill="#00A5E8" d="M35.333,29.667h-1.101v-0.149c0-0.114,0.007-0.227,0.007-0.227h-0.015c0,0-0.52,0.467-1.415,0.467
	c-1.378,0-2.644-1.032-2.644-2.793c0-1.564,1.183-2.771,2.825-2.771c1.379,0,2.071,0.713,2.071,0.713l-0.633,0.987
	c0,0-0.549-0.494-1.31-0.494c-1.13,0-1.589,0.721-1.589,1.519c0,1.025,0.708,1.634,1.544,1.634c0.631,0,1.091-0.39,1.091-0.39
	v-0.416h-0.76v-1.121h1.928V29.667z M28.402,29.667l-1.138-2.184h-0.542v2.184h-1.317v-5.382h1.317v2.076h0.542l1.114-2.076h1.418
	l-1.455,2.575v0.014l1.537,2.794H28.402z M28.172,17.105c0-1.085,0.883-1.968,1.969-1.968c1.087,0,1.969,0.883,1.969,1.968
	c0,0.94-0.663,1.725-1.546,1.92h-0.845C28.836,18.831,28.172,18.045,28.172,17.105 M42.747,32.221l-3.975-12.283
	c-0.174-0.544-0.68-0.912-1.252-0.912h-4.194c0.34-0.562,0.542-1.216,0.542-1.92c0-2.054-1.673-3.724-3.726-3.724
	c-2.052,0-3.722,1.67-3.722,3.724c0,0.704,0.199,1.359,0.539,1.92h-4.194c-0.572,0-1.077,0.368-1.252,0.912l-3.975,12.283
	c-0.275,0.85,0.359,1.722,1.253,1.722h22.703C42.387,33.942,43.021,33.071,42.747,32.221"/>
<g>
	<path fill="#00A5E8" d="M5.654,16.889c-0.084,0-0.144,0.001-0.178,0.005c-0.034,0.004-0.058,0.008-0.07,0.015v1.3
		c0.013,0.007,0.034,0.012,0.063,0.016c0.029,0.002,0.087,0.004,0.175,0.004c0.1,0,0.203-0.011,0.308-0.034
		c0.103-0.025,0.198-0.063,0.284-0.113c0.085-0.051,0.156-0.12,0.211-0.202c0.055-0.085,0.084-0.188,0.084-0.311
		c0-0.132-0.028-0.24-0.082-0.329c-0.053-0.088-0.121-0.159-0.206-0.211c-0.084-0.051-0.178-0.087-0.282-0.109
		C5.857,16.9,5.754,16.889,5.654,16.889 M4.688,16.351c0.04-0.009,0.132-0.028,0.273-0.054c0.142-0.026,0.32-0.04,0.53-0.04
		c0.234,0,0.457,0.023,0.67,0.07c0.212,0.047,0.4,0.122,0.561,0.227c0.16,0.106,0.287,0.243,0.383,0.41
		c0.095,0.167,0.143,0.369,0.143,0.608c0,0.24-0.048,0.443-0.146,0.607c-0.097,0.165-0.22,0.296-0.372,0.395
		c-0.153,0.099-0.323,0.17-0.515,0.213c-0.191,0.045-0.38,0.065-0.567,0.065c-0.08,0-0.161-0.005-0.241-0.014v1.054H4.688V16.351z"
		/>
	<path fill="#00A5E8" d="M8.099,18.109c0,0.177,0.031,0.336,0.093,0.479c0.061,0.144,0.146,0.267,0.248,0.37
		C8.545,19.06,8.665,19.14,8.8,19.196c0.135,0.056,0.278,0.082,0.429,0.082c0.151,0,0.294-0.027,0.43-0.084
		c0.136-0.057,0.253-0.138,0.356-0.243c0.102-0.103,0.184-0.227,0.244-0.371c0.06-0.144,0.09-0.303,0.09-0.476
		c0-0.174-0.03-0.333-0.088-0.477c-0.059-0.144-0.14-0.266-0.242-0.367c-0.103-0.101-0.221-0.179-0.356-0.234
		c-0.134-0.055-0.28-0.082-0.434-0.082c-0.157,0-0.305,0.027-0.442,0.082c-0.137,0.056-0.257,0.134-0.358,0.234
		c-0.102,0.101-0.183,0.222-0.242,0.367C8.129,17.771,8.099,17.932,8.099,18.109 M9.224,16.257c0.261,0,0.506,0.048,0.736,0.143
		c0.228,0.095,0.428,0.226,0.598,0.391c0.168,0.166,0.301,0.362,0.399,0.588c0.097,0.225,0.145,0.469,0.145,0.73
		c0,0.26-0.049,0.504-0.148,0.729c-0.098,0.223-0.233,0.42-0.401,0.586c-0.169,0.167-0.369,0.299-0.598,0.396
		c-0.23,0.095-0.475,0.141-0.735,0.141c-0.255,0-0.495-0.044-0.721-0.135c-0.226-0.09-0.424-0.216-0.595-0.378
		c-0.17-0.162-0.306-0.357-0.406-0.587c-0.101-0.226-0.151-0.478-0.151-0.751c0-0.261,0.049-0.505,0.145-0.728
		c0.098-0.225,0.231-0.421,0.399-0.588c0.169-0.167,0.368-0.299,0.595-0.394C8.712,16.305,8.959,16.257,9.224,16.257"/>
	<rect x="11.631" y="16.331" fill="#00A5E8" width="0.719" height="3.56"/>
	<path fill="#00A5E8" d="M14.937,18.109c0-0.25-0.04-0.455-0.12-0.61c-0.081-0.155-0.183-0.277-0.309-0.364
		c-0.126-0.086-0.263-0.145-0.414-0.175c-0.151-0.031-0.297-0.045-0.438-0.045c-0.036,0-0.073,0.001-0.108,0.004
		c-0.035,0.004-0.071,0.007-0.108,0.016v2.333c0.071,0.01,0.141,0.015,0.212,0.015c0.14,0,0.286-0.015,0.439-0.047
		c0.152-0.032,0.291-0.09,0.417-0.179c0.126-0.085,0.228-0.205,0.309-0.359C14.897,18.545,14.937,18.349,14.937,18.109
		 M13.467,19.96c-0.107,0-0.206-0.004-0.297-0.014c-0.09-0.01-0.169-0.021-0.236-0.035c-0.08-0.014-0.15-0.031-0.211-0.056v-3.483
		c0.085-0.025,0.164-0.044,0.242-0.058c0.077-0.017,0.168-0.03,0.279-0.041c0.109-0.011,0.232-0.017,0.369-0.017
		c0.144,0,0.296,0.01,0.457,0.029c0.16,0.021,0.317,0.057,0.472,0.108c0.153,0.051,0.3,0.124,0.438,0.213
		c0.139,0.092,0.263,0.205,0.37,0.342c0.107,0.137,0.191,0.302,0.253,0.492c0.063,0.191,0.093,0.414,0.093,0.668
		c0,0.274-0.033,0.51-0.099,0.708c-0.064,0.198-0.153,0.366-0.266,0.501c-0.111,0.139-0.242,0.249-0.391,0.332
		c-0.15,0.084-0.306,0.149-0.472,0.196c-0.165,0.047-0.335,0.079-0.507,0.094C13.787,19.954,13.623,19.96,13.467,19.96"/>
	<path fill="#00A5E8" d="M17.302,16.257c0.153,0,0.299,0.017,0.438,0.053c0.137,0.035,0.259,0.076,0.367,0.122
		c0.106,0.047,0.195,0.092,0.266,0.139c0.07,0.043,0.117,0.075,0.141,0.092l-0.331,0.577c-0.128-0.096-0.265-0.178-0.412-0.243
		c-0.148-0.066-0.325-0.098-0.532-0.098c-0.161,0-0.29,0.032-0.39,0.096c-0.099,0.063-0.148,0.156-0.148,0.275
		c0,0.097,0.042,0.171,0.126,0.224c0.084,0.052,0.189,0.098,0.319,0.136c0.129,0.038,0.273,0.078,0.43,0.122
		c0.157,0.043,0.308,0.106,0.457,0.187c0.177,0.097,0.314,0.214,0.41,0.355c0.095,0.137,0.143,0.316,0.143,0.533
		c0,0.17-0.032,0.326-0.095,0.467c-0.064,0.14-0.156,0.262-0.274,0.36c-0.119,0.098-0.264,0.174-0.435,0.228
		c-0.17,0.055-0.365,0.08-0.582,0.08c-0.157,0-0.305-0.017-0.445-0.052c-0.138-0.035-0.265-0.076-0.377-0.125
		c-0.111-0.049-0.21-0.098-0.296-0.151c-0.085-0.051-0.15-0.096-0.198-0.132l0.357-0.604c0.01,0.01,0.042,0.038,0.097,0.082
		c0.056,0.042,0.125,0.087,0.211,0.135c0.086,0.048,0.186,0.089,0.301,0.126c0.116,0.037,0.239,0.055,0.369,0.055
		c0.409,0,0.613-0.132,0.613-0.398c0-0.112-0.041-0.201-0.123-0.26c-0.081-0.061-0.185-0.113-0.311-0.156
		c-0.126-0.043-0.264-0.086-0.419-0.127c-0.155-0.042-0.303-0.1-0.447-0.173c-0.113-0.057-0.207-0.116-0.281-0.179
		c-0.073-0.061-0.132-0.127-0.176-0.195c-0.043-0.069-0.073-0.142-0.09-0.217c-0.016-0.079-0.025-0.161-0.025-0.248
		c0-0.183,0.036-0.343,0.108-0.479c0.072-0.135,0.17-0.248,0.293-0.338c0.125-0.091,0.267-0.157,0.43-0.201
		C16.949,16.277,17.121,16.257,17.302,16.257"/>
</g>
<g>
	<path fill="#00A5E8" d="M8.347,24.932c0.073-0.11,0.184-0.258,0.331-0.443c0.147-0.184,0.347-0.366,0.601-0.546
		c0.253-0.18,0.563-0.334,0.932-0.463c0.368-0.128,0.81-0.193,1.326-0.193c0.396,0,0.776,0.065,1.14,0.193
		c0.363,0.129,0.686,0.309,0.967,0.539c0.281,0.23,0.504,0.5,0.67,0.809c0.166,0.309,0.249,0.647,0.249,1.015
		c0,0.304-0.035,0.567-0.103,0.788c-0.069,0.221-0.155,0.407-0.256,0.559c-0.101,0.153-0.212,0.282-0.331,0.387
		c-0.12,0.106-0.234,0.191-0.345,0.255c0.11,0.037,0.262,0.116,0.455,0.235c0.194,0.12,0.38,0.283,0.56,0.49
		c0.18,0.207,0.336,0.452,0.47,0.733c0.133,0.281,0.2,0.601,0.2,0.96c0,0.47-0.088,0.902-0.262,1.299
		c-0.175,0.395-0.423,0.737-0.746,1.022c-0.322,0.286-0.709,0.509-1.16,0.67c-0.451,0.161-0.953,0.241-1.506,0.241
		c-0.589,0-1.103-0.08-1.541-0.241c-0.437-0.161-0.808-0.352-1.111-0.573c-0.304-0.221-0.546-0.449-0.726-0.684
		c-0.18-0.235-0.306-0.426-0.379-0.573l1.589-1.036c0.064,0.12,0.154,0.255,0.269,0.407c0.116,0.153,0.254,0.293,0.415,0.422
		c0.161,0.129,0.352,0.239,0.573,0.331c0.221,0.093,0.474,0.138,0.76,0.138c0.304,0,0.567-0.039,0.788-0.117
		c0.221-0.078,0.401-0.186,0.539-0.325c0.138-0.138,0.242-0.295,0.311-0.47c0.068-0.175,0.103-0.359,0.103-0.553
		c0-0.395-0.099-0.72-0.297-0.974c-0.198-0.253-0.426-0.455-0.684-0.608c-0.258-0.152-0.514-0.264-0.766-0.338
		c-0.254-0.073-0.435-0.124-0.546-0.152c0.23-0.148,0.449-0.29,0.656-0.428s0.387-0.281,0.539-0.428
		c0.152-0.148,0.272-0.306,0.359-0.476c0.088-0.17,0.132-0.366,0.132-0.588c0-0.137-0.028-0.276-0.083-0.414
		c-0.055-0.138-0.136-0.262-0.241-0.373c-0.106-0.111-0.235-0.198-0.387-0.263c-0.152-0.064-0.325-0.096-0.519-0.096
		c-0.212,0-0.394,0.03-0.546,0.089c-0.152,0.06-0.285,0.132-0.401,0.214c-0.116,0.083-0.21,0.17-0.283,0.262
		c-0.073,0.093-0.133,0.171-0.18,0.235L8.347,24.932z"/>
</g>
</svg>
