<svg xmlns="http://www.w3.org/2000/svg" xmlns:xlink="http://www.w3.org/1999/xlink" version="1.1" x="0px" y="0px" viewBox="0 0 48.96 48" enable-background="new 0 0 64 64" xml:space="preserve">

      <path d="M39.6,28.4c-0.2-0.2-0.6-0.4-0.9-0.4l-25.1,0c-0.7,0-1.3,0.6-1.3,1.3l0,17.5c0,0.7,0.6,1.3,1.3,1.3h25.1    c0.3,0,0.7-0.1,0.9-0.4c0.2-0.2,0.4-0.6,0.4-0.9l0-17.5C40,29,39.8,28.7,39.6,28.4z M37.5,30.6l0,2.4H14.9l0-2.4L37.5,30.6z     M14.9,45.5l0-10.1h22.6l0,10.1H14.9z"/>
    <path d="M39.5,24.2c-0.7,0-1.3,0.6-1.3,1.3c0,0.7,0.6,1.3,1.3,1.3c0.4,0,0.7,0.1,0.9,0.4c0.2,0.2,0.4,0.6,0.4,0.9    c0,0.7,0.6,1.3,1.3,1.3s1.3-0.6,1.3-1.3c0-1-0.4-2-1.1-2.7C41.5,24.6,40.5,24.2,39.5,24.2z"/>
    <path d="M39.5,20.1c-0.7,0-1.3,0.6-1.3,1.3s0.6,1.3,1.3,1.3c1.5,0,2.8,0.6,3.9,1.6c1,1,1.6,2.4,1.6,3.9    c0,0.7,0.6,1.3,1.3,1.3s1.3-0.6,1.3-1.3c0-2.1-0.8-4.1-2.3-5.6C43.6,20.9,41.6,20.1,39.5,20.1z"/>
    <path d="M48.1,19.5c-2.3-2.3-5.3-3.5-8.6-3.5c-0.7,0-1.3,0.6-1.3,1.3c0,0.7,0.6,1.3,1.3,1.3c2.6,0,5,1,6.8,2.8    c1.8,1.8,2.8,4.2,2.8,6.8c0,0.7,0.6,1.3,1.3,1.3s1.3-0.6,1.3-1.3C51.6,24.8,50.4,21.8,48.1,19.5z"/>
    <polygon points="22.6,41.4 22.5,41.4 20.4,37.7 19,37.7 19,43.6 20.4,43.6 20.4,39.9 20.4,39.9 22.6,43.6     23.9,43.6 23.9,37.7 22.6,37.7   "/>
    <polygon points="24.9,43.6 26.2,43.6 26.2,41.3 28.4,41.3 28.4,40.2 26.2,40.2 26.2,38.8 28.8,38.8 28.8,37.7     24.9,37.7   "/>
    <path d="M31,39.1c0.2-0.2,0.4-0.4,0.7-0.4c0.4,0,0.6,0.1,0.8,0.2c0.2,0.2,0.2,0.4,0.2,0.8H34l0,0    c0-0.7-0.2-1.2-0.6-1.5c-0.4-0.3-1-0.5-1.7-0.5c-0.7,0-1.3,0.2-1.7,0.7c-0.4,0.4-0.6,1-0.6,1.8v1.2c0,0.7,0.2,1.3,0.7,1.8    c0.4,0.4,1,0.7,1.8,0.7c0.7,0,1.3-0.2,1.7-0.5c0.4-0.3,0.6-0.9,0.6-1.5l0,0h-1.3c0,0.4-0.1,0.6-0.2,0.8c-0.1,0.2-0.4,0.2-0.7,0.2    c-0.3,0-0.6-0.1-0.8-0.4c-0.2-0.2-0.3-0.6-0.3-1v-1.2C30.8,39.6,30.8,39.3,31,39.1z"/>
  </svg>
