<?xml version="1.0" encoding="utf-8"?>
<!-- Generator: Adobe Illustrator 16.0.0, SVG Export Plug-In . SVG Version: 6.00 Build 0)  -->
<!DOCTYPE svg PUBLIC "-//W3C//DTD SVG 1.1//EN" "http://www.w3.org/Graphics/SVG/1.1/DTD/svg11.dtd">
<svg version="1.1" id="Calque_1" xmlns="http://www.w3.org/2000/svg" xmlns:xlink="http://www.w3.org/1999/xlink" x="0px" y="0px"
	 width="48px" height="48px" viewBox="0 0 48 48" enable-background="new 0 0 48 48" xml:space="preserve">
<g>
	<path fill="#00517D" d="M36.763,48H11.237C5.041,48,0,42.959,0,36.764V11.236C0,5.041,5.041,0,11.237,0h25.526
		C42.959,0,48,5.041,48,11.236v25.527C48,42.959,42.959,48,36.763,48z M11.237,2C6.144,2,2,6.144,2,11.236v25.527
		C2,41.856,6.144,46,11.237,46h25.526C41.856,46,46,41.856,46,36.764V11.236C46,6.144,41.856,2,36.763,2H11.237z"/>
	<g>
		<path fill="#005480" d="M34.881,33.513l6.107-6.135c0.25-0.25,0.07-0.677-0.284-0.677h-0.486c-0.333,0-0.52-0.383-0.313-0.645
			l3.237-4.082c0.207-0.26,0.022-0.644-0.311-0.644h-1.628c-0.328,0-0.516-0.375-0.318-0.637l4.138-5.501
			c0.195-0.261,0.008-0.636-0.32-0.636h-6.541c-0.151,0-0.289,0.087-0.356,0.221l-3.197,6.47c-0.131,0.264,0.061,0.574,0.354,0.574
			h1.477c0.293,0,0.486,0.311,0.355,0.575l-2.187,4.424c-0.131,0.263,0.061,0.574,0.354,0.574h1.39c0.294,0,0.486,0.307,0.356,0.571
			l-2.467,5.095C34.046,33.463,34.567,33.829,34.881,33.513"/>
	</g>
	<g>
		<path fill="#005480" d="M4.108,15.871c0.184,0,0.342,0.02,0.477,0.062c0.135,0.041,0.248,0.085,0.336,0.136
			c0.091,0.046,0.159,0.093,0.204,0.134c0.045,0.041,0.069,0.063,0.071,0.065l-0.328,0.45c-0.008-0.005-0.03-0.023-0.063-0.055
			c-0.033-0.032-0.082-0.064-0.143-0.099c-0.061-0.033-0.136-0.064-0.224-0.091c-0.087-0.028-0.187-0.041-0.3-0.041
			c-0.129,0-0.251,0.021-0.361,0.068c-0.111,0.047-0.206,0.111-0.288,0.194c-0.081,0.08-0.146,0.179-0.191,0.292
			c-0.047,0.113-0.07,0.238-0.07,0.375c0,0.141,0.022,0.271,0.07,0.392c0.045,0.12,0.111,0.224,0.191,0.31
			c0.082,0.086,0.177,0.153,0.288,0.201c0.11,0.047,0.232,0.072,0.361,0.072c0.127,0,0.237-0.016,0.331-0.044
			c0.093-0.028,0.173-0.062,0.237-0.101c0.065-0.037,0.115-0.074,0.151-0.108c0.038-0.033,0.061-0.058,0.072-0.07l0.328,0.454
			c-0.012,0.007-0.044,0.035-0.095,0.083c-0.052,0.045-0.125,0.093-0.22,0.144c-0.094,0.05-0.21,0.097-0.35,0.136
			c-0.139,0.042-0.301,0.063-0.49,0.063c-0.202,0-0.394-0.036-0.575-0.105c-0.182-0.068-0.34-0.17-0.475-0.3
			c-0.136-0.131-0.242-0.292-0.322-0.479c-0.078-0.188-0.118-0.401-0.118-0.638c0-0.216,0.038-0.416,0.114-0.599
			c0.077-0.182,0.18-0.341,0.313-0.474c0.133-0.134,0.29-0.239,0.472-0.313C3.698,15.908,3.896,15.871,4.108,15.871"/>
		<path fill="#005480" d="M6.043,17.38c0,0.143,0.024,0.275,0.076,0.39c0.05,0.116,0.118,0.218,0.202,0.301
			c0.085,0.085,0.183,0.15,0.293,0.195c0.11,0.044,0.227,0.068,0.35,0.068c0.124,0,0.24-0.024,0.351-0.07
			c0.111-0.046,0.208-0.112,0.29-0.197c0.083-0.083,0.149-0.186,0.199-0.302c0.049-0.118,0.074-0.249,0.074-0.389
			c0-0.142-0.024-0.272-0.072-0.39c-0.047-0.117-0.112-0.217-0.197-0.299c-0.081-0.082-0.178-0.145-0.289-0.19
			c-0.111-0.045-0.228-0.066-0.355-0.066c-0.127,0-0.248,0.021-0.36,0.066c-0.112,0.046-0.209,0.109-0.291,0.19
			c-0.084,0.082-0.15,0.182-0.198,0.299C6.067,17.104,6.043,17.236,6.043,17.38 M6.96,15.871c0.213,0,0.412,0.039,0.599,0.117
			c0.187,0.076,0.349,0.183,0.487,0.318c0.137,0.135,0.245,0.294,0.324,0.479C8.45,16.97,8.49,17.167,8.49,17.38
			c0,0.213-0.041,0.41-0.121,0.592c-0.08,0.184-0.189,0.344-0.327,0.479c-0.137,0.135-0.3,0.243-0.486,0.321
			c-0.188,0.078-0.388,0.118-0.6,0.118c-0.208,0-0.403-0.038-0.588-0.111c-0.185-0.073-0.346-0.175-0.484-0.31
			c-0.139-0.132-0.25-0.291-0.331-0.475C5.47,17.809,5.43,17.604,5.43,17.38c0-0.213,0.039-0.41,0.118-0.595
			c0.08-0.181,0.188-0.342,0.325-0.478c0.139-0.136,0.3-0.245,0.486-0.321C6.543,15.91,6.744,15.871,6.96,15.871"/>
	</g>
	<polygon fill="#005480" points="11.088,15.932 11.088,18.902 9.366,17.159 9.395,18.833 8.809,18.833 8.809,15.853 10.531,17.592 
		10.502,15.932 	"/>
	<g>
		<path fill="#005480" d="M12.52,15.871c0.125,0,0.244,0.014,0.355,0.043c0.112,0.028,0.211,0.062,0.299,0.1
			c0.088,0.038,0.16,0.076,0.217,0.113c0.057,0.036,0.096,0.062,0.113,0.075l-0.269,0.469c-0.104-0.078-0.215-0.143-0.336-0.197
			c-0.119-0.053-0.263-0.08-0.433-0.08c-0.13,0-0.237,0.027-0.317,0.079c-0.08,0.052-0.121,0.127-0.121,0.225
			c0,0.078,0.035,0.139,0.102,0.182c0.069,0.042,0.155,0.079,0.261,0.11c0.104,0.031,0.222,0.064,0.349,0.1
			c0.129,0.036,0.252,0.085,0.373,0.152c0.146,0.078,0.256,0.176,0.333,0.289c0.078,0.113,0.118,0.258,0.118,0.434
			c0,0.141-0.027,0.267-0.079,0.381s-0.125,0.211-0.223,0.292c-0.096,0.082-0.214,0.143-0.354,0.186
			c-0.14,0.044-0.297,0.066-0.475,0.066c-0.127,0-0.249-0.015-0.362-0.044c-0.113-0.027-0.216-0.063-0.306-0.102
			c-0.092-0.039-0.171-0.081-0.242-0.123c-0.069-0.042-0.123-0.078-0.162-0.109l0.291-0.49c0.008,0.009,0.034,0.03,0.08,0.065
			c0.045,0.036,0.102,0.072,0.171,0.112c0.069,0.037,0.15,0.071,0.245,0.1c0.095,0.031,0.194,0.046,0.301,0.046
			c0.333,0,0.5-0.107,0.5-0.323c0-0.092-0.033-0.164-0.1-0.212c-0.067-0.05-0.153-0.092-0.255-0.127
			c-0.102-0.035-0.214-0.07-0.342-0.105c-0.125-0.033-0.246-0.08-0.363-0.14c-0.092-0.046-0.168-0.095-0.229-0.145
			c-0.061-0.051-0.107-0.103-0.143-0.161c-0.037-0.054-0.061-0.115-0.075-0.177c-0.013-0.063-0.02-0.129-0.02-0.201
			c0-0.149,0.03-0.28,0.088-0.391c0.059-0.11,0.138-0.202,0.238-0.276c0.102-0.074,0.218-0.127,0.351-0.165
			C12.232,15.887,12.373,15.871,12.52,15.871"/>
		<path fill="#005480" d="M14.32,17.38c0,0.143,0.025,0.275,0.075,0.39c0.051,0.116,0.118,0.218,0.203,0.301
			c0.084,0.085,0.181,0.15,0.292,0.195c0.11,0.044,0.228,0.068,0.35,0.068s0.239-0.024,0.35-0.07
			c0.111-0.046,0.208-0.112,0.29-0.197c0.084-0.083,0.149-0.186,0.2-0.302c0.047-0.118,0.073-0.249,0.073-0.389
			c0-0.142-0.023-0.272-0.071-0.39c-0.048-0.117-0.115-0.217-0.197-0.299c-0.082-0.082-0.179-0.145-0.29-0.19
			c-0.111-0.045-0.229-0.066-0.354-0.066c-0.129,0-0.248,0.021-0.359,0.066c-0.112,0.046-0.21,0.109-0.293,0.19
			c-0.083,0.082-0.149,0.182-0.196,0.299C14.343,17.104,14.32,17.236,14.32,17.38 M15.236,15.871c0.213,0,0.412,0.039,0.6,0.117
			c0.187,0.076,0.348,0.183,0.487,0.318c0.138,0.135,0.245,0.294,0.326,0.479c0.079,0.186,0.117,0.383,0.117,0.596
			c0,0.213-0.04,0.41-0.121,0.592c-0.08,0.184-0.189,0.344-0.327,0.479s-0.3,0.243-0.486,0.321
			c-0.188,0.078-0.388,0.118-0.599,0.118c-0.208,0-0.403-0.038-0.588-0.111c-0.184-0.073-0.346-0.175-0.484-0.31
			c-0.139-0.132-0.249-0.291-0.332-0.475c-0.083-0.186-0.122-0.391-0.122-0.614c0-0.213,0.039-0.41,0.118-0.595
			c0.08-0.181,0.188-0.342,0.325-0.478c0.138-0.136,0.3-0.245,0.484-0.321C14.82,15.91,15.021,15.871,15.236,15.871"/>
	</g>
	<polygon fill="#005480" points="19.314,15.813 20.129,18.833 19.499,18.833 19.159,17.363 18.504,18.853 17.866,17.363 
		17.53,18.833 16.898,18.833 17.707,15.813 18.529,17.642 	"/>
	<polygon fill="#005480" points="22.587,15.813 23.402,18.833 22.771,18.833 22.432,17.363 21.778,18.853 21.139,17.363 
		20.805,18.833 20.17,18.833 20.979,15.813 21.802,17.642 	"/>
	<path fill="#005480" d="M24.808,16.983l-0.307,0.777h0.607L24.808,16.983z M24.808,15.777l1.364,3.055h-0.63l-0.254-0.593h-0.953
		l-0.259,0.593h-0.633L24.808,15.777z"/>
	<polygon fill="#005480" points="28.401,15.932 28.327,16.456 27.612,16.456 27.612,18.833 27.025,18.833 27.025,16.456 
		26.221,16.456 26.294,15.932 	"/>
	<rect x="28.606" y="15.931" fill="#005480" width="0.583" height="2.902"/>
	<g>
		<path fill="#005480" d="M30.113,17.38c0,0.143,0.026,0.275,0.078,0.39c0.05,0.116,0.117,0.218,0.201,0.301
			c0.086,0.085,0.182,0.15,0.293,0.195c0.11,0.044,0.228,0.068,0.351,0.068c0.122,0,0.239-0.024,0.35-0.07
			c0.111-0.046,0.207-0.112,0.29-0.197c0.082-0.083,0.147-0.186,0.198-0.302c0.049-0.118,0.073-0.249,0.073-0.389
			c0-0.142-0.022-0.272-0.071-0.39c-0.048-0.117-0.114-0.217-0.198-0.299c-0.082-0.082-0.178-0.145-0.29-0.19
			c-0.11-0.045-0.229-0.066-0.353-0.066c-0.128,0-0.25,0.021-0.359,0.066c-0.114,0.046-0.21,0.109-0.293,0.19
			c-0.084,0.082-0.149,0.182-0.197,0.299C30.139,17.104,30.113,17.236,30.113,17.38 M31.032,15.871c0.212,0,0.413,0.039,0.599,0.117
			c0.186,0.076,0.349,0.183,0.486,0.318c0.138,0.135,0.246,0.294,0.325,0.479c0.081,0.186,0.12,0.383,0.12,0.596
			c0,0.213-0.042,0.41-0.122,0.592c-0.081,0.184-0.188,0.344-0.327,0.479c-0.137,0.135-0.299,0.243-0.486,0.321
			c-0.187,0.078-0.387,0.118-0.599,0.118c-0.208,0-0.404-0.038-0.588-0.111c-0.184-0.073-0.345-0.175-0.483-0.31
			c-0.14-0.132-0.25-0.291-0.331-0.475c-0.083-0.186-0.125-0.391-0.125-0.614c0-0.213,0.04-0.41,0.12-0.595
			c0.08-0.181,0.187-0.342,0.325-0.478c0.138-0.136,0.3-0.245,0.483-0.321C30.616,15.91,30.816,15.871,31.032,15.871"/>
	</g>
	<polygon fill="#005480" points="35.159,15.932 35.159,18.902 33.437,17.159 33.464,18.833 32.88,18.833 32.88,15.853 
		34.603,17.592 34.575,15.932 	"/>
	<polygon fill="#005480" points="32.53,24.877 29.637,32.327 27.602,27.559 25.481,32.327 22.665,24.877 24.17,24.464 
		25.673,28.755 27.645,24.293 29.541,28.755 31.09,24.464 	"/>
	<g>
		<path fill="#005480" d="M15.375,21.631c-0.565,0.248-1.059,0.619-1.478,1.115c-0.42,0.496-0.749,1.115-0.985,1.858
			c-0.238,0.745-0.355,1.606-0.355,2.585c0,1.056,0.117,1.96,0.355,2.716c0.237,0.753,0.562,1.373,0.977,1.858
			c0.415,0.485,0.906,0.842,1.472,1.074c0.565,0.232,1.183,0.347,1.85,0.347c0.625,0,1.218-0.121,1.779-0.363
			c0.56-0.244,1.05-0.611,1.47-1.107c0.42-0.496,0.751-1.118,0.994-1.866c0.243-0.75,0.363-1.635,0.363-2.66
			c0-0.991-0.124-1.858-0.372-2.602c-0.248-0.743-0.582-1.359-1.002-1.85c-0.42-0.491-0.908-0.859-1.462-1.107
			c-0.556-0.248-1.146-0.371-1.771-0.371C16.552,21.26,15.941,21.384,15.375,21.631 M15.117,25.493
			c0.112-0.473,0.272-0.861,0.477-1.163c0.204-0.302,0.442-0.525,0.711-0.67c0.269-0.146,0.565-0.219,0.888-0.219
			c0.313,0,0.604,0.073,0.874,0.219c0.269,0.145,0.503,0.368,0.702,0.67c0.2,0.302,0.356,0.688,0.469,1.156
			c0.113,0.468,0.17,1.031,0.17,1.689c0,0.678-0.057,1.26-0.17,1.745c-0.113,0.485-0.267,0.884-0.46,1.197
			c-0.194,0.312-0.427,0.541-0.696,0.687c-0.27,0.144-0.56,0.219-0.873,0.219c-0.345,0-0.654-0.071-0.928-0.211
			c-0.274-0.141-0.513-0.364-0.711-0.67c-0.2-0.306-0.353-0.707-0.461-1.195c-0.108-0.491-0.161-1.082-0.161-1.77
			C14.948,26.529,15.003,25.969,15.117,25.493 M4.814,21.503l-0.534,6.206c0.096-0.077,0.22-0.165,0.372-0.268
			c0.151-0.103,0.336-0.197,0.558-0.283c0.221-0.086,0.487-0.162,0.801-0.227c0.312-0.064,0.684-0.096,1.115-0.096
			c0.355,0,0.684,0.056,0.984,0.169c0.303,0.112,0.564,0.265,0.785,0.453c0.222,0.189,0.396,0.409,0.525,0.663
			c0.129,0.254,0.193,0.52,0.193,0.8c0,0.324-0.061,0.62-0.186,0.89c-0.124,0.27-0.291,0.503-0.5,0.703
			c-0.211,0.198-0.456,0.352-0.736,0.46c-0.279,0.108-0.581,0.163-0.905,0.163c-0.408,0-0.762-0.043-1.059-0.131
			c-0.295-0.085-0.547-0.185-0.751-0.298c-0.206-0.113-0.369-0.226-0.493-0.339c-0.124-0.113-0.213-0.196-0.266-0.25L3.23,31.667
			c0.075,0.087,0.21,0.213,0.404,0.38c0.194,0.167,0.452,0.333,0.776,0.5c0.322,0.167,0.722,0.316,1.196,0.445
			c0.474,0.128,1.034,0.193,1.68,0.193c0.712,0,1.358-0.11,1.94-0.331c0.582-0.221,1.075-0.52,1.478-0.897
			c0.404-0.376,0.716-0.818,0.938-1.324c0.221-0.506,0.332-1.045,0.332-1.617c0-0.646-0.122-1.212-0.365-1.696
			c-0.241-0.484-0.551-0.889-0.928-1.212c-0.377-0.323-0.792-0.565-1.245-0.727c-0.452-0.162-0.889-0.242-1.309-0.242
			c-0.291,0-0.528,0.008-0.711,0.023c-0.183,0.018-0.333,0.036-0.452,0.057c-0.119,0.022-0.209,0.046-0.274,0.074
			c-0.064,0.027-0.125,0.052-0.178,0.072l0.178-1.827h4.136l0.179-2.035H4.814z"/>
	</g>
</g>
</svg>
