<?xml version="1.0" encoding="utf-8"?>
<!-- Generator: Adobe Illustrator 21.0.0, SVG Export Plug-In . SVG Version: 6.00 Build 0)  -->
<svg version="1.1" id="Calque_1" xmlns="http://www.w3.org/2000/svg" xmlns:xlink="http://www.w3.org/1999/xlink" x="0px" y="0px"
	 viewBox="0 0 48 48" enable-background="new 0 0 48 48" xml:space="preserve">
<g>
	<path fill="#00A5E8" d="M48,36.764C48,42.969,42.969,48,36.763,48H11.237C5.031,48,0,42.969,0,36.764V11.236
		C0,5.031,5.031,0,11.237,0h25.526C42.969,0,48,5.031,48,11.236V36.764z M46,11.236C46,6.135,41.865,2,36.763,2H11.237
		C6.135,2,2,6.135,2,11.236v25.527C2,41.865,6.135,46,11.237,46h25.526C41.865,46,46,41.865,46,36.764V11.236z"/>
	<g>
		<path fill="#00A5E8" d="M4.9,16.345c0.074-0.018,0.243-0.053,0.507-0.102c0.263-0.049,0.589-0.074,0.979-0.074
			c0.434,0,0.847,0.044,1.24,0.13c0.394,0.087,0.738,0.228,1.036,0.422c0.296,0.195,0.534,0.448,0.71,0.757
			c0.177,0.31,0.265,0.684,0.265,1.125c0,0.446-0.09,0.821-0.27,1.124c-0.179,0.303-0.41,0.547-0.692,0.729
			c-0.282,0.183-0.599,0.314-0.952,0.395c-0.353,0.08-0.703,0.121-1.05,0.121c-0.148,0-0.296-0.009-0.445-0.028v1.95H4.9V16.345z
			 M6.685,17.339c-0.155,0-0.264,0.002-0.326,0.008c-0.063,0.006-0.106,0.016-0.13,0.029v2.405c0.024,0.012,0.063,0.021,0.116,0.028
			c0.053,0.005,0.16,0.009,0.322,0.009c0.187,0,0.376-0.021,0.569-0.065c0.193-0.043,0.368-0.112,0.527-0.208
			c0.159-0.095,0.289-0.221,0.393-0.375c0.102-0.154,0.153-0.345,0.153-0.574c0-0.241-0.049-0.442-0.149-0.606
			c-0.099-0.163-0.227-0.293-0.382-0.389c-0.155-0.095-0.329-0.164-0.522-0.203C7.062,17.358,6.873,17.339,6.685,17.339z"/>
		<path fill="#00A5E8" d="M12.973,15.954l3.093,6.938h-1.431l-0.576-1.346h-2.165l-0.584,1.346H9.87L12.973,15.954z M12.973,18.694
			l-0.697,1.765h1.375L12.973,18.694z"/>
		<path fill="#00A5E8" d="M19.771,16.168c0.416,0,0.776,0.046,1.083,0.14c0.307,0.092,0.561,0.195,0.766,0.307
			c0.205,0.111,0.358,0.213,0.46,0.306c0.102,0.093,0.156,0.143,0.163,0.148l-0.744,1.022c-0.018-0.012-0.066-0.055-0.143-0.125
			c-0.078-0.071-0.186-0.145-0.325-0.223c-0.14-0.077-0.308-0.147-0.506-0.209c-0.199-0.061-0.425-0.093-0.679-0.093
			c-0.297,0-0.571,0.053-0.822,0.158c-0.25,0.106-0.469,0.251-0.654,0.437c-0.186,0.186-0.331,0.407-0.437,0.664
			c-0.105,0.257-0.157,0.54-0.157,0.85c0,0.322,0.052,0.62,0.157,0.892c0.106,0.272,0.251,0.506,0.437,0.702
			c0.186,0.194,0.404,0.346,0.654,0.455c0.251,0.107,0.525,0.162,0.822,0.162c0.285,0,0.535-0.032,0.749-0.097
			c0.213-0.065,0.393-0.142,0.538-0.228c0.145-0.087,0.261-0.168,0.343-0.246c0.084-0.077,0.139-0.131,0.163-0.162l0.743,1.03
			c-0.024,0.019-0.096,0.081-0.213,0.186c-0.118,0.106-0.284,0.216-0.497,0.33c-0.214,0.115-0.478,0.219-0.794,0.312
			c-0.315,0.092-0.688,0.139-1.115,0.139c-0.458,0-0.893-0.079-1.305-0.237c-0.412-0.157-0.77-0.385-1.078-0.682
			c-0.306-0.297-0.549-0.66-0.729-1.087c-0.179-0.427-0.27-0.909-0.27-1.449c0-0.489,0.087-0.941,0.26-1.355
			c0.173-0.415,0.41-0.775,0.711-1.078c0.3-0.303,0.658-0.541,1.073-0.711C18.84,16.252,19.289,16.168,19.771,16.168z"/>
		<path fill="#00A5E8" d="M27.965,16.771l-2.332,2.74l2.48,2.889l-1.189,0.641l-2.583-3.232v3.083h-1.329v-6.585h1.329v2.935
			l2.471-3.102L27.965,16.771z"/>
		<path fill="#00A5E8" d="M29.813,16.308v6.585h-1.329v-6.585H29.813z"/>
		<path fill="#00A5E8" d="M35.935,16.308v6.743l-3.91-3.957l0.065,3.798h-1.329v-6.762l3.911,3.948l-0.065-3.771H35.935z"/>
		<path fill="#00A5E8" d="M40.282,16.168c0.421,0,0.793,0.056,1.115,0.167c0.322,0.111,0.593,0.236,0.813,0.377
			c0.219,0.139,0.389,0.269,0.507,0.39c0.117,0.121,0.186,0.19,0.205,0.209l-0.865,0.855c-0.019-0.019-0.068-0.07-0.148-0.154
			c-0.08-0.083-0.193-0.172-0.338-0.265c-0.146-0.093-0.326-0.175-0.538-0.247c-0.214-0.071-0.467-0.106-0.757-0.106
			c-0.316,0-0.609,0.056-0.879,0.167c-0.269,0.111-0.501,0.265-0.696,0.46c-0.195,0.195-0.347,0.429-0.455,0.701
			c-0.109,0.272-0.163,0.567-0.163,0.883c0,0.316,0.049,0.61,0.149,0.882c0.099,0.272,0.242,0.509,0.427,0.71
			c0.186,0.202,0.415,0.359,0.687,0.474c0.272,0.114,0.583,0.172,0.93,0.172c0.39,0,0.701-0.061,0.933-0.181
			c0.232-0.121,0.412-0.259,0.539-0.414c0.126-0.154,0.212-0.308,0.255-0.459c0.044-0.152,0.069-0.261,0.075-0.33h-3.13l0.233-1.022
			h4.337v0.139c0,0.167-0.016,0.368-0.046,0.6c-0.032,0.231-0.09,0.476-0.177,0.733c-0.087,0.257-0.205,0.511-0.352,0.762
			c-0.149,0.251-0.343,0.476-0.582,0.678c-0.238,0.202-0.526,0.364-0.864,0.487c-0.337,0.124-0.735,0.186-1.194,0.186
			c-0.576,0-1.088-0.086-1.537-0.26c-0.449-0.173-0.828-0.414-1.138-0.725c-0.31-0.31-0.545-0.676-0.706-1.1
			c-0.161-0.424-0.242-0.884-0.242-1.38c0-0.482,0.087-0.932,0.26-1.346c0.174-0.415,0.418-0.775,0.733-1.078
			c0.316-0.303,0.696-0.541,1.138-0.711C39.252,16.252,39.743,16.168,40.282,16.168z"/>
		<path fill="#00A5E8" d="M6.357,25.988c0.291,0,0.543,0.033,0.758,0.098c0.215,0.065,0.394,0.137,0.537,0.215
			c0.143,0.078,0.25,0.149,0.322,0.215c0.071,0.064,0.109,0.1,0.113,0.103l-0.519,0.716c-0.013-0.01-0.047-0.039-0.101-0.088
			c-0.054-0.05-0.13-0.102-0.228-0.156c-0.098-0.055-0.216-0.103-0.354-0.147c-0.139-0.043-0.297-0.065-0.475-0.065
			c-0.208,0-0.4,0.038-0.575,0.111c-0.176,0.073-0.329,0.176-0.46,0.306c-0.129,0.13-0.231,0.284-0.305,0.465
			c-0.073,0.179-0.11,0.378-0.11,0.595c0,0.225,0.037,0.433,0.11,0.623c0.074,0.191,0.176,0.354,0.305,0.491
			c0.13,0.137,0.284,0.243,0.46,0.318c0.175,0.076,0.367,0.114,0.575,0.114c0.199,0,0.373-0.023,0.524-0.069
			c0.148-0.045,0.275-0.098,0.376-0.159c0.102-0.061,0.182-0.118,0.241-0.172c0.059-0.054,0.096-0.092,0.114-0.114l0.52,0.723
			c-0.017,0.012-0.067,0.056-0.149,0.129c-0.082,0.074-0.199,0.151-0.348,0.232c-0.15,0.08-0.336,0.152-0.556,0.217
			c-0.221,0.065-0.481,0.098-0.78,0.098c-0.321,0-0.626-0.055-0.914-0.166c-0.288-0.111-0.539-0.27-0.754-0.478
			c-0.215-0.208-0.385-0.462-0.51-0.761c-0.125-0.298-0.189-0.637-0.189-1.014c0-0.343,0.06-0.659,0.182-0.949
			c0.121-0.291,0.288-0.542,0.498-0.754c0.21-0.213,0.46-0.378,0.75-0.497C5.706,26.048,6.02,25.988,6.357,25.988z"/>
		<path fill="#00A5E8" d="M10.5,25.838l2.165,4.858h-1.002l-0.402-0.943H9.746l-0.41,0.943H8.328L10.5,25.838z M10.5,27.757
			l-0.488,1.236h0.962L10.5,27.757z"/>
		<path fill="#00A5E8" d="M13.055,26.099c0.07-0.013,0.198-0.035,0.387-0.065c0.189-0.03,0.435-0.045,0.738-0.045
			c0.256,0,0.508,0.031,0.757,0.091c0.249,0.06,0.472,0.158,0.67,0.293c0.197,0.134,0.356,0.31,0.477,0.526
			c0.121,0.218,0.182,0.482,0.182,0.794c0,0.213-0.037,0.395-0.111,0.547c-0.073,0.151-0.158,0.278-0.253,0.38
			c-0.096,0.101-0.189,0.182-0.283,0.237c-0.094,0.057-0.162,0.094-0.206,0.111l1.177,1.397L15.747,30.8l-1.762-2.27v2.166h-0.93
			V26.099z M14.218,26.827c-0.038,0-0.077,0.003-0.116,0.01c-0.039,0.006-0.078,0.014-0.117,0.022v1.652
			c0.052,0.009,0.104,0.014,0.153,0.014c0.05,0,0.101,0,0.153,0c0.108,0,0.22-0.016,0.337-0.046c0.117-0.03,0.224-0.078,0.322-0.142
			c0.098-0.065,0.178-0.15,0.241-0.254c0.064-0.104,0.094-0.232,0.094-0.384c0-0.169-0.034-0.309-0.101-0.422
			c-0.067-0.113-0.152-0.203-0.257-0.271c-0.104-0.067-0.219-0.113-0.345-0.139C14.457,26.84,14.335,26.827,14.218,26.827z"/>
		<path fill="#00A5E8" d="M20.032,26.086l-0.117,0.832h-1.137v3.778h-0.93v-3.778h-1.281l0.117-0.832H20.032z"/>
		<path fill="#00A5E8" d="M22.621,25.988c0.338,0,0.656,0.063,0.952,0.185c0.297,0.125,0.555,0.293,0.774,0.508
			c0.219,0.215,0.392,0.469,0.517,0.761c0.125,0.292,0.188,0.608,0.188,0.946c0,0.337-0.064,0.652-0.191,0.942
			c-0.128,0.291-0.302,0.545-0.521,0.762c-0.218,0.217-0.476,0.387-0.773,0.51c-0.296,0.124-0.615,0.185-0.952,0.185
			c-0.33,0-0.641-0.059-0.934-0.176c-0.293-0.117-0.55-0.281-0.77-0.491c-0.221-0.21-0.397-0.463-0.527-0.758
			c-0.13-0.295-0.195-0.619-0.195-0.975c0-0.338,0.063-0.653,0.189-0.943c0.125-0.291,0.297-0.544,0.517-0.761
			c0.218-0.216,0.476-0.387,0.771-0.511C21.958,26.051,22.278,25.988,22.621,25.988z M21.164,28.388c0,0.23,0.04,0.436,0.12,0.62
			c0.081,0.185,0.188,0.344,0.323,0.479c0.134,0.134,0.289,0.237,0.465,0.308c0.176,0.072,0.361,0.108,0.555,0.108
			c0.195,0,0.381-0.037,0.556-0.11c0.175-0.074,0.329-0.178,0.462-0.313c0.132-0.134,0.237-0.295,0.316-0.481
			c0.078-0.187,0.117-0.392,0.117-0.618c0-0.225-0.038-0.431-0.115-0.618c-0.075-0.186-0.179-0.344-0.312-0.474
			c-0.132-0.13-0.286-0.231-0.462-0.302c-0.176-0.071-0.363-0.108-0.563-0.108c-0.204,0-0.395,0.037-0.572,0.108
			c-0.178,0.072-0.333,0.172-0.465,0.302c-0.132,0.13-0.236,0.288-0.312,0.474C21.202,27.95,21.164,28.158,21.164,28.388z"/>
		<path fill="#00A5E8" d="M29.181,26.086v4.721l-2.738-2.77l0.045,2.66h-0.93v-4.734l2.738,2.763l-0.046-2.64H29.181z"/>
		<path fill="#00A5E8" d="M31.496,26.112c0.1-0.021,0.21-0.04,0.331-0.059c0.104-0.017,0.227-0.032,0.368-0.045
			c0.141-0.013,0.293-0.019,0.458-0.019c0.304,0,0.581,0.028,0.832,0.082c0.252,0.054,0.469,0.138,0.651,0.253
			c0.182,0.115,0.323,0.26,0.422,0.436c0.099,0.176,0.149,0.385,0.149,0.627c0,0.173-0.025,0.322-0.074,0.445
			c-0.05,0.123-0.111,0.227-0.182,0.309c-0.072,0.083-0.147,0.147-0.224,0.195c-0.078,0.047-0.146,0.082-0.202,0.103
			c0.061,0.009,0.141,0.03,0.241,0.063c0.099,0.032,0.197,0.087,0.292,0.165c0.096,0.078,0.177,0.184,0.247,0.315
			c0.069,0.133,0.104,0.303,0.104,0.511c0,0.234-0.059,0.434-0.175,0.599c-0.117,0.164-0.272,0.297-0.465,0.4
			c-0.192,0.101-0.413,0.177-0.66,0.224c-0.246,0.047-0.502,0.071-0.767,0.071c-0.173,0-0.336-0.006-0.491-0.02
			c-0.154-0.013-0.291-0.027-0.409-0.041c-0.12-0.016-0.218-0.031-0.296-0.046c-0.078-0.015-0.128-0.024-0.15-0.029V26.112z
			 M32.835,26.749c-0.148,0-0.25,0.005-0.309,0.017c-0.058,0.011-0.092,0.019-0.1,0.022v1.346c0.021,0,0.042,0.001,0.061,0.003
			c0.019,0.003,0.043,0.004,0.069,0.006c0.025,0.003,0.061,0.004,0.104,0.004c0.043,0,0.102,0,0.176,0
			c0.13,0,0.257-0.014,0.38-0.043c0.124-0.028,0.233-0.071,0.328-0.13c0.096-0.059,0.173-0.132,0.231-0.221
			c0.059-0.089,0.087-0.194,0.087-0.315c0-0.117-0.029-0.22-0.087-0.306c-0.059-0.086-0.137-0.158-0.234-0.215
			c-0.098-0.056-0.208-0.099-0.332-0.126C33.085,26.764,32.961,26.749,32.835,26.749z M32.946,28.81
			c-0.151,0-0.269,0.004-0.351,0.013c-0.082,0.009-0.139,0.016-0.168,0.02v1.106c0.052,0.008,0.106,0.018,0.163,0.026
			c0.047,0.008,0.103,0.014,0.166,0.016c0.063,0.002,0.126,0.004,0.191,0.004c0.144,0,0.279-0.01,0.407-0.03
			c0.128-0.02,0.241-0.05,0.338-0.094c0.098-0.044,0.176-0.102,0.234-0.176c0.059-0.074,0.087-0.167,0.087-0.279
			c0-0.109-0.031-0.203-0.091-0.28c-0.061-0.078-0.14-0.141-0.241-0.188c-0.1-0.047-0.214-0.083-0.341-0.104
			C33.211,28.822,33.08,28.81,32.946,28.81z"/>
		<path fill="#00A5E8" d="M37.654,25.988c0.337,0,0.656,0.063,0.952,0.185c0.297,0.125,0.555,0.293,0.774,0.508
			c0.219,0.215,0.391,0.469,0.517,0.761c0.126,0.292,0.189,0.608,0.189,0.946c0,0.337-0.064,0.652-0.191,0.942
			c-0.128,0.291-0.302,0.545-0.521,0.762c-0.218,0.217-0.477,0.387-0.773,0.51c-0.297,0.124-0.615,0.185-0.952,0.185
			c-0.33,0-0.641-0.059-0.934-0.176c-0.293-0.117-0.55-0.281-0.77-0.491c-0.221-0.21-0.397-0.463-0.527-0.758
			c-0.13-0.295-0.195-0.619-0.195-0.975c0-0.338,0.063-0.653,0.189-0.943c0.125-0.291,0.298-0.544,0.517-0.761
			c0.218-0.216,0.476-0.387,0.771-0.511C36.992,26.051,37.31,25.988,37.654,25.988z M36.197,28.388c0,0.23,0.04,0.436,0.121,0.62
			c0.08,0.185,0.187,0.344,0.322,0.479c0.134,0.134,0.289,0.237,0.465,0.308c0.176,0.072,0.361,0.108,0.555,0.108
			c0.195,0,0.381-0.037,0.557-0.11c0.175-0.074,0.33-0.178,0.461-0.313c0.132-0.134,0.237-0.295,0.315-0.481
			c0.078-0.187,0.117-0.392,0.117-0.618c0-0.225-0.038-0.431-0.114-0.618c-0.075-0.186-0.179-0.344-0.311-0.474
			c-0.132-0.13-0.285-0.231-0.462-0.302c-0.175-0.071-0.363-0.108-0.563-0.108c-0.204,0-0.394,0.037-0.572,0.108
			c-0.177,0.072-0.333,0.172-0.465,0.302c-0.132,0.13-0.236,0.288-0.312,0.474C36.235,27.95,36.197,28.158,36.197,28.388z"/>
		<path fill="#00A5E8" d="M44.136,26.372l-1.273,1.977l1.443,2.152l-0.91,0.28l-1.099-1.723l-1.059,1.723l-0.93-0.28l1.437-2.152
			l-1.282-1.977l0.84-0.384l1.027,1.697l0.988-1.697L44.136,26.372z"/>
	</g>
</g>
</svg>
