<?xml version="1.0" encoding="utf-8"?>
<!-- Generator: Adobe Illustrator 16.0.0, SVG Export Plug-In . SVG Version: 6.00 Build 0)  -->
<!DOCTYPE svg PUBLIC "-//W3C//DTD SVG 1.1//EN" "http://www.w3.org/Graphics/SVG/1.1/DTD/svg11.dtd">
<svg version="1.1" id="Calque_1" xmlns="http://www.w3.org/2000/svg" xmlns:xlink="http://www.w3.org/1999/xlink" x="0px" y="0px"
	 width="48px" height="48px" viewBox="0 0 48 48" enable-background="new 0 0 48 48" xml:space="preserve">
<g>
	<path fill="#00517D" d="M48,36.763C48,42.969,42.969,48,36.764,48H11.236C5.031,48,0,42.969,0,36.763V11.237
		C0,5.031,5.031,0,11.236,0h25.527C42.969,0,48,5.031,48,11.237V36.763z M46,11.237C46,6.135,41.865,2,36.764,2H11.236
		C6.135,2,2,6.135,2,11.237v25.526C2,41.865,6.135,46,11.236,46h25.527C41.865,46,46,41.865,46,36.763V11.237z"/>
	<g>
		<path fill="#005480" d="M9.65,11.26c0.229,0,0.445,0.026,0.649,0.079c0.204,0.052,0.386,0.113,0.545,0.183
			c0.159,0.07,0.291,0.138,0.395,0.205c0.104,0.067,0.174,0.114,0.209,0.138l-0.493,0.858c-0.189-0.144-0.393-0.265-0.612-0.362
			c-0.219-0.097-0.482-0.146-0.791-0.146c-0.239,0-0.432,0.048-0.579,0.143c-0.147,0.095-0.221,0.232-0.221,0.411
			c0,0.144,0.063,0.255,0.188,0.332c0.124,0.078,0.282,0.145,0.474,0.202c0.191,0.057,0.403,0.118,0.638,0.183
			c0.233,0.064,0.46,0.156,0.679,0.276c0.264,0.144,0.467,0.319,0.608,0.526c0.142,0.207,0.213,0.473,0.213,0.795
			c0,0.254-0.047,0.486-0.142,0.695c-0.095,0.209-0.23,0.387-0.407,0.533c-0.177,0.147-0.392,0.26-0.646,0.34
			c-0.253,0.079-0.542,0.12-0.866,0.12c-0.234,0-0.455-0.026-0.662-0.079c-0.206-0.052-0.393-0.114-0.559-0.187
			c-0.167-0.073-0.314-0.147-0.441-0.225c-0.127-0.077-0.225-0.143-0.295-0.197l0.53-0.896c0.015,0.015,0.063,0.055,0.146,0.12
			c0.082,0.065,0.187,0.132,0.313,0.201c0.127,0.07,0.276,0.133,0.448,0.187c0.172,0.055,0.355,0.083,0.548,0.083
			c0.607,0,0.911-0.197,0.911-0.59c0-0.168-0.061-0.299-0.183-0.388c-0.122-0.089-0.276-0.167-0.463-0.231
			c-0.187-0.064-0.395-0.128-0.623-0.19c-0.229-0.063-0.451-0.148-0.665-0.257c-0.169-0.085-0.309-0.173-0.418-0.265
			c-0.109-0.093-0.196-0.19-0.261-0.292c-0.064-0.102-0.109-0.211-0.135-0.325c-0.024-0.115-0.037-0.237-0.037-0.366
			c0-0.274,0.054-0.512,0.161-0.713c0.107-0.202,0.253-0.37,0.437-0.504s0.397-0.234,0.638-0.299
			C9.126,11.293,9.381,11.26,9.65,11.26z"/>
		<path fill="#005480" d="M15.631,11.373l-0.134,0.956H14.19v4.338h-1.067v-4.338h-1.471l0.134-0.956H15.631z"/>
		<path fill="#005480" d="M17.072,11.373v5.294h-1.067v-5.294H17.072z"/>
		<path fill="#005480" d="M20.365,11.26c0.333,0,0.623,0.038,0.87,0.112c0.246,0.075,0.452,0.157,0.616,0.246
			c0.165,0.09,0.288,0.172,0.37,0.247c0.082,0.075,0.125,0.115,0.13,0.119l-0.597,0.822c-0.015-0.01-0.053-0.044-0.116-0.101
			c-0.062-0.057-0.148-0.117-0.261-0.179c-0.111-0.062-0.247-0.118-0.406-0.167c-0.16-0.05-0.341-0.075-0.545-0.075
			c-0.239,0-0.459,0.042-0.662,0.127c-0.201,0.084-0.376,0.202-0.526,0.35c-0.149,0.15-0.267,0.328-0.352,0.535
			c-0.084,0.206-0.127,0.434-0.127,0.683c0,0.259,0.043,0.499,0.127,0.717c0.085,0.22,0.202,0.407,0.352,0.564
			s0.325,0.279,0.526,0.366c0.202,0.087,0.422,0.131,0.662,0.131c0.229,0,0.429-0.026,0.601-0.079s0.316-0.113,0.433-0.183
			c0.117-0.07,0.209-0.135,0.276-0.198c0.067-0.063,0.11-0.106,0.13-0.131l0.598,0.829c-0.02,0.015-0.078,0.064-0.171,0.149
			c-0.095,0.084-0.228,0.173-0.399,0.265c-0.172,0.093-0.385,0.176-0.639,0.25c-0.254,0.075-0.553,0.112-0.896,0.112
			c-0.369,0-0.719-0.063-1.049-0.191c-0.332-0.127-0.62-0.31-0.867-0.548c-0.246-0.239-0.441-0.531-0.585-0.874
			c-0.145-0.343-0.217-0.731-0.217-1.165c0-0.393,0.07-0.756,0.209-1.09c0.14-0.333,0.33-0.623,0.571-0.866
			c0.242-0.244,0.53-0.434,0.863-0.571C19.616,11.329,19.977,11.26,20.365,11.26z"/>
		<path fill="#005480" d="M26.951,11.746l-1.874,2.203l1.994,2.323l-0.956,0.515l-2.076-2.599v2.479h-1.068v-5.294h1.068v2.36
			l1.985-2.494L26.951,11.746z"/>
		<path fill="#005480" d="M29.52,11.089l2.486,5.578h-1.15l-0.463-1.083h-1.739l-0.471,1.083h-1.158L29.52,11.089z M29.52,13.292
			l-0.56,1.419h1.105L29.52,13.292z"/>
		<path fill="#005480" d="M35.157,11.26c0.338,0,0.637,0.045,0.896,0.135c0.258,0.089,0.476,0.19,0.653,0.302
			c0.176,0.112,0.313,0.217,0.407,0.313c0.094,0.097,0.149,0.153,0.165,0.168l-0.694,0.687c-0.016-0.014-0.055-0.056-0.12-0.123
			c-0.064-0.067-0.156-0.139-0.272-0.213c-0.118-0.074-0.261-0.141-0.434-0.197c-0.171-0.058-0.375-0.086-0.608-0.086
			c-0.254,0-0.489,0.044-0.706,0.134c-0.216,0.089-0.403,0.212-0.56,0.369c-0.156,0.157-0.279,0.345-0.366,0.564
			s-0.13,0.455-0.13,0.709c0,0.253,0.039,0.491,0.119,0.709c0.08,0.22,0.194,0.409,0.344,0.571c0.148,0.162,0.333,0.289,0.552,0.381
			c0.219,0.092,0.468,0.138,0.747,0.138c0.314,0,0.563-0.048,0.75-0.145c0.187-0.097,0.331-0.208,0.433-0.333
			s0.17-0.247,0.206-0.369c0.034-0.122,0.054-0.21,0.06-0.265h-2.517l0.187-0.822h3.487V14c0,0.134-0.012,0.295-0.037,0.482
			c-0.025,0.187-0.073,0.383-0.142,0.59c-0.07,0.207-0.165,0.411-0.284,0.612c-0.119,0.202-0.275,0.383-0.467,0.545
			c-0.191,0.162-0.423,0.292-0.694,0.392c-0.271,0.1-0.591,0.15-0.959,0.15c-0.463,0-0.875-0.07-1.236-0.209
			c-0.361-0.139-0.667-0.333-0.915-0.582c-0.249-0.25-0.438-0.544-0.567-0.886c-0.129-0.34-0.194-0.71-0.194-1.108
			c0-0.389,0.07-0.75,0.209-1.083s0.336-0.623,0.589-0.866c0.254-0.244,0.56-0.434,0.915-0.571S34.724,11.26,35.157,11.26z"/>
		<path fill="#005480" d="M41.496,11.365l0.112,0.955h-2.217v1.517h1.971l-0.104,0.926h-1.867v0.948h2.471l-0.164,0.956h-3.375
			v-5.301H41.496z"/>
		<path fill="#005480" d="M9.12,25.731c-0.159,0-0.306-0.007-0.44-0.022c-0.135-0.015-0.25-0.032-0.351-0.053
			c-0.12-0.02-0.224-0.046-0.314-0.082v-5.182c0.125-0.034,0.244-0.063,0.359-0.086c0.114-0.022,0.252-0.042,0.414-0.06
			c0.162-0.017,0.345-0.026,0.549-0.026c0.214,0,0.44,0.015,0.679,0.045c0.239,0.029,0.473,0.083,0.702,0.161
			c0.229,0.078,0.446,0.183,0.653,0.317c0.207,0.134,0.39,0.303,0.549,0.508c0.159,0.204,0.285,0.448,0.377,0.731
			c0.092,0.284,0.139,0.616,0.139,0.994c0,0.409-0.049,0.76-0.146,1.052c-0.098,0.294-0.229,0.543-0.396,0.747
			c-0.166,0.204-0.361,0.369-0.582,0.493c-0.222,0.125-0.456,0.222-0.702,0.292c-0.247,0.07-0.497,0.116-0.754,0.138
			C9.599,25.721,9.354,25.731,9.12,25.731z M11.308,22.976c0-0.374-0.06-0.675-0.179-0.907c-0.12-0.231-0.273-0.412-0.46-0.541
			c-0.186-0.13-0.392-0.217-0.616-0.261c-0.224-0.045-0.44-0.067-0.65-0.067c-0.055,0-0.108,0.002-0.16,0.007
			s-0.105,0.012-0.16,0.022v3.472c0.104,0.016,0.209,0.022,0.313,0.022c0.209,0,0.427-0.023,0.653-0.071
			c0.226-0.047,0.433-0.136,0.619-0.265c0.187-0.129,0.34-0.308,0.46-0.533C11.248,23.627,11.308,23.335,11.308,22.976z"/>
		<path fill="#005480" d="M16.175,20.326l0.113,0.955H14.07v1.516h1.972l-0.104,0.926H14.07v0.948h2.471l-0.164,0.956h-3.375v-5.301
			H16.175z"/>
		<path fill="#005480" d="M23.411,20.52l-2.523,5.294l-2.442-5.294l1.068-0.299l1.404,3.36l1.426-3.36L23.411,20.52z"/>
		<path fill="#005480" d="M26.375,20.221c0.388,0,0.753,0.071,1.093,0.213c0.342,0.142,0.638,0.336,0.889,0.582
			c0.251,0.247,0.449,0.538,0.593,0.874c0.145,0.336,0.217,0.698,0.217,1.086c0,0.389-0.073,0.75-0.22,1.083
			c-0.147,0.333-0.346,0.625-0.598,0.874c-0.251,0.249-0.547,0.444-0.888,0.586c-0.341,0.142-0.706,0.213-1.094,0.213
			c-0.379,0-0.736-0.067-1.072-0.202c-0.336-0.134-0.631-0.322-0.885-0.563c-0.254-0.242-0.455-0.531-0.604-0.87
			c-0.149-0.338-0.224-0.711-0.224-1.12c0-0.388,0.073-0.749,0.217-1.083c0.144-0.333,0.342-0.625,0.593-0.874
			c0.252-0.249,0.547-0.444,0.886-0.585C25.617,20.292,25.982,20.221,26.375,20.221z M24.703,22.976
			c0,0.264,0.046,0.501,0.138,0.713c0.092,0.211,0.215,0.395,0.369,0.548c0.155,0.154,0.333,0.273,0.535,0.355
			c0.201,0.082,0.415,0.124,0.638,0.124c0.224,0,0.437-0.043,0.639-0.127c0.201-0.085,0.377-0.204,0.53-0.359
			c0.151-0.154,0.273-0.338,0.362-0.553c0.09-0.213,0.135-0.45,0.135-0.709c0-0.258-0.043-0.495-0.131-0.709
			c-0.087-0.214-0.207-0.396-0.358-0.545c-0.152-0.149-0.329-0.265-0.53-0.347c-0.202-0.082-0.417-0.124-0.646-0.124
			c-0.234,0-0.452,0.042-0.656,0.124c-0.205,0.083-0.382,0.198-0.534,0.347c-0.152,0.149-0.271,0.331-0.359,0.545
			C24.746,22.473,24.703,22.712,24.703,22.976z"/>
		<path fill="#005480" d="M33.372,20.333l-0.135,0.956H31.93v4.338h-1.067v-4.338h-1.471l0.134-0.956H33.372z"/>
		<path fill="#005480" d="M33.745,20.348c0.08-0.015,0.227-0.039,0.445-0.074c0.216-0.035,0.499-0.053,0.847-0.053
			c0.294,0,0.583,0.035,0.87,0.105s0.542,0.182,0.77,0.335c0.226,0.155,0.409,0.356,0.548,0.605
			c0.139,0.249,0.209,0.552,0.209,0.911c0,0.243-0.043,0.452-0.127,0.626c-0.084,0.175-0.182,0.32-0.292,0.438
			s-0.218,0.208-0.325,0.272c-0.106,0.065-0.185,0.107-0.235,0.126l1.351,1.606l-0.97,0.5l-2.023-2.606v2.486h-1.068V20.348z
			 M35.081,21.185c-0.044,0-0.089,0.003-0.134,0.011s-0.089,0.017-0.134,0.026v1.896c0.059,0.011,0.118,0.015,0.176,0.015
			c0.057,0,0.115,0,0.175,0c0.125,0,0.254-0.018,0.388-0.052c0.135-0.035,0.257-0.089,0.371-0.164
			c0.111-0.074,0.203-0.172,0.275-0.292c0.072-0.119,0.108-0.266,0.108-0.44c0-0.194-0.038-0.355-0.116-0.485
			c-0.077-0.13-0.175-0.232-0.295-0.31c-0.12-0.077-0.251-0.13-0.396-0.161C35.355,21.199,35.215,21.185,35.081,21.185z"/>
		<path fill="#005480" d="M41.308,20.326l0.112,0.955h-2.217v1.516h1.971l-0.104,0.926h-1.867v0.948h2.471l-0.164,0.956h-3.375
			v-5.301H41.308z"/>
	</g>
	<g>
		<path fill="#005480" d="M9.206,28.314v7.23h3.46l-0.199,1.593H7.426v-8.823H9.206z"/>
		<path fill="#005480" d="M17.581,28.127c0.646,0,1.254,0.119,1.823,0.355c0.568,0.236,1.062,0.56,1.481,0.971
			c0.418,0.41,0.749,0.896,0.989,1.456s0.36,1.164,0.36,1.811c0,0.647-0.123,1.249-0.366,1.804
			c-0.246,0.556-0.577,1.042-0.996,1.456c-0.419,0.415-0.913,0.741-1.481,0.977c-0.568,0.236-1.176,0.354-1.823,0.354
			c-0.631,0-1.226-0.112-1.786-0.335c-0.56-0.224-1.051-0.538-1.475-0.939c-0.422-0.403-0.759-0.886-1.007-1.45
			c-0.25-0.564-0.374-1.187-0.374-1.866c0-0.647,0.121-1.249,0.361-1.805c0.241-0.556,0.57-1.041,0.989-1.456
			c0.418-0.415,0.911-0.741,1.475-0.977C16.315,28.246,16.925,28.127,17.581,28.127z M14.793,32.72c0,0.439,0.077,0.835,0.23,1.188
			c0.153,0.354,0.359,0.658,0.616,0.916c0.257,0.257,0.554,0.454,0.89,0.591c0.335,0.137,0.691,0.205,1.063,0.205
			c0.374,0,0.728-0.07,1.064-0.211s0.63-0.34,0.884-0.597c0.253-0.257,0.455-0.564,0.604-0.921c0.149-0.357,0.224-0.751,0.224-1.183
			s-0.073-0.825-0.217-1.181c-0.146-0.357-0.345-0.66-0.598-0.91c-0.253-0.249-0.548-0.441-0.883-0.579
			c-0.336-0.137-0.695-0.205-1.077-0.205c-0.39,0-0.755,0.068-1.095,0.205c-0.34,0.137-0.637,0.33-0.89,0.579
			c-0.253,0.25-0.452,0.553-0.598,0.91C14.866,31.882,14.793,32.28,14.793,32.72z"/>
		<path fill="#005480" d="M27.711,28.127c0.564,0,1.062,0.075,1.493,0.225c0.432,0.149,0.795,0.317,1.089,0.504
			c0.294,0.187,0.52,0.36,0.678,0.522c0.157,0.162,0.249,0.256,0.274,0.281l-1.158,1.145c-0.024-0.025-0.091-0.094-0.199-0.206
			c-0.108-0.113-0.26-0.23-0.454-0.355s-0.436-0.234-0.722-0.33c-0.286-0.095-0.625-0.143-1.014-0.143
			c-0.423,0-0.816,0.074-1.176,0.224c-0.361,0.149-0.672,0.355-0.934,0.616s-0.464,0.574-0.609,0.939
			c-0.146,0.365-0.219,0.759-0.219,1.182s0.067,0.817,0.199,1.183c0.133,0.366,0.324,0.683,0.573,0.952s0.556,0.481,0.921,0.635
			s0.78,0.23,1.245,0.23c0.522,0,0.939-0.081,1.25-0.243c0.312-0.162,0.552-0.347,0.723-0.553c0.17-0.208,0.284-0.413,0.342-0.617
			c0.058-0.203,0.091-0.35,0.1-0.441h-4.194l0.311-1.369h5.813v0.187c0,0.224-0.021,0.492-0.063,0.803
			c-0.042,0.311-0.12,0.638-0.236,0.983c-0.117,0.344-0.274,0.684-0.473,1.021c-0.199,0.335-0.458,0.638-0.778,0.908
			c-0.32,0.27-0.706,0.487-1.158,0.653c-0.452,0.166-0.985,0.249-1.599,0.249c-0.772,0-1.458-0.116-2.06-0.348
			c-0.602-0.232-1.109-0.556-1.524-0.971s-0.73-0.907-0.946-1.475c-0.216-0.568-0.324-1.185-0.324-1.848
			c0-0.647,0.116-1.249,0.349-1.804c0.233-0.555,0.56-1.037,0.983-1.444c0.424-0.405,0.932-0.724,1.525-0.952
			C26.332,28.242,26.989,28.127,27.711,28.127z"/>
		<path fill="#005480" d="M37.318,28.127c0.646,0,1.254,0.119,1.823,0.355c0.568,0.236,1.062,0.56,1.48,0.971
			c0.418,0.41,0.749,0.896,0.989,1.456c0.241,0.56,0.361,1.164,0.361,1.811c0,0.647-0.123,1.249-0.367,1.804
			c-0.246,0.556-0.577,1.042-0.997,1.456c-0.419,0.415-0.913,0.741-1.48,0.977c-0.568,0.236-1.176,0.354-1.823,0.354
			c-0.63,0-1.226-0.112-1.786-0.335c-0.559-0.224-1.051-0.538-1.475-0.939c-0.422-0.403-0.759-0.886-1.008-1.45
			c-0.249-0.564-0.374-1.187-0.374-1.866c0-0.647,0.121-1.249,0.361-1.805c0.241-0.556,0.57-1.041,0.989-1.456
			c0.418-0.415,0.91-0.741,1.474-0.977C36.053,28.246,36.663,28.127,37.318,28.127z M34.531,32.72c0,0.439,0.076,0.835,0.23,1.188
			c0.153,0.354,0.358,0.658,0.616,0.916c0.257,0.257,0.554,0.454,0.89,0.591c0.336,0.137,0.691,0.205,1.064,0.205
			c0.374,0,0.728-0.07,1.064-0.211s0.63-0.34,0.884-0.597c0.253-0.257,0.455-0.564,0.603-0.921c0.149-0.357,0.224-0.751,0.224-1.183
			s-0.072-0.825-0.217-1.181c-0.146-0.357-0.345-0.66-0.598-0.91c-0.253-0.249-0.548-0.441-0.883-0.579
			c-0.336-0.137-0.695-0.205-1.077-0.205c-0.39,0-0.755,0.068-1.095,0.205c-0.341,0.137-0.637,0.33-0.89,0.579
			c-0.253,0.25-0.452,0.553-0.598,0.91C34.603,31.882,34.531,32.28,34.531,32.72z"/>
	</g>
</g>
</svg>
