<?xml version="1.0" encoding="utf-8"?>
<!-- Generator: Adobe Illustrator 21.0.0, SVG Export Plug-In . SVG Version: 6.00 Build 0)  -->
<svg version="1.1" id="Calque_1" xmlns="http://www.w3.org/2000/svg" xmlns:xlink="http://www.w3.org/1999/xlink" x="0px" y="0px"
	 viewBox="0 0 48 48" enable-background="new 0 0 48 48" xml:space="preserve">
<path fill="#00A5E8" d="M48,36.763C48,42.969,42.969,48,36.763,48H11.237C5.031,48,0,42.969,0,36.763V11.237
	C0,5.031,5.031,0,11.237,0h25.526C42.969,0,48,5.031,48,11.237V36.763z M46,11.237C46,6.135,41.865,2,36.763,2H11.237
	C6.135,2,2,6.135,2,11.237v25.526C2,41.865,6.135,46,11.237,46h25.526C41.865,46,46,41.865,46,36.763V11.237z"/>
<g>
	<path fill="#00A5E8" d="M10.186,44.476v-5.084c0-0.164-0.01-0.295-0.03-0.394c-0.02-0.099-0.044-0.171-0.072-0.216
		c0.04-0.017,0.109-0.048,0.208-0.093c0.099-0.045,0.226-0.092,0.381-0.14c0.156-0.048,0.343-0.089,0.564-0.123
		c0.22-0.034,0.474-0.051,0.763-0.051c0.395,0,0.755,0.057,1.08,0.169c0.325,0.113,0.603,0.274,0.835,0.483
		c0.231,0.209,0.411,0.46,0.538,0.754c0.127,0.294,0.191,0.622,0.191,0.983c0,0.322-0.052,0.619-0.157,0.89
		c-0.105,0.271-0.254,0.507-0.449,0.708c-0.195,0.2-0.428,0.357-0.699,0.47c-0.271,0.113-0.571,0.169-0.898,0.169
		c-0.164,0-0.312-0.011-0.445-0.034c-0.133-0.023-0.247-0.048-0.343-0.076c-0.096-0.028-0.174-0.055-0.233-0.081
		s-0.097-0.044-0.114-0.055v1.72H10.186z M13.356,40.083c-0.085-0.167-0.197-0.304-0.335-0.411
		c-0.139-0.107-0.294-0.187-0.466-0.237c-0.172-0.051-0.343-0.077-0.513-0.077c-0.243,0-0.422,0.019-0.538,0.055
		c-0.116,0.037-0.179,0.058-0.191,0.063v2.042c0,0.141,0.083,0.249,0.25,0.322c0.167,0.073,0.366,0.11,0.598,0.11
		c0.169,0,0.333-0.021,0.491-0.064c0.158-0.042,0.299-0.113,0.424-0.212c0.124-0.099,0.223-0.229,0.297-0.39s0.11-0.363,0.11-0.606
		C13.482,40.449,13.44,40.249,13.356,40.083z"/>
	<path fill="#00A5E8" d="M18.422,38.553c0.294,0.119,0.55,0.281,0.767,0.487c0.217,0.206,0.387,0.451,0.508,0.733
		c0.121,0.282,0.182,0.588,0.182,0.915c0,0.322-0.058,0.624-0.174,0.906c-0.116,0.283-0.28,0.527-0.492,0.733
		c-0.212,0.207-0.464,0.37-0.758,0.492c-0.294,0.121-0.622,0.182-0.983,0.182c-0.35,0-0.672-0.057-0.966-0.169
		c-0.294-0.113-0.548-0.273-0.763-0.479c-0.214-0.206-0.381-0.45-0.5-0.733c-0.119-0.282-0.178-0.593-0.178-0.932
		c0-0.317,0.061-0.616,0.182-0.898c0.121-0.282,0.288-0.528,0.5-0.737c0.212-0.209,0.464-0.374,0.758-0.496
		c0.294-0.121,0.616-0.182,0.966-0.182C17.812,38.375,18.129,38.435,18.422,38.553z M16.313,41.191
		c0.062,0.158,0.148,0.293,0.259,0.405c0.11,0.113,0.241,0.2,0.394,0.262c0.153,0.062,0.322,0.093,0.509,0.093
		c0.187,0,0.356-0.031,0.509-0.093c0.152-0.062,0.284-0.151,0.394-0.266c0.11-0.116,0.196-0.252,0.259-0.41
		c0.062-0.158,0.093-0.329,0.093-0.515c0-0.174-0.031-0.338-0.093-0.49c-0.062-0.152-0.148-0.286-0.259-0.401
		c-0.11-0.115-0.241-0.206-0.394-0.27c-0.153-0.065-0.322-0.097-0.509-0.097c-0.192,0-0.366,0.032-0.521,0.097
		c-0.156,0.064-0.287,0.153-0.394,0.266c-0.108,0.113-0.191,0.245-0.25,0.397c-0.059,0.152-0.089,0.315-0.089,0.49
		C16.219,40.856,16.251,41.033,16.313,41.191z"/>
	<path fill="#00A5E8" d="M24.431,38.494v3.186c0,0.203,0.007,0.37,0.021,0.5c0.014,0.13,0.03,0.234,0.047,0.314
		c0.017,0.079,0.035,0.141,0.055,0.186c0.02,0.046,0.035,0.079,0.047,0.102l-1.093,0.178c-0.045-0.102-0.076-0.214-0.093-0.339
		c-0.017-0.124-0.031-0.243-0.042-0.356c-0.023,0.04-0.061,0.1-0.114,0.182c-0.054,0.082-0.134,0.164-0.241,0.246
		c-0.108,0.082-0.246,0.154-0.415,0.216c-0.169,0.062-0.381,0.093-0.635,0.093c-0.271,0-0.501-0.045-0.691-0.136
		c-0.189-0.09-0.343-0.21-0.462-0.36c-0.119-0.15-0.206-0.322-0.263-0.517s-0.085-0.397-0.085-0.606v-2.889h1.119v2.728
		c0,0.52,0.263,0.78,0.788,0.78c0.124,0,0.243-0.02,0.356-0.059c0.113-0.039,0.213-0.098,0.301-0.174
		c0.087-0.076,0.157-0.169,0.208-0.28c0.051-0.11,0.076-0.233,0.076-0.369v-2.627H24.431z"/>
	<path fill="#00A5E8" d="M28.104,38.469c0.212,0.062,0.39,0.133,0.534,0.212c0.144,0.079,0.254,0.154,0.331,0.225
		c0.076,0.071,0.12,0.111,0.131,0.123l-0.619,0.771c-0.029-0.028-0.068-0.063-0.119-0.106c-0.051-0.042-0.117-0.085-0.199-0.127
		c-0.082-0.042-0.179-0.079-0.292-0.11c-0.113-0.031-0.246-0.047-0.398-0.047c-0.181,0-0.348,0.034-0.5,0.101
		c-0.152,0.068-0.284,0.158-0.394,0.27c-0.11,0.112-0.196,0.245-0.258,0.397c-0.062,0.152-0.093,0.312-0.093,0.481
		c0,0.203,0.032,0.384,0.098,0.545c0.065,0.16,0.154,0.295,0.267,0.405c0.113,0.11,0.247,0.194,0.402,0.253
		c0.156,0.059,0.323,0.089,0.504,0.089c0.164,0,0.309-0.021,0.436-0.064c0.127-0.042,0.236-0.089,0.327-0.14
		c0.09-0.051,0.158-0.099,0.203-0.144c0.045-0.045,0.071-0.071,0.077-0.076l0.661,0.791c-0.017,0.017-0.065,0.063-0.144,0.137
		c-0.079,0.074-0.192,0.151-0.339,0.23c-0.147,0.08-0.329,0.152-0.547,0.218c-0.218,0.066-0.476,0.098-0.775,0.098
		c-0.333,0-0.641-0.055-0.924-0.165c-0.282-0.11-0.528-0.265-0.737-0.466c-0.209-0.2-0.373-0.443-0.492-0.729
		c-0.119-0.285-0.178-0.603-0.178-0.953c0-0.333,0.058-0.641,0.174-0.924c0.116-0.282,0.277-0.527,0.483-0.733
		c0.206-0.206,0.45-0.367,0.733-0.483c0.282-0.116,0.588-0.173,0.915-0.173C27.648,38.375,27.892,38.406,28.104,38.469z"/>
	<path fill="#00A5E8" d="M34.044,40.862c-0.003,0.025-0.004,0.052-0.004,0.08h-3.415c0.006,0.062,0.03,0.156,0.072,0.28
		c0.042,0.124,0.113,0.247,0.212,0.369c0.099,0.122,0.233,0.229,0.402,0.322c0.17,0.093,0.387,0.14,0.653,0.14
		c0.192,0,0.36-0.026,0.504-0.077c0.144-0.051,0.265-0.107,0.364-0.169c0.099-0.062,0.173-0.123,0.224-0.182
		c0.051-0.059,0.082-0.094,0.093-0.106l0.703,0.619c-0.034,0.046-0.092,0.114-0.174,0.208c-0.082,0.093-0.201,0.19-0.356,0.288
		c-0.156,0.099-0.352,0.185-0.589,0.259c-0.237,0.073-0.528,0.11-0.873,0.11c-0.333,0-0.645-0.057-0.936-0.169
		c-0.291-0.113-0.542-0.271-0.754-0.475c-0.212-0.203-0.379-0.448-0.5-0.733c-0.122-0.285-0.182-0.603-0.182-0.953
		c0-0.333,0.058-0.641,0.174-0.924c0.116-0.282,0.277-0.525,0.483-0.729c0.206-0.203,0.45-0.361,0.733-0.474
		c0.282-0.113,0.588-0.169,0.915-0.169c0.373,0,0.7,0.063,0.983,0.191c0.282,0.127,0.518,0.301,0.708,0.521
		c0.189,0.22,0.33,0.476,0.424,0.767c0.093,0.291,0.14,0.6,0.14,0.928C34.048,40.81,34.047,40.837,34.044,40.862z M32.917,39.956
		c-0.037-0.093-0.097-0.188-0.182-0.284c-0.085-0.096-0.201-0.181-0.348-0.254c-0.147-0.073-0.333-0.11-0.559-0.11
		c-0.226,0-0.411,0.034-0.555,0.102c-0.144,0.068-0.261,0.147-0.352,0.237c-0.091,0.09-0.156,0.182-0.195,0.275
		c-0.039,0.093-0.068,0.168-0.084,0.224h2.339C32.975,40.113,32.954,40.049,32.917,39.956z"/>
	<path fill="#00A5E8" d="M37.035,38.426c0.178,0.034,0.336,0.073,0.474,0.119c0.138,0.045,0.257,0.092,0.356,0.14
		c0.099,0.048,0.171,0.089,0.216,0.123l-0.441,0.796c-0.028-0.022-0.078-0.053-0.148-0.093c-0.071-0.04-0.157-0.079-0.259-0.119
		c-0.102-0.04-0.218-0.075-0.347-0.106c-0.13-0.031-0.266-0.047-0.407-0.047c-0.181,0-0.345,0.033-0.491,0.098
		c-0.147,0.065-0.22,0.151-0.22,0.259c0,0.073,0.025,0.136,0.076,0.186c0.051,0.051,0.127,0.096,0.229,0.136
		c0.102,0.04,0.225,0.079,0.369,0.119c0.144,0.04,0.309,0.085,0.496,0.136c0.192,0.057,0.369,0.124,0.53,0.203
		c0.161,0.079,0.301,0.175,0.42,0.288c0.119,0.113,0.212,0.243,0.28,0.39c0.068,0.147,0.101,0.313,0.101,0.5
		c0,0.181-0.041,0.357-0.123,0.53c-0.082,0.172-0.206,0.326-0.373,0.462c-0.167,0.136-0.373,0.246-0.619,0.33
		c-0.246,0.085-0.533,0.127-0.86,0.127c-0.254,0-0.487-0.026-0.699-0.076c-0.212-0.051-0.398-0.107-0.559-0.17
		c-0.161-0.062-0.295-0.124-0.403-0.186c-0.107-0.062-0.181-0.107-0.22-0.136l0.475-0.881c0.147,0.101,0.337,0.203,0.572,0.305
		c0.234,0.102,0.504,0.153,0.809,0.153c0.57,0,0.856-0.141,0.856-0.424c0-0.079-0.034-0.148-0.102-0.208
		c-0.068-0.059-0.158-0.113-0.271-0.161s-0.241-0.093-0.385-0.136c-0.144-0.042-0.292-0.089-0.445-0.14
		c-0.164-0.051-0.325-0.109-0.483-0.174c-0.158-0.065-0.298-0.145-0.419-0.241c-0.122-0.096-0.22-0.21-0.297-0.343
		c-0.076-0.133-0.114-0.298-0.114-0.496c0-0.198,0.048-0.377,0.144-0.538c0.096-0.161,0.228-0.299,0.394-0.415
		c0.167-0.116,0.363-0.205,0.589-0.267s0.469-0.093,0.729-0.093C36.667,38.375,36.858,38.392,37.035,38.426z"/>
</g>
<g>
	<defs>
		<rect id="SVGID_7_" x="17.743" y="15.678" width="14.364" height="19.221"/>
	</defs>
	<clipPath id="SVGID_2_">
		<use xlink:href="#SVGID_7_"  overflow="visible"/>
	</clipPath>
	<path clip-path="url(#SVGID_2_)" fill="#00A5E8" d="M31.013,15.678H18.888c-0.631,0-1.145,0.514-1.145,1.144v16.703
		c0,0.631,0.514,1.144,1.145,1.144h12.126c0.631,0,1.145-0.513,1.145-1.144V16.821C32.158,16.191,31.644,15.678,31.013,15.678
		L31.013,15.678z M24.95,16.336c0.095,0,0.172,0.077,0.172,0.172c0,0.094-0.077,0.171-0.172,0.171c-0.095,0-0.172-0.077-0.172-0.171
		C24.778,16.413,24.855,16.336,24.95,16.336L24.95,16.336z M24.95,34.039c-0.19,0-0.343-0.153-0.343-0.343s0.153-0.344,0.343-0.344
		c0.19,0,0.344,0.154,0.344,0.344S25.14,34.039,24.95,34.039L24.95,34.039z M30.785,32.98H19.116V17.365h11.669V32.98z
		 M30.785,32.98"/>
</g>
<g>
	<path fill="#00A5E8" d="M12.989,5.547v7.478h-1.508V5.547H12.989z"/>
	<path fill="#00A5E8" d="M17.91,5.631c0.362,0.162,0.68,0.402,0.954,0.722c0.274,0.32,0.492,0.722,0.654,1.208
		c0.162,0.485,0.243,1.051,0.243,1.698c0,0.668-0.079,1.246-0.238,1.735c-0.158,0.489-0.374,0.895-0.648,1.218
		c-0.274,0.324-0.594,0.565-0.96,0.723c-0.366,0.158-0.753,0.237-1.16,0.237c-0.436,0-0.839-0.075-1.208-0.227
		c-0.37-0.151-0.689-0.385-0.96-0.701c-0.271-0.317-0.484-0.721-0.639-1.213c-0.155-0.492-0.232-1.082-0.232-1.772
		c0-0.64,0.077-1.203,0.232-1.688c0.155-0.485,0.37-0.889,0.644-1.213c0.274-0.323,0.595-0.566,0.965-0.727
		c0.369-0.162,0.768-0.243,1.197-0.243C17.162,5.388,17.547,5.469,17.91,5.631z M15.384,10.404c0.07,0.32,0.17,0.58,0.301,0.78
		c0.13,0.2,0.285,0.346,0.464,0.438c0.18,0.091,0.382,0.137,0.607,0.137c0.203,0,0.393-0.048,0.569-0.142
		c0.176-0.095,0.327-0.245,0.454-0.449c0.126-0.203,0.227-0.464,0.301-0.78c0.073-0.317,0.111-0.696,0.111-1.139
		c0-0.429-0.037-0.796-0.111-1.103c-0.074-0.306-0.176-0.557-0.306-0.754c-0.131-0.197-0.283-0.343-0.459-0.438
		c-0.176-0.095-0.366-0.142-0.57-0.142c-0.211,0-0.404,0.048-0.58,0.142c-0.176,0.095-0.331,0.241-0.464,0.438
		c-0.134,0.197-0.238,0.45-0.311,0.76c-0.074,0.309-0.111,0.675-0.111,1.097C15.278,9.699,15.313,10.084,15.384,10.404z"/>
	<path fill="#00A5E8" d="M26.416,9.512v1.371h-3.375V9.512H26.416z"/>
	<path fill="#00A5E8" d="M31.563,5.547v7.478h-1.508V5.547H31.563z"/>
	<path fill="#00A5E8" d="M32.639,6.644c0.056-0.084,0.14-0.197,0.253-0.338c0.112-0.14,0.265-0.279,0.459-0.417
		c0.193-0.137,0.43-0.255,0.711-0.353c0.281-0.098,0.619-0.147,1.013-0.147c0.303,0,0.592,0.05,0.87,0.147
		c0.277,0.098,0.524,0.236,0.738,0.411c0.214,0.176,0.385,0.382,0.511,0.617c0.127,0.236,0.19,0.494,0.19,0.775
		c0,0.232-0.026,0.433-0.079,0.601c-0.053,0.169-0.118,0.311-0.196,0.427c-0.077,0.117-0.162,0.215-0.253,0.295
		c-0.091,0.081-0.179,0.146-0.263,0.195c0.084,0.028,0.2,0.088,0.348,0.18c0.148,0.091,0.29,0.216,0.427,0.374
		c0.137,0.158,0.256,0.345,0.359,0.559c0.102,0.214,0.153,0.459,0.153,0.733c0,0.359-0.067,0.689-0.2,0.991
		c-0.133,0.302-0.323,0.563-0.57,0.78c-0.246,0.218-0.541,0.389-0.886,0.512c-0.344,0.123-0.727,0.184-1.15,0.184
		c-0.45,0-0.842-0.061-1.176-0.184c-0.333-0.123-0.617-0.269-0.848-0.438c-0.232-0.169-0.417-0.343-0.554-0.522
		c-0.137-0.18-0.234-0.325-0.29-0.438l1.213-0.791c0.049,0.091,0.118,0.195,0.205,0.311c0.088,0.117,0.194,0.223,0.317,0.322
		c0.123,0.098,0.269,0.183,0.438,0.253c0.169,0.071,0.362,0.106,0.58,0.106c0.232,0,0.433-0.03,0.601-0.089
		c0.169-0.06,0.306-0.142,0.411-0.248c0.106-0.106,0.185-0.225,0.238-0.359c0.052-0.134,0.079-0.274,0.079-0.422
		c0-0.302-0.075-0.55-0.227-0.744c-0.151-0.193-0.325-0.348-0.522-0.464c-0.197-0.116-0.392-0.201-0.585-0.258
		C34.76,9.15,34.622,9.112,34.537,9.09c0.176-0.113,0.342-0.221,0.501-0.327s0.295-0.214,0.411-0.327
		c0.116-0.113,0.207-0.234,0.274-0.364s0.1-0.279,0.1-0.449c0-0.105-0.021-0.211-0.064-0.316c-0.042-0.106-0.104-0.2-0.184-0.285
		c-0.081-0.085-0.18-0.151-0.295-0.201c-0.116-0.049-0.248-0.073-0.396-0.073c-0.162,0-0.301,0.023-0.417,0.068
		c-0.116,0.046-0.218,0.1-0.306,0.164c-0.088,0.063-0.16,0.13-0.216,0.2c-0.056,0.071-0.102,0.131-0.137,0.18L32.639,6.644z"/>
</g>
</svg>
