<?xml version="1.0" encoding="utf-8"?>
<!-- Generator: Adobe Illustrator 16.0.0, SVG Export Plug-In . SVG Version: 6.00 Build 0)  -->
<!DOCTYPE svg PUBLIC "-//W3C//DTD SVG 1.1//EN" "http://www.w3.org/Graphics/SVG/1.1/DTD/svg11.dtd">
<svg version="1.1" id="Calque_1" xmlns="http://www.w3.org/2000/svg" xmlns:xlink="http://www.w3.org/1999/xlink" x="0px" y="0px"
	 width="48px" height="48px" viewBox="0 0 48 48" enable-background="new 0 0 48 48" xml:space="preserve">
<g>
	<path fill="#00517D" d="M36.763,48H11.237C5.041,48,0,42.959,0,36.764V11.236C0,5.041,5.041,0,11.237,0h25.526
		C42.959,0,48,5.041,48,11.236v25.527C48,42.959,42.959,48,36.763,48z M11.237,2C6.144,2,2,6.144,2,11.236v25.527
		C2,41.856,6.144,46,11.237,46h25.526C41.856,46,46,41.856,46,36.764V11.236C46,6.144,41.856,2,36.763,2H11.237z"/>
	<g>
		<path fill="#005480" d="M19.9,24.838l-0.531-1.925l2.836,4.794l0.237,7.146l-1.859-3.143c0,0-0.231-0.336-0.235-0.346L19.9,24.838
			z M23.233,27.86l4.476-3.994l-0.956,2.419l-0.095,6.462l-3.177,2.836L23.233,27.86z M21.121,23.771L21.121,23.771
			c0.312-0.295,0.97-0.96,1.521-1.843c1.015-1.627,1.145-2.11,0.396-3.448l-0.779-1.318l0.196-0.175l0.98,1.827
			c1.454,2.595-1.425,4.483-2.175,5.19L21.121,23.771z M20.677,23.019c0.384-0.314,1.618-1.445,1.873-3.209
			c0.159-1.091-0.104-1.128-0.749-2.24l0.05-0.044l0.775,1.311c1.284,2.292-1.135,3.757-1.818,4.406L20.677,23.019z M19.307,20.703
			c0.522-0.604,1.022-0.502,0.731-1.559l0.193-0.173c0.35,0.674,0.33,0.32-0.093,1.082c-0.223,0.407-0.505,0.724-0.682,0.904
			L19.307,20.703z M18.542,19.409l1.054,0.129c0.05,0.381-0.022-0.305-0.255,0.117c-0.109,0.199-0.235,0.372-0.352,0.511
			L18.542,19.409z M20.739,18.517c0.452,0.81,0.622,0.515,0.471,1.265c-0.219,1.1-1.019,1.804-1.246,1.959l-0.025-0.044
			c-0.01,0.009-0.02,0.016-0.03,0.025l-0.138-0.235c0.771-0.75,1.743-1.253,0.868-2.88L20.739,18.517z M21.392,17.934
			c0.554,0.959,0.784,0.819,0.652,1.728c-0.221,1.547-1.374,2.579-1.68,2.828l-0.117-0.199c0.358-0.237,0.89-0.828,1.198-1.506
			c0.375-0.826,0.599-1.041-0.297-2.633L21.392,17.934z M22.862,16.623l0.066-0.059l1.316,2.226
			c1.624,2.901-1.709,5.231-2.522,5.998l-0.151-0.256c0.346-0.321,1.117-1.09,1.766-2.112c1.165-1.833,1.333-2.493,0.517-3.95
			L22.862,16.623z M23.335,16.2l0.132-0.117l1.587,2.683c1.721,3.074-1.821,5.7-2.912,6.731l-0.105-0.178
			c0.375-0.351,1.26-1.231,2.005-2.397c1.309-2.047,1.512-2.887,0.614-4.49L23.335,16.2z M23.875,15.718l0.225-0.201l0.899,1.52
			l0.865,1.705c2.19,3.91-3.156,7.566-3.208,7.616l0.154,0.267l-0.354-0.598c0.475-0.445,1.399-1.38,2.197-2.578
			c1.513-2.273,1.787-3.304,0.813-5.04L23.875,15.718z M26.517,23.247c-0.025,0.047-0.051,0.092-0.078,0.137l-1.527,1.364
			c0.212-0.28,0.424-0.583,0.626-0.903c1.066-1.681,1.501-2.204,1.331-3.644l0.506-0.253C27.432,21.016,27.146,22.118,26.517,23.247
			 M28.38,21.651l-0.912,0.814c0.195-0.527,0.339-1.093,0.396-1.688L28.38,21.651z M27.049,17.643l-2.446-3.381
			c-0.172-0.291-0.496-0.366-0.721-0.166l-6.374,4.619c-0.025,0.022-0.048,0.048-0.068,0.078c-0.005,0.01-0.013,0.017-0.018,0.027
			c-0.013,0.02-0.026,0.04-0.036,0.062c-0.007,0.011-0.013,0.022-0.018,0.035c-0.01,0.023-0.017,0.046-0.025,0.071
			c-0.005,0.009-0.007,0.02-0.01,0.03c-0.009,0.034-0.017,0.071-0.021,0.108c0,0.005,0,0.01,0,0.015
			c-0.002,0.032-0.003,0.065-0.002,0.096c0,0.013,0.001,0.026,0.002,0.04c0.001,0.025,0.005,0.049,0.009,0.074
			c0.002,0.015,0.005,0.029,0.009,0.045c0.003,0.01,0.003,0.02,0.007,0.03l2.04,12.302c0.003,0.012,0.007,0.022,0.014,0.033
			c0.005,0.02,0.013,0.042,0.021,0.06c0.009,0.021,0.019,0.042,0.029,0.06c0.005,0.01,0.007,0.021,0.014,0.03l3.124,5.284
			c0.007,0.013,0.017,0.021,0.023,0.034c0.013,0.018,0.024,0.036,0.039,0.053c0.012,0.014,0.024,0.027,0.039,0.04
			c0.012,0.014,0.025,0.027,0.041,0.04c0.014,0.012,0.028,0.021,0.043,0.03c0.016,0.012,0.03,0.021,0.046,0.029
			c0.016,0.007,0.031,0.014,0.048,0.02c0.015,0.008,0.031,0.013,0.047,0.018c0.019,0.003,0.038,0.005,0.057,0.008
			c0.011,0,0.023,0.005,0.035,0.005c0.002,0,0.005,0,0.009-0.001c0.02,0,0.04-0.004,0.059-0.004
			c0.013-0.003,0.028-0.003,0.042-0.006c0.017-0.003,0.032-0.012,0.049-0.017c0.015-0.005,0.031-0.011,0.046-0.021
			c0.012-0.004,0.025-0.014,0.038-0.023c0.017-0.012,0.034-0.021,0.049-0.035c0.002-0.002,0.006-0.003,0.01-0.007l4.079-3.642
			c0.005-0.002,0.007-0.008,0.011-0.011c0.016-0.015,0.028-0.03,0.042-0.047c0.012-0.013,0.022-0.024,0.033-0.04
			c0.009-0.016,0.019-0.031,0.027-0.048c0.009-0.018,0.021-0.036,0.028-0.055c0.004-0.008,0.007-0.014,0.011-0.019l2.034-11.373
			c0.005-0.012,0.007-0.023,0.011-0.035c0.006-0.021,0.012-0.041,0.017-0.063c0.006-0.019,0.01-0.039,0.014-0.059
			c0.002-0.02,0.004-0.04,0.006-0.058c0.001-0.023,0.001-0.043,0.001-0.064c0-0.022,0-0.041-0.003-0.061
			c-0.001-0.022-0.003-0.042-0.007-0.063c-0.003-0.02-0.007-0.041-0.014-0.061c-0.003-0.021-0.009-0.04-0.016-0.06
			c-0.006-0.018-0.012-0.038-0.021-0.056c-0.008-0.021-0.019-0.04-0.028-0.061c-0.005-0.009-0.01-0.022-0.015-0.031l-2.232-3.585"/>
		<path fill="#005480" d="M38.254,6.809V11.8h3.206l0.156-0.899h-2.348v-0.894h1.774l0.099-0.871h-1.873V7.709h2.107l-0.107-0.9
			H38.254z M34.122,6.902c-0.338,0.131-0.629,0.311-0.872,0.539c-0.241,0.23-0.425,0.502-0.559,0.817
			c-0.133,0.313-0.199,0.652-0.199,1.019c0,0.374,0.061,0.722,0.185,1.042c0.122,0.321,0.301,0.6,0.539,0.833
			c0.234,0.235,0.524,0.417,0.868,0.549c0.343,0.13,0.734,0.196,1.174,0.196c0.351,0,0.655-0.047,0.911-0.141
			c0.259-0.094,0.478-0.217,0.66-0.369c0.182-0.153,0.329-0.324,0.444-0.513c0.113-0.191,0.203-0.383,0.269-0.578
			c0.065-0.194,0.11-0.378,0.135-0.555c0.023-0.176,0.036-0.327,0.036-0.452V9.185h-3.314l-0.178,0.773h2.392
			c-0.005,0.051-0.024,0.134-0.057,0.25c-0.033,0.114-0.098,0.229-0.195,0.348c-0.098,0.117-0.235,0.22-0.413,0.313
			c-0.177,0.091-0.415,0.137-0.713,0.137c-0.264,0-0.5-0.043-0.708-0.129c-0.209-0.088-0.384-0.207-0.527-0.358
			c-0.141-0.152-0.25-0.332-0.325-0.538c-0.076-0.207-0.114-0.43-0.114-0.668c0-0.24,0.042-0.461,0.125-0.667
			c0.083-0.206,0.199-0.383,0.349-0.531c0.147-0.149,0.325-0.263,0.532-0.349c0.205-0.085,0.428-0.127,0.668-0.127
			c0.223,0,0.415,0.028,0.579,0.082c0.163,0.054,0.301,0.115,0.412,0.187c0.112,0.069,0.197,0.136,0.259,0.201
			c0.061,0.062,0.1,0.101,0.113,0.115l0.66-0.646c-0.014-0.014-0.067-0.067-0.156-0.157c-0.09-0.092-0.219-0.19-0.388-0.296
			c-0.167-0.104-0.375-0.2-0.621-0.284c-0.246-0.086-0.528-0.127-0.851-0.127C34.834,6.711,34.458,6.775,34.122,6.902 M27.52,11.8
			h1.1l0.447-1.021h1.652l0.44,1.021h1.093l-2.364-5.25L27.52,11.8z M30.408,9.958h-1.051l0.532-1.335L30.408,9.958z M24.528,6.817
			V11.8h2.872l0.114-0.899h-1.973V6.817H24.528z M21.208,6.817V11.8h2.873l0.114-0.899h-1.972V6.817H21.208z M19.47,11.8h1.014
			V6.817H19.47V11.8z M15.219,11.75c0.024,0.005,0.079,0.015,0.164,0.032c0.085,0.017,0.193,0.031,0.322,0.048
			c0.131,0.017,0.279,0.032,0.447,0.045c0.168,0.016,0.346,0.022,0.536,0.022c0.288,0,0.567-0.027,0.836-0.078
			c0.27-0.05,0.511-0.132,0.72-0.242c0.211-0.11,0.38-0.254,0.507-0.431c0.128-0.179,0.192-0.393,0.192-0.648
			c0-0.224-0.04-0.409-0.114-0.552c-0.076-0.142-0.165-0.255-0.269-0.341c-0.104-0.083-0.21-0.143-0.32-0.178
			c-0.107-0.036-0.195-0.06-0.262-0.067c0.062-0.023,0.135-0.061,0.221-0.113c0.084-0.052,0.165-0.12,0.243-0.21
			c0.079-0.089,0.145-0.201,0.2-0.334c0.054-0.134,0.081-0.294,0.081-0.481c0-0.263-0.054-0.488-0.163-0.679
			c-0.109-0.19-0.263-0.346-0.46-0.469c-0.2-0.126-0.435-0.217-0.71-0.275c-0.274-0.059-0.577-0.088-0.908-0.088
			c-0.18,0-0.347,0.008-0.5,0.021c-0.153,0.014-0.288,0.03-0.4,0.049C15.45,6.8,15.33,6.821,15.219,6.844V11.75z M17.09,7.579
			c0.134,0.031,0.255,0.076,0.36,0.137c0.107,0.061,0.192,0.138,0.257,0.232c0.063,0.092,0.095,0.203,0.095,0.33
			c0,0.131-0.032,0.244-0.095,0.341c-0.064,0.095-0.149,0.176-0.253,0.238c-0.103,0.063-0.223,0.11-0.356,0.142
			c-0.136,0.03-0.273,0.044-0.416,0.044H16.49c-0.047,0-0.085,0-0.114-0.003c-0.028-0.001-0.052-0.004-0.074-0.006
			S16.259,9.03,16.236,9.03V7.575c0.009-0.004,0.045-0.012,0.108-0.025c0.065-0.011,0.176-0.018,0.338-0.018
			C16.818,7.533,16.955,7.548,17.09,7.579 M17.231,9.795c0.139,0.024,0.263,0.062,0.373,0.112c0.108,0.052,0.195,0.121,0.262,0.205
			c0.066,0.084,0.099,0.185,0.099,0.302c0,0.122-0.032,0.223-0.096,0.303c-0.063,0.079-0.148,0.142-0.254,0.19
			c-0.107,0.046-0.23,0.08-0.369,0.101c-0.14,0.021-0.288,0.031-0.443,0.031c-0.071,0-0.141-0.001-0.21-0.003
			c-0.069-0.002-0.128-0.008-0.18-0.017C16.35,11.01,16.292,11,16.236,10.99V9.795c0.032-0.004,0.093-0.011,0.184-0.02
			c0.089-0.009,0.216-0.016,0.383-0.016C16.949,9.76,17.091,9.772,17.231,9.795 M10.063,11.8h1.101l0.446-1.021h1.653l0.44,1.021
			h1.092l-2.362-5.25L10.063,11.8z M12.95,9.958H11.9l0.532-1.335L12.95,9.958z M8.651,6.817v2.48h-2v-2.48H5.636V11.8h1.016v-1.631
			h2V11.8h1.014V6.817H8.651z"/>
	</g>
	<g>
		<path fill="#005480" d="M41.091,39.866v3.127h1.968l0.098-0.563h-1.443v-0.559h1.09l0.06-0.547h-1.15v-0.896h1.293l-0.064-0.563
			H41.091z M39.052,39.872v3.122h1.765l0.069-0.563h-1.21v-2.559H39.052z M36.443,42.962c0.015,0.004,0.047,0.01,0.1,0.021
			c0.053,0.011,0.12,0.021,0.198,0.031c0.08,0.01,0.172,0.021,0.275,0.029s0.211,0.013,0.329,0.013c0.177,0,0.348-0.016,0.513-0.049
			c0.166-0.032,0.313-0.083,0.443-0.151c0.128-0.068,0.232-0.159,0.312-0.271c0.077-0.111,0.116-0.246,0.116-0.405
			c0-0.141-0.024-0.256-0.07-0.346c-0.046-0.09-0.101-0.161-0.165-0.213c-0.063-0.053-0.13-0.091-0.196-0.113
			c-0.066-0.022-0.12-0.035-0.161-0.042c0.038-0.014,0.083-0.038,0.133-0.072c0.053-0.031,0.103-0.076,0.15-0.131
			c0.048-0.055,0.091-0.125,0.123-0.209c0.033-0.083,0.05-0.185,0.05-0.302c0-0.163-0.032-0.305-0.1-0.425
			c-0.068-0.119-0.162-0.217-0.283-0.295c-0.123-0.078-0.268-0.135-0.436-0.172c-0.168-0.035-0.354-0.055-0.558-0.055
			c-0.109,0-0.212,0.003-0.307,0.012c-0.095,0.011-0.175,0.021-0.246,0.033c-0.082,0.01-0.156,0.024-0.223,0.039V42.962z
			 M37.591,40.35c0.083,0.018,0.158,0.048,0.223,0.086c0.065,0.037,0.119,0.085,0.157,0.144c0.039,0.06,0.058,0.128,0.058,0.208
			c0,0.082-0.02,0.154-0.058,0.214s-0.092,0.109-0.154,0.149c-0.065,0.04-0.138,0.069-0.22,0.087
			c-0.084,0.02-0.169,0.029-0.256,0.029h-0.117c-0.029,0-0.053-0.001-0.069-0.002c-0.019-0.001-0.034-0.002-0.048-0.003
			c-0.012-0.003-0.026-0.003-0.041-0.003v-0.912c0.006-0.004,0.028-0.008,0.068-0.016c0.039-0.008,0.109-0.012,0.207-0.012
			C37.426,40.32,37.508,40.331,37.591,40.35 M37.679,41.738c0.084,0.015,0.161,0.039,0.228,0.071
			c0.067,0.032,0.122,0.074,0.163,0.128c0.041,0.053,0.061,0.116,0.061,0.189c0,0.076-0.021,0.14-0.058,0.19
			c-0.04,0.047-0.093,0.088-0.159,0.118c-0.064,0.028-0.14,0.05-0.227,0.063c-0.086,0.013-0.176,0.019-0.271,0.019
			c-0.043,0-0.086,0-0.13-0.002c-0.04-0.002-0.078-0.005-0.11-0.01c-0.038-0.005-0.073-0.011-0.109-0.017v-0.75
			c0.021-0.003,0.059-0.006,0.113-0.013c0.055-0.005,0.133-0.01,0.236-0.01C37.505,41.716,37.593,41.724,37.679,41.738
			 M33.277,42.994h0.675l0.273-0.638h1.015l0.271,0.638h0.671l-1.451-3.29L33.277,42.994z M35.051,41.84h-0.647l0.328-0.836
			L35.051,41.84z M31.653,39.861c-0.14,0.04-0.265,0.098-0.37,0.178c-0.108,0.078-0.193,0.178-0.255,0.297
			c-0.063,0.119-0.094,0.26-0.094,0.42c0,0.076,0.006,0.147,0.021,0.215c0.015,0.068,0.042,0.133,0.078,0.193
			c0.038,0.061,0.089,0.117,0.153,0.171c0.064,0.054,0.146,0.106,0.246,0.157c0.124,0.065,0.253,0.116,0.387,0.151
			c0.134,0.037,0.254,0.075,0.363,0.113c0.109,0.037,0.199,0.083,0.27,0.136c0.072,0.052,0.108,0.129,0.108,0.229
			c0,0.232-0.177,0.35-0.532,0.35c-0.113,0-0.221-0.019-0.321-0.049c-0.101-0.033-0.187-0.069-0.26-0.111
			c-0.075-0.041-0.135-0.079-0.183-0.118c-0.049-0.04-0.078-0.062-0.084-0.071l-0.311,0.528c0.041,0.034,0.098,0.072,0.172,0.117
			c0.074,0.046,0.16,0.091,0.258,0.133c0.098,0.043,0.205,0.08,0.326,0.11s0.25,0.046,0.386,0.046c0.188,0,0.358-0.022,0.506-0.071
			c0.148-0.047,0.273-0.114,0.376-0.201c0.103-0.087,0.183-0.191,0.238-0.313c0.055-0.125,0.083-0.262,0.083-0.411
			c0-0.192-0.042-0.349-0.124-0.47c-0.083-0.123-0.201-0.226-0.354-0.31c-0.127-0.071-0.26-0.125-0.396-0.164
			c-0.136-0.039-0.26-0.073-0.373-0.107s-0.206-0.075-0.277-0.119c-0.072-0.045-0.108-0.112-0.108-0.197
			c0-0.105,0.043-0.186,0.128-0.242c0.085-0.055,0.198-0.084,0.339-0.084c0.179,0,0.333,0.029,0.461,0.086
			c0.128,0.057,0.247,0.127,0.358,0.213l0.287-0.507c-0.021-0.014-0.061-0.042-0.122-0.08c-0.062-0.041-0.137-0.081-0.23-0.122
			c-0.094-0.042-0.199-0.077-0.318-0.109c-0.12-0.029-0.245-0.045-0.379-0.045C31.945,39.805,31.794,39.825,31.653,39.861
			 M29.97,42.994h0.625V39.87H29.97V42.994z M27.933,39.872v3.122h1.764l0.07-0.563h-1.211v-2.559H27.933z M24.765,42.994h0.676
			l0.275-0.638h1.014L27,42.994h0.67l-1.451-3.29L24.765,42.994z M26.538,41.84h-0.644l0.326-0.836L26.538,41.84z M23.882,39.872
			l0.031,1.788l-1.834-1.873v3.206h0.623l-0.031-1.801l1.834,1.876v-3.197H23.882z M20.996,39.872l0.029,1.788l-1.835-1.873v3.206
			h0.624l-0.031-1.801l1.834,1.876v-3.197H20.996z M16.58,39.93c-0.195,0.084-0.368,0.2-0.516,0.345
			c-0.146,0.147-0.26,0.321-0.345,0.517c-0.084,0.196-0.127,0.409-0.127,0.638c0,0.241,0.044,0.461,0.131,0.661
			c0.086,0.199,0.205,0.37,0.353,0.514c0.148,0.142,0.32,0.253,0.516,0.333c0.195,0.078,0.404,0.119,0.624,0.119
			c0.228,0,0.441-0.042,0.639-0.126c0.198-0.083,0.372-0.199,0.518-0.346c0.147-0.147,0.263-0.318,0.349-0.515
			c0.085-0.196,0.129-0.41,0.129-0.64c0-0.229-0.043-0.443-0.126-0.64c-0.085-0.198-0.199-0.371-0.346-0.517
			c-0.146-0.145-0.32-0.259-0.518-0.343c-0.2-0.083-0.413-0.125-0.638-0.125C16.992,39.805,16.778,39.847,16.58,39.93
			 M16.322,41.007c0.051-0.126,0.121-0.233,0.208-0.321c0.09-0.088,0.193-0.158,0.313-0.206c0.118-0.048,0.246-0.073,0.384-0.073
			c0.133,0,0.258,0.025,0.376,0.073c0.117,0.047,0.219,0.117,0.309,0.206c0.088,0.087,0.158,0.194,0.209,0.321
			c0.05,0.126,0.075,0.266,0.075,0.419c0,0.153-0.024,0.292-0.078,0.418c-0.052,0.126-0.123,0.235-0.212,0.327
			c-0.087,0.089-0.191,0.161-0.309,0.211c-0.117,0.049-0.242,0.074-0.371,0.074c-0.132,0-0.255-0.023-0.374-0.072
			c-0.117-0.048-0.221-0.118-0.312-0.209c-0.09-0.09-0.161-0.2-0.214-0.324c-0.056-0.125-0.082-0.264-0.082-0.42
			C16.246,41.275,16.272,41.134,16.322,41.007 M13.883,39.861c-0.14,0.04-0.266,0.098-0.374,0.178
			c-0.107,0.078-0.19,0.178-0.253,0.297s-0.095,0.26-0.095,0.42c0,0.076,0.007,0.147,0.023,0.215
			c0.016,0.068,0.04,0.133,0.078,0.193c0.038,0.061,0.091,0.117,0.153,0.171c0.064,0.054,0.146,0.106,0.243,0.157
			c0.125,0.065,0.256,0.116,0.388,0.151c0.135,0.037,0.256,0.075,0.364,0.113c0.109,0.037,0.199,0.083,0.27,0.136
			c0.073,0.052,0.108,0.129,0.108,0.229c0,0.232-0.178,0.35-0.533,0.35c-0.112,0-0.218-0.019-0.319-0.049
			c-0.1-0.033-0.188-0.069-0.261-0.111c-0.075-0.041-0.136-0.079-0.184-0.118c-0.048-0.04-0.076-0.062-0.083-0.071l-0.311,0.528
			c0.042,0.034,0.098,0.072,0.172,0.117c0.074,0.046,0.16,0.091,0.258,0.133c0.096,0.043,0.205,0.08,0.326,0.11
			c0.121,0.03,0.25,0.046,0.386,0.046c0.189,0,0.356-0.022,0.506-0.071c0.149-0.047,0.273-0.114,0.376-0.201
			c0.104-0.087,0.183-0.191,0.238-0.313c0.055-0.125,0.084-0.262,0.084-0.411c0-0.192-0.043-0.349-0.125-0.47
			c-0.083-0.123-0.201-0.226-0.354-0.31c-0.13-0.071-0.261-0.125-0.398-0.164c-0.135-0.039-0.26-0.073-0.372-0.107
			c-0.112-0.034-0.205-0.075-0.277-0.119c-0.072-0.045-0.11-0.112-0.11-0.197c0-0.105,0.043-0.186,0.13-0.242
			c0.084-0.055,0.197-0.084,0.338-0.084c0.179,0,0.333,0.029,0.46,0.086c0.128,0.057,0.247,0.127,0.358,0.213l0.287-0.507
			c-0.022-0.014-0.061-0.042-0.122-0.08c-0.062-0.041-0.139-0.081-0.232-0.122c-0.092-0.042-0.198-0.077-0.317-0.109
			c-0.119-0.029-0.246-0.045-0.379-0.045C14.173,39.805,14.023,39.825,13.883,39.861 M10.707,42.994h0.621v-1.466l1.181,1.536
			l0.566-0.294l-0.787-0.947c0.029-0.012,0.074-0.037,0.136-0.075s0.126-0.09,0.19-0.161c0.063-0.068,0.121-0.155,0.169-0.258
			c0.05-0.103,0.075-0.226,0.075-0.37c0-0.21-0.042-0.391-0.123-0.538c-0.083-0.147-0.188-0.265-0.321-0.356
			c-0.132-0.09-0.28-0.157-0.448-0.199c-0.167-0.04-0.335-0.061-0.508-0.061c-0.203,0-0.367,0.01-0.493,0.031
			c-0.127,0.021-0.213,0.036-0.258,0.045V42.994z M11.728,40.399c0.085,0.018,0.163,0.049,0.232,0.096
			c0.069,0.046,0.126,0.107,0.171,0.182c0.045,0.077,0.067,0.173,0.067,0.286c0,0.104-0.022,0.19-0.063,0.261
			c-0.043,0.07-0.095,0.127-0.163,0.17c-0.064,0.044-0.136,0.078-0.215,0.098c-0.079,0.021-0.154,0.031-0.227,0.031H11.43
			c-0.034,0-0.067-0.003-0.103-0.009v-1.12c0.026-0.004,0.052-0.011,0.079-0.014c0.025-0.006,0.052-0.009,0.079-0.009
			C11.563,40.372,11.645,40.384,11.728,40.399 M8.388,39.866v3.127h1.967l0.098-0.563H9.01v-0.559h1.09l0.06-0.547H9.01v-0.896
			h1.295l-0.067-0.563H8.388z M5.857,42.994H6.48V42.07c0.069,0.009,0.138,0.014,0.208,0.014c0.162,0,0.328-0.02,0.493-0.057
			c0.166-0.04,0.314-0.102,0.446-0.188c0.133-0.087,0.24-0.203,0.326-0.346c0.084-0.144,0.125-0.321,0.125-0.533
			c0-0.208-0.041-0.387-0.125-0.533c-0.081-0.146-0.193-0.267-0.332-0.359c-0.14-0.092-0.302-0.159-0.484-0.201
			c-0.187-0.04-0.379-0.061-0.583-0.061c-0.184,0-0.337,0.011-0.46,0.035c-0.124,0.023-0.203,0.041-0.237,0.049V42.994z
			 M6.961,40.389c0.09,0.019,0.173,0.052,0.246,0.096c0.072,0.045,0.133,0.107,0.178,0.185c0.047,0.077,0.07,0.173,0.07,0.288
			c0,0.107-0.023,0.199-0.072,0.271c-0.048,0.074-0.109,0.133-0.184,0.179c-0.075,0.046-0.155,0.078-0.246,0.099
			c-0.091,0.019-0.18,0.03-0.267,0.03c-0.077,0-0.126-0.001-0.15-0.005c-0.025-0.002-0.043-0.007-0.055-0.013v-1.142
			c0.012-0.006,0.032-0.01,0.06-0.013c0.03-0.002,0.081-0.004,0.156-0.004C6.781,40.36,6.871,40.369,6.961,40.389"/>
	</g>
</g>
</svg>
