<?xml version="1.0" encoding="utf-8"?>
<!-- Generator: Adobe Illustrator 16.0.0, SVG Export Plug-In . SVG Version: 6.00 Build 0)  -->
<!DOCTYPE svg PUBLIC "-//W3C//DTD SVG 1.1//EN" "http://www.w3.org/Graphics/SVG/1.1/DTD/svg11.dtd">
<svg version="1.1" id="Calque_1" xmlns="http://www.w3.org/2000/svg" xmlns:xlink="http://www.w3.org/1999/xlink" x="0px" y="0px"
	 width="48px" height="48px" viewBox="0 0 48 48" enable-background="new 0 0 48 48" xml:space="preserve">
<g>
	<path fill="#00517D" d="M36.763,48H11.237C5.041,48,0,42.959,0,36.763V11.237C0,5.041,5.041,0,11.237,0h25.526
		C42.959,0,48,5.041,48,11.237v25.526C48,42.959,42.959,48,36.763,48z M11.237,2C6.144,2,2,6.144,2,11.237v25.526
		C2,41.856,6.144,46,11.237,46h25.526C41.856,46,46,41.856,46,36.763V11.237C46,6.144,41.856,2,36.763,2H11.237z"/>
	<g>
		<defs>
			<rect id="SVGID_1_" x="12.539" y="13.956" width="24.316" height="22.124"/>
		</defs>
		<clipPath id="SVGID_2_">
			<use xlink:href="#SVGID_1_"  overflow="visible"/>
		</clipPath>
		<path clip-path="url(#SVGID_2_)" fill="#005480" d="M35.812,25.343c0,0.036-0.015,0.068-0.041,0.094
			c-0.022,0.019-0.052,0.032-0.084,0.032h-0.008l-0.648-0.038c-0.067-0.003-0.118-0.059-0.118-0.125V23.75
			c0-0.037,0.014-0.072,0.043-0.097c0.027-0.023,0.064-0.036,0.1-0.029l0.65,0.098c0.061,0.007,0.106,0.063,0.106,0.125V25.343z
			 M35.812,28.335c0,0.06-0.042,0.112-0.103,0.125l-0.648,0.124h-0.022c-0.03,0-0.057-0.009-0.08-0.028
			c-0.031-0.024-0.048-0.06-0.048-0.096v-1.579c0-0.065,0.053-0.12,0.118-0.125l0.649-0.042c0.035-0.003,0.069,0.01,0.094,0.033
			c0.025,0.025,0.041,0.058,0.041,0.091V28.335z M34.442,25.266c0,0.032-0.015,0.069-0.04,0.09
			c-0.025,0.022-0.055,0.036-0.088,0.036h-0.007l-0.813-0.049c-0.064-0.001-0.117-0.057-0.117-0.125v-1.768
			c0-0.038,0.016-0.074,0.045-0.098c0.026-0.023,0.066-0.034,0.102-0.028l0.813,0.147c0.06,0.013,0.105,0.065,0.105,0.125V25.266z
			 M34.442,28.601c0,0.059-0.042,0.111-0.103,0.123l-0.812,0.158c-0.007,0-0.014,0.004-0.022,0.004
			c-0.029,0-0.061-0.014-0.082-0.033c-0.029-0.023-0.045-0.06-0.045-0.096v-1.769c0-0.066,0.052-0.122,0.117-0.125l0.813-0.055
			c0.035-0.002,0.069,0.009,0.095,0.031c0.025,0.026,0.04,0.057,0.04,0.093V28.601z M32.21,21.245c0,0.042-0.018,0.079-0.05,0.1
			c-0.022,0.017-0.05,0.026-0.074,0.026c-0.014,0-0.026,0-0.038-0.007l-1.118-0.342c-0.052-0.014-0.086-0.065-0.086-0.12v-2.086
			c0-0.043,0.019-0.08,0.057-0.104c0.035-0.024,0.08-0.028,0.117-0.012l1.119,0.483c0.043,0.021,0.075,0.066,0.075,0.116V21.245z
			 M32.21,25.135c0,0.037-0.013,0.072-0.04,0.094c-0.023,0.022-0.055,0.033-0.084,0.033h-0.009l-1.118-0.064
			c-0.064-0.002-0.116-0.057-0.116-0.124v-2.088c0-0.037,0.014-0.072,0.044-0.098c0.027-0.022,0.068-0.032,0.102-0.024l1.118,0.203
			c0.061,0.01,0.103,0.062,0.103,0.123V25.135z M31.67,32.152c0,0.053-0.032,0.1-0.082,0.117l-1.862,0.712
			c-0.016,0.006-0.031,0.008-0.046,0.008c-0.024,0-0.049-0.008-0.073-0.023c-0.033-0.021-0.055-0.062-0.055-0.101v-5.62
			c0-0.064,0.052-0.119,0.118-0.124l1.866-0.126c0.035-0.002,0.071,0.011,0.096,0.032c0.025,0.022,0.039,0.058,0.039,0.094V32.152z
			 M28.302,33.435c0,0.052-0.031,0.098-0.083,0.118l-2.794,1.062c-0.016,0.008-0.03,0.01-0.045,0.01
			c-0.025,0-0.051-0.007-0.073-0.022c-0.033-0.025-0.053-0.063-0.053-0.106v-6.958c0-0.067,0.05-0.121,0.119-0.127l2.794-0.188
			c0.036-0.002,0.072,0.009,0.095,0.033c0.026,0.024,0.041,0.057,0.041,0.091V33.435z M24.132,24.689v-2.925
			c0-0.037,0.017-0.072,0.047-0.094c0.027-0.025,0.065-0.035,0.102-0.028l2.137,0.388c0.059,0.012,0.103,0.064,0.103,0.125v2.657
			c0,0.035-0.012,0.069-0.041,0.09c-0.021,0.023-0.052,0.036-0.085,0.036h-0.007l-2.136-0.124
			C24.184,24.809,24.132,24.757,24.132,24.689 M24.132,15.917c0-0.043,0.021-0.083,0.057-0.108c0.036-0.022,0.08-0.026,0.121-0.01
			l2.136,0.923c0.045,0.021,0.076,0.066,0.076,0.118v2.655c0,0.041-0.017,0.078-0.05,0.104c-0.021,0.014-0.047,0.023-0.075,0.023
			c-0.012,0-0.024-0.001-0.038-0.004l-2.136-0.66c-0.052-0.014-0.09-0.064-0.09-0.119V15.917z M28.05,22.479
			c0-0.039,0.015-0.074,0.044-0.1c0.027-0.022,0.068-0.03,0.103-0.024l1.506,0.273c0.06,0.013,0.102,0.064,0.102,0.125v2.267
			c0,0.036-0.016,0.07-0.04,0.093c-0.023,0.022-0.055,0.033-0.085,0.033h-0.01l-1.504-0.106c-0.066-0.004-0.116-0.059-0.116-0.127
			V22.479z M28.05,17.608c0-0.042,0.019-0.08,0.054-0.107c0.038-0.021,0.084-0.025,0.121-0.009l1.505,0.651
			c0.043,0.02,0.075,0.065,0.075,0.116v2.246c0,0.041-0.018,0.079-0.05,0.1c-0.022,0.02-0.05,0.029-0.075,0.029
			c-0.013,0-0.024-0.002-0.038-0.007l-1.503-0.461c-0.056-0.018-0.09-0.065-0.09-0.121V17.608z M22.445,19.028
			c0,0.05-0.031,0.095-0.076,0.116l-1.406,0.624c-0.019,0.01-0.035,0.013-0.052,0.013c-0.024,0-0.049-0.007-0.071-0.021
			c-0.035-0.025-0.056-0.065-0.056-0.106V17.06c0-0.044,0.023-0.085,0.058-0.107l1.41-0.881c0.037-0.021,0.088-0.023,0.129-0.001
			c0.039,0.021,0.064,0.065,0.064,0.11V19.028z M22.445,24.725c0,0.065-0.049,0.12-0.114,0.125l-1.412,0.115h-0.009
			c-0.033,0-0.064-0.01-0.086-0.033c-0.028-0.025-0.041-0.057-0.041-0.093v-2.595c0-0.057,0.038-0.108,0.094-0.124l1.409-0.367
			c0.04-0.011,0.078-0.002,0.109,0.019c0.032,0.026,0.049,0.064,0.049,0.1V24.725z M22.445,30.419c0,0.037-0.012,0.073-0.04,0.098
			c-0.047,0.047-0.107,0.047-0.129,0.047c-0.251,0-1.218-0.348-1.409-0.417c-0.05-0.02-0.083-0.067-0.083-0.119v-2.595
			c0-0.036,0.016-0.068,0.041-0.093c0.027-0.025,0.062-0.034,0.097-0.032l1.411,0.136c0.063,0.009,0.112,0.061,0.112,0.126V30.419z
			 M19.857,20.176c0,0.05-0.027,0.095-0.075,0.115l-1,0.444c-0.015,0.008-0.031,0.011-0.05,0.011c-0.024,0-0.048-0.009-0.07-0.021
			c-0.035-0.023-0.058-0.062-0.058-0.108v-2.199c0-0.046,0.023-0.084,0.061-0.108l1-0.623c0.041-0.025,0.09-0.025,0.127-0.002
			c0.041,0.022,0.065,0.064,0.065,0.109V20.176z M19.857,24.938c0,0.064-0.05,0.12-0.116,0.125l-0.998,0.083h-0.011
			c-0.033,0-0.062-0.013-0.087-0.033c-0.025-0.023-0.041-0.057-0.041-0.093v-2.202c0-0.057,0.041-0.106,0.095-0.121l1-0.265
			c0.038-0.009,0.077-0.002,0.107,0.024c0.033,0.025,0.05,0.06,0.05,0.1V24.938z M19.857,29.7c0,0.04-0.017,0.077-0.05,0.101
			c-0.02,0.017-0.047,0.026-0.074,0.026c-0.014,0-0.023-0.002-0.036-0.005l-1-0.278c-0.055-0.014-0.093-0.065-0.093-0.122V27.22
			c0-0.037,0.016-0.067,0.043-0.093c0.025-0.025,0.06-0.036,0.096-0.034l1,0.098c0.066,0.008,0.113,0.061,0.113,0.126V29.7z
			 M18,20.997c0,0.05-0.031,0.097-0.077,0.118l-0.746,0.331c-0.017,0.005-0.035,0.01-0.05,0.01c-0.026,0-0.05-0.009-0.07-0.019
			C17.021,21.411,17,21.372,17,21.329v-1.912c0-0.042,0.022-0.083,0.061-0.108l0.747-0.462c0.036-0.026,0.087-0.026,0.127-0.005
			C17.974,18.863,18,18.906,18,18.953V20.997z M18,25.091c0,0.064-0.051,0.119-0.115,0.124l-0.748,0.064h-0.009
			c-0.034,0-0.063-0.014-0.088-0.033C17.014,25.221,17,25.188,17,25.153v-1.914c0-0.059,0.04-0.108,0.094-0.121l0.748-0.197
			c0.037-0.011,0.078,0,0.107,0.022C17.981,22.968,18,23.004,18,23.045V25.091z M18,29.186c0,0.035-0.019,0.073-0.051,0.1
			c-0.023,0.017-0.05,0.024-0.075,0.024c-0.012,0-0.024,0-0.034-0.005L17.093,29.1C17.037,29.084,17,29.033,17,28.976v-1.911
			c0-0.036,0.015-0.071,0.042-0.096c0.025-0.024,0.06-0.035,0.095-0.032l0.748,0.074C17.949,27.017,18,27.072,18,27.137V29.186z
			 M14.83,25.354c0,0.065-0.049,0.12-0.114,0.125l-0.58,0.047h-0.009c-0.034,0-0.064-0.013-0.088-0.032
			c-0.024-0.025-0.041-0.057-0.041-0.093v-1.373c0-0.057,0.041-0.107,0.095-0.124l0.578-0.148c0.039-0.012,0.079-0.004,0.111,0.021
			c0.03,0.022,0.047,0.06,0.047,0.097V25.354z M14.83,28.304c0,0.039-0.017,0.077-0.049,0.1c-0.023,0.019-0.048,0.027-0.076,0.027
			c-0.012,0-0.022-0.003-0.035-0.006l-0.579-0.161c-0.054-0.014-0.093-0.064-0.093-0.123v-1.369c0-0.036,0.017-0.07,0.043-0.095
			c0.025-0.023,0.061-0.036,0.097-0.03l0.579,0.055c0.066,0.007,0.113,0.06,0.113,0.125V28.304z M13.597,25.454
			c0,0.067-0.052,0.12-0.117,0.128l-0.424,0.034h-0.01c-0.03,0-0.062-0.011-0.084-0.034c-0.026-0.024-0.041-0.056-0.041-0.093
			v-1.177c0-0.059,0.038-0.109,0.093-0.121l0.423-0.111c0.038-0.01,0.078,0,0.11,0.021c0.03,0.025,0.047,0.061,0.047,0.1v1.253
			H13.597z M13.597,27.96c0,0.039-0.019,0.076-0.052,0.102c-0.021,0.016-0.047,0.024-0.074,0.024c-0.013,0-0.023,0-0.036-0.005
			l-0.421-0.115c-0.055-0.018-0.093-0.065-0.093-0.123v-1.178c0-0.036,0.014-0.069,0.041-0.093c0.028-0.025,0.063-0.038,0.097-0.033
			l0.423,0.041c0.063,0.008,0.112,0.06,0.112,0.126v1.253H13.597z M36.382,22.169l-3.416-1.048v-2.546
			c0-0.142-0.081-0.275-0.21-0.337l-9.223-4.564c0-0.002-0.003-0.002-0.007-0.002c-0.019-0.007-0.085-0.04-0.185-0.036
			c-0.105,0.007-0.182,0.057-0.197,0.068l-6.575,4.689c-0.101,0.072-0.16,0.189-0.16,0.31v3.273l-1.224-0.144h-0.01
			c-0.014,0-0.053-0.002-0.088,0.002c-0.044,0.005-0.082,0.02-0.097,0.025c0,0.002-0.003,0.002-0.003,0.002l-2.223,0.985
			c-0.14,0.061-0.227,0.199-0.227,0.345v6.346c0,0.138,0.076,0.267,0.199,0.332l2.226,1.222c0,0,0.062,0.033,0.13,0.044
			c0.063,0.005,0.107,0,0.107,0l1.208-0.176v0.698c0,0.139,0.074,0.266,0.195,0.334l6.578,3.605c0,0,0.073,0.042,0.168,0.044
			c0.075,0.005,0.146-0.023,0.146-0.023v-0.002h0.001l9.224-3.505l3.684-1.402c0.146-0.056,0.244-0.196,0.244-0.353v-7.825
			C36.651,22.365,36.542,22.217,36.382,22.169"/>
	</g>
	<g>
		<defs>
			<rect id="SVGID_3_" x="5.742" y="6.412" width="37.911" height="36.615"/>
		</defs>
		<clipPath id="SVGID_4_">
			<use xlink:href="#SVGID_3_"  overflow="visible"/>
		</clipPath>
		<path clip-path="url(#SVGID_4_)" fill="#005480" d="M43.543,8.829c-0.073-0.226-0.183-0.426-0.329-0.598
			c-0.147-0.17-0.332-0.308-0.551-0.405c-0.22-0.098-0.475-0.148-0.765-0.148c-0.254,0-0.492,0.044-0.712,0.132
			c-0.22,0.088-0.411,0.211-0.57,0.369c-0.162,0.16-0.286,0.347-0.376,0.569c-0.089,0.218-0.134,0.458-0.134,0.717
			c0,0.272,0.048,0.52,0.14,0.742c0.095,0.222,0.223,0.412,0.39,0.571c0.164,0.158,0.36,0.281,0.587,0.368
			c0.225,0.089,0.468,0.133,0.728,0.133c0.269,0,0.494-0.029,0.68-0.086c0.184-0.058,0.336-0.125,0.458-0.202
			c0.119-0.076,0.211-0.15,0.275-0.224c0.063-0.072,0.109-0.125,0.136-0.162l-0.547-0.48c-0.01,0.008-0.034,0.037-0.074,0.083
			c-0.038,0.045-0.097,0.093-0.173,0.141c-0.079,0.049-0.171,0.093-0.284,0.132c-0.112,0.041-0.244,0.059-0.394,0.059
			c-0.205,0-0.375-0.036-0.506-0.108c-0.132-0.073-0.236-0.156-0.314-0.25c-0.076-0.095-0.131-0.19-0.164-0.288
			c-0.033-0.096-0.052-0.168-0.056-0.216h2.657c0-0.023,0-0.044,0.002-0.063c0.002-0.021,0.004-0.041,0.004-0.063
			C43.653,9.295,43.615,9.056,43.543,8.829 M41.001,9.056c0.013-0.043,0.036-0.102,0.067-0.174c0.03-0.073,0.08-0.145,0.15-0.215
			c0.072-0.069,0.162-0.133,0.275-0.185c0.112-0.052,0.255-0.079,0.431-0.079c0.177,0,0.321,0.028,0.435,0.087
			c0.114,0.057,0.205,0.123,0.272,0.196c0.063,0.076,0.111,0.148,0.141,0.223c0.027,0.071,0.045,0.121,0.048,0.147H41.001z
			 M38.714,12.617c0.219-0.083,0.396-0.192,0.526-0.327c0.133-0.133,0.226-0.284,0.28-0.45c0.057-0.168,0.084-0.334,0.084-0.502
			v-2.9c0-0.101,0.001-0.182,0.007-0.24c0.004-0.06,0.011-0.104,0.019-0.136c0.009-0.031,0.019-0.055,0.029-0.069
			c0.012-0.017,0.026-0.033,0.042-0.05c-0.052-0.022-0.117-0.048-0.197-0.079c-0.078-0.029-0.179-0.059-0.299-0.084
			c-0.122-0.028-0.264-0.05-0.431-0.07c-0.169-0.021-0.366-0.03-0.595-0.03c-0.304,0-0.579,0.051-0.828,0.153
			c-0.248,0.101-0.46,0.234-0.636,0.4c-0.176,0.169-0.312,0.36-0.41,0.575c-0.095,0.215-0.144,0.438-0.144,0.671
			c0,0.278,0.044,0.526,0.135,0.75c0.09,0.221,0.211,0.409,0.364,0.567c0.149,0.156,0.329,0.273,0.532,0.355
			c0.205,0.082,0.423,0.122,0.657,0.122c0.146,0,0.275-0.013,0.389-0.042c0.114-0.028,0.21-0.062,0.29-0.098
			c0.079-0.038,0.141-0.072,0.185-0.102c0.044-0.031,0.07-0.052,0.08-0.061v0.285c0,0.219-0.067,0.396-0.203,0.53
			c-0.133,0.134-0.361,0.201-0.682,0.201c-0.162,0-0.304-0.013-0.425-0.038c-0.122-0.027-0.223-0.057-0.303-0.093
			c-0.08-0.035-0.146-0.066-0.191-0.096c-0.046-0.028-0.074-0.046-0.082-0.056l-0.345,0.707c0.019,0.008,0.063,0.03,0.133,0.069
			c0.069,0.037,0.164,0.076,0.281,0.115c0.115,0.04,0.251,0.075,0.408,0.105c0.156,0.031,0.326,0.045,0.51,0.045
			C38.223,12.741,38.494,12.701,38.714,12.617 M37.617,10.389c-0.113-0.044-0.209-0.106-0.295-0.188
			c-0.083-0.08-0.15-0.179-0.2-0.295c-0.052-0.116-0.076-0.246-0.076-0.39c0-0.168,0.03-0.314,0.089-0.441
			c0.058-0.126,0.137-0.233,0.234-0.315c0.095-0.083,0.205-0.146,0.326-0.188c0.122-0.042,0.245-0.062,0.373-0.062
			c0.198,0,0.352,0.009,0.461,0.03c0.109,0.018,0.178,0.039,0.205,0.062v1.314c0,0.153-0.069,0.28-0.205,0.384
			c-0.137,0.102-0.323,0.154-0.561,0.154C37.847,10.454,37.729,10.433,37.617,10.389 M33.454,8.641
			c0.022-0.014,0.057-0.034,0.104-0.063c0.048-0.029,0.107-0.057,0.178-0.086c0.069-0.028,0.15-0.054,0.241-0.079
			c0.09-0.024,0.187-0.038,0.292-0.038c0.133,0,0.239,0.019,0.321,0.051c0.081,0.032,0.146,0.078,0.19,0.135
			c0.047,0.057,0.078,0.123,0.098,0.199c0.016,0.074,0.025,0.153,0.025,0.238c0,0.008-0.001,0.018-0.003,0.028
			c-0.002,0.011-0.003,0.022-0.003,0.03c-0.005-0.003-0.026-0.019-0.067-0.042c-0.041-0.025-0.093-0.052-0.162-0.083
			c-0.068-0.03-0.15-0.057-0.242-0.082c-0.095-0.025-0.2-0.036-0.314-0.036c-0.185,0-0.354,0.027-0.51,0.085
			c-0.158,0.057-0.293,0.139-0.41,0.245c-0.117,0.11-0.208,0.239-0.274,0.394c-0.065,0.153-0.098,0.328-0.098,0.521
			c0,0.154,0.028,0.302,0.084,0.448c0.057,0.145,0.14,0.275,0.245,0.39c0.104,0.113,0.235,0.206,0.389,0.275
			c0.154,0.071,0.328,0.107,0.522,0.107c0.149,0,0.278-0.017,0.388-0.046c0.109-0.032,0.202-0.068,0.277-0.111
			c0.073-0.04,0.132-0.081,0.174-0.121c0.042-0.04,0.07-0.068,0.089-0.085c0.002,0.062,0.012,0.119,0.023,0.172
			c0.011,0.052,0.029,0.112,0.056,0.177l0.766-0.112c-0.014-0.025-0.029-0.056-0.047-0.088c-0.017-0.033-0.034-0.077-0.045-0.129
			c-0.014-0.052-0.025-0.12-0.033-0.201c-0.01-0.082-0.014-0.186-0.014-0.312l0.021-1.616c0-0.146-0.026-0.286-0.076-0.418
			c-0.05-0.134-0.132-0.255-0.245-0.361c-0.111-0.105-0.257-0.189-0.431-0.253c-0.175-0.063-0.389-0.096-0.639-0.096
			c-0.15,0-0.292,0.013-0.427,0.039c-0.134,0.028-0.253,0.057-0.359,0.093c-0.105,0.036-0.195,0.07-0.266,0.105
			c-0.073,0.036-0.123,0.062-0.148,0.08L33.454,8.641z M33.678,9.841c0.021-0.065,0.056-0.124,0.105-0.175
			c0.048-0.05,0.112-0.092,0.191-0.126c0.078-0.032,0.175-0.048,0.29-0.048c0.219,0,0.385,0.055,0.497,0.168
			c0.112,0.112,0.169,0.236,0.169,0.373c0,0.061-0.016,0.123-0.043,0.188c-0.03,0.064-0.071,0.121-0.126,0.171
			c-0.054,0.051-0.124,0.092-0.204,0.125c-0.081,0.032-0.177,0.05-0.288,0.05c-0.105,0-0.197-0.018-0.276-0.05
			c-0.078-0.034-0.144-0.074-0.198-0.125c-0.052-0.051-0.092-0.106-0.114-0.168c-0.025-0.061-0.038-0.123-0.038-0.185
			C33.644,9.973,33.656,9.906,33.678,9.841 M29.906,12.425v-1.337c0.012,0.008,0.043,0.022,0.088,0.042
			c0.046,0.019,0.106,0.04,0.182,0.063c0.074,0.021,0.163,0.042,0.267,0.06c0.103,0.016,0.22,0.026,0.346,0.026
			c0.255,0,0.487-0.044,0.698-0.133c0.212-0.087,0.392-0.209,0.544-0.364c0.152-0.156,0.269-0.34,0.35-0.551
			c0.081-0.211,0.121-0.442,0.121-0.693c0-0.28-0.05-0.536-0.147-0.766c-0.098-0.227-0.239-0.423-0.418-0.586
			c-0.18-0.163-0.397-0.288-0.648-0.376c-0.255-0.088-0.534-0.132-0.841-0.132c-0.224,0-0.423,0.013-0.595,0.039
			c-0.17,0.028-0.316,0.058-0.438,0.096c-0.121,0.038-0.218,0.074-0.295,0.109c-0.078,0.036-0.132,0.061-0.164,0.073
			c0.023,0.035,0.041,0.091,0.058,0.167c0.015,0.079,0.023,0.181,0.023,0.307v3.956H29.906z M31.514,9.943
			c-0.058,0.125-0.134,0.227-0.231,0.302c-0.097,0.078-0.207,0.132-0.329,0.165c-0.122,0.035-0.25,0.05-0.381,0.05
			c-0.181,0-0.336-0.027-0.466-0.085c-0.13-0.057-0.194-0.141-0.194-0.251v-1.59c0.009-0.003,0.059-0.02,0.149-0.048
			c0.089-0.028,0.229-0.042,0.418-0.042c0.131,0,0.265,0.019,0.399,0.058c0.133,0.041,0.254,0.103,0.362,0.185
			c0.107,0.084,0.194,0.189,0.26,0.321c0.065,0.128,0.099,0.285,0.099,0.465C31.601,9.662,31.571,9.818,31.514,9.943 M27.849,7.653
			l-0.764,2.333l-0.997-2.333l-0.856,0.256l1.457,2.98l-0.072,0.185c-0.052,0.131-0.119,0.251-0.198,0.363
			c-0.079,0.11-0.165,0.208-0.258,0.294c-0.091,0.089-0.183,0.168-0.276,0.236c-0.092,0.067-0.177,0.125-0.25,0.168l0.639,0.528
			c0.252-0.176,0.479-0.399,0.687-0.666c0.207-0.269,0.385-0.59,0.534-0.963l1.247-3.125L27.849,7.653z M23.082,6.775V7.77h-0.594
			v0.752h0.594v1.695c0,0.118,0.017,0.24,0.053,0.369c0.034,0.127,0.097,0.243,0.184,0.343c0.088,0.102,0.204,0.184,0.346,0.25
			c0.143,0.067,0.325,0.1,0.544,0.1c0.185,0,0.346-0.02,0.482-0.057s0.249-0.079,0.338-0.125c0.09-0.046,0.16-0.092,0.208-0.136
			c0.049-0.043,0.08-0.072,0.093-0.085l-0.442-0.621c-0.008,0.014-0.025,0.033-0.05,0.061c-0.023,0.026-0.057,0.051-0.102,0.075
			c-0.044,0.024-0.096,0.046-0.155,0.065c-0.059,0.021-0.13,0.031-0.214,0.031c-0.088,0-0.16-0.014-0.214-0.041
			c-0.055-0.025-0.097-0.059-0.129-0.103c-0.03-0.042-0.05-0.086-0.058-0.135c-0.01-0.047-0.014-0.091-0.014-0.131V8.522h1.082V7.77
			h-1.082V6.775H23.082z M19.699,7.82c-0.228,0.095-0.424,0.223-0.589,0.386c-0.165,0.161-0.294,0.353-0.39,0.573
			C18.625,9,18.579,9.232,18.579,9.478c0,0.264,0.045,0.506,0.138,0.726c0.092,0.219,0.222,0.41,0.389,0.57
			c0.167,0.16,0.365,0.285,0.593,0.372c0.229,0.089,0.479,0.133,0.753,0.133c0.281,0,0.535-0.047,0.764-0.143
			c0.229-0.093,0.424-0.222,0.589-0.383c0.166-0.16,0.293-0.35,0.383-0.569c0.09-0.22,0.135-0.455,0.135-0.706
			c0-0.254-0.047-0.492-0.142-0.712c-0.094-0.219-0.227-0.41-0.395-0.569c-0.169-0.16-0.369-0.288-0.598-0.381
			c-0.227-0.092-0.475-0.138-0.737-0.138C20.178,7.678,19.928,7.725,19.699,7.82 M19.544,9.074c0.046-0.118,0.111-0.221,0.195-0.309
			c0.083-0.088,0.185-0.156,0.307-0.208c0.121-0.049,0.256-0.076,0.406-0.076c0.145,0,0.276,0.026,0.396,0.076
			c0.118,0.052,0.22,0.121,0.307,0.211c0.085,0.09,0.152,0.193,0.201,0.312c0.049,0.12,0.071,0.246,0.071,0.382
			c0,0.145-0.022,0.277-0.071,0.402c-0.049,0.122-0.116,0.228-0.201,0.318c-0.087,0.089-0.189,0.158-0.307,0.207
			c-0.119,0.048-0.251,0.072-0.396,0.072c-0.146,0-0.278-0.024-0.396-0.072c-0.119-0.048-0.221-0.116-0.307-0.205
			c-0.085-0.088-0.153-0.192-0.201-0.315c-0.049-0.124-0.072-0.26-0.072-0.414C19.476,9.321,19.498,9.191,19.544,9.074
			 M16.285,6.775V7.77H15.69v0.752h0.594v1.695c0,0.118,0.017,0.24,0.052,0.369c0.036,0.127,0.097,0.243,0.185,0.343
			c0.087,0.102,0.203,0.184,0.346,0.25c0.142,0.067,0.323,0.1,0.543,0.1c0.185,0,0.345-0.02,0.48-0.057
			c0.137-0.037,0.25-0.079,0.34-0.125c0.09-0.046,0.159-0.092,0.208-0.136c0.049-0.043,0.079-0.072,0.092-0.085l-0.442-0.621
			c-0.008,0.014-0.025,0.033-0.05,0.061c-0.024,0.026-0.058,0.051-0.103,0.075c-0.043,0.024-0.094,0.046-0.154,0.065
			c-0.06,0.021-0.132,0.031-0.214,0.031c-0.088,0-0.16-0.014-0.215-0.041c-0.054-0.025-0.099-0.059-0.129-0.103
			c-0.03-0.042-0.05-0.086-0.058-0.135c-0.01-0.047-0.014-0.091-0.014-0.131V8.522h1.082V7.77h-1.082V6.775H16.285z M12.901,7.82
			c-0.229,0.095-0.424,0.223-0.59,0.386c-0.165,0.161-0.295,0.353-0.388,0.573C11.828,9,11.78,9.232,11.78,9.478
			c0,0.264,0.047,0.506,0.139,0.726c0.092,0.219,0.222,0.41,0.39,0.57c0.167,0.16,0.364,0.285,0.592,0.372
			c0.229,0.089,0.48,0.133,0.753,0.133c0.281,0,0.536-0.047,0.764-0.143c0.229-0.093,0.425-0.222,0.591-0.383
			c0.165-0.16,0.292-0.35,0.382-0.569c0.09-0.22,0.136-0.455,0.136-0.706c0-0.254-0.048-0.492-0.143-0.712
			c-0.093-0.219-0.226-0.41-0.395-0.569c-0.17-0.16-0.368-0.288-0.597-0.381c-0.229-0.092-0.475-0.138-0.737-0.138
			C13.381,7.678,13.131,7.725,12.901,7.82 M12.747,9.074c0.046-0.118,0.111-0.221,0.195-0.309c0.083-0.088,0.185-0.156,0.306-0.208
			c0.121-0.049,0.256-0.076,0.406-0.076c0.145,0,0.276,0.026,0.396,0.076c0.118,0.052,0.22,0.121,0.306,0.211
			s0.153,0.193,0.202,0.312c0.047,0.12,0.071,0.246,0.071,0.382c0,0.145-0.024,0.277-0.071,0.402
			c-0.049,0.122-0.116,0.228-0.202,0.318c-0.086,0.089-0.188,0.158-0.306,0.207c-0.12,0.048-0.25,0.072-0.396,0.072
			c-0.146,0-0.278-0.024-0.396-0.072c-0.119-0.048-0.221-0.116-0.306-0.205c-0.086-0.088-0.153-0.192-0.201-0.315
			c-0.049-0.124-0.073-0.26-0.073-0.414C12.678,9.321,12.701,9.191,12.747,9.074 M9.526,7.77v3.416h0.876V9.261
			c0-0.146,0.025-0.265,0.077-0.359c0.05-0.095,0.122-0.17,0.214-0.225c0.093-0.055,0.202-0.096,0.33-0.12
			c0.127-0.023,0.271-0.035,0.429-0.035c0.017,0,0.035,0.001,0.049,0.002c0.016,0.002,0.033,0.003,0.056,0.003l0.06-0.837
			c-0.04-0.008-0.08-0.012-0.122-0.009c-0.042,0.002-0.083,0.003-0.122,0.003c-0.146,0-0.277,0.023-0.396,0.069
			c-0.119,0.047-0.222,0.106-0.31,0.182c-0.088,0.074-0.159,0.157-0.215,0.248c-0.054,0.089-0.093,0.181-0.115,0.272V7.77H9.526z
			 M5.742,11.186h0.943V9.8C6.79,9.815,6.896,9.822,7.002,9.822c0.246,0,0.494-0.03,0.745-0.087c0.25-0.057,0.475-0.149,0.675-0.279
			c0.201-0.129,0.364-0.302,0.491-0.519c0.128-0.215,0.191-0.48,0.191-0.796c0-0.313-0.063-0.579-0.188-0.799
			C8.791,7.123,8.624,6.942,8.412,6.805C8.2,6.667,7.956,6.567,7.677,6.503c-0.281-0.061-0.574-0.091-0.88-0.091
			c-0.277,0-0.509,0.019-0.696,0.054C5.915,6.5,5.794,6.524,5.742,6.538V11.186z M7.414,7.286c0.135,0.027,0.26,0.076,0.371,0.145
			c0.109,0.067,0.2,0.16,0.271,0.274c0.072,0.117,0.106,0.26,0.106,0.432c0,0.162-0.036,0.296-0.109,0.407
			C7.979,8.653,7.887,8.743,7.774,8.811C7.662,8.878,7.537,8.926,7.399,8.958C7.264,8.989,7.128,9.003,6.995,9.003
			c-0.113,0-0.19-0.002-0.228-0.005C6.73,8.992,6.702,8.986,6.685,8.976V7.269c0.017-0.009,0.048-0.015,0.092-0.02
			c0.045-0.003,0.121-0.006,0.231-0.006C7.142,7.243,7.277,7.257,7.414,7.286"/>
		<path clip-path="url(#SVGID_4_)" fill="#005480" d="M41.252,37.268c-0.215,0.061-0.402,0.144-0.559,0.254
			c-0.157,0.111-0.283,0.242-0.374,0.393c-0.09,0.152-0.135,0.322-0.135,0.51c0,0.188,0.034,0.345,0.106,0.469
			c0.073,0.127,0.167,0.235,0.28,0.326c0.116,0.092,0.249,0.168,0.399,0.229c0.149,0.063,0.302,0.118,0.458,0.166
			c0.145,0.049,0.286,0.091,0.42,0.131c0.138,0.041,0.259,0.083,0.367,0.129c0.106,0.045,0.192,0.097,0.256,0.153
			c0.065,0.056,0.097,0.121,0.097,0.197c0,0.267-0.271,0.402-0.811,0.402c-0.29,0-0.547-0.048-0.768-0.145
			c-0.223-0.096-0.402-0.193-0.542-0.29l-0.449,0.835c0.038,0.027,0.107,0.071,0.208,0.129c0.103,0.059,0.23,0.118,0.382,0.176
			c0.151,0.061,0.329,0.114,0.53,0.163c0.201,0.048,0.421,0.071,0.662,0.071c0.311,0,0.584-0.041,0.816-0.12
			c0.232-0.081,0.429-0.184,0.586-0.313c0.157-0.127,0.276-0.274,0.354-0.438c0.077-0.163,0.114-0.331,0.114-0.502
			c0-0.176-0.031-0.334-0.095-0.473c-0.064-0.139-0.152-0.262-0.264-0.37c-0.115-0.107-0.246-0.199-0.399-0.274
			c-0.152-0.072-0.319-0.138-0.501-0.192c-0.177-0.049-0.334-0.091-0.47-0.128c-0.137-0.037-0.255-0.074-0.35-0.113
			c-0.096-0.037-0.168-0.079-0.216-0.126c-0.05-0.049-0.074-0.107-0.074-0.179c0-0.1,0.069-0.182,0.209-0.243
			C41.631,38.031,41.787,38,41.958,38c0.134,0,0.262,0.015,0.385,0.045c0.124,0.028,0.233,0.062,0.33,0.1
			c0.096,0.036,0.178,0.074,0.246,0.111c0.066,0.038,0.111,0.069,0.139,0.089l0.417-0.755c-0.042-0.033-0.111-0.071-0.204-0.118
			c-0.093-0.044-0.207-0.088-0.337-0.131c-0.131-0.043-0.281-0.081-0.45-0.112c-0.169-0.032-0.349-0.048-0.542-0.048
			C41.695,37.181,41.466,37.21,41.252,37.268 M37.26,36.081v1.213h-0.722v0.915h0.722v2.064c0,0.144,0.021,0.294,0.064,0.449
			c0.043,0.156,0.119,0.295,0.226,0.418c0.106,0.123,0.247,0.224,0.42,0.305c0.174,0.079,0.395,0.12,0.662,0.12
			c0.225,0,0.421-0.022,0.586-0.068c0.166-0.046,0.304-0.096,0.414-0.152c0.109-0.056,0.195-0.11,0.251-0.165
			c0.059-0.054,0.098-0.088,0.114-0.105l-0.539-0.754c-0.01,0.016-0.032,0.04-0.061,0.072c-0.028,0.034-0.071,0.063-0.124,0.092
			c-0.055,0.028-0.117,0.056-0.19,0.08c-0.072,0.024-0.16,0.037-0.259,0.037c-0.107,0-0.195-0.015-0.261-0.048
			c-0.068-0.031-0.12-0.073-0.157-0.124c-0.038-0.05-0.062-0.106-0.072-0.165c-0.01-0.06-0.015-0.113-0.015-0.16v-1.896h1.316
			v-0.915h-1.316v-1.213H37.26z M36.204,38.582c-0.089-0.276-0.223-0.519-0.402-0.726c-0.178-0.209-0.403-0.374-0.67-0.495
			c-0.269-0.12-0.579-0.181-0.932-0.181c-0.309,0-0.599,0.055-0.868,0.161c-0.267,0.107-0.5,0.258-0.694,0.45
			c-0.195,0.191-0.347,0.422-0.457,0.69c-0.109,0.269-0.163,0.56-0.163,0.876c0,0.331,0.057,0.632,0.171,0.902
			c0.115,0.271,0.273,0.502,0.474,0.695c0.2,0.192,0.438,0.344,0.714,0.449c0.276,0.107,0.571,0.161,0.887,0.161
			c0.327,0,0.602-0.035,0.827-0.104c0.227-0.069,0.412-0.152,0.559-0.246c0.147-0.093,0.259-0.183,0.338-0.272
			c0.076-0.088,0.133-0.153,0.164-0.196l-0.668-0.587c-0.01,0.011-0.04,0.043-0.087,0.1c-0.048,0.057-0.12,0.115-0.212,0.173
			c-0.094,0.059-0.209,0.113-0.346,0.16c-0.137,0.049-0.295,0.073-0.477,0.073c-0.252,0-0.459-0.045-0.618-0.132
			c-0.162-0.089-0.29-0.189-0.381-0.305c-0.095-0.118-0.161-0.233-0.202-0.35c-0.04-0.118-0.064-0.206-0.068-0.265h3.235
			c0-0.027,0.002-0.053,0.005-0.076c0.003-0.024,0.004-0.05,0.004-0.076C36.337,39.15,36.292,38.858,36.204,38.582 M33.109,38.859
			c0.016-0.053,0.043-0.124,0.081-0.212c0.036-0.088,0.098-0.176,0.183-0.262c0.087-0.084,0.198-0.16,0.333-0.224
			c0.138-0.063,0.313-0.097,0.527-0.097c0.215,0,0.391,0.036,0.531,0.105c0.139,0.069,0.248,0.15,0.328,0.242
			c0.082,0.091,0.138,0.179,0.174,0.268c0.034,0.088,0.054,0.149,0.059,0.181H33.109z M30.346,37.293v3.677
			c0,0.182-0.021,0.341-0.064,0.474c-0.042,0.133-0.098,0.251-0.165,0.354c-0.067,0.1-0.144,0.191-0.231,0.272
			c-0.088,0.08-0.176,0.155-0.262,0.224l0.707,0.731c0.096-0.076,0.208-0.167,0.333-0.282c0.125-0.111,0.245-0.247,0.354-0.405
			c0.109-0.158,0.203-0.339,0.277-0.545c0.075-0.206,0.113-0.442,0.113-0.71v-3.791H30.346z M30.423,36.55
			c0.125,0.122,0.277,0.181,0.454,0.181c0.171,0,0.322-0.059,0.454-0.181c0.131-0.12,0.195-0.273,0.195-0.461
			s-0.064-0.341-0.191-0.462c-0.129-0.12-0.282-0.181-0.458-0.181c-0.183,0-0.335,0.062-0.457,0.185
			c-0.123,0.124-0.186,0.276-0.186,0.458C30.233,36.276,30.296,36.43,30.423,36.55 M26.34,37.353
			c-0.279,0.115-0.519,0.272-0.72,0.47c-0.2,0.198-0.359,0.432-0.474,0.699c-0.116,0.267-0.172,0.551-0.172,0.851
			c0,0.322,0.055,0.617,0.169,0.884c0.111,0.268,0.27,0.499,0.473,0.695c0.203,0.195,0.444,0.348,0.724,0.453
			c0.277,0.107,0.583,0.161,0.916,0.161c0.342,0,0.651-0.057,0.931-0.171c0.279-0.117,0.517-0.272,0.718-0.468
			c0.201-0.195,0.357-0.427,0.466-0.694c0.111-0.268,0.165-0.554,0.165-0.86c0-0.311-0.057-0.599-0.173-0.866
			c-0.114-0.269-0.276-0.5-0.48-0.695c-0.207-0.195-0.45-0.349-0.728-0.461c-0.277-0.111-0.577-0.168-0.898-0.168
			C26.922,37.181,26.617,37.239,26.34,37.353 M26.151,38.88c0.056-0.143,0.135-0.268,0.236-0.375
			c0.103-0.107,0.227-0.191,0.374-0.252c0.147-0.06,0.312-0.092,0.495-0.092c0.176,0,0.337,0.032,0.48,0.092
			c0.145,0.061,0.269,0.146,0.373,0.256c0.105,0.11,0.187,0.236,0.245,0.381c0.06,0.143,0.089,0.298,0.089,0.463
			c0,0.178-0.029,0.339-0.089,0.489c-0.059,0.15-0.14,0.279-0.245,0.389c-0.104,0.109-0.228,0.193-0.373,0.251
			c-0.144,0.058-0.304,0.087-0.48,0.087c-0.177,0-0.337-0.029-0.483-0.087c-0.145-0.058-0.268-0.14-0.374-0.249
			c-0.105-0.105-0.186-0.235-0.244-0.384c-0.06-0.149-0.089-0.316-0.089-0.504C26.066,39.18,26.093,39.024,26.151,38.88
			 M22.228,37.293v4.159h1.068v-2.344c0-0.177,0.031-0.323,0.092-0.438c0.063-0.114,0.149-0.205,0.262-0.272
			s0.246-0.116,0.402-0.145c0.155-0.029,0.329-0.044,0.521-0.044c0.022,0,0.042,0.001,0.061,0.004
			c0.018,0.002,0.042,0.003,0.068,0.003l0.072-1.018c-0.047-0.01-0.098-0.015-0.148-0.012c-0.052,0.003-0.101,0.004-0.149,0.004
			c-0.177,0-0.337,0.027-0.482,0.083c-0.143,0.058-0.27,0.131-0.378,0.223c-0.107,0.09-0.192,0.19-0.26,0.299
			c-0.066,0.11-0.114,0.222-0.141,0.334v-0.835H22.228z M18.51,42.963v-1.632c0.016,0.012,0.053,0.029,0.108,0.054
			c0.057,0.024,0.129,0.051,0.22,0.076c0.091,0.027,0.2,0.05,0.325,0.072c0.127,0.022,0.266,0.032,0.423,0.032
			c0.311,0,0.594-0.054,0.851-0.161c0.257-0.105,0.479-0.254,0.662-0.446c0.185-0.19,0.326-0.413,0.426-0.67
			c0.099-0.257,0.149-0.538,0.149-0.843c0-0.342-0.062-0.653-0.182-0.93c-0.12-0.279-0.29-0.517-0.509-0.716
			c-0.22-0.197-0.483-0.35-0.791-0.457c-0.308-0.106-0.65-0.161-1.023-0.161c-0.274,0-0.515,0.017-0.723,0.048
			c-0.209,0.031-0.388,0.07-0.535,0.117c-0.147,0.045-0.267,0.089-0.361,0.134c-0.094,0.042-0.16,0.071-0.197,0.086
			c0.027,0.043,0.049,0.11,0.069,0.205c0.018,0.094,0.028,0.22,0.028,0.375v4.818H18.51z M20.468,39.939
			c-0.068,0.152-0.163,0.275-0.28,0.369c-0.118,0.094-0.252,0.161-0.402,0.201c-0.15,0.041-0.305,0.06-0.466,0.06
			c-0.219,0-0.407-0.033-0.565-0.103c-0.159-0.069-0.237-0.172-0.237-0.306v-1.936c0.011-0.005,0.072-0.025,0.182-0.06
			c0.109-0.035,0.279-0.052,0.51-0.052c0.16,0,0.322,0.024,0.486,0.071c0.163,0.048,0.31,0.124,0.442,0.226
			c0.13,0.1,0.236,0.229,0.316,0.39c0.08,0.158,0.12,0.345,0.12,0.565C20.573,39.595,20.538,39.786,20.468,39.939 M14.756,38.582
			c-0.089-0.276-0.224-0.519-0.402-0.726c-0.18-0.209-0.403-0.374-0.67-0.495c-0.268-0.12-0.578-0.181-0.931-0.181
			c-0.311,0-0.6,0.055-0.868,0.161c-0.269,0.107-0.499,0.258-0.694,0.45c-0.196,0.191-0.348,0.422-0.458,0.69
			c-0.11,0.269-0.165,0.56-0.165,0.876c0,0.331,0.059,0.632,0.173,0.902c0.115,0.271,0.273,0.502,0.473,0.695
			c0.201,0.192,0.44,0.344,0.717,0.449c0.273,0.107,0.57,0.161,0.887,0.161c0.326,0,0.602-0.035,0.826-0.104
			c0.226-0.069,0.412-0.152,0.559-0.246c0.146-0.093,0.259-0.183,0.338-0.272c0.076-0.088,0.131-0.153,0.163-0.196l-0.666-0.587
			c-0.012,0.011-0.041,0.043-0.088,0.1c-0.049,0.057-0.119,0.115-0.212,0.173c-0.094,0.059-0.209,0.113-0.346,0.16
			c-0.137,0.049-0.296,0.073-0.478,0.073c-0.252,0-0.458-0.045-0.619-0.132c-0.16-0.089-0.288-0.189-0.382-0.305
			c-0.094-0.118-0.161-0.233-0.201-0.35c-0.041-0.118-0.062-0.206-0.068-0.265h3.237c0-0.027,0.001-0.053,0.003-0.076
			c0.003-0.024,0.005-0.05,0.005-0.076C14.888,39.15,14.844,38.858,14.756,38.582 M11.661,38.859
			c0.016-0.053,0.042-0.124,0.081-0.212c0.037-0.088,0.098-0.176,0.183-0.262c0.087-0.084,0.197-0.16,0.334-0.224
			c0.136-0.063,0.311-0.097,0.525-0.097c0.215,0,0.392,0.036,0.531,0.105c0.139,0.069,0.248,0.15,0.328,0.242
			c0.08,0.091,0.138,0.179,0.173,0.268c0.034,0.088,0.055,0.149,0.06,0.181H11.661z M8.897,37.42
			c-0.017-0.01-0.052-0.028-0.108-0.056c-0.056-0.026-0.128-0.053-0.217-0.08c-0.087-0.027-0.196-0.05-0.321-0.073
			c-0.125-0.021-0.269-0.032-0.429-0.032c-0.304,0-0.584,0.056-0.839,0.165c-0.255,0.109-0.474,0.259-0.659,0.449
			c-0.185,0.19-0.328,0.412-0.429,0.663c-0.103,0.252-0.153,0.519-0.153,0.803c0,0.461,0.078,0.841,0.236,1.14
			c0.158,0.3,0.362,0.536,0.614,0.707c0.252,0.17,0.532,0.291,0.843,0.357c0.311,0.066,0.622,0.1,0.932,0.1
			c0.177,0,0.353-0.013,0.53-0.041c0.177-0.026,0.339-0.058,0.49-0.096c0.15-0.037,0.284-0.075,0.397-0.116
			c0.116-0.041,0.205-0.076,0.27-0.107c-0.043-0.082-0.07-0.173-0.081-0.279c-0.011-0.104-0.016-0.205-0.016-0.3V35.76h-1.06V37.42z
			 M7.199,40.269c-0.249-0.201-0.374-0.531-0.374-0.992c0-0.145,0.032-0.287,0.092-0.425c0.062-0.14,0.145-0.266,0.25-0.375
			c0.104-0.109,0.225-0.199,0.365-0.265s0.29-0.1,0.45-0.1c0.14,0,0.258,0.006,0.357,0.019c0.099,0.015,0.185,0.033,0.257,0.053
			c0.072,0.022,0.132,0.044,0.177,0.068c0.044,0.024,0.086,0.048,0.124,0.068v1.96c0,0.091-0.068,0.162-0.205,0.213
			c-0.136,0.051-0.305,0.074-0.502,0.074C7.778,40.568,7.449,40.469,7.199,40.269"/>
	</g>
</g>
</svg>
