<?xml version="1.0" encoding="utf-8"?>
<!-- Generator: Adobe Illustrator 16.0.0, SVG Export Plug-In . SVG Version: 6.00 Build 0)  -->
<!DOCTYPE svg PUBLIC "-//W3C//DTD SVG 1.1//EN" "http://www.w3.org/Graphics/SVG/1.1/DTD/svg11.dtd">
<svg version="1.1" id="Calque_1" xmlns="http://www.w3.org/2000/svg" xmlns:xlink="http://www.w3.org/1999/xlink" x="0px" y="0px"
	 width="48px" height="48px" viewBox="0 0 48 48" enable-background="new 0 0 48 48" xml:space="preserve">
<g>
	<path fill="#00517D" d="M36.764,48H11.236C5.041,48,0,42.959,0,36.764V11.236C0,5.041,5.041,0,11.236,0h25.527
		C42.959,0,48,5.041,48,11.236v25.527C48,42.959,42.959,48,36.764,48z M11.236,2C6.144,2,2,6.144,2,11.236v25.527
		C2,41.856,6.144,46,11.236,46h25.527C41.856,46,46,41.856,46,36.764V11.236C46,6.144,41.856,2,36.764,2H11.236z"/>
	<g>
		<path fill="#005480" d="M34.615,34.984l6.493-6.523c0.265-0.266,0.075-0.721-0.301-0.721h-0.516c-0.355,0-0.555-0.407-0.333-0.685
			l3.443-4.341c0.218-0.277,0.022-0.685-0.332-0.685h-1.731c-0.35,0-0.548-0.398-0.341-0.677l4.401-5.851
			c0.21-0.278,0.012-0.676-0.338-0.676h-6.957c-0.162,0-0.309,0.093-0.379,0.234l-3.401,6.88c-0.14,0.282,0.067,0.612,0.379,0.612
			h1.568c0.313,0,0.518,0.33,0.377,0.611l-2.324,4.706c-0.14,0.279,0.067,0.609,0.379,0.609h1.478c0.312,0,0.515,0.326,0.379,0.606
			l-2.626,5.419C33.725,34.93,34.279,35.321,34.615,34.984"/>
	</g>
	<g>
		<path fill="#005480" d="M4.709,16.496c0.177,0,0.332,0.021,0.463,0.06c0.131,0.04,0.24,0.084,0.329,0.13
			c0.086,0.048,0.152,0.093,0.195,0.134c0.045,0.038,0.067,0.062,0.07,0.064L5.45,17.32c-0.009-0.005-0.028-0.022-0.063-0.054
			c-0.034-0.029-0.08-0.062-0.139-0.096c-0.06-0.032-0.133-0.063-0.217-0.089c-0.084-0.026-0.182-0.039-0.291-0.039
			c-0.128,0-0.244,0.022-0.352,0.067c-0.107,0.044-0.201,0.107-0.279,0.188c-0.08,0.079-0.144,0.173-0.188,0.284
			c-0.045,0.11-0.067,0.232-0.067,0.364c0,0.14,0.022,0.265,0.067,0.382c0.044,0.117,0.108,0.216,0.188,0.301
			c0.079,0.083,0.172,0.146,0.279,0.195c0.108,0.046,0.224,0.068,0.352,0.068c0.122,0,0.229-0.013,0.32-0.041
			c0.093-0.028,0.168-0.06,0.231-0.098c0.062-0.038,0.112-0.071,0.147-0.106c0.036-0.033,0.059-0.056,0.069-0.069l0.319,0.441
			c-0.011,0.009-0.041,0.034-0.092,0.08c-0.05,0.044-0.122,0.092-0.214,0.141c-0.091,0.05-0.205,0.095-0.338,0.134
			c-0.137,0.039-0.295,0.059-0.479,0.059c-0.196,0-0.382-0.032-0.559-0.101s-0.33-0.165-0.461-0.293
			c-0.131-0.127-0.236-0.282-0.312-0.465c-0.078-0.184-0.117-0.391-0.117-0.621c0-0.21,0.038-0.404,0.113-0.581
			c0.074-0.177,0.175-0.332,0.303-0.462c0.128-0.129,0.282-0.232,0.459-0.305C4.309,16.533,4.503,16.496,4.709,16.496"/>
		<path fill="#005480" d="M6.591,17.965c0,0.141,0.024,0.267,0.074,0.379c0.048,0.114,0.114,0.211,0.196,0.293
			c0.082,0.082,0.177,0.145,0.284,0.19c0.108,0.043,0.22,0.064,0.341,0.064c0.119,0,0.232-0.021,0.34-0.067
			c0.107-0.045,0.202-0.109,0.283-0.19c0.081-0.083,0.145-0.181,0.192-0.295C8.35,18.226,8.373,18.1,8.373,17.96
			c0-0.138-0.022-0.264-0.068-0.379c-0.048-0.113-0.111-0.209-0.192-0.289s-0.176-0.142-0.283-0.187
			c-0.107-0.042-0.222-0.064-0.344-0.064c-0.125,0-0.243,0.022-0.35,0.064c-0.109,0.045-0.204,0.107-0.285,0.187
			c-0.081,0.08-0.145,0.176-0.191,0.289C6.614,17.697,6.591,17.824,6.591,17.965 M7.482,16.496c0.207,0,0.402,0.038,0.583,0.114
			c0.182,0.075,0.338,0.179,0.475,0.31c0.132,0.13,0.239,0.287,0.314,0.466c0.079,0.179,0.116,0.372,0.116,0.579
			c0,0.206-0.038,0.399-0.118,0.577c-0.078,0.177-0.184,0.333-0.317,0.465C8.4,19.14,8.243,19.244,8.061,19.319
			c-0.181,0.078-0.375,0.114-0.583,0.114c-0.202,0-0.39-0.036-0.569-0.107c-0.179-0.072-0.337-0.172-0.473-0.302
			c-0.135-0.127-0.242-0.282-0.322-0.462c-0.079-0.181-0.12-0.38-0.12-0.597c0-0.207,0.039-0.399,0.117-0.577
			c0.076-0.178,0.182-0.333,0.315-0.466c0.134-0.131,0.292-0.236,0.473-0.311C7.079,16.534,7.273,16.496,7.482,16.496"/>
	</g>
	<polygon fill="#005480" points="11.497,16.556 11.497,19.445 9.822,17.75 9.849,19.378 9.281,19.378 9.281,16.481 10.955,18.172 
		10.928,16.556 	"/>
	<g>
		<path fill="#005480" d="M12.889,16.496c0.123,0,0.239,0.015,0.348,0.042c0.109,0.028,0.205,0.061,0.289,0.097
			c0.086,0.038,0.157,0.075,0.212,0.11c0.056,0.037,0.093,0.061,0.111,0.075l-0.263,0.457c-0.1-0.077-0.208-0.142-0.327-0.193
			c-0.115-0.052-0.255-0.077-0.421-0.077c-0.127,0-0.23,0.024-0.307,0.074c-0.08,0.052-0.118,0.125-0.118,0.22
			c0,0.077,0.033,0.135,0.099,0.177c0.066,0.04,0.15,0.076,0.253,0.106c0.102,0.032,0.215,0.063,0.34,0.099
			c0.124,0.034,0.245,0.082,0.362,0.146c0.141,0.077,0.248,0.171,0.324,0.281c0.077,0.109,0.114,0.25,0.114,0.423
			c0,0.136-0.024,0.259-0.075,0.37c-0.051,0.112-0.123,0.208-0.218,0.285c-0.094,0.079-0.208,0.14-0.344,0.182
			c-0.136,0.041-0.289,0.063-0.461,0.063c-0.125,0-0.241-0.015-0.353-0.041c-0.11-0.028-0.211-0.062-0.299-0.1
			c-0.089-0.039-0.166-0.078-0.234-0.121c-0.068-0.039-0.12-0.075-0.157-0.104l0.282-0.479c0.009,0.008,0.035,0.03,0.078,0.064
			c0.045,0.035,0.102,0.069,0.169,0.107c0.066,0.038,0.146,0.071,0.238,0.1c0.09,0.03,0.188,0.043,0.292,0.043
			c0.323,0,0.485-0.104,0.485-0.314c0-0.09-0.033-0.158-0.097-0.206c-0.066-0.05-0.147-0.09-0.248-0.123
			c-0.099-0.035-0.209-0.069-0.333-0.103c-0.123-0.033-0.239-0.078-0.354-0.137c-0.09-0.045-0.165-0.093-0.222-0.143
			c-0.059-0.049-0.106-0.099-0.141-0.154c-0.035-0.054-0.057-0.111-0.071-0.173c-0.013-0.06-0.021-0.125-0.021-0.193
			c0-0.147,0.028-0.273,0.086-0.381c0.057-0.107,0.134-0.197,0.233-0.269c0.098-0.072,0.211-0.123,0.339-0.158
			C12.61,16.513,12.746,16.496,12.889,16.496"/>
		<path fill="#005480" d="M14.641,17.965c0,0.141,0.024,0.267,0.073,0.379c0.049,0.114,0.114,0.211,0.196,0.293
			c0.083,0.082,0.177,0.145,0.284,0.19c0.108,0.043,0.221,0.064,0.342,0.064c0.118,0,0.231-0.021,0.339-0.067
			c0.108-0.045,0.202-0.109,0.284-0.19c0.08-0.083,0.144-0.181,0.192-0.295c0.048-0.113,0.071-0.239,0.071-0.378
			c0-0.138-0.023-0.264-0.068-0.379c-0.047-0.113-0.111-0.209-0.192-0.289c-0.08-0.08-0.175-0.142-0.282-0.187
			c-0.107-0.042-0.222-0.064-0.343-0.064c-0.125,0-0.243,0.022-0.352,0.064c-0.109,0.045-0.204,0.107-0.284,0.187
			c-0.081,0.08-0.144,0.176-0.192,0.289C14.664,17.697,14.641,17.824,14.641,17.965 M15.532,16.496c0.205,0,0.401,0.038,0.582,0.114
			c0.183,0.075,0.339,0.179,0.475,0.31c0.132,0.13,0.239,0.287,0.315,0.466c0.077,0.179,0.115,0.372,0.115,0.579
			c0,0.206-0.039,0.399-0.117,0.577c-0.079,0.177-0.185,0.333-0.318,0.465c-0.134,0.133-0.291,0.236-0.474,0.312
			c-0.181,0.078-0.375,0.114-0.583,0.114c-0.202,0-0.391-0.036-0.57-0.107c-0.179-0.072-0.336-0.172-0.473-0.302
			c-0.134-0.127-0.242-0.282-0.321-0.462c-0.08-0.181-0.119-0.38-0.119-0.597c0-0.207,0.038-0.399,0.116-0.577
			c0.076-0.178,0.182-0.333,0.315-0.466c0.135-0.131,0.292-0.236,0.472-0.311C15.127,16.534,15.322,16.496,15.532,16.496"/>
	</g>
	<polygon fill="#005480" points="19.5,16.44 20.291,19.377 19.678,19.377 19.346,17.95 18.711,19.397 18.09,17.95 17.764,19.377 
		17.146,19.377 17.935,16.44 18.736,18.22 	"/>
	<polygon fill="#005480" points="22.682,16.44 23.474,19.377 22.861,19.377 22.53,17.95 21.894,19.397 21.274,17.95 20.948,19.377 
		20.33,19.377 21.118,16.44 21.918,18.22 	"/>
	<path fill="#005480" d="M24.843,17.578l-0.298,0.756h0.588L24.843,17.578z M24.843,16.406l1.325,2.971h-0.614L25.309,18.8h-0.927
		l-0.251,0.577h-0.618L24.843,16.406z"/>
	<polygon fill="#005480" points="28.336,16.556 28.264,17.064 27.568,17.064 27.568,19.378 27,19.378 27,17.064 26.214,17.064 
		26.286,16.556 	"/>
	<rect x="28.536" y="16.556" fill="#005480" width="0.569" height="2.821"/>
	<g>
		<path fill="#005480" d="M30.004,17.965c0,0.141,0.025,0.267,0.073,0.379c0.049,0.114,0.115,0.211,0.198,0.293
			c0.082,0.082,0.176,0.145,0.283,0.19c0.108,0.043,0.221,0.064,0.342,0.064c0.118,0,0.231-0.021,0.337-0.067
			c0.109-0.045,0.204-0.109,0.286-0.19c0.078-0.083,0.143-0.181,0.19-0.295c0.05-0.113,0.073-0.239,0.073-0.378
			c0-0.138-0.022-0.264-0.07-0.379c-0.046-0.113-0.109-0.209-0.191-0.289c-0.081-0.08-0.175-0.142-0.282-0.187
			c-0.107-0.042-0.222-0.064-0.344-0.064c-0.125,0-0.242,0.022-0.352,0.064c-0.108,0.045-0.203,0.107-0.283,0.187
			c-0.082,0.08-0.144,0.176-0.192,0.289C30.026,17.697,30.004,17.824,30.004,17.965 M30.895,16.496c0.209,0,0.402,0.038,0.583,0.114
			c0.182,0.075,0.339,0.179,0.474,0.31c0.134,0.13,0.24,0.287,0.315,0.466c0.077,0.179,0.115,0.372,0.115,0.579
			c0,0.206-0.038,0.399-0.116,0.577c-0.08,0.177-0.186,0.333-0.317,0.465c-0.136,0.133-0.294,0.236-0.476,0.312
			c-0.182,0.078-0.376,0.114-0.582,0.114c-0.202,0-0.392-0.036-0.571-0.107c-0.179-0.072-0.336-0.172-0.473-0.302
			c-0.134-0.127-0.243-0.282-0.322-0.462c-0.079-0.181-0.119-0.38-0.119-0.597c0-0.207,0.037-0.399,0.116-0.577
			c0.075-0.178,0.182-0.333,0.315-0.466c0.135-0.131,0.292-0.236,0.473-0.311C30.489,16.534,30.687,16.496,30.895,16.496"/>
	</g>
	<polygon fill="#005480" points="34.909,16.556 34.909,19.445 33.235,17.75 33.263,19.378 32.693,19.378 32.693,16.481 
		34.368,18.172 34.34,16.556 	"/>
	<polygon fill="#005480" points="3.563,22.514 3.256,24.583 8.701,24.583 4.857,34.278 7.344,34.278 11.676,22.514 	"/>
	<g>
		<path fill="#005480" d="M14.438,28.201c0,0.689,0.054,1.28,0.162,1.77c0.108,0.49,0.261,0.889,0.46,1.197
			c0.199,0.306,0.436,0.53,0.71,0.671c0.275,0.14,0.584,0.209,0.93,0.209c0.312,0,0.603-0.072,0.873-0.217
			c0.269-0.146,0.501-0.375,0.694-0.688c0.196-0.313,0.348-0.71,0.462-1.196c0.113-0.487,0.17-1.066,0.17-1.746
			c0-0.657-0.057-1.219-0.17-1.688c-0.114-0.47-0.27-0.853-0.469-1.155c-0.202-0.301-0.434-0.525-0.704-0.671
			c-0.269-0.145-0.56-0.219-0.873-0.219c-0.322,0-0.62,0.074-0.889,0.219c-0.269,0.146-0.505,0.371-0.711,0.671
			c-0.206,0.302-0.363,0.689-0.477,1.162C14.495,26.996,14.438,27.555,14.438,28.201 M16.701,22.286
			c0.625,0,1.215,0.124,1.769,0.372c0.556,0.249,1.043,0.618,1.462,1.108c0.421,0.489,0.755,1.107,1.003,1.85
			c0.248,0.743,0.371,1.61,0.371,2.603c0,1.023-0.12,1.909-0.364,2.657c-0.24,0.749-0.572,1.371-0.991,1.866
			c-0.421,0.497-0.912,0.865-1.472,1.108c-0.56,0.242-1.153,0.363-1.777,0.363c-0.667,0-1.285-0.116-1.851-0.348
			c-0.565-0.23-1.055-0.591-1.469-1.074c-0.415-0.485-0.742-1.104-0.979-1.858c-0.236-0.755-0.354-1.66-0.354-2.714
			c0-0.98,0.118-1.843,0.354-2.587c0.237-0.743,0.566-1.362,0.986-1.859c0.419-0.496,0.913-0.866,1.479-1.115
			C15.431,22.41,16.043,22.286,16.701,22.286"/>
	</g>
	<polygon fill="#005480" points="33.128,25.8 30.052,33.722 27.886,28.652 25.632,33.722 22.636,25.8 24.236,25.361 25.835,29.925 
		27.934,25.18 29.95,29.925 31.596,25.361 	"/>
</g>
</svg>
