<?xml version="1.0" encoding="utf-8"?>
<!-- Generator: Adobe Illustrator 16.0.0, SVG Export Plug-In . SVG Version: 6.00 Build 0)  -->
<!DOCTYPE svg PUBLIC "-//W3C//DTD SVG 1.1//EN" "http://www.w3.org/Graphics/SVG/1.1/DTD/svg11.dtd">
<svg version="1.1" id="Calque_1" xmlns="http://www.w3.org/2000/svg" xmlns:xlink="http://www.w3.org/1999/xlink" x="0px" y="0px"
	 width="48px" height="48px" viewBox="0 0 48 48" enable-background="new 0 0 48 48" xml:space="preserve">
<g>
	<path fill="#00517D" d="M48,36.763C48,42.969,42.969,48,36.763,48H11.237C5.031,48,0,42.969,0,36.763V11.237
		C0,5.031,5.031,0,11.237,0h25.526C42.969,0,48,5.031,48,11.237V36.763z M46,11.237C46,6.135,41.865,2,36.763,2H11.237
		C6.135,2,2,6.135,2,11.237v25.526C2,41.865,6.135,46,11.237,46h25.526C41.865,46,46,41.865,46,36.763V11.237z"/>
	<path fill="#005480" d="M36.333,29.667h-1.101v-0.149c0-0.114,0.007-0.227,0.007-0.227h-0.015c0,0-0.52,0.467-1.415,0.467
		c-1.378,0-2.644-1.032-2.644-2.793c0-1.564,1.183-2.771,2.825-2.771c1.379,0,2.071,0.713,2.071,0.713l-0.633,0.987
		c0,0-0.549-0.494-1.31-0.494c-1.13,0-1.589,0.721-1.589,1.519c0,1.025,0.708,1.634,1.544,1.634c0.631,0,1.091-0.39,1.091-0.39
		v-0.416h-0.76v-1.121h1.928V29.667z M29.402,29.667l-1.138-2.184h-0.542v2.184h-1.317v-5.382h1.317v2.076h0.542l1.114-2.076h1.418
		l-1.455,2.575v0.014l1.537,2.793H29.402z M29.172,17.105c0-1.085,0.883-1.968,1.969-1.968c1.087,0,1.969,0.883,1.969,1.968
		c0,0.94-0.664,1.725-1.546,1.92h-0.845C29.836,18.831,29.172,18.045,29.172,17.105 M43.747,32.221l-3.975-12.283
		c-0.174-0.544-0.68-0.912-1.252-0.912h-4.194c0.34-0.562,0.542-1.216,0.542-1.92c0-2.054-1.673-3.724-3.726-3.724
		c-2.052,0-3.722,1.67-3.722,3.724c0,0.704,0.199,1.359,0.539,1.92h-4.194c-0.572,0-1.077,0.368-1.252,0.912l-3.975,12.283
		c-0.275,0.85,0.359,1.722,1.253,1.722h22.703C43.387,33.942,44.021,33.071,43.747,32.221"/>
	<path fill="#005480" d="M5.654,19.889c-0.084,0-0.144,0.001-0.178,0.005s-0.058,0.008-0.07,0.015v1.3
		c0.013,0.007,0.034,0.012,0.063,0.016c0.029,0.002,0.086,0.004,0.175,0.004c0.1,0,0.203-0.011,0.308-0.034
		c0.104-0.025,0.198-0.063,0.284-0.113c0.085-0.051,0.156-0.12,0.211-0.202c0.055-0.085,0.084-0.188,0.084-0.311
		c0-0.132-0.028-0.24-0.082-0.329c-0.053-0.088-0.121-0.159-0.206-0.211c-0.084-0.051-0.178-0.087-0.282-0.109
		C5.857,19.9,5.754,19.889,5.654,19.889 M4.688,19.351c0.04-0.009,0.132-0.028,0.273-0.054c0.142-0.026,0.32-0.04,0.53-0.04
		c0.234,0,0.457,0.023,0.67,0.07c0.212,0.047,0.4,0.122,0.561,0.228c0.16,0.105,0.287,0.243,0.383,0.41
		c0.095,0.167,0.143,0.369,0.143,0.608c0,0.24-0.048,0.443-0.146,0.607c-0.097,0.165-0.22,0.296-0.373,0.395
		c-0.153,0.099-0.323,0.17-0.515,0.213c-0.191,0.044-0.38,0.065-0.567,0.065c-0.08,0-0.161-0.005-0.241-0.014v1.054H4.688V19.351z"
		/>
	<path fill="#005480" d="M8.099,21.109c0,0.177,0.031,0.336,0.093,0.479c0.061,0.144,0.146,0.267,0.249,0.37
		C8.545,22.06,8.665,22.14,8.8,22.196s0.278,0.083,0.429,0.083s0.294-0.027,0.43-0.084c0.136-0.057,0.253-0.138,0.356-0.243
		c0.102-0.103,0.184-0.227,0.244-0.371c0.06-0.144,0.09-0.303,0.09-0.476c0-0.174-0.03-0.333-0.088-0.477
		c-0.06-0.145-0.14-0.266-0.242-0.367c-0.104-0.101-0.221-0.179-0.356-0.234c-0.134-0.055-0.28-0.082-0.434-0.082
		c-0.157,0-0.305,0.027-0.442,0.082c-0.137,0.056-0.257,0.134-0.358,0.234c-0.102,0.101-0.183,0.222-0.242,0.367
		C8.129,20.771,8.099,20.932,8.099,21.109 M9.224,19.257c0.261,0,0.506,0.048,0.736,0.143c0.228,0.095,0.428,0.226,0.598,0.391
		c0.168,0.166,0.301,0.362,0.398,0.588c0.097,0.225,0.145,0.469,0.145,0.73c0,0.26-0.049,0.504-0.148,0.729
		c-0.098,0.223-0.233,0.42-0.401,0.586c-0.169,0.167-0.369,0.299-0.598,0.396c-0.23,0.095-0.475,0.141-0.735,0.141
		c-0.255,0-0.495-0.044-0.721-0.135c-0.226-0.09-0.424-0.216-0.595-0.378c-0.17-0.162-0.306-0.356-0.406-0.587
		c-0.101-0.226-0.151-0.478-0.151-0.751c0-0.261,0.049-0.505,0.146-0.728c0.098-0.225,0.231-0.421,0.399-0.588
		c0.169-0.167,0.368-0.299,0.595-0.394C8.712,19.305,8.959,19.257,9.224,19.257"/>
	<rect x="11.631" y="19.332" fill="#005480" width="0.719" height="3.56"/>
	<path fill="#005480" d="M14.937,21.109c0-0.25-0.04-0.455-0.12-0.61c-0.081-0.155-0.183-0.277-0.309-0.364
		c-0.126-0.085-0.263-0.145-0.414-0.175s-0.297-0.045-0.438-0.045c-0.036,0-0.073,0.001-0.108,0.004
		c-0.035,0.004-0.071,0.007-0.108,0.016v2.333c0.071,0.01,0.141,0.015,0.212,0.015c0.14,0,0.286-0.015,0.439-0.047
		c0.152-0.032,0.291-0.09,0.417-0.179c0.125-0.085,0.228-0.206,0.309-0.359C14.897,21.545,14.937,21.349,14.937,21.109
		 M13.467,22.96c-0.107,0-0.206-0.004-0.297-0.014c-0.09-0.01-0.169-0.021-0.236-0.035c-0.08-0.014-0.15-0.031-0.211-0.056v-3.483
		c0.085-0.025,0.165-0.043,0.242-0.058c0.077-0.017,0.168-0.03,0.279-0.041c0.109-0.011,0.232-0.017,0.369-0.017
		c0.144,0,0.296,0.01,0.457,0.029c0.16,0.021,0.317,0.057,0.472,0.108c0.153,0.051,0.3,0.124,0.438,0.213
		c0.139,0.092,0.263,0.205,0.37,0.342c0.107,0.137,0.191,0.302,0.253,0.492c0.063,0.191,0.093,0.414,0.093,0.668
		c0,0.274-0.033,0.51-0.099,0.708c-0.064,0.198-0.153,0.366-0.266,0.501c-0.111,0.139-0.242,0.249-0.391,0.332
		c-0.15,0.084-0.306,0.149-0.472,0.196c-0.165,0.047-0.335,0.079-0.507,0.094C13.787,22.954,13.624,22.96,13.467,22.96"/>
	<path fill="#005480" d="M17.302,19.257c0.153,0,0.299,0.017,0.438,0.053c0.137,0.035,0.259,0.076,0.367,0.123
		c0.106,0.047,0.195,0.092,0.266,0.139c0.07,0.043,0.117,0.075,0.141,0.092l-0.332,0.577c-0.128-0.096-0.265-0.178-0.412-0.243
		c-0.148-0.065-0.325-0.098-0.532-0.098c-0.161,0-0.29,0.032-0.39,0.096c-0.099,0.063-0.148,0.156-0.148,0.275
		c0,0.097,0.042,0.171,0.126,0.224c0.084,0.052,0.189,0.098,0.319,0.136c0.129,0.038,0.273,0.078,0.43,0.123
		c0.157,0.043,0.308,0.106,0.457,0.187c0.177,0.097,0.314,0.214,0.41,0.354c0.095,0.137,0.143,0.316,0.143,0.533
		c0,0.17-0.032,0.326-0.095,0.467c-0.064,0.14-0.156,0.262-0.274,0.36c-0.119,0.098-0.264,0.174-0.435,0.228
		c-0.17,0.055-0.365,0.08-0.582,0.08c-0.157,0-0.305-0.017-0.445-0.052c-0.138-0.035-0.265-0.076-0.377-0.125
		c-0.111-0.049-0.21-0.098-0.296-0.151c-0.085-0.051-0.15-0.096-0.198-0.132l0.356-0.604c0.01,0.01,0.042,0.038,0.097,0.082
		c0.056,0.042,0.125,0.087,0.211,0.135c0.086,0.048,0.186,0.089,0.301,0.126c0.116,0.037,0.239,0.055,0.369,0.055
		c0.409,0,0.613-0.132,0.613-0.397c0-0.112-0.041-0.201-0.123-0.26c-0.082-0.061-0.186-0.113-0.312-0.156
		c-0.125-0.043-0.264-0.085-0.419-0.127s-0.303-0.1-0.447-0.173c-0.113-0.057-0.208-0.116-0.281-0.179
		c-0.073-0.061-0.132-0.127-0.176-0.195c-0.042-0.069-0.073-0.142-0.09-0.217c-0.016-0.079-0.025-0.161-0.025-0.248
		c0-0.183,0.036-0.343,0.108-0.479c0.072-0.135,0.17-0.249,0.293-0.338c0.125-0.091,0.267-0.157,0.43-0.201
		C16.949,19.277,17.121,19.257,17.302,19.257"/>
	<path fill="#005480" d="M12.854,25.872c-0.385,0.169-0.719,0.422-1.004,0.756c-0.283,0.335-0.507,0.755-0.667,1.261
		c-0.161,0.504-0.241,1.088-0.241,1.753c0,0.714,0.08,1.328,0.241,1.84c0.16,0.51,0.381,0.929,0.663,1.26
		c0.281,0.328,0.614,0.571,0.996,0.728c0.384,0.158,0.802,0.235,1.255,0.235c0.423,0,0.826-0.081,1.206-0.246
		c0.379-0.165,0.712-0.415,0.997-0.751c0.285-0.334,0.51-0.756,0.674-1.266c0.163-0.507,0.247-1.106,0.247-1.8
		c0-0.672-0.084-1.262-0.253-1.765c-0.167-0.505-0.394-0.922-0.679-1.254c-0.285-0.333-0.615-0.583-0.991-0.752
		c-0.376-0.167-0.777-0.25-1.201-0.25C13.651,25.622,13.237,25.706,12.854,25.872 M12.678,28.492
		c0.077-0.323,0.185-0.586,0.324-0.79c0.138-0.204,0.299-0.356,0.482-0.456c0.182-0.097,0.382-0.146,0.601-0.146
		c0.212,0,0.409,0.048,0.593,0.146c0.181,0.1,0.34,0.252,0.476,0.456c0.136,0.203,0.241,0.464,0.317,0.782
		c0.077,0.317,0.116,0.7,0.116,1.145c0,0.461-0.039,0.857-0.116,1.186c-0.076,0.327-0.18,0.597-0.313,0.808
		c-0.13,0.212-0.287,0.367-0.471,0.466c-0.182,0.099-0.38,0.148-0.592,0.148c-0.233,0-0.443-0.048-0.63-0.144
		c-0.186-0.093-0.347-0.245-0.481-0.454c-0.136-0.208-0.24-0.478-0.313-0.81c-0.073-0.333-0.109-0.733-0.109-1.201
		C12.564,29.192,12.602,28.813,12.678,28.492 M7.841,32.15c0.052-0.08,0.148-0.196,0.291-0.35c0.144-0.152,0.307-0.332,0.493-0.537
		c0.186-0.205,0.382-0.433,0.586-0.686c0.203-0.25,0.392-0.516,0.563-0.795c0.172-0.276,0.313-0.558,0.422-0.843
		c0.109-0.283,0.164-0.57,0.164-0.854c0-0.365-0.062-0.7-0.186-1.001c-0.123-0.305-0.304-0.563-0.541-0.779
		c-0.238-0.215-0.522-0.384-0.855-0.504c-0.333-0.121-0.707-0.18-1.123-0.18c-0.468,0-0.87,0.065-1.206,0.197
		c-0.337,0.131-0.615,0.291-0.839,0.482c-0.222,0.189-0.398,0.387-0.531,0.596c-0.13,0.209-0.226,0.394-0.285,0.555l1.293,0.7
		c0.044-0.094,0.1-0.204,0.17-0.328c0.068-0.125,0.16-0.243,0.273-0.356c0.113-0.113,0.26-0.208,0.439-0.284
		c0.18-0.077,0.399-0.116,0.662-0.116c0.176,0,0.329,0.036,0.461,0.104c0.13,0.072,0.245,0.159,0.339,0.264
		c0.095,0.105,0.166,0.223,0.213,0.351c0.048,0.127,0.072,0.247,0.072,0.357c0,0.247-0.072,0.502-0.214,0.765
		c-0.143,0.265-0.305,0.513-0.487,0.746c-0.103,0.124-0.249,0.305-0.438,0.542c-0.19,0.238-0.4,0.497-0.631,0.772
		c-0.229,0.278-0.465,0.564-0.706,0.854C6,32.114,5.778,32.384,5.574,32.632s-0.377,0.458-0.515,0.625
		c-0.139,0.167-0.22,0.267-0.241,0.295h5.587l0.121-1.402H7.841z"/>
</g>
</svg>
