<?xml version="1.0" encoding="utf-8"?>
<!-- Generator: Adobe Illustrator 16.0.0, SVG Export Plug-In . SVG Version: 6.00 Build 0)  -->
<!DOCTYPE svg PUBLIC "-//W3C//DTD SVG 1.1//EN" "http://www.w3.org/Graphics/SVG/1.1/DTD/svg11.dtd">
<svg version="1.1" id="Calque_1" xmlns="http://www.w3.org/2000/svg" xmlns:xlink="http://www.w3.org/1999/xlink" x="0px" y="0px"
	 width="48px" height="48px" viewBox="0 0 48 48" enable-background="new 0 0 48 48" xml:space="preserve">
<g>
	<path fill="#00517D" d="M36.983,48H10.999C4.831,48,0,43.225,0,37.128V11.333C0,5.084,4.934,0,10.999,0h25.985
		C43.058,0,48,5.084,48,11.333v25.795C48,43.225,43.161,48,36.983,48z M10.999,2C6.121,2,2,6.274,2,11.333v25.795
		C2,42.103,5.953,46,10.999,46h25.985C42.04,46,46,42.103,46,37.128V11.333C46,6.274,41.871,2,36.983,2H10.999z"/>
	<g>
		<path fill="#005480" d="M40.125,8.571v3.177h2.046l0.1-0.573h-1.499v-0.568h1.131l0.063-0.557h-1.194V9.142h1.344l-0.069-0.571
			H40.125z M35.757,8.575l0.031,1.817l-1.907-1.903v3.259h0.65l-0.032-1.83l1.904,1.907v-3.25H35.757z M30.527,11.748h0.704
			l0.284-0.649h1.055l0.281,0.649h0.697l-1.509-3.346L30.527,11.748z M32.37,10.575h-0.669l0.338-0.851L32.37,10.575z
			 M28.649,10.446l-0.91-2.001l-0.897,3.304h0.702l0.374-1.607l0.705,1.632l0.724-1.632l0.376,1.607h0.698l-0.902-3.304
			L28.649,10.446z M24.964,10.446l-0.91-2.001l-0.896,3.304h0.702l0.371-1.607l0.706,1.632l0.724-1.632l0.375,1.607h0.699
			l-0.902-3.304L24.964,10.446z M20.592,8.634c-0.206,0.085-0.385,0.203-0.538,0.352c-0.153,0.149-0.271,0.323-0.358,0.523
			c-0.088,0.201-0.132,0.418-0.132,0.649c0,0.246,0.045,0.47,0.136,0.673c0.091,0.203,0.213,0.377,0.367,0.522
			c0.154,0.144,0.333,0.258,0.537,0.337c0.204,0.082,0.421,0.121,0.649,0.121c0.236,0,0.456-0.041,0.664-0.127
			c0.207-0.085,0.386-0.202,0.538-0.352c0.153-0.147,0.273-0.325,0.363-0.523c0.087-0.201,0.133-0.417,0.133-0.651
			c0-0.231-0.044-0.449-0.132-0.65c-0.087-0.203-0.208-0.376-0.359-0.523c-0.153-0.148-0.333-0.265-0.54-0.35
			c-0.206-0.085-0.428-0.127-0.664-0.127C21.017,8.507,20.796,8.549,20.592,8.634 M20.322,9.729
			c0.052-0.128,0.125-0.236,0.217-0.327c0.092-0.089,0.2-0.159,0.324-0.209c0.124-0.049,0.255-0.074,0.398-0.074
			c0.139,0,0.269,0.025,0.392,0.074c0.122,0.05,0.229,0.12,0.32,0.209c0.092,0.09,0.165,0.199,0.218,0.327
			c0.052,0.129,0.079,0.27,0.079,0.425c0,0.156-0.027,0.297-0.082,0.425c-0.055,0.129-0.127,0.239-0.219,0.331
			c-0.092,0.094-0.199,0.167-0.321,0.215c-0.122,0.051-0.251,0.078-0.387,0.078c-0.135,0-0.265-0.026-0.387-0.074
			c-0.122-0.049-0.231-0.122-0.324-0.213c-0.094-0.093-0.167-0.203-0.223-0.331c-0.057-0.125-0.084-0.269-0.084-0.428
			C20.243,10,20.27,9.858,20.322,9.729 M17.381,8.63c-0.202,0.082-0.376,0.195-0.521,0.342c-0.147,0.146-0.262,0.319-0.347,0.521
			c-0.084,0.2-0.127,0.418-0.127,0.653c0,0.26,0.044,0.492,0.131,0.698c0.088,0.206,0.206,0.38,0.356,0.524
			c0.149,0.145,0.324,0.252,0.525,0.329c0.199,0.077,0.413,0.114,0.636,0.114c0.206,0,0.389-0.021,0.542-0.066
			c0.154-0.045,0.284-0.096,0.387-0.152c0.104-0.054,0.184-0.108,0.243-0.159c0.058-0.049,0.092-0.08,0.104-0.089l-0.361-0.496
			c-0.013,0.015-0.039,0.041-0.08,0.079c-0.042,0.036-0.097,0.076-0.168,0.118c-0.07,0.042-0.159,0.077-0.263,0.109
			c-0.104,0.031-0.226,0.048-0.363,0.048c-0.146,0-0.28-0.028-0.401-0.08c-0.122-0.051-0.228-0.124-0.319-0.22
			c-0.09-0.092-0.161-0.206-0.212-0.337c-0.051-0.13-0.077-0.274-0.077-0.429c0-0.15,0.026-0.285,0.077-0.41
			c0.051-0.124,0.122-0.23,0.212-0.32c0.092-0.089,0.198-0.161,0.319-0.21c0.122-0.051,0.256-0.076,0.401-0.076
			c0.123,0,0.233,0.015,0.331,0.045c0.095,0.03,0.178,0.064,0.246,0.102c0.067,0.036,0.121,0.073,0.159,0.107
			c0.037,0.034,0.062,0.054,0.07,0.06l0.362-0.492c-0.002-0.003-0.029-0.028-0.079-0.072c-0.049-0.045-0.125-0.095-0.223-0.149
			c-0.1-0.055-0.224-0.102-0.374-0.146c-0.15-0.046-0.326-0.068-0.528-0.068C17.803,8.507,17.584,8.548,17.381,8.63 M14.838,8.349
			l0.836-0.423l-0.167-0.279L14.733,8.17L14.838,8.349z M14.032,8.571v3.177h2.046l0.098-0.573h-1.498v-0.568h1.132l0.064-0.557
			h-1.196V9.142h1.344l-0.068-0.571H14.032z M11.851,8.575v3.173h1.833l0.071-0.573h-1.257V8.575H11.851z M10.185,8.349l0.836-0.423
			l-0.168-0.279L10.08,8.17L10.185,8.349z M9.378,8.571v3.177h2.047l0.098-0.573h-1.498v-0.568h1.131l0.064-0.557h-1.195V9.142
			h1.343l-0.067-0.571H9.378z M6.757,8.575L6.675,9.146h0.892v2.602h0.648V9.146h0.792l0.082-0.571H6.757z M37.603,11.84
			c-0.097,0-0.186-0.004-0.268-0.014c-0.082-0.009-0.152-0.02-0.212-0.033c-0.072-0.012-0.135-0.027-0.19-0.048v-3.14
			c0.075-0.021,0.147-0.038,0.218-0.052c0.069-0.013,0.153-0.026,0.25-0.036c0.098-0.011,0.209-0.016,0.333-0.016
			c0.13,0,0.267,0.009,0.412,0.027c0.144,0.017,0.286,0.051,0.425,0.098c0.139,0.047,0.271,0.11,0.396,0.191
			c0.125,0.082,0.236,0.184,0.333,0.308c0.096,0.124,0.172,0.271,0.228,0.443c0.056,0.172,0.084,0.374,0.084,0.602
			c0,0.248-0.029,0.46-0.088,0.638c-0.059,0.178-0.139,0.329-0.241,0.452c-0.1,0.125-0.218,0.223-0.353,0.299
			c-0.134,0.075-0.275,0.134-0.424,0.176c-0.149,0.042-0.302,0.07-0.457,0.083S37.744,11.84,37.603,11.84z M38.928,10.17
			c0-0.226-0.037-0.409-0.109-0.549c-0.073-0.14-0.166-0.25-0.279-0.328c-0.113-0.08-0.237-0.131-0.373-0.158
			c-0.135-0.028-0.267-0.042-0.394-0.042c-0.033,0-0.065,0.001-0.098,0.004c-0.031,0.003-0.063,0.008-0.097,0.014v2.104
			c0.064,0.01,0.127,0.014,0.19,0.014c0.126,0,0.258-0.014,0.396-0.043c0.137-0.028,0.262-0.082,0.375-0.161
			c0.113-0.078,0.206-0.186,0.279-0.323C38.891,10.565,38.928,10.388,38.928,10.17z"/>
	</g>
	<g>
		<path fill="#005480" d="M25.826,28.069c-0.298,0-0.539-0.228-0.539-0.509s0.241-0.507,0.539-0.507
			c0.299,0,0.542,0.227,0.542,0.507S26.125,28.069,25.826,28.069 M20.897,27.94c0,0.573,0.497,1.042,1.108,1.042h7.644
			c0.61,0,1.106-0.468,1.106-1.042V15.854c0-0.574-0.496-1.042-1.106-1.042h-7.644c-0.611,0-1.108,0.468-1.108,1.042v2.171
			c0.22-0.035,0.431-0.056,0.623-0.063c0.44-0.013,0.774-0.024,1.04-0.034v-1.552h6.536v9.845h-6.536v-4.919
			c-0.353,0.1-0.683,0.245-1.015,0.44c-0.133,0.08-0.401,0.267-0.647,0.444v2.004"/>
		<path fill="#005480" d="M20.485,28.182v-4.806c0-0.83-0.185-1.27-0.185-1.27s0.835-0.62,1.137-0.798
			c0.645-0.382,1.333-0.583,2.252-0.668c2.56-0.239,2.826-2.581,1.47-2.581c-1.058,0-1.384,0.13-3.514,0.19
			c-1.148,0.034-3.058,0.389-3.684,0.94c-1.004,0.887-0.652,5.614-1.021,7.223l-2.383,3.405l5.563,3.153
			c1.665-2.409,4.045-3.604,4.045-3.604s-1.793,0-2.213,0C20.836,29.368,20.485,28.723,20.485,28.182"/>
	</g>
	<path fill="#005480" d="M24.392,25.111h0.368v-1.733h-0.368V25.111z M25.128,25.111h0.37v-1.733h-0.37V25.111z"/>
	<polygon fill="#005480" points="27.777,24.245 26.42,25.054 26.42,23.434 	"/>
	<g>
		<path fill="#005480" d="M38.483,36.555v5.614h3.611l0.178-1.011h-2.646v-1.004h1.999l0.112-0.98h-2.11v-1.606h2.374l-0.121-1.012
			H38.483z M35.539,36.168l1.48-0.75l-0.296-0.491l-1.368,0.924L35.539,36.168z M34.117,36.555v5.614h3.612l0.176-1.011H35.26
			v-1.004h1.999l0.112-0.98H35.26v-1.606h2.375l-0.12-1.012H34.117z M29.306,42.169h1.144v-2.633l2.165,2.761l1.038-0.53l-1.446-1.7
			c0.053-0.02,0.138-0.065,0.253-0.133c0.114-0.07,0.229-0.167,0.347-0.291c0.119-0.123,0.22-0.278,0.31-0.463
			c0.092-0.184,0.138-0.405,0.138-0.663c0-0.379-0.075-0.701-0.225-0.965c-0.148-0.265-0.345-0.476-0.588-0.641
			c-0.241-0.164-0.516-0.281-0.822-0.356c-0.306-0.073-0.616-0.11-0.931-0.11c-0.373,0-0.675,0.019-0.906,0.055
			c-0.233,0.038-0.391,0.062-0.476,0.08V42.169z M31.184,37.511c0.154,0.034,0.297,0.089,0.423,0.171
			c0.129,0.082,0.234,0.191,0.316,0.329c0.083,0.136,0.124,0.307,0.124,0.513c0,0.185-0.038,0.341-0.115,0.467
			c-0.078,0.126-0.175,0.229-0.295,0.309c-0.121,0.077-0.251,0.136-0.396,0.173c-0.145,0.036-0.282,0.055-0.415,0.055h-0.189
			c-0.062,0-0.125-0.005-0.187-0.017v-2.008c0.046-0.01,0.095-0.02,0.142-0.027c0.048-0.009,0.096-0.012,0.143-0.012
			C30.88,37.465,31.029,37.48,31.184,37.511 M24.538,36.662c-0.381,0.146-0.708,0.347-0.979,0.605
			c-0.272,0.257-0.485,0.563-0.632,0.918c-0.149,0.352-0.225,0.736-0.225,1.145c0,0.423,0.069,0.815,0.208,1.175
			c0.139,0.361,0.341,0.675,0.607,0.938c0.268,0.264,0.592,0.47,0.979,0.616c0.387,0.148,0.828,0.222,1.324,0.222
			c0.393,0,0.735-0.052,1.026-0.158c0.291-0.105,0.538-0.244,0.743-0.416c0.204-0.171,0.372-0.363,0.5-0.578
			c0.127-0.213,0.229-0.43,0.303-0.648c0.076-0.217,0.126-0.427,0.152-0.625c0.027-0.198,0.041-0.368,0.041-0.509v-0.121h-3.733
			l-0.2,0.871h2.693c-0.005,0.058-0.027,0.152-0.063,0.28c-0.037,0.129-0.11,0.26-0.219,0.392c-0.11,0.132-0.264,0.249-0.464,0.352
			c-0.2,0.104-0.468,0.155-0.803,0.155c-0.299,0-0.566-0.049-0.8-0.147c-0.234-0.098-0.431-0.23-0.592-0.404
			c-0.16-0.171-0.281-0.373-0.368-0.604c-0.083-0.231-0.127-0.482-0.127-0.751c0-0.27,0.047-0.52,0.141-0.751
			c0.092-0.232,0.223-0.431,0.391-0.597c0.168-0.166,0.368-0.297,0.6-0.392c0.233-0.094,0.484-0.143,0.757-0.143
			c0.25,0,0.467,0.03,0.65,0.09c0.184,0.063,0.338,0.131,0.463,0.21c0.126,0.08,0.223,0.154,0.292,0.227
			c0.07,0.07,0.11,0.114,0.128,0.13l0.744-0.728c-0.018-0.016-0.076-0.075-0.176-0.177c-0.102-0.104-0.247-0.215-0.436-0.332
			c-0.19-0.119-0.423-0.226-0.7-0.32c-0.277-0.095-0.597-0.143-0.959-0.143C25.34,36.444,24.918,36.517,24.538,36.662
			 M19.969,36.168l1.478-0.75l-0.295-0.491l-1.367,0.924L19.969,36.168z M18.545,36.555v5.614h3.614l0.175-1.011h-2.646v-1.004
			h1.999l0.112-0.98h-2.11v-1.606h2.374l-0.118-1.012H18.545z M13.917,36.562l-0.144,1.014h1.575v4.594h1.143v-4.594h1.399
			l0.145-1.014H13.917z M12.056,36.562l0.055,3.213l-3.364-3.362v5.756h1.142l-0.056-3.233l3.366,3.369v-5.743H12.056z
			 M6.676,42.169h1.143v-5.607H6.676V42.169z"/>
	</g>
</g>
</svg>
