<?xml version="1.0" encoding="utf-8"?>
<!-- Generator: Adobe Illustrator 16.0.0, SVG Export Plug-In . SVG Version: 6.00 Build 0)  -->
<!DOCTYPE svg PUBLIC "-//W3C//DTD SVG 1.1//EN" "http://www.w3.org/Graphics/SVG/1.1/DTD/svg11.dtd">
<svg version="1.1" id="Calque_1" xmlns="http://www.w3.org/2000/svg" xmlns:xlink="http://www.w3.org/1999/xlink" x="0px" y="0px"
	 width="48px" height="48px" viewBox="0 0 48 48" enable-background="new 0 0 48 48" xml:space="preserve">
<g>
	<path fill="#00517D" d="M36.762,48H11.238C5.042,48,0,42.959,0,36.764V11.236C0,5.041,5.042,0,11.238,0h25.523
		C42.958,0,48,5.041,48,11.236v25.527C48,42.959,42.958,48,36.762,48z M11.238,2C6.144,2,2,6.144,2,11.236v25.527
		C2,41.856,6.144,46,11.238,46h25.523C41.856,46,46,41.856,46,36.764V11.236C46,6.144,41.856,2,36.762,2H11.238z"/>
	<g>
		<path fill="#005480" d="M28.718,21.214l-0.009-0.008c-0.277-0.273-0.277-0.711,0-0.983l0.768-0.754c0.278-0.27,0.725-0.27,1.002,0
			l0.012,0.012c0.275,0.27,0.275,0.709,0,0.981l-0.769,0.753C29.442,21.484,28.996,21.484,28.718,21.214 M32.895,25.139
			c0,0.383-0.318,0.694-0.707,0.694h-1.089c-0.393,0-0.708-0.311-0.708-0.694v-0.016c0-0.382,0.315-0.693,0.708-0.693h1.089
			c0.389,0,0.707,0.312,0.707,0.693V25.139z M28.709,29.146l0.009-0.012c0.277-0.27,0.724-0.27,1.004,0l0.769,0.756
			c0.275,0.27,0.275,0.708,0,0.98l-0.012,0.009c-0.277,0.272-0.724,0.272-1.002,0l-0.768-0.752
			C28.433,29.855,28.433,29.416,28.709,29.146 M25.382,32.5c0,0.382-0.316,0.692-0.708,0.692h-0.015
			c-0.391,0-0.708-0.311-0.708-0.692v-1.065c0-0.385,0.317-0.694,0.708-0.694h0.015c0.392,0,0.708,0.309,0.708,0.694V32.5z
			 M20.614,29.134l0.009,0.012c0.278,0.27,0.278,0.709,0,0.981l-0.767,0.752c-0.277,0.272-0.725,0.272-1.001,0l-0.01-0.009
			c-0.279-0.272-0.279-0.71,0-0.98l0.766-0.756C19.889,28.864,20.337,28.864,20.614,29.134 M18.942,25.139
			c0,0.383-0.317,0.694-0.708,0.694h-1.088c-0.391,0-0.708-0.311-0.708-0.694v-0.016c0-0.382,0.317-0.693,0.708-0.693h1.088
			c0.391,0,0.708,0.312,0.708,0.693V25.139z M20.623,21.206l-0.009,0.008c-0.277,0.27-0.725,0.27-1.003,0l-0.766-0.753
			c-0.279-0.271-0.279-0.711,0-0.981l0.01-0.012c0.276-0.27,0.725-0.27,1.001,0l0.767,0.754
			C20.901,20.494,20.901,20.932,20.623,21.206 M25.382,18.829c0,0.382-0.316,0.693-0.708,0.693h-0.015
			c-0.391,0-0.708-0.311-0.708-0.693v-1.065c0-0.383,0.317-0.694,0.708-0.694h0.015c0.392,0,0.708,0.311,0.708,0.694V18.829z
			 M24.667,27.628c-1.382,0-2.503-1.1-2.503-2.453c0-1.357,1.121-2.455,2.503-2.455c1.385,0,2.505,1.098,2.505,2.455
			C27.171,26.528,26.051,27.628,24.667,27.628 M24.667,21.319c-2.174,0-3.935,1.728-3.935,3.856c0,2.129,1.761,3.857,3.935,3.857
			c2.173,0,3.936-1.728,3.936-3.857C28.603,23.046,26.84,21.319,24.667,21.319"/>
		<path fill="#005480" d="M24.673,33.376h-0.015c-0.492,0-0.893-0.394-0.893-0.877v-1.065c0-0.484,0.4-0.879,0.893-0.879
			c0.507,0,0.908,0.395,0.908,0.879V32.5C25.566,32.983,25.166,33.376,24.673,33.376z M24.673,30.925
			c-0.303,0-0.538,0.229-0.538,0.51V32.5c0,0.28,0.235,0.508,0.523,0.508h0.015c0.289,0,0.524-0.228,0.524-0.508v-1.065
			C25.197,31.153,24.962,30.925,24.673,30.925z M29.978,31.268c-0.237,0-0.461-0.091-0.63-0.257l-0.767-0.752
			c-0.17-0.167-0.264-0.388-0.263-0.624c0-0.235,0.094-0.456,0.263-0.621c0.355-0.353,0.929-0.341,1.27-0.013l0.77,0.758
			c0.168,0.165,0.261,0.385,0.261,0.619c0,0.235-0.092,0.457-0.261,0.624C30.439,31.176,30.216,31.268,29.978,31.268z
			 M29.219,29.116c-0.141,0-0.273,0.053-0.373,0.15c-0.106,0.107-0.16,0.234-0.16,0.369c0,0.136,0.054,0.264,0.152,0.36l0.767,0.752
			c0.2,0.195,0.545,0.195,0.744,0c0.109-0.105,0.163-0.233,0.163-0.369c0-0.135-0.054-0.261-0.151-0.356l-0.769-0.757
			C29.494,29.169,29.36,29.116,29.219,29.116z M19.355,31.268c-0.237,0-0.461-0.091-0.629-0.257
			c-0.181-0.175-0.275-0.397-0.274-0.632c0-0.235,0.095-0.455,0.265-0.62l0.764-0.755c0.341-0.331,0.924-0.33,1.262-0.001
			l0.03,0.037c0.149,0.141,0.243,0.361,0.243,0.597c0,0.236-0.093,0.458-0.264,0.624l-0.766,0.752
			C19.817,31.176,19.593,31.268,19.355,31.268z M20.113,29.116c-0.141,0-0.274,0.053-0.374,0.15l-0.764,0.755
			c-0.1,0.097-0.154,0.223-0.154,0.357c0,0.135,0.054,0.263,0.153,0.36c0.22,0.214,0.555,0.204,0.753,0.009l0.767-0.752
			c0.1-0.097,0.154-0.225,0.154-0.36c0-0.135-0.055-0.261-0.153-0.357l-0.03-0.037C20.386,29.169,20.254,29.116,20.113,29.116z
			 M24.667,29.217c-2.271,0-4.12-1.813-4.12-4.042c0-2.228,1.848-4.041,4.12-4.041c2.272,0,4.121,1.813,4.121,4.041
			C28.787,27.404,26.938,29.217,24.667,29.217z M24.667,21.503c-2.068,0-3.75,1.647-3.75,3.672s1.683,3.672,3.75,3.672
			c2.069,0,3.751-1.647,3.751-3.672S26.735,21.503,24.667,21.503z M24.667,27.813c-1.482,0-2.688-1.183-2.688-2.637
			c0-1.456,1.206-2.64,2.688-2.64c1.483,0,2.689,1.184,2.689,2.64C27.356,26.629,26.149,27.813,24.667,27.813z M24.667,22.905
			c-1.279,0-2.319,1.019-2.319,2.271c0,1.25,1.04,2.268,2.319,2.268c1.279,0,2.32-1.018,2.32-2.268
			C26.987,23.923,25.946,22.905,24.667,22.905z M32.188,26.017h-1.089c-0.492,0-0.893-0.394-0.893-0.878
			c0-0.5,0.4-0.894,0.893-0.894h1.089c0.492,0,0.892,0.394,0.892,0.878C33.079,25.623,32.679,26.017,32.188,26.017z M31.099,24.614
			c-0.289,0-0.523,0.228-0.523,0.509c0,0.297,0.235,0.525,0.523,0.525h1.089c0.288,0,0.522-0.229,0.522-0.509
			c0-0.297-0.234-0.525-0.522-0.525H31.099z M18.234,26.017h-1.088c-0.492,0-0.892-0.394-0.892-0.878c0-0.5,0.4-0.894,0.892-0.894
			h1.088c0.492,0,0.893,0.394,0.893,0.878C19.127,25.623,18.727,26.017,18.234,26.017z M17.146,24.614
			c-0.289,0-0.523,0.228-0.523,0.509c0,0.297,0.234,0.525,0.523,0.525h1.088c0.289,0,0.523-0.229,0.523-0.509
			c0-0.297-0.235-0.525-0.523-0.525H17.146z M29.219,21.601c-0.237,0-0.461-0.091-0.63-0.255c-0.179-0.177-0.272-0.399-0.272-0.634
			c0-0.234,0.094-0.455,0.263-0.621l0.768-0.754c0.34-0.329,0.923-0.329,1.26,0c0.18,0.177,0.273,0.397,0.273,0.632
			c0,0.236-0.092,0.458-0.261,0.624l-0.77,0.753C29.68,21.511,29.457,21.601,29.219,21.601z M29.978,19.45
			c-0.14,0-0.272,0.053-0.373,0.15l-0.767,0.754c-0.098,0.096-0.152,0.223-0.152,0.358c0,0.136,0.054,0.264,0.153,0.362
			c0.215,0.209,0.554,0.202,0.755,0.007l0.768-0.752c0.097-0.096,0.151-0.224,0.15-0.36c0-0.135-0.054-0.262-0.151-0.357
			C30.251,19.503,30.119,19.45,29.978,19.45z M20.113,21.601c-0.238,0-0.462-0.091-0.631-0.255l-0.767-0.754
			c-0.17-0.166-0.265-0.388-0.264-0.624c0-0.235,0.095-0.456,0.265-0.621c0.357-0.351,0.934-0.339,1.269-0.011l0.767,0.755
			c0.169,0.165,0.263,0.386,0.264,0.621c0,0.235-0.093,0.458-0.264,0.625C20.575,21.51,20.351,21.601,20.113,21.601z M19.356,19.45
			c-0.141,0-0.272,0.053-0.372,0.15c-0.109,0.107-0.164,0.234-0.164,0.369c0,0.136,0.054,0.264,0.153,0.36l0.766,0.754
			c0.199,0.192,0.547,0.193,0.745,0c0.107-0.105,0.162-0.234,0.162-0.37c0-0.135-0.055-0.262-0.153-0.357L19.727,19.6
			C19.628,19.503,19.497,19.45,19.356,19.45z M24.673,19.707h-0.015c-0.492,0-0.893-0.394-0.893-0.877v-1.065
			c0-0.484,0.4-0.878,0.893-0.878c0.507,0,0.908,0.394,0.908,0.878v1.065C25.566,19.313,25.166,19.707,24.673,19.707z
			 M24.673,17.254c-0.303,0-0.538,0.229-0.538,0.509v1.065c0,0.28,0.235,0.508,0.523,0.508h0.015c0.289,0,0.524-0.228,0.524-0.508
			v-1.065C25.197,17.483,24.962,17.254,24.673,17.254z"/>
	</g>
	<g>
		<path fill="#005480" d="M24.222,37.067c0.285,0,0.537,0.031,0.755,0.095c0.219,0.062,0.402,0.132,0.55,0.213
			c0.15,0.079,0.262,0.154,0.341,0.226c0.079,0.072,0.124,0.113,0.134,0.124l-0.636,0.778c-0.029-0.027-0.069-0.063-0.122-0.106
			c-0.052-0.042-0.12-0.085-0.205-0.128c-0.086-0.042-0.184-0.079-0.3-0.111c-0.117-0.031-0.255-0.047-0.412-0.047
			c-0.186,0-0.358,0.034-0.516,0.101c-0.157,0.07-0.293,0.161-0.405,0.274c-0.114,0.114-0.202,0.246-0.266,0.399
			c-0.066,0.155-0.098,0.316-0.098,0.487c0,0.206,0.034,0.388,0.101,0.549c0.068,0.164,0.16,0.299,0.275,0.411
			c0.116,0.111,0.255,0.196,0.415,0.257c0.159,0.059,0.333,0.088,0.521,0.088c0.168,0,0.317-0.02,0.448-0.065
			c0.132-0.04,0.243-0.088,0.337-0.14c0.092-0.052,0.163-0.101,0.209-0.144c0.047-0.046,0.072-0.072,0.079-0.08l0.681,0.8
			c-0.018,0.019-0.067,0.063-0.148,0.138c-0.082,0.075-0.199,0.152-0.349,0.232c-0.153,0.08-0.34,0.154-0.564,0.221
			c-0.224,0.064-0.491,0.099-0.798,0.099c-0.345,0-0.661-0.057-0.951-0.167c-0.292-0.111-0.545-0.269-0.76-0.471
			c-0.216-0.202-0.384-0.447-0.506-0.736c-0.124-0.287-0.184-0.61-0.184-0.962c0-0.336,0.059-0.647,0.179-0.932
			c0.121-0.286,0.285-0.533,0.498-0.742c0.213-0.206,0.463-0.369,0.756-0.485C23.57,37.126,23.884,37.067,24.222,37.067"/>
		<path fill="#005480" d="M29.068,40.678c0.214,0,0.396-0.027,0.544-0.082c0.15-0.055,0.222-0.13,0.222-0.227v-2.086
			c-0.04-0.024-0.085-0.048-0.135-0.074c-0.048-0.025-0.114-0.048-0.193-0.073c-0.078-0.022-0.17-0.041-0.277-0.054
			c-0.11-0.015-0.236-0.022-0.39-0.022c-0.174,0-0.337,0.036-0.487,0.108c-0.154,0.071-0.286,0.165-0.4,0.28
			c-0.111,0.119-0.202,0.251-0.268,0.4c-0.068,0.147-0.103,0.3-0.103,0.452c0,0.491,0.135,0.843,0.407,1.057
			C28.259,40.57,28.619,40.678,29.068,40.678 M29.834,35.552h1.152v5.185c0,0.103,0.008,0.209,0.02,0.32
			c0.01,0.112,0.038,0.209,0.087,0.295c-0.069,0.034-0.167,0.073-0.294,0.116c-0.124,0.042-0.269,0.084-0.434,0.124
			c-0.161,0.039-0.338,0.074-0.531,0.103c-0.191,0.029-0.383,0.042-0.577,0.042c-0.337,0-0.675-0.036-1.012-0.107
			c-0.34-0.071-0.646-0.197-0.916-0.379c-0.274-0.183-0.498-0.435-0.668-0.754c-0.172-0.318-0.257-0.724-0.257-1.214
			c0-0.303,0.054-0.587,0.165-0.856c0.111-0.266,0.267-0.501,0.466-0.704c0.202-0.205,0.442-0.363,0.717-0.48
			c0.277-0.117,0.582-0.175,0.913-0.175c0.174,0,0.331,0.01,0.465,0.035c0.14,0.022,0.255,0.048,0.352,0.077
			c0.096,0.027,0.175,0.057,0.235,0.085c0.062,0.029,0.101,0.047,0.117,0.059V35.552z"/>
	</g>
	<polygon fill="#005480" points="34.845,35.263 31.432,42.387 32.007,42.387 35.431,35.263 	"/>
	<g>
		<path fill="#005480" d="M35.814,38.008c0-0.109-0.007-0.218-0.022-0.331c-0.015-0.111-0.054-0.205-0.117-0.285
			c0.163-0.064,0.403-0.133,0.717-0.209c0.314-0.079,0.719-0.116,1.212-0.116c0.222,0,0.418,0.02,0.586,0.055
			c0.168,0.038,0.313,0.078,0.43,0.124c0.113,0.047,0.205,0.09,0.274,0.129c0.066,0.041,0.109,0.064,0.127,0.077
			c0.021-0.018,0.071-0.046,0.151-0.09c0.077-0.043,0.174-0.085,0.293-0.128c0.116-0.043,0.251-0.081,0.41-0.115
			c0.157-0.034,0.328-0.051,0.514-0.051c0.361,0,0.664,0.048,0.909,0.146c0.246,0.095,0.441,0.223,0.589,0.385
			c0.148,0.158,0.252,0.344,0.314,0.556c0.062,0.21,0.092,0.429,0.092,0.659v2.804h-1.162v-2.78c0-0.108-0.012-0.209-0.033-0.308
			c-0.025-0.096-0.063-0.181-0.119-0.256c-0.057-0.073-0.133-0.131-0.232-0.174c-0.098-0.043-0.222-0.065-0.375-0.065
			c-0.255,0-0.442,0.025-0.563,0.074c-0.119,0.049-0.199,0.084-0.239,0.107c0.017,0.051,0.031,0.113,0.043,0.189
			c0.012,0.073,0.018,0.222,0.018,0.445v2.77h-1.152v-2.77c0-0.091-0.012-0.189-0.034-0.292c-0.022-0.102-0.068-0.196-0.132-0.277
			c-0.063-0.083-0.152-0.152-0.266-0.205c-0.113-0.055-0.261-0.083-0.442-0.083c-0.197,0-0.349,0.018-0.453,0.046
			c-0.104,0.034-0.165,0.054-0.182,0.065v3.515h-1.154V38.008z"/>
		<path fill="#005480" d="M42.835,37.513l0.55-0.495c0.724-0.649,1.099-1.052,1.099-1.488c0-0.325-0.209-0.59-0.664-0.59
			c-0.305,0-0.565,0.146-0.731,0.265l-0.184-0.392c0.236-0.19,0.627-0.361,1.064-0.361c0.82,0,1.16,0.515,1.16,0.966
			c0,0.651-0.497,1.123-1.16,1.687l-0.271,0.238v0.018h1.493v0.47h-2.355V37.513z"/>
		<path fill="#005480" d="M15.898,35.3c-0.307,0.155-0.576,0.388-0.805,0.696c-0.229,0.309-0.407,0.695-0.537,1.159
			c-0.128,0.463-0.193,1.001-0.193,1.613c0,0.658,0.065,1.224,0.193,1.692c0.13,0.47,0.306,0.857,0.533,1.159
			c0.226,0.303,0.493,0.526,0.8,0.67c0.309,0.145,0.645,0.217,1.007,0.217c0.34,0,0.664-0.077,0.968-0.227
			c0.305-0.151,0.571-0.38,0.801-0.689c0.229-0.31,0.409-0.698,0.541-1.164c0.133-0.467,0.198-1.021,0.198-1.658
			c0-0.617-0.067-1.159-0.202-1.623c-0.134-0.464-0.317-0.847-0.545-1.153c-0.229-0.306-0.494-0.538-0.796-0.692
			c-0.302-0.153-0.625-0.229-0.964-0.229C16.539,35.071,16.207,35.147,15.898,35.3 M15.757,37.709
			c0.063-0.294,0.148-0.537,0.261-0.725c0.109-0.188,0.239-0.329,0.386-0.418c0.146-0.093,0.309-0.137,0.484-0.137
			c0.171,0,0.329,0.044,0.477,0.137c0.146,0.089,0.272,0.229,0.381,0.418c0.108,0.188,0.194,0.429,0.254,0.719
			c0.062,0.293,0.093,0.646,0.093,1.054c0,0.423-0.031,0.786-0.093,1.088c-0.061,0.302-0.144,0.551-0.25,0.747
			c-0.105,0.195-0.231,0.337-0.378,0.427c-0.148,0.092-0.305,0.137-0.476,0.137c-0.188,0-0.356-0.044-0.505-0.131
			c-0.151-0.087-0.279-0.227-0.388-0.417c-0.108-0.193-0.191-0.441-0.25-0.747c-0.059-0.305-0.089-0.674-0.089-1.103
			C15.665,38.354,15.696,38.005,15.757,37.709 M10.149,35.221L9.858,39.09c0.054-0.047,0.12-0.102,0.202-0.166
			c0.083-0.063,0.184-0.123,0.304-0.177s0.265-0.1,0.435-0.14c0.171-0.041,0.373-0.061,0.608-0.061c0.194,0,0.373,0.036,0.537,0.106
			c0.166,0.069,0.308,0.163,0.426,0.282c0.122,0.117,0.216,0.255,0.287,0.413c0.07,0.158,0.106,0.324,0.106,0.499
			c0,0.201-0.035,0.386-0.102,0.554c-0.067,0.169-0.159,0.314-0.273,0.439c-0.115,0.124-0.249,0.221-0.401,0.287
			c-0.152,0.068-0.316,0.101-0.492,0.101c-0.223,0-0.416-0.028-0.576-0.081c-0.162-0.055-0.298-0.117-0.409-0.187
			c-0.113-0.07-0.201-0.142-0.27-0.211c-0.067-0.07-0.114-0.123-0.144-0.156l-0.81,0.966c0.042,0.055,0.114,0.133,0.22,0.238
			c0.105,0.104,0.247,0.208,0.422,0.312c0.176,0.105,0.394,0.196,0.65,0.276c0.259,0.082,0.564,0.122,0.916,0.122
			c0.388,0,0.74-0.069,1.056-0.207c0.317-0.137,0.584-0.324,0.805-0.559c0.221-0.235,0.391-0.509,0.511-0.826
			c0.12-0.317,0.181-0.652,0.181-1.008c0-0.403-0.066-0.756-0.199-1.058c-0.133-0.303-0.301-0.556-0.506-0.756
			c-0.206-0.202-0.431-0.354-0.676-0.455c-0.247-0.099-0.486-0.15-0.715-0.15c-0.158,0-0.288,0.004-0.387,0.015
			c-0.1,0.01-0.182,0.022-0.246,0.037c-0.065,0.013-0.114,0.027-0.15,0.043c-0.034,0.019-0.067,0.033-0.096,0.046l0.096-1.139h2.253
			l0.096-1.27H10.149z M6.956,41.076c0.042-0.074,0.117-0.182,0.232-0.322c0.115-0.142,0.248-0.305,0.397-0.495
			c0.15-0.188,0.305-0.398,0.469-0.629c0.164-0.232,0.316-0.475,0.454-0.73c0.136-0.255,0.251-0.515,0.338-0.778
			c0.089-0.26,0.133-0.521,0.133-0.786c0-0.334-0.05-0.642-0.151-0.922c-0.099-0.277-0.245-0.516-0.435-0.714
			c-0.19-0.197-0.419-0.354-0.686-0.464c-0.269-0.111-0.569-0.164-0.902-0.164c-0.375,0-0.699,0.061-0.968,0.18
			c-0.271,0.121-0.495,0.269-0.674,0.445c-0.179,0.174-0.319,0.357-0.427,0.548c-0.104,0.192-0.18,0.362-0.227,0.51l1.037,0.643
			c0.035-0.086,0.081-0.188,0.138-0.301c0.054-0.114,0.128-0.222,0.218-0.327c0.091-0.104,0.209-0.192,0.353-0.262
			c0.143-0.07,0.321-0.106,0.533-0.106c0.141,0,0.264,0.033,0.369,0.096c0.104,0.064,0.196,0.145,0.273,0.243
			c0.075,0.095,0.132,0.204,0.171,0.322c0.038,0.117,0.057,0.226,0.057,0.326c0,0.229-0.057,0.464-0.171,0.707
			c-0.114,0.243-0.246,0.469-0.392,0.686c-0.082,0.114-0.199,0.28-0.351,0.498c-0.152,0.218-0.321,0.457-0.506,0.71
			c-0.184,0.257-0.373,0.52-0.566,0.787c-0.194,0.27-0.373,0.519-0.539,0.746c-0.163,0.229-0.301,0.419-0.414,0.575
			c-0.111,0.155-0.176,0.246-0.192,0.271h4.486l0.097-1.289H6.956z"/>
	</g>
	<polygon fill="#005480" points="4.445,8.186 4.445,13.403 7.485,13.403 7.606,12.462 5.518,12.462 5.518,8.186 	"/>
	<g>
		<path fill="#005480" d="M12.217,8.186v3.399c0,0.207-0.034,0.423-0.103,0.652c-0.065,0.229-0.18,0.435-0.344,0.621
			c-0.164,0.187-0.381,0.341-0.654,0.463c-0.272,0.123-0.617,0.185-1.033,0.185c-0.435,0-0.79-0.062-1.064-0.185
			c-0.277-0.123-0.492-0.277-0.65-0.466c-0.158-0.189-0.267-0.396-0.322-0.622c-0.059-0.226-0.088-0.441-0.088-0.647V8.186h1.074
			v3.378c0,0.323,0.093,0.571,0.281,0.743c0.187,0.172,0.45,0.257,0.789,0.257c0.311,0,0.559-0.083,0.752-0.254
			c0.192-0.168,0.288-0.418,0.288-0.746V8.186H12.217z"/>
	</g>
	<polygon fill="#005480" points="17.076,7.972 18.571,13.401 17.414,13.401 16.791,10.759 15.589,13.439 14.417,10.759 
		13.802,13.401 12.637,13.401 14.125,7.972 15.632,11.261 	"/>
	<rect x="18.992" y="8.186" fill="#005480" width="1.072" height="5.217"/>
	<g>
		<path fill="#005480" d="M25.951,10.832c0,0.26,0.049,0.494,0.14,0.701c0.093,0.208,0.217,0.389,0.372,0.542
			c0.154,0.152,0.334,0.268,0.535,0.35c0.206,0.082,0.418,0.122,0.645,0.122s0.439-0.042,0.643-0.127
			c0.203-0.083,0.379-0.201,0.531-0.352c0.153-0.153,0.274-0.335,0.365-0.544c0.09-0.212,0.135-0.444,0.135-0.698
			c0-0.257-0.043-0.489-0.131-0.701c-0.089-0.209-0.206-0.388-0.359-0.537c-0.152-0.147-0.332-0.262-0.533-0.342
			c-0.203-0.079-0.418-0.121-0.65-0.121c-0.235,0-0.456,0.042-0.66,0.121c-0.205,0.081-0.384,0.195-0.539,0.342
			c-0.151,0.148-0.271,0.327-0.36,0.537C25.997,10.335,25.951,10.571,25.951,10.832 M27.635,8.116c0.39,0,0.758,0.07,1.099,0.209
			c0.345,0.139,0.642,0.331,0.896,0.573c0.252,0.245,0.451,0.532,0.597,0.862c0.146,0.332,0.218,0.688,0.218,1.072
			c0,0.381-0.074,0.737-0.221,1.066c-0.148,0.328-0.35,0.615-0.604,0.86c-0.252,0.246-0.55,0.439-0.894,0.578
			c-0.341,0.141-0.707,0.21-1.097,0.21c-0.383,0-0.742-0.066-1.08-0.198c-0.337-0.134-0.635-0.318-0.89-0.555
			c-0.256-0.238-0.458-0.525-0.606-0.857c-0.15-0.334-0.227-0.703-0.227-1.104c0-0.383,0.072-0.738,0.218-1.069
			c0.146-0.328,0.344-0.614,0.598-0.86c0.251-0.246,0.548-0.438,0.89-0.578C26.871,8.186,27.238,8.116,27.635,8.116"/>
		<path fill="#005480" d="M32.861,8.116c0.229,0,0.448,0.025,0.655,0.077c0.203,0.052,0.386,0.112,0.546,0.18
			c0.161,0.069,0.294,0.135,0.399,0.202c0.104,0.066,0.174,0.112,0.209,0.135l-0.496,0.848c-0.189-0.142-0.395-0.262-0.614-0.357
			c-0.222-0.095-0.486-0.144-0.798-0.144c-0.24,0-0.433,0.047-0.58,0.14c-0.149,0.093-0.222,0.228-0.222,0.405
			c0,0.142,0.063,0.252,0.188,0.328s0.282,0.142,0.477,0.198c0.191,0.056,0.405,0.117,0.642,0.18
			c0.236,0.063,0.464,0.156,0.684,0.272c0.266,0.143,0.471,0.316,0.613,0.518c0.141,0.203,0.213,0.466,0.213,0.785
			c0,0.25-0.048,0.477-0.141,0.684c-0.098,0.205-0.234,0.381-0.412,0.525c-0.178,0.146-0.395,0.257-0.648,0.337
			c-0.255,0.077-0.545,0.116-0.872,0.116c-0.236,0-0.458-0.026-0.662-0.077c-0.21-0.052-0.397-0.113-0.565-0.183
			c-0.169-0.073-0.315-0.146-0.444-0.222c-0.125-0.075-0.225-0.139-0.294-0.195l0.532-0.885c0.016,0.016,0.063,0.055,0.146,0.119
			c0.082,0.063,0.189,0.13,0.316,0.2c0.127,0.068,0.277,0.13,0.45,0.184s0.355,0.081,0.552,0.081c0.61,0,0.917-0.193,0.917-0.583
			c0-0.164-0.063-0.292-0.186-0.382c-0.123-0.087-0.278-0.164-0.466-0.227c-0.188-0.065-0.396-0.127-0.625-0.189
			c-0.232-0.061-0.455-0.145-0.671-0.254c-0.17-0.083-0.31-0.168-0.419-0.261c-0.109-0.09-0.197-0.187-0.264-0.287
			c-0.066-0.1-0.111-0.207-0.135-0.319C30.86,9.952,30.85,9.832,30.85,9.705c0-0.27,0.053-0.504,0.16-0.704
			c0.107-0.197,0.254-0.363,0.44-0.496c0.185-0.132,0.397-0.23,0.642-0.294C32.334,8.148,32.592,8.116,32.861,8.116"/>
		<polygon fill="#005480" points="24.528,8.576 24.528,13.417 21.723,10.577 21.769,13.305 20.815,13.305 20.815,8.45 
			23.621,11.285 23.574,8.576 		"/>
	</g>
	<rect x="35.25" y="8.286" fill="#005480" width="1.073" height="5.217"/>
	<polygon fill="#005480" points="40.73,8.386 40.595,9.326 39.283,9.326 39.283,13.603 38.208,13.603 38.208,9.326 36.729,9.326 
		36.863,8.386 	"/>
	<path fill="#005480" d="M41.328,8.378v5.225h3.396l0.165-0.942h-2.486v-0.935h1.877l0.107-0.912h-1.984V9.321h2.231l-0.115-0.942
		H41.328z M43.778,6.862l-1.284,0.862l0.174,0.294l1.387-0.698L43.778,6.862z"/>
</g>
</svg>
