<?xml version="1.0" encoding="utf-8"?>
<!-- Generator: Adobe Illustrator 16.0.0, SVG Export Plug-In . SVG Version: 6.00 Build 0)  -->
<!DOCTYPE svg PUBLIC "-//W3C//DTD SVG 1.1//EN" "http://www.w3.org/Graphics/SVG/1.1/DTD/svg11.dtd">
<svg version="1.1" id="Calque_1" xmlns="http://www.w3.org/2000/svg" xmlns:xlink="http://www.w3.org/1999/xlink" x="0px" y="0px"
	 width="48px" height="48px" viewBox="0 0 48 48" enable-background="new 0 0 48 48" xml:space="preserve">
<g>
	<path fill="#00517D" d="M36.762,48H11.238C5.042,48,0,42.959,0,36.763V11.237C0,5.041,5.042,0,11.238,0h25.523
		C42.958,0,48,5.041,48,11.237v25.526C48,42.959,42.958,48,36.762,48z M11.238,2C6.144,2,2,6.144,2,11.237v25.526
		C2,41.856,6.144,46,11.238,46h25.523C41.856,46,46,41.856,46,36.763V11.237C46,6.144,41.856,2,36.762,2H11.238z"/>
	<g>
		<defs>
			<rect id="SVGID_5_" x="4.135" y="7.271" width="39.979" height="35.446"/>
		</defs>
		<clipPath id="SVGID_2_">
			<use xlink:href="#SVGID_5_"  overflow="visible"/>
		</clipPath>
	</g>
	<g>
		<path fill="#005480" d="M29.183,39.088c0.205,0,0.382,0.022,0.539,0.064c0.156,0.043,0.284,0.094,0.39,0.146
			c0.105,0.055,0.186,0.105,0.243,0.154c0.055,0.049,0.089,0.078,0.095,0.086l-0.453,0.53c-0.021-0.02-0.048-0.043-0.087-0.074
			c-0.036-0.028-0.085-0.057-0.145-0.086c-0.061-0.03-0.133-0.054-0.216-0.077c-0.084-0.021-0.18-0.031-0.292-0.031
			c-0.133,0-0.254,0.022-0.366,0.069c-0.113,0.046-0.208,0.109-0.291,0.186c-0.081,0.078-0.144,0.168-0.19,0.273
			c-0.045,0.104-0.067,0.215-0.067,0.332c0,0.139,0.023,0.265,0.069,0.375c0.05,0.11,0.117,0.203,0.198,0.279
			c0.083,0.077,0.18,0.134,0.296,0.174c0.113,0.042,0.235,0.06,0.367,0.06c0.122,0,0.229-0.012,0.321-0.042
			c0.095-0.03,0.175-0.062,0.242-0.097c0.065-0.033,0.115-0.068,0.148-0.099c0.033-0.032,0.052-0.049,0.056-0.051l0.485,0.544
			c-0.013,0.011-0.048,0.041-0.107,0.093c-0.056,0.051-0.14,0.104-0.25,0.16c-0.106,0.053-0.24,0.104-0.4,0.148
			c-0.159,0.046-0.348,0.068-0.567,0.068c-0.244,0-0.472-0.038-0.679-0.114c-0.207-0.075-0.387-0.183-0.541-0.321
			c-0.154-0.137-0.273-0.305-0.36-0.502c-0.087-0.195-0.13-0.416-0.13-0.656c0-0.229,0.041-0.44,0.127-0.635
			c0.084-0.195,0.202-0.363,0.354-0.506c0.153-0.142,0.331-0.252,0.538-0.332C28.719,39.129,28.943,39.088,29.183,39.088"/>
		<path fill="#005480" d="M32.632,41.551c0.155,0,0.283-0.019,0.389-0.056c0.105-0.036,0.158-0.088,0.158-0.154v-1.422
			c-0.029-0.017-0.063-0.033-0.095-0.05c-0.036-0.018-0.081-0.035-0.139-0.05c-0.054-0.015-0.121-0.029-0.199-0.039
			c-0.076-0.01-0.169-0.014-0.278-0.014c-0.123,0-0.238,0.024-0.346,0.073c-0.107,0.047-0.203,0.112-0.282,0.191
			c-0.083,0.082-0.146,0.171-0.193,0.272c-0.05,0.103-0.072,0.205-0.072,0.31c0,0.334,0.094,0.573,0.289,0.72
			C32.058,41.478,32.313,41.551,32.632,41.551 M33.18,38.056H34v3.535c0,0.071,0.002,0.143,0.013,0.219
			c0.009,0.076,0.03,0.145,0.062,0.202c-0.05,0.023-0.119,0.05-0.207,0.08c-0.09,0.027-0.192,0.057-0.308,0.083
			c-0.117,0.027-0.241,0.05-0.38,0.072c-0.137,0.017-0.272,0.027-0.409,0.027c-0.241,0-0.48-0.023-0.722-0.072
			c-0.24-0.049-0.459-0.136-0.653-0.259c-0.194-0.125-0.353-0.296-0.477-0.515c-0.121-0.216-0.18-0.493-0.18-0.827
			c0-0.208,0.037-0.401,0.117-0.584c0.078-0.183,0.19-0.342,0.333-0.48c0.143-0.139,0.313-0.249,0.509-0.327
			c0.198-0.079,0.414-0.12,0.649-0.12c0.123,0,0.235,0.007,0.333,0.024c0.096,0.017,0.18,0.034,0.248,0.052
			c0.07,0.021,0.125,0.039,0.167,0.057c0.044,0.021,0.072,0.035,0.084,0.042V38.056z"/>
	</g>
	<polygon fill="#005480" points="36.747,36.857 34.317,41.717 34.728,41.717 37.165,36.857 	"/>
	<g>
		<path fill="#005480" d="M37.439,39.731c0-0.075-0.006-0.15-0.015-0.226c-0.014-0.075-0.04-0.14-0.086-0.195
			c0.115-0.043,0.286-0.091,0.509-0.141c0.224-0.053,0.512-0.081,0.863-0.081c0.158,0,0.296,0.012,0.418,0.04
			c0.12,0.024,0.222,0.053,0.303,0.083c0.087,0.032,0.149,0.06,0.196,0.087c0.05,0.028,0.08,0.045,0.091,0.053
			c0.017-0.013,0.051-0.033,0.11-0.06c0.054-0.03,0.123-0.059,0.206-0.09c0.084-0.028,0.183-0.055,0.294-0.077
			c0.112-0.025,0.232-0.037,0.366-0.037c0.258,0,0.473,0.034,0.646,0.1c0.175,0.066,0.313,0.153,0.421,0.262
			c0.104,0.109,0.18,0.236,0.223,0.378c0.042,0.146,0.066,0.295,0.066,0.451v1.914h-0.828v-1.896c0-0.073-0.009-0.144-0.024-0.212
			c-0.018-0.064-0.045-0.123-0.084-0.172c-0.041-0.052-0.095-0.092-0.167-0.119c-0.069-0.03-0.158-0.044-0.265-0.044
			c-0.185,0-0.317,0.016-0.402,0.05c-0.085,0.032-0.143,0.057-0.171,0.072c0.012,0.036,0.022,0.078,0.031,0.128
			c0.009,0.051,0.014,0.153,0.014,0.304v1.891h-0.822v-1.891c0-0.062-0.009-0.128-0.024-0.198c-0.017-0.069-0.048-0.133-0.094-0.189
			c-0.045-0.056-0.107-0.104-0.19-0.141c-0.08-0.036-0.184-0.056-0.313-0.056c-0.14,0-0.248,0.013-0.322,0.033
			c-0.073,0.021-0.117,0.036-0.129,0.044v2.397h-0.82V39.731z"/>
		<path fill="#005480" d="M42.436,39.394l0.394-0.339c0.513-0.443,0.78-0.717,0.78-1.013c0-0.223-0.15-0.403-0.473-0.403
			c-0.217,0-0.402,0.1-0.521,0.18l-0.13-0.266c0.168-0.128,0.447-0.246,0.758-0.246c0.585,0,0.827,0.351,0.827,0.659
			c0,0.444-0.354,0.763-0.827,1.147l-0.192,0.165v0.011h1.063v0.32h-1.678V39.394z"/>
		<path fill="#005480" d="M17.096,39.157c0,0.397,0.032,0.737,0.095,1.019c0.064,0.281,0.154,0.511,0.271,0.688
			c0.118,0.176,0.256,0.306,0.419,0.386c0.16,0.08,0.343,0.121,0.544,0.121c0.184,0,0.355-0.043,0.513-0.125
			c0.158-0.083,0.296-0.215,0.408-0.395c0.114-0.179,0.206-0.41,0.272-0.69c0.066-0.277,0.099-0.612,0.099-1.003
			c0-0.379-0.033-0.703-0.099-0.973c-0.066-0.27-0.159-0.492-0.276-0.666c-0.118-0.172-0.254-0.301-0.412-0.386
			c-0.16-0.083-0.331-0.126-0.513-0.126c-0.19,0-0.365,0.043-0.524,0.126c-0.158,0.085-0.297,0.214-0.417,0.386
			c-0.121,0.174-0.214,0.397-0.281,0.67C17.129,38.462,17.096,38.784,17.096,39.157 M18.425,35.75c0.368,0,0.714,0.072,1.039,0.214
			c0.328,0.142,0.614,0.354,0.86,0.638c0.247,0.281,0.445,0.637,0.589,1.065c0.146,0.428,0.22,0.928,0.22,1.497
			c0,0.59-0.072,1.1-0.214,1.532c-0.144,0.431-0.338,0.789-0.583,1.075c-0.248,0.285-0.536,0.498-0.864,0.638
			c-0.331,0.138-0.679,0.208-1.046,0.208c-0.392,0-0.754-0.066-1.088-0.2c-0.332-0.133-0.621-0.341-0.864-0.619
			c-0.243-0.278-0.435-0.636-0.575-1.07c-0.138-0.433-0.208-0.956-0.208-1.563c0-0.564,0.07-1.061,0.208-1.489
			c0.14-0.427,0.333-0.784,0.58-1.069c0.248-0.286,0.537-0.5,0.869-0.642C17.679,35.822,18.039,35.75,18.425,35.75"/>
		<path fill="#005480" d="M22.628,39.157c0,0.397,0.033,0.737,0.097,1.019c0.063,0.281,0.152,0.511,0.27,0.688
			c0.117,0.176,0.257,0.306,0.419,0.386c0.161,0.08,0.343,0.121,0.546,0.121c0.183,0,0.354-0.043,0.512-0.125
			c0.157-0.083,0.295-0.215,0.41-0.395c0.113-0.179,0.203-0.41,0.271-0.69c0.066-0.277,0.099-0.612,0.099-1.003
			c0-0.379-0.033-0.703-0.099-0.973c-0.068-0.27-0.16-0.492-0.277-0.666c-0.117-0.172-0.254-0.301-0.412-0.386
			c-0.16-0.083-0.331-0.126-0.514-0.126c-0.189,0-0.363,0.043-0.523,0.126c-0.158,0.085-0.295,0.214-0.417,0.386
			c-0.12,0.174-0.213,0.397-0.28,0.67C22.662,38.462,22.628,38.784,22.628,39.157 M23.959,35.75c0.367,0,0.713,0.072,1.038,0.214
			c0.328,0.142,0.614,0.354,0.859,0.638c0.249,0.281,0.443,0.637,0.591,1.065c0.145,0.428,0.218,0.928,0.218,1.497
			c0,0.59-0.072,1.1-0.214,1.532c-0.143,0.431-0.339,0.789-0.585,1.075c-0.246,0.285-0.534,0.498-0.863,0.638
			c-0.331,0.138-0.678,0.208-1.045,0.208c-0.393,0-0.755-0.066-1.089-0.2c-0.332-0.133-0.621-0.341-0.864-0.619
			c-0.243-0.278-0.434-0.636-0.573-1.07c-0.141-0.433-0.209-0.956-0.209-1.563c0-0.564,0.068-1.061,0.209-1.489
			c0.139-0.427,0.331-0.784,0.578-1.069c0.247-0.286,0.538-0.5,0.871-0.642C23.212,35.822,23.573,35.75,23.959,35.75"/>
		<path fill="#005480" d="M8.854,42.618h-1.31v-4.942C7.064,38.125,6.5,38.455,5.85,38.671V37.48
			c0.342-0.11,0.713-0.324,1.115-0.637c0.401-0.312,0.677-0.678,0.826-1.095h1.063V42.618z"/>
		<path fill="#005480" d="M11.561,39.157c0,0.397,0.033,0.737,0.096,1.019c0.063,0.281,0.154,0.511,0.271,0.688
			c0.118,0.176,0.257,0.306,0.418,0.386c0.16,0.08,0.344,0.121,0.545,0.121c0.184,0,0.355-0.043,0.513-0.125
			c0.158-0.083,0.295-0.215,0.408-0.395c0.114-0.179,0.205-0.41,0.271-0.69c0.066-0.277,0.099-0.612,0.099-1.003
			c0-0.379-0.033-0.703-0.099-0.973c-0.066-0.27-0.159-0.492-0.275-0.666c-0.119-0.172-0.255-0.301-0.413-0.386
			c-0.16-0.083-0.33-0.126-0.514-0.126c-0.189,0-0.364,0.043-0.522,0.126c-0.158,0.085-0.296,0.214-0.418,0.386
			c-0.121,0.174-0.214,0.397-0.28,0.67C11.595,38.462,11.561,38.784,11.561,39.157 M12.891,35.75c0.367,0,0.713,0.072,1.039,0.214
			c0.329,0.142,0.613,0.354,0.86,0.638c0.248,0.281,0.443,0.637,0.589,1.065c0.146,0.428,0.218,0.928,0.218,1.497
			c0,0.59-0.07,1.1-0.213,1.532c-0.141,0.431-0.337,0.789-0.583,1.075c-0.248,0.285-0.535,0.498-0.864,0.638
			c-0.331,0.138-0.679,0.208-1.045,0.208c-0.393,0-0.754-0.066-1.087-0.2c-0.332-0.133-0.622-0.341-0.864-0.619
			c-0.244-0.278-0.437-0.636-0.575-1.07c-0.14-0.433-0.209-0.956-0.209-1.563c0-0.564,0.069-1.061,0.209-1.489
			c0.138-0.427,0.333-0.784,0.579-1.069c0.247-0.286,0.538-0.5,0.869-0.642C12.146,35.822,12.505,35.75,12.891,35.75"/>
	</g>
	<g>
		<path fill="#005480" d="M27.992,20.853l-0.008-0.008c-0.277-0.273-0.277-0.711,0-0.983l0.768-0.754c0.277-0.27,0.725-0.27,1.002,0
			l0.012,0.012c0.274,0.27,0.274,0.709,0,0.981l-0.77,0.753C28.717,21.123,28.27,21.123,27.992,20.853 M32.169,24.778
			c0,0.383-0.317,0.694-0.707,0.694h-1.089c-0.393,0-0.708-0.311-0.708-0.694v-0.016c0-0.382,0.315-0.693,0.708-0.693h1.089
			c0.39,0,0.707,0.312,0.707,0.693V24.778z M27.984,28.785l0.008-0.012c0.277-0.27,0.725-0.27,1.004,0l0.77,0.756
			c0.274,0.27,0.274,0.708,0,0.98l-0.012,0.009c-0.277,0.272-0.725,0.272-1.002,0l-0.768-0.752
			C27.707,29.495,27.707,29.055,27.984,28.785 M24.656,32.139c0,0.382-0.316,0.692-0.709,0.692h-0.014
			c-0.392,0-0.709-0.311-0.709-0.692v-1.065c0-0.385,0.317-0.694,0.709-0.694h0.014c0.393,0,0.709,0.309,0.709,0.694V32.139z
			 M19.889,28.773l0.009,0.012c0.278,0.27,0.278,0.709,0,0.981l-0.767,0.752c-0.277,0.272-0.725,0.272-1.001,0l-0.011-0.009
			c-0.278-0.272-0.278-0.71,0-0.98l0.766-0.756C19.164,28.503,19.611,28.503,19.889,28.773 M18.217,24.778
			c0,0.383-0.317,0.694-0.708,0.694h-1.088c-0.391,0-0.708-0.311-0.708-0.694v-0.016c0-0.382,0.317-0.693,0.708-0.693h1.088
			c0.391,0,0.708,0.312,0.708,0.693V24.778z M19.897,20.845l-0.009,0.008c-0.277,0.27-0.725,0.27-1.004,0L18.119,20.1
			c-0.278-0.271-0.278-0.711,0-0.981l0.011-0.012c0.276-0.27,0.726-0.27,1.001,0l0.767,0.754
			C20.176,20.133,20.176,20.571,19.897,20.845 M24.656,18.468c0,0.382-0.316,0.693-0.709,0.693h-0.014
			c-0.392,0-0.709-0.311-0.709-0.693v-1.065c0-0.383,0.317-0.694,0.709-0.694h0.014c0.393,0,0.709,0.311,0.709,0.694V18.468z
			 M23.941,27.267c-1.383,0-2.504-1.1-2.504-2.453c0-1.357,1.121-2.455,2.504-2.455c1.385,0,2.504,1.098,2.504,2.455
			C26.445,26.167,25.326,27.267,23.941,27.267 M23.941,20.958c-2.174,0-3.936,1.728-3.936,3.856c0,2.129,1.762,3.857,3.936,3.857
			c2.173,0,3.936-1.728,3.936-3.857C27.877,22.686,26.114,20.958,23.941,20.958"/>
		<path fill="#005480" d="M23.947,33.016h-0.014c-0.493,0-0.894-0.394-0.894-0.877v-1.065c0-0.484,0.401-0.879,0.894-0.879
			c0.506,0,0.907,0.395,0.907,0.879v1.065C24.841,32.622,24.44,33.016,23.947,33.016z M23.947,30.564
			c-0.303,0-0.538,0.229-0.538,0.51v1.065c0,0.28,0.235,0.508,0.524,0.508h0.014c0.289,0,0.524-0.228,0.524-0.508v-1.065
			C24.472,30.792,24.236,30.564,23.947,30.564z M29.253,30.907c-0.238,0-0.461-0.091-0.63-0.257l-0.767-0.752
			c-0.17-0.167-0.264-0.388-0.264-0.624c0-0.235,0.094-0.456,0.264-0.621c0.354-0.353,0.93-0.34,1.269-0.013l0.771,0.758
			c0.168,0.165,0.26,0.385,0.261,0.619c0,0.235-0.092,0.457-0.26,0.623C29.714,30.815,29.491,30.907,29.253,30.907z M28.493,28.755
			c-0.141,0-0.273,0.053-0.373,0.15c-0.105,0.107-0.16,0.234-0.16,0.369c0,0.136,0.054,0.263,0.152,0.36l0.768,0.752
			c0.199,0.195,0.545,0.195,0.744,0c0.109-0.105,0.163-0.233,0.163-0.369c0-0.135-0.054-0.261-0.151-0.357l-0.77-0.756
			C28.768,28.809,28.634,28.755,28.493,28.755z M18.63,30.907c-0.237,0-0.461-0.091-0.629-0.257
			c-0.181-0.175-0.275-0.397-0.274-0.632c0-0.235,0.094-0.455,0.265-0.62l0.764-0.755c0.343-0.331,0.926-0.329,1.262-0.001
			l0.03,0.037c0.149,0.141,0.243,0.361,0.243,0.597c0,0.236-0.093,0.458-0.264,0.624L19.26,30.65
			C19.091,30.815,18.868,30.907,18.63,30.907z M19.387,28.755c-0.141,0-0.274,0.053-0.375,0.15l-0.764,0.755
			c-0.1,0.096-0.154,0.223-0.154,0.357c0,0.135,0.054,0.263,0.153,0.36c0.221,0.214,0.555,0.204,0.753,0.009l0.767-0.752
			c0.1-0.097,0.154-0.225,0.154-0.36c0-0.135-0.055-0.261-0.153-0.357l-0.03-0.037C19.661,28.809,19.528,28.755,19.387,28.755z
			 M23.941,28.856c-2.272,0-4.12-1.813-4.12-4.042c0-2.228,1.848-4.041,4.12-4.041s4.12,1.813,4.12,4.041
			C28.062,27.043,26.213,28.856,23.941,28.856z M23.941,21.143c-2.068,0-3.751,1.647-3.751,3.672s1.683,3.672,3.751,3.672
			s3.751-1.647,3.751-3.672S26.01,21.143,23.941,21.143z M23.941,27.452c-1.482,0-2.688-1.183-2.688-2.637
			c0-1.456,1.206-2.64,2.688-2.64s2.688,1.184,2.688,2.64C26.63,26.269,25.424,27.452,23.941,27.452z M23.941,22.544
			c-1.279,0-2.319,1.019-2.319,2.271c0,1.25,1.041,2.268,2.319,2.268s2.319-1.018,2.319-2.268
			C26.261,23.563,25.22,22.544,23.941,22.544z M31.462,25.656h-1.089c-0.492,0-0.893-0.394-0.893-0.878c0-0.5,0.4-0.894,0.893-0.894
			h1.089c0.492,0,0.892,0.394,0.892,0.878C32.354,25.262,31.954,25.656,31.462,25.656z M30.373,24.253
			c-0.289,0-0.523,0.228-0.523,0.509c0,0.297,0.235,0.525,0.523,0.525h1.089c0.288,0,0.522-0.229,0.522-0.509
			c0-0.297-0.234-0.525-0.522-0.525H30.373z M17.509,25.656h-1.088c-0.492,0-0.893-0.394-0.893-0.878c0-0.5,0.4-0.894,0.893-0.894
			h1.088c0.492,0,0.893,0.394,0.893,0.878C18.401,25.262,18.001,25.656,17.509,25.656z M16.421,24.253
			c-0.289,0-0.523,0.228-0.523,0.509c0,0.297,0.235,0.525,0.523,0.525h1.088c0.289,0,0.523-0.229,0.523-0.509
			c0-0.297-0.235-0.525-0.523-0.525H16.421z M28.493,21.24c-0.237,0-0.461-0.091-0.63-0.255c-0.178-0.177-0.272-0.399-0.271-0.634
			c0-0.235,0.094-0.455,0.264-0.621l0.767-0.754c0.339-0.329,0.922-0.329,1.26,0c0.18,0.177,0.272,0.397,0.273,0.632
			c0,0.236-0.092,0.457-0.26,0.624l-0.771,0.753C28.955,21.15,28.73,21.24,28.493,21.24z M29.253,19.089
			c-0.141,0-0.273,0.053-0.372,0.15l-0.767,0.754c-0.099,0.096-0.153,0.223-0.153,0.358c0,0.136,0.054,0.264,0.153,0.362
			c0.214,0.21,0.555,0.201,0.754,0.007l0.769-0.752c0.097-0.096,0.15-0.224,0.15-0.36c0-0.135-0.054-0.262-0.151-0.357
			C29.526,19.143,29.394,19.089,29.253,19.089z M19.387,21.24c-0.237,0-0.461-0.09-0.631-0.254l-0.767-0.754
			c-0.17-0.166-0.264-0.388-0.264-0.624c0-0.235,0.094-0.456,0.265-0.621c0.357-0.352,0.934-0.34,1.27-0.011l0.767,0.755
			c0.169,0.165,0.263,0.386,0.264,0.621c0,0.235-0.093,0.458-0.264,0.625C19.849,21.149,19.625,21.24,19.387,21.24z M18.631,19.089
			c-0.141,0-0.273,0.053-0.372,0.15c-0.109,0.107-0.164,0.234-0.164,0.369c0,0.136,0.054,0.264,0.153,0.36l0.766,0.753
			c0.199,0.192,0.548,0.193,0.746-0.001c0.107-0.105,0.162-0.233,0.162-0.369c0-0.135-0.055-0.262-0.153-0.358l-0.767-0.755
			C18.903,19.143,18.771,19.089,18.631,19.089z M23.947,19.346h-0.014c-0.493,0-0.894-0.394-0.894-0.877v-1.065
			c0-0.484,0.401-0.878,0.894-0.878c0.506,0,0.907,0.394,0.907,0.878v1.065C24.841,18.952,24.44,19.346,23.947,19.346z
			 M23.947,16.894c-0.303,0-0.538,0.229-0.538,0.509v1.065c0,0.28,0.235,0.508,0.524,0.508h0.014c0.289,0,0.524-0.228,0.524-0.508
			v-1.065C24.472,17.122,24.236,16.894,23.947,16.894z"/>
	</g>
	<polygon fill="#005480" points="3.83,8.795 3.83,14.012 6.87,14.012 6.991,13.072 4.903,13.072 4.903,8.795 	"/>
	<g>
		<path fill="#005480" d="M11.603,8.795v3.399c0,0.207-0.034,0.423-0.103,0.652c-0.065,0.229-0.18,0.435-0.344,0.621
			c-0.164,0.187-0.381,0.341-0.654,0.463c-0.272,0.123-0.617,0.185-1.033,0.185c-0.435,0-0.79-0.062-1.064-0.185
			c-0.277-0.123-0.492-0.277-0.65-0.466c-0.158-0.189-0.267-0.396-0.322-0.622c-0.059-0.226-0.088-0.441-0.088-0.647V8.795h1.074
			v3.378c0,0.323,0.093,0.571,0.281,0.743c0.187,0.172,0.45,0.257,0.789,0.257c0.311,0,0.559-0.083,0.752-0.254
			c0.192-0.168,0.288-0.418,0.288-0.746V8.795H11.603z"/>
	</g>
	<polygon fill="#005480" points="16.461,8.582 17.956,14.011 16.799,14.011 16.176,11.369 14.975,14.049 13.803,11.369 
		13.188,14.011 12.022,14.011 13.51,8.582 15.018,11.871 	"/>
	<rect x="18.377" y="8.795" fill="#005480" width="1.072" height="5.217"/>
	<g>
		<path fill="#005480" d="M25.336,11.441c0,0.26,0.049,0.494,0.14,0.701c0.093,0.208,0.217,0.389,0.372,0.542
			c0.154,0.152,0.334,0.268,0.535,0.35c0.206,0.082,0.418,0.122,0.645,0.122s0.439-0.042,0.643-0.127
			c0.203-0.083,0.379-0.201,0.531-0.352c0.153-0.153,0.274-0.335,0.365-0.544c0.09-0.212,0.135-0.444,0.135-0.698
			c0-0.257-0.043-0.489-0.131-0.701c-0.089-0.209-0.206-0.388-0.359-0.537c-0.152-0.147-0.332-0.262-0.533-0.342
			c-0.203-0.079-0.418-0.121-0.65-0.121c-0.235,0-0.456,0.042-0.66,0.121c-0.205,0.081-0.384,0.195-0.539,0.342
			c-0.151,0.148-0.271,0.327-0.36,0.537C25.382,10.945,25.336,11.18,25.336,11.441 M27.02,8.725c0.39,0,0.758,0.07,1.099,0.209
			c0.345,0.139,0.642,0.331,0.896,0.573c0.252,0.245,0.451,0.532,0.597,0.862c0.146,0.332,0.218,0.688,0.218,1.072
			c0,0.381-0.074,0.737-0.221,1.066c-0.148,0.328-0.35,0.615-0.604,0.86c-0.252,0.246-0.55,0.439-0.894,0.578
			c-0.341,0.141-0.707,0.21-1.097,0.21c-0.383,0-0.742-0.066-1.08-0.198c-0.337-0.134-0.635-0.318-0.89-0.555
			c-0.256-0.238-0.458-0.525-0.606-0.857c-0.15-0.334-0.227-0.703-0.227-1.104c0-0.383,0.072-0.738,0.218-1.069
			c0.146-0.328,0.344-0.614,0.598-0.86c0.251-0.246,0.548-0.438,0.89-0.578C26.256,8.795,26.624,8.725,27.02,8.725"/>
		<path fill="#005480" d="M32.247,8.725c0.229,0,0.448,0.025,0.655,0.077c0.203,0.052,0.386,0.112,0.546,0.18
			c0.161,0.069,0.294,0.135,0.399,0.202c0.104,0.066,0.174,0.112,0.209,0.135l-0.496,0.848c-0.189-0.142-0.395-0.262-0.614-0.357
			c-0.222-0.095-0.486-0.144-0.798-0.144c-0.24,0-0.433,0.047-0.58,0.14c-0.149,0.093-0.222,0.228-0.222,0.405
			c0,0.142,0.063,0.252,0.188,0.328s0.282,0.142,0.477,0.198c0.191,0.056,0.405,0.117,0.642,0.18
			c0.236,0.063,0.464,0.156,0.684,0.272c0.266,0.143,0.471,0.316,0.613,0.518c0.141,0.203,0.213,0.466,0.213,0.785
			c0,0.25-0.048,0.477-0.141,0.684c-0.098,0.205-0.234,0.381-0.412,0.525c-0.178,0.146-0.395,0.257-0.648,0.337
			c-0.255,0.077-0.545,0.116-0.872,0.116c-0.236,0-0.458-0.026-0.662-0.077c-0.21-0.052-0.397-0.113-0.565-0.183
			c-0.169-0.073-0.315-0.146-0.444-0.222c-0.125-0.075-0.225-0.139-0.294-0.195l0.532-0.885c0.016,0.016,0.063,0.055,0.146,0.119
			c0.082,0.063,0.189,0.13,0.316,0.2c0.127,0.068,0.277,0.13,0.45,0.184s0.355,0.081,0.552,0.081c0.61,0,0.917-0.193,0.917-0.583
			c0-0.164-0.063-0.292-0.186-0.382c-0.123-0.087-0.278-0.164-0.466-0.227c-0.188-0.065-0.396-0.127-0.625-0.189
			c-0.232-0.061-0.455-0.145-0.671-0.254c-0.17-0.083-0.31-0.168-0.419-0.261c-0.109-0.09-0.197-0.187-0.264-0.287
			c-0.066-0.1-0.111-0.207-0.135-0.319c-0.026-0.114-0.037-0.234-0.037-0.361c0-0.27,0.053-0.504,0.16-0.704
			c0.107-0.197,0.254-0.363,0.44-0.496c0.185-0.132,0.397-0.23,0.642-0.294C31.719,8.757,31.977,8.725,32.247,8.725"/>
		<polygon fill="#005480" points="23.914,9.186 23.914,14.027 21.108,11.187 21.154,13.915 20.2,13.915 20.2,9.06 23.006,11.894 
			22.959,9.186 		"/>
	</g>
	<rect x="34.635" y="8.895" fill="#005480" width="1.073" height="5.217"/>
	<polygon fill="#005480" points="40.115,8.995 39.98,9.936 38.668,9.936 38.668,14.212 37.594,14.212 37.594,9.936 36.114,9.936 
		36.248,8.995 	"/>
	<path fill="#005480" d="M40.713,8.988v5.225h3.396l0.165-0.942h-2.486v-0.935h1.877l0.107-0.912h-1.984V9.93h2.231l-0.115-0.942
		H40.713z M43.163,7.471l-1.284,0.862l0.174,0.294l1.387-0.698L43.163,7.471z"/>
</g>
</svg>
