<?xml version="1.0" encoding="utf-8"?>
<!-- Generator: Adobe Illustrator 16.0.0, SVG Export Plug-In . SVG Version: 6.00 Build 0)  -->
<!DOCTYPE svg PUBLIC "-//W3C//DTD SVG 1.1//EN" "http://www.w3.org/Graphics/SVG/1.1/DTD/svg11.dtd">
<svg version="1.1" id="Calque_1" xmlns="http://www.w3.org/2000/svg" xmlns:xlink="http://www.w3.org/1999/xlink" x="0px" y="0px"
	 width="48px" height="48px" viewBox="0 0 48 48" enable-background="new 0 0 48 48" xml:space="preserve">
<g>
	<path fill="#00517D" d="M36.763,48H11.237C5.041,48,0,42.959,0,36.763V11.237C0,5.041,5.041,0,11.237,0h25.526
		C42.959,0,48,5.041,48,11.237v25.526C48,42.959,42.959,48,36.763,48z M11.237,2C6.144,2,2,6.144,2,11.237v25.526
		C2,41.856,6.144,46,11.237,46h25.526C41.856,46,46,41.856,46,36.763V11.237C46,6.144,41.856,2,36.763,2H11.237z"/>
	<g>
		<path fill="#005480" d="M36.31,34.403l5.942-5.97c0.246-0.242,0.07-0.659-0.273-0.659h-0.475c-0.323,0-0.503-0.375-0.303-0.627
			l3.15-3.973c0.204-0.253,0.022-0.627-0.303-0.627h-1.583c-0.318,0-0.5-0.363-0.31-0.62l4.026-5.354
			c0.191-0.255,0.01-0.619-0.309-0.619h-6.367c-0.146,0-0.282,0.083-0.346,0.214l-3.113,6.298c-0.127,0.256,0.062,0.558,0.346,0.558
			h1.437c0.287,0,0.475,0.301,0.346,0.56l-2.128,4.306c-0.127,0.257,0.062,0.559,0.346,0.559h1.354c0.287,0,0.47,0.298,0.349,0.554
			l-2.404,4.958C35.498,34.354,36.003,34.712,36.31,34.403"/>
	</g>
	<g>
		<path fill="#005480" d="M6.234,17.396c0.173,0,0.322,0.017,0.451,0.05c0.126,0.034,0.233,0.07,0.317,0.112
			c0.086,0.039,0.15,0.077,0.192,0.111c0.042,0.033,0.064,0.051,0.067,0.054l-0.309,0.37c-0.008-0.003-0.028-0.018-0.06-0.043
			c-0.033-0.027-0.078-0.053-0.137-0.082c-0.058-0.029-0.127-0.054-0.209-0.077c-0.082-0.022-0.177-0.035-0.283-0.035
			c-0.123,0-0.237,0.021-0.343,0.058c-0.105,0.039-0.193,0.092-0.272,0.159c-0.077,0.067-0.138,0.149-0.181,0.242
			c-0.043,0.094-0.066,0.197-0.066,0.309c0,0.118,0.023,0.226,0.066,0.325c0.043,0.1,0.104,0.184,0.181,0.256
			c0.079,0.071,0.167,0.125,0.272,0.165c0.105,0.04,0.22,0.06,0.343,0.06c0.119,0,0.222-0.013,0.312-0.036
			c0.089-0.024,0.165-0.052,0.225-0.083c0.059-0.031,0.107-0.062,0.142-0.089c0.035-0.03,0.057-0.049,0.067-0.06l0.31,0.375
			c-0.011,0.006-0.04,0.029-0.089,0.067c-0.048,0.038-0.117,0.077-0.208,0.12c-0.088,0.042-0.197,0.08-0.33,0.113
			c-0.131,0.034-0.284,0.051-0.463,0.051c-0.191,0-0.371-0.029-0.543-0.086c-0.171-0.059-0.32-0.141-0.448-0.249
			s-0.229-0.239-0.304-0.396c-0.075-0.154-0.112-0.33-0.112-0.527c0-0.176,0.036-0.341,0.108-0.493
			c0.073-0.149,0.17-0.281,0.297-0.391c0.124-0.112,0.273-0.196,0.446-0.26C5.845,17.426,6.033,17.396,6.234,17.396"/>
		<path fill="#005480" d="M8.062,18.642c0,0.12,0.024,0.229,0.071,0.323c0.047,0.096,0.11,0.178,0.192,0.249
			c0.079,0.069,0.171,0.124,0.275,0.161c0.105,0.037,0.214,0.056,0.331,0.056c0.117,0,0.227-0.02,0.33-0.058
			c0.105-0.037,0.196-0.092,0.276-0.161c0.077-0.072,0.14-0.154,0.188-0.252c0.045-0.097,0.069-0.204,0.069-0.322
			c0-0.116-0.023-0.223-0.068-0.321c-0.045-0.095-0.108-0.178-0.185-0.244c-0.08-0.069-0.171-0.121-0.275-0.158
			c-0.104-0.037-0.215-0.057-0.334-0.057c-0.121,0-0.235,0.021-0.34,0.057c-0.106,0.037-0.197,0.089-0.275,0.158
			c-0.079,0.066-0.14,0.149-0.186,0.244C8.085,18.415,8.062,18.521,8.062,18.642 M8.928,17.396c0.201,0,0.39,0.031,0.567,0.095
			c0.175,0.064,0.328,0.152,0.459,0.263c0.129,0.112,0.232,0.245,0.306,0.396c0.076,0.152,0.113,0.316,0.113,0.492
			c0,0.177-0.039,0.34-0.114,0.49c-0.076,0.151-0.18,0.283-0.309,0.396c-0.131,0.113-0.284,0.201-0.459,0.266
			c-0.178,0.064-0.366,0.097-0.566,0.097c-0.195,0-0.381-0.03-0.555-0.091s-0.327-0.146-0.457-0.254
			c-0.133-0.11-0.236-0.241-0.313-0.394s-0.116-0.322-0.116-0.508c0-0.175,0.038-0.34,0.113-0.491
			c0.073-0.149,0.176-0.282,0.307-0.394c0.13-0.113,0.282-0.202,0.458-0.266C8.535,17.426,8.725,17.396,8.928,17.396"/>
	</g>
	<polygon fill="#005480" points="12.827,17.446 12.827,19.899 11.2,18.459 11.228,19.843 10.674,19.843 10.674,17.381 
		12.301,18.817 12.275,17.446 	"/>
	<g>
		<path fill="#005480" d="M14.18,17.396c0.118,0,0.229,0.012,0.336,0.035c0.106,0.025,0.199,0.052,0.281,0.082
			c0.083,0.032,0.151,0.064,0.205,0.095c0.054,0.03,0.09,0.051,0.108,0.062l-0.254,0.388c-0.098-0.064-0.204-0.119-0.317-0.164
			c-0.114-0.044-0.25-0.066-0.41-0.066c-0.124,0-0.223,0.022-0.3,0.064c-0.075,0.043-0.113,0.105-0.113,0.186
			c0,0.064,0.031,0.115,0.096,0.151c0.065,0.035,0.147,0.065,0.246,0.091c0.099,0.024,0.208,0.053,0.331,0.082
			c0.122,0.03,0.238,0.071,0.351,0.125c0.138,0.065,0.243,0.146,0.316,0.238c0.073,0.093,0.11,0.215,0.11,0.36
			c0,0.115-0.026,0.22-0.074,0.315c-0.049,0.094-0.119,0.174-0.209,0.241c-0.091,0.065-0.203,0.118-0.334,0.154
			s-0.281,0.054-0.447,0.054c-0.122,0-0.236-0.012-0.343-0.036c-0.107-0.023-0.205-0.052-0.29-0.084
			c-0.086-0.034-0.163-0.065-0.229-0.102c-0.065-0.034-0.117-0.064-0.152-0.089l0.275-0.405c0.008,0.006,0.033,0.023,0.075,0.053
			c0.042,0.031,0.096,0.061,0.163,0.092c0.064,0.03,0.142,0.06,0.231,0.083c0.088,0.027,0.184,0.039,0.284,0.039
			c0.314,0,0.471-0.09,0.471-0.267c0-0.076-0.032-0.135-0.095-0.176c-0.062-0.041-0.142-0.076-0.24-0.105
			c-0.096-0.029-0.202-0.058-0.321-0.087c-0.119-0.026-0.233-0.066-0.345-0.116c-0.087-0.037-0.16-0.079-0.215-0.12
			c-0.057-0.042-0.103-0.085-0.135-0.131c-0.034-0.046-0.058-0.096-0.069-0.147c-0.013-0.052-0.021-0.107-0.021-0.167
			c0-0.122,0.028-0.23,0.083-0.322c0.056-0.092,0.131-0.167,0.226-0.227c0.096-0.063,0.206-0.108,0.331-0.136
			C13.909,17.41,14.042,17.396,14.18,17.396"/>
		<path fill="#005480" d="M15.879,18.642c0,0.12,0.025,0.229,0.072,0.323c0.048,0.096,0.111,0.178,0.192,0.249
			c0.079,0.069,0.171,0.124,0.276,0.161c0.104,0.037,0.214,0.056,0.33,0.056c0.116,0,0.225-0.02,0.331-0.058
			c0.104-0.037,0.195-0.092,0.274-0.161c0.078-0.072,0.141-0.154,0.187-0.252c0.046-0.097,0.069-0.204,0.069-0.322
			c0-0.116-0.023-0.223-0.068-0.321c-0.044-0.095-0.106-0.178-0.184-0.244c-0.08-0.069-0.171-0.121-0.274-0.158
			c-0.105-0.037-0.216-0.057-0.335-0.057c-0.121,0-0.235,0.021-0.339,0.057c-0.106,0.037-0.198,0.089-0.276,0.158
			c-0.079,0.066-0.141,0.149-0.186,0.244C15.903,18.415,15.879,18.521,15.879,18.642 M16.746,17.396c0.202,0,0.39,0.031,0.566,0.095
			s0.33,0.152,0.46,0.263c0.129,0.112,0.232,0.245,0.306,0.396c0.076,0.152,0.112,0.316,0.112,0.492c0,0.177-0.038,0.34-0.113,0.49
			c-0.077,0.151-0.18,0.283-0.308,0.396c-0.131,0.113-0.285,0.201-0.461,0.266s-0.365,0.097-0.565,0.097
			c-0.195,0-0.381-0.03-0.555-0.091c-0.173-0.062-0.326-0.146-0.457-0.254c-0.132-0.11-0.237-0.241-0.313-0.394
			c-0.079-0.153-0.117-0.322-0.117-0.508c0-0.175,0.038-0.34,0.111-0.491c0.075-0.149,0.178-0.282,0.308-0.394
			c0.13-0.113,0.283-0.202,0.458-0.266C16.354,17.426,16.542,17.396,16.746,17.396"/>
	</g>
	<polygon fill="#005480" points="20.599,17.348 21.368,19.841 20.773,19.841 20.452,18.627 19.833,19.859 19.23,18.627 
		18.914,19.841 18.313,19.841 19.08,17.348 19.856,18.858 	"/>
	<polygon fill="#005480" points="23.69,17.348 24.459,19.841 23.865,19.841 23.544,18.627 22.926,19.859 22.322,18.627 
		22.004,19.841 21.406,19.841 22.171,17.348 22.948,18.858 	"/>
	<path fill="#005480" d="M25.789,18.315l-0.289,0.64h0.572L25.789,18.315z M25.789,17.318l1.288,2.523h-0.595l-0.241-0.491h-0.9
		l-0.244,0.491h-0.599L25.789,17.318z"/>
	<polygon fill="#005480" points="29.181,17.446 29.112,17.877 28.436,17.877 28.436,19.843 27.884,19.843 27.884,17.877 
		27.123,17.877 27.192,17.446 	"/>
	<rect x="29.375" y="17.444" fill="#005480" width="0.556" height="2.396"/>
	<g>
		<path fill="#005480" d="M30.802,18.642c0,0.12,0.023,0.229,0.072,0.323c0.046,0.096,0.111,0.178,0.19,0.249
			c0.081,0.069,0.173,0.124,0.276,0.161c0.105,0.037,0.214,0.056,0.331,0.056c0.116,0,0.227-0.02,0.331-0.058
			c0.104-0.037,0.195-0.092,0.275-0.161c0.078-0.072,0.14-0.154,0.186-0.252c0.048-0.097,0.07-0.204,0.07-0.322
			c0-0.116-0.022-0.223-0.067-0.321c-0.047-0.095-0.108-0.178-0.186-0.244c-0.081-0.069-0.17-0.121-0.274-0.158
			c-0.105-0.037-0.216-0.057-0.334-0.057c-0.122,0-0.235,0.021-0.341,0.057c-0.105,0.037-0.196,0.089-0.275,0.158
			c-0.078,0.066-0.141,0.149-0.186,0.244C30.825,18.415,30.802,18.521,30.802,18.642 M31.667,17.396c0.201,0,0.39,0.031,0.566,0.095
			s0.33,0.152,0.46,0.263c0.129,0.112,0.233,0.245,0.307,0.396c0.075,0.152,0.112,0.316,0.112,0.492c0,0.177-0.037,0.34-0.114,0.49
			c-0.076,0.151-0.179,0.283-0.308,0.396c-0.132,0.113-0.284,0.201-0.461,0.266c-0.176,0.064-0.364,0.097-0.565,0.097
			c-0.196,0-0.381-0.03-0.555-0.091c-0.172-0.062-0.326-0.146-0.456-0.254c-0.133-0.11-0.238-0.241-0.313-0.394
			c-0.08-0.153-0.118-0.322-0.118-0.508c0-0.175,0.039-0.34,0.113-0.491c0.074-0.149,0.177-0.282,0.307-0.394
			c0.129-0.113,0.281-0.202,0.457-0.266C31.274,17.426,31.464,17.396,31.667,17.396"/>
	</g>
	<polygon fill="#005480" points="35.567,17.446 35.567,19.899 33.939,18.459 33.968,19.843 33.412,19.843 33.412,17.381 
		35.041,18.817 35.015,17.446 	"/>
	<polygon fill="#005480" points="28.366,29.635 27.051,25.876 25.732,26.239 28.202,32.764 30.056,28.587 31.84,32.764 
		34.374,26.239 33.111,25.876 31.756,29.635 30.094,25.729 	"/>
	<g>
		<path fill="#005480" d="M20.462,26.398c-0.405,0.18-0.757,0.445-1.058,0.801s-0.538,0.799-0.708,1.333
			c-0.17,0.533-0.254,1.15-0.254,1.854c0,0.758,0.084,1.406,0.254,1.947c0.17,0.542,0.404,0.986,0.701,1.333
			c0.298,0.349,0.65,0.605,1.055,0.77c0.406,0.167,0.847,0.25,1.327,0.25c0.447,0,0.874-0.088,1.274-0.261
			c0.402-0.173,0.753-0.438,1.054-0.793c0.301-0.355,0.54-0.802,0.714-1.34c0.173-0.536,0.26-1.172,0.26-1.906
			c0-0.71-0.088-1.332-0.266-1.865c-0.178-0.534-0.417-0.976-0.719-1.327c-0.301-0.352-0.651-0.615-1.048-0.795
			c-0.398-0.176-0.822-0.265-1.27-0.265C21.308,26.134,20.869,26.222,20.462,26.398 M20.278,29.17
			c0.081-0.341,0.196-0.621,0.342-0.836c0.146-0.214,0.317-0.376,0.51-0.48c0.193-0.105,0.405-0.157,0.636-0.157
			c0.226,0,0.434,0.052,0.626,0.157c0.193,0.104,0.36,0.266,0.505,0.48c0.142,0.216,0.254,0.492,0.335,0.831
			c0.081,0.335,0.122,0.739,0.122,1.21c0,0.486-0.041,0.903-0.122,1.251s-0.191,0.635-0.331,0.858
			c-0.138,0.224-0.305,0.388-0.497,0.492c-0.194,0.104-0.402,0.156-0.626,0.156c-0.248,0-0.469-0.05-0.667-0.15
			c-0.197-0.101-0.367-0.261-0.51-0.481c-0.144-0.219-0.253-0.505-0.33-0.857c-0.078-0.352-0.116-0.774-0.116-1.269
			C20.157,29.912,20.197,29.51,20.278,29.17 M13.419,26.398c-0.406,0.18-0.76,0.445-1.061,0.801
			c-0.302,0.355-0.538,0.799-0.708,1.333c-0.17,0.533-0.255,1.15-0.255,1.854c0,0.758,0.084,1.406,0.255,1.947
			c0.169,0.542,0.404,0.986,0.702,1.333c0.297,0.349,0.649,0.605,1.055,0.77c0.405,0.167,0.848,0.25,1.326,0.25
			c0.447,0,0.873-0.088,1.274-0.261c0.402-0.173,0.755-0.438,1.056-0.793c0.3-0.355,0.539-0.802,0.711-1.34
			c0.175-0.536,0.262-1.172,0.262-1.906c0-0.71-0.09-1.332-0.267-1.865c-0.178-0.534-0.417-0.976-0.719-1.327
			c-0.301-0.352-0.651-0.615-1.048-0.795c-0.397-0.176-0.822-0.265-1.27-0.265C14.262,26.134,13.823,26.222,13.419,26.398
			 M13.231,29.17c0.082-0.341,0.196-0.621,0.343-0.836c0.146-0.214,0.315-0.376,0.509-0.48c0.192-0.105,0.406-0.157,0.637-0.157
			c0.224,0,0.433,0.052,0.625,0.157c0.193,0.104,0.362,0.266,0.505,0.48c0.143,0.216,0.255,0.492,0.335,0.831
			c0.083,0.335,0.122,0.739,0.122,1.21c0,0.486-0.039,0.903-0.122,1.251c-0.08,0.348-0.191,0.635-0.331,0.858
			c-0.138,0.224-0.306,0.388-0.497,0.492c-0.193,0.104-0.402,0.156-0.626,0.156c-0.247,0-0.469-0.05-0.666-0.15
			c-0.197-0.101-0.368-0.261-0.51-0.481c-0.144-0.219-0.255-0.505-0.331-0.857c-0.078-0.352-0.117-0.774-0.117-1.269
			C13.11,29.912,13.151,29.51,13.231,29.17 M8.533,28.103v3.291H6.354c0.069-0.116,0.164-0.289,0.285-0.521
			c0.119-0.233,0.248-0.5,0.388-0.806c0.139-0.305,0.279-0.635,0.422-0.985c0.144-0.351,0.272-0.704,0.389-1.054
			c0.115-0.351,0.21-0.69,0.285-1.016c0.072-0.322,0.109-0.61,0.109-0.855l-1.704-0.231c0,0.021,0.002,0.044,0.006,0.063
			c0.004,0.019,0.005,0.041,0.005,0.063c0,0.393-0.042,0.821-0.126,1.28c-0.086,0.461-0.192,0.922-0.32,1.385
			c-0.127,0.464-0.268,0.918-0.423,1.362c-0.155,0.443-0.305,0.85-0.452,1.216c-0.146,0.368-0.28,0.683-0.399,0.944
			C4.7,32.503,4.616,32.685,4.57,32.785h3.871v1.809h1.564v-1.809h0.997l0.115-1.391h-1.112v-3.291H8.533z"/>
	</g>
</g>
</svg>
