<?xml version="1.0" encoding="utf-8"?>
<!-- Generator: Adobe Illustrator 21.0.0, SVG Export Plug-In . SVG Version: 6.00 Build 0)  -->
<svg version="1.1" id="Calque_1" xmlns="http://www.w3.org/2000/svg" xmlns:xlink="http://www.w3.org/1999/xlink" x="0px" y="0px"
	 viewBox="0 0 48 48" enable-background="new 0 0 48 48" xml:space="preserve">
<g>
	<path fill="#00A5E8" d="M36.763,48H11.237C5.041,48,0,42.959,0,36.764V11.236C0,5.041,5.041,0,11.237,0h25.526
		C42.959,0,48,5.041,48,11.236v25.527C48,42.959,42.959,48,36.763,48z M11.237,2C6.144,2,2,6.144,2,11.236v25.527
		C2,41.856,6.144,46,11.237,46h25.526C41.856,46,46,41.856,46,36.764V11.236C46,6.144,41.856,2,36.763,2H11.237z"/>
	<g>
		<g>
			<path fill="#00A5E8" d="M16.16,16.289c-0.144,0-0.245,0.002-0.303,0.008c-0.056,0.005-0.097,0.014-0.119,0.024v2.142
				c0.023,0.011,0.058,0.02,0.107,0.024c0.049,0.005,0.149,0.008,0.298,0.008c0.173,0,0.348-0.019,0.527-0.057
				c0.178-0.039,0.341-0.1,0.488-0.186c0.147-0.086,0.268-0.196,0.361-0.334c0.097-0.137,0.144-0.308,0.144-0.509
				c0-0.216-0.045-0.395-0.139-0.541c-0.093-0.146-0.21-0.26-0.354-0.346c-0.143-0.085-0.305-0.146-0.482-0.181
				C16.509,16.305,16.333,16.289,16.16,16.289 M14.507,15.404c0.069-0.017,0.225-0.047,0.47-0.092
				c0.243-0.044,0.544-0.065,0.906-0.065c0.401,0,0.785,0.037,1.148,0.116c0.365,0.075,0.684,0.202,0.96,0.374
				c0.273,0.172,0.494,0.398,0.657,0.673c0.163,0.275,0.245,0.61,0.245,1.002c0,0.395-0.083,0.729-0.249,0.999
				c-0.166,0.27-0.379,0.485-0.64,0.649c-0.26,0.162-0.555,0.278-0.883,0.35c-0.326,0.072-0.649,0.108-0.97,0.108
				c-0.139,0-0.276-0.008-0.413-0.025v1.736h-1.231V15.404z"/>
		</g>
		<polygon fill="#00A5E8" points="19.503,15.372 19.503,21.233 22.987,21.233 23.124,20.173 20.734,20.173 20.734,15.372 		"/>
		<g>
			<path fill="#00A5E8" d="M28.405,15.37v3.82c0,0.232-0.039,0.476-0.117,0.733c-0.077,0.256-0.208,0.487-0.395,0.698
				c-0.186,0.209-0.436,0.383-0.748,0.521c-0.313,0.138-0.708,0.206-1.183,0.206c-0.498,0-0.905-0.068-1.221-0.206
				c-0.316-0.138-0.564-0.314-0.744-0.525c-0.181-0.212-0.304-0.445-0.37-0.699c-0.066-0.253-0.099-0.496-0.099-0.728v-3.82h1.23
				v3.794c0,0.365,0.107,0.643,0.321,0.835c0.215,0.193,0.516,0.29,0.904,0.29c0.354,0,0.641-0.096,0.861-0.285
				c0.22-0.19,0.332-0.47,0.332-0.839V15.37H28.405z"/>
			<path fill="#00A5E8" d="M32.395,15.247c0.389,0,0.733,0.049,1.031,0.148c0.3,0.1,0.55,0.212,0.752,0.335
				c0.204,0.125,0.36,0.24,0.469,0.349c0.109,0.107,0.171,0.17,0.19,0.186l-0.8,0.761c-0.018-0.017-0.065-0.063-0.139-0.138
				c-0.074-0.073-0.18-0.153-0.314-0.234c-0.135-0.084-0.3-0.156-0.499-0.22c-0.198-0.063-0.431-0.095-0.701-0.095
				c-0.292,0-0.563,0.049-0.813,0.15c-0.25,0.098-0.465,0.234-0.645,0.408s-0.321,0.382-0.422,0.625
				c-0.099,0.241-0.15,0.503-0.15,0.785c0,0.28,0.045,0.542,0.138,0.786c0.092,0.243,0.223,0.453,0.396,0.631
				c0.171,0.18,0.384,0.321,0.636,0.423c0.252,0.102,0.538,0.153,0.86,0.153c0.362,0,0.65-0.054,0.865-0.162
				c0.215-0.107,0.38-0.229,0.497-0.367c0.118-0.137,0.197-0.274,0.237-0.41c0.04-0.133,0.063-0.231,0.068-0.292h-2.897l0.213-0.909
				h4.016v0.124c0,0.148-0.013,0.327-0.043,0.533c-0.028,0.208-0.083,0.424-0.162,0.653c-0.081,0.229-0.19,0.454-0.328,0.678
				c-0.138,0.222-0.317,0.424-0.537,0.603c-0.221,0.18-0.488,0.325-0.801,0.434c-0.313,0.111-0.681,0.165-1.104,0.165
				c-0.534,0-1.009-0.077-1.424-0.232c-0.416-0.154-0.767-0.369-1.054-0.644c-0.287-0.275-0.504-0.602-0.653-0.98
				c-0.15-0.376-0.224-0.787-0.224-1.228c0-0.429,0.08-0.829,0.241-1.198c0.161-0.369,0.387-0.688,0.68-0.959
				c0.292-0.27,0.644-0.48,1.054-0.632C31.441,15.322,31.896,15.247,32.395,15.247"/>
			<path fill="#00A5E8" d="M20.363,24.94c-0.189,0-0.32,0.003-0.398,0.011c-0.076,0.008-0.129,0.018-0.159,0.033v2.821
				c0.03,0.016,0.078,0.026,0.142,0.033c0.066,0.007,0.197,0.011,0.393,0.011c0.229,0,0.46-0.024,0.695-0.074
				c0.236-0.051,0.45-0.133,0.644-0.246c0.193-0.112,0.353-0.258,0.477-0.438c0.126-0.181,0.189-0.404,0.189-0.673
				c0-0.282-0.062-0.519-0.184-0.709c-0.12-0.191-0.276-0.345-0.466-0.456c-0.189-0.112-0.402-0.192-0.636-0.24
				C20.823,24.963,20.592,24.94,20.363,24.94 M18.185,23.775c0.091-0.023,0.296-0.062,0.618-0.12c0.32-0.057,0.72-0.087,1.195-0.087
				c0.529,0,1.033,0.052,1.512,0.153c0.48,0.101,0.902,0.266,1.265,0.496c0.36,0.228,0.651,0.525,0.867,0.887
				c0.214,0.364,0.322,0.803,0.322,1.32c0,0.521-0.111,0.96-0.33,1.316c-0.219,0.356-0.5,0.642-0.844,0.857
				c-0.343,0.213-0.731,0.368-1.162,0.462c-0.429,0.094-0.858,0.143-1.28,0.143c-0.182,0-0.363-0.012-0.544-0.034v2.287h-1.621
				V23.775z"/>
		</g>
		<polygon fill="#00A5E8" points="26.39,23.731 26.39,30.059 29.541,30.059 29.358,31.454 24.77,31.454 24.77,23.731 		"/>
		<path fill="#00A5E8" d="M33.335,26.531l-0.848,2.068h1.676L33.335,26.531z M33.335,23.318l3.774,8.136h-1.747l-0.702-1.581h-2.64
			l-0.713,1.581h-1.756L33.335,23.318z"/>
		<polygon fill="#00A5E8" points="40.73,26.791 38.683,23.612 37.256,24.231 39.919,28.175 39.919,31.454 41.54,31.454 
			41.54,28.175 44.237,24.231 42.809,23.612 		"/>
		<g>
			<path fill="#00A5E8" d="M9.771,21.247c-3.754,0-6.809,2.936-6.809,6.545c0,1.743,0.704,3.382,1.983,4.617
				c0.756,0.732,1.693,1.287,2.708,1.605c0.067,0.021,0.137,0.031,0.204,0.031c0.276,0,0.533-0.167,0.624-0.435
				c0.112-0.33-0.076-0.685-0.42-0.794c-0.82-0.258-1.576-0.706-2.187-1.296c-1.033-0.997-1.602-2.322-1.602-3.729
				c0-2.914,2.468-5.284,5.499-5.284c3.032,0,5.497,2.37,5.497,5.284c0,1.412-0.57,2.739-1.608,3.736
				c-0.398,0.345-1.387,1.035-1.98,1.035c-0.306,0-0.533-0.092-0.718-0.291c-0.469-0.5-0.572-1.521-0.568-2.228
				c1.14-0.056,2.045-0.958,2.045-2.064v-1.964H7.104v1.964c0,1.085,0.869,1.975,1.976,2.061c-0.005,0.844,0.118,2.229,0.904,3.073
				c0.433,0.465,1.019,0.71,1.696,0.71c1.269,0,2.713-1.232,2.873-1.372l0.022-0.02c1.292-1.238,2.006-2.886,2.006-4.641
				C16.581,24.183,13.525,21.247,9.771,21.247"/>
			<path fill="#FFFFFF" d="M9.667,27.564l0.134-0.099c0.1-0.074,0.149-0.148,0.149-0.221c0-0.059-0.023-0.113-0.071-0.157
				c-0.049-0.043-0.112-0.065-0.195-0.065c-0.079,0-0.142,0.02-0.187,0.058c-0.045,0.037-0.067,0.083-0.067,0.132
				c0,0.059,0.038,0.131,0.114,0.214L9.667,27.564z M9.471,28.084c-0.114,0.055-0.199,0.122-0.256,0.201
				c-0.057,0.079-0.085,0.158-0.085,0.241c0,0.104,0.034,0.187,0.104,0.253c0.071,0.065,0.167,0.099,0.284,0.099
				c0.079,0,0.153-0.015,0.226-0.045c0.072-0.029,0.151-0.08,0.236-0.147L9.471,28.084z M11.025,28.922l-0.302,0.372
				c-0.148-0.071-0.29-0.167-0.426-0.287c-0.105,0.09-0.217,0.157-0.334,0.201c-0.119,0.044-0.26,0.064-0.423,0.064
				c-0.325,0-0.568-0.088-0.731-0.263c-0.128-0.136-0.191-0.291-0.191-0.467c0-0.16,0.049-0.304,0.15-0.432
				c0.099-0.128,0.247-0.239,0.445-0.334c-0.088-0.102-0.155-0.197-0.2-0.288c-0.045-0.092-0.068-0.179-0.068-0.261
				c0-0.15,0.064-0.28,0.189-0.385c0.126-0.104,0.306-0.156,0.538-0.156c0.225,0,0.402,0.055,0.528,0.165
				c0.127,0.11,0.19,0.246,0.19,0.405c0,0.101-0.032,0.197-0.094,0.288c-0.063,0.09-0.19,0.192-0.38,0.309l0.362,0.457
				c0.043-0.072,0.079-0.167,0.109-0.283l0.451,0.098c-0.045,0.154-0.085,0.266-0.118,0.337c-0.032,0.071-0.068,0.131-0.106,0.179
				c0.055,0.049,0.127,0.105,0.216,0.164C10.919,28.863,10.982,28.903,11.025,28.922"/>
		</g>
	</g>
</g>
</svg>
