<?xml version="1.0" encoding="utf-8"?>
<!-- Generator: Adobe Illustrator 16.0.0, SVG Export Plug-In . SVG Version: 6.00 Build 0)  -->
<!DOCTYPE svg PUBLIC "-//W3C//DTD SVG 1.1//EN" "http://www.w3.org/Graphics/SVG/1.1/DTD/svg11.dtd">
<svg version="1.1" id="Calque_1" xmlns="http://www.w3.org/2000/svg" xmlns:xlink="http://www.w3.org/1999/xlink" x="0px" y="0px"
	 width="48px" height="48px" viewBox="0 0 48 48" enable-background="new 0 0 48 48" xml:space="preserve">
<g>
	<path fill="#00517D" d="M48,36.763C48,42.969,42.969,48,36.764,48H11.236C5.031,48,0,42.969,0,36.763V11.237
		C0,5.031,5.031,0,11.236,0h25.527C42.969,0,48,5.031,48,11.237V36.763z M46,11.237C46,6.135,41.865,2,36.764,2H11.236
		C6.135,2,2,6.135,2,11.237v25.526C2,41.865,6.135,46,11.236,46h25.527C41.865,46,46,41.865,46,36.763V11.237z"/>
	<path opacity="0.4" fill="#005480" d="M28.013,4.559h-2.783c-0.734,1.729-2.005,3.504-3.812,5.323
		c-1.808,1.821-3.89,3.36-6.246,4.623v4.7c1.392-0.577,2.917-1.427,4.579-2.554c1.663-1.125,2.985-2.229,3.972-3.31v30.991h4.29
		V4.559z"/>
	<g>
		<path fill="#005480" d="M14.813,23.074v1.613h-1.896v5.718h-1.883v-5.718h-1.09v-1.613h1.09l0.015-0.722
			c0.009-0.283,0.063-0.564,0.162-0.842c0.1-0.278,0.25-0.531,0.453-0.757s0.455-0.411,0.758-0.552
			c0.302-0.142,0.66-0.212,1.075-0.212c0.33,0,0.628,0.031,0.892,0.092c0.265,0.062,0.486,0.132,0.665,0.212
			c0.18,0.08,0.318,0.153,0.418,0.219c0.099,0.066,0.153,0.099,0.163,0.099l-0.708,1.331c-0.02-0.009-0.06-0.04-0.12-0.092
			c-0.062-0.052-0.14-0.102-0.233-0.149c-0.095-0.047-0.203-0.092-0.326-0.134c-0.122-0.042-0.26-0.064-0.41-0.064
			c-0.188,0-0.347,0.026-0.475,0.078c-0.127,0.052-0.226,0.12-0.297,0.205c-0.07,0.085-0.12,0.184-0.148,0.297
			s-0.043,0.231-0.043,0.354v0.637H14.813z"/>
		<path fill="#005480" d="M16.355,23.555c0.057-0.038,0.162-0.094,0.318-0.169c0.155-0.076,0.347-0.151,0.573-0.227
			s0.483-0.142,0.771-0.198c0.287-0.057,0.592-0.085,0.913-0.085c0.537,0,0.995,0.068,1.372,0.205
			c0.378,0.137,0.687,0.319,0.928,0.545c0.24,0.227,0.415,0.484,0.523,0.771c0.108,0.288,0.163,0.587,0.163,0.899l-0.043,3.468
			c0,0.273,0.01,0.498,0.028,0.672c0.019,0.175,0.043,0.319,0.071,0.432c0.028,0.113,0.061,0.205,0.099,0.276s0.071,0.134,0.1,0.191
			l-1.643,0.241c-0.057-0.142-0.097-0.269-0.12-0.382s-0.04-0.236-0.05-0.368c-0.037,0.038-0.102,0.099-0.19,0.184
			c-0.09,0.085-0.215,0.172-0.375,0.262c-0.161,0.09-0.359,0.167-0.595,0.233c-0.236,0.066-0.515,0.099-0.835,0.099
			c-0.415,0-0.788-0.076-1.118-0.227s-0.608-0.349-0.835-0.594c-0.227-0.246-0.401-0.524-0.523-0.835
			c-0.123-0.311-0.185-0.632-0.185-0.962c0-0.415,0.071-0.788,0.212-1.118c0.142-0.33,0.338-0.611,0.588-0.842
			c0.25-0.231,0.542-0.408,0.878-0.531c0.334-0.123,0.7-0.184,1.097-0.184c0.245,0,0.469,0.026,0.672,0.078
			c0.203,0.052,0.378,0.111,0.523,0.177c0.146,0.066,0.263,0.125,0.348,0.177s0.132,0.083,0.142,0.092
			c0-0.019,0.002-0.04,0.007-0.063s0.007-0.045,0.007-0.064c0-0.179-0.019-0.349-0.057-0.509c-0.038-0.16-0.106-0.302-0.205-0.425
			c-0.1-0.123-0.236-0.219-0.41-0.29c-0.175-0.071-0.403-0.106-0.687-0.106c-0.227,0-0.437,0.026-0.63,0.078
			c-0.193,0.052-0.366,0.108-0.517,0.17c-0.151,0.062-0.278,0.123-0.383,0.184c-0.104,0.062-0.179,0.106-0.227,0.134L16.355,23.555z
			 M17.474,27.943c0,0.132,0.025,0.265,0.077,0.396c0.052,0.132,0.135,0.252,0.248,0.361s0.255,0.198,0.425,0.269
			s0.368,0.106,0.595,0.106c0.235,0,0.44-0.035,0.615-0.106s0.32-0.161,0.438-0.269s0.208-0.231,0.27-0.368
			c0.062-0.136,0.092-0.271,0.092-0.403c0-0.292-0.12-0.559-0.361-0.799c-0.24-0.241-0.597-0.361-1.068-0.361
			c-0.245,0-0.453,0.036-0.623,0.106c-0.169,0.071-0.307,0.161-0.41,0.269s-0.18,0.233-0.227,0.375S17.474,27.801,17.474,27.943z"/>
		<path fill="#005480" d="M26.729,22.876c0.463,0,0.871,0.052,1.225,0.156s0.651,0.222,0.892,0.354
			c0.24,0.132,0.425,0.257,0.552,0.375c0.128,0.118,0.2,0.187,0.22,0.205l-1.033,1.288c-0.048-0.047-0.113-0.106-0.198-0.177
			c-0.085-0.07-0.196-0.141-0.333-0.212s-0.299-0.132-0.488-0.184c-0.188-0.052-0.41-0.078-0.665-0.078
			c-0.302,0-0.58,0.057-0.835,0.169s-0.474,0.264-0.658,0.452c-0.184,0.188-0.328,0.409-0.432,0.663s-0.155,0.522-0.155,0.804
			c0,0.339,0.054,0.642,0.162,0.91s0.257,0.494,0.446,0.677c0.188,0.183,0.412,0.324,0.672,0.423s0.54,0.148,0.843,0.148
			c0.273,0,0.517-0.035,0.729-0.106s0.394-0.148,0.545-0.233s0.264-0.165,0.34-0.241c0.075-0.075,0.118-0.118,0.127-0.127
			l1.104,1.321c-0.028,0.029-0.108,0.105-0.241,0.229c-0.132,0.124-0.32,0.252-0.565,0.385c-0.246,0.133-0.55,0.254-0.913,0.364
			c-0.363,0.109-0.795,0.164-1.295,0.164c-0.557,0-1.071-0.092-1.543-0.276c-0.472-0.184-0.883-0.444-1.231-0.779
			c-0.35-0.334-0.623-0.741-0.821-1.217c-0.197-0.476-0.297-1.007-0.297-1.592c0-0.557,0.097-1.071,0.29-1.542
			s0.462-0.88,0.807-1.224c0.345-0.345,0.753-0.613,1.225-0.807C25.673,22.973,26.183,22.876,26.729,22.876z"/>
		<path fill="#005480" d="M37.883,26.896c0,0.047-0.002,0.092-0.007,0.135s-0.007,0.087-0.007,0.134h-5.704
			c0.009,0.104,0.049,0.26,0.12,0.467c0.07,0.208,0.188,0.413,0.354,0.616c0.165,0.203,0.39,0.382,0.673,0.538
			s0.646,0.233,1.09,0.233c0.32,0,0.602-0.042,0.842-0.127s0.443-0.179,0.608-0.283s0.29-0.206,0.375-0.305
			c0.085-0.099,0.137-0.158,0.156-0.177l1.175,1.033c-0.057,0.076-0.153,0.191-0.29,0.347c-0.138,0.156-0.336,0.316-0.595,0.481
			c-0.26,0.165-0.588,0.309-0.983,0.432c-0.396,0.123-0.883,0.184-1.458,0.184c-0.557,0-1.078-0.095-1.564-0.283
			s-0.905-0.453-1.26-0.792c-0.354-0.34-0.632-0.748-0.835-1.225c-0.203-0.476-0.304-1.007-0.304-1.592
			c0-0.557,0.097-1.071,0.29-1.542s0.462-0.877,0.807-1.217c0.344-0.34,0.752-0.604,1.224-0.792
			c0.473-0.189,0.981-0.283,1.529-0.283c0.622,0,1.17,0.106,1.642,0.318s0.865,0.502,1.182,0.871s0.552,0.795,0.708,1.281
			C37.805,25.832,37.883,26.349,37.883,26.896z M36.1,25.834c-0.01-0.057-0.045-0.163-0.106-0.318s-0.163-0.313-0.304-0.474
			c-0.142-0.16-0.336-0.302-0.581-0.425c-0.245-0.122-0.557-0.184-0.934-0.184c-0.378,0-0.687,0.057-0.928,0.169
			c-0.24,0.113-0.437,0.246-0.587,0.396c-0.151,0.151-0.26,0.304-0.325,0.46c-0.066,0.156-0.113,0.281-0.142,0.375H36.1z"/>
	</g>
</g>
</svg>
