<?xml version="1.0" encoding="utf-8"?>
<!-- Generator: Adobe Illustrator 16.0.0, SVG Export Plug-In . SVG Version: 6.00 Build 0)  -->
<!DOCTYPE svg PUBLIC "-//W3C//DTD SVG 1.1//EN" "http://www.w3.org/Graphics/SVG/1.1/DTD/svg11.dtd">
<svg version="1.1" id="Calque_1" xmlns="http://www.w3.org/2000/svg" xmlns:xlink="http://www.w3.org/1999/xlink" x="0px" y="0px"
	 width="48px" height="48px" viewBox="0 0 48 48" enable-background="new 0 0 48 48" xml:space="preserve">
<g>
	<path fill="#00517D" d="M48,36.763C48,42.969,42.969,48,36.763,48H11.237C5.031,48,0,42.969,0,36.763V11.237
		C0,5.031,5.031,0,11.237,0h25.526C42.969,0,48,5.031,48,11.237V36.763z M46,11.237C46,6.135,41.865,2,36.763,2H11.237
		C6.135,2,2,6.135,2,11.237v25.526C2,41.865,6.135,46,11.237,46h25.526C41.865,46,46,41.865,46,36.763V11.237z"/>
	<g>
		<path fill="#005480" d="M15.827,5.886l-0.086,0.981h-1.994l-0.086,0.88c0.026-0.01,0.055-0.022,0.086-0.035
			c0.031-0.013,0.075-0.025,0.132-0.035c0.057-0.01,0.129-0.02,0.218-0.027c0.088-0.007,0.203-0.012,0.343-0.012
			c0.203,0,0.413,0.039,0.63,0.117c0.218,0.078,0.418,0.195,0.6,0.351c0.181,0.155,0.331,0.351,0.448,0.584
			c0.117,0.234,0.175,0.506,0.175,0.818c0,0.275-0.053,0.535-0.16,0.779s-0.257,0.457-0.452,0.639
			c-0.194,0.182-0.432,0.326-0.712,0.432c-0.28,0.107-0.592,0.16-0.935,0.16c-0.312,0-0.582-0.032-0.811-0.094
			c-0.228-0.063-0.42-0.133-0.576-0.214c-0.156-0.081-0.281-0.161-0.375-0.241c-0.093-0.081-0.158-0.142-0.194-0.183l0.717-0.748
			c0.026,0.026,0.068,0.066,0.128,0.121c0.06,0.054,0.139,0.109,0.238,0.164c0.098,0.054,0.219,0.103,0.362,0.144
			c0.143,0.042,0.313,0.063,0.51,0.063c0.156,0,0.301-0.026,0.436-0.078c0.135-0.052,0.253-0.126,0.354-0.222
			c0.102-0.096,0.182-0.209,0.242-0.339c0.06-0.129,0.089-0.272,0.089-0.428c0-0.135-0.031-0.264-0.093-0.386
			c-0.063-0.122-0.147-0.228-0.253-0.319c-0.106-0.091-0.232-0.164-0.378-0.218c-0.145-0.055-0.304-0.082-0.475-0.082
			c-0.208,0-0.387,0.015-0.537,0.046c-0.151,0.031-0.279,0.067-0.386,0.109c-0.106,0.042-0.196,0.087-0.269,0.136
			c-0.073,0.049-0.132,0.092-0.179,0.129l0.257-2.991H15.827z"/>
		<path fill="#005480" d="M16.708,10.862c0-0.192,0.063-0.351,0.19-0.475c0.127-0.124,0.282-0.187,0.463-0.187
			s0.336,0.063,0.464,0.187c0.127,0.125,0.19,0.283,0.19,0.475c0,0.192-0.063,0.349-0.19,0.472
			c-0.127,0.122-0.282,0.183-0.464,0.183s-0.336-0.062-0.463-0.183C16.771,11.211,16.708,11.055,16.708,10.862z"/>
		<path fill="#005480" d="M22.05,5.886l-0.086,0.981h-1.994l-0.086,0.88c0.026-0.01,0.055-0.022,0.086-0.035
			c0.031-0.013,0.075-0.025,0.132-0.035c0.057-0.01,0.129-0.02,0.218-0.027c0.088-0.007,0.203-0.012,0.343-0.012
			c0.203,0,0.413,0.039,0.631,0.117c0.218,0.078,0.418,0.195,0.6,0.351c0.181,0.155,0.331,0.351,0.448,0.584
			c0.117,0.234,0.175,0.506,0.175,0.818c0,0.275-0.053,0.535-0.16,0.779s-0.257,0.457-0.452,0.639
			c-0.194,0.182-0.432,0.326-0.712,0.432c-0.28,0.107-0.592,0.16-0.935,0.16c-0.311,0-0.581-0.032-0.81-0.094
			c-0.228-0.063-0.42-0.133-0.576-0.214c-0.156-0.081-0.281-0.161-0.375-0.241c-0.093-0.081-0.158-0.142-0.194-0.183l0.716-0.748
			c0.026,0.026,0.069,0.066,0.128,0.121c0.06,0.054,0.139,0.109,0.238,0.164c0.099,0.054,0.219,0.103,0.362,0.144
			c0.143,0.042,0.313,0.063,0.51,0.063c0.156,0,0.302-0.026,0.437-0.078c0.135-0.052,0.253-0.126,0.354-0.222
			c0.102-0.096,0.182-0.209,0.242-0.339c0.06-0.129,0.09-0.272,0.09-0.428c0-0.135-0.031-0.264-0.093-0.386
			c-0.063-0.122-0.147-0.228-0.253-0.319c-0.106-0.091-0.232-0.164-0.378-0.218c-0.145-0.055-0.304-0.082-0.475-0.082
			c-0.208,0-0.387,0.015-0.537,0.046c-0.151,0.031-0.279,0.067-0.386,0.109c-0.106,0.042-0.196,0.087-0.269,0.136
			c-0.073,0.049-0.132,0.092-0.179,0.129l0.257-2.991H22.05z"/>
		<path fill="#005480" d="M25.493,8.814v1.013H23V8.814H25.493z"/>
		<path fill="#005480" d="M29.208,6.026c-0.14,0.093-0.287,0.211-0.44,0.354c-0.153,0.143-0.301,0.293-0.444,0.452
			c-0.143,0.158-0.275,0.319-0.397,0.482c-0.122,0.164-0.22,0.313-0.292,0.448c0.088-0.057,0.202-0.114,0.342-0.172
			c0.14-0.057,0.338-0.085,0.592-0.085c0.234,0,0.462,0.044,0.686,0.132c0.223,0.088,0.422,0.217,0.596,0.386
			c0.174,0.169,0.314,0.374,0.42,0.616c0.106,0.241,0.16,0.515,0.16,0.821c0,0.296-0.054,0.57-0.164,0.821
			c-0.109,0.252-0.259,0.471-0.451,0.655c-0.192,0.184-0.422,0.327-0.689,0.428c-0.268,0.102-0.557,0.152-0.869,0.152
			c-0.374,0-0.702-0.06-0.985-0.18c-0.283-0.119-0.521-0.276-0.713-0.471c-0.191-0.195-0.337-0.417-0.436-0.666
			c-0.099-0.25-0.148-0.501-0.148-0.756c0-0.322,0.042-0.632,0.125-0.931c0.083-0.298,0.189-0.579,0.319-0.841
			c0.13-0.262,0.277-0.507,0.44-0.736c0.163-0.229,0.329-0.433,0.495-0.611c0.166-0.179,0.322-0.335,0.467-0.467
			c0.145-0.133,0.268-0.235,0.366-0.308L29.208,6.026z M27.089,9.492c0,0.135,0.026,0.266,0.078,0.393
			c0.052,0.128,0.128,0.24,0.227,0.339c0.099,0.099,0.222,0.178,0.368,0.238c0.146,0.06,0.313,0.089,0.5,0.089
			c0.146,0,0.284-0.03,0.414-0.089c0.13-0.06,0.243-0.14,0.336-0.241c0.094-0.102,0.168-0.216,0.223-0.343
			c0.055-0.127,0.082-0.261,0.082-0.401c0-0.171-0.029-0.325-0.086-0.459c-0.057-0.135-0.135-0.25-0.234-0.347
			s-0.215-0.17-0.348-0.222c-0.133-0.052-0.272-0.078-0.418-0.078c-0.344,0-0.621,0.103-0.829,0.308
			C27.194,8.883,27.089,9.154,27.089,9.492z"/>
		<path fill="#005480" d="M30.852,10.862c0-0.192,0.063-0.351,0.19-0.475c0.127-0.124,0.282-0.187,0.463-0.187
			s0.336,0.063,0.463,0.187c0.127,0.125,0.191,0.283,0.191,0.475c0,0.192-0.063,0.349-0.191,0.472
			c-0.127,0.122-0.282,0.183-0.463,0.183s-0.336-0.062-0.463-0.183C30.916,11.211,30.852,11.055,30.852,10.862z"/>
		<path fill="#005480" d="M36.195,5.886l-0.086,0.981h-1.994l-0.086,0.88c0.026-0.01,0.055-0.022,0.086-0.035
			c0.031-0.013,0.075-0.025,0.132-0.035c0.057-0.01,0.129-0.02,0.218-0.027c0.088-0.007,0.203-0.012,0.343-0.012
			c0.203,0,0.413,0.039,0.631,0.117c0.218,0.078,0.418,0.195,0.6,0.351c0.181,0.155,0.331,0.351,0.447,0.584
			c0.117,0.234,0.176,0.506,0.176,0.818c0,0.275-0.053,0.535-0.16,0.779s-0.257,0.457-0.452,0.639
			c-0.194,0.182-0.432,0.326-0.712,0.432c-0.28,0.107-0.592,0.16-0.935,0.16c-0.311,0-0.581-0.032-0.81-0.094
			c-0.228-0.063-0.42-0.133-0.576-0.214c-0.156-0.081-0.281-0.161-0.375-0.241c-0.093-0.081-0.158-0.142-0.194-0.183l0.716-0.748
			c0.026,0.026,0.069,0.066,0.128,0.121c0.06,0.054,0.139,0.109,0.238,0.164c0.099,0.054,0.219,0.103,0.362,0.144
			c0.143,0.042,0.313,0.063,0.51,0.063c0.156,0,0.302-0.026,0.437-0.078c0.135-0.052,0.253-0.126,0.354-0.222
			c0.102-0.096,0.182-0.209,0.242-0.339c0.06-0.129,0.09-0.272,0.09-0.428c0-0.135-0.032-0.264-0.093-0.386
			c-0.063-0.122-0.147-0.228-0.253-0.319c-0.106-0.091-0.232-0.164-0.378-0.218c-0.145-0.055-0.304-0.082-0.475-0.082
			c-0.208,0-0.387,0.015-0.537,0.046c-0.151,0.031-0.279,0.067-0.386,0.109c-0.106,0.042-0.196,0.087-0.269,0.136
			c-0.073,0.049-0.133,0.092-0.179,0.129l0.257-2.991H36.195z"/>
	</g>
	<g>
		<path fill="#005480" d="M11.685,38.309c0.053-0.014,0.174-0.038,0.363-0.074c0.19-0.036,0.424-0.053,0.704-0.053
			c0.312,0,0.608,0.031,0.89,0.093c0.282,0.063,0.53,0.164,0.743,0.304c0.214,0.14,0.384,0.32,0.51,0.543
			c0.127,0.222,0.189,0.49,0.189,0.806c0,0.32-0.064,0.589-0.192,0.807c-0.13,0.218-0.294,0.393-0.497,0.523
			c-0.202,0.131-0.43,0.225-0.684,0.284c-0.252,0.057-0.504,0.086-0.753,0.086c-0.106,0-0.213-0.006-0.32-0.02v1.4h-0.953V38.309z
			 M12.967,39.022c-0.112,0-0.189,0.002-0.234,0.006c-0.045,0.005-0.077,0.011-0.094,0.02v1.728
			c0.018,0.008,0.046,0.015,0.084,0.019c0.038,0.005,0.115,0.007,0.23,0.007c0.134,0,0.271-0.016,0.409-0.047
			s0.265-0.081,0.378-0.15c0.114-0.068,0.207-0.158,0.282-0.269c0.073-0.11,0.109-0.248,0.109-0.412
			c0-0.173-0.035-0.318-0.107-0.435c-0.071-0.117-0.163-0.21-0.275-0.279c-0.111-0.068-0.236-0.117-0.375-0.146
			C13.237,39.037,13.101,39.022,12.967,39.022z"/>
		<path fill="#005480" d="M17.877,38.182c0.347,0,0.673,0.063,0.977,0.189c0.305,0.127,0.569,0.3,0.794,0.521
			c0.224,0.22,0.401,0.479,0.529,0.78c0.129,0.3,0.194,0.623,0.194,0.97c0,0.346-0.065,0.668-0.196,0.966
			c-0.131,0.298-0.31,0.558-0.534,0.78c-0.225,0.223-0.489,0.396-0.793,0.523c-0.305,0.127-0.63,0.19-0.976,0.19
			c-0.338,0-0.657-0.06-0.957-0.18c-0.301-0.12-0.563-0.288-0.79-0.503c-0.228-0.215-0.408-0.474-0.541-0.776
			c-0.133-0.302-0.2-0.636-0.2-1c0-0.347,0.065-0.669,0.193-0.967c0.129-0.297,0.306-0.557,0.53-0.779
			c0.225-0.223,0.488-0.397,0.79-0.524C17.2,38.246,17.526,38.182,17.877,38.182z M16.385,40.642c0,0.235,0.04,0.448,0.123,0.636
			c0.082,0.189,0.191,0.353,0.33,0.49c0.138,0.138,0.296,0.243,0.477,0.316c0.179,0.074,0.369,0.11,0.569,0.11
			c0.2,0,0.391-0.038,0.57-0.114c0.18-0.075,0.338-0.181,0.474-0.319c0.135-0.138,0.243-0.302,0.323-0.494
			c0.08-0.191,0.12-0.402,0.12-0.633c0-0.23-0.039-0.441-0.116-0.633c-0.078-0.19-0.185-0.353-0.32-0.486
			c-0.135-0.133-0.293-0.236-0.474-0.31c-0.18-0.073-0.372-0.109-0.576-0.109c-0.208,0-0.404,0.037-0.586,0.109
			c-0.182,0.074-0.341,0.177-0.477,0.31c-0.135,0.133-0.242,0.296-0.32,0.486C16.423,40.193,16.385,40.406,16.385,40.642z"/>
		<path fill="#005480" d="M24.67,38.282v3.08c0,0.186-0.03,0.383-0.09,0.589c-0.06,0.207-0.163,0.395-0.307,0.563
			c-0.145,0.168-0.338,0.309-0.581,0.42c-0.242,0.111-0.548,0.167-0.916,0.167c-0.386,0-0.702-0.056-0.947-0.167
			c-0.244-0.111-0.436-0.252-0.577-0.423c-0.14-0.171-0.235-0.359-0.287-0.563c-0.051-0.205-0.077-0.401-0.077-0.587v-3.08h0.954
			v3.06c0,0.293,0.083,0.518,0.249,0.673c0.166,0.156,0.399,0.233,0.701,0.233c0.274,0,0.497-0.077,0.667-0.23
			c0.17-0.154,0.256-0.379,0.256-0.676v-3.06H24.67z"/>
		<path fill="#005480" d="M27.609,38.182c0.298,0,0.556,0.033,0.776,0.1c0.22,0.066,0.404,0.141,0.55,0.22s0.257,0.153,0.33,0.22
			s0.112,0.102,0.116,0.106l-0.533,0.733c-0.014-0.008-0.048-0.038-0.104-0.089c-0.056-0.051-0.133-0.104-0.234-0.16
			c-0.099-0.055-0.221-0.105-0.363-0.15c-0.143-0.044-0.304-0.066-0.487-0.066c-0.213,0-0.41,0.038-0.589,0.113
			c-0.18,0.075-0.337,0.18-0.47,0.313s-0.238,0.292-0.313,0.476c-0.076,0.185-0.114,0.389-0.114,0.61
			c0,0.231,0.038,0.444,0.114,0.64c0.075,0.195,0.18,0.363,0.313,0.503c0.133,0.14,0.291,0.249,0.47,0.327
			c0.179,0.077,0.376,0.116,0.589,0.116c0.205,0,0.384-0.023,0.537-0.07c0.154-0.046,0.283-0.1,0.387-0.163
			c0.104-0.062,0.187-0.121,0.247-0.177c0.06-0.055,0.098-0.094,0.116-0.116l0.533,0.74c-0.018,0.013-0.069,0.058-0.153,0.133
			c-0.085,0.076-0.204,0.154-0.357,0.237c-0.153,0.082-0.343,0.156-0.57,0.223s-0.494,0.1-0.8,0.1c-0.33,0-0.641-0.057-0.938-0.17
			c-0.294-0.114-0.552-0.277-0.772-0.49c-0.22-0.213-0.395-0.473-0.523-0.78c-0.129-0.306-0.194-0.653-0.194-1.039
			c0-0.351,0.062-0.675,0.187-0.974c0.125-0.298,0.294-0.555,0.51-0.772c0.216-0.218,0.472-0.388,0.77-0.51
			C26.94,38.243,27.263,38.182,27.609,38.182z"/>
		<path fill="#005480" d="M32.769,38.275l0.1,0.854h-1.98v1.354h1.76l-0.094,0.826h-1.667v0.847h2.206l-0.146,0.853h-3.013v-4.733
			H32.769z"/>
		<path fill="#005480" d="M35.108,38.182c0.204,0,0.397,0.023,0.58,0.07c0.183,0.047,0.345,0.102,0.487,0.163
			c0.142,0.063,0.26,0.124,0.354,0.184c0.093,0.06,0.155,0.101,0.187,0.123l-0.44,0.767c-0.168-0.129-0.35-0.237-0.546-0.324
			c-0.195-0.086-0.431-0.13-0.706-0.13c-0.213,0-0.385,0.042-0.517,0.126c-0.131,0.084-0.196,0.207-0.196,0.367
			c0,0.129,0.055,0.227,0.167,0.297c0.111,0.069,0.253,0.128,0.423,0.18c0.17,0.051,0.361,0.105,0.569,0.164
			c0.209,0.058,0.412,0.14,0.607,0.246c0.235,0.129,0.416,0.286,0.543,0.47c0.126,0.185,0.19,0.421,0.19,0.71
			c0,0.227-0.042,0.433-0.127,0.62c-0.084,0.187-0.206,0.346-0.363,0.477c-0.157,0.131-0.35,0.232-0.576,0.303
			c-0.227,0.071-0.485,0.107-0.774,0.107c-0.208,0-0.405-0.023-0.589-0.07c-0.184-0.047-0.351-0.103-0.5-0.167
			c-0.148-0.064-0.28-0.131-0.393-0.2c-0.113-0.069-0.202-0.128-0.264-0.177l0.474-0.8c0.013,0.014,0.056,0.049,0.129,0.107
			c0.074,0.058,0.167,0.118,0.28,0.18c0.113,0.062,0.247,0.117,0.4,0.166c0.153,0.05,0.317,0.074,0.49,0.074
			c0.542,0,0.813-0.175,0.813-0.527c0-0.15-0.055-0.266-0.163-0.346c-0.109-0.081-0.247-0.149-0.414-0.207
			c-0.167-0.058-0.352-0.115-0.556-0.17c-0.205-0.056-0.403-0.133-0.593-0.23c-0.151-0.075-0.275-0.154-0.374-0.237
			c-0.098-0.082-0.175-0.168-0.233-0.26c-0.058-0.091-0.099-0.188-0.12-0.29c-0.022-0.103-0.033-0.211-0.033-0.327
			c0-0.244,0.047-0.457,0.143-0.637c0.096-0.179,0.226-0.329,0.39-0.449c0.164-0.121,0.354-0.209,0.57-0.267
			C34.64,38.211,34.869,38.182,35.108,38.182z"/>
	</g>
	<g>
		<path fill="#005480" d="M28.674,14.713h-8.906c-0.741,0-1.349,0.608-1.349,1.35v17.277c0,0.741,0.608,1.349,1.349,1.349h8.906
			c0.741,0,1.349-0.608,1.349-1.349V16.063C30.023,15.321,29.416,14.713,28.674,14.713L28.674,14.713z M22.798,15.685h2.848
			c0.092,0,0.164,0.073,0.164,0.165c0,0.089-0.072,0.161-0.164,0.161h-2.848c-0.092,0-0.166-0.072-0.166-0.161
			C22.632,15.758,22.706,15.685,22.798,15.685L22.798,15.685z M24.221,34.014c-0.374,0-0.674-0.301-0.674-0.675
			c0-0.373,0.3-0.674,0.674-0.674s0.674,0.301,0.674,0.674C24.896,33.713,24.595,34.014,24.221,34.014L24.221,34.014z
			 M29.084,32.191h-9.726V16.854h9.726V32.191z M29.084,32.191"/>
	</g>
</g>
</svg>
