<?xml version="1.0" encoding="utf-8"?>
<!-- Generator: Adobe Illustrator 16.0.0, SVG Export Plug-In . SVG Version: 6.00 Build 0)  -->
<!DOCTYPE svg PUBLIC "-//W3C//DTD SVG 1.1//EN" "http://www.w3.org/Graphics/SVG/1.1/DTD/svg11.dtd">
<svg version="1.1" id="Calque_1" xmlns="http://www.w3.org/2000/svg" xmlns:xlink="http://www.w3.org/1999/xlink" x="0px" y="0px"
	 width="48px" height="48px" viewBox="0 0 48 48" enable-background="new 0 0 48 48" xml:space="preserve">
<path fill="#00517D" d="M36.762,48H11.238C5.041,48,0,42.959,0,36.764V11.236C0,5.041,5.041,0,11.238,0h25.523
	C42.959,0,48,5.041,48,11.236v25.527C48,42.959,42.959,48,36.762,48z M11.238,2C6.145,2,2,6.144,2,11.236v25.527
	C2,41.856,6.145,46,11.238,46h25.523C41.855,46,46,41.856,46,36.764V11.236C46,6.144,41.855,2,36.762,2H11.238z"/>
<g>
	<path fill="#005480" d="M28.719,20.513l-0.01-0.008c-0.276-0.273-0.276-0.711,0-0.983l0.768-0.754c0.278-0.27,0.725-0.27,1.002,0
		l0.012,0.012c0.275,0.27,0.275,0.709,0,0.981l-0.768,0.753C29.442,20.783,28.996,20.783,28.719,20.513 M32.895,24.438
		c0,0.383-0.318,0.694-0.707,0.694h-1.089c-0.393,0-0.708-0.311-0.708-0.694v-0.016c0-0.382,0.315-0.693,0.708-0.693h1.089
		c0.389,0,0.707,0.312,0.707,0.693V24.438z M28.709,28.445l0.01-0.012c0.277-0.27,0.724-0.27,1.004,0l0.768,0.756
		c0.275,0.27,0.275,0.708,0,0.98l-0.012,0.009c-0.277,0.272-0.724,0.272-1.002,0l-0.768-0.752
		C28.433,29.155,28.433,28.715,28.709,28.445 M25.382,31.799c0,0.382-0.316,0.692-0.708,0.692h-0.016
		c-0.391,0-0.707-0.311-0.707-0.692v-1.065c0-0.385,0.316-0.694,0.707-0.694h0.016c0.392,0,0.708,0.309,0.708,0.694V31.799z
		 M20.614,28.433l0.009,0.012c0.278,0.27,0.278,0.709,0,0.981l-0.767,0.752c-0.277,0.272-0.725,0.272-1.001,0l-0.01-0.009
		c-0.279-0.272-0.279-0.71,0-0.98l0.766-0.756C19.889,28.164,20.338,28.164,20.614,28.433 M18.942,24.438
		c0,0.383-0.317,0.694-0.708,0.694h-1.088c-0.391,0-0.707-0.311-0.707-0.694v-0.016c0-0.382,0.316-0.693,0.707-0.693h1.088
		c0.391,0,0.708,0.312,0.708,0.693V24.438z M20.623,20.505l-0.009,0.008c-0.276,0.27-0.726,0.27-1.003,0l-0.766-0.753
		c-0.279-0.271-0.279-0.711,0-0.981l0.01-0.012c0.276-0.27,0.725-0.27,1.001,0l0.767,0.754
		C20.901,19.793,20.901,20.231,20.623,20.505 M25.382,18.128c0,0.382-0.316,0.693-0.708,0.693h-0.016
		c-0.391,0-0.707-0.311-0.707-0.693v-1.065c0-0.383,0.316-0.694,0.707-0.694h0.016c0.392,0,0.708,0.311,0.708,0.694V18.128z
		 M24.666,26.927c-1.382,0-2.503-1.1-2.503-2.453c0-1.357,1.121-2.455,2.503-2.455c1.385,0,2.506,1.098,2.506,2.455
		C27.172,25.828,26.051,26.927,24.666,26.927 M24.666,20.618c-2.174,0-3.935,1.728-3.935,3.856c0,2.129,1.761,3.857,3.935,3.857
		s3.937-1.728,3.937-3.857C28.603,22.346,26.84,20.618,24.666,20.618"/>
	<path fill="#005480" d="M24.674,32.676h-0.016c-0.492,0-0.893-0.394-0.893-0.877v-1.065c0-0.484,0.4-0.879,0.893-0.879
		c0.508,0,0.908,0.395,0.908,0.879v1.065C25.566,32.282,25.166,32.676,24.674,32.676z M24.674,30.224
		c-0.304,0-0.539,0.229-0.539,0.51v1.065c0,0.28,0.235,0.508,0.523,0.508h0.016c0.289,0,0.523-0.228,0.523-0.508v-1.065
		C25.197,30.453,24.963,30.224,24.674,30.224z M29.979,30.567c-0.238,0-0.461-0.091-0.631-0.257l-0.768-0.752
		c-0.17-0.167-0.264-0.388-0.263-0.624c0.001-0.235,0.094-0.456,0.263-0.621c0.355-0.353,0.93-0.341,1.27-0.013l0.771,0.758
		c0.168,0.165,0.261,0.385,0.261,0.619c0.001,0.235-0.092,0.457-0.26,0.624C30.439,30.476,30.216,30.567,29.979,30.567z
		 M29.219,28.416c-0.141,0-0.272,0.053-0.372,0.15c-0.106,0.107-0.16,0.234-0.16,0.369c-0.001,0.136,0.054,0.264,0.152,0.36
		l0.767,0.752c0.201,0.195,0.546,0.195,0.744,0c0.109-0.105,0.163-0.233,0.162-0.369c0-0.135-0.053-0.261-0.15-0.356l-0.769-0.757
		C29.494,28.469,29.36,28.416,29.219,28.416z M19.355,30.567c-0.237,0-0.461-0.091-0.629-0.257
		c-0.182-0.175-0.275-0.397-0.275-0.632c0.001-0.235,0.096-0.455,0.266-0.62l0.764-0.755c0.342-0.331,0.924-0.33,1.263-0.001
		l0.03,0.037c0.148,0.141,0.242,0.361,0.242,0.597c0.001,0.236-0.093,0.458-0.264,0.624l-0.766,0.752
		C19.816,30.476,19.594,30.567,19.355,30.567z M20.113,28.416c-0.141,0-0.273,0.053-0.374,0.15l-0.765,0.755
		c-0.1,0.097-0.154,0.223-0.154,0.357c0,0.135,0.055,0.263,0.154,0.36c0.219,0.214,0.555,0.204,0.752,0.009l0.768-0.752
		c0.1-0.097,0.153-0.225,0.153-0.36c-0.001-0.135-0.055-0.261-0.153-0.357l-0.029-0.037C20.387,28.469,20.254,28.416,20.113,28.416z
		 M24.666,28.516c-2.271,0-4.119-1.813-4.119-4.042c0-2.228,1.848-4.041,4.119-4.041c2.272,0,4.121,1.813,4.121,4.041
		C28.787,26.703,26.938,28.516,24.666,28.516z M24.666,20.803c-2.067,0-3.75,1.647-3.75,3.672s1.683,3.672,3.75,3.672
		c2.069,0,3.752-1.647,3.752-3.672S26.735,20.803,24.666,20.803z M24.666,27.112c-1.481,0-2.688-1.183-2.688-2.637
		c0-1.456,1.206-2.64,2.688-2.64c1.483,0,2.689,1.184,2.689,2.64C27.355,25.929,26.149,27.112,24.666,27.112z M24.666,22.204
		c-1.278,0-2.318,1.019-2.318,2.271c0,1.25,1.04,2.268,2.318,2.268c1.279,0,2.32-1.018,2.32-2.268
		C26.986,23.223,25.945,22.204,24.666,22.204z M32.188,25.316h-1.089c-0.492,0-0.893-0.394-0.893-0.878c0-0.5,0.4-0.894,0.893-0.894
		h1.089c0.492,0,0.892,0.394,0.892,0.878C33.079,24.922,32.68,25.316,32.188,25.316z M31.099,23.913
		c-0.288,0-0.523,0.228-0.523,0.509c0,0.297,0.235,0.525,0.523,0.525h1.089c0.288,0,0.522-0.229,0.522-0.509
		c0-0.297-0.234-0.525-0.522-0.525H31.099z M18.234,25.316h-1.088c-0.492,0-0.893-0.394-0.893-0.878c0-0.5,0.4-0.894,0.893-0.894
		h1.088c0.492,0,0.893,0.394,0.893,0.878C19.127,24.922,18.727,25.316,18.234,25.316z M17.146,23.913
		c-0.289,0-0.523,0.228-0.523,0.509c0,0.297,0.234,0.525,0.523,0.525h1.088c0.289,0,0.523-0.229,0.523-0.509
		c0-0.297-0.234-0.525-0.523-0.525H17.146z M29.219,20.9c-0.236,0-0.461-0.091-0.629-0.255c-0.18-0.177-0.273-0.399-0.272-0.634
		c0.001-0.234,0.094-0.455,0.263-0.621l0.768-0.754c0.34-0.329,0.923-0.329,1.26,0c0.181,0.177,0.273,0.397,0.273,0.632
		c0.001,0.236-0.092,0.458-0.26,0.624l-0.77,0.753C29.68,20.81,29.457,20.9,29.219,20.9z M29.979,18.75
		c-0.141,0-0.273,0.053-0.373,0.15l-0.767,0.754c-0.099,0.096-0.152,0.223-0.152,0.358c-0.001,0.136,0.054,0.264,0.153,0.362
		c0.215,0.209,0.553,0.202,0.754,0.007l0.768-0.752c0.098-0.096,0.151-0.224,0.15-0.36c0-0.135-0.053-0.262-0.15-0.357
		C30.251,18.803,30.119,18.75,29.979,18.75z M20.113,20.9c-0.238,0-0.462-0.091-0.631-0.255l-0.767-0.754
		c-0.171-0.166-0.265-0.388-0.265-0.624c0.001-0.235,0.096-0.456,0.266-0.621c0.357-0.351,0.934-0.339,1.269-0.011l0.767,0.755
		c0.17,0.165,0.264,0.386,0.264,0.621c0.001,0.235-0.093,0.458-0.264,0.625C20.574,20.81,20.351,20.9,20.113,20.9z M19.355,18.75
		c-0.141,0-0.271,0.053-0.371,0.15c-0.109,0.107-0.164,0.234-0.164,0.369c0,0.136,0.055,0.264,0.154,0.36l0.766,0.754
		c0.199,0.192,0.547,0.193,0.745,0c0.107-0.105,0.162-0.234,0.162-0.37c-0.001-0.135-0.055-0.262-0.153-0.357l-0.768-0.755
		C19.629,18.803,19.496,18.75,19.355,18.75z M24.674,19.006h-0.016c-0.492,0-0.893-0.394-0.893-0.877v-1.065
		c0-0.484,0.4-0.878,0.893-0.878c0.508,0,0.908,0.394,0.908,0.878v1.065C25.566,18.612,25.166,19.006,24.674,19.006z M24.674,16.554
		c-0.304,0-0.539,0.229-0.539,0.509v1.065c0,0.28,0.235,0.508,0.523,0.508h0.016c0.289,0,0.523-0.228,0.523-0.508v-1.065
		C25.197,16.782,24.963,16.554,24.674,16.554z"/>
</g>
<g>
	<path fill="#005480" d="M24.222,37.067c0.285,0,0.537,0.031,0.755,0.095c0.219,0.062,0.402,0.132,0.55,0.213
		c0.149,0.079,0.263,0.154,0.341,0.226c0.079,0.072,0.124,0.113,0.135,0.124l-0.637,0.778c-0.029-0.027-0.068-0.063-0.122-0.106
		c-0.052-0.042-0.12-0.085-0.204-0.128c-0.086-0.042-0.185-0.079-0.301-0.111c-0.117-0.031-0.255-0.047-0.412-0.047
		c-0.186,0-0.357,0.034-0.516,0.101c-0.156,0.07-0.293,0.161-0.404,0.274c-0.114,0.114-0.203,0.246-0.266,0.399
		c-0.066,0.155-0.099,0.316-0.099,0.487c0,0.206,0.034,0.388,0.101,0.549c0.068,0.164,0.16,0.299,0.275,0.411
		c0.117,0.111,0.256,0.196,0.415,0.257c0.159,0.059,0.333,0.088,0.521,0.088c0.168,0,0.316-0.02,0.448-0.065
		c0.132-0.04,0.243-0.088,0.337-0.14c0.092-0.052,0.163-0.101,0.209-0.144c0.047-0.046,0.072-0.072,0.079-0.08l0.681,0.8
		c-0.018,0.019-0.066,0.063-0.148,0.138c-0.081,0.075-0.198,0.152-0.348,0.232c-0.153,0.08-0.341,0.154-0.564,0.221
		c-0.224,0.064-0.49,0.099-0.799,0.099c-0.344,0-0.66-0.057-0.951-0.167s-0.545-0.269-0.76-0.471
		c-0.215-0.202-0.384-0.447-0.506-0.736c-0.123-0.287-0.184-0.61-0.184-0.962c0-0.336,0.059-0.647,0.178-0.932
		c0.121-0.286,0.285-0.533,0.498-0.742c0.213-0.206,0.464-0.369,0.756-0.485C23.57,37.126,23.885,37.067,24.222,37.067"/>
	<path fill="#005480" d="M29.068,40.678c0.214,0,0.396-0.027,0.544-0.082c0.15-0.055,0.222-0.13,0.222-0.227v-2.086
		c-0.039-0.024-0.085-0.048-0.135-0.074c-0.049-0.025-0.114-0.048-0.193-0.073c-0.078-0.022-0.17-0.041-0.277-0.054
		c-0.109-0.015-0.236-0.022-0.39-0.022c-0.174,0-0.337,0.036-0.487,0.108c-0.153,0.071-0.285,0.165-0.399,0.28
		c-0.111,0.119-0.202,0.251-0.269,0.4c-0.067,0.147-0.102,0.3-0.102,0.452c0,0.491,0.135,0.843,0.406,1.057
		C28.259,40.57,28.619,40.678,29.068,40.678 M29.834,35.552h1.152v5.185c0,0.103,0.008,0.209,0.02,0.32
		c0.01,0.112,0.038,0.209,0.088,0.295c-0.07,0.034-0.167,0.073-0.295,0.116c-0.123,0.042-0.269,0.084-0.434,0.124
		c-0.16,0.039-0.338,0.074-0.531,0.103c-0.19,0.029-0.383,0.042-0.576,0.042c-0.337,0-0.676-0.036-1.012-0.107
		c-0.34-0.071-0.646-0.197-0.916-0.379c-0.274-0.183-0.498-0.435-0.668-0.754c-0.172-0.318-0.258-0.724-0.258-1.214
		c0-0.303,0.055-0.587,0.165-0.856c0.111-0.266,0.267-0.501,0.466-0.704c0.202-0.205,0.442-0.363,0.717-0.48
		c0.277-0.117,0.582-0.175,0.913-0.175c0.174,0,0.331,0.01,0.466,0.035c0.14,0.022,0.255,0.048,0.352,0.077
		c0.096,0.027,0.174,0.057,0.234,0.085c0.063,0.029,0.102,0.047,0.117,0.059V35.552z"/>
</g>
<polygon fill="#005480" points="34.845,35.263 31.432,42.387 32.007,42.387 35.431,35.263 "/>
<path fill="#005480" d="M35.814,38.008c0-0.109-0.007-0.218-0.022-0.331c-0.015-0.111-0.054-0.205-0.117-0.285
	c0.163-0.064,0.403-0.133,0.717-0.209c0.314-0.079,0.719-0.116,1.212-0.116c0.222,0,0.418,0.02,0.586,0.055
	c0.168,0.038,0.313,0.078,0.43,0.124c0.113,0.047,0.205,0.09,0.274,0.129c0.066,0.041,0.109,0.064,0.127,0.077
	c0.021-0.018,0.071-0.046,0.151-0.09c0.077-0.043,0.174-0.085,0.293-0.128c0.116-0.043,0.251-0.081,0.41-0.115
	c0.157-0.034,0.328-0.051,0.514-0.051c0.361,0,0.664,0.048,0.909,0.146c0.246,0.095,0.441,0.223,0.589,0.385
	c0.148,0.158,0.252,0.344,0.314,0.556c0.062,0.21,0.092,0.429,0.092,0.659v2.804h-1.162v-2.78c0-0.108-0.012-0.209-0.033-0.308
	c-0.025-0.096-0.063-0.181-0.119-0.256c-0.057-0.073-0.133-0.131-0.232-0.174c-0.098-0.043-0.222-0.065-0.375-0.065
	c-0.255,0-0.442,0.025-0.563,0.074c-0.119,0.049-0.199,0.084-0.239,0.107c0.017,0.051,0.031,0.113,0.043,0.189
	c0.012,0.073,0.018,0.222,0.018,0.445v2.77h-1.152v-2.77c0-0.091-0.012-0.189-0.034-0.292c-0.022-0.102-0.068-0.196-0.132-0.277
	c-0.063-0.083-0.152-0.152-0.266-0.205c-0.113-0.055-0.261-0.083-0.442-0.083c-0.197,0-0.349,0.018-0.453,0.046
	c-0.104,0.034-0.165,0.054-0.182,0.065v3.515h-1.154V38.008z"/>
<path fill="#005480" d="M42.835,37.513l0.55-0.495c0.724-0.649,1.099-1.052,1.099-1.488c0-0.325-0.209-0.59-0.664-0.59
	c-0.305,0-0.565,0.146-0.731,0.265l-0.184-0.392c0.236-0.19,0.627-0.361,1.064-0.361c0.82,0,1.16,0.515,1.16,0.966
	c0,0.651-0.497,1.123-1.16,1.687l-0.271,0.238v0.018h1.493v0.47h-2.355V37.513z"/>
<polygon fill="#005480" points="4.445,8.186 4.445,13.403 7.484,13.403 7.605,12.462 5.518,12.462 5.518,8.186 "/>
<g>
	<path fill="#005480" d="M12.217,8.186v3.399c0,0.207-0.033,0.423-0.102,0.652c-0.066,0.229-0.18,0.435-0.344,0.621
		c-0.164,0.187-0.381,0.341-0.654,0.463c-0.273,0.123-0.617,0.185-1.033,0.185c-0.436,0-0.791-0.062-1.064-0.185
		c-0.277-0.123-0.492-0.277-0.65-0.466c-0.158-0.189-0.268-0.396-0.322-0.622c-0.059-0.226-0.088-0.441-0.088-0.647V8.186h1.074
		v3.378c0,0.323,0.092,0.571,0.281,0.743c0.186,0.172,0.449,0.257,0.789,0.257c0.311,0,0.559-0.083,0.752-0.254
		c0.191-0.168,0.287-0.418,0.287-0.746V8.186H12.217z"/>
</g>
<polygon fill="#005480" points="17.076,7.972 18.57,13.401 17.414,13.401 16.791,10.759 15.59,13.439 14.418,10.759 13.803,13.401 
	12.637,13.401 14.125,7.972 15.633,11.261 "/>
<rect x="18.992" y="8.186" fill="#005480" width="1.072" height="5.217"/>
<g>
	<path fill="#005480" d="M25.951,10.832c0,0.26,0.049,0.494,0.14,0.701c0.093,0.208,0.217,0.389,0.372,0.542
		c0.154,0.152,0.334,0.268,0.535,0.35c0.206,0.082,0.418,0.122,0.645,0.122s0.439-0.042,0.643-0.127
		c0.203-0.083,0.379-0.201,0.531-0.352c0.153-0.153,0.274-0.335,0.365-0.544c0.09-0.212,0.135-0.444,0.135-0.698
		c0-0.257-0.043-0.489-0.131-0.701c-0.089-0.209-0.206-0.388-0.359-0.537c-0.152-0.147-0.332-0.262-0.533-0.342
		c-0.203-0.079-0.418-0.121-0.65-0.121c-0.235,0-0.456,0.042-0.66,0.121c-0.205,0.081-0.384,0.195-0.539,0.342
		c-0.151,0.148-0.271,0.327-0.36,0.537C25.997,10.335,25.951,10.571,25.951,10.832 M27.635,8.116c0.39,0,0.758,0.07,1.099,0.209
		c0.345,0.139,0.642,0.331,0.896,0.573c0.252,0.245,0.451,0.532,0.597,0.862c0.146,0.332,0.218,0.688,0.218,1.072
		c0,0.381-0.074,0.737-0.221,1.066c-0.148,0.328-0.35,0.615-0.604,0.86c-0.252,0.246-0.55,0.439-0.894,0.578
		c-0.341,0.141-0.707,0.21-1.097,0.21c-0.383,0-0.742-0.066-1.08-0.198c-0.337-0.134-0.635-0.318-0.89-0.555
		c-0.256-0.238-0.458-0.525-0.606-0.857c-0.15-0.334-0.227-0.703-0.227-1.104c0-0.383,0.072-0.738,0.218-1.069
		c0.146-0.328,0.344-0.614,0.598-0.86c0.251-0.246,0.548-0.438,0.89-0.578C26.871,8.186,27.238,8.116,27.635,8.116"/>
	<path fill="#005480" d="M32.861,8.116c0.229,0,0.448,0.025,0.655,0.077c0.203,0.052,0.386,0.112,0.546,0.18
		c0.161,0.069,0.294,0.135,0.399,0.202c0.104,0.066,0.174,0.112,0.209,0.135l-0.496,0.848c-0.189-0.142-0.395-0.262-0.614-0.357
		c-0.222-0.095-0.486-0.144-0.798-0.144c-0.24,0-0.433,0.047-0.58,0.14c-0.149,0.093-0.222,0.228-0.222,0.405
		c0,0.142,0.063,0.252,0.188,0.328s0.282,0.142,0.477,0.198c0.191,0.056,0.405,0.117,0.642,0.18
		c0.236,0.063,0.464,0.156,0.684,0.272c0.266,0.143,0.471,0.316,0.613,0.518c0.141,0.203,0.213,0.466,0.213,0.785
		c0,0.25-0.048,0.477-0.141,0.684c-0.098,0.205-0.234,0.381-0.412,0.525c-0.178,0.146-0.395,0.257-0.648,0.337
		c-0.255,0.077-0.545,0.116-0.872,0.116c-0.236,0-0.458-0.026-0.662-0.077c-0.21-0.052-0.397-0.113-0.565-0.183
		c-0.169-0.073-0.315-0.146-0.444-0.222c-0.125-0.075-0.225-0.139-0.294-0.195l0.532-0.885c0.016,0.016,0.063,0.055,0.146,0.119
		c0.082,0.063,0.189,0.13,0.316,0.2c0.127,0.068,0.277,0.13,0.45,0.184s0.355,0.081,0.552,0.081c0.61,0,0.917-0.193,0.917-0.583
		c0-0.164-0.063-0.292-0.186-0.382c-0.123-0.087-0.278-0.164-0.466-0.227c-0.188-0.065-0.396-0.127-0.625-0.189
		c-0.232-0.061-0.455-0.145-0.671-0.254c-0.17-0.083-0.31-0.168-0.419-0.261c-0.109-0.09-0.197-0.187-0.264-0.287
		c-0.066-0.1-0.111-0.207-0.135-0.319C30.86,9.952,30.85,9.832,30.85,9.705c0-0.27,0.053-0.504,0.16-0.704
		c0.107-0.197,0.254-0.363,0.44-0.496c0.185-0.132,0.397-0.23,0.642-0.294C32.334,8.148,32.592,8.116,32.861,8.116"/>
	<polygon fill="#005480" points="24.528,8.576 24.528,13.417 21.723,10.577 21.77,13.305 20.814,13.305 20.814,8.45 23.621,11.285 
		23.574,8.576 	"/>
</g>
<rect x="35.25" y="8.286" fill="#005480" width="1.072" height="5.217"/>
<polygon fill="#005480" points="40.73,8.386 40.596,9.326 39.283,9.326 39.283,13.603 38.209,13.603 38.209,9.326 36.729,9.326 
	36.863,8.386 "/>
<path fill="#005480" d="M41.328,8.378v5.225h3.396l0.164-0.942h-2.486v-0.935h1.877l0.107-0.912h-1.984V9.321h2.232L44.52,8.378
	H41.328z M43.777,6.862l-1.283,0.862l0.174,0.294l1.387-0.698L43.777,6.862z"/>
<g>
	<path fill="#005480" d="M6.637,33.67v8.055H5.012V33.67H6.637z"/>
	<path fill="#005480" d="M12.681,33.67l-0.125,1.432H9.647l-0.126,1.284c0.038-0.015,0.079-0.032,0.126-0.051
		c0.045-0.019,0.109-0.036,0.193-0.051c0.083-0.016,0.188-0.028,0.317-0.04c0.129-0.011,0.295-0.017,0.5-0.017
		c0.296,0,0.603,0.057,0.921,0.171c0.317,0.114,0.609,0.284,0.874,0.511c0.265,0.227,0.483,0.511,0.653,0.852
		c0.171,0.341,0.256,0.738,0.256,1.192c0,0.402-0.077,0.781-0.233,1.137c-0.155,0.356-0.375,0.667-0.659,0.932
		c-0.283,0.265-0.63,0.476-1.039,0.63c-0.409,0.155-0.863,0.233-1.363,0.233c-0.454,0-0.849-0.045-1.182-0.136
		s-0.613-0.195-0.841-0.313s-0.408-0.234-0.546-0.353c-0.136-0.117-0.23-0.206-0.283-0.267l1.045-1.09
		c0.037,0.038,0.101,0.096,0.188,0.176s0.202,0.159,0.347,0.239s0.319,0.149,0.527,0.21c0.209,0.061,0.457,0.091,0.745,0.091
		c0.228,0,0.438-0.038,0.636-0.114c0.197-0.075,0.37-0.184,0.518-0.323c0.147-0.14,0.265-0.305,0.352-0.495
		c0.088-0.189,0.131-0.397,0.131-0.625c0-0.197-0.045-0.384-0.137-0.563c-0.09-0.178-0.213-0.333-0.368-0.465
		c-0.155-0.133-0.34-0.239-0.552-0.318c-0.211-0.08-0.442-0.119-0.693-0.119c-0.302,0-0.563,0.022-0.783,0.068
		s-0.407,0.099-0.563,0.159c-0.155,0.061-0.286,0.127-0.393,0.199c-0.105,0.072-0.193,0.134-0.261,0.188l0.375-4.363H12.681z"/>
	<path fill="#005480" d="M17.043,33.5c0.439,0,0.854,0.087,1.245,0.261c0.389,0.174,0.732,0.434,1.028,0.778
		c0.295,0.345,0.529,0.778,0.704,1.301c0.174,0.522,0.261,1.132,0.261,1.829c0,0.72-0.085,1.343-0.255,1.869
		c-0.171,0.527-0.403,0.964-0.699,1.313c-0.295,0.348-0.64,0.607-1.034,0.778c-0.394,0.17-0.811,0.255-1.25,0.255
		c-0.47,0-0.903-0.081-1.301-0.244c-0.397-0.163-0.742-0.415-1.033-0.756c-0.293-0.341-0.521-0.776-0.688-1.306
		c-0.167-0.53-0.25-1.167-0.25-1.909c0-0.689,0.083-1.295,0.25-1.818c0.167-0.522,0.397-0.958,0.692-1.306
		c0.296-0.348,0.642-0.61,1.04-0.784C16.152,33.587,16.581,33.5,17.043,33.5z M15.453,37.658c0,0.485,0.038,0.9,0.113,1.244
		c0.075,0.345,0.184,0.625,0.324,0.841c0.14,0.216,0.307,0.374,0.5,0.471c0.192,0.099,0.41,0.148,0.652,0.148
		c0.221,0,0.425-0.051,0.614-0.153c0.188-0.102,0.353-0.263,0.488-0.482c0.137-0.22,0.244-0.5,0.323-0.841
		c0.08-0.34,0.119-0.75,0.119-1.227c0-0.461-0.039-0.858-0.119-1.187c-0.079-0.33-0.189-0.601-0.329-0.813
		c-0.141-0.212-0.305-0.369-0.494-0.471c-0.188-0.103-0.395-0.153-0.613-0.153c-0.228,0-0.436,0.051-0.625,0.153
		c-0.189,0.102-0.356,0.259-0.5,0.471s-0.256,0.485-0.335,0.818C15.492,36.81,15.453,37.204,15.453,37.658z"/>
</g>
</svg>
