<?xml version="1.0" encoding="utf-8"?>
<!-- Generator: Adobe Illustrator 16.0.0, SVG Export Plug-In . SVG Version: 6.00 Build 0)  -->
<!DOCTYPE svg PUBLIC "-//W3C//DTD SVG 1.1//EN" "http://www.w3.org/Graphics/SVG/1.1/DTD/svg11.dtd">
<svg version="1.1" id="Calque_1" xmlns="http://www.w3.org/2000/svg" xmlns:xlink="http://www.w3.org/1999/xlink" x="0px" y="0px"
	 width="48px" height="48px" viewBox="0 0 48 48" enable-background="new 0 0 48 48" xml:space="preserve">
<g>
	<path fill="#00517D" d="M48,36.763C48,42.969,42.969,48,36.764,48H11.236C5.031,48,0,42.969,0,36.763V11.237
		C0,5.031,5.031,0,11.236,0h25.527C42.969,0,48,5.031,48,11.237V36.763z M46,11.237C46,6.135,41.865,2,36.764,2H11.236
		C6.135,2,2,6.135,2,11.237v25.526C2,41.865,6.135,46,11.236,46h25.527C41.865,46,46,41.865,46,36.763V11.237z"/>
</g>
<g>
	<path fill="#005480" d="M11.698,32.584c0.733,0,1.422,0.133,2.066,0.401c0.644,0.269,1.203,0.635,1.679,1.101
		c0.475,0.465,0.848,1.015,1.121,1.65c0.272,0.635,0.409,1.319,0.409,2.052c0,0.733-0.139,1.416-0.416,2.045
		c-0.277,0.63-0.653,1.18-1.128,1.65c-0.475,0.47-1.034,0.839-1.678,1.107c-0.644,0.268-1.333,0.402-2.066,0.402
		c-0.714,0-1.389-0.127-2.023-0.381s-1.192-0.608-1.671-1.065c-0.48-0.456-0.86-1.003-1.142-1.643
		c-0.283-0.639-0.424-1.345-0.424-2.116c0-0.733,0.137-1.415,0.409-2.045c0.273-0.629,0.646-1.18,1.122-1.649
		c0.475-0.47,1.032-0.839,1.671-1.108C10.263,32.718,10.955,32.584,11.698,32.584z M8.539,37.789c0,0.498,0.087,0.947,0.26,1.347
		c0.174,0.4,0.407,0.745,0.698,1.037c0.292,0.291,0.628,0.515,1.009,0.669c0.381,0.156,0.783,0.233,1.206,0.233
		c0.424,0,0.825-0.08,1.206-0.241c0.381-0.159,0.715-0.386,1.001-0.676c0.287-0.291,0.515-0.64,0.684-1.043
		c0.169-0.405,0.254-0.852,0.254-1.34c0-0.489-0.083-0.936-0.247-1.341c-0.166-0.404-0.391-0.747-0.677-1.029
		c-0.288-0.282-0.621-0.5-1.001-0.656s-0.788-0.232-1.22-0.232c-0.442,0-0.856,0.077-1.24,0.232
		c-0.386,0.155-0.723,0.374-1.009,0.656c-0.287,0.282-0.514,0.625-0.677,1.029C8.621,36.839,8.539,37.29,8.539,37.789z"/>
	<path fill="#005480" d="M20.089,32.796v8.194h3.92l-0.226,1.805h-5.712v-9.999H20.089z"/>
	<path fill="#005480" d="M30.667,32.782l0.212,1.806h-4.189v2.863h3.724l-0.197,1.749h-3.526v1.791h4.668l-0.31,1.805h-6.375V32.782
		H30.667z"/>
	<path fill="#005480" d="M34.263,42.993c-0.301,0-0.578-0.015-0.832-0.042c-0.254-0.029-0.475-0.061-0.663-0.099
		c-0.226-0.037-0.424-0.088-0.594-0.155v-9.788c0.236-0.066,0.461-0.121,0.678-0.162c0.216-0.042,0.477-0.08,0.782-0.113
		c0.305-0.032,0.651-0.049,1.037-0.049c0.404,0,0.832,0.028,1.283,0.084c0.452,0.057,0.894,0.158,1.326,0.304
		c0.432,0.146,0.843,0.346,1.234,0.599c0.39,0.254,0.736,0.574,1.037,0.959c0.3,0.386,0.538,0.847,0.712,1.382
		c0.173,0.536,0.26,1.162,0.26,1.876c0,0.771-0.092,1.434-0.275,1.989c-0.183,0.555-0.433,1.025-0.747,1.41
		c-0.316,0.386-0.682,0.696-1.1,0.931c-0.419,0.235-0.86,0.418-1.326,0.55s-0.941,0.219-1.425,0.26
		C35.167,42.972,34.705,42.993,34.263,42.993z M38.395,37.789c0-0.705-0.112-1.276-0.338-1.713s-0.515-0.778-0.868-1.022
		c-0.353-0.245-0.74-0.41-1.163-0.493c-0.424-0.086-0.832-0.128-1.228-0.128c-0.104,0-0.205,0.005-0.303,0.014
		c-0.099,0.01-0.2,0.023-0.304,0.042v6.558c0.198,0.029,0.396,0.042,0.593,0.042c0.395,0,0.807-0.044,1.234-0.134
		c0.428-0.089,0.818-0.256,1.171-0.5c0.353-0.244,0.642-0.581,0.868-1.009S38.395,38.466,38.395,37.789z"/>
</g>
<g>
	<path fill="#005480" d="M34.841,5.778H13.159c-1.056,0-1.914,0.859-1.914,1.914v14.052c0,1.055,0.858,1.914,1.914,1.914h4.76
		l-0.927,0.713c-0.333,0.256-0.466,0.696-0.331,1.094c0.135,0.398,0.509,0.665,0.929,0.665h12.82c0.421,0,0.794-0.267,0.93-0.665
		c0.135-0.397,0.001-0.837-0.331-1.094l-0.928-0.713h4.76c1.056,0,1.914-0.858,1.914-1.914V7.692
		C36.755,6.637,35.897,5.778,34.841,5.778L34.841,5.778z M34.139,21.042H13.861V8.395h20.278V21.042L34.139,21.042z M34.139,21.042"
		/>
</g>
</svg>
