<?xml version="1.0" encoding="utf-8"?>
<!-- Generator: Adobe Illustrator 16.0.0, SVG Export Plug-In . SVG Version: 6.00 Build 0)  -->
<!DOCTYPE svg PUBLIC "-//W3C//DTD SVG 1.1//EN" "http://www.w3.org/Graphics/SVG/1.1/DTD/svg11.dtd">
<svg version="1.1" id="Calque_1" xmlns="http://www.w3.org/2000/svg" xmlns:xlink="http://www.w3.org/1999/xlink" x="0px" y="0px"
	 width="48px" height="48px" viewBox="0 0 48 48" enable-background="new 0 0 48 48" xml:space="preserve">
<g>
	<g>
		<path fill="#005480" d="M38.716,7.844c-0.383,0.132-0.708,0.316-0.982,0.551C37.462,8.631,37.25,8.91,37.1,9.23
			c-0.15,0.322-0.224,0.671-0.224,1.045c0,0.383,0.07,0.742,0.208,1.07c0.14,0.328,0.342,0.612,0.61,0.852
			c0.268,0.241,0.594,0.428,0.98,0.563c0.389,0.135,0.831,0.202,1.33,0.202c0.394,0,0.738-0.049,1.029-0.145
			c0.292-0.095,0.541-0.221,0.747-0.378c0.204-0.156,0.373-0.332,0.502-0.526c0.127-0.194,0.229-0.391,0.305-0.589
			c0.074-0.199,0.125-0.389,0.151-0.569c0.027-0.181,0.041-0.335,0.041-0.464v-0.109h-3.746l-0.2,0.793h2.704
			c-0.006,0.053-0.029,0.139-0.065,0.255c-0.039,0.12-0.112,0.237-0.22,0.358c-0.111,0.119-0.265,0.226-0.466,0.319
			c-0.2,0.093-0.469,0.141-0.806,0.141c-0.299,0-0.566-0.044-0.802-0.134c-0.235-0.088-0.433-0.21-0.594-0.367
			c-0.16-0.157-0.283-0.338-0.369-0.551c-0.084-0.21-0.127-0.439-0.127-0.684c0-0.246,0.045-0.473,0.139-0.685
			c0.095-0.211,0.226-0.393,0.394-0.544c0.168-0.151,0.369-0.271,0.602-0.357c0.232-0.086,0.484-0.129,0.757-0.129
			c0.251,0,0.469,0.028,0.652,0.084c0.184,0.055,0.34,0.118,0.466,0.189c0.125,0.072,0.224,0.141,0.292,0.206
			c0.07,0.065,0.112,0.104,0.129,0.12l0.746-0.663c-0.017-0.015-0.076-0.069-0.177-0.162c-0.103-0.093-0.249-0.196-0.438-0.304
			c-0.189-0.108-0.423-0.205-0.701-0.292c-0.277-0.086-0.599-0.13-0.963-0.13C39.523,7.645,39.097,7.713,38.716,7.844 M34.977,7.755
			l0.053,2.924l-3.374-3.062v5.244h1.147l-0.057-2.946l3.375,3.069V7.755H34.977z M29.578,12.861h1.148V7.755h-1.148V12.861z
			 M24.808,12.861h1.145v-1.513c0.131,0.014,0.258,0.021,0.385,0.021c0.3,0,0.603-0.031,0.907-0.093
			c0.307-0.062,0.579-0.164,0.823-0.306c0.243-0.143,0.442-0.33,0.596-0.566c0.155-0.235,0.232-0.525,0.232-0.87
			c0-0.341-0.075-0.631-0.228-0.872c-0.152-0.24-0.357-0.435-0.614-0.587c-0.257-0.152-0.554-0.261-0.893-0.327
			c-0.34-0.068-0.698-0.103-1.07-0.103c-0.337,0-0.62,0.021-0.847,0.059c-0.227,0.038-0.373,0.065-0.436,0.079V12.861z M26.84,8.6
			c0.167,0.032,0.317,0.084,0.451,0.159c0.137,0.073,0.244,0.174,0.332,0.302c0.084,0.127,0.127,0.283,0.127,0.47
			c0,0.175-0.045,0.324-0.132,0.444c-0.09,0.119-0.202,0.216-0.338,0.29c-0.136,0.075-0.29,0.129-0.456,0.161
			c-0.166,0.034-0.33,0.051-0.49,0.051c-0.14,0-0.234-0.002-0.279-0.007c-0.046-0.004-0.079-0.013-0.102-0.021V8.583
			c0.023-0.01,0.059-0.017,0.113-0.02c0.055-0.006,0.147-0.01,0.283-0.01C26.511,8.553,26.673,8.57,26.84,8.6 M20.036,12.861h1.147
			v-1.513c0.128,0.014,0.256,0.021,0.384,0.021c0.3,0,0.602-0.031,0.907-0.093c0.304-0.062,0.578-0.164,0.821-0.306
			c0.244-0.143,0.442-0.33,0.598-0.566c0.155-0.235,0.232-0.525,0.232-0.87c0-0.341-0.076-0.631-0.229-0.872
			c-0.152-0.24-0.356-0.435-0.613-0.587c-0.257-0.152-0.555-0.261-0.895-0.327c-0.338-0.068-0.696-0.103-1.07-0.103
			c-0.336,0-0.619,0.021-0.846,0.059c-0.229,0.038-0.374,0.065-0.438,0.079V12.861z M22.068,8.6
			c0.167,0.032,0.317,0.084,0.452,0.159c0.134,0.073,0.245,0.174,0.33,0.302c0.086,0.127,0.129,0.283,0.129,0.47
			c0,0.175-0.044,0.324-0.132,0.444c-0.089,0.119-0.202,0.216-0.339,0.29c-0.137,0.075-0.289,0.129-0.455,0.161
			c-0.167,0.034-0.331,0.051-0.493,0.051c-0.139,0-0.231-0.002-0.277-0.007c-0.045-0.004-0.08-0.013-0.1-0.021V8.583
			c0.021-0.01,0.06-0.017,0.113-0.02c0.053-0.006,0.147-0.01,0.281-0.01C21.738,8.553,21.901,8.57,22.068,8.6 M14.094,12.861h1.243
			l0.505-1.045h1.868l0.497,1.045h1.235l-2.67-5.38L14.094,12.861z M17.358,10.974H16.17l0.603-1.369L17.358,10.974z M10.766,10.764
			L9.155,7.545l-1.589,5.316H8.81l0.657-2.586l1.251,2.623l1.284-2.623l0.665,2.586h1.235l-1.595-5.316L10.766,10.764z"/>
		<path fill="#005480" d="M39.045,38.081c-0.26,0.061-0.488,0.158-0.687,0.288c-0.196,0.129-0.354,0.292-0.468,0.485
			c-0.115,0.195-0.173,0.425-0.173,0.689c0,0.125,0.014,0.242,0.04,0.352c0.027,0.112,0.076,0.216,0.146,0.314
			c0.067,0.098,0.163,0.192,0.28,0.281c0.116,0.089,0.268,0.173,0.45,0.255c0.229,0.105,0.466,0.188,0.713,0.249
			c0.246,0.061,0.469,0.121,0.67,0.184c0.2,0.062,0.365,0.138,0.498,0.224c0.129,0.087,0.195,0.211,0.195,0.375
			c0,0.378-0.326,0.568-0.979,0.568c-0.208,0-0.405-0.026-0.589-0.078c-0.185-0.054-0.344-0.115-0.482-0.18
			c-0.136-0.067-0.247-0.134-0.336-0.195c-0.089-0.062-0.14-0.101-0.156-0.115l-0.569,0.864c0.074,0.052,0.18,0.116,0.317,0.191
			c0.135,0.074,0.292,0.146,0.473,0.215c0.178,0.07,0.379,0.129,0.602,0.18c0.222,0.051,0.457,0.076,0.709,0.076
			c0.348,0,0.657-0.039,0.93-0.115c0.271-0.078,0.502-0.187,0.694-0.328c0.189-0.142,0.335-0.313,0.437-0.515
			c0.101-0.202,0.152-0.424,0.152-0.671c0-0.31-0.077-0.565-0.229-0.767c-0.152-0.197-0.369-0.366-0.652-0.506
			c-0.236-0.115-0.479-0.204-0.731-0.268c-0.251-0.062-0.479-0.12-0.685-0.175c-0.206-0.055-0.376-0.121-0.51-0.194
			c-0.133-0.075-0.2-0.182-0.2-0.321c0-0.174,0.079-0.305,0.236-0.396c0.157-0.091,0.364-0.137,0.623-0.137
			c0.332,0,0.613,0.048,0.849,0.141c0.236,0.094,0.454,0.21,0.659,0.35L41.8,38.57c-0.038-0.023-0.113-0.069-0.226-0.133
			c-0.112-0.064-0.253-0.131-0.425-0.198c-0.17-0.068-0.367-0.127-0.585-0.176c-0.22-0.051-0.452-0.076-0.698-0.076
			C39.578,37.987,39.305,38.018,39.045,38.081 M33.267,38.095l-0.144,0.921h1.579v4.184h1.147v-4.184h1.404l0.144-0.921H33.267z
			 M29.13,38.087v5.114h3.624l0.175-0.921h-2.652v-0.914h2.003l0.114-0.895h-2.117v-1.46h2.38l-0.119-0.923H29.13z M27.069,38.095
			v3.543c0,0.23-0.053,0.409-0.162,0.537c-0.106,0.128-0.294,0.191-0.561,0.191c-0.112,0-0.211-0.009-0.297-0.026
			c-0.084-0.017-0.159-0.035-0.22-0.057c-0.06-0.021-0.108-0.043-0.14-0.061c-0.033-0.02-0.051-0.029-0.055-0.029L25.2,43.022
			c0.123,0.062,0.239,0.11,0.348,0.144c0.11,0.033,0.238,0.064,0.386,0.092c0.146,0.029,0.305,0.044,0.477,0.044
			c0.352,0,0.644-0.046,0.874-0.137c0.229-0.091,0.414-0.21,0.554-0.354c0.139-0.145,0.236-0.304,0.292-0.482
			c0.056-0.178,0.083-0.352,0.083-0.525v-3.709H27.069z M20.789,43.15c0.028,0.004,0.089,0.016,0.186,0.033
			c0.096,0.017,0.218,0.035,0.364,0.05c0.147,0.017,0.315,0.033,0.506,0.047c0.189,0.013,0.392,0.022,0.606,0.022
			c0.325,0,0.642-0.026,0.945-0.079c0.305-0.053,0.576-0.136,0.814-0.249c0.237-0.113,0.429-0.261,0.574-0.443
			C24.928,42.35,25,42.128,25,41.869c0-0.23-0.044-0.418-0.129-0.566c-0.085-0.146-0.187-0.263-0.304-0.35
			c-0.117-0.085-0.238-0.147-0.362-0.183c-0.122-0.037-0.22-0.059-0.296-0.069c0.069-0.023,0.152-0.062,0.25-0.115
			c0.095-0.053,0.187-0.125,0.275-0.216c0.089-0.091,0.163-0.206,0.225-0.342c0.062-0.137,0.092-0.302,0.092-0.494
			c0-0.269-0.062-0.5-0.184-0.694c-0.124-0.195-0.297-0.356-0.521-0.483c-0.225-0.126-0.492-0.221-0.801-0.28
			c-0.31-0.061-0.652-0.09-1.026-0.09c-0.205,0-0.392,0.007-0.567,0.021c-0.173,0.013-0.324,0.031-0.452,0.05
			c-0.15,0.02-0.287,0.041-0.41,0.066V43.15z M22.902,38.876c0.153,0.032,0.289,0.079,0.409,0.141
			c0.122,0.062,0.216,0.142,0.29,0.237c0.071,0.097,0.108,0.209,0.108,0.338c0,0.134-0.037,0.251-0.108,0.35
			c-0.073,0.097-0.167,0.179-0.284,0.244c-0.119,0.065-0.254,0.114-0.406,0.144c-0.152,0.032-0.309,0.047-0.469,0.047h-0.216
			c-0.055,0-0.097-0.001-0.129-0.003s-0.06-0.004-0.084-0.007c-0.024-0.003-0.05-0.004-0.077-0.004v-1.49
			c0.011-0.005,0.053-0.012,0.125-0.025s0.199-0.018,0.381-0.018C22.596,38.83,22.75,38.845,22.902,38.876 M23.063,41.149
			c0.158,0.023,0.299,0.062,0.422,0.115c0.123,0.053,0.221,0.122,0.296,0.208c0.074,0.086,0.113,0.19,0.113,0.31
			c0,0.125-0.036,0.228-0.109,0.309c-0.072,0.083-0.168,0.146-0.289,0.195c-0.12,0.048-0.259,0.083-0.417,0.104
			c-0.158,0.022-0.325,0.033-0.501,0.033c-0.081,0-0.16,0-0.236-0.003c-0.078-0.002-0.146-0.009-0.205-0.018
			c-0.069-0.01-0.137-0.02-0.201-0.03v-1.224c0.038-0.005,0.108-0.012,0.209-0.022c0.102-0.009,0.247-0.014,0.433-0.014
			C22.744,41.113,22.905,41.125,23.063,41.149 M15.874,38.192c-0.364,0.138-0.681,0.327-0.95,0.566
			c-0.27,0.24-0.482,0.521-0.638,0.842c-0.154,0.321-0.232,0.669-0.232,1.043c0,0.394,0.081,0.756,0.241,1.082
			c0.159,0.326,0.375,0.606,0.649,0.838c0.273,0.233,0.59,0.415,0.95,0.544s0.744,0.195,1.151,0.195
			c0.417,0,0.809-0.069,1.174-0.206c0.367-0.136,0.685-0.325,0.955-0.565c0.269-0.241,0.484-0.521,0.642-0.842
			c0.158-0.322,0.236-0.67,0.236-1.045c0-0.374-0.077-0.723-0.232-1.048c-0.154-0.324-0.368-0.604-0.637-0.841
			c-0.271-0.238-0.589-0.425-0.955-0.563s-0.758-0.205-1.175-0.205C16.63,37.987,16.237,38.054,15.874,38.192 M15.397,39.953
			c0.093-0.207,0.221-0.381,0.385-0.525c0.162-0.146,0.353-0.256,0.573-0.335c0.219-0.08,0.454-0.119,0.705-0.119
			c0.246,0,0.477,0.039,0.693,0.119c0.217,0.079,0.407,0.19,0.57,0.335c0.163,0.144,0.292,0.318,0.385,0.525
			c0.093,0.206,0.141,0.435,0.141,0.684c0,0.25-0.049,0.478-0.146,0.685c-0.095,0.205-0.226,0.384-0.388,0.533
			c-0.163,0.148-0.353,0.264-0.569,0.346c-0.216,0.082-0.445,0.122-0.686,0.122s-0.469-0.039-0.685-0.118
			c-0.217-0.081-0.408-0.195-0.574-0.343c-0.166-0.149-0.298-0.324-0.397-0.53c-0.097-0.204-0.147-0.433-0.147-0.688
			C15.256,40.39,15.303,40.159,15.397,39.953 M12.393,38.318c0.016,0.014,0.042,0.04,0.077,0.079c0.035,0.039,0.07,0.085,0.104,0.14
			c0.034,0.056,0.067,0.12,0.095,0.191c0.03,0.073,0.045,0.146,0.045,0.224c0,0.128-0.015,0.248-0.041,0.352
			c-0.027,0.106-0.059,0.196-0.097,0.272c-0.036,0.072-0.071,0.135-0.103,0.183c-0.033,0.048-0.057,0.081-0.073,0.101l0.458,0.331
			c0.042-0.038,0.106-0.101,0.192-0.187c0.085-0.086,0.173-0.192,0.261-0.317s0.165-0.267,0.229-0.425
			c0.064-0.159,0.095-0.328,0.095-0.504c0-0.107-0.012-0.204-0.039-0.292c-0.027-0.089-0.058-0.167-0.092-0.231
			c-0.036-0.066-0.069-0.118-0.101-0.158s-0.054-0.068-0.064-0.083L12.393,38.318z M9.166,43.27c0.275-0.021,0.545-0.067,0.81-0.133
			c0.265-0.067,0.517-0.161,0.754-0.281c0.238-0.119,0.446-0.279,0.625-0.476c0.179-0.197,0.321-0.437,0.425-0.719
			c0.104-0.284,0.156-0.623,0.156-1.017c0-0.364-0.049-0.684-0.147-0.957c-0.099-0.274-0.235-0.509-0.406-0.706
			c-0.172-0.196-0.367-0.36-0.589-0.489c-0.222-0.13-0.456-0.232-0.702-0.306c-0.246-0.076-0.497-0.127-0.753-0.155
			c-0.257-0.029-0.5-0.043-0.73-0.043c-0.219,0-0.417,0.007-0.59,0.024c-0.173,0.017-0.321,0.036-0.444,0.058
			c-0.124,0.022-0.252,0.049-0.385,0.083v4.998c0.096,0.035,0.208,0.06,0.336,0.08c0.107,0.019,0.232,0.036,0.376,0.05
			c0.146,0.013,0.303,0.022,0.474,0.022C8.627,43.302,8.891,43.291,9.166,43.27 M10.533,41.491
			c-0.127,0.218-0.292,0.391-0.493,0.515c-0.2,0.126-0.422,0.21-0.666,0.256c-0.243,0.046-0.477,0.067-0.702,0.067
			c-0.112,0-0.225-0.007-0.337-0.021v-3.349c0.059-0.01,0.116-0.016,0.173-0.023c0.056-0.004,0.114-0.007,0.173-0.007
			c0.224,0,0.457,0.022,0.696,0.065c0.241,0.043,0.462,0.126,0.662,0.252c0.201,0.126,0.365,0.299,0.493,0.523
			c0.128,0.221,0.193,0.515,0.193,0.873C10.726,40.989,10.661,41.272,10.533,41.491"/>
		<path fill="#005480" d="M25.334,32.761V30.79h-1.566v1.971c-3.667-0.375-6.555-3.333-6.834-7.019h3.157v-1.571h-3.118
			c0.446-3.503,3.263-6.263,6.794-6.626v1.404h1.566v-1.404c3.535,0.363,6.347,3.123,6.794,6.63h-3.115v1.571h3.157
			C31.887,29.434,28.995,32.39,25.334,32.761 M24.551,16.035c-5.037,0-9.118,4.085-9.118,9.117c0,5.042,4.081,9.122,9.118,9.122
			c5.036,0,9.117-4.083,9.117-9.122C33.667,20.121,29.586,16.035,24.551,16.035"/>
		<path fill="#005480" d="M24.551,24.157c1.272,0,2.295-1.028,2.295-2.297c0-1.27-1.023-2.298-2.295-2.298
			c-1.265,0-2.293,1.029-2.293,2.298C22.258,23.128,23.28,24.157,24.551,24.157"/>
		<path fill="#005480" d="M26.392,24.528h-3.68c-0.656,0-1.195,0.603-1.195,1.344v3.696c0,0.041,0.018,0.079,0.022,0.122h6.022
			c0.003-0.046,0.023-0.084,0.023-0.122v-3.696C27.587,25.131,27.05,24.528,26.392,24.528"/>
	</g>
	<path fill="#00517D" d="M36.763,48H11.237C5.041,48,0,42.959,0,36.764V11.236C0,5.041,5.041,0,11.237,0h25.526
		C42.959,0,48,5.041,48,11.236v25.527C48,42.959,42.959,48,36.763,48z M11.237,2C6.144,2,2,6.144,2,11.236v25.527
		C2,41.856,6.144,46,11.237,46h25.526C41.856,46,46,41.856,46,36.764V11.236C46,6.144,41.856,2,36.763,2H11.237z"/>
</g>
</svg>
