<?xml version="1.0" encoding="utf-8"?>
<!-- Generator: Adobe Illustrator 21.0.0, SVG Export Plug-In . SVG Version: 6.00 Build 0)  -->
<svg version="1.1" id="Calque_1" xmlns="http://www.w3.org/2000/svg" xmlns:xlink="http://www.w3.org/1999/xlink" x="0px" y="0px"
	 viewBox="0 0 48 48" enable-background="new 0 0 48 48" xml:space="preserve">
<g>
	<path fill="#00A5E8" d="M48,36.763C48,42.969,42.969,48,36.764,48H11.236C5.031,48,0,42.969,0,36.763V11.237
		C0,5.031,5.031,0,11.236,0h25.527C42.969,0,48,5.031,48,11.237V36.763z M46,11.237C46,6.135,41.865,2,36.764,2H11.236
		C6.135,2,2,6.135,2,11.237v25.526C2,41.865,6.135,46,11.236,46h25.527C41.865,46,46,41.865,46,36.763V11.237z"/>
</g>
<ellipse fill="#00A5E8" cx="24.101" cy="32.501" rx="8.071" ry="2.133"/>
<ellipse fill="#00A5E8" cx="24.101" cy="36.994" rx="8.071" ry="2.133"/>
<polyline fill="#00A5E8" points="16.449,32.694 21.419,36.121 24.178,37.789 27.354,35.87 31.667,32.583 "/>
<line fill="none" stroke="#00A5E8" stroke-miterlimit="10" x1="43.026" y1="26.702" x2="32.957" y2="33.815"/>
<line fill="none" stroke="#00A5E8" stroke-miterlimit="10" x1="4.171" y1="26.702" x2="14.24" y2="33.815"/>
<g>
	<path fill="#00A5E8" d="M9.123,15.027L6.419,20.7l-2.616-5.672l1.144-0.32l1.504,3.6l1.528-3.6L9.123,15.027z"/>
	<path fill="#00A5E8" d="M12.915,14.819l0.12,1.024h-2.376v1.624h2.112l-0.112,0.992h-2v1.016h2.648L13.131,20.5H9.516v-5.68H12.915
		z"/>
	<path fill="#00A5E8" d="M18.227,14.828v5.808l-3.368-3.408l0.056,3.272h-1.144v-5.824l3.368,3.4l-0.056-3.248H18.227z"/>
	<path fill="#00A5E8" d="M22.955,14.828l-0.144,1.024h-1.4V20.5h-1.144v-4.648h-1.576l0.144-1.024H22.955z"/>
	<path fill="#00A5E8" d="M26.139,14.708c0.416,0,0.807,0.076,1.172,0.228c0.366,0.152,0.683,0.36,0.952,0.624
		c0.269,0.264,0.481,0.576,0.636,0.936c0.154,0.36,0.232,0.748,0.232,1.164s-0.079,0.803-0.236,1.16
		c-0.158,0.358-0.371,0.67-0.64,0.936c-0.269,0.267-0.587,0.476-0.952,0.628c-0.365,0.152-0.756,0.228-1.172,0.228
		c-0.405,0-0.788-0.072-1.148-0.216c-0.36-0.144-0.676-0.345-0.948-0.604c-0.272-0.259-0.488-0.569-0.648-0.932
		c-0.16-0.362-0.24-0.763-0.24-1.2c0-0.416,0.077-0.803,0.232-1.16c0.154-0.357,0.367-0.669,0.636-0.936
		c0.27-0.267,0.585-0.476,0.948-0.628C25.325,14.784,25.717,14.708,26.139,14.708z M24.347,17.66c0,0.283,0.049,0.537,0.148,0.764
		c0.099,0.227,0.231,0.423,0.396,0.588c0.166,0.165,0.356,0.292,0.572,0.38c0.216,0.088,0.444,0.132,0.684,0.132
		c0.24,0,0.468-0.045,0.684-0.136c0.216-0.091,0.405-0.219,0.568-0.384c0.163-0.165,0.292-0.362,0.388-0.592
		c0.096-0.229,0.144-0.483,0.144-0.76c0-0.277-0.047-0.53-0.14-0.76c-0.094-0.229-0.222-0.424-0.384-0.584
		c-0.163-0.16-0.352-0.284-0.568-0.372c-0.216-0.088-0.447-0.132-0.692-0.132c-0.251,0-0.485,0.044-0.704,0.132
		c-0.219,0.088-0.41,0.212-0.572,0.372c-0.163,0.16-0.29,0.354-0.384,0.584C24.394,17.121,24.347,17.377,24.347,17.66z"/>
	<path fill="#00A5E8" d="M34.29,14.828v3.696c0,0.224-0.036,0.46-0.108,0.708c-0.072,0.248-0.195,0.474-0.368,0.676
		c-0.173,0.203-0.405,0.371-0.696,0.504c-0.291,0.133-0.657,0.2-1.1,0.2c-0.464,0-0.843-0.066-1.136-0.2
		c-0.293-0.133-0.524-0.303-0.692-0.508c-0.168-0.205-0.283-0.431-0.344-0.676c-0.062-0.245-0.092-0.48-0.092-0.704v-3.696h1.143
		V18.5c0,0.352,0.1,0.622,0.299,0.808c0.199,0.187,0.479,0.28,0.841,0.28c0.33,0,0.597-0.092,0.801-0.276
		c0.205-0.184,0.307-0.455,0.307-0.812v-3.672H34.29z"/>
	<path fill="#00A5E8" d="M37.059,14.708c0.246,0,0.477,0.028,0.696,0.084c0.218,0.056,0.413,0.122,0.584,0.196
		c0.17,0.075,0.312,0.148,0.424,0.22c0.112,0.072,0.187,0.122,0.224,0.148l-0.528,0.92c-0.203-0.154-0.421-0.284-0.656-0.388
		c-0.235-0.104-0.517-0.156-0.848-0.156c-0.256,0-0.462,0.051-0.62,0.152c-0.158,0.102-0.236,0.248-0.236,0.44
		c0,0.154,0.067,0.273,0.2,0.356c0.133,0.082,0.303,0.155,0.508,0.216c0.206,0.062,0.433,0.127,0.684,0.196
		c0.25,0.069,0.493,0.168,0.728,0.296c0.283,0.155,0.5,0.343,0.652,0.564c0.152,0.221,0.228,0.505,0.228,0.852
		c0,0.272-0.051,0.52-0.152,0.744c-0.102,0.224-0.247,0.415-0.436,0.572c-0.189,0.157-0.42,0.279-0.692,0.364
		c-0.272,0.085-0.582,0.128-0.928,0.128c-0.25,0-0.487-0.028-0.708-0.084c-0.221-0.056-0.421-0.122-0.6-0.2
		c-0.179-0.077-0.336-0.157-0.472-0.24c-0.136-0.083-0.242-0.153-0.316-0.212l0.568-0.96c0.016,0.016,0.068,0.059,0.156,0.128
		c0.088,0.069,0.2,0.142,0.336,0.216c0.136,0.075,0.296,0.142,0.481,0.2c0.184,0.059,0.38,0.088,0.588,0.088
		c0.65,0,0.976-0.21,0.976-0.632c0-0.181-0.065-0.32-0.196-0.416c-0.131-0.096-0.296-0.179-0.496-0.248
		c-0.2-0.069-0.422-0.137-0.668-0.204c-0.245-0.066-0.482-0.159-0.712-0.276c-0.181-0.091-0.331-0.185-0.448-0.284
		c-0.118-0.099-0.211-0.203-0.28-0.312c-0.069-0.109-0.117-0.225-0.144-0.348c-0.026-0.123-0.04-0.253-0.04-0.392
		c0-0.293,0.058-0.548,0.172-0.764c0.114-0.216,0.271-0.396,0.468-0.54c0.197-0.144,0.425-0.25,0.684-0.32
		C36.498,14.742,36.77,14.708,37.059,14.708z"/>
	<path fill="#00A5E8" d="M42.987,14.819l0.12,1.024H40.73v1.624h2.112l-0.112,0.992h-2v1.016h2.648L43.203,20.5h-3.616v-5.68H42.987
		z"/>
</g>
</svg>
