<?xml version="1.0" encoding="utf-8"?>
<!-- Generator: Adobe Illustrator 22.0.1, SVG Export Plug-In . SVG Version: 6.00 Build 0)  -->
<svg version="1.1" id="Calque_1" xmlns="http://www.w3.org/2000/svg" xmlns:xlink="http://www.w3.org/1999/xlink" x="0px" y="0px"
	 viewBox="0 0 48 48" style="enable-background:new 0 0 48 48;" xml:space="preserve">
<style type="text/css">
	.st0{fill:#00517D;}
	.st1{fill:#005480;}
	.st2{fill:#005581;}
	.st3{font-family:'CgBernhardtMd';}
	.st4{font-size:8px;}
</style>
<g>
	<path class="st0" d="M36.8,48H11.2C5,48,0,43,0,36.8V11.2C0,5,5,0,11.2,0h25.5C43,0,48,5,48,11.2v25.5C48,43,43,48,36.8,48z
		 M11.2,2C6.1,2,2,6.1,2,11.2v25.5c0,5.1,4.1,9.2,9.2,9.2h25.5c5.1,0,9.2-4.1,9.2-9.2V11.2C46,6.1,41.9,2,36.8,2H11.2z"/>
	<g>
		<path class="st1" d="M28.7,21.2L28.7,21.2c-0.3-0.3-0.3-0.7,0-1l0.8-0.8c0.3-0.3,0.7-0.3,1,0l0,0c0.3,0.3,0.3,0.7,0,1l-0.8,0.8
			C29.4,21.5,29,21.5,28.7,21.2 M32.9,25.1c0,0.4-0.3,0.7-0.7,0.7h-1.1c-0.4,0-0.7-0.3-0.7-0.7v0c0-0.4,0.3-0.7,0.7-0.7h1.1
			C32.6,24.4,32.9,24.7,32.9,25.1L32.9,25.1z M28.7,29.1L28.7,29.1c0.3-0.3,0.7-0.3,1,0l0.8,0.8c0.3,0.3,0.3,0.7,0,1l0,0
			c-0.3,0.3-0.7,0.3-1,0l-0.8-0.8C28.4,29.9,28.4,29.4,28.7,29.1 M25.4,32.5c0,0.4-0.3,0.7-0.7,0.7h0c-0.4,0-0.7-0.3-0.7-0.7v-1.1
			c0-0.4,0.3-0.7,0.7-0.7h0c0.4,0,0.7,0.3,0.7,0.7V32.5z M20.6,29.1L20.6,29.1c0.3,0.3,0.3,0.7,0,1l-0.8,0.8c-0.3,0.3-0.7,0.3-1,0
			l0,0c-0.3-0.3-0.3-0.7,0-1l0.8-0.8C19.9,28.9,20.3,28.9,20.6,29.1 M18.9,25.1c0,0.4-0.3,0.7-0.7,0.7h-1.1c-0.4,0-0.7-0.3-0.7-0.7
			v0c0-0.4,0.3-0.7,0.7-0.7h1.1C18.6,24.4,18.9,24.7,18.9,25.1L18.9,25.1z M20.6,21.2L20.6,21.2c-0.3,0.3-0.7,0.3-1,0l-0.8-0.8
			c-0.3-0.3-0.3-0.7,0-1l0,0c0.3-0.3,0.7-0.3,1,0l0.8,0.8C20.9,20.5,20.9,20.9,20.6,21.2 M25.4,18.8c0,0.4-0.3,0.7-0.7,0.7h0
			c-0.4,0-0.7-0.3-0.7-0.7v-1.1c0-0.4,0.3-0.7,0.7-0.7h0c0.4,0,0.7,0.3,0.7,0.7V18.8z M24.7,27.6c-1.4,0-2.5-1.1-2.5-2.5
			c0-1.4,1.1-2.5,2.5-2.5c1.4,0,2.5,1.1,2.5,2.5C27.2,26.5,26.1,27.6,24.7,27.6 M24.7,21.3c-2.2,0-3.9,1.7-3.9,3.9
			c0,2.1,1.8,3.9,3.9,3.9c2.2,0,3.9-1.7,3.9-3.9S26.8,21.3,24.7,21.3"/>
		<path class="st1" d="M24.7,33.4L24.7,33.4c-0.5,0-0.9-0.4-0.9-0.9v-1.1c0-0.5,0.4-0.9,0.9-0.9c0.5,0,0.9,0.4,0.9,0.9v1.1
			C25.6,33,25.2,33.4,24.7,33.4z M24.7,30.9c-0.3,0-0.5,0.2-0.5,0.5v1.1c0,0.3,0.2,0.5,0.5,0.5h0c0.3,0,0.5-0.2,0.5-0.5v-1.1
			C25.2,31.2,25,30.9,24.7,30.9z M30,31.3c-0.2,0-0.5-0.1-0.6-0.3l-0.8-0.8c-0.2-0.2-0.3-0.4-0.3-0.6c0-0.2,0.1-0.5,0.3-0.6
			c0.4-0.4,0.9-0.3,1.3,0l0.8,0.8c0.2,0.2,0.3,0.4,0.3,0.6c0,0.2-0.1,0.5-0.3,0.6C30.4,31.2,30.2,31.3,30,31.3z M29.2,29.1
			c-0.1,0-0.3,0.1-0.4,0.1c-0.1,0.1-0.2,0.2-0.2,0.4c0,0.1,0.1,0.3,0.2,0.4l0.8,0.8c0.2,0.2,0.5,0.2,0.7,0c0.1-0.1,0.2-0.2,0.2-0.4
			c0-0.1-0.1-0.3-0.2-0.4l-0.8-0.8C29.5,29.2,29.4,29.1,29.2,29.1z M19.4,31.3c-0.2,0-0.5-0.1-0.6-0.3c-0.2-0.2-0.3-0.4-0.3-0.6
			c0-0.2,0.1-0.5,0.3-0.6l0.8-0.8c0.3-0.3,0.9-0.3,1.3,0l0,0c0.1,0.1,0.2,0.4,0.2,0.6s-0.1,0.5-0.3,0.6L20,31
			C19.8,31.2,19.6,31.3,19.4,31.3z M20.1,29.1c-0.1,0-0.3,0.1-0.4,0.1L19,30c-0.1,0.1-0.2,0.2-0.2,0.4c0,0.1,0.1,0.3,0.2,0.4
			c0.2,0.2,0.6,0.2,0.8,0l0.8-0.8c0.1-0.1,0.2-0.2,0.2-0.4s-0.1-0.3-0.2-0.4l0,0C20.4,29.2,20.3,29.1,20.1,29.1z M24.7,29.2
			c-2.3,0-4.1-1.8-4.1-4c0-2.2,1.8-4,4.1-4s4.1,1.8,4.1,4C28.8,27.4,26.9,29.2,24.7,29.2z M24.7,21.5c-2.1,0-3.8,1.6-3.8,3.7
			s1.7,3.7,3.8,3.7c2.1,0,3.8-1.6,3.8-3.7S26.7,21.5,24.7,21.5z M24.7,27.8c-1.5,0-2.7-1.2-2.7-2.6c0-1.5,1.2-2.6,2.7-2.6
			c1.5,0,2.7,1.2,2.7,2.6C27.4,26.6,26.1,27.8,24.7,27.8z M24.7,22.9c-1.3,0-2.3,1-2.3,2.3c0,1.3,1,2.3,2.3,2.3s2.3-1,2.3-2.3
			C27,23.9,25.9,22.9,24.7,22.9z M32.2,26h-1.1c-0.5,0-0.9-0.4-0.9-0.9c0-0.5,0.4-0.9,0.9-0.9h1.1c0.5,0,0.9,0.4,0.9,0.9
			C33.1,25.6,32.7,26,32.2,26z M31.1,24.6c-0.3,0-0.5,0.2-0.5,0.5c0,0.3,0.2,0.5,0.5,0.5h1.1c0.3,0,0.5-0.2,0.5-0.5
			c0-0.3-0.2-0.5-0.5-0.5H31.1z M18.2,26h-1.1c-0.5,0-0.9-0.4-0.9-0.9c0-0.5,0.4-0.9,0.9-0.9h1.1c0.5,0,0.9,0.4,0.9,0.9
			C19.1,25.6,18.7,26,18.2,26z M17.1,24.6c-0.3,0-0.5,0.2-0.5,0.5c0,0.3,0.2,0.5,0.5,0.5h1.1c0.3,0,0.5-0.2,0.5-0.5
			c0-0.3-0.2-0.5-0.5-0.5H17.1z M29.2,21.6c-0.2,0-0.5-0.1-0.6-0.3c-0.2-0.2-0.3-0.4-0.3-0.6c0-0.2,0.1-0.5,0.3-0.6l0.8-0.8
			c0.3-0.3,0.9-0.3,1.3,0c0.2,0.2,0.3,0.4,0.3,0.6c0,0.2-0.1,0.5-0.3,0.6l-0.8,0.8C29.7,21.5,29.5,21.6,29.2,21.6z M30,19.5
			c-0.1,0-0.3,0.1-0.4,0.1l-0.8,0.8c-0.1,0.1-0.2,0.2-0.2,0.4c0,0.1,0.1,0.3,0.2,0.4c0.2,0.2,0.6,0.2,0.8,0l0.8-0.8
			c0.1-0.1,0.2-0.2,0.1-0.4c0-0.1-0.1-0.3-0.2-0.4C30.3,19.5,30.1,19.5,30,19.5z M20.1,21.6c-0.2,0-0.5-0.1-0.6-0.3l-0.8-0.8
			c-0.2-0.2-0.3-0.4-0.3-0.6c0-0.2,0.1-0.5,0.3-0.6c0.4-0.4,0.9-0.3,1.3,0l0.8,0.8c0.2,0.2,0.3,0.4,0.3,0.6c0,0.2-0.1,0.5-0.3,0.6
			C20.6,21.5,20.4,21.6,20.1,21.6z M19.4,19.5c-0.1,0-0.3,0.1-0.4,0.1c-0.1,0.1-0.2,0.2-0.2,0.4c0,0.1,0.1,0.3,0.2,0.4l0.8,0.8
			c0.2,0.2,0.5,0.2,0.7,0c0.1-0.1,0.2-0.2,0.2-0.4c0-0.1-0.1-0.3-0.2-0.4l-0.8-0.8C19.6,19.5,19.5,19.5,19.4,19.5z M24.7,19.7
			L24.7,19.7c-0.5,0-0.9-0.4-0.9-0.9v-1.1c0-0.5,0.4-0.9,0.9-0.9c0.5,0,0.9,0.4,0.9,0.9v1.1C25.6,19.3,25.2,19.7,24.7,19.7z
			 M24.7,17.3c-0.3,0-0.5,0.2-0.5,0.5v1.1c0,0.3,0.2,0.5,0.5,0.5h0c0.3,0,0.5-0.2,0.5-0.5v-1.1C25.2,17.5,25,17.3,24.7,17.3z"/>
	</g>
	<g>
		<path class="st1" d="M24.2,37.1c0.3,0,0.5,0,0.8,0.1c0.2,0.1,0.4,0.1,0.5,0.2c0.1,0.1,0.3,0.2,0.3,0.2c0.1,0.1,0.1,0.1,0.1,0.1
			l-0.6,0.8c0,0-0.1-0.1-0.1-0.1c-0.1,0-0.1-0.1-0.2-0.1c-0.1,0-0.2-0.1-0.3-0.1c-0.1,0-0.3,0-0.4,0c-0.2,0-0.4,0-0.5,0.1
			c-0.2,0.1-0.3,0.2-0.4,0.3c-0.1,0.1-0.2,0.2-0.3,0.4C23.1,39,23,39.2,23,39.4c0,0.2,0,0.4,0.1,0.5c0.1,0.2,0.2,0.3,0.3,0.4
			c0.1,0.1,0.3,0.2,0.4,0.3c0.2,0.1,0.3,0.1,0.5,0.1c0.2,0,0.3,0,0.4-0.1c0.1,0,0.2-0.1,0.3-0.1c0.1-0.1,0.2-0.1,0.2-0.1
			c0,0,0.1-0.1,0.1-0.1l0.7,0.8c0,0-0.1,0.1-0.1,0.1c-0.1,0.1-0.2,0.2-0.3,0.2c-0.2,0.1-0.3,0.2-0.6,0.2c-0.2,0.1-0.5,0.1-0.8,0.1
			c-0.3,0-0.7-0.1-1-0.2c-0.3-0.1-0.5-0.3-0.8-0.5c-0.2-0.2-0.4-0.4-0.5-0.7c-0.1-0.3-0.2-0.6-0.2-1c0-0.3,0.1-0.6,0.2-0.9
			c0.1-0.3,0.3-0.5,0.5-0.7c0.2-0.2,0.5-0.4,0.8-0.5C23.6,37.1,23.9,37.1,24.2,37.1"/>
		<path class="st1" d="M29.1,40.7c0.2,0,0.4,0,0.5-0.1c0.1-0.1,0.2-0.1,0.2-0.2v-2.1c0,0-0.1,0-0.1-0.1c0,0-0.1,0-0.2-0.1
			c-0.1,0-0.2,0-0.3-0.1c-0.1,0-0.2,0-0.4,0c-0.2,0-0.3,0-0.5,0.1c-0.2,0.1-0.3,0.2-0.4,0.3c-0.1,0.1-0.2,0.3-0.3,0.4
			c-0.1,0.1-0.1,0.3-0.1,0.5c0,0.5,0.1,0.8,0.4,1.1C28.3,40.6,28.6,40.7,29.1,40.7 M29.8,35.6H31v5.2c0,0.1,0,0.2,0,0.3
			c0,0.1,0,0.2,0.1,0.3c-0.1,0-0.2,0.1-0.3,0.1c-0.1,0-0.3,0.1-0.4,0.1c-0.2,0-0.3,0.1-0.5,0.1c-0.2,0-0.4,0-0.6,0
			c-0.3,0-0.7,0-1-0.1c-0.3-0.1-0.6-0.2-0.9-0.4c-0.3-0.2-0.5-0.4-0.7-0.8c-0.2-0.3-0.3-0.7-0.3-1.2c0-0.3,0.1-0.6,0.2-0.9
			c0.1-0.3,0.3-0.5,0.5-0.7c0.2-0.2,0.4-0.4,0.7-0.5c0.3-0.1,0.6-0.2,0.9-0.2c0.2,0,0.3,0,0.5,0c0.1,0,0.3,0,0.4,0.1
			c0.1,0,0.2,0.1,0.2,0.1c0.1,0,0.1,0,0.1,0.1C29.8,37.3,29.8,35.6,29.8,35.6z"/>
	</g>
	<polygon class="st1" points="34.8,35.3 31.4,42.4 32,42.4 35.4,35.3 	"/>
	<g>
		<path class="st1" d="M35.8,38c0-0.1,0-0.2,0-0.3c0-0.1-0.1-0.2-0.1-0.3c0.2-0.1,0.4-0.1,0.7-0.2c0.3-0.1,0.7-0.1,1.2-0.1
			c0.2,0,0.4,0,0.6,0.1c0.2,0,0.3,0.1,0.4,0.1c0.1,0,0.2,0.1,0.3,0.1c0.1,0,0.1,0.1,0.1,0.1c0,0,0.1,0,0.2-0.1
			c0.1,0,0.2-0.1,0.3-0.1c0.1,0,0.3-0.1,0.4-0.1c0.2,0,0.3-0.1,0.5-0.1c0.4,0,0.7,0,0.9,0.1c0.2,0.1,0.4,0.2,0.6,0.4
			c0.1,0.2,0.3,0.3,0.3,0.6c0.1,0.2,0.1,0.4,0.1,0.7v2.8h-1.2v-2.8c0-0.1,0-0.2,0-0.3c0-0.1-0.1-0.2-0.1-0.3
			c-0.1-0.1-0.1-0.1-0.2-0.2c-0.1,0-0.2-0.1-0.4-0.1c-0.3,0-0.4,0-0.6,0.1c-0.1,0-0.2,0.1-0.2,0.1c0,0.1,0,0.1,0,0.2
			c0,0.1,0,0.2,0,0.4v2.8h-1.2v-2.8c0-0.1,0-0.2,0-0.3c0-0.1-0.1-0.2-0.1-0.3c-0.1-0.1-0.2-0.2-0.3-0.2C37.9,38,37.8,38,37.6,38
			c-0.2,0-0.3,0-0.5,0c-0.1,0-0.2,0.1-0.2,0.1v3.5h-1.2L35.8,38L35.8,38z"/>
		<path class="st1" d="M42.8,37.5l0.5-0.5c0.7-0.6,1.1-1.1,1.1-1.5c0-0.3-0.2-0.6-0.7-0.6c-0.3,0-0.6,0.1-0.7,0.3l-0.2-0.4
			c0.2-0.2,0.6-0.4,1.1-0.4c0.8,0,1.2,0.5,1.2,1c0,0.7-0.5,1.1-1.2,1.7l-0.3,0.2v0h1.5v0.5h-2.4L42.8,37.5L42.8,37.5z"/>
	</g>
	<polygon class="st1" points="4.4,8.2 4.4,13.4 7.5,13.4 7.6,12.5 5.5,12.5 5.5,8.2 	"/>
	<g>
		<path class="st1" d="M12.2,8.2v3.4c0,0.2,0,0.4-0.1,0.7c-0.1,0.2-0.2,0.4-0.3,0.6c-0.2,0.2-0.4,0.3-0.7,0.5
			c-0.3,0.1-0.6,0.2-1,0.2c-0.4,0-0.8-0.1-1.1-0.2c-0.3-0.1-0.5-0.3-0.6-0.5c-0.2-0.2-0.3-0.4-0.3-0.6C8,12,8,11.8,8,11.6V8.2H9v3.4
			c0,0.3,0.1,0.6,0.3,0.7c0.2,0.2,0.4,0.3,0.8,0.3c0.3,0,0.6-0.1,0.8-0.3c0.2-0.2,0.3-0.4,0.3-0.7V8.2H12.2z"/>
	</g>
	<polygon class="st1" points="17.1,8 18.6,13.4 17.4,13.4 16.8,10.8 15.6,13.4 14.4,10.8 13.8,13.4 12.6,13.4 14.1,8 15.6,11.3 	"/>
	<rect x="19" y="8.2" class="st1" width="1.1" height="5.2"/>
	<g>
		<path class="st1" d="M26,10.8c0,0.3,0,0.5,0.1,0.7c0.1,0.2,0.2,0.4,0.4,0.5c0.2,0.2,0.3,0.3,0.5,0.4c0.2,0.1,0.4,0.1,0.6,0.1
			s0.4,0,0.6-0.1c0.2-0.1,0.4-0.2,0.5-0.4c0.2-0.2,0.3-0.3,0.4-0.5c0.1-0.2,0.1-0.4,0.1-0.7c0-0.3,0-0.5-0.1-0.7
			c-0.1-0.2-0.2-0.4-0.4-0.5c-0.2-0.1-0.3-0.3-0.5-0.3c-0.2-0.1-0.4-0.1-0.6-0.1c-0.2,0-0.5,0-0.7,0.1c-0.2,0.1-0.4,0.2-0.5,0.3
			c-0.2,0.1-0.3,0.3-0.4,0.5C26,10.3,26,10.6,26,10.8 M27.6,8.1c0.4,0,0.8,0.1,1.1,0.2c0.3,0.1,0.6,0.3,0.9,0.6
			c0.3,0.2,0.5,0.5,0.6,0.9c0.1,0.3,0.2,0.7,0.2,1.1c0,0.4-0.1,0.7-0.2,1.1c-0.1,0.3-0.4,0.6-0.6,0.9c-0.3,0.2-0.5,0.4-0.9,0.6
			c-0.3,0.1-0.7,0.2-1.1,0.2c-0.4,0-0.7-0.1-1.1-0.2c-0.3-0.1-0.6-0.3-0.9-0.6c-0.3-0.2-0.5-0.5-0.6-0.9c-0.1-0.3-0.2-0.7-0.2-1.1
			c0-0.4,0.1-0.7,0.2-1.1c0.1-0.3,0.3-0.6,0.6-0.9c0.3-0.2,0.5-0.4,0.9-0.6C26.9,8.2,27.2,8.1,27.6,8.1"/>
		<path class="st1" d="M32.9,8.1c0.2,0,0.4,0,0.7,0.1c0.2,0.1,0.4,0.1,0.5,0.2c0.2,0.1,0.3,0.1,0.4,0.2c0.1,0.1,0.2,0.1,0.2,0.1
			l-0.5,0.8c-0.2-0.1-0.4-0.3-0.6-0.4c-0.2-0.1-0.5-0.1-0.8-0.1c-0.2,0-0.4,0-0.6,0.1C32,9.3,32,9.4,32,9.6c0,0.1,0.1,0.3,0.2,0.3
			s0.3,0.1,0.5,0.2c0.2,0.1,0.4,0.1,0.6,0.2c0.2,0.1,0.5,0.2,0.7,0.3c0.3,0.1,0.5,0.3,0.6,0.5c0.1,0.2,0.2,0.5,0.2,0.8
			c0,0.3,0,0.5-0.1,0.7c-0.1,0.2-0.2,0.4-0.4,0.5c-0.2,0.1-0.4,0.3-0.6,0.3c-0.3,0.1-0.5,0.1-0.9,0.1c-0.2,0-0.5,0-0.7-0.1
			c-0.2-0.1-0.4-0.1-0.6-0.2c-0.2-0.1-0.3-0.1-0.4-0.2c-0.1-0.1-0.2-0.1-0.3-0.2l0.5-0.9c0,0,0.1,0.1,0.1,0.1
			c0.1,0.1,0.2,0.1,0.3,0.2c0.1,0.1,0.3,0.1,0.5,0.2s0.4,0.1,0.6,0.1c0.6,0,0.9-0.2,0.9-0.6c0-0.2-0.1-0.3-0.2-0.4
			c-0.1-0.1-0.3-0.2-0.5-0.2c-0.2-0.1-0.4-0.1-0.6-0.2c-0.2-0.1-0.5-0.1-0.7-0.3c-0.2-0.1-0.3-0.2-0.4-0.3c-0.1-0.1-0.2-0.2-0.3-0.3
			c-0.1-0.1-0.1-0.2-0.1-0.3c0-0.1,0-0.2,0-0.4c0-0.3,0.1-0.5,0.2-0.7c0.1-0.2,0.3-0.4,0.4-0.5c0.2-0.1,0.4-0.2,0.6-0.3
			C32.3,8.1,32.6,8.1,32.9,8.1"/>
		<polygon class="st1" points="24.5,8.6 24.5,13.4 21.7,10.6 21.8,13.3 20.8,13.3 20.8,8.5 23.6,11.3 23.6,8.6 		"/>
	</g>
	<rect x="35.3" y="8.3" class="st1" width="1.1" height="5.2"/>
	<polygon class="st1" points="40.7,8.4 40.6,9.3 39.3,9.3 39.3,13.6 38.2,13.6 38.2,9.3 36.7,9.3 36.9,8.4 	"/>
	<path class="st1" d="M41.3,8.4v5.2h3.4l0.2-0.9h-2.5v-0.9h1.9l0.1-0.9h-2V9.3h2.2l-0.1-0.9L41.3,8.4L41.3,8.4z M43.8,6.9l-1.3,0.9
		L42.7,8l1.4-0.7L43.8,6.9z"/>
</g>
<text transform="matrix(1 0 0 1 2.4451 41.7384)" class="st2 st3 st4">2500</text>
</svg>
