<?xml version="1.0" encoding="utf-8"?>
<!-- Generator: Adobe Illustrator 16.0.0, SVG Export Plug-In . SVG Version: 6.00 Build 0)  -->
<!DOCTYPE svg PUBLIC "-//W3C//DTD SVG 1.1//EN" "http://www.w3.org/Graphics/SVG/1.1/DTD/svg11.dtd">
<svg version="1.1" id="Calque_1" xmlns="http://www.w3.org/2000/svg" xmlns:xlink="http://www.w3.org/1999/xlink" x="0px" y="0px"
	 width="48px" height="48px" viewBox="0 0 48 48" enable-background="new 0 0 48 48" xml:space="preserve">
<path fill="#00517D" d="M36.762,48H11.238C5.041,48,0,42.654,0,36.458V10.931C0,4.735,5.041,0,11.238,0h25.523
	C42.959,0,48,4.735,48,10.931v25.527C48,42.654,42.959,48,36.762,48z M46,11.236C46,6.135,41.864,2,36.762,2H11.238
	C6.136,2,2,6.135,2,11.236v25.527C2,41.865,6.136,46,11.238,46h25.523C41.864,46,46,41.865,46,36.764V11.236z"/>
<g>
	<g>
		<path fill="#006699" stroke="#006699" stroke-width="0.5" stroke-miterlimit="10" d="M42.701,21.505c-0.399-0.4-0.998-0.4-1.399,0
			l-3.244,3.555c0.076-3.162-0.906-6.238-2.75-8.747c-2.197-2.997-5.593-4.995-9.39-5.595c-3.797-0.6-7.593,0.4-10.59,2.598
			c-0.398,0.399-0.599,0.998-0.199,1.398c0.4,0.4,0.999,0.6,1.397,0.2c2.599-1.798,5.996-2.597,9.191-2.198
			c3.397,0.4,6.194,2.198,8.192,4.795c1.524,2.204,2.279,4.979,2.246,7.723l-3.646-3.327c-0.399-0.399-0.999-0.399-1.397,0
			c-0.399,0.399-0.399,1,0,1.398l5.395,4.795c0.2,0.2,0.399,0.2,0.6,0.2c0.199,0,0.399-0.2,0.799,0l4.795-5.395
			C43.101,22.504,43.101,21.905,42.701,21.505L42.701,21.505z M42.701,21.505"/>
		<path fill="#006699" stroke="#006699" stroke-width="0.5" stroke-miterlimit="10" d="M31.314,35.092
			c-2.599,1.798-5.997,2.597-9.193,2.198c-3.396-0.4-6.193-2.198-8.19-4.795c-1.595-2.304-2.351-5.23-2.235-8.094l3.834,3.499
			c0.398,0.4,0.997,0.4,1.397,0c0.399-0.399,0.399-0.999,0-1.398l-5.394-4.795c-0.201-0.2-0.601-0.2-0.802-0.2
			c-0.199,0-0.398,0.2-0.598,0.4l-4.796,5.395c-0.398,0.4-0.398,0.999,0,1.399c0.199,0.199,0.4,0.199,0.601,0.199
			c0.198,0,0.598,0,0.798-0.599l2.843-3.113c0.021,3.007,0.996,5.914,2.753,8.309c2.198,2.996,5.594,4.994,9.39,5.593
			c0.801,0.2,1.398,0.2,2.198,0.2c2.997,0,5.994-0.999,8.591-2.597c0.399-0.4,0.6-1,0.2-1.399S31.712,34.692,31.314,35.092
			L31.314,35.092z M31.314,35.092"/>
	</g>
</g>
</svg>
