<?xml version="1.0" encoding="utf-8"?>
<!-- Generator: Adobe Illustrator 21.0.0, SVG Export Plug-In . SVG Version: 6.00 Build 0)  -->
<svg version="1.1" id="Calque_1" xmlns="http://www.w3.org/2000/svg" xmlns:xlink="http://www.w3.org/1999/xlink" x="0px" y="0px"
	 viewBox="0 0 48 48" enable-background="new 0 0 48 48" xml:space="preserve">
<path fill="#00517D" d="M48,36.763C48,42.969,42.969,48,36.763,48H11.237C5.031,48,0,42.969,0,36.763V11.237
	C0,5.031,5.031,0,11.237,0h25.526C42.969,0,48,5.031,48,11.237V36.763z M46,11.237C46,6.135,41.865,2,36.763,2H11.237
	C6.135,2,2,6.135,2,11.237v25.526C2,41.865,6.135,46,11.237,46h25.526C41.865,46,46,41.865,46,36.763V11.237z"/>
<g>
	<path fill="#005480" d="M11.685,38.309c0.053-0.014,0.174-0.038,0.363-0.074c0.19-0.036,0.424-0.053,0.704-0.053
		c0.311,0,0.608,0.031,0.89,0.093c0.282,0.063,0.53,0.164,0.743,0.304c0.214,0.14,0.384,0.32,0.51,0.543
		c0.127,0.222,0.189,0.49,0.189,0.806c0,0.32-0.064,0.589-0.192,0.807c-0.13,0.218-0.294,0.392-0.497,0.523
		c-0.202,0.131-0.43,0.225-0.684,0.284c-0.252,0.057-0.504,0.086-0.753,0.086c-0.106,0-0.213-0.006-0.32-0.02v1.4h-0.953V38.309z
		 M12.967,39.022c-0.112,0-0.189,0.002-0.234,0.006c-0.045,0.005-0.077,0.011-0.094,0.02v1.728c0.018,0.008,0.046,0.015,0.084,0.019
		c0.038,0.005,0.115,0.007,0.23,0.007c0.134,0,0.271-0.016,0.409-0.047c0.138-0.031,0.265-0.081,0.378-0.15
		c0.114-0.068,0.207-0.158,0.282-0.269c0.073-0.11,0.109-0.248,0.109-0.412c0-0.173-0.035-0.318-0.107-0.435
		c-0.071-0.117-0.163-0.21-0.275-0.279c-0.111-0.068-0.236-0.117-0.374-0.146C13.237,39.037,13.101,39.022,12.967,39.022z"/>
	<path fill="#005480" d="M17.877,38.182c0.347,0,0.673,0.064,0.976,0.19c0.305,0.127,0.569,0.3,0.794,0.521
		c0.224,0.22,0.401,0.479,0.529,0.78c0.129,0.3,0.194,0.623,0.194,0.97c0,0.346-0.065,0.668-0.196,0.966
		c-0.131,0.298-0.31,0.558-0.534,0.78c-0.225,0.223-0.489,0.396-0.793,0.523c-0.305,0.127-0.63,0.191-0.976,0.191
		c-0.338,0-0.657-0.06-0.956-0.18c-0.301-0.12-0.563-0.288-0.79-0.503c-0.227-0.215-0.408-0.474-0.541-0.776
		c-0.133-0.302-0.2-0.636-0.2-1c0-0.347,0.065-0.669,0.193-0.967c0.129-0.297,0.306-0.557,0.53-0.779
		c0.225-0.223,0.488-0.397,0.79-0.524C17.2,38.246,17.526,38.182,17.877,38.182z M16.385,40.642c0,0.235,0.04,0.448,0.123,0.636
		c0.082,0.189,0.191,0.353,0.33,0.49c0.138,0.138,0.296,0.243,0.477,0.316c0.179,0.074,0.369,0.11,0.569,0.11
		c0.2,0,0.391-0.038,0.57-0.114c0.18-0.075,0.338-0.181,0.474-0.319c0.135-0.138,0.243-0.302,0.323-0.494
		c0.08-0.191,0.12-0.402,0.12-0.633c0-0.23-0.039-0.441-0.116-0.633c-0.078-0.19-0.185-0.353-0.32-0.486
		c-0.135-0.133-0.293-0.236-0.474-0.31c-0.18-0.073-0.372-0.109-0.576-0.109c-0.208,0-0.404,0.037-0.586,0.109
		c-0.182,0.074-0.341,0.177-0.477,0.31c-0.135,0.133-0.242,0.296-0.32,0.486C16.423,40.193,16.385,40.406,16.385,40.642z"/>
	<path fill="#005480" d="M24.67,38.282v3.08c0,0.186-0.03,0.383-0.09,0.589c-0.06,0.207-0.163,0.395-0.307,0.563
		c-0.145,0.169-0.338,0.309-0.58,0.42c-0.242,0.111-0.548,0.167-0.916,0.167c-0.386,0-0.702-0.056-0.947-0.167
		c-0.244-0.111-0.436-0.252-0.577-0.423c-0.14-0.171-0.235-0.359-0.287-0.563c-0.051-0.205-0.077-0.401-0.077-0.587v-3.08h0.954
		v3.06c0,0.293,0.083,0.518,0.249,0.673c0.166,0.156,0.399,0.233,0.701,0.233c0.274,0,0.497-0.077,0.667-0.23
		c0.17-0.154,0.256-0.379,0.256-0.676v-3.06H24.67z"/>
	<path fill="#005480" d="M27.609,38.182c0.298,0,0.556,0.033,0.776,0.1c0.22,0.066,0.404,0.141,0.55,0.22
		c0.146,0.08,0.257,0.153,0.33,0.22c0.073,0.066,0.112,0.102,0.116,0.106l-0.533,0.733c-0.014-0.008-0.048-0.038-0.104-0.089
		c-0.056-0.051-0.133-0.104-0.234-0.16c-0.099-0.055-0.221-0.105-0.363-0.15c-0.143-0.044-0.304-0.066-0.487-0.066
		c-0.213,0-0.41,0.038-0.589,0.113c-0.18,0.075-0.337,0.18-0.47,0.313c-0.133,0.133-0.238,0.292-0.313,0.476
		c-0.076,0.185-0.114,0.389-0.114,0.61c0,0.231,0.038,0.444,0.114,0.64c0.075,0.195,0.18,0.363,0.313,0.503
		c0.133,0.14,0.291,0.249,0.47,0.327c0.179,0.077,0.377,0.116,0.589,0.116c0.205,0,0.384-0.023,0.537-0.07
		c0.154-0.046,0.283-0.1,0.387-0.163c0.104-0.062,0.187-0.121,0.247-0.177c0.06-0.055,0.098-0.094,0.116-0.116l0.533,0.74
		c-0.018,0.013-0.069,0.058-0.153,0.133c-0.085,0.076-0.204,0.154-0.357,0.237c-0.153,0.082-0.343,0.156-0.57,0.223
		c-0.226,0.067-0.494,0.1-0.8,0.1c-0.33,0-0.641-0.057-0.938-0.17c-0.294-0.114-0.552-0.277-0.772-0.49
		c-0.22-0.213-0.395-0.473-0.523-0.78c-0.129-0.306-0.194-0.653-0.194-1.039c0-0.351,0.062-0.675,0.186-0.974
		c0.125-0.298,0.294-0.555,0.51-0.772c0.216-0.218,0.472-0.388,0.77-0.51C26.94,38.243,27.263,38.182,27.609,38.182z"/>
	<path fill="#005480" d="M32.769,38.275l0.1,0.854h-1.98v1.354h1.76l-0.094,0.826h-1.667v0.847h2.206l-0.146,0.853h-3.013v-4.733
		H32.769z"/>
	<path fill="#005480" d="M35.108,38.182c0.204,0,0.397,0.023,0.58,0.07c0.183,0.047,0.345,0.102,0.487,0.163
		c0.142,0.063,0.26,0.124,0.354,0.184c0.093,0.06,0.155,0.101,0.187,0.123l-0.44,0.767c-0.168-0.129-0.35-0.237-0.546-0.324
		c-0.195-0.086-0.431-0.13-0.706-0.13c-0.213,0-0.385,0.042-0.517,0.127c-0.131,0.084-0.196,0.207-0.196,0.367
		c0,0.129,0.055,0.227,0.167,0.297c0.111,0.069,0.253,0.128,0.423,0.18c0.17,0.051,0.361,0.105,0.569,0.163
		c0.209,0.058,0.412,0.14,0.607,0.246c0.235,0.129,0.416,0.286,0.543,0.47c0.126,0.185,0.19,0.421,0.19,0.71
		c0,0.227-0.042,0.433-0.127,0.62c-0.084,0.187-0.206,0.346-0.363,0.477c-0.157,0.131-0.35,0.232-0.576,0.303
		c-0.227,0.071-0.485,0.107-0.774,0.107c-0.208,0-0.405-0.024-0.589-0.07c-0.184-0.047-0.351-0.103-0.5-0.167
		c-0.148-0.064-0.28-0.131-0.393-0.2c-0.113-0.069-0.202-0.128-0.264-0.177l0.474-0.8c0.013,0.014,0.056,0.049,0.129,0.107
		c0.074,0.058,0.168,0.118,0.28,0.18c0.113,0.062,0.247,0.117,0.4,0.166c0.153,0.05,0.317,0.074,0.49,0.074
		c0.542,0,0.813-0.175,0.813-0.527c0-0.15-0.055-0.266-0.163-0.346c-0.109-0.081-0.247-0.149-0.414-0.207
		c-0.167-0.058-0.352-0.115-0.556-0.17c-0.205-0.056-0.403-0.133-0.593-0.23c-0.151-0.075-0.275-0.154-0.374-0.237
		c-0.098-0.082-0.175-0.168-0.233-0.26c-0.058-0.091-0.099-0.188-0.12-0.29c-0.022-0.103-0.033-0.211-0.033-0.327
		c0-0.244,0.047-0.457,0.143-0.637c0.096-0.179,0.226-0.329,0.39-0.449c0.164-0.121,0.354-0.209,0.57-0.267
		C34.64,38.211,34.869,38.182,35.108,38.182z"/>
</g>
<g>
	<path fill="#005480" d="M28.392,16.713H20.6c-0.648,0-1.18,0.532-1.18,1.181v15.117c0,0.649,0.532,1.18,1.18,1.18h7.793
		c0.649,0,1.18-0.532,1.18-1.18V17.894C29.573,17.245,29.041,16.713,28.392,16.713L28.392,16.713z M23.251,17.564h2.492
		c0.081,0,0.144,0.064,0.144,0.144c0,0.078-0.063,0.141-0.144,0.141h-2.492c-0.081,0-0.145-0.063-0.145-0.141
		C23.106,17.628,23.17,17.564,23.251,17.564L23.251,17.564z M24.496,33.601c-0.327,0-0.59-0.263-0.59-0.59
		c0-0.326,0.263-0.59,0.59-0.59c0.327,0,0.59,0.263,0.59,0.59C25.086,33.338,24.823,33.601,24.496,33.601L24.496,33.601z
		 M28.751,32.006h-8.51V18.586h8.51V32.006z M28.751,32.006"/>
</g>
<g>
	<path fill="#005480" d="M17.146,7.632v3.23h1.092l-0.114,1.365h-0.978V14H15.61v-1.774h-3.798c0.046-0.098,0.127-0.276,0.244-0.534
		c0.118-0.258,0.248-0.566,0.393-0.927c0.144-0.36,0.292-0.758,0.444-1.194c0.151-0.436,0.29-0.882,0.415-1.336
		c0.125-0.455,0.229-0.908,0.312-1.359s0.126-0.87,0.126-1.257c0-0.022-0.002-0.043-0.006-0.062
		c-0.003-0.019-0.006-0.04-0.006-0.062l1.672,0.228c0,0.242-0.036,0.523-0.108,0.841c-0.072,0.319-0.165,0.65-0.278,0.995
		c-0.114,0.345-0.241,0.69-0.381,1.035c-0.141,0.345-0.279,0.667-0.415,0.966c-0.137,0.3-0.264,0.563-0.381,0.791
		c-0.118,0.228-0.21,0.398-0.279,0.512h2.139v-3.23H17.146z"/>
	<path fill="#005480" d="M25.288,10.145v1.478h-3.639v-1.478H25.288z"/>
	<path fill="#005480" d="M33.555,6.074c-0.205,0.136-0.419,0.309-0.642,0.517c-0.224,0.209-0.44,0.428-0.648,0.659
		c-0.209,0.232-0.402,0.466-0.58,0.705c-0.178,0.239-0.32,0.457-0.426,0.654c0.128-0.083,0.296-0.167,0.5-0.25
		c0.205-0.083,0.492-0.125,0.864-0.125c0.341,0,0.675,0.065,1.001,0.193c0.326,0.129,0.616,0.317,0.87,0.563
		c0.254,0.246,0.459,0.546,0.614,0.898c0.155,0.353,0.233,0.753,0.233,1.2c0,0.432-0.08,0.832-0.239,1.2
		c-0.159,0.367-0.379,0.686-0.659,0.955c-0.28,0.269-0.616,0.478-1.006,0.625c-0.39,0.148-0.813,0.221-1.268,0.221
		c-0.546,0-1.025-0.087-1.438-0.261c-0.414-0.175-0.76-0.404-1.04-0.689c-0.281-0.284-0.493-0.608-0.637-0.972
		c-0.144-0.364-0.216-0.731-0.216-1.103c0-0.47,0.06-0.922,0.182-1.359c0.121-0.436,0.277-0.845,0.466-1.228
		s0.403-0.741,0.642-1.074c0.239-0.334,0.48-0.632,0.723-0.893c0.242-0.261,0.47-0.489,0.682-0.682
		c0.212-0.193,0.39-0.343,0.534-0.449L33.555,6.074z M30.576,11.709c0.076,0.186,0.186,0.351,0.331,0.495
		c0.144,0.144,0.323,0.26,0.537,0.346c0.213,0.087,0.456,0.131,0.73,0.131c0.213,0,0.414-0.044,0.605-0.131
		c0.19-0.087,0.354-0.205,0.491-0.353c0.137-0.148,0.246-0.314,0.326-0.5c0.08-0.186,0.12-0.381,0.12-0.586
		c0-0.251-0.042-0.474-0.126-0.671c-0.084-0.197-0.198-0.366-0.342-0.506c-0.145-0.14-0.314-0.248-0.508-0.324
		c-0.194-0.076-0.398-0.114-0.611-0.114c-0.502,0-0.905,0.15-1.21,0.449c-0.304,0.3-0.456,0.696-0.456,1.189
		C30.462,11.332,30.5,11.523,30.576,11.709z"/>
</g>
</svg>
