<?xml version="1.0" encoding="utf-8"?>
<!-- Generator: Adobe Illustrator 16.0.0, SVG Export Plug-In . SVG Version: 6.00 Build 0)  -->
<!DOCTYPE svg PUBLIC "-//W3C//DTD SVG 1.1//EN" "http://www.w3.org/Graphics/SVG/1.1/DTD/svg11.dtd">
<svg version="1.1" id="Calque_1" xmlns="http://www.w3.org/2000/svg" xmlns:xlink="http://www.w3.org/1999/xlink" x="0px" y="0px"
	 width="48px" height="48px" viewBox="0 0 48 48" enable-background="new 0 0 48 48" xml:space="preserve">
<g>
	<polygon fill="#005480" points="10.67,7.203 7.141,10.729 7.141,12.055 10.196,9 10.196,34.08 11.142,34.08 11.142,9 
		14.196,12.055 14.196,10.729 	"/>
	<polygon fill="#005480" points="10.197,33.502 10.197,39.621 7.142,36.566 7.142,37.892 10.67,41.42 14.195,37.892 14.195,36.566 
		11.142,39.621 11.142,33.502 	"/>
	<polygon fill="#005480" points="34.152,36.575 37.208,39.629 23.748,39.629 23.748,40.573 37.208,40.573 34.152,43.628 
		35.478,43.628 39.005,40.101 35.478,36.575 	"/>
	<polygon fill="#005480" points="19.868,36.575 16.341,40.101 19.868,43.628 21.193,43.628 18.138,40.573 24.259,40.573 
		24.259,39.629 18.138,39.629 21.193,36.575 	"/>
	<g>
		<path fill="#005480" d="M36.846,14.528h1.287v-4.004c0.02-0.013,0.088-0.038,0.205-0.073c0.117-0.036,0.286-0.054,0.507-0.054
			c0.2,0,0.365,0.031,0.491,0.093c0.127,0.062,0.227,0.14,0.297,0.233c0.07,0.095,0.121,0.2,0.147,0.317
			c0.024,0.117,0.038,0.227,0.038,0.332v3.155h1.286v-3.155c0-0.254-0.006-0.423-0.019-0.508c-0.013-0.083-0.03-0.156-0.048-0.215
			c0.044-0.024,0.135-0.066,0.267-0.12c0.134-0.056,0.344-0.083,0.629-0.083c0.168,0,0.309,0.023,0.419,0.072
			c0.11,0.049,0.196,0.115,0.257,0.202c0.062,0.084,0.106,0.181,0.131,0.291c0.026,0.111,0.04,0.229,0.04,0.351v3.167h1.294v-3.195
			c0-0.26-0.032-0.51-0.101-0.75c-0.069-0.239-0.185-0.452-0.351-0.633c-0.166-0.181-0.385-0.328-0.657-0.438
			c-0.272-0.11-0.61-0.167-1.013-0.167c-0.208,0-0.399,0.02-0.575,0.06c-0.175,0.04-0.329,0.082-0.458,0.133
			c-0.129,0.048-0.239,0.097-0.326,0.145c-0.088,0.049-0.146,0.083-0.172,0.103c-0.02-0.013-0.066-0.043-0.141-0.088
			s-0.176-0.094-0.308-0.146c-0.128-0.051-0.289-0.1-0.477-0.142c-0.188-0.042-0.405-0.064-0.651-0.064
			c-0.553,0-1.003,0.044-1.355,0.133c-0.35,0.088-0.616,0.167-0.796,0.238c0.07,0.091,0.114,0.2,0.13,0.327
			c0.017,0.127,0.023,0.252,0.023,0.375V14.528z M33.173,9.545c-0.324,0.134-0.603,0.316-0.841,0.557
			c-0.237,0.236-0.422,0.517-0.555,0.84c-0.134,0.325-0.2,0.679-0.2,1.063c0,0.403,0.069,0.768,0.206,1.095
			c0.135,0.328,0.323,0.608,0.563,0.838c0.241,0.231,0.523,0.41,0.849,0.537c0.325,0.125,0.677,0.19,1.061,0.19
			c0.345,0,0.642-0.038,0.892-0.113c0.25-0.074,0.46-0.158,0.628-0.251c0.169-0.091,0.298-0.179,0.39-0.265
			c0.09-0.085,0.146-0.136,0.166-0.156l-0.76-0.909c-0.007,0.006-0.035,0.035-0.088,0.087c-0.049,0.052-0.128,0.108-0.234,0.165
			c-0.103,0.058-0.227,0.113-0.374,0.161c-0.146,0.048-0.313,0.074-0.501,0.074c-0.208,0-0.402-0.034-0.58-0.102
			c-0.178-0.068-0.333-0.165-0.461-0.291c-0.131-0.127-0.232-0.282-0.308-0.467c-0.075-0.184-0.113-0.394-0.113-0.626
			c0-0.194,0.036-0.379,0.107-0.553c0.072-0.175,0.171-0.328,0.298-0.456c0.126-0.13,0.278-0.234,0.452-0.312
			c0.177-0.078,0.367-0.116,0.576-0.116c0.175,0,0.328,0.018,0.458,0.053c0.13,0.037,0.241,0.078,0.337,0.129
			c0.092,0.048,0.169,0.096,0.228,0.145c0.059,0.048,0.105,0.089,0.137,0.122l0.71-0.887c-0.014-0.013-0.063-0.059-0.151-0.142
			c-0.088-0.08-0.214-0.166-0.38-0.257c-0.165-0.09-0.369-0.171-0.613-0.244c-0.243-0.071-0.526-0.108-0.842-0.108
			C33.85,9.344,33.5,9.412,33.173,9.545 M21.173,7.203c-0.125,0.091-0.278,0.22-0.458,0.384c-0.182,0.166-0.377,0.361-0.584,0.586
			c-0.208,0.223-0.414,0.478-0.62,0.764c-0.205,0.286-0.388,0.593-0.55,0.92c-0.162,0.327-0.296,0.678-0.4,1.051
			c-0.104,0.374-0.156,0.762-0.156,1.165c0,0.318,0.062,0.633,0.186,0.944c0.123,0.312,0.305,0.59,0.545,0.832
			c0.242,0.245,0.537,0.442,0.891,0.591c0.355,0.148,0.764,0.224,1.234,0.224c0.387,0,0.751-0.064,1.085-0.19
			c0.333-0.126,0.622-0.305,0.861-0.537c0.24-0.23,0.429-0.504,0.566-0.817c0.136-0.315,0.203-0.658,0.203-1.028
			c0-0.383-0.066-0.727-0.199-1.028s-0.307-0.559-0.525-0.77s-0.465-0.371-0.746-0.482c-0.28-0.109-0.565-0.165-0.858-0.165
			c-0.316,0-0.564,0.036-0.739,0.106c-0.176,0.072-0.318,0.144-0.428,0.215c0.09-0.17,0.211-0.356,0.365-0.561
			C21,9.204,21.164,9.003,21.343,8.805c0.178-0.198,0.364-0.387,0.555-0.565c0.192-0.179,0.376-0.326,0.551-0.443L21.173,7.203z
			 M20.19,11.113c0.26-0.256,0.605-0.384,1.036-0.384c0.183,0,0.356,0.032,0.523,0.097s0.312,0.157,0.436,0.278
			c0.123,0.12,0.221,0.266,0.292,0.433c0.072,0.169,0.108,0.36,0.108,0.575c0,0.174-0.035,0.343-0.104,0.502
			c-0.068,0.159-0.162,0.301-0.277,0.428c-0.119,0.128-0.258,0.228-0.421,0.303s-0.335,0.112-0.517,0.112
			c-0.236,0-0.444-0.037-0.627-0.112c-0.181-0.075-0.335-0.174-0.459-0.298c-0.124-0.122-0.218-0.263-0.282-0.423
			c-0.066-0.159-0.099-0.323-0.099-0.492C19.798,11.709,19.929,11.37,20.19,11.113 M16.34,14.528h1.394V7.622H16.34V14.528z"/>
		<path fill="#005480" d="M34.597,34.768h1.148v-3.579c0.017-0.013,0.078-0.034,0.183-0.066c0.104-0.031,0.255-0.047,0.453-0.047
			c0.179,0,0.326,0.027,0.44,0.083c0.112,0.054,0.202,0.125,0.265,0.207c0.064,0.085,0.106,0.179,0.13,0.283
			c0.023,0.105,0.035,0.204,0.035,0.298v2.821h1.15v-2.821c0-0.228-0.007-0.378-0.019-0.454c-0.011-0.076-0.025-0.139-0.043-0.191
			c0.042-0.022,0.122-0.059,0.24-0.107c0.12-0.05,0.307-0.075,0.562-0.075c0.151,0,0.275,0.022,0.374,0.065
			c0.098,0.044,0.177,0.104,0.231,0.178c0.054,0.076,0.094,0.163,0.119,0.262c0.021,0.099,0.035,0.202,0.035,0.315v2.829h1.157
			v-2.855c0-0.233-0.031-0.457-0.093-0.672c-0.06-0.215-0.164-0.402-0.313-0.564c-0.148-0.163-0.344-0.294-0.587-0.394
			c-0.243-0.098-0.545-0.148-0.906-0.148c-0.185,0-0.356,0.018-0.514,0.052c-0.156,0.035-0.292,0.075-0.408,0.118
			c-0.116,0.044-0.213,0.088-0.292,0.131c-0.079,0.044-0.128,0.074-0.152,0.092c-0.018-0.012-0.059-0.038-0.125-0.078
			c-0.069-0.041-0.159-0.085-0.276-0.131c-0.116-0.046-0.257-0.089-0.426-0.127c-0.169-0.036-0.363-0.056-0.583-0.056
			c-0.494,0-0.896,0.04-1.212,0.119c-0.313,0.079-0.55,0.149-0.713,0.212c0.066,0.082,0.104,0.18,0.118,0.292
			c0.015,0.114,0.023,0.225,0.023,0.336V34.768z M31.312,30.313c-0.289,0.119-0.54,0.284-0.75,0.497
			c-0.213,0.211-0.379,0.463-0.497,0.753c-0.12,0.289-0.177,0.605-0.177,0.948c0,0.359,0.059,0.686,0.181,0.98
			c0.123,0.293,0.291,0.542,0.504,0.749c0.215,0.205,0.468,0.365,0.759,0.479c0.289,0.113,0.606,0.169,0.948,0.169
			c0.308,0,0.572-0.032,0.797-0.1c0.223-0.067,0.411-0.144,0.562-0.225c0.15-0.081,0.267-0.16,0.348-0.236
			c0.08-0.076,0.13-0.123,0.147-0.141l-0.68-0.812c-0.005,0.006-0.032,0.032-0.078,0.079c-0.046,0.047-0.116,0.096-0.208,0.148
			c-0.094,0.052-0.205,0.099-0.336,0.144c-0.13,0.043-0.279,0.064-0.447,0.064c-0.187,0-0.359-0.028-0.517-0.09
			c-0.16-0.061-0.298-0.147-0.415-0.26c-0.116-0.114-0.208-0.251-0.274-0.416c-0.067-0.165-0.1-0.352-0.1-0.561
			c0-0.173,0.031-0.338,0.095-0.493c0.065-0.159,0.154-0.293,0.267-0.409c0.112-0.115,0.248-0.208,0.404-0.278
			c0.157-0.068,0.329-0.104,0.514-0.104c0.157,0,0.293,0.015,0.41,0.047c0.115,0.031,0.215,0.069,0.3,0.113
			c0.083,0.043,0.151,0.087,0.205,0.13c0.053,0.044,0.092,0.08,0.121,0.109l0.637-0.793c-0.013-0.011-0.058-0.052-0.137-0.126
			c-0.077-0.073-0.192-0.148-0.34-0.229c-0.147-0.082-0.33-0.153-0.548-0.219c-0.216-0.063-0.469-0.096-0.753-0.096
			C31.918,30.134,31.604,30.194,31.312,30.313 M20.56,28.22c-0.112,0.082-0.248,0.196-0.41,0.344
			c-0.163,0.147-0.337,0.322-0.521,0.522c-0.188,0.199-0.37,0.427-0.555,0.683c-0.182,0.255-0.346,0.53-0.492,0.822
			c-0.145,0.293-0.265,0.607-0.357,0.941c-0.092,0.334-0.138,0.679-0.138,1.039c0,0.286,0.054,0.566,0.165,0.845
			c0.11,0.28,0.273,0.527,0.487,0.745c0.215,0.217,0.481,0.394,0.797,0.527c0.317,0.133,0.685,0.2,1.102,0.2
			c0.347,0,0.671-0.056,0.972-0.169c0.298-0.114,0.555-0.273,0.77-0.479c0.215-0.207,0.383-0.451,0.505-0.732
			c0.123-0.282,0.182-0.588,0.182-0.919c0-0.343-0.06-0.647-0.178-0.918c-0.119-0.27-0.276-0.499-0.47-0.688
			c-0.194-0.189-0.417-0.332-0.666-0.432c-0.249-0.098-0.506-0.148-0.768-0.148c-0.284,0-0.503,0.033-0.661,0.096
			c-0.157,0.064-0.284,0.128-0.384,0.192c0.083-0.151,0.191-0.319,0.328-0.502c0.136-0.182,0.284-0.361,0.444-0.538
			c0.159-0.177,0.324-0.346,0.496-0.505c0.17-0.16,0.334-0.292,0.491-0.395L20.56,28.22z M19.681,31.715
			c0.23-0.229,0.54-0.344,0.925-0.344c0.164,0,0.319,0.03,0.469,0.087c0.148,0.059,0.277,0.141,0.388,0.249
			c0.109,0.107,0.198,0.237,0.262,0.387c0.064,0.151,0.096,0.323,0.096,0.514c0,0.156-0.03,0.306-0.091,0.449
			c-0.061,0.142-0.144,0.27-0.249,0.382c-0.105,0.114-0.23,0.205-0.376,0.271c-0.145,0.067-0.3,0.099-0.463,0.099
			c-0.208,0-0.396-0.032-0.559-0.099c-0.163-0.066-0.3-0.156-0.41-0.266c-0.112-0.109-0.196-0.235-0.253-0.378
			c-0.059-0.143-0.088-0.289-0.088-0.439C19.33,32.247,19.447,31.944,19.681,31.715"/>
	</g>
	<path fill="#00517D" d="M36.763,48H11.237C5.041,48,0,42.959,0,36.763V11.237C0,5.041,5.041,0,11.237,0h25.525
		C42.959,0,48,5.041,48,11.237v25.526C48,42.959,42.959,48,36.763,48z M11.237,2C6.144,2,2,6.144,2,11.237v25.526
		C2,41.856,6.144,46,11.237,46h25.525C41.856,46,46,41.856,46,36.763V11.237C46,6.144,41.856,2,36.763,2H11.237z"/>
</g>
<g>
	<path fill="#005480" d="M24.259,12.401c0-0.334,0.056-0.621,0.167-0.861c0.111-0.24,0.236-0.438,0.376-0.595
		c0.139-0.157,0.276-0.277,0.412-0.36c0.136-0.083,0.225-0.136,0.266-0.156c-0.035-0.029-0.085-0.076-0.151-0.142
		c-0.065-0.066-0.134-0.155-0.204-0.266c-0.069-0.111-0.129-0.245-0.177-0.401c-0.049-0.157-0.073-0.343-0.073-0.559
		c0-0.265,0.053-0.51,0.157-0.736s0.252-0.423,0.443-0.59c0.192-0.167,0.418-0.298,0.679-0.392c0.261-0.094,0.548-0.141,0.861-0.141
		c0.271,0,0.536,0.042,0.793,0.125s0.485,0.204,0.684,0.36c0.199,0.157,0.357,0.35,0.475,0.58s0.177,0.495,0.177,0.794
		c0,0.223-0.026,0.412-0.078,0.569c-0.052,0.156-0.113,0.289-0.183,0.396c-0.07,0.107-0.141,0.194-0.214,0.261
		c-0.073,0.066-0.13,0.113-0.173,0.142c0.063,0.034,0.163,0.095,0.298,0.182c0.135,0.088,0.275,0.209,0.417,0.366
		c0.143,0.156,0.267,0.353,0.371,0.59c0.105,0.237,0.157,0.519,0.157,0.845c0,0.411-0.076,0.771-0.229,1.081
		c-0.153,0.31-0.354,0.568-0.605,0.777c-0.251,0.209-0.542,0.367-0.872,0.475c-0.331,0.109-0.673,0.163-1.028,0.163
		c-0.376,0-0.73-0.054-1.065-0.163c-0.334-0.108-0.626-0.267-0.876-0.479s-0.447-0.474-0.59-0.783
		C24.33,13.172,24.259,12.812,24.259,12.401z M27.004,11.106c-0.202,0-0.386,0.033-0.553,0.1c-0.167,0.066-0.312,0.157-0.434,0.271
		c-0.122,0.115-0.217,0.253-0.287,0.413c-0.069,0.16-0.104,0.333-0.104,0.521s0.035,0.362,0.104,0.522
		c0.07,0.16,0.165,0.298,0.287,0.413c0.122,0.115,0.267,0.204,0.434,0.267c0.167,0.063,0.351,0.094,0.553,0.094
		c0.188,0,0.365-0.029,0.533-0.089c0.167-0.059,0.311-0.145,0.433-0.255c0.122-0.112,0.22-0.248,0.292-0.407
		c0.073-0.16,0.109-0.341,0.109-0.543c0-0.194-0.035-0.373-0.104-0.538c-0.069-0.163-0.167-0.3-0.292-0.412
		c-0.125-0.111-0.271-0.199-0.438-0.261C27.37,11.138,27.192,11.106,27.004,11.106z M27.015,8.351c-0.25,0-0.455,0.076-0.611,0.225
		c-0.157,0.15-0.234,0.349-0.234,0.6c0,0.258,0.081,0.458,0.245,0.601s0.363,0.214,0.601,0.214c0.236,0,0.435-0.073,0.595-0.219
		s0.24-0.345,0.24-0.596s-0.077-0.45-0.23-0.6C27.467,8.426,27.266,8.351,27.015,8.351z"/>
</g>
<g>
	<path fill="#005480" d="M27.889,33.48l-0.097,1.132h-4.511c0.017-0.023,0.082-0.103,0.194-0.239s0.25-0.304,0.416-0.504
		c0.165-0.2,0.345-0.419,0.54-0.654c0.195-0.236,0.385-0.466,0.571-0.69c0.186-0.224,0.355-0.432,0.508-0.624
		c0.154-0.191,0.271-0.337,0.354-0.438c0.147-0.188,0.278-0.389,0.394-0.601c0.115-0.213,0.172-0.419,0.172-0.62
		c0-0.088-0.019-0.184-0.057-0.287c-0.039-0.104-0.096-0.198-0.172-0.284c-0.077-0.085-0.168-0.156-0.274-0.212
		c-0.106-0.056-0.23-0.084-0.372-0.084c-0.212,0-0.391,0.031-0.535,0.093c-0.145,0.062-0.263,0.138-0.354,0.229
		c-0.091,0.092-0.165,0.188-0.221,0.288c-0.056,0.101-0.102,0.188-0.137,0.265l-1.044-0.566c0.047-0.129,0.124-0.279,0.23-0.447
		c0.106-0.168,0.249-0.329,0.429-0.482c0.179-0.153,0.405-0.283,0.677-0.389c0.271-0.106,0.595-0.159,0.973-0.159
		c0.335,0,0.638,0.049,0.906,0.146c0.269,0.098,0.499,0.233,0.69,0.407c0.192,0.174,0.337,0.383,0.438,0.628
		c0.1,0.244,0.151,0.515,0.151,0.809c0,0.23-0.044,0.46-0.133,0.691c-0.089,0.229-0.203,0.457-0.341,0.68
		c-0.139,0.225-0.291,0.438-0.456,0.642c-0.165,0.204-0.323,0.387-0.473,0.553c-0.15,0.165-0.283,0.31-0.398,0.433
		c-0.115,0.124-0.193,0.218-0.234,0.283H27.889z"/>
</g>
</svg>
