<?xml version="1.0" encoding="utf-8"?>
<!-- Generator: Adobe Illustrator 16.0.0, SVG Export Plug-In . SVG Version: 6.00 Build 0)  -->
<!DOCTYPE svg PUBLIC "-//W3C//DTD SVG 1.1//EN" "http://www.w3.org/Graphics/SVG/1.1/DTD/svg11.dtd">
<svg version="1.1" id="Calque_1" xmlns="http://www.w3.org/2000/svg" xmlns:xlink="http://www.w3.org/1999/xlink" x="0px" y="0px"
	 width="48px" height="48px" viewBox="0 0 48 48" enable-background="new 0 0 48 48" xml:space="preserve">
<g>
	<path fill="#00517D" d="M36.763,48H11.237C5.041,48,0,42.959,0,36.764V11.236C0,5.041,5.041,0,11.237,0h25.526
		C42.959,0,48,5.041,48,11.236v25.527C48,42.959,42.959,48,36.763,48z M11.237,2C6.144,2,2,6.144,2,11.236v25.527
		C2,41.856,6.144,46,11.237,46h25.526C41.856,46,46,41.856,46,36.764V11.236C46,6.144,41.856,2,36.763,2H11.237z"/>
	<rect x="19.917" y="21.907" fill="#005480" width="11.527" height="17.359"/>
	<polygon fill="#005480" points="29.1,14.26 19.918,14.26 19.918,20.49 31.446,20.49 31.446,17.379 	"/>
	<path fill="#FFFFFF" d="M27.77,31.282h-4.39v-4.519h4.39V31.282z M22.65,32.036h5.853v-6.027H22.65V32.036z"/>
	<rect x="8.391" y="26.977" fill="#005480" width="3.926" height="4.045"/>
	<polygon fill="#005480" points="13.298,31.022 15.261,28.999 13.298,26.977 	"/>
	<g>
		<path fill="#005480" d="M38.952,8.656c-0.09-0.273-0.222-0.514-0.4-0.721c-0.177-0.208-0.398-0.369-0.665-0.49
			c-0.266-0.119-0.573-0.179-0.924-0.179c-0.308,0-0.594,0.054-0.86,0.16c-0.267,0.105-0.495,0.254-0.688,0.445
			c-0.194,0.191-0.346,0.419-0.455,0.685c-0.109,0.266-0.164,0.556-0.164,0.869c0,0.329,0.057,0.629,0.171,0.897
			c0.116,0.268,0.272,0.498,0.472,0.69c0.199,0.189,0.436,0.339,0.709,0.444c0.273,0.107,0.568,0.161,0.88,0.161
			c0.324,0,0.598-0.036,0.822-0.104c0.222-0.07,0.407-0.149,0.554-0.243c0.145-0.093,0.255-0.184,0.333-0.271
			c0.077-0.086,0.131-0.153,0.164-0.195l-0.662-0.582c-0.01,0.01-0.038,0.044-0.086,0.1c-0.05,0.055-0.12,0.112-0.212,0.17
			c-0.093,0.059-0.208,0.113-0.342,0.16c-0.135,0.048-0.294,0.071-0.475,0.071c-0.25,0-0.455-0.044-0.614-0.132
			c-0.158-0.086-0.284-0.187-0.379-0.303c-0.092-0.114-0.158-0.229-0.199-0.345c-0.041-0.119-0.062-0.205-0.068-0.264h3.21
			c0-0.026,0.002-0.053,0.006-0.075c0.002-0.025,0.003-0.05,0.003-0.077C39.083,9.22,39.039,8.931,38.952,8.656 M35.878,8.932
			c0.017-0.054,0.042-0.124,0.08-0.212c0.039-0.086,0.099-0.174,0.184-0.259c0.085-0.083,0.196-0.158,0.332-0.223
			c0.134-0.063,0.308-0.095,0.521-0.095c0.213,0,0.388,0.035,0.526,0.104s0.248,0.149,0.328,0.239
			c0.079,0.091,0.136,0.179,0.17,0.267c0.036,0.088,0.054,0.147,0.061,0.18H35.878z M33.115,13.234
			c0.265-0.102,0.479-0.233,0.637-0.395c0.158-0.162,0.271-0.345,0.338-0.546c0.068-0.203,0.1-0.404,0.1-0.605V8.183
			c0-0.124,0.002-0.22,0.008-0.292c0.005-0.071,0.014-0.126,0.024-0.164c0.01-0.036,0.022-0.065,0.035-0.083
			c0.015-0.018,0.031-0.039,0.053-0.06c-0.064-0.027-0.143-0.058-0.239-0.096c-0.095-0.036-0.216-0.071-0.362-0.103
			c-0.145-0.032-0.32-0.059-0.522-0.083c-0.201-0.024-0.44-0.036-0.716-0.036c-0.366,0-0.701,0.062-1,0.183
			c-0.301,0.124-0.557,0.285-0.77,0.487c-0.212,0.202-0.377,0.433-0.493,0.693c-0.118,0.261-0.175,0.53-0.175,0.813
			c0,0.334,0.053,0.635,0.161,0.904c0.109,0.268,0.255,0.497,0.438,0.685c0.185,0.188,0.401,0.333,0.647,0.432
			c0.246,0.098,0.511,0.146,0.792,0.146c0.174,0,0.33-0.017,0.47-0.052c0.137-0.033,0.254-0.074,0.351-0.119
			c0.095-0.045,0.17-0.086,0.223-0.123c0.053-0.037,0.085-0.062,0.095-0.072v0.342c0,0.266-0.081,0.479-0.243,0.642
			c-0.163,0.162-0.438,0.243-0.824,0.243c-0.196,0-0.368-0.017-0.514-0.048c-0.147-0.032-0.269-0.069-0.367-0.112
			c-0.099-0.041-0.175-0.081-0.229-0.115c-0.057-0.036-0.091-0.057-0.1-0.067l-0.415,0.854c0.021,0.009,0.074,0.036,0.159,0.082
			c0.085,0.046,0.199,0.093,0.338,0.14c0.141,0.049,0.307,0.091,0.495,0.128c0.188,0.037,0.395,0.055,0.618,0.055
			C32.521,13.385,32.85,13.335,33.115,13.234 M31.788,10.54c-0.135-0.052-0.253-0.127-0.355-0.226
			c-0.1-0.098-0.181-0.216-0.242-0.358c-0.061-0.139-0.09-0.297-0.09-0.473c0-0.2,0.034-0.377,0.105-0.531
			c0.073-0.154,0.167-0.281,0.284-0.382c0.117-0.1,0.249-0.175,0.393-0.225c0.147-0.051,0.296-0.076,0.451-0.076
			c0.239,0,0.425,0.013,0.559,0.036c0.132,0.024,0.213,0.049,0.247,0.075v1.588c0,0.186-0.083,0.341-0.247,0.464
			c-0.166,0.125-0.392,0.188-0.678,0.188C32.065,10.621,31.923,10.593,31.788,10.54 M26.756,8.429
			c0.026-0.017,0.069-0.042,0.128-0.076c0.057-0.035,0.13-0.068,0.215-0.104c0.084-0.035,0.181-0.065,0.29-0.095
			C27.5,8.126,27.617,8.11,27.744,8.11c0.16,0,0.29,0.021,0.386,0.061c0.099,0.04,0.176,0.093,0.232,0.163
			c0.055,0.069,0.093,0.149,0.115,0.239c0.021,0.091,0.033,0.187,0.033,0.287c0,0.01-0.002,0.023-0.004,0.036S28.5,8.919,28.5,8.932
			c-0.004-0.007-0.03-0.024-0.078-0.052c-0.048-0.03-0.113-0.063-0.196-0.1c-0.083-0.038-0.18-0.071-0.294-0.1
			c-0.115-0.03-0.242-0.044-0.378-0.044c-0.224,0-0.43,0.033-0.617,0.103c-0.19,0.069-0.355,0.168-0.494,0.298
			c-0.143,0.13-0.25,0.289-0.331,0.474c-0.08,0.186-0.119,0.396-0.119,0.629c0,0.187,0.034,0.368,0.103,0.542
			c0.069,0.176,0.168,0.333,0.295,0.471c0.127,0.137,0.283,0.249,0.469,0.334c0.186,0.085,0.396,0.128,0.629,0.128
			c0.181,0,0.338-0.021,0.47-0.056c0.134-0.038,0.247-0.082,0.336-0.132c0.09-0.05,0.161-0.1,0.211-0.147
			c0.049-0.048,0.086-0.083,0.108-0.104c0.005,0.074,0.015,0.144,0.027,0.206c0.014,0.064,0.036,0.137,0.068,0.216l0.923-0.135
			c-0.015-0.032-0.034-0.069-0.056-0.108c-0.021-0.04-0.04-0.091-0.057-0.156c-0.014-0.063-0.028-0.144-0.038-0.242
			s-0.016-0.226-0.016-0.38l0.023-1.951c0-0.175-0.031-0.344-0.09-0.506c-0.063-0.162-0.161-0.308-0.296-0.435
			c-0.135-0.128-0.308-0.229-0.521-0.306c-0.213-0.078-0.471-0.116-0.772-0.116c-0.18,0-0.352,0.016-0.514,0.048
			c-0.161,0.031-0.308,0.069-0.435,0.112c-0.126,0.042-0.233,0.084-0.324,0.126c-0.086,0.043-0.146,0.075-0.178,0.096L26.756,8.429z
			 M27.027,9.879c0.027-0.078,0.069-0.15,0.127-0.211c0.058-0.06,0.135-0.111,0.233-0.151c0.095-0.039,0.21-0.06,0.35-0.06
			c0.264,0,0.465,0.068,0.6,0.204c0.136,0.136,0.204,0.286,0.204,0.45c0,0.074-0.017,0.149-0.052,0.227
			c-0.033,0.077-0.085,0.146-0.151,0.207c-0.065,0.063-0.147,0.112-0.247,0.151c-0.098,0.04-0.214,0.061-0.347,0.061
			c-0.127,0-0.239-0.021-0.335-0.061c-0.095-0.039-0.174-0.089-0.238-0.151c-0.064-0.061-0.112-0.128-0.14-0.203
			c-0.03-0.074-0.045-0.147-0.045-0.223C26.986,10.038,27,9.959,27.027,9.879 M24.726,7.219l-1.58,1.855V5.855h-1.059v5.649h1.059
			V9.552l1.642,2.087l1.004-0.381L24.183,9.29l1.499-1.682L24.726,7.219z M19.084,7.429c-0.266,0.11-0.497,0.261-0.69,0.455
			c-0.194,0.194-0.345,0.423-0.455,0.689c-0.108,0.266-0.162,0.555-0.162,0.869c0,0.329,0.056,0.628,0.167,0.896
			c0.112,0.269,0.265,0.497,0.461,0.685c0.196,0.189,0.428,0.335,0.694,0.439c0.266,0.103,0.555,0.155,0.868,0.155
			c0.282,0,0.525-0.032,0.729-0.092c0.205-0.062,0.376-0.131,0.514-0.205c0.139-0.076,0.244-0.148,0.318-0.218
			c0.075-0.068,0.12-0.113,0.136-0.128l-0.622-0.744c-0.005,0.006-0.029,0.03-0.072,0.073c-0.042,0.041-0.106,0.086-0.191,0.135
			c-0.085,0.047-0.188,0.091-0.308,0.131c-0.119,0.041-0.256,0.06-0.41,0.06c-0.169,0-0.328-0.026-0.473-0.083
			c-0.147-0.055-0.273-0.135-0.379-0.238c-0.107-0.103-0.19-0.23-0.251-0.382c-0.062-0.151-0.092-0.321-0.092-0.512
			c0-0.159,0.029-0.31,0.089-0.453c0.058-0.143,0.139-0.266,0.243-0.373c0.104-0.105,0.227-0.19,0.37-0.254s0.3-0.096,0.471-0.096
			c0.144,0,0.269,0.016,0.374,0.045c0.107,0.029,0.198,0.063,0.275,0.104c0.076,0.04,0.14,0.08,0.188,0.118
			c0.046,0.041,0.084,0.076,0.111,0.102l0.581-0.726c-0.01-0.011-0.051-0.048-0.123-0.116c-0.073-0.067-0.176-0.136-0.312-0.211
			C21,7.479,20.833,7.412,20.633,7.354c-0.199-0.06-0.43-0.088-0.688-0.088C19.636,7.266,19.349,7.32,19.084,7.429 M16.12,11.504
			h1.052V7.378H16.12V11.504z M16.191,6.64c0.127,0.12,0.279,0.18,0.454,0.18c0.17,0,0.319-0.06,0.447-0.18
			c0.128-0.12,0.191-0.271,0.191-0.458c0-0.186-0.063-0.339-0.188-0.457c-0.125-0.12-0.274-0.179-0.451-0.179
			c-0.18,0-0.333,0.06-0.457,0.183C16.063,5.851,16,6.002,16,6.182C16,6.369,16.063,6.521,16.191,6.64 M13.195,6.174v1.203h-0.718
			v0.909h0.718v2.046c0,0.145,0.022,0.293,0.064,0.447c0.042,0.154,0.117,0.292,0.223,0.415c0.106,0.122,0.246,0.223,0.418,0.302
			c0.172,0.081,0.392,0.121,0.658,0.121c0.223,0,0.417-0.024,0.582-0.069c0.165-0.045,0.302-0.096,0.41-0.152
			c0.109-0.055,0.192-0.11,0.251-0.163c0.059-0.053,0.096-0.088,0.112-0.104l-0.534-0.749c-0.011,0.017-0.03,0.041-0.06,0.073
			c-0.029,0.031-0.07,0.062-0.124,0.09c-0.054,0.03-0.116,0.057-0.188,0.08c-0.071,0.025-0.157,0.037-0.257,0.037
			c-0.107,0-0.193-0.017-0.26-0.049c-0.066-0.032-0.118-0.073-0.155-0.124c-0.038-0.05-0.061-0.105-0.072-0.163
			c-0.011-0.058-0.015-0.111-0.015-0.159v-1.88h1.307V7.377h-1.307V6.174H13.195z M9.55,5.839c-0.257,0.07-0.485,0.176-0.68,0.32
			C8.673,6.302,8.517,6.481,8.402,6.696C8.288,6.912,8.231,7.165,8.231,7.457c0,0.139,0.014,0.269,0.04,0.391
			C8.298,7.97,8.345,8.086,8.415,8.193c0.069,0.109,0.162,0.214,0.279,0.31c0.116,0.1,0.266,0.194,0.446,0.285
			c0.228,0.116,0.465,0.208,0.709,0.273c0.245,0.066,0.466,0.135,0.666,0.204c0.199,0.069,0.363,0.15,0.494,0.246
			c0.129,0.096,0.195,0.234,0.195,0.415c0,0.419-0.325,0.629-0.974,0.629c-0.206,0-0.401-0.03-0.585-0.088
			c-0.183-0.058-0.343-0.125-0.478-0.198c-0.136-0.074-0.248-0.146-0.335-0.215c-0.086-0.07-0.139-0.111-0.155-0.128l-0.565,0.956
			c0.074,0.058,0.179,0.129,0.313,0.211c0.136,0.082,0.293,0.163,0.472,0.239c0.177,0.077,0.376,0.144,0.597,0.199
			c0.221,0.056,0.455,0.084,0.705,0.084c0.346,0,0.654-0.043,0.925-0.128c0.27-0.085,0.5-0.207,0.689-0.363
			c0.188-0.156,0.333-0.347,0.434-0.57c0.101-0.224,0.151-0.47,0.151-0.74c0-0.346-0.076-0.628-0.227-0.85
			c-0.15-0.22-0.368-0.408-0.649-0.562c-0.233-0.127-0.476-0.226-0.725-0.295c-0.25-0.068-0.477-0.133-0.681-0.195
			C9.912,7.853,9.743,7.783,9.609,7.699c-0.132-0.082-0.199-0.2-0.199-0.354c0-0.191,0.079-0.336,0.235-0.437
			c0.156-0.101,0.363-0.152,0.618-0.152c0.329,0,0.61,0.053,0.845,0.156c0.232,0.104,0.451,0.232,0.653,0.386l0.526-0.916
			c-0.038-0.026-0.112-0.076-0.224-0.148c-0.111-0.071-0.252-0.145-0.422-0.219c-0.169-0.074-0.364-0.139-0.583-0.194
			c-0.217-0.056-0.449-0.084-0.692-0.084C10.08,5.736,9.808,5.77,9.55,5.839"/>
		<path fill="#005480" d="M40.483,42.804c-0.066-0.204-0.166-0.384-0.296-0.539c-0.135-0.154-0.299-0.275-0.498-0.366
			C39.49,41.811,39.26,41.766,39,41.766c-0.229,0-0.444,0.04-0.644,0.12c-0.198,0.079-0.369,0.189-0.515,0.333
			c-0.145,0.143-0.257,0.313-0.339,0.511c-0.081,0.199-0.122,0.416-0.122,0.648c0,0.247,0.042,0.469,0.128,0.669
			c0.085,0.201,0.201,0.372,0.351,0.516c0.149,0.142,0.325,0.254,0.528,0.332c0.206,0.08,0.424,0.119,0.659,0.119
			c0.242,0,0.446-0.025,0.613-0.077c0.166-0.052,0.304-0.112,0.412-0.182c0.109-0.068,0.193-0.136,0.25-0.202
			c0.058-0.065,0.099-0.113,0.123-0.147l-0.495-0.432c-0.007,0.007-0.029,0.033-0.064,0.073c-0.036,0.042-0.09,0.085-0.159,0.128
			c-0.068,0.044-0.154,0.084-0.256,0.118c-0.101,0.037-0.218,0.053-0.353,0.053c-0.188,0-0.339-0.032-0.459-0.097
			c-0.121-0.065-0.212-0.14-0.283-0.227c-0.069-0.085-0.119-0.17-0.147-0.258c-0.031-0.088-0.048-0.153-0.053-0.196h2.398
			c0-0.02,0-0.04,0.003-0.057c0.002-0.018,0.003-0.036,0.003-0.057C40.582,43.226,40.55,43.008,40.483,42.804 M38.19,43.01
			c0.012-0.04,0.032-0.093,0.059-0.158c0.027-0.066,0.075-0.13,0.136-0.194c0.063-0.063,0.147-0.119,0.247-0.166
			c0.102-0.047,0.232-0.072,0.392-0.072c0.158,0,0.289,0.027,0.392,0.079c0.103,0.052,0.184,0.111,0.245,0.178
			c0.059,0.069,0.102,0.134,0.126,0.199c0.026,0.065,0.042,0.11,0.045,0.135H38.19z M35.348,41.85v3.081h0.791v-1.736
			c0-0.132,0.022-0.239,0.067-0.326c0.047-0.085,0.111-0.151,0.194-0.201c0.083-0.05,0.183-0.087,0.298-0.108
			c0.114-0.021,0.243-0.032,0.385-0.032c0.015,0,0.032,0,0.045,0.002c0.015,0.003,0.03,0.003,0.051,0.003l0.054-0.753
			c-0.036-0.009-0.072-0.012-0.11-0.009c-0.038,0-0.075,0.002-0.109,0.002c-0.132,0-0.251,0.021-0.358,0.063
			c-0.107,0.041-0.202,0.097-0.28,0.163c-0.079,0.067-0.144,0.143-0.193,0.223c-0.05,0.082-0.084,0.165-0.105,0.247V41.85H35.348z
			 M34.003,41.85v1.843c0,0.096-0.018,0.182-0.053,0.258c-0.036,0.078-0.083,0.144-0.146,0.196
			c-0.062,0.054-0.132,0.095-0.211,0.124c-0.08,0.027-0.163,0.041-0.25,0.041c-0.37,0-0.554-0.182-0.554-0.547V41.85h-0.785v2.028
			c0,0.147,0.021,0.289,0.059,0.425c0.041,0.136,0.102,0.258,0.185,0.364c0.084,0.104,0.192,0.188,0.325,0.251
			c0.133,0.063,0.294,0.094,0.486,0.094c0.177,0,0.324-0.021,0.445-0.064c0.118-0.043,0.215-0.095,0.292-0.151
			c0.075-0.058,0.13-0.115,0.168-0.173c0.038-0.057,0.063-0.1,0.081-0.128c0.007,0.08,0.017,0.163,0.03,0.25
			c0.012,0.088,0.034,0.166,0.064,0.238l0.768-0.125c-0.007-0.015-0.019-0.04-0.033-0.071c-0.013-0.032-0.026-0.075-0.038-0.132
			c-0.012-0.054-0.023-0.127-0.032-0.219c-0.012-0.091-0.016-0.208-0.016-0.35V41.85H34.003z M29.852,41.832
			c-0.159,0.042-0.296,0.105-0.415,0.186c-0.116,0.082-0.208,0.179-0.276,0.292c-0.066,0.112-0.101,0.24-0.101,0.378
			c0,0.137,0.027,0.254,0.081,0.347c0.054,0.092,0.122,0.175,0.208,0.241c0.085,0.067,0.183,0.125,0.294,0.171
			c0.111,0.043,0.224,0.085,0.338,0.121c0.107,0.036,0.211,0.068,0.313,0.098c0.099,0.03,0.192,0.062,0.27,0.096
			c0.079,0.032,0.144,0.071,0.19,0.112c0.046,0.042,0.072,0.09,0.072,0.146c0,0.198-0.2,0.297-0.601,0.297
			c-0.214,0-0.403-0.036-0.567-0.106c-0.165-0.073-0.299-0.144-0.402-0.216l-0.334,0.62c0.028,0.02,0.08,0.053,0.156,0.094
			c0.074,0.044,0.168,0.088,0.28,0.131c0.115,0.044,0.245,0.084,0.394,0.119c0.15,0.036,0.312,0.053,0.49,0.053
			c0.231,0,0.433-0.029,0.604-0.088c0.173-0.06,0.317-0.138,0.435-0.232c0.117-0.096,0.204-0.204,0.262-0.324
			c0.057-0.122,0.086-0.245,0.086-0.373c0-0.13-0.025-0.248-0.072-0.351c-0.047-0.104-0.112-0.193-0.196-0.273
			c-0.083-0.08-0.183-0.146-0.294-0.202c-0.114-0.056-0.237-0.104-0.372-0.144c-0.131-0.035-0.247-0.066-0.349-0.095
			c-0.1-0.027-0.187-0.055-0.258-0.083c-0.071-0.028-0.125-0.06-0.159-0.094c-0.039-0.037-0.055-0.082-0.055-0.132
			c0-0.074,0.051-0.135,0.154-0.182c0.104-0.044,0.218-0.068,0.345-0.068c0.099,0,0.194,0.01,0.287,0.033
			c0.09,0.021,0.172,0.046,0.243,0.073c0.071,0.029,0.133,0.056,0.183,0.084c0.049,0.028,0.083,0.05,0.104,0.065l0.308-0.56
			c-0.032-0.024-0.082-0.052-0.151-0.085c-0.07-0.035-0.152-0.067-0.249-0.099c-0.097-0.032-0.208-0.061-0.334-0.084
			c-0.125-0.022-0.258-0.035-0.402-0.035C30.181,41.766,30.01,41.788,29.852,41.832 M28.569,42.804
			c-0.065-0.204-0.164-0.384-0.299-0.539c-0.131-0.154-0.296-0.275-0.496-0.366c-0.197-0.089-0.429-0.134-0.689-0.134
			c-0.23,0-0.443,0.04-0.643,0.12c-0.199,0.079-0.371,0.189-0.514,0.333c-0.145,0.143-0.258,0.313-0.339,0.511
			c-0.082,0.199-0.124,0.416-0.124,0.648c0,0.247,0.043,0.469,0.128,0.669c0.085,0.201,0.201,0.372,0.351,0.516
			c0.149,0.142,0.326,0.254,0.53,0.332c0.203,0.08,0.423,0.119,0.658,0.119c0.242,0,0.445-0.025,0.612-0.077
			s0.303-0.112,0.414-0.182c0.109-0.068,0.192-0.136,0.249-0.202c0.059-0.065,0.099-0.113,0.123-0.147l-0.494-0.432
			c-0.009,0.007-0.03,0.033-0.065,0.073c-0.036,0.042-0.089,0.085-0.159,0.128c-0.069,0.044-0.154,0.084-0.256,0.118
			c-0.1,0.037-0.219,0.053-0.353,0.053c-0.186,0-0.339-0.032-0.458-0.097c-0.12-0.065-0.215-0.14-0.283-0.227
			c-0.07-0.085-0.12-0.17-0.148-0.258c-0.03-0.088-0.048-0.153-0.051-0.196h2.398c0-0.02,0-0.04,0.002-0.057
			c0.002-0.018,0.002-0.036,0.002-0.057C28.667,43.226,28.635,43.008,28.569,42.804 M26.277,43.01
			c0.012-0.04,0.032-0.093,0.06-0.158c0.027-0.066,0.072-0.13,0.136-0.194c0.063-0.063,0.146-0.119,0.247-0.166
			c0.101-0.047,0.23-0.072,0.39-0.072s0.289,0.027,0.394,0.079c0.102,0.052,0.184,0.111,0.243,0.178
			c0.06,0.069,0.103,0.134,0.127,0.199c0.025,0.065,0.042,0.11,0.044,0.135H26.277z M20.608,44.931h0.785v-2.446
			c0.011-0.007,0.053-0.022,0.125-0.044c0.071-0.021,0.173-0.032,0.309-0.032c0.124,0,0.223,0.019,0.3,0.057
			c0.078,0.037,0.138,0.085,0.181,0.143c0.044,0.057,0.075,0.121,0.09,0.193c0.016,0.071,0.025,0.138,0.025,0.203v1.927h0.784
			v-1.927c0-0.155-0.004-0.258-0.012-0.31c-0.008-0.052-0.018-0.096-0.03-0.131c0.028-0.015,0.083-0.041,0.164-0.073
			c0.081-0.035,0.208-0.051,0.383-0.051c0.103,0,0.188,0.014,0.256,0.044c0.068,0.03,0.12,0.071,0.158,0.122
			c0.038,0.052,0.064,0.111,0.081,0.178c0.015,0.069,0.023,0.14,0.023,0.216v1.933h0.792v-1.952c0-0.158-0.021-0.31-0.063-0.457
			c-0.041-0.147-0.112-0.275-0.214-0.386c-0.102-0.112-0.236-0.201-0.401-0.269c-0.167-0.066-0.374-0.101-0.62-0.101
			c-0.127,0-0.243,0.013-0.35,0.035c-0.108,0.024-0.201,0.051-0.281,0.082c-0.079,0.029-0.145,0.06-0.198,0.088
			c-0.054,0.031-0.088,0.051-0.104,0.063c-0.011-0.009-0.041-0.027-0.086-0.053c-0.045-0.028-0.108-0.06-0.187-0.09
			c-0.079-0.033-0.176-0.061-0.292-0.087c-0.115-0.025-0.248-0.039-0.399-0.039c-0.336,0-0.612,0.027-0.827,0.08
			c-0.213,0.054-0.376,0.102-0.488,0.146c0.044,0.055,0.07,0.122,0.08,0.2c0.01,0.076,0.016,0.153,0.016,0.227V44.931z
			 M18.182,43.723h1.904v-0.772h-1.904V43.723z M16.034,41.85v3.081h0.791v-1.736c0-0.132,0.023-0.239,0.068-0.326
			c0.046-0.085,0.111-0.151,0.194-0.201c0.083-0.05,0.182-0.087,0.297-0.108c0.115-0.021,0.244-0.032,0.385-0.032
			c0.018,0,0.032,0,0.046,0.002c0.014,0.003,0.031,0.003,0.051,0.003l0.053-0.753c-0.035-0.009-0.072-0.012-0.11-0.009
			c-0.038,0-0.075,0.002-0.109,0.002c-0.131,0-0.25,0.021-0.357,0.063c-0.107,0.041-0.201,0.097-0.28,0.163
			c-0.079,0.067-0.144,0.143-0.194,0.223c-0.049,0.082-0.084,0.165-0.104,0.247V41.85H16.034z M14.689,41.85v1.843
			c0,0.096-0.017,0.182-0.053,0.258c-0.035,0.078-0.084,0.144-0.146,0.196c-0.061,0.054-0.132,0.095-0.21,0.124
			c-0.079,0.027-0.163,0.041-0.25,0.041c-0.37,0-0.553-0.182-0.553-0.547V41.85h-0.786v2.028c0,0.147,0.021,0.289,0.06,0.425
			c0.041,0.136,0.102,0.258,0.185,0.364c0.083,0.104,0.191,0.188,0.324,0.251c0.133,0.063,0.294,0.094,0.485,0.094
			c0.178,0,0.328-0.021,0.446-0.064c0.119-0.043,0.216-0.095,0.292-0.151c0.075-0.058,0.131-0.115,0.17-0.173
			c0.037-0.057,0.064-0.1,0.08-0.128c0.007,0.08,0.017,0.163,0.029,0.25c0.012,0.088,0.034,0.166,0.065,0.238l0.767-0.125
			c-0.007-0.015-0.018-0.04-0.033-0.071c-0.013-0.032-0.027-0.075-0.037-0.132c-0.013-0.054-0.024-0.127-0.033-0.219
			c-0.012-0.091-0.016-0.208-0.016-0.35V41.85H14.689z M10.539,41.832c-0.159,0.042-0.296,0.105-0.414,0.186
			c-0.117,0.082-0.209,0.179-0.276,0.292c-0.067,0.112-0.101,0.24-0.101,0.378c0,0.137,0.027,0.254,0.081,0.347
			c0.054,0.092,0.123,0.175,0.208,0.241c0.084,0.067,0.183,0.125,0.293,0.171c0.112,0.043,0.225,0.085,0.34,0.121
			c0.107,0.036,0.211,0.068,0.312,0.098c0.102,0.03,0.192,0.062,0.271,0.096c0.08,0.032,0.144,0.071,0.191,0.112
			c0.046,0.042,0.071,0.09,0.071,0.146c0,0.198-0.201,0.297-0.6,0.297c-0.215,0-0.405-0.036-0.569-0.106
			c-0.165-0.073-0.298-0.144-0.401-0.216l-0.333,0.62c0.028,0.02,0.08,0.053,0.155,0.094c0.076,0.044,0.169,0.088,0.283,0.131
			c0.113,0.044,0.244,0.084,0.393,0.119c0.149,0.036,0.312,0.053,0.491,0.053c0.229,0,0.431-0.029,0.604-0.088
			c0.172-0.06,0.316-0.138,0.434-0.232c0.116-0.096,0.204-0.204,0.262-0.324c0.058-0.122,0.086-0.245,0.086-0.373
			c0-0.13-0.025-0.248-0.072-0.351c-0.046-0.104-0.112-0.193-0.195-0.273c-0.084-0.08-0.181-0.146-0.295-0.202
			c-0.113-0.056-0.236-0.104-0.372-0.144c-0.131-0.035-0.247-0.066-0.349-0.095c-0.101-0.027-0.186-0.055-0.258-0.083
			c-0.072-0.028-0.125-0.06-0.16-0.094c-0.037-0.037-0.053-0.082-0.053-0.132c0-0.074,0.051-0.135,0.154-0.182
			c0.103-0.044,0.218-0.068,0.344-0.068c0.099,0,0.194,0.01,0.287,0.033c0.09,0.021,0.172,0.046,0.243,0.073
			c0.071,0.029,0.132,0.056,0.181,0.084c0.05,0.028,0.085,0.05,0.104,0.065l0.31-0.56c-0.031-0.024-0.083-0.052-0.152-0.085
			c-0.069-0.035-0.153-0.067-0.25-0.099c-0.097-0.032-0.208-0.061-0.333-0.084c-0.125-0.022-0.259-0.035-0.401-0.035
			C10.867,41.766,10.698,41.788,10.539,41.832"/>
	</g>
</g>
</svg>
