<?xml version="1.0" encoding="utf-8"?>
<!-- Generator: Adobe Illustrator 16.0.0, SVG Export Plug-In . SVG Version: 6.00 Build 0)  -->
<!DOCTYPE svg PUBLIC "-//W3C//DTD SVG 1.1//EN" "http://www.w3.org/Graphics/SVG/1.1/DTD/svg11.dtd">
<svg version="1.1" id="Calque_1" xmlns="http://www.w3.org/2000/svg" xmlns:xlink="http://www.w3.org/1999/xlink" x="0px" y="0px"
	 width="48px" height="48px" viewBox="0 0 48 48" enable-background="new 0 0 48 48" xml:space="preserve">
<g>
	<path fill="#005480" d="M36.101,29.424h-1.114v-0.151c0-0.114,0.007-0.229,0.007-0.229H34.98c0,0-0.526,0.472-1.432,0.472
		c-1.395,0-2.674-1.044-2.674-2.825c0-1.586,1.194-2.805,2.857-2.805c1.393,0,2.096,0.724,2.096,0.724l-0.641,0.998
		c0,0-0.557-0.503-1.326-0.503c-1.144,0-1.608,0.73-1.608,1.538c0,1.037,0.717,1.654,1.563,1.654c0.64,0,1.104-0.396,1.104-0.396
		v-0.419H34.15v-1.136h1.951V29.424z M29.087,29.424l-1.151-2.21h-0.548v2.21h-1.334v-5.446h1.334v2.102h0.548l1.128-2.102h1.433
		l-1.471,2.604v0.016l1.555,2.827H29.087z M28.856,16.716c0-1.1,0.893-1.993,1.992-1.993c1.097,0,1.992,0.894,1.992,1.993
		c0,0.95-0.671,1.744-1.563,1.942h-0.858C29.527,18.46,28.856,17.666,28.856,16.716 M43.602,32.008L39.58,19.58
		c-0.178-0.55-0.688-0.922-1.267-0.922h-4.243c0.344-0.568,0.546-1.232,0.546-1.942c0-2.078-1.691-3.769-3.767-3.769
		c-2.077,0-3.768,1.69-3.768,3.769c0,0.71,0.202,1.374,0.546,1.942h-4.244c-0.577,0-1.09,0.372-1.266,0.922l-4.022,12.428
		c-0.278,0.86,0.362,1.741,1.267,1.741h22.972C43.238,33.749,43.879,32.868,43.602,32.008"/>
	<g>
		<path fill="#005480" d="M4.84,19.792c-0.088,0-0.15,0.002-0.186,0.006C4.62,19.8,4.594,19.805,4.581,19.813v1.369
			c0.014,0.007,0.037,0.015,0.067,0.017c0.03,0.004,0.092,0.005,0.182,0.005c0.108,0,0.215-0.013,0.325-0.036
			c0.109-0.026,0.21-0.063,0.301-0.118c0.089-0.055,0.165-0.126,0.223-0.215c0.058-0.086,0.086-0.195,0.086-0.325
			c0-0.138-0.027-0.254-0.083-0.345c-0.058-0.095-0.13-0.168-0.219-0.223c-0.088-0.055-0.188-0.093-0.297-0.114
			C5.056,19.802,4.946,19.792,4.84,19.792 M3.824,19.226c0.042-0.012,0.138-0.029,0.288-0.058c0.15-0.029,0.336-0.043,0.56-0.043
			c0.246,0,0.48,0.025,0.705,0.074c0.225,0.05,0.421,0.129,0.589,0.24c0.17,0.111,0.304,0.254,0.405,0.43
			c0.1,0.179,0.15,0.391,0.15,0.643s-0.051,0.467-0.152,0.64c-0.102,0.172-0.235,0.311-0.395,0.415
			c-0.161,0.104-0.341,0.178-0.542,0.224c-0.2,0.047-0.399,0.068-0.598,0.068c-0.084,0-0.168-0.005-0.253-0.014v1.108H3.824V19.226z
			"/>
		<path fill="#005480" d="M7.553,21.077c0,0.187,0.032,0.355,0.098,0.505c0.064,0.149,0.152,0.277,0.262,0.389
			c0.109,0.108,0.235,0.193,0.376,0.251c0.144,0.06,0.295,0.088,0.454,0.088c0.158,0,0.309-0.03,0.452-0.092
			c0.143-0.06,0.269-0.145,0.375-0.253c0.107-0.109,0.192-0.238,0.256-0.392c0.063-0.149,0.095-0.317,0.095-0.502
			c0-0.184-0.031-0.352-0.093-0.502c-0.062-0.152-0.146-0.28-0.253-0.386c-0.109-0.106-0.232-0.188-0.376-0.246
			c-0.143-0.059-0.294-0.088-0.457-0.088c-0.167,0-0.32,0.029-0.465,0.088c-0.145,0.059-0.271,0.14-0.379,0.246
			c-0.106,0.105-0.19,0.233-0.252,0.386C7.583,20.72,7.553,20.89,7.553,21.077 M8.737,19.126c0.275,0,0.533,0.049,0.774,0.149
			c0.243,0.101,0.452,0.237,0.631,0.412c0.177,0.175,0.316,0.381,0.419,0.619c0.102,0.238,0.153,0.495,0.153,0.771
			c0,0.272-0.053,0.53-0.156,0.768c-0.105,0.234-0.245,0.442-0.423,0.618c-0.179,0.176-0.388,0.313-0.629,0.414
			c-0.242,0.101-0.5,0.152-0.776,0.152c-0.267,0-0.521-0.049-0.758-0.145c-0.238-0.096-0.447-0.229-0.627-0.399
			c-0.179-0.171-0.322-0.375-0.429-0.616C6.812,21.63,6.76,21.366,6.76,21.077c0-0.275,0.051-0.531,0.152-0.768
			c0.103-0.235,0.242-0.441,0.422-0.618c0.178-0.177,0.385-0.315,0.625-0.416C8.2,19.175,8.459,19.126,8.737,19.126"/>
	</g>
	<rect x="11.128" y="19.203" fill="#005480" width="0.755" height="3.751"/>
	<g>
		<path fill="#005480" d="M14.755,21.076c0-0.265-0.043-0.478-0.126-0.643c-0.085-0.163-0.193-0.291-0.325-0.385
			c-0.133-0.09-0.279-0.151-0.438-0.184c-0.158-0.03-0.312-0.048-0.46-0.048c-0.038,0-0.077,0.002-0.114,0.005
			c-0.038,0.005-0.075,0.01-0.113,0.018v2.459c0.075,0.011,0.148,0.016,0.222,0.016c0.149,0,0.303-0.016,0.462-0.051
			c0.161-0.034,0.308-0.096,0.44-0.187c0.131-0.094,0.239-0.219,0.325-0.38C14.712,21.537,14.755,21.33,14.755,21.076
			 M13.205,23.028c-0.113,0-0.217-0.006-0.313-0.018c-0.095-0.009-0.178-0.021-0.248-0.037c-0.085-0.014-0.159-0.033-0.222-0.058
			v-3.67c0.088-0.023,0.172-0.044,0.253-0.062c0.082-0.014,0.178-0.027,0.293-0.04c0.114-0.014,0.244-0.02,0.388-0.02
			c0.151,0,0.313,0.01,0.482,0.032c0.169,0.021,0.335,0.059,0.497,0.113c0.161,0.056,0.316,0.13,0.463,0.226
			c0.146,0.094,0.276,0.214,0.389,0.358c0.112,0.145,0.2,0.319,0.268,0.518c0.064,0.202,0.097,0.438,0.097,0.704
			c0,0.289-0.034,0.538-0.103,0.746c-0.07,0.209-0.163,0.386-0.281,0.528c-0.118,0.144-0.255,0.262-0.412,0.35
			s-0.323,0.157-0.497,0.206c-0.175,0.05-0.353,0.082-0.535,0.099C13.544,23.02,13.371,23.028,13.205,23.028"/>
		<path fill="#005480" d="M17.246,19.126c0.162,0,0.315,0.018,0.459,0.055c0.145,0.036,0.273,0.081,0.386,0.129
			c0.113,0.05,0.207,0.098,0.281,0.146c0.074,0.049,0.123,0.081,0.147,0.098l-0.349,0.61c-0.134-0.104-0.278-0.19-0.434-0.259
			c-0.156-0.068-0.341-0.103-0.56-0.103c-0.17,0-0.307,0.034-0.409,0.102c-0.105,0.065-0.158,0.164-0.158,0.29
			c0,0.103,0.044,0.181,0.132,0.235c0.088,0.055,0.2,0.103,0.336,0.145c0.135,0.039,0.287,0.083,0.452,0.128
			c0.167,0.047,0.327,0.11,0.482,0.194c0.186,0.104,0.331,0.228,0.43,0.374c0.101,0.145,0.15,0.335,0.15,0.564
			c0,0.178-0.033,0.344-0.101,0.49c-0.066,0.149-0.163,0.273-0.288,0.379c-0.125,0.104-0.278,0.184-0.457,0.239
			c-0.18,0.057-0.384,0.087-0.615,0.087c-0.165,0-0.32-0.021-0.466-0.058c-0.147-0.036-0.28-0.08-0.397-0.131
			c-0.119-0.053-0.222-0.104-0.313-0.158c-0.09-0.055-0.159-0.103-0.209-0.141l0.376-0.635c0.011,0.009,0.046,0.039,0.104,0.084
			s0.132,0.094,0.222,0.144s0.195,0.094,0.319,0.132c0.121,0.039,0.25,0.058,0.387,0.058c0.43,0,0.645-0.139,0.645-0.417
			c0-0.119-0.043-0.213-0.13-0.275c-0.086-0.063-0.195-0.119-0.328-0.164c-0.131-0.044-0.279-0.091-0.442-0.135
			c-0.161-0.044-0.318-0.105-0.469-0.182c-0.12-0.061-0.219-0.122-0.296-0.188c-0.078-0.065-0.138-0.135-0.186-0.206
			c-0.044-0.072-0.076-0.148-0.095-0.23c-0.018-0.08-0.026-0.167-0.026-0.26c0-0.192,0.037-0.362,0.113-0.503
			c0.076-0.145,0.179-0.262,0.31-0.358c0.13-0.096,0.281-0.166,0.451-0.211C16.874,19.149,17.056,19.126,17.246,19.126"/>
		<path fill="#005480" d="M11.832,25.543c-0.36,0.157-0.673,0.393-0.938,0.706c-0.267,0.315-0.475,0.707-0.625,1.179
			c-0.151,0.473-0.226,1.02-0.226,1.64c0,0.672,0.075,1.245,0.226,1.724c0.15,0.48,0.357,0.872,0.621,1.179
			c0.262,0.309,0.574,0.535,0.932,0.683c0.36,0.146,0.75,0.22,1.175,0.22c0.397,0,0.773-0.076,1.128-0.229
			c0.355-0.154,0.666-0.389,0.932-0.704c0.267-0.313,0.477-0.707,0.631-1.182c0.154-0.478,0.231-1.038,0.231-1.689
			c0-0.628-0.079-1.178-0.237-1.65c-0.157-0.472-0.368-0.863-0.634-1.172c-0.268-0.311-0.576-0.545-0.929-0.702
			c-0.352-0.159-0.725-0.238-1.122-0.238C12.579,25.305,12.19,25.384,11.832,25.543 M11.667,27.991
			c0.072-0.301,0.173-0.546,0.301-0.736c0.132-0.193,0.282-0.333,0.452-0.427c0.17-0.091,0.36-0.138,0.564-0.138
			c0.198,0,0.383,0.047,0.553,0.138c0.171,0.094,0.32,0.233,0.446,0.427c0.127,0.19,0.227,0.435,0.298,0.731
			c0.072,0.299,0.107,0.654,0.107,1.072c0,0.432-0.035,0.799-0.107,1.106c-0.071,0.308-0.17,0.561-0.292,0.76
			c-0.123,0.198-0.271,0.343-0.44,0.435c-0.171,0.093-0.356,0.14-0.554,0.14c-0.219,0-0.416-0.044-0.589-0.135
			c-0.175-0.087-0.326-0.23-0.451-0.424c-0.127-0.195-0.224-0.448-0.292-0.759c-0.069-0.312-0.103-0.686-0.103-1.123
			C11.561,28.648,11.596,28.293,11.667,27.991 M5.131,25.459l-0.338,3.938c0.063-0.049,0.14-0.104,0.237-0.17
			c0.095-0.064,0.213-0.125,0.353-0.179c0.14-0.056,0.309-0.104,0.508-0.146c0.198-0.039,0.434-0.061,0.708-0.061
			c0.224,0,0.433,0.037,0.625,0.107c0.191,0.071,0.357,0.169,0.497,0.287c0.139,0.12,0.251,0.261,0.333,0.423
			c0.081,0.157,0.122,0.327,0.122,0.505c0,0.206-0.04,0.393-0.118,0.564c-0.08,0.171-0.185,0.32-0.317,0.446
			c-0.134,0.126-0.289,0.224-0.466,0.291C7.097,31.535,6.906,31.57,6.7,31.57c-0.26,0-0.483-0.028-0.672-0.084
			c-0.187-0.053-0.347-0.116-0.476-0.188c-0.13-0.071-0.233-0.145-0.313-0.217c-0.079-0.071-0.135-0.123-0.17-0.157L4.126,31.91
			c0.049,0.052,0.134,0.134,0.258,0.24c0.122,0.105,0.287,0.211,0.492,0.316s0.458,0.2,0.759,0.282
			c0.299,0.083,0.655,0.123,1.065,0.123c0.452,0,0.861-0.071,1.23-0.21c0.37-0.141,0.681-0.331,0.939-0.568
			c0.256-0.239,0.454-0.521,0.594-0.842c0.14-0.32,0.21-0.662,0.21-1.025c0-0.41-0.077-0.769-0.231-1.075
			c-0.153-0.309-0.349-0.564-0.588-0.77c-0.238-0.205-0.502-0.359-0.79-0.462c-0.287-0.104-0.563-0.153-0.831-0.153
			c-0.184,0-0.334,0.006-0.45,0.016c-0.117,0.011-0.213,0.021-0.289,0.034c-0.075,0.016-0.133,0.029-0.173,0.048
			c-0.042,0.018-0.08,0.032-0.113,0.046l0.113-1.158h2.624l0.113-1.293H5.131z"/>
	</g>
	<path fill="#00517D" d="M48,36.764C48,42.969,42.969,48,36.763,48H11.237C5.031,48,0,42.969,0,36.764V11.236
		C0,5.031,5.031,0,11.237,0h25.526C42.969,0,48,5.031,48,11.236V36.764z M46,11.236C46,6.135,41.865,2,36.763,2H11.237
		C6.135,2,2,6.135,2,11.236v25.527C2,41.865,6.135,46,11.237,46h25.526C41.865,46,46,41.865,46,36.764V11.236z"/>
</g>
</svg>
