<?xml version="1.0" encoding="utf-8"?>
<!-- Generator: Adobe Illustrator 16.0.0, SVG Export Plug-In . SVG Version: 6.00 Build 0)  -->
<!DOCTYPE svg PUBLIC "-//W3C//DTD SVG 1.1//EN" "http://www.w3.org/Graphics/SVG/1.1/DTD/svg11.dtd">
<svg version="1.1" id="Calque_1" xmlns="http://www.w3.org/2000/svg" xmlns:xlink="http://www.w3.org/1999/xlink" x="0px" y="0px"
	 width="48px" height="48px" viewBox="0 0 48 48" enable-background="new 0 0 48 48" xml:space="preserve">
<path fill="#00517D" d="M36.762,48H11.238C5.041,48,0,42.959,0,36.764V11.236C0,5.041,5.041,0,11.238,0h25.523
	C42.959,0,48,5.041,48,11.236v25.527C48,42.959,42.959,48,36.762,48z M11.238,2C6.145,2,2,6.144,2,11.236v25.527
	C2,41.856,6.145,46,11.238,46h25.523C41.855,46,46,41.856,46,36.764V11.236C46,6.144,41.855,2,36.762,2H11.238z"/>
<g>
	<path fill="#005480" d="M15.824,19.467h-2.032c-0.092,0-0.165,0.074-0.165,0.164v0.725c0,0.091,0.073,0.165,0.165,0.165h1.142
		v5.753c0,0.091,0.074,0.165,0.166,0.165h0.725c0.091,0,0.165-0.074,0.165-0.165v-6.643C15.989,19.541,15.915,19.467,15.824,19.467
		L15.824,19.467z M15.824,19.467"/>
	<path fill="#005480" d="M19.81,19.467c-0.887,0-1.616,0.32-2.105,0.929c-0.491,0.606-0.739,1.464-0.739,2.553
		c0,1.091,0.248,1.951,0.737,2.56c0.491,0.609,1.221,0.931,2.107,0.931c0.892,0,1.622-0.322,2.115-0.931
		c0.49-0.608,0.74-1.469,0.74-2.56c0-1.088-0.25-1.947-0.74-2.553C21.432,19.788,20.701,19.467,19.81,19.467L19.81,19.467z
		 M19.81,25.385c-1.188,0-1.79-0.82-1.79-2.436c0-1.611,0.603-2.427,1.79-2.427c1.195,0,1.8,0.816,1.8,2.427
		C21.609,24.565,21.005,25.385,19.81,25.385L19.81,25.385z M19.81,25.385"/>
	<path fill="#005480" d="M27.053,22.69c0.374-0.338,0.572-0.795,0.572-1.336c0-1.165-0.863-1.887-2.254-1.887
		c-1.396,0-2.261,0.722-2.261,1.887c0,0.541,0.196,0.998,0.57,1.336c-0.55,0.372-0.851,0.939-0.851,1.618
		c0,1.314,0.976,2.131,2.541,2.131c1.563,0,2.533-0.816,2.533-2.131C27.904,23.629,27.604,23.062,27.053,22.69L27.053,22.69z
		 M25.371,20.521c0.448,0,1.199,0.11,1.199,0.849c0,0.756-0.751,0.868-1.199,0.868c-0.451,0-1.207-0.112-1.207-0.868
		C24.164,20.631,24.92,20.521,25.371,20.521L25.371,20.521z M25.371,25.385c-0.554,0-1.486-0.141-1.486-1.094
		c0-0.634,0.538-0.998,1.479-0.998c0.943,0,1.485,0.368,1.485,1.007C26.849,25.244,25.923,25.385,25.371,25.385L25.371,25.385z
		 M25.371,25.385"/>
	<path fill="#005480" d="M30.914,19.467c-0.888,0-1.616,0.32-2.105,0.929c-0.492,0.606-0.739,1.464-0.739,2.553
		c0,1.091,0.247,1.951,0.739,2.56c0.489,0.609,1.218,0.931,2.105,0.931c0.89,0,1.622-0.322,2.113-0.931
		c0.493-0.608,0.741-1.469,0.741-2.56c0-1.088-0.248-1.947-0.741-2.553C32.536,19.788,31.804,19.467,30.914,19.467L30.914,19.467z
		 M30.914,25.385c-1.188,0-1.791-0.82-1.791-2.436c0-1.611,0.603-2.427,1.791-2.427c1.195,0,1.801,0.816,1.801,2.427
		C32.715,24.565,32.109,25.385,30.914,25.385L30.914,25.385z M30.914,25.385"/>
	<g>
		<path fill="#005480" d="M40.905,14.069H40.23l-0.323,1.916h0.676c0.546,0,1.063-0.429,1.15-0.956
			C41.821,14.5,41.45,14.069,40.905,14.069L40.905,14.069z M40.905,14.069"/>
		<path fill="#005480" d="M44.624,14.213l-4.669-4.669c-0.449-0.448-1.177-0.448-1.627,0l-1.009,1.009H7.609
			c-1.703,0-3.088,1.385-3.088,3.087v18.764c0,1.703,1.361,3.087,3.035,3.087h11.234l-1.223,2.752
			c-0.189,0.423-0.149,0.913,0.104,1.3c0.251,0.388,0.683,0.621,1.146,0.621h9.761c0.001,0,0.002,0,0.003,0
			c0.755,0,1.366-0.611,1.366-1.366c0-0.225-0.054-0.438-0.15-0.625l-1.192-2.683h11.131c1.731,0,3.139-1.384,3.139-3.087V17.589
			l1.75-1.749C45.072,15.391,45.072,14.663,44.624,14.213L44.624,14.213z M36.372,13.531c0.013-0.067,0.075-0.122,0.143-0.122h0.417
			c0.066,0,0.112,0.055,0.1,0.122l-0.193,1.153h1.324l0.192-1.153c0.013-0.067,0.076-0.122,0.144-0.122h0.416
			c0.067,0,0.112,0.055,0.102,0.122l-0.503,2.991c-0.011,0.067-0.075,0.122-0.143,0.122h-0.416c-0.068,0-0.112-0.055-0.102-0.122
			l0.198-1.178h-1.324l-0.196,1.178c-0.013,0.067-0.075,0.122-0.143,0.122h-0.417c-0.066,0-0.111-0.055-0.101-0.122L36.372,13.531z
			 M20.92,37.433l0.862-1.94h3.831l0.863,1.94H20.92z M40.141,32.405c0,0.206-0.17,0.355-0.405,0.355H7.557
			c-0.139,0-0.303-0.155-0.303-0.355V13.641c0-0.195,0.16-0.354,0.355-0.354h26.977l-0.927,0.927c-0.45,0.449-0.45,1.177,0,1.627
			l4.669,4.668c0.225,0.225,0.52,0.338,0.813,0.338c0.296,0,0.59-0.113,0.814-0.338l0.186-0.187V32.405z M42.392,15.029
			c-0.148,0.89-1.011,1.615-1.919,1.615h-1.215c-0.067,0-0.112-0.055-0.101-0.122l0.502-2.991c0.011-0.067,0.076-0.122,0.143-0.122
			h1.214C41.924,13.41,42.543,14.137,42.392,15.029L42.392,15.029z M42.392,15.029"/>
	</g>
</g>
</svg>
