<?xml version="1.0" encoding="utf-8"?>
<!-- Generator: Adobe Illustrator 21.0.0, SVG Export Plug-In . SVG Version: 6.00 Build 0)  -->
<svg version="1.1" id="Calque_1" xmlns="http://www.w3.org/2000/svg" xmlns:xlink="http://www.w3.org/1999/xlink" x="0px" y="0px"
	 viewBox="0 0 48 48" enable-background="new 0 0 48 48" xml:space="preserve">
<path fill="#00A5E8" d="M48,36.763C48,42.969,42.969,48,36.763,48H11.237C5.031,48,0,42.969,0,36.763V11.237
	C0,5.031,5.031,0,11.237,0h25.526C42.969,0,48,5.031,48,11.237V36.763z M46,11.237C46,6.135,41.865,2,36.763,2H11.237
	C6.135,2,2,6.135,2,11.237v25.526C2,41.865,6.135,46,11.237,46h25.526C41.865,46,46,41.865,46,36.763V11.237z"/>
<path fill="#00A5E8" d="M35.333,29.667h-1.101v-0.149c0-0.114,0.007-0.227,0.007-0.227h-0.015c0,0-0.52,0.467-1.415,0.467
	c-1.378,0-2.644-1.032-2.644-2.793c0-1.564,1.183-2.771,2.825-2.771c1.379,0,2.071,0.713,2.071,0.713l-0.633,0.987
	c0,0-0.549-0.494-1.31-0.494c-1.13,0-1.589,0.721-1.589,1.519c0,1.025,0.708,1.634,1.544,1.634c0.631,0,1.091-0.39,1.091-0.39
	v-0.416h-0.76v-1.121h1.928V29.667z M28.402,29.667l-1.138-2.184h-0.542v2.184h-1.317v-5.382h1.317v2.076h0.542l1.114-2.076h1.418
	l-1.455,2.575v0.014l1.537,2.794H28.402z M28.172,17.105c0-1.085,0.883-1.968,1.969-1.968c1.087,0,1.969,0.883,1.969,1.968
	c0,0.94-0.663,1.725-1.546,1.92h-0.845C28.836,18.831,28.172,18.045,28.172,17.105 M42.747,32.221l-3.975-12.283
	c-0.174-0.544-0.68-0.912-1.252-0.912h-4.194c0.34-0.562,0.542-1.216,0.542-1.92c0-2.054-1.673-3.724-3.726-3.724
	c-2.052,0-3.722,1.67-3.722,3.724c0,0.704,0.199,1.359,0.539,1.92h-4.194c-0.572,0-1.077,0.368-1.252,0.912l-3.975,12.283
	c-0.275,0.85,0.359,1.722,1.253,1.722h22.703C42.387,33.942,43.021,33.071,42.747,32.221"/>
<g>
	<path fill="#00A5E8" d="M5.654,19.889c-0.084,0-0.144,0.001-0.178,0.005c-0.034,0.004-0.058,0.008-0.07,0.015v1.3
		c0.013,0.007,0.034,0.012,0.063,0.016c0.029,0.002,0.086,0.004,0.175,0.004c0.1,0,0.203-0.011,0.308-0.034
		c0.103-0.025,0.198-0.063,0.284-0.113c0.086-0.051,0.156-0.12,0.212-0.202c0.055-0.085,0.084-0.188,0.084-0.311
		c0-0.132-0.028-0.24-0.082-0.329c-0.053-0.088-0.121-0.159-0.206-0.211c-0.084-0.051-0.178-0.087-0.282-0.109
		C5.857,19.9,5.754,19.889,5.654,19.889 M4.688,19.351c0.04-0.009,0.132-0.028,0.273-0.054c0.142-0.026,0.32-0.04,0.53-0.04
		c0.234,0,0.457,0.023,0.67,0.07c0.212,0.047,0.4,0.122,0.561,0.227c0.16,0.106,0.287,0.243,0.383,0.41
		c0.095,0.167,0.143,0.369,0.143,0.608c0,0.24-0.048,0.443-0.146,0.607c-0.097,0.165-0.22,0.296-0.372,0.395
		c-0.153,0.099-0.323,0.17-0.515,0.213c-0.191,0.045-0.38,0.065-0.567,0.065c-0.08,0-0.161-0.005-0.241-0.014v1.054H4.688V19.351z"
		/>
	<path fill="#00A5E8" d="M8.099,21.109c0,0.177,0.031,0.336,0.093,0.479c0.061,0.144,0.146,0.267,0.248,0.37
		C8.545,22.06,8.665,22.14,8.8,22.196c0.135,0.056,0.278,0.082,0.429,0.082c0.151,0,0.294-0.027,0.43-0.084
		c0.136-0.057,0.253-0.138,0.356-0.243c0.102-0.103,0.184-0.227,0.244-0.371c0.06-0.144,0.09-0.303,0.09-0.476
		c0-0.174-0.03-0.333-0.088-0.477c-0.059-0.144-0.14-0.266-0.242-0.367c-0.103-0.101-0.221-0.179-0.356-0.234
		c-0.134-0.055-0.28-0.082-0.434-0.082c-0.157,0-0.305,0.027-0.442,0.082c-0.137,0.056-0.257,0.134-0.358,0.234
		c-0.102,0.101-0.183,0.222-0.242,0.367C8.129,20.771,8.099,20.932,8.099,21.109 M9.224,19.257c0.261,0,0.506,0.048,0.736,0.143
		c0.228,0.095,0.428,0.226,0.598,0.391c0.168,0.166,0.301,0.362,0.399,0.588c0.097,0.225,0.145,0.469,0.145,0.73
		c0,0.26-0.049,0.504-0.148,0.729c-0.098,0.223-0.233,0.42-0.401,0.586c-0.169,0.167-0.369,0.299-0.598,0.396
		c-0.23,0.095-0.475,0.141-0.735,0.141c-0.255,0-0.495-0.044-0.721-0.135c-0.226-0.09-0.424-0.216-0.595-0.378
		c-0.17-0.162-0.306-0.357-0.406-0.587c-0.101-0.226-0.151-0.478-0.151-0.751c0-0.261,0.049-0.505,0.146-0.728
		c0.098-0.225,0.231-0.421,0.399-0.588c0.169-0.167,0.368-0.299,0.595-0.394C8.712,19.305,8.959,19.257,9.224,19.257"/>
	<rect x="11.631" y="19.331" fill="#00A5E8" width="0.719" height="3.56"/>
	<path fill="#00A5E8" d="M14.937,21.109c0-0.25-0.04-0.455-0.12-0.61c-0.081-0.155-0.183-0.277-0.309-0.364
		c-0.126-0.086-0.263-0.145-0.414-0.175c-0.151-0.031-0.297-0.045-0.438-0.045c-0.036,0-0.073,0.001-0.108,0.004
		c-0.035,0.004-0.071,0.007-0.108,0.016v2.333c0.071,0.01,0.141,0.015,0.212,0.015c0.14,0,0.286-0.015,0.439-0.047
		c0.152-0.032,0.291-0.09,0.417-0.179c0.125-0.085,0.228-0.205,0.309-0.359C14.897,21.545,14.937,21.349,14.937,21.109
		 M13.467,22.96c-0.107,0-0.206-0.004-0.297-0.014c-0.09-0.01-0.169-0.021-0.236-0.035c-0.08-0.014-0.15-0.031-0.211-0.056v-3.483
		c0.085-0.025,0.164-0.044,0.242-0.058c0.077-0.017,0.168-0.03,0.279-0.041c0.109-0.011,0.232-0.017,0.369-0.017
		c0.144,0,0.296,0.01,0.457,0.029c0.16,0.021,0.317,0.057,0.472,0.108c0.153,0.051,0.3,0.124,0.438,0.213
		c0.139,0.092,0.263,0.205,0.37,0.342c0.107,0.137,0.191,0.302,0.253,0.492c0.063,0.191,0.093,0.414,0.093,0.668
		c0,0.274-0.033,0.51-0.099,0.708c-0.064,0.198-0.153,0.366-0.266,0.501c-0.111,0.139-0.242,0.249-0.391,0.332
		c-0.15,0.084-0.306,0.149-0.472,0.196c-0.165,0.047-0.335,0.079-0.507,0.094C13.787,22.954,13.623,22.96,13.467,22.96"/>
	<path fill="#00A5E8" d="M17.302,19.257c0.153,0,0.299,0.017,0.438,0.053c0.137,0.035,0.259,0.076,0.367,0.122
		c0.106,0.047,0.195,0.092,0.266,0.139c0.07,0.043,0.117,0.075,0.141,0.092l-0.331,0.577c-0.128-0.096-0.265-0.178-0.412-0.243
		c-0.148-0.066-0.325-0.098-0.532-0.098c-0.161,0-0.29,0.032-0.39,0.096c-0.099,0.063-0.148,0.156-0.148,0.275
		c0,0.097,0.042,0.171,0.126,0.224c0.084,0.052,0.189,0.098,0.319,0.136c0.129,0.038,0.273,0.078,0.43,0.122
		c0.157,0.043,0.308,0.106,0.457,0.187c0.177,0.097,0.314,0.214,0.41,0.355c0.095,0.137,0.143,0.316,0.143,0.533
		c0,0.17-0.032,0.326-0.095,0.467c-0.064,0.14-0.156,0.262-0.274,0.36c-0.119,0.098-0.264,0.174-0.435,0.228
		c-0.17,0.055-0.365,0.08-0.582,0.08c-0.157,0-0.305-0.017-0.445-0.052c-0.138-0.035-0.265-0.076-0.377-0.125
		c-0.111-0.049-0.21-0.098-0.296-0.151c-0.085-0.051-0.15-0.096-0.198-0.132l0.357-0.604c0.01,0.01,0.042,0.038,0.097,0.082
		c0.056,0.042,0.125,0.087,0.211,0.135c0.086,0.048,0.186,0.089,0.301,0.126c0.116,0.037,0.239,0.055,0.369,0.055
		c0.409,0,0.613-0.132,0.613-0.398c0-0.112-0.041-0.201-0.123-0.26c-0.081-0.061-0.185-0.113-0.311-0.156
		c-0.126-0.043-0.264-0.086-0.419-0.127c-0.155-0.042-0.303-0.1-0.447-0.173c-0.113-0.057-0.208-0.116-0.281-0.179
		c-0.073-0.061-0.132-0.127-0.176-0.195c-0.042-0.069-0.073-0.142-0.09-0.217c-0.016-0.079-0.025-0.161-0.025-0.248
		c0-0.183,0.036-0.343,0.108-0.479c0.072-0.135,0.17-0.248,0.293-0.338c0.125-0.091,0.267-0.157,0.43-0.201
		C16.949,19.277,17.121,19.257,17.302,19.257"/>
</g>
<g>
	<path fill="#00A5E8" d="M6.565,25.327v6.022H5.351v-6.022H6.565z"/>
	<path fill="#00A5E8" d="M10.965,26.644v2.412h0.815l-0.085,1.019h-0.73V31.4H9.818v-1.325H6.981
		c0.034-0.073,0.095-0.206,0.182-0.399c0.088-0.192,0.186-0.423,0.293-0.692c0.107-0.269,0.218-0.566,0.331-0.892
		c0.113-0.326,0.217-0.658,0.31-0.998c0.093-0.34,0.171-0.678,0.233-1.015c0.062-0.337,0.094-0.65,0.094-0.939
		c0-0.017-0.002-0.032-0.005-0.047c-0.003-0.014-0.004-0.03-0.004-0.047l1.249,0.17c0,0.181-0.027,0.39-0.081,0.628
		c-0.054,0.238-0.123,0.486-0.208,0.743c-0.085,0.258-0.18,0.515-0.285,0.773c-0.105,0.258-0.208,0.498-0.31,0.722
		c-0.102,0.224-0.197,0.42-0.285,0.59c-0.088,0.17-0.157,0.297-0.208,0.382h1.597v-2.412H10.965z"/>
	<path fill="#00A5E8" d="M15.361,25.395c0.291,0.13,0.547,0.324,0.768,0.582c0.221,0.258,0.397,0.582,0.527,0.973
		c0.13,0.391,0.195,0.847,0.195,1.368c0,0.538-0.064,1.004-0.191,1.397c-0.127,0.393-0.301,0.721-0.522,0.981
		c-0.221,0.261-0.479,0.455-0.773,0.582c-0.294,0.127-0.606,0.191-0.934,0.191c-0.351,0-0.676-0.061-0.973-0.182
		c-0.298-0.122-0.555-0.31-0.773-0.565c-0.218-0.255-0.39-0.581-0.514-0.977c-0.124-0.396-0.187-0.871-0.187-1.427
		c0-0.515,0.062-0.968,0.187-1.359c0.124-0.39,0.298-0.716,0.518-0.977c0.221-0.26,0.48-0.456,0.777-0.586
		c0.297-0.13,0.618-0.195,0.964-0.195C14.759,25.2,15.069,25.265,15.361,25.395z M13.326,29.239
		c0.057,0.258,0.137,0.467,0.242,0.628c0.105,0.161,0.229,0.279,0.373,0.353c0.145,0.074,0.307,0.11,0.489,0.11
		c0.164,0,0.317-0.038,0.458-0.115c0.142-0.077,0.263-0.197,0.365-0.361c0.102-0.164,0.182-0.373,0.242-0.628
		c0.059-0.255,0.089-0.56,0.089-0.917c0-0.346-0.03-0.641-0.089-0.888c-0.06-0.246-0.142-0.448-0.246-0.607
		c-0.105-0.159-0.228-0.276-0.37-0.353c-0.142-0.076-0.294-0.115-0.459-0.115c-0.17,0-0.326,0.038-0.467,0.115
		c-0.142,0.076-0.266,0.194-0.374,0.353c-0.108,0.159-0.191,0.362-0.25,0.612c-0.06,0.249-0.089,0.543-0.089,0.883
		C13.241,28.671,13.269,28.981,13.326,29.239z"/>
</g>
<rect x="23.167" y="22.971" fill="#00A5E8" width="13.25" height="8.417"/>
<g>
	<path fill="#FFFFFF" d="M31.262,23.806c0.277,0.096,0.51,0.204,0.7,0.324c0.189,0.12,0.335,0.232,0.436,0.336
		c0.102,0.104,0.16,0.164,0.176,0.18l-0.744,0.736c-0.016-0.016-0.059-0.06-0.128-0.132c-0.069-0.072-0.167-0.148-0.292-0.228
		c-0.125-0.08-0.28-0.15-0.464-0.212c-0.184-0.061-0.402-0.092-0.652-0.092c-0.272,0-0.524,0.048-0.756,0.144
		c-0.232,0.096-0.432,0.228-0.6,0.396s-0.299,0.369-0.392,0.604c-0.093,0.234-0.14,0.488-0.14,0.76s0.042,0.525,0.128,0.76
		c0.085,0.234,0.208,0.438,0.368,0.612c0.16,0.173,0.357,0.31,0.592,0.408c0.234,0.099,0.501,0.148,0.8,0.148
		c0.336,0,0.604-0.052,0.804-0.156c0.2-0.104,0.354-0.223,0.464-0.356s0.183-0.265,0.22-0.396c0.037-0.13,0.059-0.225,0.064-0.284
		H29.15l0.2-0.88h3.736v0.12c0,0.139-0.013,0.31-0.04,0.512c-0.026,0.203-0.077,0.415-0.152,0.636s-0.176,0.44-0.304,0.656
		c-0.128,0.216-0.294,0.411-0.5,0.584c-0.205,0.173-0.453,0.313-0.744,0.42c-0.291,0.106-0.633,0.16-1.028,0.16
		c-0.496,0-0.937-0.075-1.324-0.224c-0.387-0.149-0.713-0.357-0.98-0.624c-0.267-0.267-0.47-0.583-0.608-0.948
		c-0.139-0.365-0.208-0.761-0.208-1.188c0-0.416,0.074-0.803,0.224-1.16c0.149-0.357,0.36-0.667,0.632-0.928s0.599-0.465,0.98-0.612
		c0.381-0.147,0.804-0.22,1.268-0.22C30.664,23.662,30.985,23.71,31.262,23.806z"/>
</g>
</svg>
