<?xml version="1.0" encoding="utf-8"?>
<!-- Generator: Adobe Illustrator 16.0.0, SVG Export Plug-In . SVG Version: 6.00 Build 0)  -->
<!DOCTYPE svg PUBLIC "-//W3C//DTD SVG 1.1//EN" "http://www.w3.org/Graphics/SVG/1.1/DTD/svg11.dtd">
<svg version="1.1" id="Calque_1" xmlns="http://www.w3.org/2000/svg" xmlns:xlink="http://www.w3.org/1999/xlink" x="0px" y="0px"
	 width="48px" height="48px" viewBox="0 0 48 48" enable-background="new 0 0 48 48" xml:space="preserve">
<g>
	<path fill="#00517D" d="M36.763,48H11.237C5.041,48,0,42.959,0,36.764V11.236C0,5.041,5.041,0,11.237,0h25.525
		C42.959,0,48,5.041,48,11.236v25.527C48,42.959,42.959,48,36.763,48z M11.237,2C6.144,2,2,6.144,2,11.236v25.527
		C2,41.856,6.144,46,11.237,46h25.525C41.856,46,46,41.856,46,36.764V11.236C46,6.144,41.856,2,36.763,2H11.237z"/>
	<g>
		<path fill="#005480" d="M44.336,30.021l-9.367,9.369c-0.219,0.219-0.481,0.327-0.794,0.327c-0.297,0-0.557-0.108-0.775-0.327
			l-6.243-6.246c-0.208-0.208-0.312-0.465-0.312-0.775c0-0.323,0.104-0.589,0.312-0.794l1.568-1.554
			c0.22-0.217,0.479-0.327,0.777-0.327c0.3,0,0.559,0.11,0.777,0.327l3.897,3.899l7.039-7.022c0.217-0.219,0.479-0.327,0.777-0.327
			c0.3,0,0.558,0.108,0.777,0.327l1.568,1.554c0.208,0.206,0.312,0.47,0.312,0.794C44.648,29.557,44.545,29.815,44.336,30.021"/>
		<path fill="#005480" d="M7.899,11.256c0.375,0,0.703,0.05,0.99,0.147c0.285,0.101,0.524,0.212,0.719,0.334
			c0.197,0.125,0.346,0.24,0.449,0.345c0.104,0.107,0.166,0.169,0.181,0.187l-0.767,0.758c-0.016-0.018-0.06-0.063-0.13-0.135
			c-0.07-0.076-0.172-0.153-0.3-0.236c-0.129-0.083-0.289-0.156-0.479-0.219s-0.414-0.094-0.672-0.094
			c-0.279,0-0.539,0.049-0.779,0.147c-0.237,0.1-0.443,0.236-0.617,0.409c-0.172,0.175-0.306,0.38-0.402,0.622
			c-0.095,0.243-0.145,0.503-0.145,0.782c0,0.281,0.045,0.542,0.132,0.783c0.087,0.24,0.213,0.451,0.379,0.63
			c0.163,0.178,0.366,0.318,0.608,0.419c0.242,0.101,0.517,0.152,0.824,0.152c0.347,0,0.621-0.054,0.827-0.16
			c0.207-0.107,0.366-0.229,0.479-0.366c0.114-0.138,0.188-0.274,0.226-0.408c0.04-0.134,0.062-0.232,0.067-0.293H6.712l0.207-0.905
			h3.845v0.123c0,0.15-0.013,0.327-0.041,0.533c-0.028,0.205-0.08,0.421-0.157,0.649c-0.076,0.228-0.182,0.453-0.313,0.676
			c-0.132,0.221-0.303,0.423-0.515,0.602c-0.211,0.178-0.467,0.323-0.765,0.433c-0.3,0.11-0.653,0.163-1.059,0.163
			c-0.511,0-0.966-0.077-1.364-0.229c-0.397-0.156-0.735-0.368-1.008-0.644c-0.275-0.272-0.484-0.6-0.626-0.976
			c-0.143-0.375-0.215-0.784-0.215-1.222c0-0.429,0.078-0.827,0.231-1.195c0.154-0.368,0.369-0.686,0.651-0.954
			c0.278-0.27,0.615-0.48,1.009-0.631C6.987,11.332,7.422,11.256,7.899,11.256"/>
	</g>
	<path fill="#005480" d="M13.764,13.496l0.599,1.566h-1.218L13.764,13.496z M13.764,11.065l-2.751,6.153h1.277l0.52-1.194h1.918
		l0.509,1.194h1.27L13.764,11.065z"/>
	<g>
		<path fill="#005480" d="M18.474,12.317c-0.05,0-0.099,0.004-0.147,0.013c-0.05,0.008-0.099,0.017-0.149,0.03v2.091
			c0.066,0.01,0.131,0.016,0.194,0.016h0.193c0.139,0,0.28-0.019,0.429-0.057c0.149-0.039,0.284-0.099,0.406-0.182
			c0.125-0.083,0.226-0.19,0.306-0.321c0.079-0.132,0.119-0.294,0.119-0.486c0-0.214-0.042-0.392-0.127-0.536
			c-0.085-0.143-0.193-0.255-0.325-0.341c-0.131-0.087-0.278-0.145-0.438-0.177C18.775,12.334,18.622,12.317,18.474,12.317
			 M17,11.396c0.088-0.016,0.251-0.044,0.489-0.083c0.239-0.038,0.55-0.059,0.935-0.059c0.325,0,0.644,0.041,0.96,0.116
			c0.316,0.078,0.598,0.201,0.849,0.37c0.25,0.171,0.452,0.394,0.605,0.669c0.153,0.274,0.23,0.608,0.23,1.003
			c0,0.269-0.047,0.5-0.14,0.691c-0.093,0.193-0.202,0.353-0.322,0.483c-0.12,0.129-0.24,0.229-0.359,0.3
			c-0.118,0.071-0.205,0.119-0.258,0.14l1.491,1.771l-1.071,0.553l-2.232-2.875v2.743H17V11.396z"/>
	</g>
	<path fill="#005480" d="M24.212,13.496l0.602,1.566h-1.219L24.212,13.496z M24.212,11.065l-2.749,6.153h1.277l0.519-1.194h1.918
		l0.511,1.194h1.269L24.212,11.065z"/>
	<polygon fill="#005480" points="27.45,17.218 28.626,17.218 28.57,13.85 32.038,17.356 32.038,11.379 30.861,11.379 30.918,14.723 
		27.45,11.223 	"/>
	<polygon fill="#005480" points="32.664,11.38 32.516,12.433 34.138,12.433 34.138,17.218 35.315,17.218 35.315,12.433 
		36.755,12.433 36.906,11.38 	"/>
	<rect x="37.316" y="11.379" fill="#005480" width="1.178" height="5.839"/>
	<polygon fill="#005480" points="39.334,11.37 39.334,17.218 43.057,17.218 43.237,16.164 40.511,16.164 40.511,15.118 
		42.571,15.118 42.686,14.097 40.511,14.097 40.511,12.424 42.958,12.424 42.834,11.37 	"/>
	<path fill="#005480" d="M18.771,22.082l-0.981,2.487h1.936L18.771,22.082z M18.771,18.22l4.359,9.779h-2.016l-0.812-1.9h-3.05
		l-0.825,1.9h-2.03L18.771,18.22z"/>
	<polygon fill="#005480" points="31.207,18.718 31.207,28.22 25.695,22.645 25.788,27.999 23.915,27.999 23.915,18.468 
		29.427,24.033 29.334,18.718 	"/>
	<g>
		<path fill="#005480" d="M13.292,37.728H9.769V24.456c-1.286,1.203-2.802,2.093-4.549,2.67v-3.196
			c0.92-0.3,1.917-0.872,2.995-1.712c1.078-0.838,1.817-1.817,2.22-2.938h2.857V37.728z"/>
	</g>
</g>
</svg>
