<?xml version="1.0" encoding="utf-8"?>
<!-- Generator: Adobe Illustrator 16.0.0, SVG Export Plug-In . SVG Version: 6.00 Build 0)  -->
<!DOCTYPE svg PUBLIC "-//W3C//DTD SVG 1.1//EN" "http://www.w3.org/Graphics/SVG/1.1/DTD/svg11.dtd">
<svg version="1.1" id="Calque_1" xmlns="http://www.w3.org/2000/svg" xmlns:xlink="http://www.w3.org/1999/xlink" x="0px" y="0px"
	 width="48px" height="48px" viewBox="0 0 48 48" enable-background="new 0 0 48 48" xml:space="preserve">
<g>
	<path fill="#00517D" d="M36.763,48H11.237C5.041,48,0,42.959,0,36.763V11.237C0,5.041,5.041,0,11.237,0h25.526
		C42.959,0,48,5.041,48,11.237v25.526C48,42.959,42.959,48,36.763,48z M11.237,2C6.144,2,2,6.144,2,11.237v25.526
		C2,41.856,6.144,46,11.237,46h25.526C41.856,46,46,41.856,46,36.763V11.237C46,6.144,41.856,2,36.763,2H11.237z"/>
	<g>
		<path fill="#005480" d="M44.282,25.119c-0.364,0-0.656,0.517-0.656,1.16c0,7.529-8.77,13.9-19.153,13.9
			c-10.378,0-19.15-6.371-19.15-13.9c0-3.484,1.972-6.977,5.41-9.591c3.605-2.737,8.396-4.26,13.509-4.295l-2.353,4.101
			c-0.258,0.453-0.258,1.187,0,1.639c0.129,0.224,0.305,0.339,0.472,0.339c0.166,0,0.333-0.115,0.462-0.339l3.954-6.901
			l-3.954-6.911c-0.258-0.451-0.671-0.451-0.927,0c-0.257,0.453-0.257,1.184,0,1.633l2.359,4.13
			c-5.293,0.043-10.278,1.631-14.051,4.494c-3.997,3.034-6.196,7.193-6.196,11.7c0,9.098,8.987,16.211,20.465,16.211
			c11.48,0,20.476-7.126,20.476-16.211C44.941,25.636,44.652,25.119,44.282,25.119"/>
		<path fill="#005480" d="M24.474,42.849c-11.676,0-20.823-7.278-20.823-16.569c0-4.626,2.25-8.883,6.337-11.985
			c3.68-2.792,8.509-4.399,13.657-4.555l-2.06-3.606c-0.317-0.555-0.318-1.428,0-1.987c0.375-0.66,1.172-0.66,1.549-0.001
			l4.056,7.089l-4.056,7.079c-0.381,0.665-1.177,0.654-1.555,0.001c-0.319-0.561-0.319-1.436-0.001-1.996l2.039-3.554
			c-4.796,0.149-9.274,1.634-12.668,4.21c-3.348,2.546-5.269,5.938-5.269,9.306c0,7.34,8.606,13.542,18.792,13.542
			c10.188,0,18.795-6.202,18.795-13.542c0-0.866,0.436-1.518,1.014-1.518c0.573,0,1.014,0.65,1.025,1.514
			C45.307,35.571,36.156,42.849,24.474,42.849z M22.359,4.342c-0.021,0-0.084,0.039-0.152,0.157c-0.194,0.342-0.194,0.939,0,1.278
			l2.663,4.661l-0.611,0.005c-5.221,0.042-10.136,1.613-13.838,4.421c-3.904,2.964-6.054,7.018-6.054,11.415
			c0,8.89,8.832,15.854,20.107,15.854c11.281,0,20.118-6.964,20.118-15.854c-0.007-0.52-0.223-0.802-0.309-0.802
			c-0.077,0-0.298,0.276-0.298,0.802c0,7.729-8.935,14.258-19.511,14.258c-10.575,0-19.508-6.529-19.508-14.258
			c0-3.593,2.023-7.193,5.551-9.876c3.664-2.781,8.538-4.333,13.724-4.368l0.623-0.004L22.2,16.672
			c-0.194,0.341-0.194,0.942,0,1.284c0.068,0.118,0.139,0.158,0.161,0.158c0.01,0,0.076-0.028,0.152-0.16l3.852-6.722L22.513,4.5
			C22.445,4.38,22.38,4.342,22.359,4.342z"/>
	</g>
	<path fill="#005480" d="M36.655,25.532c0.116,0.286,0.274,0.537,0.472,0.745c0.2,0.211,0.434,0.379,0.703,0.499
		c0.272,0.124,0.559,0.185,0.859,0.185c0.301,0,0.588-0.061,0.86-0.185c0.268-0.12,0.504-0.288,0.703-0.499
		c0.197-0.208,0.355-0.459,0.472-0.745c0.114-0.286,0.171-0.589,0.171-0.909c0-0.319-0.057-0.623-0.171-0.908
		c-0.116-0.288-0.275-0.535-0.472-0.747c-0.199-0.21-0.435-0.376-0.703-0.5c-0.272-0.122-0.559-0.183-0.86-0.183
		c-0.3,0-0.587,0.061-0.859,0.183c-0.269,0.124-0.503,0.29-0.703,0.5c-0.198,0.211-0.356,0.459-0.472,0.747
		c-0.114,0.286-0.172,0.589-0.172,0.908C36.483,24.943,36.541,25.246,36.655,25.532 M39.237,23.24
		c0.175,0.08,0.329,0.187,0.454,0.322c0.126,0.133,0.229,0.294,0.305,0.48c0.076,0.184,0.112,0.376,0.112,0.581
		c0,0.202-0.036,0.397-0.112,0.582c-0.077,0.185-0.179,0.344-0.305,0.48c-0.125,0.133-0.278,0.242-0.454,0.321
		c-0.174,0.081-0.358,0.12-0.548,0.12s-0.373-0.039-0.549-0.12c-0.175-0.079-0.326-0.188-0.453-0.321
		c-0.126-0.136-0.229-0.295-0.304-0.48c-0.077-0.184-0.113-0.379-0.113-0.582c0-0.212,0.037-0.408,0.113-0.595
		c0.076-0.185,0.181-0.343,0.313-0.477c0.129-0.136,0.281-0.241,0.452-0.316c0.171-0.076,0.352-0.116,0.542-0.116
		S39.063,23.16,39.237,23.24 M28.429,22.577c-0.416,0.192-0.781,0.484-1.091,0.871c-0.312,0.387-0.553,0.871-0.729,1.453
		c-0.172,0.58-0.26,1.255-0.26,2.022c0,0.824,0.088,1.533,0.26,2.121c0.176,0.589,0.417,1.073,0.723,1.452
		c0.305,0.381,0.667,0.66,1.083,0.84c0.418,0.183,0.875,0.272,1.366,0.272c0.461,0,0.899-0.094,1.313-0.284
		c0.413-0.19,0.775-0.477,1.083-0.864c0.313-0.389,0.557-0.874,0.735-1.459c0.179-0.587,0.267-1.278,0.267-2.078
		c0-0.774-0.091-1.455-0.273-2.036c-0.184-0.58-0.43-1.063-0.739-1.445c-0.309-0.383-0.67-0.673-1.079-0.865
		c-0.41-0.195-0.846-0.292-1.307-0.292C29.297,22.286,28.844,22.382,28.429,22.577 M28.238,25.596
		c0.083-0.371,0.202-0.675,0.351-0.91c0.15-0.234,0.327-0.412,0.526-0.524c0.198-0.114,0.417-0.171,0.656-0.171
		c0.228,0,0.445,0.057,0.643,0.171c0.199,0.113,0.373,0.29,0.518,0.524c0.149,0.235,0.264,0.537,0.347,0.902
		c0.083,0.366,0.125,0.808,0.125,1.321c0,0.529-0.042,0.984-0.125,1.365c-0.083,0.377-0.197,0.689-0.339,0.935
		c-0.145,0.243-0.316,0.422-0.514,0.536c-0.199,0.113-0.414,0.172-0.644,0.172c-0.254,0-0.482-0.057-0.686-0.166
		c-0.202-0.108-0.378-0.284-0.524-0.524c-0.146-0.24-0.261-0.549-0.339-0.935c-0.08-0.383-0.12-0.842-0.12-1.383
		C28.112,26.404,28.155,25.966,28.238,25.596 M22.472,21.933c-0.15,0.117-0.338,0.283-0.561,0.498
		c-0.222,0.215-0.458,0.468-0.714,0.758c-0.255,0.291-0.509,0.621-0.758,0.99c-0.251,0.372-0.477,0.77-0.673,1.195
		c-0.199,0.424-0.363,0.881-0.489,1.365c-0.127,0.483-0.191,0.987-0.191,1.509c0,0.412,0.076,0.821,0.225,1.225
		c0.153,0.404,0.376,0.767,0.671,1.082c0.292,0.315,0.655,0.569,1.089,0.762c0.433,0.196,0.938,0.292,1.509,0.292
		c0.476,0,0.921-0.082,1.33-0.246c0.41-0.163,0.76-0.395,1.056-0.695c0.292-0.299,0.524-0.653,0.689-1.061
		c0.167-0.41,0.251-0.852,0.251-1.332c0-0.498-0.081-0.942-0.244-1.335c-0.163-0.391-0.377-0.724-0.645-0.995
		c-0.267-0.273-0.57-0.482-0.911-0.628c-0.343-0.141-0.692-0.213-1.051-0.213c-0.388,0-0.691,0.045-0.907,0.137
		c-0.213,0.095-0.389,0.187-0.526,0.28c0.113-0.219,0.264-0.463,0.448-0.728c0.189-0.265,0.39-0.526,0.608-0.783
		c0.221-0.257,0.445-0.5,0.682-0.734c0.234-0.23,0.457-0.422,0.674-0.573L22.472,21.933z M21.27,27.003
		c0.318-0.333,0.743-0.499,1.269-0.499c0.22,0,0.438,0.042,0.64,0.126c0.202,0.086,0.381,0.204,0.533,0.36
		c0.152,0.156,0.272,0.344,0.359,0.562c0.087,0.222,0.133,0.469,0.133,0.747c0,0.227-0.044,0.441-0.127,0.649
		c-0.084,0.208-0.196,0.393-0.341,0.556c-0.143,0.164-0.315,0.293-0.515,0.392c-0.2,0.095-0.412,0.144-0.636,0.144
		c-0.286,0-0.541-0.048-0.764-0.144c-0.223-0.099-0.411-0.227-0.564-0.387c-0.151-0.159-0.267-0.342-0.344-0.548
		c-0.081-0.206-0.123-0.419-0.123-0.638C20.79,27.777,20.949,27.336,21.27,27.003 M14.102,24.647
		c0.04-0.059,0.093-0.131,0.154-0.216c0.064-0.083,0.146-0.163,0.245-0.24c0.102-0.073,0.216-0.138,0.346-0.195
		c0.131-0.056,0.29-0.083,0.472-0.083c0.166,0,0.317,0.031,0.446,0.09c0.131,0.059,0.244,0.138,0.334,0.24
		c0.091,0.102,0.161,0.215,0.21,0.341c0.045,0.125,0.07,0.251,0.07,0.379c0,0.202-0.041,0.381-0.116,0.537
		c-0.073,0.155-0.176,0.301-0.307,0.437c-0.131,0.135-0.288,0.264-0.467,0.39c-0.179,0.126-0.365,0.257-0.563,0.392
		c0.095,0.026,0.251,0.071,0.469,0.137c0.217,0.069,0.438,0.172,0.663,0.312c0.223,0.139,0.419,0.323,0.59,0.556
		c0.171,0.232,0.255,0.527,0.255,0.89c0,0.177-0.031,0.346-0.088,0.506c-0.061,0.16-0.152,0.303-0.27,0.429
		c-0.118,0.125-0.273,0.225-0.465,0.297c-0.19,0.073-0.416,0.107-0.68,0.107c-0.247,0-0.463-0.042-0.655-0.125
		c-0.192-0.084-0.356-0.185-0.496-0.303c-0.139-0.118-0.257-0.249-0.356-0.387c-0.1-0.137-0.179-0.263-0.232-0.371l-1.372,0.947
		c0.061,0.135,0.172,0.31,0.328,0.526c0.154,0.212,0.362,0.422,0.625,0.624c0.263,0.201,0.582,0.375,0.959,0.523
		c0.377,0.146,0.824,0.221,1.331,0.221c0.476,0,0.909-0.075,1.298-0.221c0.389-0.148,0.724-0.35,1.002-0.613
		c0.278-0.261,0.494-0.573,0.644-0.933c0.152-0.364,0.229-0.758,0.229-1.189c0-0.327-0.059-0.619-0.175-0.876
		c-0.114-0.258-0.248-0.48-0.404-0.67c-0.156-0.189-0.316-0.339-0.483-0.448c-0.168-0.11-0.297-0.18-0.393-0.216
		c0.096-0.061,0.195-0.139,0.298-0.233c0.104-0.097,0.198-0.214,0.286-0.355c0.087-0.138,0.162-0.308,0.221-0.51
		c0.061-0.202,0.089-0.442,0.089-0.721c0-0.337-0.071-0.646-0.215-0.929c-0.141-0.282-0.336-0.528-0.578-0.739
		c-0.244-0.21-0.521-0.373-0.834-0.491c-0.314-0.119-0.642-0.178-0.984-0.178c-0.447,0-0.828,0.059-1.144,0.178
		c-0.321,0.118-0.587,0.256-0.809,0.421c-0.216,0.165-0.391,0.331-0.518,0.5c-0.125,0.169-0.221,0.303-0.286,0.407L14.102,24.647z"
		/>
</g>
</svg>
