<?xml version="1.0" encoding="utf-8"?>
<!-- Generator: Adobe Illustrator 21.0.0, SVG Export Plug-In . SVG Version: 6.00 Build 0)  -->
<svg version="1.1" id="Calque_1" xmlns="http://www.w3.org/2000/svg" xmlns:xlink="http://www.w3.org/1999/xlink" x="0px" y="0px"
	 viewBox="0 0 48 48" enable-background="new 0 0 48 48" xml:space="preserve">
<g>
	<path fill="#00A5E8" d="M48,36.763C48,42.969,42.969,48,36.764,48H11.236C5.031,48,0,42.969,0,36.763V11.237
		C0,5.031,5.031,0,11.236,0h25.527C42.969,0,48,5.031,48,11.237V36.763z M46,11.237C46,6.135,41.865,2,36.764,2H11.236
		C6.135,2,2,6.135,2,11.237v25.526C2,41.865,6.135,46,11.236,46h25.527C41.865,46,46,41.865,46,36.763V11.237z"/>
</g>
<g>
	<path fill="#00A5E8" d="M15.121,43.444c0.088,0.051,0.199,0.094,0.283,0.152c0.032,0.012,0.075,0.033,0.106,0.046
		c0.007,0,0.054,0.011,0.062,0.012c0.072,0.013,0.04,0.003,0.09,0.021c-0.025-0.001,0.179,0.037,0.179,0.037
		c0.011,0.004,0.103,0.034,0.114,0.038c0-0.005,0.031,0.019,0.03,0.013c0.44,0.175,1.046,0.345,1.884,0.501
		c1.747,0.325,4.066,0.504,6.526,0.504c2.462,0,4.78-0.179,6.527-0.504c0.838-0.156,1.445-0.327,1.884-0.501
		c0.015,0.001,0.089-0.029,0.089-0.029c0.028-0.004,0.053-0.014,0.119-0.025c0.046-0.025,0.104-0.043,0.164-0.052
		c0.042-0.008,0.213-0.063,0.266-0.068c0.03-0.021,0.12-0.066,0.202-0.082c0.028-0.134,0.075-0.248,0.107-0.321
		c0.013-0.006,0.021-0.061,0.031-0.074c0.007-0.001,0.015-0.024,0.016-0.034c0.015-0.077,0.004-0.035,0.027-0.101
		c0.01-0.112,0.061-0.246,0.108-0.376c0.001-0.058,0.036-0.102,0.054-0.156c0.004-0.045,0.017-0.063,0.031-0.105
		c-0.008,0.001,0.025-0.075,0.018-0.074c1.974-8.024,1.976-16.469,0.007-24.495c-0.024-0.061-0.038-0.128-0.039-0.195
		c-0.021-0.066-0.03-0.137-0.025-0.208c-0.104-0.206-0.209-0.412-0.306-0.622c-0.024-0.052-0.041-0.109-0.05-0.163
		c-0.019-0.018-0.036-0.038-0.052-0.059c-0.02-0.005-0.037-0.013-0.055-0.021c-0.017-0.003-0.032-0.01-0.048-0.015
		c-0.131-0.002-0.236-0.045-0.314-0.112c-0.031-0.017-0.06-0.035-0.084-0.059c-0.008-0.003-0.017-0.004-0.024-0.008
		c-0.095-0.003-0.176-0.028-0.242-0.069c-0.439-0.175-1.046-0.345-1.884-0.502c-1.748-0.324-4.066-0.504-6.527-0.504
		c-2.461,0-4.779,0.18-6.527,0.504c-0.837,0.157-2.505,0.627-2.944,0.802l-0.172,1.199c-1.961,7.973-1.975,16.361-0.044,24.34
		c0.017,0.035,0.027,0.071,0.037,0.108 M15.678,17.357c0.072-0.135,0.658-0.529,2.586-0.861c1.668-0.288,3.846-0.447,6.131-0.447
		c2.286,0,4.464,0.159,6.132,0.447c1.927,0.332,2.513,0.726,2.586,0.861v0.001c0,0.009,0.105,0.453,0.15,0.637
		c-0.481-0.194-1.182-0.388-2.209-0.563c-1.803-0.308-4.168-0.478-6.659-0.478c-2.489,0-4.852,0.17-6.655,0.478
		c-1.029,0.176-1.731,0.37-2.212,0.563C15.574,17.81,15.678,17.357,15.678,17.357z M33.114,42.646
		c-0.073,0.133-0.659,0.527-2.586,0.86c-1.668,0.288-3.846,0.446-6.132,0.446c-2.285,0-4.463-0.158-6.131-0.446
		c-1.928-0.333-2.514-0.727-2.586-0.86c0-0.001-0.104-0.454-0.15-0.639c0.481,0.195,1.182,0.388,2.209,0.563
		c1.803,0.308,4.168,0.478,6.658,0.478c2.489,0,4.853-0.17,6.656-0.478c1.029-0.175,1.73-0.369,2.211-0.564
		C33.218,42.193,33.114,42.646,33.114,42.646z M33.518,40.916c-0.068,0.132-0.683,0.536-2.726,0.872
		c-1.744,0.287-4.014,0.446-6.397,0.446c-2.381,0-4.652-0.16-6.395-0.445c-2.059-0.339-2.667-0.747-2.726-0.868
		c-0.001-0.001-0.001-0.001-0.001-0.001c-1.587-7.176-1.586-14.659,0-21.835c0.071-0.132,0.687-0.535,2.725-0.871
		c1.743-0.286,4.015-0.444,6.396-0.444c2.383,0,4.653,0.158,6.397,0.444c2.054,0.338,2.664,0.744,2.724,0.866
		C35.103,26.257,35.104,33.74,33.518,40.916z"/>
	<polygon fill="#00A5E8" points="15.631,26.324 23.071,36.106 26.129,36.106 33.161,26.324 	"/>
</g>
<g>
	<path fill="#00A5E8" d="M8.318,5.912c0.142-0.03,0.298-0.058,0.471-0.083C8.936,5.805,9.11,5.783,9.31,5.765
		c0.2-0.019,0.417-0.028,0.651-0.028c0.43,0,0.824,0.038,1.182,0.116c0.356,0.077,0.665,0.196,0.923,0.36
		c0.259,0.163,0.459,0.369,0.6,0.618c0.142,0.25,0.212,0.547,0.212,0.892c0,0.246-0.035,0.457-0.105,0.632
		c-0.071,0.175-0.157,0.322-0.259,0.439c-0.102,0.117-0.208,0.209-0.318,0.277c-0.111,0.067-0.207,0.117-0.287,0.148
		c0.086,0.013,0.2,0.041,0.342,0.087c0.141,0.046,0.28,0.125,0.415,0.235c0.136,0.111,0.252,0.261,0.351,0.448
		c0.099,0.188,0.148,0.429,0.148,0.725c0,0.333-0.083,0.616-0.249,0.85c-0.167,0.234-0.387,0.423-0.661,0.568
		c-0.274,0.145-0.586,0.251-0.937,0.318c-0.351,0.067-0.714,0.102-1.089,0.102c-0.247,0-0.479-0.009-0.697-0.028
		c-0.219-0.018-0.413-0.038-0.582-0.059c-0.169-0.022-0.31-0.043-0.42-0.065c-0.11-0.021-0.182-0.036-0.212-0.042V5.912z
		 M10.22,6.817c-0.209,0-0.355,0.008-0.439,0.023C9.698,6.856,9.65,6.866,9.638,6.873v1.911c0.031,0,0.06,0.002,0.088,0.005
		c0.028,0.003,0.061,0.006,0.097,0.009C9.86,8.801,9.909,8.802,9.97,8.802c0.061,0,0.145,0,0.249,0c0.185,0,0.365-0.02,0.54-0.06
		c0.175-0.04,0.331-0.102,0.466-0.185c0.136-0.083,0.245-0.188,0.328-0.313c0.083-0.127,0.125-0.275,0.125-0.448
		c0-0.166-0.041-0.311-0.125-0.434c-0.083-0.123-0.194-0.225-0.333-0.305c-0.138-0.08-0.295-0.14-0.471-0.18
		C10.575,6.837,10.398,6.817,10.22,6.817z M10.376,9.744c-0.215,0-0.381,0.006-0.499,0.018C9.761,9.774,9.681,9.784,9.638,9.79
		v1.569c0.074,0.012,0.151,0.025,0.231,0.037c0.068,0.012,0.146,0.021,0.236,0.023c0.089,0.003,0.18,0.005,0.272,0.005
		c0.204,0,0.396-0.014,0.577-0.042c0.182-0.027,0.341-0.072,0.48-0.134c0.139-0.061,0.25-0.144,0.332-0.249
		c0.083-0.105,0.125-0.237,0.125-0.398c0-0.154-0.042-0.286-0.129-0.397c-0.086-0.111-0.2-0.2-0.341-0.268
		c-0.142-0.067-0.304-0.117-0.485-0.148C10.753,9.759,10.567,9.744,10.376,9.744z"/>
	<path fill="#00A5E8" d="M15.168,5.876v5.364h2.567l-0.148,1.182h-3.739V5.876H15.168z"/>
	<path fill="#00A5E8" d="M19.49,5.876v6.546h-1.32V5.876H19.49z"/>
	<path fill="#00A5E8" d="M22.685,5.737c0.283,0,0.551,0.032,0.803,0.097c0.252,0.064,0.477,0.14,0.674,0.226
		c0.197,0.087,0.36,0.171,0.489,0.254c0.129,0.082,0.215,0.14,0.259,0.171L24.3,7.546c-0.234-0.178-0.486-0.328-0.757-0.447
		c-0.271-0.12-0.598-0.181-0.979-0.181c-0.295,0-0.534,0.059-0.715,0.175c-0.182,0.117-0.272,0.286-0.272,0.508
		c0,0.178,0.077,0.315,0.231,0.411c0.154,0.095,0.349,0.178,0.586,0.249c0.237,0.071,0.5,0.146,0.79,0.226
		c0.289,0.08,0.569,0.194,0.84,0.342c0.326,0.179,0.577,0.396,0.753,0.651c0.176,0.255,0.263,0.583,0.263,0.983
		c0,0.314-0.059,0.6-0.175,0.858c-0.117,0.259-0.285,0.479-0.503,0.661c-0.219,0.181-0.485,0.322-0.798,0.419
		c-0.314,0.099-0.671,0.148-1.071,0.148c-0.29,0-0.562-0.032-0.817-0.097c-0.255-0.064-0.486-0.141-0.692-0.231
		c-0.207-0.089-0.388-0.181-0.545-0.277c-0.157-0.095-0.279-0.177-0.365-0.245l0.655-1.108c0.019,0.019,0.079,0.068,0.18,0.148
		c0.102,0.08,0.232,0.163,0.388,0.249c0.157,0.087,0.342,0.164,0.555,0.231c0.212,0.068,0.439,0.102,0.679,0.102
		c0.75,0,1.126-0.243,1.126-0.729c0-0.209-0.076-0.369-0.227-0.48c-0.151-0.111-0.342-0.206-0.573-0.286
		c-0.231-0.08-0.487-0.159-0.771-0.236c-0.283-0.077-0.557-0.183-0.821-0.318c-0.209-0.104-0.382-0.213-0.517-0.328
		c-0.136-0.114-0.243-0.234-0.323-0.36c-0.08-0.125-0.135-0.26-0.167-0.401c-0.03-0.141-0.046-0.293-0.046-0.452
		c0-0.339,0.066-0.632,0.199-0.882c0.132-0.249,0.313-0.457,0.54-0.623c0.228-0.167,0.491-0.289,0.79-0.369
		C22.037,5.777,22.352,5.737,22.685,5.737z"/>
	<path fill="#00A5E8" d="M30.081,5.876l-0.167,1.182h-1.616v5.364h-1.32V7.057h-1.819l0.167-1.182H30.081z"/>
	<path fill="#00A5E8" d="M34.466,5.866l0.139,1.183h-2.743v1.874H34.3l-0.13,1.145h-2.308v1.173h3.057l-0.204,1.182h-4.173V5.866
		H34.466z"/>
	<path fill="#00A5E8" d="M35.454,5.894c0.098-0.018,0.281-0.05,0.549-0.092c0.269-0.043,0.617-0.065,1.048-0.065
		c0.363,0,0.722,0.043,1.076,0.129c0.354,0.086,0.671,0.225,0.951,0.416c0.28,0.19,0.507,0.44,0.679,0.748
		c0.172,0.308,0.258,0.683,0.258,1.126c0,0.301-0.053,0.56-0.157,0.775c-0.105,0.215-0.225,0.396-0.36,0.54
		c-0.136,0.145-0.269,0.257-0.401,0.337c-0.133,0.08-0.229,0.132-0.291,0.157l1.671,1.985l-1.2,0.619l-2.503-3.223v3.075h-1.32
		V5.894z M37.106,6.928c-0.055,0-0.11,0.004-0.166,0.014c-0.055,0.009-0.11,0.02-0.167,0.032v2.346
		c0.075,0.012,0.146,0.019,0.218,0.019c0.07,0,0.143,0,0.217,0c0.153,0,0.314-0.022,0.48-0.065c0.166-0.042,0.319-0.111,0.457-0.203
		c0.138-0.093,0.252-0.212,0.342-0.36c0.089-0.148,0.133-0.33,0.133-0.545c0-0.24-0.047-0.44-0.143-0.6
		c-0.095-0.16-0.217-0.288-0.364-0.383c-0.148-0.095-0.311-0.162-0.489-0.198C37.445,6.946,37.272,6.928,37.106,6.928z"/>
</g>
</svg>
