<?xml version="1.0" encoding="utf-8"?>
<!-- Generator: Adobe Illustrator 16.0.0, SVG Export Plug-In . SVG Version: 6.00 Build 0)  -->
<!DOCTYPE svg PUBLIC "-//W3C//DTD SVG 1.1//EN" "http://www.w3.org/Graphics/SVG/1.1/DTD/svg11.dtd">
<svg version="1.1" id="Calque_1" xmlns="http://www.w3.org/2000/svg" xmlns:xlink="http://www.w3.org/1999/xlink" x="0px" y="0px"
	 width="48px" height="48px" viewBox="0 0 48 48" enable-background="new 0 0 48 48" xml:space="preserve">
<g>
	<path fill="#00517D" d="M36.763,48H11.237C5.041,48,0,42.959,0,36.763V11.237C0,5.041,5.041,0,11.237,0h25.525
		C42.959,0,48,5.041,48,11.237v25.526C48,42.959,42.959,48,36.763,48z M11.237,2C6.144,2,2,6.144,2,11.237v25.526
		C2,41.856,6.144,46,11.237,46h25.525C41.856,46,46,41.856,46,36.763V11.237C46,6.144,41.856,2,36.763,2H11.237z"/>
	<g>
		<path fill="#005480" d="M37.563,16.46h-3.718c-0.821,0-1.487-0.665-1.487-1.486c0-0.82,0.666-1.485,1.487-1.485h3.718
			c0.822,0,1.487,0.665,1.487,1.485C39.051,15.795,38.385,16.46,37.563,16.46 M37.563,20.917h-3.718
			c-0.821,0-1.487-0.663-1.487-1.482c0-0.822,0.666-1.489,1.487-1.489h3.718c0.822,0,1.487,0.667,1.487,1.489
			C39.051,20.254,38.385,20.917,37.563,20.917 M37.563,29.836c0,0.82-0.666,1.485-1.486,1.485h-0.743
			c-0.824,0-1.489-0.665-1.489-1.485v-0.743c0-0.821,0.665-1.486,1.489-1.486h0.743c0.821,0,1.486,0.666,1.486,1.486V29.836z
			 M30.87,12.747v9.659H13.022c-0.823,0-1.488-0.666-1.488-1.489V10.515c0-0.82,0.665-1.486,1.488-1.486h19.335
			c0.821,0,1.487,0.666,1.487,1.486v0.744h-1.487C31.538,11.259,30.87,11.925,30.87,12.747 M39.051,11.259H36.82V9.772
			c0-1.641-1.331-2.973-2.975-2.973H11.535c-1.643,0-2.977,1.332-2.977,2.973v12.634c0,1.641,1.333,2.972,2.977,2.972h8.923v2.884
			c-2.763,0.281-4.77,1.122-4.77,2.123c0,1.222,3.022,2.215,6.755,2.215c3.73,0,6.752-0.993,6.752-2.215
			c0-1.031-2.129-1.893-5.02-2.146v-2.86h6.693v6.688c0,0.821,0.667,1.488,1.488,1.488h6.693c0.823,0,1.487-0.667,1.487-1.488
			V12.747C40.538,11.925,39.874,11.259,39.051,11.259"/>
	</g>
	<g>
		<path fill="#005480" d="M19.163,12.8c-0.212,0-0.359,0.004-0.443,0.012c-0.085,0.01-0.145,0.022-0.178,0.038v3.268
			c0.033,0.016,0.084,0.032,0.159,0.039c0.07,0.008,0.217,0.012,0.438,0.012c0.252,0,0.511-0.028,0.771-0.087
			c0.262-0.059,0.5-0.154,0.715-0.283c0.217-0.129,0.395-0.299,0.535-0.509c0.139-0.209,0.208-0.469,0.208-0.779
			c0-0.326-0.067-0.602-0.203-0.824c-0.134-0.224-0.306-0.398-0.519-0.529c-0.21-0.128-0.449-0.22-0.709-0.274
			C19.674,12.829,19.415,12.8,19.163,12.8 M16.736,11.452c0.102-0.026,0.33-0.073,0.687-0.14c0.359-0.067,0.803-0.1,1.332-0.1
			c0.588,0,1.15,0.056,1.685,0.175c0.534,0.119,1.001,0.311,1.405,0.574c0.405,0.265,0.726,0.607,0.966,1.028
			c0.239,0.421,0.36,0.929,0.36,1.527c0,0.605-0.124,1.114-0.365,1.527c-0.245,0.412-0.559,0.742-0.94,0.991
			c-0.383,0.248-0.815,0.426-1.295,0.535c-0.479,0.107-0.954,0.163-1.425,0.163c-0.201,0-0.404-0.012-0.604-0.037v2.648h-1.805
			V11.452z"/>
		<path fill="#005480" d="M28.342,11.211c0.565,0,1.052,0.063,1.47,0.189c0.415,0.127,0.762,0.266,1.042,0.416
			c0.277,0.151,0.484,0.291,0.623,0.417c0.141,0.127,0.214,0.193,0.223,0.203l-1.011,1.387c-0.024-0.016-0.091-0.074-0.195-0.171
			c-0.104-0.096-0.252-0.197-0.441-0.302s-0.417-0.199-0.686-0.283c-0.271-0.087-0.578-0.128-0.922-0.128
			c-0.404,0-0.774,0.072-1.116,0.216c-0.341,0.142-0.637,0.34-0.888,0.593c-0.253,0.25-0.452,0.552-0.594,0.899
			c-0.142,0.35-0.214,0.736-0.214,1.156c0,0.438,0.072,0.841,0.214,1.211c0.142,0.369,0.341,0.687,0.594,0.952
			c0.251,0.266,0.547,0.47,0.888,0.618c0.342,0.147,0.712,0.221,1.116,0.221c0.386,0,0.725-0.044,1.016-0.132
			c0.29-0.089,0.534-0.192,0.734-0.309c0.196-0.118,0.352-0.229,0.465-0.336c0.114-0.105,0.188-0.178,0.221-0.221l1.01,1.401
			c-0.035,0.025-0.131,0.11-0.289,0.252c-0.163,0.144-0.385,0.292-0.677,0.448c-0.29,0.155-0.649,0.297-1.078,0.423
			c-0.429,0.125-0.934,0.189-1.516,0.189c-0.621,0-1.212-0.109-1.771-0.321c-0.559-0.214-1.047-0.524-1.465-0.928
			c-0.415-0.404-0.745-0.895-0.988-1.477c-0.247-0.581-0.368-1.236-0.368-1.968c0-0.664,0.118-1.278,0.354-1.841
			s0.556-1.052,0.965-1.464c0.41-0.413,0.894-0.734,1.457-0.966C27.076,11.326,27.686,11.211,28.342,11.211"/>
		<path fill="#005480" d="M11.778,42.3h-1.326v-5.198h1.326V42.3z M10.303,35.594c0-0.225,0.08-0.417,0.237-0.57
			c0.156-0.154,0.348-0.231,0.576-0.231c0.221,0,0.409,0.075,0.568,0.226c0.155,0.15,0.236,0.342,0.236,0.576
			c0,0.236-0.081,0.429-0.241,0.578c-0.163,0.151-0.349,0.226-0.563,0.226c-0.22,0-0.412-0.075-0.573-0.226
			C10.383,36.023,10.303,35.83,10.303,35.594"/>
		<path fill="#005480" d="M17.409,42.301h-1.326v-3.124c0-0.327-0.088-0.581-0.271-0.757c-0.181-0.177-0.472-0.266-0.873-0.266
			c-0.268,0-0.459,0.01-0.578,0.029c-0.117,0.021-0.219,0.048-0.305,0.082v4.036h-1.325v-4.238c0-0.146-0.002-0.257-0.005-0.333
			c-0.004-0.078-0.011-0.137-0.021-0.175c-0.009-0.041-0.026-0.073-0.05-0.096c-0.023-0.024-0.052-0.063-0.084-0.116
			c0.1-0.033,0.217-0.072,0.35-0.116c0.134-0.043,0.297-0.084,0.487-0.125c0.19-0.04,0.417-0.074,0.677-0.102
			c0.26-0.026,0.569-0.039,0.924-0.039c0.361,0,0.689,0.042,0.985,0.131c0.293,0.086,0.544,0.219,0.756,0.397
			c0.211,0.176,0.373,0.398,0.486,0.665c0.114,0.267,0.171,0.583,0.171,0.944V42.301z"/>
		<path fill="#005480" d="M20.069,35.585v1.516h1.645v1.145h-1.645v2.369c0,0.059,0.005,0.126,0.02,0.2
			c0.013,0.075,0.044,0.144,0.089,0.207c0.048,0.064,0.113,0.115,0.197,0.155c0.082,0.041,0.193,0.059,0.326,0.059
			c0.127,0,0.235-0.015,0.325-0.043c0.091-0.03,0.17-0.064,0.237-0.101c0.065-0.037,0.12-0.075,0.155-0.115
			c0.037-0.042,0.061-0.071,0.075-0.091l0.671,0.943c-0.02,0.021-0.067,0.066-0.139,0.132c-0.074,0.066-0.178,0.135-0.317,0.204
			c-0.137,0.07-0.31,0.134-0.517,0.191c-0.208,0.057-0.452,0.086-0.732,0.086c-0.334,0-0.61-0.05-0.829-0.152
			c-0.216-0.098-0.391-0.227-0.526-0.379c-0.133-0.156-0.228-0.331-0.282-0.523c-0.053-0.193-0.08-0.38-0.08-0.561v-2.58H17.84
			v-1.145h0.903v-1.516H20.069z"/>
		<path fill="#005480" d="M24.032,35.987l1.718-1.174l0.371,0.623l-1.858,0.953L24.032,35.987z M26.371,39.059
			c-0.006-0.041-0.032-0.114-0.074-0.226c-0.046-0.111-0.116-0.223-0.216-0.337c-0.1-0.113-0.238-0.213-0.412-0.3
			c-0.172-0.086-0.396-0.131-0.662-0.131c-0.267,0-0.487,0.041-0.656,0.121c-0.173,0.08-0.311,0.174-0.418,0.282
			c-0.107,0.107-0.183,0.214-0.231,0.324c-0.047,0.112-0.079,0.201-0.099,0.268H26.371z M27.636,39.812c0,0.033,0,0.063-0.002,0.094
			c-0.006,0.032-0.008,0.062-0.008,0.096h-4.043c0.005,0.074,0.033,0.185,0.083,0.331c0.053,0.147,0.135,0.292,0.251,0.437
			c0.119,0.143,0.278,0.272,0.479,0.381c0.2,0.11,0.459,0.166,0.772,0.166c0.227,0,0.428-0.031,0.597-0.09
			c0.17-0.061,0.314-0.127,0.433-0.201c0.117-0.073,0.207-0.146,0.265-0.217c0.062-0.07,0.097-0.111,0.112-0.124l0.834,0.732
			c-0.042,0.052-0.111,0.136-0.207,0.247c-0.097,0.11-0.238,0.222-0.422,0.341c-0.183,0.116-0.416,0.22-0.698,0.304
			c-0.28,0.089-0.626,0.132-1.034,0.132c-0.396,0-0.764-0.066-1.109-0.202c-0.345-0.133-0.643-0.32-0.893-0.561
			c-0.25-0.241-0.448-0.53-0.593-0.87c-0.144-0.335-0.214-0.714-0.214-1.129c0-0.394,0.067-0.759,0.205-1.093
			c0.136-0.334,0.328-0.622,0.572-0.863c0.245-0.241,0.534-0.429,0.868-0.562c0.336-0.135,0.696-0.201,1.086-0.201
			c0.439,0,0.83,0.076,1.164,0.227c0.333,0.151,0.614,0.356,0.837,0.618c0.224,0.26,0.391,0.562,0.502,0.907
			C27.583,39.058,27.636,39.425,27.636,39.812"/>
		<path fill="#005480" d="M30.886,41.186c0.362,0,0.648-0.079,0.855-0.235c0.205-0.156,0.311-0.352,0.311-0.583v-2
			c-0.041-0.035-0.145-0.066-0.311-0.098c-0.168-0.027-0.403-0.044-0.702-0.044c-0.194,0-0.384,0.031-0.567,0.095
			c-0.184,0.064-0.351,0.16-0.496,0.286c-0.149,0.127-0.267,0.288-0.356,0.48c-0.092,0.192-0.137,0.416-0.137,0.669
			c0,0.22,0.036,0.419,0.115,0.594c0.076,0.178,0.179,0.329,0.306,0.451c0.126,0.124,0.275,0.22,0.448,0.287
			C30.521,41.152,30.7,41.186,30.886,41.186 M30.778,44.669c-0.281,0-0.54-0.023-0.779-0.07c-0.237-0.047-0.445-0.101-0.621-0.162
			c-0.179-0.06-0.32-0.117-0.427-0.175c-0.107-0.057-0.173-0.092-0.202-0.106l0.523-1.075c0.014,0.015,0.055,0.042,0.125,0.087
			c0.07,0.042,0.167,0.091,0.292,0.145c0.122,0.054,0.276,0.101,0.46,0.141c0.186,0.04,0.399,0.061,0.648,0.061
			c0.489,0,0.834-0.103,1.038-0.308c0.204-0.202,0.306-0.474,0.306-0.807V41.97c-0.011,0.014-0.054,0.043-0.121,0.091
			c-0.066,0.046-0.159,0.098-0.28,0.156c-0.122,0.057-0.268,0.105-0.443,0.151c-0.173,0.042-0.37,0.063-0.59,0.063
			c-0.356,0-0.689-0.06-0.999-0.184c-0.312-0.125-0.582-0.305-0.814-0.542c-0.232-0.238-0.415-0.525-0.551-0.863
			c-0.139-0.338-0.206-0.719-0.206-1.141c0-0.355,0.073-0.694,0.221-1.022c0.147-0.327,0.354-0.619,0.62-0.874
			c0.269-0.253,0.591-0.457,0.97-0.613c0.377-0.153,0.798-0.23,1.261-0.23c0.347,0,0.648,0.014,0.903,0.045
			c0.254,0.029,0.472,0.064,0.657,0.105c0.185,0.039,0.336,0.084,0.456,0.131c0.121,0.047,0.221,0.087,0.302,0.12
			c-0.028,0.026-0.047,0.053-0.065,0.074c-0.019,0.024-0.032,0.06-0.045,0.107c-0.014,0.047-0.023,0.115-0.032,0.204
			c-0.005,0.092-0.008,0.215-0.008,0.37v4.415c0,0.254-0.042,0.509-0.126,0.763c-0.085,0.254-0.228,0.483-0.426,0.686
			c-0.202,0.206-0.471,0.373-0.805,0.499C31.689,44.604,31.271,44.669,30.778,44.669"/>
		<path fill="#005480" d="M35.564,37.102v1.045c0.034-0.141,0.092-0.28,0.175-0.419c0.084-0.136,0.194-0.261,0.326-0.375
			c0.133-0.115,0.292-0.205,0.473-0.277c0.181-0.069,0.381-0.104,0.601-0.104c0.062,0,0.123-0.001,0.188-0.005
			c0.062-0.004,0.125,0.001,0.187,0.016l-0.092,1.274c-0.033,0-0.061-0.001-0.084-0.004c-0.024-0.004-0.049-0.005-0.078-0.005
			c-0.239,0-0.455,0.018-0.65,0.054c-0.195,0.038-0.362,0.098-0.5,0.181c-0.141,0.084-0.251,0.198-0.329,0.342
			c-0.075,0.144-0.114,0.326-0.114,0.546v2.93h-1.334v-5.198H35.564z"/>
		<path fill="#005480" d="M39.561,35.987l1.715-1.174l0.373,0.623l-1.858,0.953L39.561,35.987z M41.899,39.059
			c-0.008-0.041-0.034-0.114-0.075-0.226c-0.044-0.111-0.117-0.223-0.217-0.337c-0.1-0.113-0.236-0.213-0.412-0.3
			c-0.172-0.086-0.395-0.131-0.662-0.131c-0.267,0-0.487,0.041-0.657,0.121c-0.17,0.08-0.31,0.174-0.417,0.282
			c-0.105,0.107-0.184,0.214-0.231,0.324c-0.046,0.112-0.077,0.201-0.1,0.268H41.899z M43.163,39.812
			c0,0.033-0.001,0.063-0.004,0.094c-0.004,0.032-0.007,0.062-0.007,0.096h-4.044c0.006,0.074,0.035,0.185,0.084,0.331
			c0.051,0.147,0.136,0.292,0.251,0.437c0.119,0.143,0.276,0.272,0.478,0.381c0.2,0.11,0.458,0.166,0.773,0.166
			c0.227,0,0.425-0.031,0.596-0.09c0.171-0.061,0.314-0.127,0.432-0.201c0.116-0.073,0.207-0.146,0.267-0.217
			c0.059-0.07,0.097-0.111,0.111-0.124l0.832,0.732c-0.038,0.052-0.109,0.136-0.205,0.247c-0.096,0.11-0.237,0.222-0.421,0.341
			c-0.183,0.116-0.417,0.22-0.698,0.304c-0.281,0.089-0.626,0.132-1.031,0.132c-0.399,0-0.767-0.066-1.111-0.202
			c-0.345-0.133-0.643-0.32-0.894-0.561c-0.252-0.241-0.45-0.53-0.594-0.87c-0.143-0.335-0.214-0.714-0.214-1.129
			c0-0.394,0.068-0.759,0.206-1.093c0.136-0.334,0.327-0.622,0.572-0.863c0.244-0.241,0.533-0.429,0.866-0.562
			c0.336-0.135,0.695-0.201,1.084-0.201c0.441,0,0.83,0.076,1.164,0.227c0.334,0.151,0.615,0.356,0.838,0.618
			c0.226,0.26,0.391,0.562,0.503,0.907C43.109,39.058,43.163,39.425,43.163,39.812"/>
	</g>
</g>
</svg>
