<?xml version="1.0" encoding="utf-8"?>
<!-- Generator: Adobe Illustrator 16.0.0, SVG Export Plug-In . SVG Version: 6.00 Build 0)  -->
<!DOCTYPE svg PUBLIC "-//W3C//DTD SVG 1.1//EN" "http://www.w3.org/Graphics/SVG/1.1/DTD/svg11.dtd">
<svg version="1.1" id="Calque_1" xmlns="http://www.w3.org/2000/svg" xmlns:xlink="http://www.w3.org/1999/xlink" x="0px" y="0px"
	 width="48px" height="48px" viewBox="0 0 48 48" enable-background="new 0 0 48 48" xml:space="preserve">
<path fill="#00517D" d="M48,36.764C48,42.969,42.97,48,36.764,48H11.236C5.03,48,0,42.969,0,36.764V11.236C0,5.031,5.03,0,11.236,0
	h25.528C42.97,0,48,5.031,48,11.236V36.764z M46,11.236C46,6.135,41.865,2,36.764,2H11.236C6.135,2,2,6.135,2,11.236v25.527
	C2,41.865,6.135,46,11.236,46h25.527C41.865,46,46,41.865,46,36.764V11.236z"/>
<g>
	<path fill="#005480" d="M34.313,34.984l6.493-6.523c0.265-0.266,0.075-0.721-0.302-0.721h-0.516c-0.355,0-0.555-0.407-0.332-0.685
		l3.443-4.341c0.218-0.277,0.021-0.685-0.332-0.685h-1.731c-0.351,0-0.548-0.398-0.341-0.677l4.4-5.851
		c0.211-0.278,0.012-0.676-0.338-0.676h-6.957c-0.162,0-0.309,0.093-0.379,0.234l-3.401,6.88c-0.14,0.282,0.067,0.612,0.379,0.612
		h1.568c0.313,0,0.518,0.33,0.377,0.611l-2.324,4.706c-0.14,0.279,0.067,0.609,0.379,0.609h1.478c0.312,0,0.515,0.326,0.379,0.606
		l-2.626,5.419C33.422,34.93,33.977,35.321,34.313,34.984"/>
</g>
<g>
	<path fill="#005480" d="M4.407,16.496c0.177,0,0.332,0.021,0.463,0.06c0.131,0.04,0.24,0.084,0.329,0.13
		c0.086,0.048,0.152,0.093,0.195,0.134c0.045,0.038,0.067,0.062,0.07,0.064L5.147,17.32c-0.009-0.005-0.028-0.022-0.063-0.054
		c-0.034-0.029-0.08-0.062-0.139-0.096c-0.06-0.032-0.133-0.063-0.217-0.089c-0.084-0.026-0.182-0.039-0.291-0.039
		c-0.128,0-0.244,0.022-0.352,0.067c-0.107,0.044-0.201,0.107-0.279,0.188c-0.08,0.079-0.144,0.173-0.188,0.284
		c-0.045,0.11-0.067,0.232-0.067,0.364c0,0.14,0.022,0.265,0.067,0.382c0.044,0.117,0.108,0.216,0.188,0.301
		c0.079,0.083,0.172,0.146,0.279,0.195c0.108,0.046,0.224,0.068,0.352,0.068c0.122,0,0.229-0.013,0.32-0.041
		c0.093-0.028,0.168-0.06,0.231-0.098c0.062-0.038,0.112-0.071,0.147-0.106c0.036-0.033,0.059-0.056,0.069-0.069l0.319,0.441
		c-0.011,0.009-0.041,0.034-0.092,0.08c-0.05,0.044-0.122,0.092-0.214,0.141c-0.091,0.05-0.205,0.095-0.338,0.134
		c-0.137,0.039-0.295,0.059-0.479,0.059c-0.196,0-0.382-0.032-0.559-0.101s-0.33-0.165-0.461-0.293
		c-0.131-0.127-0.236-0.282-0.312-0.465c-0.078-0.184-0.117-0.391-0.117-0.621c0-0.21,0.038-0.404,0.113-0.581
		C3.14,17.195,3.241,17.04,3.37,16.91c0.128-0.129,0.282-0.232,0.459-0.305C4.007,16.533,4.201,16.496,4.407,16.496"/>
	<path fill="#005480" d="M6.289,17.965c0,0.141,0.024,0.267,0.074,0.379c0.048,0.114,0.114,0.211,0.196,0.293
		c0.082,0.082,0.177,0.145,0.284,0.19c0.108,0.043,0.22,0.064,0.341,0.064c0.119,0,0.232-0.021,0.34-0.067
		c0.107-0.045,0.202-0.109,0.283-0.19c0.081-0.083,0.145-0.181,0.192-0.295C8.048,18.226,8.07,18.1,8.07,17.96
		c0-0.138-0.022-0.264-0.068-0.379c-0.048-0.113-0.111-0.209-0.192-0.289s-0.176-0.142-0.283-0.187
		c-0.107-0.042-0.222-0.064-0.344-0.064c-0.125,0-0.243,0.022-0.35,0.064c-0.109,0.045-0.204,0.107-0.285,0.187
		c-0.081,0.08-0.145,0.176-0.191,0.289C6.312,17.697,6.289,17.824,6.289,17.965 M7.18,16.496c0.207,0,0.402,0.038,0.583,0.114
		c0.182,0.075,0.338,0.179,0.475,0.31c0.132,0.13,0.239,0.287,0.314,0.466c0.079,0.179,0.116,0.372,0.116,0.579
		c0,0.206-0.038,0.399-0.118,0.577c-0.078,0.177-0.184,0.333-0.317,0.465c-0.135,0.133-0.292,0.236-0.474,0.312
		c-0.181,0.078-0.375,0.114-0.583,0.114c-0.202,0-0.39-0.036-0.569-0.107c-0.179-0.072-0.337-0.172-0.473-0.302
		c-0.135-0.127-0.242-0.282-0.322-0.462c-0.079-0.181-0.12-0.38-0.12-0.597c0-0.207,0.039-0.399,0.117-0.577
		c0.076-0.178,0.182-0.333,0.315-0.466c0.134-0.131,0.292-0.236,0.473-0.311C6.776,16.534,6.971,16.496,7.18,16.496"/>
</g>
<polygon fill="#005480" points="11.194,16.556 11.194,19.445 9.52,17.75 9.547,19.378 8.979,19.378 8.979,16.481 10.653,18.172 
	10.625,16.556 "/>
<g>
	<path fill="#005480" d="M12.586,16.496c0.123,0,0.239,0.015,0.348,0.042c0.109,0.028,0.205,0.061,0.289,0.097
		c0.086,0.038,0.157,0.075,0.212,0.11c0.056,0.037,0.093,0.061,0.111,0.075l-0.263,0.457c-0.1-0.077-0.208-0.142-0.327-0.193
		c-0.115-0.052-0.255-0.077-0.421-0.077c-0.127,0-0.23,0.024-0.307,0.074c-0.08,0.052-0.118,0.125-0.118,0.22
		c0,0.077,0.033,0.135,0.099,0.177c0.066,0.04,0.15,0.076,0.253,0.106c0.102,0.032,0.215,0.063,0.34,0.099
		c0.124,0.034,0.245,0.082,0.362,0.146c0.141,0.077,0.248,0.171,0.324,0.281c0.077,0.109,0.114,0.25,0.114,0.423
		c0,0.136-0.024,0.259-0.075,0.37c-0.051,0.112-0.123,0.208-0.218,0.285c-0.094,0.079-0.208,0.14-0.344,0.182
		c-0.136,0.041-0.289,0.063-0.461,0.063c-0.125,0-0.241-0.015-0.353-0.041c-0.11-0.028-0.211-0.062-0.299-0.1
		c-0.089-0.039-0.166-0.078-0.234-0.121c-0.068-0.039-0.12-0.075-0.157-0.104l0.282-0.479c0.009,0.008,0.035,0.03,0.078,0.064
		c0.045,0.035,0.102,0.069,0.169,0.107c0.066,0.038,0.146,0.071,0.238,0.1c0.09,0.03,0.188,0.043,0.292,0.043
		c0.323,0,0.485-0.104,0.485-0.314c0-0.09-0.033-0.158-0.097-0.206c-0.066-0.05-0.147-0.09-0.248-0.123
		c-0.099-0.035-0.209-0.069-0.333-0.103c-0.123-0.033-0.239-0.078-0.354-0.137c-0.09-0.045-0.165-0.093-0.222-0.143
		c-0.059-0.049-0.106-0.099-0.141-0.154c-0.035-0.054-0.057-0.111-0.071-0.173c-0.013-0.06-0.021-0.125-0.021-0.193
		c0-0.147,0.028-0.273,0.086-0.381c0.057-0.107,0.134-0.197,0.233-0.269c0.098-0.072,0.211-0.123,0.339-0.158
		C12.308,16.513,12.444,16.496,12.586,16.496"/>
	<path fill="#005480" d="M14.339,17.965c0,0.141,0.024,0.267,0.073,0.379c0.049,0.114,0.114,0.211,0.196,0.293
		c0.083,0.082,0.177,0.145,0.284,0.19c0.108,0.043,0.221,0.064,0.342,0.064c0.118,0,0.231-0.021,0.339-0.067
		c0.108-0.045,0.202-0.109,0.284-0.19c0.08-0.083,0.144-0.181,0.192-0.295c0.048-0.113,0.071-0.239,0.071-0.378
		c0-0.138-0.023-0.264-0.068-0.379c-0.047-0.113-0.111-0.209-0.192-0.289c-0.08-0.08-0.175-0.142-0.282-0.187
		c-0.107-0.042-0.222-0.064-0.343-0.064c-0.125,0-0.243,0.022-0.352,0.064c-0.109,0.045-0.204,0.107-0.284,0.187
		c-0.081,0.08-0.144,0.176-0.192,0.289C14.362,17.697,14.339,17.824,14.339,17.965 M15.23,16.496c0.205,0,0.401,0.038,0.582,0.114
		c0.183,0.075,0.339,0.179,0.475,0.31c0.132,0.13,0.239,0.287,0.315,0.466c0.077,0.179,0.115,0.372,0.115,0.579
		c0,0.206-0.039,0.399-0.117,0.577c-0.079,0.177-0.185,0.333-0.318,0.465c-0.134,0.133-0.291,0.236-0.474,0.312
		c-0.181,0.078-0.375,0.114-0.583,0.114c-0.202,0-0.391-0.036-0.57-0.107c-0.179-0.072-0.336-0.172-0.473-0.302
		c-0.134-0.127-0.242-0.282-0.321-0.462c-0.08-0.181-0.119-0.38-0.119-0.597c0-0.207,0.038-0.399,0.116-0.577
		c0.076-0.178,0.182-0.333,0.315-0.466c0.135-0.131,0.292-0.236,0.472-0.311C14.825,16.534,15.02,16.496,15.23,16.496"/>
</g>
<polygon fill="#005480" points="19.197,16.44 19.988,19.377 19.376,19.377 19.044,17.95 18.409,19.397 17.788,17.95 17.461,19.377 
	16.844,19.377 17.632,16.44 18.434,18.22 "/>
<polygon fill="#005480" points="22.379,16.44 23.171,19.377 22.559,19.377 22.228,17.95 21.591,19.397 20.972,17.95 20.646,19.377 
	20.028,19.377 20.816,16.44 21.616,18.22 "/>
<path fill="#005480" d="M24.541,17.578l-0.298,0.756h0.588L24.541,17.578z M24.541,16.406l1.325,2.971h-0.614L25.006,18.8h-0.927
	l-0.251,0.577H23.21L24.541,16.406z"/>
<polygon fill="#005480" points="28.034,16.556 27.961,17.064 27.266,17.064 27.266,19.378 26.698,19.378 26.698,17.064 
	25.912,17.064 25.983,16.556 "/>
<rect x="28.233" y="16.556" fill="#005480" width="0.569" height="2.821"/>
<g>
	<path fill="#005480" d="M29.702,17.965c0,0.141,0.025,0.267,0.073,0.379c0.049,0.114,0.115,0.211,0.198,0.293
		c0.082,0.082,0.176,0.145,0.283,0.19c0.108,0.043,0.221,0.064,0.342,0.064c0.118,0,0.231-0.021,0.337-0.067
		c0.109-0.045,0.204-0.109,0.286-0.19c0.078-0.083,0.143-0.181,0.19-0.295c0.05-0.113,0.073-0.239,0.073-0.378
		c0-0.138-0.022-0.264-0.07-0.379c-0.046-0.113-0.109-0.209-0.191-0.289c-0.081-0.08-0.175-0.142-0.282-0.187
		c-0.107-0.042-0.222-0.064-0.344-0.064c-0.125,0-0.242,0.022-0.352,0.064c-0.108,0.045-0.203,0.107-0.283,0.187
		c-0.082,0.08-0.144,0.176-0.192,0.289C29.724,17.697,29.702,17.824,29.702,17.965 M30.592,16.496c0.209,0,0.402,0.038,0.583,0.114
		c0.182,0.075,0.339,0.179,0.474,0.31c0.134,0.13,0.24,0.287,0.315,0.466c0.077,0.179,0.115,0.372,0.115,0.579
		c0,0.206-0.038,0.399-0.116,0.577c-0.08,0.177-0.186,0.333-0.317,0.465c-0.136,0.133-0.294,0.236-0.476,0.312
		c-0.182,0.078-0.376,0.114-0.582,0.114c-0.202,0-0.392-0.036-0.571-0.107c-0.179-0.072-0.336-0.172-0.473-0.302
		c-0.134-0.127-0.243-0.282-0.322-0.462c-0.079-0.181-0.119-0.38-0.119-0.597c0-0.207,0.037-0.399,0.116-0.577
		c0.075-0.178,0.182-0.333,0.315-0.466c0.135-0.131,0.292-0.236,0.473-0.311C30.187,16.534,30.384,16.496,30.592,16.496"/>
</g>
<polygon fill="#005480" points="34.607,16.556 34.607,19.445 32.933,17.75 32.96,19.378 32.391,19.378 32.391,16.481 34.065,18.172 
	34.038,16.556 "/>
<polygon fill="#005480" points="32.826,25.8 29.75,33.722 27.584,28.652 25.33,33.722 22.333,25.8 23.934,25.361 25.533,29.925 
	27.631,25.18 29.647,29.925 31.293,25.361 "/>
<g>
	<path fill="#005480" d="M5.339,24.324v9.344H3.454v-9.344H5.339z"/>
	<path fill="#005480" d="M6.169,30.69c0-0.422,0.07-0.784,0.211-1.087c0.14-0.303,0.298-0.554,0.475-0.751
		c0.175-0.197,0.349-0.349,0.521-0.455c0.171-0.105,0.283-0.171,0.336-0.198c-0.044-0.035-0.108-0.094-0.191-0.178
		c-0.084-0.083-0.169-0.195-0.257-0.336c-0.088-0.14-0.163-0.31-0.224-0.507c-0.062-0.197-0.092-0.432-0.092-0.705
		c0-0.334,0.066-0.644,0.198-0.93c0.131-0.285,0.318-0.534,0.56-0.745s0.527-0.375,0.856-0.494c0.33-0.119,0.692-0.178,1.088-0.178
		c0.343,0,0.676,0.053,1.002,0.158c0.325,0.105,0.613,0.257,0.863,0.455c0.25,0.197,0.451,0.441,0.6,0.731
		c0.149,0.29,0.224,0.624,0.224,1.002c0,0.281-0.033,0.52-0.099,0.718c-0.066,0.198-0.143,0.365-0.23,0.501
		c-0.088,0.136-0.178,0.246-0.271,0.33s-0.165,0.143-0.217,0.178c0.079,0.044,0.205,0.121,0.375,0.23
		c0.171,0.11,0.347,0.264,0.527,0.461c0.18,0.198,0.336,0.446,0.468,0.745c0.132,0.298,0.198,0.654,0.198,1.067
		c0,0.519-0.097,0.974-0.29,1.365c-0.194,0.391-0.449,0.718-0.765,0.982c-0.316,0.263-0.683,0.463-1.1,0.6
		c-0.417,0.136-0.85,0.204-1.299,0.204c-0.474,0-0.922-0.068-1.344-0.204C7.87,33.513,7.5,33.311,7.184,33.042
		c-0.316-0.268-0.565-0.597-0.744-0.989C6.259,31.663,6.169,31.208,6.169,30.69z M9.635,29.055c-0.254,0-0.487,0.042-0.698,0.125
		c-0.21,0.084-0.394,0.198-0.547,0.343c-0.154,0.145-0.274,0.319-0.362,0.521s-0.132,0.421-0.132,0.658
		c0,0.238,0.044,0.457,0.132,0.659s0.208,0.376,0.362,0.521c0.153,0.145,0.336,0.257,0.547,0.336
		c0.211,0.079,0.444,0.119,0.698,0.119c0.238,0,0.462-0.038,0.673-0.112c0.21-0.075,0.393-0.183,0.547-0.323
		c0.153-0.14,0.277-0.312,0.369-0.514c0.092-0.202,0.138-0.43,0.138-0.686c0-0.246-0.044-0.472-0.132-0.678s-0.211-0.38-0.369-0.521
		c-0.158-0.14-0.343-0.25-0.553-0.329C10.097,29.095,9.873,29.055,9.635,29.055z M9.649,25.576c-0.316,0-0.573,0.095-0.771,0.284
		c-0.197,0.189-0.296,0.441-0.296,0.758c0,0.325,0.104,0.578,0.31,0.758s0.459,0.271,0.758,0.271s0.549-0.092,0.751-0.277
		s0.303-0.435,0.303-0.751s-0.096-0.569-0.29-0.758C10.22,25.671,9.965,25.576,9.649,25.576z"/>
	<path fill="#005480" d="M17.28,24.126c0.51,0,0.991,0.102,1.443,0.303c0.453,0.202,0.85,0.503,1.193,0.903
		c0.342,0.399,0.615,0.902,0.817,1.509c0.202,0.606,0.303,1.313,0.303,2.122c0,0.835-0.099,1.558-0.296,2.168
		c-0.198,0.611-0.468,1.118-0.811,1.522c-0.343,0.404-0.743,0.705-1.199,0.903c-0.457,0.198-0.94,0.296-1.45,0.296
		c-0.545,0-1.048-0.094-1.509-0.283c-0.461-0.189-0.861-0.481-1.199-0.877c-0.338-0.395-0.604-0.9-0.798-1.516
		c-0.193-0.614-0.29-1.353-0.29-2.214c0-0.799,0.097-1.502,0.29-2.108c0.193-0.606,0.461-1.111,0.804-1.516
		c0.343-0.404,0.745-0.708,1.206-0.91C16.246,24.228,16.744,24.126,17.28,24.126z M15.435,28.95c0,0.562,0.043,1.043,0.131,1.443
		s0.213,0.725,0.376,0.975c0.163,0.25,0.355,0.434,0.58,0.547c0.224,0.115,0.477,0.171,0.758,0.171c0.255,0,0.492-0.06,0.712-0.178
		c0.22-0.119,0.409-0.305,0.567-0.56s0.284-0.581,0.376-0.976c0.092-0.396,0.138-0.87,0.138-1.423c0-0.536-0.046-0.996-0.138-1.377
		c-0.092-0.382-0.22-0.696-0.382-0.942c-0.163-0.246-0.354-0.428-0.574-0.547c-0.22-0.119-0.457-0.178-0.711-0.178
		c-0.264,0-0.506,0.059-0.725,0.178c-0.22,0.119-0.413,0.301-0.58,0.547c-0.167,0.246-0.297,0.563-0.389,0.949
		S15.435,28.423,15.435,28.95z"/>
</g>
</svg>
