<?xml version="1.0" encoding="utf-8"?>
<!DOCTYPE svg PUBLIC "-//W3C//DTD SVG 1.1//EN" "http://www.w3.org/Graphics/SVG/1.1/DTD/svg11.dtd">
<svg xmlns="http://www.w3.org/2000/svg" x="0px" y="0px" viewBox="0 0 24 24">
  <path d="M20.5 14.6C18.3 10.6 16.2 6.5 14 2.4M5.6 14.9C4 10.1 2.3 5.4 0.6 0.7M20.9 14.9c-5.1 0-10.2 0-15.3 0C3.9 13.6 2.2 12.3 0.5 10.9 0.5 7.3 0.5 3.7 0.5 0M0.4 0.5C2.1 1.1 3.8 1.8 5.6 2.4c5.1 0 10.2 0 15.3 0M20.8 2.4C18.2 1.8 15.7 1.1 13.1 0.5 8.9 0.5 4.6 0.5 0.4 0.5" style="stroke:#005480;fill:none;stroke-width:1;"/>
</svg>
