<?xml version="1.0" encoding="utf-8"?>
<!DOCTYPE svg PUBLIC "-//W3C//DTD SVG 1.1//EN" "http://www.w3.org/Graphics/SVG/1.1/DTD/svg11.dtd">
<svg xmlns="http://www.w3.org/2000/svg"  x="0px" y="0px" viewBox="0 0 24 24">
  <path d="M0-.5h24v24H0z" fill="none"/>
  <path d="m16.12 8.79c0.16-0.85 0.25-1.72 0.47-2.56 0.7-0.34 1.54 0.47 2.28 0.64 1.21 0.5 2.43 1.02 3.65 1.49 0.24 0.33-0.75 0.12-1.04 0.21-1.79 0.08-3.57 0.15-5.36 0.23zM1.2 6.97C2.92 7.72 4.63 8.51 6.36 9.23 7.9 9.24 9.45 9.07 10.99 9.03 12.42 8.96 13.85 8.89 15.28 8.82 15.39 7.92 15.59 7.02 15.64 6.11 14.92 5.69 13.87 6.1 13.02 6.02 9.03 6.18 5.04 6.29 1.06 6.49 0.39 6.51 0.95 6.84 1.2 6.97ZM0.69 7.48C2.43 8.33 4.18 9.16 5.9 10.03c0.68 0.76 1.11 1.73 1.69 2.57 1.37 2.2 2.75 4.41 4.12 6.61-0.41 0.1-0.57-0.36-0.84-0.58C7.45 14.96 4 11.29 0.58 7.6l0-0.07 0.11-0.05zM7.8 9.89c4.9-0.2 9.81-0.44 14.71-0.61 1.24 0 0.7 1.4 0.01 1.83-2.43 2.61-4.87 5.21-7.3 7.82-0.93 0.08-1.87 0.17-2.8 0.25C10.69 16.33 8.96 13.49 7.23 10.64 6.98 10.21 7.34 9.83 7.8 9.89Z" fill="#005480"/>
</svg>
