<svg xmlns="http://www.w3.org/2000/svg" viewBox="0 0 48 48">

  <path d="M41.757 38.574H7.805a.908.908 0 0 1-.905-.905v-.453c0-.498.407-.905.905-.905.317 0 .634.18.77.452h32.774l.815-.814V18.113l-1.086-1.087a1.082 1.082 0 0 1-.227-.633V10.96H8.711v2.717a.908.908 0 0 1-.906.905.908.908 0 0 1-.905-.905v-3.622c0-.498.407-.905.905-.905h33.952c.498 0 .905.407.905.905v5.976l1.087 1.086a.894.894 0 0 1 .271.634v18.56c0 .226-.09.452-.271.633l-1.359 1.359a.894.894 0 0 1-.633.271z"/>
  <path d="M7.805 30.426a.908.908 0 0 1-.905-.906v-6.79c0-.498.407-.905.905-.905.498 0 .906.407.906.905v6.79a.908.908 0 0 1-.906.906zM11.2 21.372H3.959a.696.696 0 0 1-.68-.679v-4.98c0-.362.317-.678.68-.678H11.2c.362 0 .679.316.679.679v4.98a.696.696 0 0 1-.68.678zM12.559 35.858H6.22a.696.696 0 0 1-.679-.679v-3.621c0-.363.317-.68.679-.68h6.338c.362 0 .679.317.679.68v3.621a.696.696 0 0 1-.68.679zM23.197 26.352c-.272 0-.453.18-.453.452v.453h.905v-.453c0-.271-.18-.452-.452-.452zM21.839 26.352c-.272 0-.453.18-.453.452v.453h.905v-.453c0-.271-.18-.452-.452-.452zM24.555 26.352c-.272 0-.453.18-.453.452v.453h.905v-.453c0-.271-.18-.452-.452-.452zM25.913 26.352c-.272 0-.453.18-.453.452v.453h.905v-.453c0-.271-.18-.452-.452-.452zM27.27 26.352c-.27 0-.452.18-.452.452v.453h.906v-.453c0-.271-.182-.452-.453-.452zM28.629 26.352c-.272 0-.453.18-.453.452v.453h.906v-.453c0-.271-.182-.452-.453-.452zM29.987 26.352c-.272 0-.453.18-.453.452v.453h.906v-.453c0-.271-.181-.452-.453-.452zM31.345 26.352c-.272 0-.453.18-.453.452v.453h.906v-.453c0-.271-.181-.452-.453-.452zM32.703 26.352c-.272 0-.453.18-.453.452v.453h.906v-.453c0-.271-.181-.452-.453-.452zM34.061 26.352c-.272 0-.453.18-.453.452v.453h.906v-.453c0-.271-.181-.452-.453-.452zM35.42 26.352c-.272 0-.454.18-.454.452v.453h.906v-.453c0-.271-.181-.452-.453-.452zM36.777 26.352c-.271 0-.452.18-.452.452v.453h.905v-.453c0-.271-.181-.452-.453-.452zM38.135 26.352c-.271 0-.452.18-.452.452v.453h.905v-.453c0-.271-.181-.452-.453-.452zM39.493 26.352c-.271 0-.452.18-.452.452v.453h.905v-.453c0-.271-.181-.452-.453-.452zM38.135 33.142c.272 0 .453-.181.453-.453v-.452h-.905v.452c0 .272.18.453.452.453zM39.493 33.142c.272 0 .453-.181.453-.453v-.452h-.905v.452c0 .272.18.453.452.453zM36.777 33.142c.272 0 .453-.181.453-.453v-.452h-.905v.452c0 .272.18.453.452.453zM35.42 33.142c.27 0 .452-.181.452-.453v-.452h-.906v.452c0 .272.182.453.453.453zM34.061 33.142c.272 0 .453-.181.453-.453v-.452h-.906v.452c0 .272.181.453.453.453zM32.703 33.142c.272 0 .453-.181.453-.453v-.452h-.906v.452c0 .272.181.453.453.453zM31.345 33.142c.272 0 .453-.181.453-.453v-.452h-.906v.452c0 .272.181.453.453.453zM29.987 33.142c.272 0 .453-.181.453-.453v-.452h-.906v.452c0 .272.181.453.453.453zM28.629 33.142c.271 0 .453-.181.453-.453v-.452h-.906v.452c0 .272.181.453.453.453zM27.27 33.142c.272 0 .454-.181.454-.453v-.452h-.906v.452c0 .272.181.453.453.453zM25.913 33.142c.271 0 .452-.181.452-.453v-.452h-.905v.452c0 .272.181.453.453.453zM24.555 33.142c.271 0 .452-.181.452-.453v-.452h-.905v.452c0 .272.181.453.453.453zM23.197 33.142c.271 0 .452-.181.452-.453v-.452h-.905v.452c0 .272.181.453.453.453zM21.839 33.142c.271 0 .452-.181.452-.453v-.452h-.905v.452c0 .272.181.453.453.453zM40.399 27.71H20.933c-.271 0-.452.18-.452.452v3.17c0 .27.18.452.452.452H40.4c.271 0 .452-.181.452-.453v-3.169c0-.271-.18-.452-.452-.452zm0 2.942a.908.908 0 0 1-.906-.905c0-.498.408-.906.906-.906z"/><path d="M16.95 18.249c0 3.938 5.432 5.432 8.103 1.403 2.761 4.165 7.967 2.4 7.967-1.403s-5.16-5.659-7.967-1.404c-2.626-4.21-8.103-2.535-8.103 1.404zm1.448 0c0-2.852 4.03-3.758 5.885 0-1.901 3.576-5.885 2.852-5.885 0zm7.47 0c1.674-3.803 5.84-2.762 5.794 0 0 2.761-4.165 3.621-5.794 0z" clip-rule="evenodd" fill-rule="evenodd"/>
  <path clip-rule="evenodd" fill-rule="evenodd" d="M19.892 17.841h2.399v.77h-2.399zM30.168 17.796v.815h-.77v.77h-.814v-.77h-.815v-.815h.815v-.815h.814v.815z"/>
</svg>
