
<svg xmlns="http://www.w3.org/2000/svg" viewBox="0 0 48 48">
  <path d="M0 0h48v48H0z" fill="none"/>
  <path d="M32.31 19.303c-.2-.2-.6-.4-.9-.4H6.31c-.7 0-1.3.6-1.3 1.3v17.5c0 .7.6 1.3 1.3 1.3h25.1c.3 0 .7-.1.9-.4.2-.2.4-.6.4-.9v-17.5c0-.3-.2-.6-.4-.9zm-2.1 2.2v2.4H7.61v-2.4zm-22.6 14.9v-10.1h22.6v10.1zM32.21 15.103c-.7 0-1.3.6-1.3 1.3 0 .7.6 1.3 1.3 1.3.4 0 .7.1.9.4.2.2.4.6.4.9 0 .7.6 1.3 1.3 1.3.7 0 1.3-.6 1.3-1.3 0-1-.4-2-1.1-2.7-.8-.8-1.8-1.2-2.8-1.2z"/><path d="M32.21 11.003c-.7 0-1.3.6-1.3 1.3 0 .7.6 1.3 1.3 1.3 1.5 0 2.8.6 3.9 1.6 1 1 1.6 2.4 1.6 3.9 0 .7.6 1.3 1.3 1.3.7 0 1.3-.6 1.3-1.3 0-2.1-.8-4.1-2.3-5.6-1.7-1.7-3.7-2.5-5.8-2.5z"/>
  <path d="M40.81 10.403c-2.3-2.3-5.3-3.5-8.6-3.5-.7 0-1.3.6-1.3 1.3 0 .7.6 1.3 1.3 1.3 2.6 0 5 1 6.8 2.8 1.8 1.8 2.8 4.2 2.8 6.8 0 .7.6 1.3 1.3 1.3.7 0 1.3-.6 1.3-1.3-.1-3.4-1.3-6.4-3.6-8.7zM13.11 28.603h-1.4v5.9h1.4v-3.7l2.2 3.7h1.3v-5.9h-1.3v3.7h-.1zM21.11 31.103h-2.2v-1.4h2.6v-1.1h-3.9v5.9h1.3v-2.3h2.2zM23.71 30.003c.2-.2.4-.4.7-.4.4 0 .6.1.8.2.2.2.2.4.2.8h1.3c0-.7-.2-1.2-.6-1.5-.4-.3-1-.5-1.7-.5s-1.3.2-1.7.7c-.4.4-.6 1-.6 1.8v1.2c0 .7.2 1.3.7 1.8.4.4 1 .7 1.8.7.7 0 1.3-.2 1.7-.5.4-.3.6-.9.6-1.5h-1.3c0 .4-.1.6-.2.8-.1.2-.4.2-.7.2-.3 0-.6-.1-.8-.4-.2-.2-.3-.6-.3-1v-1.2c-.1-.7-.1-1 .1-1.2z"/>
</svg>
