<svg xmlns="http://www.w3.org/2000/svg" viewBox="0 0 12.7 12.7">
  <path d="M0 0h12.7v12.7H0z" fill="none"/>
  <path d="M6.264 12.3c-.363-.1-.704-.2-1.01-.5-.115-.1-.186-.2-.356-.2-.251-.1-.482-.3-.749-.5-.218-.1-.223-.1-.419-.2-.353-.2-.716-.5-.906-.9-.06-.1-.147-.4-.169-.5-.01-.1-.05-.2-.108-.4-.05-.1-.109-.3-.125-.4-.03-.1-.06-.1-.158-.3-.228-.3-.336-.6-.358-1-.03-.5.255-1.2.69-1.5.163-.1.206-.2.206-.3 0-.1.01-.2.03-.3.09-.6.347-1 .863-1.3.1-.1.158-.2.142-.2-.207 0-.31-.1-.342-.2-.02 0-.04-.1-.12-.1-.125 0-.223-.1-.277-.2-.02-.1-.07-.2-.1-.2-.135-.1-.233-.2-.233-.3 0 0-.02-.1-.07-.1-.09-.1-.147-.2-.136-.3.01-.1-.01-.1-.05-.2a.404.404 0 0 1-.103-.3c.01-.1.01-.1-.03-.2-.06-.1-.06-.2-.01-.3.03 0 .04 0 .02-.1-.03-.1-.03-.2.01-.3.04-.1.157-.1.271-.1.09 0 .114 0 .169-.1.1-.1.184-.1.358-.1.114 0 .168 0 .217-.1h.277c.02 0 .07 0 .114-.1h.516c.08-.1.18-.1.328 0h.249c.113 0 .142 0 .226.1h.22c.146 0 .234.1.333.2h.152c.06 0 .105 0 .163.1.1.1.272.2.352.4.07.1.202.3.234.4.03.1.06.2.06.1 0 0 .03-.1.07-.2.184-.4.506-.8.706-.8h.125c.03 0 .09-.1.131-.1.07-.1.103-.1.217-.1h.228c.09-.1.119-.1.233-.1h.245c.136-.1.222-.1.32 0H9.443c.04.1.1.1.108.1h.272c.05.1.09.1.179.1.162 0 .302 0 .382.1.1.1.1.1.18.1.12 0 .22 0 .27.1.1.1.1.2 0 .3v.6c0 .1 0 .2-.1.3-.1.1-.1.1-.1.2s0 .2-.12.2c0 .1-.1.1-.1.2s-.12.2-.26.3c0 .1-.1.1-.1.1 0 .1-.1.2-.25.3-.09 0-.141.1-.141.1s-.158.2-.277.2h-.109l.147.1c.401.3.66.6.8 1 .1.2.11.4.11.6 0 .2.1.3.19.4.3.2.55.6.67 1 0 .2.1.6 0 .8-.1.3-.19.5-.37.8 0 0-.1.1-.1.2 0 0-.1.2-.14.4-.1.2-.13.4-.14.5-.13.6-.564 1.1-1.129 1.3-.09.1-.255.2-.38.3-.228.1-.565.3-.793.4-.09 0-.168.1-.255.2-.239.2-.56.4-.859.5h-.875zm.745-.4c.457-.1.967-.5.967-.8 0-.2-.723-.5-1.38-.4-.518 0-.988.1-1.181.3-.107.1-.121.2-.06.3.144.2.591.5.973.6.152.1.516 0 .679 0zm1.803-1.1c.343-.1.652-.3.935-.6.263-.2.363-.4.423-.8 0-.2 0-.5-.1-.8-.1-.1-.125-.2-.223-.3-.19-.1-.418 0-.701.2-.212.1-.505.4-.652.6-.32.4-.499 1-.396 1.3.05.2.168.3.402.4h.271zm-4.014-.1c.174-.1.264-.2.264-.5s-.145-.7-.333-1c-.05 0-.161-.2-.253-.2-.441-.5-.892-.6-1.196-.5-.07.1-.1.1-.152.2-.07.1-.07.1-.08.4 0 .2 0 .2.04.4.09.3.206.5.435.8.385.3.895.5 1.268.4zm2.135-.4c.663-.2 1.108-.7 1.076-1.3-.03-.5-.375-.9-.908-1.1-.223-.1-.565-.1-.793-.1-.539.2-.908.5-1.008 1-.04.2-.03.4.04.6.06.2.124.3.27.5.333.3.837.5 1.321.4zm-3.952-2c.299-.3.511-1.5.348-2-.04-.1-.125-.2-.196-.2-.119 0-.412.2-.565.5-.157.2-.244.6-.217.8.03.4.147.7.332.9.13.1.19.1.298 0zm7.579-.1c.11-.1.21-.3.27-.5.1-.1.1-.5 0-.7-.1-.3-.28-.6-.6-.9-.17-.1-.26-.1-.338.1-.184.4 0 1.7.298 2 .13.2.18.2.33 0zM5.181 8c.301-.1.521-.2.748-.4.558-.6.607-1.5.1-2-.168-.1-.355-.2-.604-.3-.247 0-.582.1-.85.2-.186.1-.474.4-.577.6-.152.3-.234.6-.212.9.05.6.548 1.1 1.157 1h.239zm3.496-.1c.288 0 .57-.2.695-.5.261-.5.141-1.2-.31-1.7-.467-.4-1.151-.6-1.64-.3-.5.3-.647 1-.359 1.7.233.4.631.8 1.152.9.09 0 .353 0 .462-.1zm1.309-2.2c.02 0 .02-.1.02-.2-.04-.7-.449-1.2-1.107-1.4h-.831c0 .2.989 1.2 1.554 1.5.217.1.32.1.364.1zm-6.408-.1c.592-.3 1.737-1.4 1.64-1.5-.03-.1-.359-.1-.573-.1-.409.1-.67.2-.936.5-.141.1-.19.2-.256.3-.1.2-.152.4-.168.6-.02.3.02.3.293.2zm3.529-.4c.304-.1.516-.2.657-.3.12-.2.147-.3.103-.4-.103-.4-.717-.7-1.249-.7-.37 0-.83.2-1.069.4-.153.2-.176.3-.09.5.09.2.322.3.653.4.296.1.644.1.997.1zm-2.14-1.5c.243-.1.452-.2.58-.3.119-.1.234-.3.215-.4-.01 0-.231-.2-.441-.4-.31-.3-.822-.6-1.357-.9a.455.455 0 0 1-.272-.1s.343.1.603.2c.566.2 1.16.6 1.561.9.06 0 .12.1.128.1 0 0 .07-.1.134-.1.165-.1.234-.3.244-.5.02-.3-.121-.6-.418-.9-.1-.2-.104-.2-.121-.1-.06.1-.04.1-.236-.1-.101-.1-.191-.2-.201-.2 0 0-.01 0 0 .1l-.02.1h-.03L5.227 1c-.09-.1-.215-.2-.236-.2v.1c0 .1-.02.1-.05.1 0 0-.06 0-.128-.1-.167-.1-.351-.2-.27-.1.03 0 .04.1.02.2 0 0-.08-.1-.158-.1C4.277.8 4.06.8 4.038.8h.06c.06.1.08.2.04.2-.01 0-.09 0-.179-.1H3.624h.05c.05.1.07.2.03.2-.01 0-.09-.1-.179-.1h-.391c-.05 0-.04 0 .03.1l.07.1h-.543.04c.05.1.152.3.152.4h-.212s.114.2.201.2c.06.1.109.1.114.2h-.243s.08.1.174.2c.1.1.168.2.163.2h-.19l.08.1c.04 0 .135.1.206.1.07.1.13.1.13.1 0 .1-.1.1-.168.1h.03c.05.1.168.2.26.2.1.1.18.1.18.1s-.109.1-.163.1c-.08 0 .06 0 .287.1.125.1.218.1.218.1s-.04 0-.08.1h-.03.08c.03 0 .147.1.261.1h.225c.01 0 0 0-.05.1l-.06.1.257-.1h.42zm3.943 0c-.04-.1-.06-.1-.04-.1h.222c.115 0 .218-.1.234-.1h.13-.06c-.04-.1-.07-.1-.07-.1s.09 0 .212-.1c.228-.1.364-.1.288-.1-.05 0-.163-.1-.163-.1s.08 0 .179-.1c.1 0 .218-.1.258-.2.1 0 .1 0 0 0s-.166 0-.166-.1h.1c0-.1.15-.1.21-.2l.1-.1h-.1-.1s.1-.1.16-.2c.1-.1.18-.2.18-.2h-.1-.13c-.1 0-.1 0 .1-.1.1-.1.2-.3.2-.3H10.344c0-.1.11-.3.15-.4h-.54l.1-.1c.1-.1.1-.1 0-.1h-.401c-.09 0-.168.1-.179.1-.04 0-.02-.1.04-.2h.05-.329c-.09.1-.169.1-.174.1-.03 0-.02-.1.04-.2h.05c-.02 0-.228 0-.364.1-.08 0-.152.1-.157.1-.02-.1-.01-.2.02-.2.08-.1-.103 0-.271.1-.06.1-.12.1-.13.1-.03 0-.05 0-.05-.1V.8c-.02 0-.136.1-.239.2l-.109.1h-.03c-.02-.1-.03-.1-.02-.1.01-.1 0-.1-.19.1-.223.2-.195.2-.255.1-.02-.1-.02-.1-.137.1-.184.2-.325.5-.385.7a.9.9 0 0 0 0 .4c.03.1.136.2.256.3.102.1.113.1.151.1.02-.1.12-.1.218-.2.489-.4 1.135-.7 1.809-.9.119-.1.217-.1.222-.1 0 0-.08 0-.174.1-.505.2-1.053.6-1.379.8-.217.2-.505.5-.521.5-.03.1.201.4.385.5.228.2.554.2.875.2h.206z"/>
</svg>