<svg xmlns="http://www.w3.org/2000/svg" data-name="Layer 1" viewBox="0 0 48 48">
  <path d="M45.461 16.924l-3.287 3.048c-5.172-4.587-11.101-7.092-18.052-7.08-6.95.014-12.935 2.437-18.227 7.084l-3.18-2.945c9.759-10.559 30-12.649 42.746-.107z"/>
  <path d="M12.251 26.136L9.02 23.144c6.976-7.836 21.937-8.734 30.256-.052l-3.305 2.992c-3.398-3.005-7.322-4.616-11.798-4.616-4.475 0-8.438 1.56-11.922 4.668z"/>
  <path d="M30.175 32.03c-4.527-2.992-7.656-2.992-12.025.022l-3.295-3.04c5.437-5.078 13.195-5.078 18.547-.016zM24.01 33.065a3.66 3.66 0 0 1 3.78 3.604 3.698 3.698 0 0 1-3.642 3.757 3.779 3.779 0 0 1-3.8-3.62 3.719 3.719 0 0 1 3.663-3.741z"/>
</svg>
