<?xml version="1.0" encoding="utf-8"?>
<!-- Generator: Adobe Illustrator 21.0.0, SVG Export Plug-In . SVG Version: 6.00 Build 0)  -->
<svg version="1.1" id="Calque_1" xmlns="http://www.w3.org/2000/svg" xmlns:xlink="http://www.w3.org/1999/xlink" x="0px" y="0px"
	 viewBox="0 0 48 48" enable-background="new 0 0 48 48" xml:space="preserve">
<path fill="#00517D" d="M37.853,48.308H11.274C4.832,48.308,0,44.401,0,38.329v-26.58C0,5.52,5.139,0.308,11.274,0.308h26.579
	C43.926,0.308,48,5.313,48,11.749v26.58C48,44.497,44.121,48.308,37.853,48.308z M11.274,2.308C6.261,2.308,2,6.642,2,11.749v26.58
	c0,4.894,4.01,7.979,9.274,7.979h26.579c5.151,0,8.147-2.93,8.147-7.979v-26.58c0-5.277-3.232-9.44-8.147-9.44H11.274z"/>
<path fill="#005480" d="M40.549,23.308h-3.818c-0.699-5.701-5.275-10.232-11.024-10.911V8.466c0-0.801-0.648-1.448-1.448-1.448
	c-0.8,0-1.448,0.647-1.448,1.448v3.917c-5.798,0.636-10.422,5.187-11.126,10.925H7.969c-0.8,0-1.448,0.647-1.448,1.448
	c0,0.8,0.648,1.448,1.448,1.448h3.696c0.639,5.809,5.298,10.433,11.146,11.075v3.767c0,0.8,0.648,1.448,1.448,1.448
	c0.8,0,1.448-0.648,1.448-1.448v-3.779c5.801-0.684,10.407-5.289,11.044-11.063h3.798c0.8,0,1.448-0.648,1.448-1.448
	C41.997,23.955,41.349,23.308,40.549,23.308L40.549,23.308z M25.707,34.337v-4.776c0-0.801-0.648-1.448-1.448-1.448
	c-0.8,0-1.448,0.647-1.448,1.448v4.791c-4.248-0.611-7.608-3.94-8.216-8.148h4.859c0.801,0,1.448-0.648,1.448-1.448
	c0-0.801-0.647-1.448-1.448-1.448h-4.836c0.667-4.135,3.996-7.393,8.193-7.995v4.638c0,0.801,0.648,1.448,1.448,1.448
	c0.8,0,1.448-0.647,1.448-1.448v-4.624c4.149,0.639,7.43,3.878,8.091,7.981h-4.734c-0.801,0-1.448,0.647-1.448,1.448
	c0,0.8,0.647,1.448,1.448,1.448h4.757C33.215,30.378,29.907,33.687,25.707,34.337L25.707,34.337z M25.707,34.337"/>
</svg>
