<?xml version="1.0" encoding="utf-8"?>
<!-- Generator: Adobe Illustrator 21.0.0, SVG Export Plug-In . SVG Version: 6.00 Build 0)  -->
<svg version="1.1" id="Calque_1" xmlns="http://www.w3.org/2000/svg" xmlns:xlink="http://www.w3.org/1999/xlink" x="0px" y="0px"
	 viewBox="0 0 48 48" enable-background="new 0 0 48 48" xml:space="preserve">
<path fill="#00517D" d="M48,36.763C48,42.969,42.969,48,36.763,48H11.237C5.031,48,0,42.969,0,36.763V11.237
	C0,5.031,5.031,0,11.237,0h25.526C42.969,0,48,5.031,48,11.237V36.763z M46,11.237C46,6.135,41.865,2,36.763,2H11.237
	C6.135,2,2,6.135,2,11.237v25.526C2,41.865,6.135,46,11.237,46h25.526C41.865,46,46,41.865,46,36.763V11.237z"/>
<path fill="#005480" d="M27.424,14.684l5.717,5.717l-14.47,14.47l-5.713-5.717L27.424,14.684z M37.478,13.306l-2.549-2.549
	c-0.985-0.985-2.585-0.985-3.574,0l-2.442,2.442l5.717,5.716l2.849-2.849C38.242,15.302,38.242,14.07,37.478,13.306L37.478,13.306z
	 M9.965,37.19c-0.104,0.468,0.319,0.888,0.787,0.774l6.37-1.545l-5.713-5.717L9.965,37.19z M9.965,37.19"/>
</svg>
