<?xml version="1.0" encoding="utf-8"?>
<!-- Generator: Adobe Illustrator 21.0.0, SVG Export Plug-In . SVG Version: 6.00 Build 0)  -->
<svg version="1.1" id="Calque_1" xmlns="http://www.w3.org/2000/svg" xmlns:xlink="http://www.w3.org/1999/xlink" x="0px" y="0px"
	 viewBox="0 0 48 48" enable-background="new 0 0 48 48" xml:space="preserve">
<path fill="#00517D" d="M48.731,37.072c0,6.206-5.031,11.237-11.237,11.237H11.968c-6.206,0-11.237-5.031-11.237-11.237V11.545
	c0-6.206,5.031-11.237,11.237-11.237h25.526c6.206,0,11.237,5.031,11.237,11.237V37.072z M46.731,11.545
	c0-5.102-4.135-9.237-9.237-9.237H11.968c-5.101,0-9.237,4.135-9.237,9.237v25.526c0,5.102,4.135,9.237,9.237,9.237h25.526
	c5.102,0,9.237-4.135,9.237-9.237V11.545z"/>
<g>
	<path fill="#005480" d="M39.169,35.959L30.9,27.693c1.478-2.061,2.366-4.578,2.366-7.23c0-6.942-5.615-12.55-12.55-12.55
		c-6.942,0-12.55,5.608-12.55,12.55c0,6.935,5.608,12.55,12.55,12.55c2.652,0,5.169-0.888,7.23-2.366l8.267,8.269
		c0.744,0.734,2.068,0.734,2.956,0C40.055,38.028,40.055,36.847,39.169,35.959L39.169,35.959z M20.716,30.056
		c-5.313,0-9.594-4.281-9.594-9.594s4.281-9.594,9.594-9.594s9.594,4.281,9.594,9.594S26.029,30.056,20.716,30.056L20.716,30.056z
		 M20.716,30.056"/>
</g>
</svg>
