<?xml version="1.0" encoding="utf-8"?>
<!-- Generator: Adobe Illustrator 21.0.0, SVG Export Plug-In . SVG Version: 6.00 Build 0)  -->
<svg version="1.1" id="Calque_1" xmlns="http://www.w3.org/2000/svg" xmlns:xlink="http://www.w3.org/1999/xlink" x="0px" y="0px"
	 viewBox="0 0 48 48" enable-background="new 0 0 48 48" xml:space="preserve">
<path fill="#00517D" d="M48,36.763C48,42.969,42.969,48,36.763,48H11.237C5.031,48,0,42.969,0,36.763V11.237
	C0,5.031,5.031,0,11.237,0h25.526C42.969,0,48,5.031,48,11.237V36.763z M46,11.237C46,6.135,41.865,2,36.763,2H11.237
	C6.135,2,2,6.135,2,11.237v25.526C2,41.865,6.135,46,11.237,46h25.526C41.865,46,46,41.865,46,36.763V11.237z"/>
<g>
	<path fill="#005480" d="M19.039,31.434h9.922v-9.911h6.611L24.005,9.945L12.428,21.522h6.611V31.434z M19.039,31.434"/>
	<rect x="12.428" y="34.744" fill="#005480" width="23.144" height="3.311"/>
</g>
</svg>
