<?xml version="1.0" encoding="utf-8"?>
<!-- Generator: Adobe Illustrator 21.0.0, SVG Export Plug-In . SVG Version: 6.00 Build 0)  -->
<svg version="1.1" id="Calque_1" xmlns="http://www.w3.org/2000/svg" xmlns:xlink="http://www.w3.org/1999/xlink" x="0px" y="0px"
	 viewBox="0 0 48 48" enable-background="new 0 0 48 48" xml:space="preserve">
<g>
	<path fill="#00517D" d="M36.983,48.308H10.998C4.831,48.308,0,43.533,0,37.437V11.641C0,5.392,4.934,0.308,10.998,0.308h25.985
		C43.058,0.308,48,5.392,48,11.641v25.795C48,43.533,43.161,48.308,36.983,48.308z M10.998,2.308C6.121,2.308,2,6.582,2,11.641
		v25.795c0,4.975,3.953,8.872,8.998,8.872h25.985c5.056,0,9.017-3.897,9.017-8.872V11.641c0-5.059-4.129-9.333-9.017-9.333H10.998z"
		/>
	<polygon fill="#005480" points="34.881,25.193 15.064,37.02 15.064,13.352 	"/>
</g>
</svg>
