<?xml version="1.0" encoding="utf-8"?>
<!-- Generator: Adobe Illustrator 21.0.0, SVG Export Plug-In . SVG Version: 6.00 Build 0)  -->
<svg version="1.1" id="Calque_1" xmlns="http://www.w3.org/2000/svg" xmlns:xlink="http://www.w3.org/1999/xlink" x="0px" y="0px"
	 viewBox="0 0 48 48" enable-background="new 0 0 48 48" xml:space="preserve">
<path fill="#00517D" d="M48,36.763C48,42.969,42.969,48,36.763,48H11.237C5.031,48,0,42.969,0,36.763V11.237
	C0,5.031,5.031,0,11.237,0h25.526C42.969,0,48,5.031,48,11.237V36.763z M46,11.237C46,6.135,41.865,2,36.763,2H11.237
	C6.135,2,2,6.135,2,11.237v25.526C2,41.865,6.135,46,11.237,46h25.526C41.865,46,46,41.865,46,36.763V11.237z"/>
<g>
	<path fill="#005480" d="M30.758,9.017H17.056c-1.14,0-2.075,0.935-2.075,2.076v26.58c0,1.14,0.935,2.076,2.075,2.076h13.702
		c1.14,0,2.076-0.935,2.076-2.076v-26.58C32.833,9.953,31.898,9.017,30.758,9.017L30.758,9.017z M21.717,10.513h4.381
		c0.142,0,0.252,0.113,0.252,0.254c0,0.137-0.11,0.248-0.252,0.248h-4.381c-0.142,0-0.255-0.111-0.255-0.248
		C21.462,10.626,21.575,10.513,21.717,10.513L21.717,10.513z M23.907,38.712c-0.575,0-1.037-0.463-1.037-1.038
		c0-0.574,0.462-1.037,1.037-1.037c0.575,0,1.037,0.463,1.037,1.037C24.944,38.249,24.481,38.712,23.907,38.712L23.907,38.712z
		 M31.389,35.908H16.426V12.311h14.963V35.908z M31.389,35.908"/>
</g>
</svg>
