<svg version="1.1" id="Calque_1" xmlns="http://www.w3.org/2000/svg" xmlns:xlink="http://www.w3.org/1999/xlink" x="0px" y="0px"
	 viewBox="0 0 515.56 161.81" enable-background="new 0 0 515.56 161.81" xml:space="preserve">
<polygon fill="#009EE0" points="82.51,53.85 62.3,66.14 62.3,74.65 82.51,74.65 "/>
<polygon fill="#009EE0" points="48.28,74.67 38.17,80.82 48.28,86.96 "/>
<polygon fill="#009EE0" points="82.6,53.79 96.53,53.79 96.53,107.73 82.51,107.73 82.51,85.51 62.3,85.51 62.3,95.49 
	104.91,121.41 104.91,40.22 "/>
<g class="logo-text" id="text-hol">
	<path fill="#043342" d="M160.84,45.07v20.77c0.35-0.35,0.9-0.81,1.64-1.37c0.74-0.56,1.68-1.12,2.83-1.68
		c1.15-0.56,2.5-1.05,4.07-1.46c1.56-0.41,3.34-0.62,5.35-0.62c3.36,0,6.08,0.52,8.18,1.55c2.09,1.03,3.73,2.34,4.91,3.93
		c1.18,1.59,1.99,3.31,2.43,5.17s0.66,3.61,0.66,5.26v31.11h-11.76V77.77c0-2.06-0.62-3.73-1.86-4.99c-1.24-1.27-3.33-1.9-6.28-1.9
		c-1.41,0-2.71,0.19-3.89,0.57c-1.18,0.38-2.21,0.83-3.09,1.33c-0.88,0.5-1.59,0.99-2.12,1.46c-0.53,0.47-0.88,0.8-1.06,0.97v32.53
		h-11.76V45.07H160.84z"/>
	<path fill="#043342" d="M220.6,60.71c3.54,0,6.83,0.62,9.9,1.86c3.06,1.24,5.73,2.93,8,5.08c2.27,2.15,4.04,4.7,5.3,7.65
		c1.27,2.95,1.9,6.13,1.9,9.55c0,3.36-0.6,6.51-1.81,9.46c-1.21,2.95-2.92,5.5-5.13,7.65c-2.21,2.15-4.85,3.86-7.91,5.13
		c-3.06,1.27-6.48,1.9-10.25,1.9c-3.65,0-7.01-0.59-10.08-1.77c-3.06-1.18-5.72-2.84-7.96-4.99c-2.24-2.15-3.98-4.7-5.22-7.65
		c-1.24-2.95-1.86-6.19-1.86-9.72c0-3.3,0.63-6.42,1.9-9.37c1.27-2.95,3.01-5.51,5.21-7.69c2.21-2.18,4.85-3.9,7.91-5.17
		C213.58,61.35,216.94,60.71,220.6,60.71z M207.52,84.54c0,2.06,0.32,3.91,0.97,5.55c0.65,1.64,1.55,3.05,2.7,4.23
		c1.15,1.17,2.52,2.08,4.11,2.73c1.59,0.65,3.36,0.97,5.3,0.97c1.94,0,3.71-0.32,5.3-0.97c1.59-0.65,2.96-1.57,4.11-2.78
		c1.15-1.2,2.05-2.63,2.7-4.27c0.65-1.64,0.97-3.44,0.97-5.37c0-1.82-0.32-3.52-0.97-5.11c-0.65-1.59-1.55-2.98-2.7-4.18
		c-1.15-1.2-2.52-2.14-4.11-2.82c-1.59-0.68-3.36-1.01-5.3-1.01c-2,0-3.82,0.34-5.44,1.01c-1.62,0.68-2.99,1.6-4.11,2.77
		c-1.12,1.18-1.99,2.56-2.61,4.14C207.82,81.01,207.52,82.72,207.52,84.54z"/>
	<path fill="#043342" d="M261.52,45.07v62.67h-11.76V45.07H261.52z"/>
</g>
<g id="text-u">
	<path fill="#043342" d="M308.9,61.95v33.24c0,2.12,0.07,3.86,0.22,5.21c0.15,1.36,0.31,2.45,0.49,3.27
		c0.18,0.83,0.37,1.47,0.58,1.95c0.21,0.47,0.37,0.83,0.49,1.06l-11.4,1.86c-0.47-1.06-0.79-2.24-0.97-3.54
		c-0.18-1.3-0.32-2.53-0.44-3.71c-0.24,0.41-0.63,1.05-1.19,1.9c-0.56,0.85-1.4,1.71-2.52,2.56c-1.12,0.86-2.56,1.61-4.33,2.25
		c-1.77,0.65-3.98,0.97-6.63,0.97c-2.83,0-5.23-0.47-7.2-1.41c-1.98-0.94-3.58-2.19-4.82-3.76c-1.24-1.56-2.15-3.36-2.74-5.39
		c-0.59-2.03-0.88-4.14-0.88-6.32V61.95h11.67v28.46c0,5.42,2.74,8.13,8.22,8.13c1.3,0,2.53-0.21,3.71-0.62
		c1.18-0.41,2.22-1.02,3.14-1.81c0.91-0.79,1.64-1.77,2.17-2.92c0.53-1.15,0.79-2.43,0.79-3.84v-27.4H308.9z"/>
</g>
<g id="text-si">
	<path fill="#043342" d="M334.09,60.71c2.12,0,4.11,0.18,5.97,0.53c1.86,0.35,3.51,0.77,4.95,1.24c1.44,0.47,2.68,0.96,3.71,1.46
		c1.03,0.5,1.78,0.93,2.25,1.28l-4.6,8.31c-0.3-0.23-0.81-0.56-1.55-0.97c-0.74-0.41-1.63-0.82-2.7-1.24
		c-1.06-0.41-2.27-0.78-3.62-1.1c-1.36-0.32-2.77-0.49-4.24-0.49c-1.89,0-3.6,0.34-5.13,1.02c-1.53,0.68-2.3,1.58-2.3,2.7
		c0,0.77,0.27,1.41,0.8,1.94s1.33,1,2.39,1.41c1.06,0.41,2.34,0.83,3.84,1.24c1.5,0.41,3.23,0.88,5.17,1.41
		c2,0.59,3.85,1.3,5.53,2.12c1.68,0.83,3.14,1.83,4.38,3c1.24,1.18,2.21,2.54,2.92,4.07c0.71,1.53,1.06,3.27,1.06,5.21
		c0,1.89-0.43,3.73-1.28,5.52c-0.86,1.8-2.15,3.4-3.89,4.82c-1.74,1.42-3.89,2.56-6.45,3.45c-2.56,0.88-5.56,1.33-8.97,1.33
		c-2.65,0-5.08-0.26-7.29-0.79c-2.21-0.53-4.15-1.12-5.83-1.77c-1.68-0.65-3.08-1.29-4.2-1.94c-1.12-0.65-1.89-1.12-2.3-1.41
		l4.95-9.19c1.53,1.06,3.52,2.12,5.97,3.18c2.44,1.06,5.26,1.59,8.44,1.59c5.95,0,8.93-1.47,8.93-4.42c0-0.82-0.35-1.55-1.06-2.17
		c-0.71-0.62-1.65-1.18-2.83-1.68c-1.18-0.5-2.52-0.97-4.02-1.41c-1.5-0.44-3.05-0.93-4.64-1.46c-1.71-0.53-3.39-1.13-5.04-1.81
		c-1.65-0.68-3.11-1.52-4.38-2.52c-1.27-1-2.3-2.19-3.09-3.58c-0.8-1.38-1.19-3.11-1.19-5.17c0-2.06,0.5-3.93,1.5-5.61
		c1-1.68,2.37-3.12,4.11-4.33c1.74-1.21,3.79-2.14,6.14-2.78C328.85,61.04,331.38,60.71,334.09,60.71z"/>
	<path fill="#043342" d="M355.13,48.69c0-2,0.69-3.68,2.08-5.04c1.38-1.35,3.08-2.03,5.08-2.03c1.94,0,3.61,0.66,4.99,1.99
		c1.38,1.33,2.08,3.02,2.08,5.08c0,2.06-0.71,3.76-2.12,5.08c-1.41,1.33-3.06,1.99-4.95,1.99c-1.95,0-3.63-0.66-5.04-1.99
		C355.84,52.45,355.13,50.76,355.13,48.69z M368.12,61.95v45.79h-11.67V61.95H368.12z"/>
</g>
<g id="text-on">
	<path fill="#043342" d="M397.74,60.71c3.54,0,6.83,0.62,9.9,1.86c3.06,1.24,5.73,2.93,8,5.08c2.27,2.15,4.04,4.7,5.3,7.65
		c1.27,2.95,1.9,6.13,1.9,9.55c0,3.36-0.61,6.51-1.81,9.46c-1.21,2.95-2.92,5.5-5.13,7.65c-2.21,2.15-4.85,3.86-7.91,5.13
		c-3.06,1.27-6.48,1.9-10.25,1.9c-3.65,0-7.01-0.59-10.08-1.77c-3.06-1.18-5.72-2.84-7.96-4.99c-2.24-2.15-3.98-4.7-5.21-7.65
		c-1.24-2.95-1.86-6.19-1.86-9.72c0-3.3,0.63-6.42,1.9-9.37c1.27-2.95,3-5.51,5.21-7.69c2.21-2.18,4.85-3.9,7.91-5.17
		C390.72,61.35,394.08,60.71,397.74,60.71z M384.66,84.54c0,2.06,0.32,3.91,0.97,5.55c0.65,1.64,1.55,3.05,2.7,4.23
		s2.52,2.08,4.11,2.73s3.36,0.97,5.3,0.97s3.71-0.32,5.3-0.97c1.59-0.65,2.96-1.57,4.11-2.78c1.15-1.2,2.05-2.63,2.7-4.27
		c0.65-1.64,0.97-3.44,0.97-5.37c0-1.82-0.32-3.52-0.97-5.11c-0.65-1.59-1.55-2.98-2.7-4.18c-1.15-1.2-2.52-2.14-4.11-2.82
		c-1.59-0.68-3.36-1.01-5.3-1.01c-2,0-3.82,0.34-5.44,1.01c-1.62,0.68-2.99,1.6-4.11,2.77c-1.12,1.18-1.99,2.56-2.61,4.14
		C384.97,81.01,384.66,82.72,384.66,84.54z"/>
	<path fill="#043342" d="M468.01,107.74h-11.67V80.25c0-2.89-0.79-5.11-2.39-6.67c-1.59-1.56-4.15-2.34-7.69-2.34
		c-2.36,0-4.05,0.09-5.08,0.27c-1.03,0.18-1.93,0.41-2.7,0.71v35.53h-11.67v-37.3c0-1.3-0.02-2.28-0.04-2.96
		c-0.03-0.68-0.09-1.19-0.18-1.55c-0.09-0.35-0.24-0.63-0.44-0.84c-0.21-0.21-0.46-0.54-0.75-1.02c0.88-0.29,1.92-0.63,3.09-1.02
		c1.18-0.38,2.61-0.75,4.29-1.1c1.68-0.35,3.67-0.65,5.97-0.88c2.3-0.23,5.01-0.35,8.13-0.35c3.18,0,6.07,0.38,8.66,1.15
		c2.59,0.77,4.82,1.93,6.67,3.49c1.86,1.56,3.29,3.52,4.29,5.88c1,2.36,1.5,5.13,1.5,8.31V107.74z"/>
</g>

<polygon fill="#005380" points="82.51,74.4 62.3,62.1 62.3,74.65 82.51,74.65 "/>
<polygon fill="#005380" points="82.51,86.08 82.51,85.51 62.3,85.51 62.3,98.38 "/>
<rect x="-32.75" y="-216.65" fill="#ECEDED" width="595.28" height="0.06"/>
<g>
	<defs>
		<rect id="SVGID_1_" x="-32.75" y="-216.65" width="595.28" height="598.09"/>
	</defs>
	<clipPath id="SVGID_2_">
		<use xlink:href="#SVGID_1_"  overflow="visible"/>
	</clipPath>
	<g clip-path="url(#SVGID_2_)">
		<path fill="#1A171C" d="M-27.83-273.6l-2.04-6.26H-29l0.98,3.08c0.27,0.85,0.5,1.61,0.67,2.34h0.02c0.18-0.72,0.44-1.51,0.72-2.33
			l1.06-3.09h0.86l-2.24,6.26H-27.83z"/>
		<path fill="#1A171C" d="M-24.1-275.7c0.02,1.11,0.72,1.56,1.54,1.56c0.59,0,0.94-0.1,1.25-0.23l0.14,0.59
			c-0.29,0.13-0.78,0.28-1.5,0.28c-1.38,0-2.21-0.91-2.21-2.27c0-1.36,0.8-2.43,2.11-2.43c1.47,0,1.86,1.29,1.86,2.12
			c0,0.17-0.02,0.3-0.03,0.38H-24.1z M-21.7-276.29c0.01-0.52-0.21-1.33-1.13-1.33c-0.83,0-1.19,0.76-1.25,1.33H-21.7z"/>
		<path fill="#1A171C" d="M-16.13-274.83c0,0.46,0.01,0.87,0.04,1.23h-0.72l-0.05-0.73h-0.02c-0.21,0.36-0.69,0.84-1.49,0.84
			c-0.71,0-1.55-0.39-1.55-1.97v-2.63h0.82v2.49c0,0.85,0.26,1.43,1,1.43c0.55,0,0.93-0.38,1.08-0.74c0.05-0.12,0.07-0.27,0.07-0.42
			v-2.76h0.82V-274.83z"/>
		<path fill="#1A171C" d="M-13.87-279.36c0.01,0.28-0.19,0.5-0.52,0.5c-0.29,0-0.49-0.22-0.49-0.5c0-0.29,0.21-0.51,0.51-0.51
			C-14.06-279.88-13.87-279.65-13.87-279.36z M-14.78-273.6v-4.5h0.82v4.5H-14.78z"/>
		<path fill="#1A171C" d="M-12.6-280.2h0.82v6.6h-0.82V-280.2z"/>
		<path fill="#1A171C" d="M-10.41-280.2h0.82v6.6h-0.82V-280.2z"/>
		<path fill="#1A171C" d="M-7.76-275.7c0.02,1.11,0.72,1.56,1.54,1.56c0.59,0,0.94-0.1,1.25-0.23l0.14,0.59
			c-0.29,0.13-0.78,0.28-1.5,0.28c-1.38,0-2.21-0.91-2.21-2.27c0-1.36,0.8-2.43,2.11-2.43c1.47,0,1.86,1.29,1.86,2.12
			c0,0.17-0.02,0.3-0.03,0.38H-7.76z M-5.37-276.29c0.01-0.52-0.21-1.33-1.13-1.33c-0.83,0-1.19,0.76-1.25,1.33H-5.37z"/>
		<path fill="#1A171C" d="M-4.07-274.08l2.03-2.65c0.2-0.24,0.38-0.46,0.59-0.7v-0.02h-2.43v-0.66h3.43l-0.01,0.51l-2.01,2.61
			c-0.19,0.25-0.37,0.47-0.58,0.71v0.02h2.63v0.65h-3.65V-274.08z"/>
		<path fill="#1A171C" d="M5.59-273.77c-0.21,0.11-0.69,0.26-1.29,0.26c-1.36,0-2.24-0.92-2.24-2.29c0-1.38,0.95-2.39,2.42-2.39
			c0.48,0,0.91,0.12,1.13,0.23l-0.19,0.63c-0.2-0.11-0.5-0.21-0.95-0.21c-1.03,0-1.59,0.76-1.59,1.7c0,1.04,0.67,1.68,1.56,1.68
			c0.46,0,0.77-0.12,1-0.22L5.59-273.77z"/>
		<path fill="#1A171C" d="M10.62-275.89c0,1.66-1.15,2.39-2.24,2.39c-1.22,0-2.16-0.89-2.16-2.31c0-1.51,0.98-2.39,2.23-2.39
			C9.74-278.2,10.62-277.26,10.62-275.89z M7.05-275.84c0,0.99,0.57,1.73,1.37,1.73c0.78,0,1.37-0.73,1.37-1.75
			c0-0.76-0.38-1.73-1.35-1.73C7.47-277.59,7.05-276.7,7.05-275.84z"/>
		<path fill="#1A171C" d="M11.65-276.88c0-0.46-0.01-0.85-0.04-1.22h0.73l0.05,0.74h0.02c0.22-0.43,0.74-0.85,1.49-0.85
			c0.62,0,1.59,0.37,1.59,1.91v2.69h-0.82v-2.59c0-0.72-0.27-1.33-1.04-1.33c-0.54,0-0.96,0.38-1.1,0.84
			c-0.04,0.1-0.06,0.24-0.06,0.38v2.7h-0.82V-276.88z"/>
		<path fill="#1A171C" d="M17.79-279.39v1.29h1.17v0.62h-1.17v2.43c0,0.56,0.16,0.87,0.61,0.87c0.21,0,0.37-0.03,0.47-0.06
			l0.04,0.61c-0.16,0.06-0.41,0.11-0.72,0.11c-0.38,0-0.69-0.12-0.88-0.34c-0.23-0.24-0.32-0.64-0.32-1.17v-2.45h-0.7v-0.62h0.7
			v-1.08L17.79-279.39z"/>
		<path fill="#1A171C" d="M22.37-273.6l-0.07-0.57h-0.03c-0.25,0.35-0.73,0.67-1.38,0.67c-0.91,0-1.38-0.64-1.38-1.29
			c0-1.09,0.97-1.68,2.7-1.67v-0.09c0-0.37-0.1-1.04-1.02-1.04c-0.42,0-0.85,0.13-1.17,0.33l-0.19-0.54c0.37-0.24,0.91-0.4,1.48-0.4
			c1.38,0,1.71,0.94,1.71,1.84v1.68c0,0.39,0.02,0.77,0.07,1.08H22.37z M22.25-275.9c-0.89-0.02-1.9,0.14-1.9,1.01
			c0,0.53,0.35,0.78,0.77,0.78c0.59,0,0.96-0.37,1.09-0.75c0.03-0.08,0.05-0.18,0.05-0.26V-275.9z"/>
		<path fill="#1A171C" d="M27.56-273.77c-0.21,0.11-0.69,0.26-1.29,0.26c-1.36,0-2.24-0.92-2.24-2.29c0-1.38,0.95-2.39,2.42-2.39
			c0.48,0,0.91,0.12,1.13,0.23l-0.19,0.63c-0.19-0.11-0.5-0.21-0.95-0.21c-1.03,0-1.59,0.76-1.59,1.7c0,1.04,0.67,1.68,1.56,1.68
			c0.46,0,0.77-0.12,1-0.22L27.56-273.77z"/>
		<path fill="#1A171C" d="M29.51-279.39v1.29h1.17v0.62h-1.17v2.43c0,0.56,0.16,0.87,0.61,0.87c0.21,0,0.37-0.03,0.47-0.06
			l0.04,0.61c-0.16,0.06-0.41,0.11-0.72,0.11c-0.38,0-0.69-0.12-0.88-0.34c-0.23-0.24-0.32-0.64-0.32-1.17v-2.45h-0.7v-0.62h0.7
			v-1.08L29.51-279.39z"/>
		<path fill="#1A171C" d="M32.05-275.7c0.02,1.11,0.72,1.56,1.54,1.56c0.59,0,0.94-0.1,1.25-0.23l0.14,0.59
			c-0.29,0.13-0.78,0.28-1.5,0.28c-1.38,0-2.21-0.91-2.21-2.27c0-1.36,0.8-2.43,2.11-2.43c1.47,0,1.86,1.29,1.86,2.12
			c0,0.17-0.02,0.3-0.03,0.38H32.05z M34.45-276.29c0.01-0.52-0.21-1.33-1.13-1.33c-0.83,0-1.19,0.76-1.25,1.33H34.45z"/>
		<path fill="#1A171C" d="M36.25-276.7c0-0.53-0.01-0.99-0.04-1.4h0.72l0.03,0.88H37c0.2-0.6,0.7-0.98,1.25-0.98
			c0.09,0,0.16,0.01,0.23,0.03v0.77c-0.08-0.02-0.17-0.03-0.28-0.03c-0.58,0-0.98,0.44-1.1,1.05c-0.02,0.11-0.04,0.24-0.04,0.38v2.4
			h-0.81V-276.7z"/>
	</g>
	<g clip-path="url(#SVGID_2_)">
		<path fill="#1A171C" d="M-28.19-261.77l-1.59-6.26h0.85l0.74,3.17c0.19,0.78,0.35,1.56,0.46,2.17h0.02
			c0.1-0.62,0.3-1.37,0.51-2.17l0.84-3.16h0.85l0.76,3.18c0.18,0.74,0.34,1.49,0.44,2.15h0.02c0.13-0.69,0.31-1.38,0.5-2.17
			l0.83-3.16h0.83l-1.77,6.26h-0.85l-0.79-3.26c-0.2-0.8-0.33-1.41-0.41-2.04h-0.02c-0.11,0.62-0.25,1.24-0.48,2.04l-0.89,3.26
			H-28.19z"/>
		<path fill="#1A171C" d="M-20.67-263.75l-0.65,1.97h-0.84l2.13-6.26h0.98l2.14,6.26h-0.86l-0.67-1.97H-20.67z M-18.62-264.38
			l-0.61-1.8c-0.14-0.41-0.23-0.78-0.33-1.14h-0.02c-0.09,0.37-0.19,0.75-0.32,1.13l-0.61,1.81H-18.62z"/>
		<path fill="#1A171C" d="M-11.23-262.05c-0.36,0.13-1.08,0.34-1.92,0.34c-0.95,0-1.73-0.24-2.34-0.83
			c-0.54-0.52-0.87-1.36-0.87-2.33c0.01-1.87,1.29-3.23,3.39-3.23c0.72,0,1.29,0.16,1.56,0.29l-0.2,0.66
			c-0.33-0.15-0.75-0.27-1.38-0.27c-1.52,0-2.52,0.95-2.52,2.52c0,1.59,0.96,2.53,2.42,2.53c0.53,0,0.89-0.07,1.08-0.17v-1.87h-1.27
			v-0.65h2.06V-262.05z"/>
		<path fill="#1A171C" d="M-6.07-261.77c-0.18-0.18-0.34-0.35-0.59-0.61c-0.54,0.5-1.14,0.72-1.83,0.72c-1.22,0-1.92-0.82-1.92-1.76
			c0-0.85,0.51-1.44,1.23-1.83v-0.03c-0.33-0.41-0.52-0.86-0.52-1.31c0-0.76,0.55-1.54,1.59-1.54c0.78,0,1.38,0.52,1.38,1.33
			c0,0.66-0.38,1.18-1.38,1.67v0.03c0.53,0.61,1.12,1.3,1.52,1.75c0.29-0.44,0.48-1.04,0.6-1.83h0.74c-0.17,0.98-0.44,1.77-0.9,2.31
			c0.33,0.35,0.66,0.71,1.03,1.11H-6.07z M-7.06-262.85c-0.37-0.41-1.07-1.17-1.77-1.97c-0.33,0.21-0.81,0.61-0.81,1.27
			c0,0.72,0.53,1.26,1.28,1.26C-7.81-262.29-7.35-262.53-7.06-262.85z M-8.96-266.67c0,0.45,0.2,0.79,0.47,1.12
			c0.63-0.36,1.04-0.7,1.04-1.23c0-0.38-0.21-0.81-0.72-0.81C-8.69-267.58-8.96-267.16-8.96-266.67z"/>
		<path fill="#1A171C" d="M-3.35-261.77l-1.59-6.26h0.85l0.74,3.17c0.19,0.78,0.35,1.56,0.46,2.17h0.02c0.1-0.62,0.3-1.37,0.51-2.17
			l0.84-3.16h0.85l0.76,3.18c0.18,0.74,0.34,1.49,0.44,2.15h0.02c0.13-0.69,0.31-1.38,0.5-2.17l0.83-3.16h0.83l-1.77,6.26H0.09
			l-0.79-3.26c-0.2-0.8-0.33-1.41-0.41-2.04h-0.02c-0.11,0.62-0.25,1.24-0.48,2.04l-0.89,3.26H-3.35z"/>
		<path fill="#1A171C" d="M4.74-261.4l2.59-6.74h0.63l-2.6,6.74H4.74z"/>
		<path fill="#1A171C" d="M11.64-261.77l-1.59-6.26h0.85l0.74,3.17c0.19,0.78,0.35,1.56,0.46,2.17h0.02c0.1-0.62,0.3-1.37,0.51-2.17
			l0.84-3.16h0.85l0.76,3.18c0.18,0.74,0.34,1.49,0.44,2.15h0.02c0.13-0.69,0.31-1.38,0.5-2.17l0.83-3.16h0.83l-1.77,6.26h-0.85
			l-0.79-3.26c-0.2-0.8-0.33-1.41-0.41-2.04h-0.02c-0.11,0.62-0.25,1.24-0.48,2.04l-0.89,3.26H11.64z"/>
		<path fill="#1A171C" d="M19.36-267.54c0.01,0.28-0.19,0.5-0.52,0.5c-0.29,0-0.49-0.22-0.49-0.5c0-0.29,0.21-0.51,0.51-0.51
			C19.16-268.05,19.36-267.82,19.36-267.54z M18.45-261.77v-4.5h0.82v4.5H18.45z"/>
		<path fill="#1A171C" d="M20.62-268.37h0.82v6.6h-0.82V-268.37z"/>
		<path fill="#1A171C" d="M22.82-268.37h0.82v2.81h0.02c0.13-0.23,0.33-0.44,0.59-0.58c0.24-0.14,0.53-0.23,0.84-0.23
			c0.6,0,1.57,0.37,1.57,1.92v2.68h-0.82v-2.58c0-0.72-0.27-1.34-1.04-1.34c-0.53,0-0.95,0.37-1.1,0.82
			c-0.05,0.11-0.06,0.23-0.06,0.39v2.71h-0.82V-268.37z"/>
		<path fill="#1A171C" d="M28.43-263.88c0.02,1.11,0.72,1.56,1.54,1.56c0.59,0,0.94-0.1,1.25-0.23l0.14,0.59
			c-0.29,0.13-0.78,0.28-1.5,0.28c-1.38,0-2.21-0.91-2.21-2.27c0-1.36,0.8-2.43,2.11-2.43c1.47,0,1.86,1.29,1.86,2.12
			c0,0.17-0.02,0.3-0.03,0.38H28.43z M30.83-264.46c0.01-0.52-0.21-1.33-1.13-1.33c-0.83,0-1.19,0.76-1.25,1.33H30.83z"/>
		<path fill="#1A171C" d="M32.63-265.06c0-0.46-0.01-0.85-0.04-1.22h0.72l0.04,0.72h0.03c0.25-0.43,0.67-0.83,1.41-0.83
			c0.61,0,1.08,0.37,1.27,0.9h0.02c0.14-0.25,0.32-0.45,0.5-0.59c0.27-0.2,0.57-0.32,0.99-0.32c0.59,0,1.48,0.39,1.48,1.95v2.65
			h-0.8v-2.55c0-0.86-0.32-1.38-0.98-1.38c-0.46,0-0.83,0.34-0.97,0.74c-0.04,0.11-0.07,0.26-0.07,0.41v2.78h-0.8v-2.69
			c0-0.72-0.32-1.24-0.94-1.24c-0.51,0-0.88,0.41-1.01,0.82c-0.05,0.12-0.06,0.26-0.06,0.4v2.71h-0.8V-265.06z"/>
		<path fill="#1A171C" d="M42.89-263.75l-0.65,1.97H41.4l2.13-6.26h0.98l2.14,6.26h-0.86l-0.67-1.97H42.89z M44.94-264.38l-0.61-1.8
			c-0.14-0.41-0.23-0.78-0.33-1.14h-0.02c-0.09,0.37-0.19,0.75-0.32,1.13l-0.61,1.81H44.94z"/>
		<path fill="#1A171C" d="M47.56-267.95c0.41-0.08,0.99-0.13,1.55-0.13c0.86,0,1.42,0.16,1.81,0.51c0.32,0.28,0.49,0.71,0.49,1.19
			c0,0.83-0.52,1.38-1.18,1.6v0.03c0.48,0.17,0.77,0.61,0.92,1.26c0.2,0.87,0.35,1.48,0.48,1.72H50.8c-0.1-0.18-0.24-0.72-0.42-1.5
			c-0.19-0.86-0.52-1.19-1.25-1.22h-0.76v2.71h-0.81V-267.95z M48.37-265.1h0.83c0.86,0,1.41-0.47,1.41-1.19
			c0-0.81-0.59-1.16-1.44-1.17c-0.39,0-0.67,0.04-0.8,0.07V-265.1z"/>
		<path fill="#1A171C" d="M52.56-261.77v-6.26h0.88l2.01,3.17c0.46,0.73,0.83,1.39,1.12,2.03l0.02-0.01
			c-0.07-0.84-0.09-1.6-0.09-2.57v-2.62h0.76v6.26h-0.82l-1.99-3.18c-0.44-0.7-0.85-1.41-1.17-2.09l-0.03,0.01
			c0.05,0.79,0.06,1.54,0.06,2.58v2.68H52.56z"/>
		<path fill="#1A171C" d="M64.02-264.97c0,2.16-1.31,3.3-2.91,3.3c-1.65,0-2.82-1.28-2.82-3.18c0-1.99,1.24-3.29,2.91-3.29
			C62.92-268.14,64.02-266.83,64.02-264.97z M59.17-264.87c0,1.34,0.72,2.54,2,2.54c1.28,0,2.01-1.18,2.01-2.6
			c0-1.25-0.65-2.55-2-2.55C59.83-267.48,59.17-266.24,59.17-264.87z"/>
		<path fill="#1A171C" d="M65.07-268.04h0.81v5.58h2.68v0.68h-3.48V-268.04z"/>
		<path fill="#1A171C" d="M69.46-267.95c0.49-0.07,1.08-0.13,1.72-0.13c1.16,0,1.99,0.27,2.54,0.78c0.56,0.51,0.88,1.24,0.88,2.25
			c0,1.02-0.32,1.86-0.9,2.43c-0.59,0.59-1.55,0.9-2.77,0.9c-0.58,0-1.06-0.03-1.47-0.07V-267.95z M70.27-262.42
			c0.2,0.04,0.5,0.05,0.82,0.05c1.73,0,2.67-0.97,2.67-2.66c0.01-1.48-0.83-2.42-2.54-2.42c-0.42,0-0.73,0.04-0.95,0.08V-262.42z"/>
		<path fill="#1A171C" d="M77.04-261.77v-2.66l-1.98-3.61h0.92l0.88,1.73c0.24,0.47,0.43,0.85,0.62,1.29h0.02
			c0.18-0.41,0.39-0.82,0.63-1.29l0.9-1.73h0.92l-2.1,3.6v2.67H77.04z"/>
		<path fill="#1A171C" d="M78.93-260.63c0.2-0.55,0.46-1.54,0.56-2.22l0.91-0.09c-0.21,0.79-0.62,1.82-0.88,2.26L78.93-260.63z"/>
		<path fill="#1A171C" d="M88.15-262.05c-0.36,0.13-1.08,0.34-1.92,0.34c-0.95,0-1.73-0.24-2.34-0.83
			c-0.54-0.52-0.87-1.36-0.87-2.33c0.01-1.87,1.29-3.23,3.39-3.23c0.72,0,1.29,0.16,1.56,0.29l-0.2,0.66
			c-0.33-0.15-0.75-0.27-1.38-0.27c-1.52,0-2.52,0.95-2.52,2.52c0,1.59,0.96,2.53,2.42,2.53c0.53,0,0.89-0.07,1.08-0.17v-1.87h-1.27
			v-0.65h2.06V-262.05z"/>
		<path fill="#1A171C" d="M89.35-264.87c0-0.53-0.01-0.99-0.04-1.4h0.72l0.03,0.88h0.04c0.2-0.6,0.7-0.98,1.25-0.98
			c0.09,0,0.16,0.01,0.23,0.03v0.77c-0.08-0.02-0.17-0.03-0.28-0.03c-0.58,0-0.99,0.44-1.1,1.05c-0.02,0.11-0.04,0.24-0.04,0.38v2.4
			h-0.81V-264.87z"/>
		<path fill="#1A171C" d="M94.88-261.77l-0.07-0.57h-0.03c-0.25,0.35-0.73,0.67-1.38,0.67c-0.91,0-1.38-0.64-1.38-1.29
			c0-1.09,0.97-1.68,2.7-1.67v-0.09c0-0.37-0.1-1.04-1.02-1.04c-0.42,0-0.85,0.13-1.17,0.33l-0.19-0.54c0.37-0.24,0.91-0.4,1.48-0.4
			c1.38,0,1.71,0.94,1.71,1.84v1.68c0,0.39,0.02,0.77,0.07,1.08H94.88z M94.76-264.07c-0.89-0.02-1.9,0.14-1.9,1.01
			c0,0.53,0.35,0.78,0.77,0.78c0.59,0,0.96-0.37,1.09-0.75c0.03-0.08,0.05-0.18,0.05-0.26V-264.07z"/>
		<path fill="#1A171C" d="M96.87-264.8c0-0.58-0.02-1.04-0.04-1.47h0.73l0.04,0.77h0.02c0.33-0.55,0.86-0.87,1.6-0.87
			c1.09,0,1.91,0.92,1.91,2.29c0,1.62-0.99,2.42-2.04,2.42c-0.59,0-1.12-0.26-1.38-0.71h-0.02v2.44h-0.81V-264.8z M97.68-263.61
			c0,0.12,0.02,0.23,0.04,0.33c0.15,0.57,0.64,0.96,1.23,0.96c0.86,0,1.37-0.71,1.37-1.74c0-0.9-0.47-1.67-1.34-1.67
			c-0.56,0-1.08,0.4-1.24,1.01c-0.03,0.1-0.06,0.22-0.06,0.33V-263.61z"/>
		<path fill="#1A171C" d="M102.16-268.37h0.82v2.81h0.02c0.13-0.23,0.33-0.44,0.59-0.58c0.24-0.14,0.53-0.23,0.84-0.23
			c0.6,0,1.57,0.37,1.57,1.92v2.68h-0.82v-2.58c0-0.72-0.27-1.34-1.04-1.34c-0.53,0-0.95,0.37-1.1,0.82
			c-0.05,0.11-0.06,0.23-0.06,0.39v2.71h-0.82V-268.37z"/>
		<path fill="#1A171C" d="M108.23-267.54c0.01,0.28-0.19,0.5-0.52,0.5c-0.29,0-0.49-0.22-0.49-0.5c0-0.29,0.21-0.51,0.51-0.51
			C108.03-268.05,108.23-267.82,108.23-267.54z M107.31-261.77v-4.5h0.82v4.5H107.31z"/>
		<path fill="#1A171C" d="M109.38-262.61c0.24,0.16,0.67,0.33,1.08,0.33c0.59,0,0.87-0.3,0.87-0.67c0-0.39-0.23-0.6-0.84-0.83
			c-0.81-0.29-1.19-0.73-1.19-1.27c0-0.72,0.59-1.32,1.55-1.32c0.46,0,0.85,0.13,1.11,0.28l-0.2,0.59c-0.18-0.11-0.5-0.26-0.92-0.26
			c-0.48,0-0.75,0.28-0.75,0.61c0,0.37,0.27,0.54,0.85,0.76c0.78,0.3,1.18,0.69,1.18,1.36c0,0.79-0.61,1.35-1.68,1.35
			c-0.49,0-0.95-0.12-1.26-0.31L109.38-262.61z"/>
		<path fill="#1A171C" d="M114.15-267.56v1.29h1.17v0.62h-1.17v2.43c0,0.56,0.16,0.87,0.61,0.87c0.21,0,0.37-0.03,0.47-0.06
			l0.04,0.61c-0.16,0.06-0.41,0.11-0.72,0.11c-0.38,0-0.69-0.12-0.88-0.34c-0.23-0.24-0.32-0.64-0.32-1.17v-2.45h-0.7v-0.62h0.7
			v-1.08L114.15-267.56z"/>
		<path fill="#1A171C" d="M116.7-263.88c0.02,1.11,0.72,1.56,1.54,1.56c0.59,0,0.94-0.1,1.25-0.23l0.14,0.59
			c-0.29,0.13-0.78,0.28-1.5,0.28c-1.38,0-2.21-0.91-2.21-2.27c0-1.36,0.8-2.43,2.11-2.43c1.47,0,1.86,1.29,1.86,2.12
			c0,0.17-0.02,0.3-0.03,0.38H116.7z M119.1-264.46c0.01-0.52-0.21-1.33-1.13-1.33c-0.83,0-1.19,0.76-1.25,1.33H119.1z"/>
		<path fill="#1A171C" d="M123.78-267.54c0.01,0.28-0.19,0.5-0.52,0.5c-0.29,0-0.49-0.22-0.49-0.5c0-0.29,0.21-0.51,0.51-0.51
			C123.58-268.05,123.78-267.82,123.78-267.54z M122.87-261.77v-4.5h0.82v4.5H122.87z"/>
		<path fill="#1A171C" d="M125.04-265.06c0-0.46-0.01-0.85-0.04-1.22h0.73l0.05,0.74h0.02c0.22-0.43,0.74-0.85,1.49-0.85
			c0.62,0,1.59,0.37,1.59,1.91v2.69h-0.82v-2.59c0-0.72-0.27-1.33-1.04-1.33c-0.54,0-0.96,0.38-1.1,0.84
			c-0.04,0.1-0.06,0.24-0.06,0.38v2.7h-0.82V-265.06z"/>
		<path fill="#1A171C" d="M134.08-268.37v5.44c0,0.4,0.01,0.85,0.04,1.16h-0.73l-0.04-0.78h-0.02c-0.25,0.5-0.8,0.88-1.53,0.88
			c-1.09,0-1.92-0.92-1.92-2.29c-0.01-1.5,0.92-2.42,2.02-2.42c0.69,0,1.15,0.33,1.36,0.69h0.02v-2.69H134.08z M133.27-264.44
			c0-0.1-0.01-0.24-0.04-0.34c-0.12-0.52-0.57-0.95-1.18-0.95c-0.85,0-1.35,0.74-1.35,1.74c0,0.91,0.45,1.66,1.33,1.66
			c0.55,0,1.05-0.36,1.2-0.98c0.03-0.11,0.04-0.22,0.04-0.35V-264.44z"/>
		<path fill="#1A171C" d="M135.9-263.88c0.02,1.11,0.72,1.56,1.54,1.56c0.59,0,0.94-0.1,1.25-0.23l0.14,0.59
			c-0.29,0.13-0.78,0.28-1.5,0.28c-1.38,0-2.21-0.91-2.21-2.27c0-1.36,0.8-2.43,2.11-2.43c1.47,0,1.86,1.29,1.86,2.12
			c0,0.17-0.02,0.3-0.03,0.38H135.9z M138.29-264.46c0.01-0.52-0.21-1.33-1.13-1.33c-0.83,0-1.19,0.76-1.25,1.33H138.29z
			 M138.49-268.21l-1.13,1.33h-0.59l0.82-1.33H138.49z"/>
		<path fill="#1A171C" d="M140.1-264.8c0-0.58-0.02-1.04-0.04-1.47h0.73l0.04,0.77h0.02c0.33-0.55,0.86-0.87,1.6-0.87
			c1.09,0,1.91,0.92,1.91,2.29c0,1.62-0.99,2.42-2.04,2.42c-0.59,0-1.12-0.26-1.38-0.71h-0.02v2.44h-0.81V-264.8z M140.9-263.61
			c0,0.12,0.02,0.23,0.04,0.33c0.15,0.57,0.64,0.96,1.23,0.96c0.86,0,1.37-0.71,1.37-1.74c0-0.9-0.47-1.67-1.34-1.67
			c-0.56,0-1.08,0.4-1.24,1.01c-0.03,0.1-0.06,0.22-0.06,0.33V-263.61z"/>
		<path fill="#1A171C" d="M145.84-263.88c0.02,1.11,0.72,1.56,1.54,1.56c0.59,0,0.94-0.1,1.25-0.23l0.14,0.59
			c-0.29,0.13-0.78,0.28-1.5,0.28c-1.38,0-2.21-0.91-2.21-2.27c0-1.36,0.8-2.43,2.11-2.43c1.47,0,1.86,1.29,1.86,2.12
			c0,0.17-0.02,0.3-0.03,0.38H145.84z M148.24-264.46c0.01-0.52-0.21-1.33-1.13-1.33c-0.83,0-1.19,0.76-1.25,1.33H148.24z"/>
		<path fill="#1A171C" d="M150.04-265.06c0-0.46-0.01-0.85-0.04-1.22h0.73l0.05,0.74h0.02c0.22-0.43,0.74-0.85,1.49-0.85
			c0.62,0,1.59,0.37,1.59,1.91v2.69h-0.82v-2.59c0-0.72-0.27-1.33-1.04-1.33c-0.54,0-0.96,0.38-1.1,0.84
			c-0.04,0.1-0.06,0.24-0.06,0.38v2.7h-0.82V-265.06z"/>
		<path fill="#1A171C" d="M159.08-268.37v5.44c0,0.4,0.01,0.85,0.04,1.16h-0.73l-0.04-0.78h-0.02c-0.25,0.5-0.8,0.88-1.53,0.88
			c-1.09,0-1.92-0.92-1.92-2.29c-0.01-1.5,0.92-2.42,2.02-2.42c0.69,0,1.15,0.33,1.36,0.69h0.02v-2.69H159.08z M158.26-264.44
			c0-0.1-0.01-0.24-0.04-0.34c-0.12-0.52-0.57-0.95-1.18-0.95c-0.85,0-1.35,0.74-1.35,1.74c0,0.91,0.45,1.66,1.33,1.66
			c0.55,0,1.05-0.36,1.2-0.98c0.03-0.11,0.04-0.22,0.04-0.35V-264.44z"/>
		<path fill="#1A171C" d="M162.93-261.77l-0.07-0.57h-0.03c-0.25,0.35-0.73,0.67-1.38,0.67c-0.91,0-1.38-0.64-1.38-1.29
			c0-1.09,0.97-1.68,2.7-1.67v-0.09c0-0.37-0.1-1.04-1.02-1.04c-0.42,0-0.85,0.13-1.17,0.33l-0.19-0.54c0.37-0.24,0.91-0.4,1.48-0.4
			c1.38,0,1.71,0.94,1.71,1.84v1.68c0,0.39,0.02,0.77,0.07,1.08H162.93z M162.81-264.07c-0.89-0.02-1.9,0.14-1.9,1.01
			c0,0.53,0.35,0.78,0.77,0.78c0.59,0,0.96-0.37,1.09-0.75c0.03-0.08,0.05-0.18,0.05-0.26V-264.07z"/>
		<path fill="#1A171C" d="M164.91-265.06c0-0.46-0.01-0.85-0.04-1.22h0.73l0.05,0.74h0.02c0.22-0.43,0.74-0.85,1.49-0.85
			c0.62,0,1.59,0.37,1.59,1.91v2.69h-0.82v-2.59c0-0.72-0.27-1.33-1.04-1.33c-0.54,0-0.96,0.38-1.1,0.84
			c-0.04,0.1-0.06,0.24-0.06,0.38v2.7h-0.82V-265.06z"/>
		<path fill="#1A171C" d="M171.06-267.56v1.29h1.17v0.62h-1.17v2.43c0,0.56,0.16,0.87,0.61,0.87c0.21,0,0.37-0.03,0.47-0.06
			l0.04,0.61c-0.16,0.06-0.41,0.11-0.72,0.11c-0.38,0-0.69-0.12-0.88-0.34c-0.23-0.24-0.32-0.64-0.32-1.17v-2.45h-0.7v-0.62h0.7
			v-1.08L171.06-267.56z"/>
		<path fill="#1A171C" d="M174.43-261.4l2.59-6.74h0.63l-2.6,6.74H174.43z"/>
		<path fill="#1A171C" d="M183.48-261.94c-0.21,0.11-0.69,0.26-1.29,0.26c-1.36,0-2.24-0.92-2.24-2.29c0-1.38,0.95-2.39,2.42-2.39
			c0.48,0,0.91,0.12,1.13,0.23l-0.19,0.63c-0.19-0.11-0.5-0.21-0.95-0.21c-1.03,0-1.59,0.76-1.59,1.7c0,1.04,0.67,1.68,1.56,1.68
			c0.46,0,0.77-0.12,1-0.22L183.48-261.94z"/>
		<path fill="#1A171C" d="M188.51-264.06c0,1.66-1.15,2.39-2.24,2.39c-1.22,0-2.16-0.89-2.16-2.31c0-1.51,0.98-2.39,2.23-2.39
			C187.63-266.37,188.51-265.44,188.51-264.06z M184.94-264.01c0,0.99,0.57,1.73,1.37,1.73c0.78,0,1.37-0.73,1.37-1.75
			c0-0.76-0.38-1.73-1.35-1.73C185.36-265.76,184.94-264.87,184.94-264.01z"/>
		<path fill="#1A171C" d="M189.54-265.06c0-0.46-0.01-0.85-0.04-1.22h0.73l0.05,0.74h0.02c0.22-0.43,0.74-0.85,1.49-0.85
			c0.62,0,1.59,0.37,1.59,1.91v2.69h-0.82v-2.59c0-0.72-0.27-1.33-1.04-1.33c-0.54,0-0.96,0.38-1.1,0.84
			c-0.04,0.1-0.06,0.24-0.06,0.38v2.7h-0.82V-265.06z"/>
		<path fill="#1A171C" d="M195.68-267.56v1.29h1.17v0.62h-1.17v2.43c0,0.56,0.16,0.87,0.61,0.87c0.21,0,0.37-0.03,0.47-0.06
			l0.04,0.61c-0.16,0.06-0.41,0.11-0.72,0.11c-0.38,0-0.69-0.12-0.88-0.34c-0.23-0.24-0.32-0.64-0.32-1.17v-2.45h-0.7v-0.62h0.7
			v-1.08L195.68-267.56z"/>
		<path fill="#1A171C" d="M200.26-261.77l-0.07-0.57h-0.03c-0.25,0.35-0.73,0.67-1.38,0.67c-0.91,0-1.38-0.64-1.38-1.29
			c0-1.09,0.97-1.68,2.7-1.67v-0.09c0-0.37-0.1-1.04-1.02-1.04c-0.42,0-0.85,0.13-1.17,0.33l-0.19-0.54c0.37-0.24,0.91-0.4,1.48-0.4
			c1.38,0,1.71,0.94,1.71,1.84v1.68c0,0.39,0.02,0.77,0.07,1.08H200.26z M200.14-264.07c-0.89-0.02-1.9,0.14-1.9,1.01
			c0,0.53,0.35,0.78,0.77,0.78c0.59,0,0.96-0.37,1.09-0.75c0.03-0.08,0.05-0.18,0.05-0.26V-264.07z"/>
		<path fill="#1A171C" d="M205.45-261.94c-0.21,0.11-0.69,0.26-1.29,0.26c-1.36,0-2.24-0.92-2.24-2.29c0-1.38,0.95-2.39,2.42-2.39
			c0.48,0,0.91,0.12,1.13,0.23l-0.19,0.63c-0.2-0.11-0.5-0.21-0.95-0.21c-1.03,0-1.59,0.76-1.59,1.7c0,1.04,0.67,1.68,1.56,1.68
			c0.46,0,0.77-0.12,1-0.22L205.45-261.94z"/>
		<path fill="#1A171C" d="M207.4-267.56v1.29h1.17v0.62h-1.17v2.43c0,0.56,0.16,0.87,0.61,0.87c0.21,0,0.37-0.03,0.47-0.06
			l0.04,0.61c-0.16,0.06-0.41,0.11-0.72,0.11c-0.38,0-0.69-0.12-0.88-0.34c-0.23-0.24-0.32-0.64-0.32-1.17v-2.45h-0.7v-0.62h0.7
			v-1.08L207.4-267.56z"/>
		<path fill="#1A171C" d="M213.68-261.18c-0.51,0.27-1.03,0.37-1.65,0.37c-1.52,0-2.82-1.12-2.82-2.9c0-1.91,1.33-3.57,3.39-3.57
			c1.62,0,2.7,1.13,2.7,2.69c0,1.39-0.78,2.21-1.65,2.21c-0.37,0-0.72-0.25-0.69-0.82h-0.04c-0.33,0.55-0.75,0.82-1.31,0.82
			c-0.54,0-1-0.44-1-1.17c0-1.15,0.91-2.2,2.2-2.2c0.4,0,0.75,0.08,0.99,0.19l-0.32,1.68c-0.14,0.71-0.03,1.03,0.28,1.04
			c0.47,0.01,1-0.62,1-1.7c0-1.35-0.81-2.31-2.25-2.31c-1.52,0-2.79,1.2-2.79,3.08c0,1.55,1.01,2.51,2.39,2.51
			c0.53,0,1.02-0.11,1.4-0.33L213.68-261.18z M213.17-265.19c-0.09-0.03-0.25-0.07-0.46-0.07c-0.82,0-1.48,0.77-1.48,1.67
			c0,0.41,0.2,0.71,0.61,0.71c0.54,0,1.03-0.69,1.13-1.26L213.17-265.19z"/>
		<path fill="#1A171C" d="M216.66-266.27l0.59,2.29c0.13,0.5,0.25,0.97,0.33,1.43h0.03c0.1-0.46,0.25-0.94,0.4-1.42l0.73-2.3h0.69
			l0.7,2.25c0.17,0.54,0.3,1.01,0.4,1.47h0.03c0.07-0.46,0.2-0.93,0.34-1.46l0.64-2.26h0.81l-1.45,4.5h-0.74l-0.69-2.15
			c-0.16-0.5-0.29-0.95-0.4-1.48h-0.02c-0.11,0.54-0.25,1-0.41,1.49l-0.72,2.14h-0.74l-1.36-4.5H216.66z"/>
		<path fill="#1A171C" d="M224.08-267.54c0.01,0.28-0.19,0.5-0.52,0.5c-0.29,0-0.49-0.22-0.49-0.5c0-0.29,0.21-0.51,0.51-0.51
			C223.89-268.05,224.08-267.82,224.08-267.54z M223.17-261.77v-4.5h0.82v4.5H223.17z"/>
		<path fill="#1A171C" d="M225.35-268.37h0.82v6.6h-0.82V-268.37z"/>
		<path fill="#1A171C" d="M227.54-268.37h0.82v2.81h0.02c0.13-0.23,0.33-0.44,0.59-0.58c0.24-0.14,0.53-0.23,0.84-0.23
			c0.6,0,1.57,0.37,1.57,1.92v2.68h-0.82v-2.58c0-0.72-0.27-1.34-1.04-1.34c-0.53,0-0.95,0.37-1.1,0.82
			c-0.05,0.11-0.06,0.23-0.06,0.39v2.71h-0.82V-268.37z"/>
		<path fill="#1A171C" d="M233.15-263.88c0.02,1.11,0.72,1.56,1.54,1.56c0.59,0,0.94-0.1,1.25-0.23l0.14,0.59
			c-0.29,0.13-0.78,0.28-1.5,0.28c-1.38,0-2.21-0.91-2.21-2.27c0-1.36,0.8-2.43,2.11-2.43c1.47,0,1.86,1.29,1.86,2.12
			c0,0.17-0.02,0.3-0.03,0.38H233.15z M235.55-264.46c0.01-0.52-0.21-1.33-1.13-1.33c-0.83,0-1.19,0.76-1.25,1.33H235.55z"/>
		<path fill="#1A171C" d="M237.35-265.06c0-0.46-0.01-0.85-0.04-1.22h0.72l0.04,0.72h0.03c0.25-0.43,0.67-0.83,1.41-0.83
			c0.61,0,1.08,0.37,1.27,0.9h0.02c0.14-0.25,0.32-0.45,0.5-0.59c0.27-0.2,0.57-0.32,0.99-0.32c0.59,0,1.48,0.39,1.48,1.95v2.65
			h-0.8v-2.55c0-0.86-0.32-1.38-0.98-1.38c-0.46,0-0.83,0.34-0.97,0.74c-0.04,0.11-0.07,0.26-0.07,0.41v2.78h-0.8v-2.69
			c0-0.72-0.32-1.24-0.94-1.24c-0.51,0-0.88,0.41-1.01,0.82c-0.05,0.12-0.06,0.26-0.06,0.4v2.71h-0.8V-265.06z"/>
		<path fill="#1A171C" d="M247.59-261.77l-0.07-0.57h-0.03c-0.25,0.35-0.73,0.67-1.38,0.67c-0.91,0-1.38-0.64-1.38-1.29
			c0-1.09,0.97-1.68,2.7-1.67v-0.09c0-0.37-0.1-1.04-1.02-1.04c-0.42,0-0.85,0.13-1.17,0.33l-0.19-0.54c0.37-0.24,0.91-0.4,1.48-0.4
			c1.38,0,1.71,0.94,1.71,1.84v1.68c0,0.39,0.02,0.77,0.07,1.08H247.59z M247.47-264.07c-0.89-0.02-1.9,0.14-1.9,1.01
			c0,0.53,0.35,0.78,0.77,0.78c0.59,0,0.96-0.37,1.09-0.75c0.03-0.08,0.05-0.18,0.05-0.26V-264.07z"/>
		<path fill="#1A171C" d="M249.58-264.87c0-0.53-0.01-0.99-0.04-1.4h0.72l0.03,0.88h0.04c0.2-0.6,0.7-0.98,1.25-0.98
			c0.09,0,0.16,0.01,0.23,0.03v0.77c-0.08-0.02-0.17-0.03-0.28-0.03c-0.58,0-0.98,0.44-1.1,1.05c-0.02,0.11-0.04,0.24-0.04,0.38v2.4
			h-0.81V-264.87z"/>
		<path fill="#1A171C" d="M252.62-265.06c0-0.46-0.01-0.85-0.04-1.22h0.73l0.05,0.74h0.02c0.22-0.43,0.74-0.85,1.49-0.85
			c0.62,0,1.59,0.37,1.59,1.91v2.69h-0.82v-2.59c0-0.72-0.27-1.33-1.04-1.33c-0.54,0-0.96,0.38-1.1,0.84
			c-0.04,0.1-0.06,0.24-0.06,0.38v2.7h-0.82V-265.06z"/>
		<path fill="#1A171C" d="M261.85-264.06c0,1.66-1.15,2.39-2.24,2.39c-1.22,0-2.16-0.89-2.16-2.31c0-1.51,0.98-2.39,2.23-2.39
			C260.97-266.37,261.85-265.44,261.85-264.06z M258.28-264.01c0,0.99,0.57,1.73,1.37,1.73c0.78,0,1.37-0.73,1.37-1.75
			c0-0.76-0.38-1.73-1.35-1.73C258.7-265.76,258.28-264.87,258.28-264.01z"/>
		<path fill="#1A171C" d="M262.88-268.37h0.82v6.6h-0.82V-268.37z"/>
		<path fill="#1A171C" d="M268.95-268.37v5.44c0,0.4,0.01,0.85,0.04,1.16h-0.73l-0.04-0.78h-0.02c-0.25,0.5-0.8,0.88-1.53,0.88
			c-1.09,0-1.92-0.92-1.92-2.29c-0.01-1.5,0.92-2.42,2.02-2.42c0.69,0,1.15,0.33,1.36,0.69h0.02v-2.69H268.95z M268.14-264.44
			c0-0.1-0.01-0.24-0.04-0.34c-0.12-0.52-0.57-0.95-1.18-0.95c-0.85,0-1.35,0.74-1.35,1.74c0,0.91,0.45,1.66,1.33,1.66
			c0.55,0,1.05-0.36,1.2-0.98c0.03-0.11,0.04-0.22,0.04-0.35V-264.44z"/>
		<path fill="#1A171C" d="M270.61-266.27l0.99,2.66c0.1,0.3,0.21,0.65,0.29,0.92h0.02c0.08-0.27,0.18-0.61,0.29-0.94l0.89-2.64h0.86
			l-1.23,3.21c-0.58,1.54-0.98,2.33-1.54,2.82c-0.4,0.35-0.8,0.49-1,0.53l-0.2-0.69c0.2-0.07,0.47-0.2,0.71-0.4
			c0.22-0.18,0.5-0.49,0.69-0.91c0.04-0.08,0.07-0.15,0.07-0.19c0-0.05-0.02-0.11-0.06-0.21l-1.66-4.14H270.61z"/>
		<path fill="#1A171C" d="M273.8-262.26c0-0.34,0.23-0.59,0.56-0.59s0.55,0.24,0.55,0.59c0,0.33-0.21,0.59-0.56,0.59
			C274.03-261.67,273.8-261.92,273.8-262.26z"/>
		<path fill="#1A171C" d="M276.01-261.77v-3.88h-0.63v-0.62h0.63v-0.21c0-0.63,0.14-1.21,0.52-1.57c0.31-0.3,0.72-0.42,1.1-0.42
			c0.29,0,0.54,0.07,0.7,0.13l-0.11,0.63c-0.12-0.06-0.29-0.1-0.52-0.1c-0.7,0-0.87,0.61-0.87,1.3v0.24h1.09v0.62h-1.09v3.88H276.01
			z"/>
		<path fill="#1A171C" d="M278.64-264.87c0-0.53-0.01-0.99-0.04-1.4h0.71l0.03,0.88h0.04c0.2-0.6,0.7-0.98,1.25-0.98
			c0.09,0,0.16,0.01,0.23,0.03v0.77c-0.08-0.02-0.17-0.03-0.28-0.03c-0.58,0-0.98,0.44-1.1,1.05c-0.02,0.11-0.04,0.24-0.04,0.38v2.4
			h-0.81V-264.87z"/>
	</g>
	<g clip-path="url(#SVGID_2_)">
		<path fill="#1A171C" d="M-25.17-252.23c0,1.66-1.15,2.39-2.24,2.39c-1.22,0-2.16-0.89-2.16-2.31c0-1.51,0.98-2.39,2.23-2.39
			C-26.04-254.55-25.17-253.61-25.17-252.23z M-28.73-252.19c0,0.99,0.57,1.73,1.37,1.73c0.78,0,1.37-0.73,1.37-1.75
			c0-0.76-0.38-1.73-1.35-1.73C-28.32-253.93-28.73-253.04-28.73-252.19z"/>
		<path fill="#1A171C" d="M-20.37-251.17c0,0.46,0.01,0.87,0.04,1.23h-0.72l-0.05-0.73h-0.02c-0.21,0.36-0.69,0.84-1.49,0.84
			c-0.71,0-1.55-0.39-1.55-1.97v-2.63h0.82v2.49c0,0.85,0.26,1.43,1,1.43c0.55,0,0.93-0.38,1.08-0.74c0.05-0.12,0.07-0.27,0.07-0.42
			v-2.76h0.82V-251.17z"/>
		<path fill="#1A171C" d="M-16.21-256.21v2.62h3.03v-2.62h0.82v6.26h-0.82v-2.94h-3.03v2.94h-0.81v-6.26H-16.21z"/>
		<path fill="#1A171C" d="M-5.61-253.14c0,2.16-1.31,3.3-2.91,3.3c-1.65,0-2.82-1.28-2.82-3.18c0-1.99,1.24-3.29,2.91-3.29
			C-6.71-256.31-5.61-255-5.61-253.14z M-10.47-253.04c0,1.34,0.72,2.54,2,2.54c1.28,0,2.01-1.18,2.01-2.6c0-1.25-0.65-2.55-2-2.55
			C-9.8-255.65-10.47-254.42-10.47-253.04z"/>
		<path fill="#1A171C" d="M-4.56-256.21h0.81v5.58h2.68v0.68h-3.48V-256.21z"/>
		<path fill="#1A171C" d="M0.64-256.21v3.71c0,1.4,0.62,2,1.46,2c0.93,0,1.52-0.61,1.52-2v-3.71h0.82v3.65
			c0,1.92-1.01,2.71-2.37,2.71c-1.28,0-2.25-0.73-2.25-2.68v-3.69H0.64z"/>
		<path fill="#1A171C" d="M5.73-250.93c0.36,0.22,0.89,0.41,1.45,0.41c0.83,0,1.31-0.44,1.31-1.07c0-0.59-0.33-0.92-1.18-1.25
			c-1.02-0.36-1.65-0.89-1.65-1.77c0-0.98,0.81-1.7,2.03-1.7c0.64,0,1.11,0.15,1.38,0.31l-0.22,0.66c-0.2-0.11-0.62-0.3-1.19-0.3
			c-0.85,0-1.18,0.51-1.18,0.94c0,0.59,0.38,0.87,1.25,1.21c1.06,0.41,1.6,0.92,1.6,1.84c0,0.97-0.72,1.8-2.19,1.8
			c-0.6,0-1.26-0.18-1.6-0.4L5.73-250.93z"/>
		<path fill="#1A171C" d="M11.23-256.21v6.26h-0.81v-6.26H11.23z"/>
		<path fill="#1A171C" d="M17.99-253.14c0,2.16-1.31,3.3-2.91,3.3c-1.65,0-2.82-1.28-2.82-3.18c0-1.99,1.24-3.29,2.91-3.29
			C16.89-256.31,17.99-255,17.99-253.14z M13.13-253.04c0,1.34,0.72,2.54,2,2.54c1.28,0,2.01-1.18,2.01-2.6c0-1.25-0.65-2.55-2-2.55
			C13.8-255.65,13.13-254.42,13.13-253.04z"/>
		<path fill="#1A171C" d="M19.04-249.95v-6.26h0.88l2.01,3.17c0.46,0.73,0.83,1.39,1.12,2.03l0.02-0.01
			c-0.07-0.84-0.09-1.6-0.09-2.57v-2.62h0.76v6.26h-0.82l-1.99-3.18c-0.44-0.7-0.85-1.41-1.17-2.09l-0.03,0.01
			c0.05,0.79,0.06,1.54,0.06,2.58v2.68H19.04z"/>
		<path fill="#1A171C" d="M26.41-249.57l2.59-6.74h0.63l-2.6,6.74H26.41z"/>
		<path fill="#1A171C" d="M32.28-256.13c0.35-0.07,0.91-0.13,1.48-0.13c0.81,0,1.33,0.14,1.72,0.46c0.33,0.24,0.52,0.61,0.52,1.11
			c0,0.6-0.4,1.13-1.06,1.38v0.02c0.59,0.15,1.29,0.64,1.29,1.57c0,0.54-0.21,0.95-0.53,1.25c-0.44,0.4-1.14,0.59-2.17,0.59
			c-0.56,0-0.99-0.04-1.25-0.07V-256.13z M33.09-253.56h0.73c0.85,0,1.36-0.45,1.36-1.05c0-0.73-0.56-1.02-1.38-1.02
			c-0.37,0-0.58,0.03-0.72,0.06V-253.56z M33.09-250.56c0.16,0.03,0.39,0.04,0.68,0.04c0.84,0,1.61-0.31,1.61-1.22
			c0-0.85-0.73-1.21-1.62-1.21h-0.67V-250.56z"/>
		<path fill="#1A171C" d="M37.75-252.05c0.02,1.11,0.72,1.56,1.54,1.56c0.59,0,0.94-0.1,1.25-0.23l0.14,0.59
			c-0.29,0.13-0.78,0.28-1.5,0.28c-1.38,0-2.21-0.91-2.21-2.27c0-1.36,0.8-2.43,2.11-2.43c1.47,0,1.86,1.29,1.86,2.12
			c0,0.17-0.02,0.3-0.03,0.38H37.75z M40.15-252.63c0.01-0.52-0.21-1.33-1.13-1.33c-0.83,0-1.19,0.76-1.25,1.33H40.15z"/>
		<path fill="#1A171C" d="M41.95-253.23c0-0.46-0.01-0.85-0.04-1.22h0.73l0.05,0.74h0.02c0.22-0.43,0.74-0.85,1.49-0.85
			c0.62,0,1.59,0.37,1.59,1.91v2.69h-0.82v-2.59c0-0.72-0.27-1.33-1.04-1.33c-0.54,0-0.96,0.38-1.1,0.84
			c-0.04,0.1-0.06,0.24-0.06,0.38v2.7h-0.82V-253.23z"/>
		<path fill="#1A171C" d="M46.01-248.65c0.37-0.03,0.7-0.13,0.89-0.34c0.22-0.26,0.31-0.61,0.31-1.69v-3.76h0.82v4.08
			c0,0.87-0.14,1.44-0.54,1.85c-0.36,0.36-0.96,0.51-1.39,0.51L46.01-248.65z M48.12-255.71c0.01,0.27-0.19,0.5-0.51,0.5
			c-0.31,0-0.5-0.23-0.5-0.5c0-0.29,0.21-0.51,0.52-0.51C47.92-256.22,48.12-256,48.12-255.71z"/>
		<path fill="#1A171C" d="M51.85-249.95l-0.07-0.57h-0.03c-0.25,0.35-0.73,0.67-1.38,0.67c-0.91,0-1.38-0.64-1.38-1.29
			c0-1.09,0.97-1.68,2.7-1.67v-0.09c0-0.37-0.1-1.04-1.02-1.04c-0.42,0-0.85,0.13-1.17,0.33l-0.19-0.54c0.37-0.24,0.91-0.4,1.48-0.4
			c1.38,0,1.71,0.94,1.71,1.84v1.68c0,0.39,0.02,0.77,0.07,1.08H51.85z M51.73-252.24c-0.89-0.02-1.9,0.14-1.9,1.01
			c0,0.53,0.35,0.78,0.77,0.78c0.59,0,0.96-0.37,1.09-0.75c0.03-0.08,0.05-0.18,0.05-0.26V-252.24z"/>
		<path fill="#1A171C" d="M53.84-253.23c0-0.46-0.01-0.85-0.04-1.22h0.72l0.04,0.72h0.03c0.25-0.43,0.67-0.83,1.41-0.83
			c0.61,0,1.08,0.37,1.27,0.9h0.02c0.14-0.25,0.32-0.45,0.5-0.59c0.27-0.2,0.57-0.32,0.99-0.32c0.59,0,1.48,0.39,1.48,1.95v2.65
			h-0.8v-2.55c0-0.86-0.32-1.38-0.98-1.38c-0.46,0-0.83,0.34-0.97,0.74c-0.04,0.11-0.07,0.26-0.07,0.41v2.78h-0.8v-2.69
			c0-0.72-0.32-1.24-0.94-1.24c-0.51,0-0.88,0.41-1.01,0.82c-0.05,0.12-0.06,0.26-0.06,0.4v2.71h-0.8V-253.23z"/>
		<path fill="#1A171C" d="M62.5-255.71c0.01,0.28-0.19,0.5-0.52,0.5c-0.29,0-0.49-0.22-0.49-0.5c0-0.29,0.21-0.51,0.51-0.51
			C62.31-256.22,62.5-256,62.5-255.71z M61.59-249.95v-4.5h0.82v4.5H61.59z"/>
		<path fill="#1A171C" d="M63.76-253.23c0-0.46-0.01-0.85-0.04-1.22h0.73l0.05,0.74h0.02c0.22-0.43,0.74-0.85,1.49-0.85
			c0.62,0,1.59,0.37,1.59,1.91v2.69h-0.82v-2.59c0-0.72-0.27-1.33-1.04-1.33c-0.54,0-0.96,0.38-1.1,0.84
			c-0.04,0.1-0.06,0.24-0.06,0.38v2.7h-0.82V-253.23z"/>
		<path fill="#1A171C" d="M75.3-250.15c-0.3,0.15-0.89,0.3-1.65,0.3c-1.77,0-3.09-1.11-3.09-3.17c0-1.96,1.33-3.29,3.27-3.29
			c0.78,0,1.27,0.17,1.49,0.28l-0.2,0.66c-0.31-0.15-0.74-0.26-1.26-0.26c-1.47,0-2.44,0.94-2.44,2.58c0,1.53,0.88,2.52,2.41,2.52
			c0.49,0,0.99-0.1,1.32-0.26L75.3-250.15z"/>
		<path fill="#1A171C" d="M76.28-256.54h0.82v6.6h-0.82V-256.54z"/>
		<path fill="#1A171C" d="M79.38-255.71c0.01,0.28-0.19,0.5-0.52,0.5c-0.29,0-0.49-0.22-0.49-0.5c0-0.29,0.21-0.51,0.51-0.51
			C79.19-256.22,79.38-256,79.38-255.71z M78.47-249.95v-4.5h0.82v4.5H78.47z"/>
		<path fill="#1A171C" d="M83.71-250.64H83.7c-0.24,0.45-0.74,0.8-1.47,0.8c-1.05,0-1.91-0.91-1.91-2.28c0-1.68,1.09-2.43,2.04-2.43
			c0.7,0,1.16,0.34,1.38,0.78h0.02l0.03-0.68h0.77c-0.02,0.38-0.03,0.77-0.03,1.24v5.1h-0.82V-250.64z M83.71-252.62
			c0-0.11-0.01-0.24-0.04-0.34c-0.12-0.5-0.56-0.93-1.17-0.93c-0.85,0-1.36,0.72-1.36,1.73c0,0.89,0.43,1.67,1.33,1.67
			c0.53,0,0.99-0.33,1.17-0.89c0.04-0.11,0.07-0.27,0.07-0.39V-252.62z"/>
		<path fill="#1A171C" d="M89.64-251.17c0,0.46,0.01,0.87,0.04,1.23h-0.72l-0.05-0.73h-0.02c-0.21,0.36-0.69,0.84-1.49,0.84
			c-0.71,0-1.55-0.39-1.55-1.97v-2.63h0.82v2.49c0,0.85,0.26,1.43,1,1.43c0.55,0,0.93-0.38,1.08-0.74c0.05-0.12,0.07-0.27,0.07-0.42
			v-2.76h0.82V-251.17z"/>
		<path fill="#1A171C" d="M91.45-252.05c0.02,1.11,0.72,1.56,1.54,1.56c0.59,0,0.94-0.1,1.25-0.23l0.14,0.59
			c-0.29,0.13-0.78,0.28-1.5,0.28c-1.38,0-2.21-0.91-2.21-2.27c0-1.36,0.8-2.43,2.11-2.43c1.47,0,1.86,1.29,1.86,2.12
			c0,0.17-0.02,0.3-0.03,0.38H91.45z M93.85-252.63c0.01-0.52-0.21-1.33-1.13-1.33c-0.83,0-1.19,0.76-1.25,1.33H93.85z"/>
		<path fill="#1A171C" d="M95.65-253.23c0-0.46-0.01-0.85-0.04-1.22h0.73l0.05,0.74h0.02c0.22-0.43,0.74-0.85,1.49-0.85
			c0.62,0,1.59,0.37,1.59,1.91v2.69h-0.82v-2.59c0-0.72-0.27-1.33-1.04-1.33c-0.54,0-0.96,0.38-1.1,0.84
			c-0.04,0.1-0.06,0.24-0.06,0.38v2.7h-0.82V-253.23z"/>
		<path fill="#1A171C" d="M104.88-252.23c0,1.66-1.15,2.39-2.24,2.39c-1.22,0-2.16-0.89-2.16-2.31c0-1.51,0.99-2.39,2.23-2.39
			C104.01-254.55,104.88-253.61,104.88-252.23z M101.31-252.19c0,0.99,0.57,1.73,1.37,1.73c0.78,0,1.37-0.73,1.37-1.75
			c0-0.76-0.38-1.73-1.35-1.73C101.73-253.93,101.31-253.04,101.31-252.19z"/>
		<path fill="#1A171C" d="M106.82-255.71c0.01,0.28-0.19,0.5-0.52,0.5c-0.29,0-0.49-0.22-0.49-0.5c0-0.29,0.21-0.51,0.51-0.51
			C106.63-256.22,106.82-256,106.82-255.71z M105.91-249.95v-4.5h0.82v4.5H105.91z"/>
		<path fill="#1A171C" d="M107.97-250.78c0.24,0.16,0.67,0.33,1.08,0.33c0.59,0,0.87-0.3,0.87-0.67c0-0.39-0.23-0.6-0.84-0.83
			c-0.81-0.29-1.19-0.73-1.19-1.27c0-0.72,0.59-1.32,1.55-1.32c0.46,0,0.85,0.13,1.11,0.28l-0.2,0.59c-0.18-0.11-0.5-0.26-0.92-0.26
			c-0.48,0-0.75,0.28-0.75,0.61c0,0.37,0.27,0.54,0.85,0.76c0.78,0.3,1.18,0.69,1.18,1.36c0,0.79-0.61,1.35-1.68,1.35
			c-0.49,0-0.95-0.12-1.26-0.31L107.97-250.78z"/>
		<path fill="#1A171C" d="M113.05-249.57l2.59-6.74h0.63l-2.6,6.74H113.05z"/>
		<path fill="#1A171C" d="M118.89-256.54h0.82v2.81h0.02c0.13-0.23,0.33-0.44,0.59-0.58c0.24-0.14,0.53-0.23,0.84-0.23
			c0.6,0,1.57,0.37,1.57,1.92v2.68h-0.82v-2.58c0-0.72-0.27-1.34-1.04-1.34c-0.53,0-0.95,0.37-1.1,0.82
			c-0.05,0.11-0.06,0.23-0.06,0.39v2.71h-0.82V-256.54z"/>
		<path fill="#1A171C" d="M128.12-252.23c0,1.66-1.15,2.39-2.24,2.39c-1.22,0-2.16-0.89-2.16-2.31c0-1.51,0.99-2.39,2.23-2.39
			C127.25-254.55,128.12-253.61,128.12-252.23z M124.55-252.19c0,0.99,0.57,1.73,1.37,1.73c0.78,0,1.37-0.73,1.37-1.75
			c0-0.76-0.38-1.73-1.35-1.73C124.97-253.93,124.55-253.04,124.55-252.19z"/>
		<path fill="#1A171C" d="M129.15-256.54h0.82v6.6h-0.82V-256.54z"/>
		<path fill="#1A171C" d="M135.11-251.17c0,0.46,0.01,0.87,0.04,1.23h-0.72l-0.05-0.73h-0.02c-0.21,0.36-0.69,0.84-1.49,0.84
			c-0.71,0-1.55-0.39-1.55-1.97v-2.63h0.82v2.49c0,0.85,0.26,1.43,1,1.43c0.55,0,0.93-0.38,1.08-0.74c0.05-0.12,0.07-0.27,0.07-0.42
			v-2.76h0.82V-251.17z"/>
		<path fill="#1A171C" d="M136.35-250.78c0.24,0.16,0.67,0.33,1.08,0.33c0.59,0,0.87-0.3,0.87-0.67c0-0.39-0.23-0.6-0.84-0.83
			c-0.81-0.29-1.19-0.73-1.19-1.27c0-0.72,0.59-1.32,1.55-1.32c0.46,0,0.85,0.13,1.11,0.28l-0.2,0.59c-0.18-0.11-0.5-0.26-0.92-0.26
			c-0.48,0-0.75,0.28-0.75,0.61c0,0.37,0.27,0.54,0.85,0.76c0.78,0.3,1.18,0.69,1.18,1.36c0,0.79-0.61,1.35-1.68,1.35
			c-0.49,0-0.95-0.12-1.26-0.31L136.35-250.78z"/>
		<path fill="#1A171C" d="M141.05-255.71c0.01,0.28-0.19,0.5-0.52,0.5c-0.29,0-0.49-0.22-0.49-0.5c0-0.29,0.21-0.51,0.51-0.51
			C140.86-256.22,141.05-256,141.05-255.71z M140.14-249.95v-4.5h0.82v4.5H140.14z"/>
		<path fill="#1A171C" d="M146.39-252.23c0,1.66-1.15,2.39-2.24,2.39c-1.22,0-2.16-0.89-2.16-2.31c0-1.51,0.99-2.39,2.23-2.39
			C145.51-254.55,146.39-253.61,146.39-252.23z M142.82-252.19c0,0.99,0.57,1.73,1.37,1.73c0.78,0,1.37-0.73,1.37-1.75
			c0-0.76-0.38-1.73-1.35-1.73C143.24-253.93,142.82-253.04,142.82-252.19z"/>
		<path fill="#1A171C" d="M147.42-253.23c0-0.46-0.01-0.85-0.04-1.22h0.73l0.05,0.74h0.02c0.22-0.43,0.74-0.85,1.49-0.85
			c0.62,0,1.59,0.37,1.59,1.91v2.69h-0.82v-2.59c0-0.72-0.27-1.33-1.04-1.33c-0.54,0-0.96,0.38-1.1,0.84
			c-0.04,0.1-0.06,0.24-0.06,0.38v2.7h-0.82V-253.23z"/>
		<path fill="#1A171C" d="M156.77-249.35c-0.51,0.27-1.03,0.37-1.65,0.37c-1.52,0-2.82-1.11-2.82-2.9c0-1.91,1.33-3.57,3.39-3.57
			c1.62,0,2.7,1.13,2.7,2.69c0,1.39-0.78,2.21-1.65,2.21c-0.37,0-0.72-0.25-0.69-0.82h-0.04c-0.33,0.55-0.75,0.82-1.31,0.82
			c-0.54,0-1-0.44-1-1.17c0-1.15,0.91-2.2,2.2-2.2c0.4,0,0.75,0.08,0.99,0.19l-0.32,1.68c-0.14,0.71-0.03,1.03,0.28,1.04
			c0.47,0.01,1-0.62,1-1.7c0-1.35-0.81-2.31-2.25-2.31c-1.51,0-2.79,1.2-2.79,3.08c0,1.55,1.01,2.51,2.39,2.51
			c0.53,0,1.02-0.11,1.4-0.33L156.77-249.35z M156.25-253.37c-0.09-0.03-0.25-0.06-0.46-0.06c-0.82,0-1.48,0.77-1.48,1.67
			c0,0.41,0.2,0.71,0.61,0.71c0.54,0,1.03-0.69,1.13-1.26L156.25-253.37z"/>
		<path fill="#1A171C" d="M163.3-254.44c-0.02,0.33-0.04,0.69-0.04,1.24v2.61c0,1.03-0.2,1.66-0.64,2.05
			c-0.44,0.41-1.07,0.54-1.64,0.54c-0.54,0-1.13-0.13-1.5-0.37l0.2-0.62c0.3,0.19,0.76,0.35,1.32,0.35c0.84,0,1.45-0.44,1.45-1.57
			v-0.5h-0.02c-0.25,0.42-0.73,0.75-1.43,0.75c-1.12,0-1.91-0.95-1.91-2.19c0-1.52,0.99-2.39,2.03-2.39c0.78,0,1.21,0.41,1.4,0.78
			h0.02l0.04-0.68H163.3z M162.45-252.67c0-0.14-0.01-0.26-0.05-0.37c-0.15-0.47-0.55-0.86-1.14-0.86c-0.78,0-1.34,0.66-1.34,1.7
			c0,0.88,0.45,1.62,1.33,1.62c0.5,0,0.96-0.32,1.13-0.84c0.05-0.14,0.06-0.3,0.06-0.44V-252.67z"/>
		<path fill="#1A171C" d="M168.69-252.23c0,1.66-1.15,2.39-2.24,2.39c-1.22,0-2.16-0.89-2.16-2.31c0-1.51,0.98-2.39,2.23-2.39
			C167.81-254.55,168.69-253.61,168.69-252.23z M165.12-252.19c0,0.99,0.57,1.73,1.37,1.73c0.78,0,1.37-0.73,1.37-1.75
			c0-0.76-0.38-1.73-1.35-1.73C165.54-253.93,165.12-253.04,165.12-252.19z"/>
		<path fill="#1A171C" d="M173.79-252.23c0,1.66-1.15,2.39-2.24,2.39c-1.22,0-2.16-0.89-2.16-2.31c0-1.51,0.99-2.39,2.23-2.39
			C172.91-254.55,173.79-253.61,173.79-252.23z M170.22-252.19c0,0.99,0.57,1.73,1.37,1.73c0.78,0,1.37-0.73,1.37-1.75
			c0-0.76-0.38-1.73-1.35-1.73C170.64-253.93,170.22-253.04,170.22-252.19z"/>
		<path fill="#1A171C" d="M178.69-254.44c-0.02,0.33-0.04,0.69-0.04,1.24v2.61c0,1.03-0.2,1.66-0.64,2.05
			c-0.44,0.41-1.07,0.54-1.64,0.54c-0.54,0-1.13-0.13-1.5-0.37l0.2-0.62c0.3,0.19,0.76,0.35,1.32,0.35c0.84,0,1.45-0.44,1.45-1.57
			v-0.5h-0.02c-0.25,0.42-0.73,0.75-1.43,0.75c-1.12,0-1.91-0.95-1.91-2.19c0-1.52,0.99-2.39,2.03-2.39c0.78,0,1.21,0.41,1.4,0.78
			h0.02l0.04-0.68H178.69z M177.85-252.67c0-0.14-0.01-0.26-0.05-0.37c-0.15-0.47-0.55-0.86-1.14-0.86c-0.78,0-1.34,0.66-1.34,1.7
			c0,0.88,0.45,1.62,1.33,1.62c0.5,0,0.96-0.32,1.13-0.84c0.05-0.14,0.06-0.3,0.06-0.44V-252.67z"/>
		<path fill="#1A171C" d="M180.01-256.54h0.82v6.6h-0.82V-256.54z"/>
		<path fill="#1A171C" d="M182.66-252.05c0.02,1.11,0.72,1.56,1.54,1.56c0.59,0,0.94-0.1,1.25-0.23l0.14,0.59
			c-0.29,0.13-0.78,0.28-1.5,0.28c-1.38,0-2.21-0.91-2.21-2.27c0-1.36,0.8-2.43,2.11-2.43c1.47,0,1.86,1.29,1.86,2.12
			c0,0.17-0.02,0.3-0.03,0.38H182.66z M185.06-252.63c0.01-0.52-0.21-1.33-1.13-1.33c-0.83,0-1.19,0.76-1.25,1.33H185.06z"/>
		<path fill="#1A171C" d="M190.74-254.44c-0.02,0.33-0.04,0.69-0.04,1.24v2.61c0,1.03-0.2,1.66-0.64,2.05
			c-0.44,0.41-1.07,0.54-1.64,0.54c-0.54,0-1.13-0.13-1.5-0.37l0.2-0.62c0.3,0.19,0.76,0.35,1.32,0.35c0.84,0,1.45-0.44,1.45-1.57
			v-0.5h-0.02c-0.25,0.42-0.73,0.75-1.43,0.75c-1.12,0-1.91-0.95-1.91-2.19c0-1.52,0.99-2.39,2.03-2.39c0.78,0,1.21,0.41,1.4,0.78
			h0.02l0.04-0.68H190.74z M189.89-252.67c0-0.14-0.01-0.26-0.05-0.37c-0.15-0.47-0.55-0.86-1.14-0.86c-0.78,0-1.34,0.66-1.34,1.7
			c0,0.88,0.45,1.62,1.33,1.62c0.5,0,0.96-0.32,1.13-0.84c0.05-0.14,0.06-0.3,0.06-0.44V-252.67z"/>
		<path fill="#1A171C" d="M192.06-253.04c0-0.53-0.01-0.99-0.04-1.4h0.72l0.03,0.88h0.04c0.2-0.6,0.7-0.98,1.25-0.98
			c0.09,0,0.16,0.01,0.23,0.03v0.77c-0.08-0.02-0.17-0.03-0.28-0.03c-0.58,0-0.98,0.44-1.1,1.05c-0.02,0.11-0.04,0.24-0.04,0.38v2.4
			h-0.81V-253.04z"/>
		<path fill="#1A171C" d="M199.16-252.23c0,1.66-1.15,2.39-2.24,2.39c-1.22,0-2.16-0.89-2.16-2.31c0-1.51,0.99-2.39,2.23-2.39
			C198.29-254.55,199.16-253.61,199.16-252.23z M195.6-252.19c0,0.99,0.57,1.73,1.37,1.73c0.78,0,1.37-0.73,1.37-1.75
			c0-0.76-0.38-1.73-1.35-1.73C196.01-253.93,195.6-253.04,195.6-252.19z"/>
		<path fill="#1A171C" d="M203.96-251.17c0,0.46,0.01,0.87,0.04,1.23h-0.72l-0.05-0.73h-0.02c-0.21,0.36-0.69,0.84-1.49,0.84
			c-0.71,0-1.55-0.39-1.55-1.97v-2.63h0.82v2.49c0,0.85,0.26,1.43,1,1.43c0.55,0,0.93-0.38,1.08-0.74c0.05-0.12,0.07-0.27,0.07-0.42
			v-2.76h0.82V-251.17z"/>
		<path fill="#1A171C" d="M205.31-252.98c0-0.58-0.02-1.04-0.04-1.47h0.73l0.04,0.77h0.02c0.33-0.55,0.86-0.87,1.6-0.87
			c1.09,0,1.91,0.92,1.91,2.29c0,1.62-0.99,2.42-2.04,2.42c-0.59,0-1.12-0.26-1.38-0.71h-0.02v2.44h-0.81V-252.98z M206.12-251.78
			c0,0.12,0.02,0.23,0.04,0.33c0.15,0.57,0.64,0.96,1.23,0.96c0.86,0,1.37-0.71,1.37-1.74c0-0.9-0.47-1.67-1.34-1.67
			c-0.56,0-1.08,0.4-1.24,1.01c-0.03,0.1-0.06,0.22-0.06,0.33V-251.78z"/>
		<path fill="#1A171C" d="M210.49-250.78c0.24,0.16,0.67,0.33,1.08,0.33c0.59,0,0.87-0.3,0.87-0.67c0-0.39-0.23-0.6-0.84-0.83
			c-0.81-0.29-1.19-0.73-1.19-1.27c0-0.72,0.59-1.32,1.55-1.32c0.46,0,0.85,0.13,1.11,0.28l-0.2,0.59c-0.18-0.11-0.5-0.26-0.92-0.26
			c-0.48,0-0.75,0.28-0.75,0.61c0,0.37,0.27,0.54,0.85,0.76c0.78,0.3,1.18,0.69,1.18,1.36c0,0.79-0.61,1.35-1.68,1.35
			c-0.49,0-0.95-0.12-1.26-0.31L210.49-250.78z"/>
		<path fill="#1A171C" d="M214.09-250.43c0-0.34,0.23-0.59,0.56-0.59c0.33,0,0.55,0.24,0.55,0.59c0,0.33-0.21,0.59-0.56,0.59
			C214.31-249.84,214.09-250.09,214.09-250.43z"/>
		<path fill="#1A171C" d="M219.41-250.11c-0.21,0.11-0.69,0.26-1.29,0.26c-1.36,0-2.24-0.92-2.24-2.29c0-1.38,0.95-2.39,2.42-2.39
			c0.48,0,0.91,0.12,1.13,0.23l-0.19,0.63c-0.19-0.11-0.5-0.21-0.95-0.21c-1.03,0-1.59,0.76-1.59,1.7c0,1.04,0.67,1.68,1.56,1.68
			c0.46,0,0.77-0.12,1-0.22L219.41-250.11z"/>
		<path fill="#1A171C" d="M224.44-252.23c0,1.66-1.15,2.39-2.24,2.39c-1.22,0-2.16-0.89-2.16-2.31c0-1.51,0.99-2.39,2.23-2.39
			C223.56-254.55,224.44-253.61,224.44-252.23z M220.87-252.19c0,0.99,0.57,1.73,1.37,1.73c0.78,0,1.37-0.73,1.37-1.75
			c0-0.76-0.38-1.73-1.35-1.73C221.29-253.93,220.87-253.04,220.87-252.19z"/>
		<path fill="#1A171C" d="M225.47-253.23c0-0.46-0.01-0.85-0.04-1.22h0.72l0.04,0.72h0.03c0.25-0.43,0.67-0.83,1.41-0.83
			c0.61,0,1.08,0.37,1.27,0.9h0.02c0.14-0.25,0.32-0.45,0.5-0.59c0.27-0.2,0.57-0.32,0.99-0.32c0.59,0,1.48,0.39,1.48,1.95v2.65
			h-0.8v-2.55c0-0.86-0.32-1.38-0.98-1.38c-0.46,0-0.83,0.34-0.97,0.74c-0.04,0.11-0.07,0.26-0.07,0.41v2.78h-0.8v-2.69
			c0-0.72-0.32-1.24-0.94-1.24c-0.51,0-0.88,0.41-1.01,0.82c-0.05,0.12-0.06,0.26-0.06,0.4v2.71h-0.8V-253.23z"/>
	</g>
	<g clip-path="url(#SVGID_2_)">
		<path fill="#1A171C" d="M-29.24-241.15c0-0.58-0.02-1.04-0.04-1.47h0.73l0.04,0.77h0.02c0.33-0.55,0.86-0.87,1.6-0.87
			c1.09,0,1.91,0.92,1.91,2.29c0,1.62-0.99,2.42-2.04,2.42c-0.59,0-1.12-0.26-1.38-0.71h-0.02v2.44h-0.81V-241.15z M-28.43-239.95
			c0,0.12,0.02,0.23,0.04,0.33c0.15,0.57,0.64,0.96,1.23,0.96c0.86,0,1.37-0.71,1.37-1.74c0-0.9-0.47-1.67-1.34-1.67
			c-0.56,0-1.08,0.4-1.24,1.01c-0.03,0.1-0.06,0.22-0.06,0.33V-239.95z"/>
		<path fill="#1A171C" d="M-19.88-240.4c0,1.66-1.15,2.39-2.24,2.39c-1.22,0-2.16-0.89-2.16-2.31c0-1.51,0.98-2.39,2.23-2.39
			C-20.75-242.72-19.88-241.78-19.88-240.4z M-23.45-240.36c0,0.99,0.57,1.73,1.37,1.73c0.78,0,1.37-0.73,1.37-1.75
			c0-0.76-0.38-1.73-1.35-1.73C-23.03-242.1-23.45-241.21-23.45-240.36z"/>
		<path fill="#1A171C" d="M-15.08-239.34c0,0.46,0.01,0.87,0.04,1.23h-0.72l-0.05-0.73h-0.02c-0.21,0.36-0.69,0.84-1.49,0.84
			c-0.71,0-1.55-0.39-1.55-1.97v-2.63h0.82v2.49c0,0.85,0.26,1.43,1,1.43c0.55,0,0.93-0.38,1.08-0.74c0.05-0.12,0.07-0.27,0.07-0.42
			v-2.76h0.82V-239.34z"/>
		<path fill="#1A171C" d="M-13.73-241.21c0-0.53-0.01-0.99-0.04-1.4h0.72l0.03,0.88h0.04c0.2-0.6,0.7-0.98,1.25-0.98
			c0.09,0,0.16,0.01,0.23,0.03v0.77c-0.08-0.02-0.17-0.03-0.28-0.03c-0.58,0-0.98,0.44-1.1,1.05c-0.02,0.11-0.04,0.24-0.04,0.38v2.4
			h-0.81V-241.21z"/>
		<path fill="#1A171C" d="M-7.74-243.91v1.29h1.17v0.62h-1.17v2.43c0,0.56,0.16,0.87,0.61,0.87c0.21,0,0.37-0.03,0.47-0.06
			l0.04,0.61c-0.16,0.06-0.41,0.11-0.72,0.11c-0.38,0-0.69-0.12-0.88-0.34c-0.23-0.24-0.32-0.64-0.32-1.17v-2.45h-0.7v-0.62h0.7
			v-1.08L-7.74-243.91z"/>
		<path fill="#1A171C" d="M-1.57-240.4c0,1.66-1.15,2.39-2.24,2.39c-1.22,0-2.16-0.89-2.16-2.31c0-1.51,0.98-2.39,2.23-2.39
			C-2.45-242.72-1.57-241.78-1.57-240.4z M-5.14-240.36c0,0.99,0.57,1.73,1.37,1.73c0.78,0,1.37-0.73,1.37-1.75
			c0-0.76-0.38-1.73-1.35-1.73C-4.73-242.1-5.14-241.21-5.14-240.36z"/>
		<path fill="#1A171C" d="M3.22-239.34c0,0.46,0.01,0.87,0.04,1.23H2.53l-0.05-0.73H2.47c-0.21,0.36-0.69,0.84-1.49,0.84
			c-0.71,0-1.55-0.39-1.55-1.97v-2.63h0.82v2.49c0,0.85,0.26,1.43,1,1.43c0.55,0,0.93-0.38,1.08-0.74c0.05-0.12,0.07-0.27,0.07-0.42
			v-2.76h0.82V-239.34z"/>
		<path fill="#1A171C" d="M5.56-243.91v1.29h1.17v0.62H5.56v2.43c0,0.56,0.16,0.87,0.61,0.87c0.21,0,0.37-0.03,0.47-0.06l0.04,0.61
			c-0.16,0.06-0.41,0.11-0.72,0.11c-0.38,0-0.69-0.12-0.88-0.34c-0.23-0.24-0.32-0.64-0.32-1.17v-2.45h-0.7v-0.62h0.7v-1.08
			L5.56-243.91z"/>
		<path fill="#1A171C" d="M8.11-240.22c0.02,1.11,0.72,1.56,1.54,1.56c0.59,0,0.94-0.1,1.25-0.23l0.14,0.59
			c-0.29,0.13-0.78,0.28-1.5,0.28c-1.38,0-2.21-0.91-2.21-2.27c0-1.36,0.8-2.43,2.11-2.43c1.47,0,1.86,1.29,1.86,2.12
			c0,0.17-0.02,0.3-0.03,0.38H8.11z M10.5-240.8c0.01-0.52-0.21-1.33-1.13-1.33c-0.83,0-1.19,0.76-1.25,1.33H10.5z"/>
		<path fill="#1A171C" d="M18.04-239.34c0,0.46,0.01,0.87,0.04,1.23h-0.72l-0.05-0.73h-0.02c-0.21,0.36-0.69,0.84-1.49,0.84
			c-0.71,0-1.55-0.39-1.55-1.97v-2.63h0.82v2.49c0,0.85,0.26,1.43,1,1.43c0.55,0,0.93-0.38,1.08-0.74c0.05-0.12,0.07-0.27,0.07-0.42
			v-2.76h0.82V-239.34z"/>
		<path fill="#1A171C" d="M20.38-243.91v1.29h1.17v0.62h-1.17v2.43c0,0.56,0.16,0.87,0.61,0.87c0.21,0,0.37-0.03,0.47-0.06
			l0.04,0.61c-0.16,0.06-0.41,0.11-0.72,0.11c-0.38,0-0.69-0.12-0.88-0.34c-0.23-0.24-0.32-0.64-0.32-1.17v-2.45h-0.7v-0.62h0.7
			v-1.08L20.38-243.91z"/>
		<path fill="#1A171C" d="M23.38-243.88c0.01,0.28-0.19,0.5-0.52,0.5c-0.29,0-0.49-0.22-0.49-0.5c0-0.29,0.21-0.51,0.51-0.51
			C23.19-244.39,23.38-244.17,23.38-243.88z M22.47-238.12v-4.5h0.82v4.5H22.47z"/>
		<path fill="#1A171C" d="M24.65-244.72h0.82v6.6h-0.82V-244.72z"/>
		<path fill="#1A171C" d="M27.75-243.88c0.01,0.28-0.19,0.5-0.52,0.5c-0.29,0-0.49-0.22-0.49-0.5c0-0.29,0.21-0.51,0.51-0.51
			C27.55-244.39,27.75-244.17,27.75-243.88z M26.84-238.12v-4.5h0.82v4.5H26.84z"/>
		<path fill="#1A171C" d="M28.9-238.95c0.24,0.16,0.67,0.33,1.08,0.33c0.59,0,0.87-0.3,0.87-0.67c0-0.39-0.23-0.6-0.84-0.83
			c-0.81-0.29-1.19-0.73-1.19-1.27c0-0.72,0.59-1.32,1.55-1.32c0.46,0,0.85,0.13,1.11,0.28l-0.2,0.59c-0.18-0.11-0.5-0.26-0.92-0.26
			c-0.48,0-0.75,0.28-0.75,0.61c0,0.37,0.27,0.54,0.85,0.76c0.78,0.3,1.18,0.69,1.18,1.36c0,0.79-0.61,1.35-1.68,1.35
			c-0.49,0-0.95-0.12-1.26-0.31L28.9-238.95z"/>
		<path fill="#1A171C" d="M35.18-238.12l-0.07-0.57h-0.03c-0.25,0.35-0.73,0.67-1.38,0.67c-0.91,0-1.38-0.64-1.38-1.29
			c0-1.09,0.97-1.68,2.7-1.67v-0.09c0-0.37-0.1-1.04-1.02-1.04c-0.42,0-0.85,0.13-1.17,0.33l-0.19-0.54c0.37-0.24,0.91-0.4,1.48-0.4
			c1.38,0,1.71,0.94,1.71,1.84v1.68c0,0.39,0.02,0.77,0.07,1.08H35.18z M35.06-240.41c-0.89-0.02-1.9,0.14-1.9,1.01
			c0,0.53,0.35,0.78,0.77,0.78c0.59,0,0.96-0.37,1.09-0.75c0.03-0.08,0.05-0.18,0.05-0.26V-240.41z"/>
		<path fill="#1A171C" d="M38.16-243.91v1.29h1.17v0.62h-1.17v2.43c0,0.56,0.16,0.87,0.61,0.87c0.21,0,0.37-0.03,0.47-0.06
			l0.04,0.61c-0.16,0.06-0.41,0.11-0.72,0.11c-0.38,0-0.69-0.12-0.88-0.34c-0.23-0.24-0.32-0.64-0.32-1.17v-2.45h-0.7v-0.62h0.7
			v-1.08L38.16-243.91z"/>
		<path fill="#1A171C" d="M41.16-243.88c0.01,0.28-0.19,0.5-0.52,0.5c-0.29,0-0.49-0.22-0.49-0.5c0-0.29,0.21-0.51,0.51-0.51
			C40.96-244.39,41.16-244.17,41.16-243.88z M40.25-238.12v-4.5h0.82v4.5H40.25z"/>
		<path fill="#1A171C" d="M46.49-240.4c0,1.66-1.15,2.39-2.24,2.39c-1.22,0-2.16-0.89-2.16-2.31c0-1.51,0.99-2.39,2.23-2.39
			C45.62-242.72,46.49-241.78,46.49-240.4z M42.92-240.36c0,0.99,0.57,1.73,1.37,1.73c0.78,0,1.37-0.73,1.37-1.75
			c0-0.76-0.38-1.73-1.35-1.73C43.34-242.1,42.92-241.21,42.92-240.36z"/>
		<path fill="#1A171C" d="M47.52-241.4c0-0.46-0.01-0.85-0.04-1.22h0.73l0.05,0.74h0.02c0.22-0.43,0.74-0.85,1.49-0.85
			c0.62,0,1.59,0.37,1.59,1.91v2.69h-0.82v-2.59c0-0.72-0.27-1.33-1.04-1.33c-0.54,0-0.96,0.38-1.1,0.84
			c-0.04,0.1-0.06,0.24-0.06,0.38v2.7h-0.82V-241.4z"/>
		<path fill="#1A171C" d="M58.53-244.72v5.44c0,0.4,0.01,0.85,0.04,1.16h-0.73l-0.04-0.78h-0.02c-0.25,0.5-0.8,0.88-1.53,0.88
			c-1.09,0-1.92-0.92-1.92-2.29c-0.01-1.5,0.92-2.42,2.02-2.42c0.69,0,1.15,0.33,1.36,0.69h0.02v-2.69H58.53z M57.72-240.78
			c0-0.1-0.01-0.24-0.04-0.34c-0.12-0.52-0.57-0.95-1.18-0.95c-0.85,0-1.35,0.74-1.35,1.74c0,0.91,0.45,1.66,1.33,1.66
			c0.55,0,1.05-0.36,1.2-0.98c0.03-0.11,0.04-0.22,0.04-0.35V-240.78z"/>
		<path fill="#1A171C" d="M63.65-239.34c0,0.46,0.01,0.87,0.04,1.23h-0.72l-0.05-0.73H62.9c-0.21,0.36-0.69,0.84-1.49,0.84
			c-0.71,0-1.55-0.39-1.55-1.97v-2.63h0.82v2.49c0,0.85,0.26,1.43,1,1.43c0.55,0,0.93-0.38,1.08-0.74c0.05-0.12,0.07-0.27,0.07-0.42
			v-2.76h0.82V-239.34z"/>
		<path fill="#1A171C" d="M66.98-244.72h0.82v6.6h-0.82V-244.72z"/>
		<path fill="#1A171C" d="M73.24-240.4c0,1.66-1.15,2.39-2.24,2.39c-1.22,0-2.16-0.89-2.16-2.31c0-1.51,0.99-2.39,2.23-2.39
			C72.37-242.72,73.24-241.78,73.24-240.4z M69.67-240.36c0,0.99,0.57,1.73,1.37,1.73c0.78,0,1.37-0.73,1.37-1.75
			c0-0.76-0.38-1.73-1.35-1.73C70.09-242.1,69.67-241.21,69.67-240.36z"/>
		<path fill="#1A171C" d="M78.15-242.62c-0.02,0.33-0.04,0.69-0.04,1.24v2.61c0,1.03-0.2,1.66-0.64,2.05
			c-0.44,0.41-1.07,0.54-1.64,0.54c-0.54,0-1.13-0.13-1.5-0.37l0.2-0.62c0.3,0.19,0.76,0.35,1.32,0.35c0.84,0,1.45-0.44,1.45-1.57
			v-0.5h-0.02c-0.25,0.42-0.73,0.75-1.43,0.75c-1.12,0-1.91-0.95-1.91-2.19c0-1.52,0.99-2.39,2.03-2.39c0.78,0,1.21,0.41,1.4,0.78
			h0.02l0.04-0.68H78.15z M77.3-240.84c0-0.14-0.01-0.26-0.05-0.37c-0.15-0.47-0.55-0.86-1.14-0.86c-0.78,0-1.34,0.66-1.34,1.7
			c0,0.88,0.45,1.62,1.33,1.62c0.5,0,0.96-0.32,1.13-0.84c0.05-0.14,0.06-0.3,0.06-0.44V-240.84z"/>
		<path fill="#1A171C" d="M83.54-240.4c0,1.66-1.15,2.39-2.24,2.39c-1.22,0-2.16-0.89-2.16-2.31c0-1.51,0.98-2.39,2.23-2.39
			C82.66-242.72,83.54-241.78,83.54-240.4z M79.97-240.36c0,0.99,0.57,1.73,1.37,1.73c0.78,0,1.37-0.73,1.37-1.75
			c0-0.76-0.38-1.73-1.35-1.73C80.39-242.1,79.97-241.21,79.97-240.36z"/>
		<path fill="#1A171C" d="M85.55-243.91v1.29h1.17v0.62h-1.17v2.43c0,0.56,0.16,0.87,0.61,0.87c0.21,0,0.37-0.03,0.47-0.06
			l0.04,0.61c-0.16,0.06-0.41,0.11-0.72,0.11c-0.38,0-0.69-0.12-0.88-0.34c-0.23-0.24-0.32-0.64-0.32-1.17v-2.45h-0.7v-0.62h0.7
			v-1.08L85.55-243.91z"/>
		<path fill="#1A171C" d="M87.94-242.62l0.99,2.66c0.1,0.3,0.21,0.65,0.29,0.92h0.02c0.08-0.27,0.18-0.61,0.29-0.94l0.89-2.64h0.86
			l-1.23,3.21c-0.59,1.54-0.98,2.33-1.54,2.82c-0.4,0.35-0.8,0.49-1,0.53l-0.2-0.69c0.2-0.07,0.47-0.2,0.72-0.4
			c0.22-0.18,0.5-0.49,0.69-0.91c0.04-0.08,0.06-0.15,0.06-0.19c0-0.05-0.02-0.11-0.06-0.21l-1.66-4.14H87.94z"/>
		<path fill="#1A171C" d="M92.02-241.15c0-0.58-0.02-1.04-0.04-1.47h0.73l0.04,0.77h0.02c0.33-0.55,0.86-0.87,1.6-0.87
			c1.09,0,1.91,0.92,1.91,2.29c0,1.62-0.99,2.42-2.04,2.42c-0.59,0-1.12-0.26-1.38-0.71h-0.02v2.44h-0.81V-241.15z M92.83-239.95
			c0,0.12,0.02,0.23,0.04,0.33c0.15,0.57,0.64,0.96,1.23,0.96c0.86,0,1.37-0.71,1.37-1.74c0-0.9-0.47-1.67-1.34-1.67
			c-0.56,0-1.08,0.4-1.24,1.01c-0.03,0.1-0.06,0.22-0.06,0.33V-239.95z"/>
		<path fill="#1A171C" d="M97.76-240.22c0.02,1.11,0.72,1.56,1.54,1.56c0.59,0,0.94-0.1,1.25-0.23l0.14,0.59
			c-0.29,0.13-0.78,0.28-1.5,0.28c-1.38,0-2.21-0.91-2.21-2.27c0-1.36,0.8-2.43,2.11-2.43c1.47,0,1.86,1.29,1.86,2.12
			c0,0.17-0.02,0.3-0.03,0.38H97.76z M100.16-240.8c0.01-0.52-0.21-1.33-1.13-1.33c-0.83,0-1.19,0.76-1.25,1.33H100.16z"/>
		<path fill="#1A171C" d="M103.82-238.95c0.24,0.16,0.67,0.33,1.08,0.33c0.59,0,0.87-0.3,0.87-0.67c0-0.39-0.23-0.6-0.84-0.83
			c-0.81-0.29-1.19-0.73-1.19-1.27c0-0.72,0.59-1.32,1.55-1.32c0.46,0,0.85,0.13,1.11,0.28l-0.2,0.59c-0.18-0.11-0.5-0.26-0.92-0.26
			c-0.48,0-0.75,0.28-0.75,0.61c0,0.37,0.27,0.54,0.85,0.76c0.78,0.3,1.18,0.69,1.18,1.36c0,0.79-0.61,1.35-1.68,1.35
			c-0.49,0-0.95-0.12-1.26-0.31L103.82-238.95z"/>
		<path fill="#1A171C" d="M111.38-239.34c0,0.46,0.01,0.87,0.04,1.23h-0.72l-0.05-0.73h-0.02c-0.21,0.36-0.69,0.84-1.49,0.84
			c-0.71,0-1.55-0.39-1.55-1.97v-2.63h0.82v2.49c0,0.85,0.26,1.43,1,1.43c0.55,0,0.93-0.38,1.08-0.74c0.05-0.12,0.07-0.27,0.07-0.42
			v-2.76h0.82V-239.34z"/>
		<path fill="#1A171C" d="M113.64-243.88c0.01,0.28-0.19,0.5-0.52,0.5c-0.29,0-0.49-0.22-0.49-0.5c0-0.29,0.21-0.51,0.51-0.51
			C113.45-244.39,113.64-244.17,113.64-243.88z M112.73-238.12v-4.5h0.82v4.5H112.73z"/>
		<path fill="#1A171C" d="M115.22-242.62l0.88,2.53c0.15,0.41,0.27,0.78,0.36,1.15h0.03c0.1-0.37,0.23-0.74,0.38-1.15l0.87-2.53
			h0.85l-1.77,4.5h-0.78l-1.71-4.5H115.22z"/>
		<path fill="#1A171C" d="M121.87-238.12l-0.07-0.57h-0.03c-0.25,0.35-0.73,0.67-1.38,0.67c-0.91,0-1.38-0.64-1.38-1.29
			c0-1.09,0.97-1.68,2.7-1.67v-0.09c0-0.37-0.1-1.04-1.02-1.04c-0.42,0-0.85,0.13-1.17,0.33l-0.19-0.54c0.37-0.24,0.91-0.4,1.48-0.4
			c1.38,0,1.71,0.94,1.71,1.84v1.68c0,0.39,0.02,0.77,0.07,1.08H121.87z M121.74-240.41c-0.89-0.02-1.9,0.14-1.9,1.01
			c0,0.53,0.35,0.78,0.77,0.78c0.59,0,0.96-0.37,1.09-0.75c0.03-0.08,0.05-0.18,0.05-0.26V-240.41z"/>
		<path fill="#1A171C" d="M123.85-241.4c0-0.46-0.01-0.85-0.04-1.22h0.73l0.05,0.74h0.02c0.22-0.43,0.74-0.85,1.49-0.85
			c0.62,0,1.59,0.37,1.59,1.91v2.69h-0.82v-2.59c0-0.72-0.27-1.33-1.04-1.33c-0.54,0-0.96,0.38-1.1,0.84
			c-0.04,0.1-0.06,0.24-0.06,0.38v2.7h-0.82V-241.4z"/>
		<path fill="#1A171C" d="M130-243.91v1.29h1.17v0.62H130v2.43c0,0.56,0.16,0.87,0.61,0.87c0.21,0,0.37-0.03,0.47-0.06l0.04,0.61
			c-0.16,0.06-0.41,0.11-0.72,0.11c-0.38,0-0.69-0.12-0.88-0.34c-0.23-0.24-0.32-0.64-0.32-1.17v-2.45h-0.7v-0.62h0.7v-1.08
			L130-243.91z"/>
		<path fill="#1A171C" d="M133.86-241.87c0-0.34,0.23-0.59,0.56-0.59c0.33,0,0.54,0.24,0.55,0.59c0,0.33-0.21,0.58-0.56,0.58
			C134.08-241.3,133.86-241.55,133.86-241.87z M133.86-238.59c0-0.34,0.23-0.59,0.56-0.59c0.33,0,0.54,0.24,0.55,0.59
			c0,0.33-0.21,0.58-0.56,0.58C134.08-238.02,133.86-238.27,133.86-238.59z"/>
	</g>
	<g clip-path="url(#SVGID_2_)">
		<path fill="#1A171C" d="M-29.21-232.55h0.81v5.58h2.68v0.68h-3.48V-232.55z"/>
		<path fill="#1A171C" d="M-19.47-229.49c0,2.16-1.31,3.3-2.91,3.3c-1.65,0-2.82-1.28-2.82-3.18c0-1.99,1.24-3.29,2.91-3.29
			C-20.58-232.65-19.47-231.34-19.47-229.49z M-24.33-229.38c0,1.34,0.72,2.54,2,2.54c1.28,0,2.01-1.18,2.01-2.6
			c0-1.25-0.65-2.55-2-2.55C-23.66-231.99-24.33-230.76-24.33-229.38z"/>
		<path fill="#1A171C" d="M-13.65-226.57c-0.36,0.13-1.08,0.34-1.92,0.34c-0.95,0-1.73-0.24-2.34-0.83
			c-0.54-0.52-0.87-1.36-0.87-2.33c0.01-1.87,1.29-3.23,3.39-3.23c0.72,0,1.29,0.16,1.56,0.29l-0.2,0.66
			c-0.33-0.15-0.75-0.27-1.38-0.27c-1.52,0-2.52,0.95-2.52,2.52c0,1.59,0.96,2.53,2.42,2.53c0.53,0,0.89-0.07,1.08-0.17v-1.87h-1.27
			v-0.65h2.06V-226.57z"/>
		<path fill="#1A171C" d="M-7.07-229.49c0,2.16-1.31,3.3-2.91,3.3c-1.65,0-2.82-1.28-2.82-3.18c0-1.99,1.24-3.29,2.91-3.29
			C-8.17-232.65-7.07-231.34-7.07-229.49z M-11.93-229.38c0,1.34,0.72,2.54,2,2.54c1.28,0,2.01-1.18,2.01-2.6
			c0-1.25-0.65-2.55-2-2.55C-11.26-231.99-11.93-230.76-11.93-229.38z"/>
		<path fill="#1A171C" d="M-4.83-231.86h-1.9v-0.69h4.64v0.69h-1.91v5.58h-0.82V-231.86z"/>
		<path fill="#1A171C" d="M0-226.29v-2.66l-1.98-3.61h0.92l0.88,1.73c0.24,0.47,0.43,0.85,0.62,1.29h0.02
			c0.18-0.41,0.39-0.82,0.63-1.29l0.9-1.73h0.92l-2.1,3.6v2.67H0z"/>
		<path fill="#1A171C" d="M3.63-232.48c0.39-0.06,0.9-0.12,1.55-0.12c0.8,0,1.38,0.19,1.76,0.52c0.34,0.3,0.55,0.75,0.55,1.31
			c0,0.57-0.17,1.01-0.48,1.34c-0.43,0.46-1.12,0.69-1.91,0.69c-0.24,0-0.46-0.01-0.65-0.06v2.51H3.63V-232.48z M4.44-229.46
			c0.18,0.05,0.4,0.07,0.67,0.07c0.98,0,1.57-0.47,1.57-1.34c0-0.83-0.59-1.23-1.48-1.23c-0.35,0-0.62,0.03-0.76,0.06V-229.46z"/>
		<path fill="#1A171C" d="M11.81-229.23H9.38v2.26h2.71v0.68H8.57v-6.26h3.38v0.68H9.38v1.98h2.43V-229.23z"/>
		<path fill="#1A171C" d="M15.92-232.55v2.62h3.03v-2.62h0.82v6.26h-0.82v-2.94h-3.03v2.94h-0.81v-6.26H15.92z"/>
		<path fill="#1A171C" d="M26.52-229.49c0,2.16-1.31,3.3-2.91,3.3c-1.65,0-2.82-1.28-2.82-3.18c0-1.99,1.24-3.29,2.91-3.29
			C25.42-232.65,26.52-231.34,26.52-229.49z M21.66-229.38c0,1.34,0.72,2.54,2,2.54c1.28,0,2.01-1.18,2.01-2.6
			c0-1.25-0.65-2.55-2-2.55C22.33-231.99,21.66-230.76,21.66-229.38z"/>
		<path fill="#1A171C" d="M27.57-232.55h0.81v5.58h2.68v0.68h-3.48V-232.55z"/>
		<path fill="#1A171C" d="M32.77-232.55v3.71c0,1.4,0.62,2,1.46,2c0.93,0,1.52-0.61,1.52-2v-3.71h0.82v3.65
			c0,1.92-1.01,2.71-2.37,2.71c-1.28,0-2.25-0.73-2.25-2.68v-3.69H32.77z"/>
		<path fill="#1A171C" d="M37.86-227.27c0.36,0.22,0.89,0.41,1.45,0.41c0.83,0,1.31-0.44,1.31-1.07c0-0.59-0.33-0.92-1.18-1.25
			c-1.02-0.36-1.65-0.89-1.65-1.77c0-0.98,0.81-1.7,2.03-1.7c0.64,0,1.11,0.15,1.38,0.31l-0.22,0.66c-0.2-0.11-0.62-0.3-1.19-0.3
			c-0.85,0-1.18,0.51-1.18,0.94c0,0.59,0.38,0.87,1.25,1.21c1.06,0.41,1.6,0.92,1.6,1.84c0,0.97-0.72,1.8-2.19,1.8
			c-0.6,0-1.26-0.18-1.6-0.4L37.86-227.27z"/>
		<path fill="#1A171C" d="M43.36-232.55v6.26h-0.81v-6.26H43.36z"/>
		<path fill="#1A171C" d="M50.12-229.49c0,2.16-1.31,3.3-2.91,3.3c-1.65,0-2.82-1.28-2.82-3.18c0-1.99,1.24-3.29,2.91-3.29
			C49.02-232.65,50.12-231.34,50.12-229.49z M45.26-229.38c0,1.34,0.72,2.54,2,2.54c1.28,0,2.01-1.18,2.01-2.6
			c0-1.25-0.65-2.55-2-2.55C45.93-231.99,45.26-230.76,45.26-229.38z"/>
		<path fill="#1A171C" d="M51.17-226.29v-6.26h0.88l2.01,3.17c0.46,0.73,0.83,1.39,1.12,2.03l0.02-0.01
			c-0.07-0.84-0.09-1.6-0.09-2.57v-2.62h0.76v6.26h-0.82l-1.99-3.18c-0.44-0.7-0.85-1.41-1.17-2.09l-0.03,0.01
			c0.05,0.79,0.06,1.54,0.06,2.58v2.68H51.17z"/>
		<path fill="#1A171C" d="M67.57-228.93v0.56h-8.73v-0.56H67.57z"/>
		<path fill="#1A171C" d="M75.69-225.37c-0.85-0.22-1.67-0.47-2.4-0.72c-0.13-0.05-0.26-0.09-0.38-0.09
			c-1.49-0.06-2.76-1.15-2.76-3.17c0-2.01,1.23-3.3,2.92-3.3c1.7,0,2.81,1.32,2.81,3.17c0,1.61-0.74,2.64-1.78,3v0.04
			c0.62,0.16,1.3,0.31,1.83,0.4L75.69-225.37z M75.02-229.45c0-1.25-0.65-2.55-1.98-2.55c-1.37,0-2.04,1.26-2.03,2.62
			c-0.01,1.33,0.72,2.53,1.99,2.53C74.29-226.85,75.02-228.02,75.02-229.45z"/>
		<path fill="#1A171C" d="M77.73-232.55v3.71c0,1.4,0.62,2,1.46,2c0.93,0,1.52-0.61,1.52-2v-3.71h0.82v3.65
			c0,1.92-1.01,2.71-2.37,2.71c-1.28,0-2.25-0.73-2.25-2.68v-3.69H77.73z"/>
		<path fill="#1A171C" d="M83.95-228.26l-0.65,1.97h-0.84l2.13-6.26h0.98l2.14,6.26h-0.86l-0.67-1.97H83.95z M86-228.89l-0.61-1.8
			c-0.14-0.41-0.23-0.78-0.33-1.14h-0.02c-0.09,0.37-0.19,0.75-0.32,1.13l-0.61,1.81H86z"/>
		<path fill="#1A171C" d="M88.62-232.47c0.49-0.07,1.08-0.13,1.72-0.13c1.16,0,1.99,0.27,2.54,0.78c0.56,0.51,0.88,1.24,0.88,2.25
			c0,1.02-0.32,1.86-0.9,2.43c-0.59,0.59-1.55,0.9-2.77,0.9c-0.58,0-1.06-0.03-1.47-0.07V-232.47z M89.43-226.93
			c0.2,0.04,0.5,0.05,0.82,0.05c1.73,0,2.67-0.97,2.67-2.66c0.01-1.48-0.83-2.42-2.54-2.42c-0.42,0-0.73,0.04-0.95,0.08V-226.93z"/>
		<path fill="#1A171C" d="M94.81-232.47c0.41-0.08,0.99-0.13,1.55-0.13c0.86,0,1.42,0.16,1.81,0.51c0.32,0.28,0.49,0.71,0.49,1.19
			c0,0.83-0.52,1.38-1.18,1.6v0.03c0.48,0.17,0.77,0.61,0.92,1.26c0.2,0.87,0.35,1.48,0.48,1.72h-0.84c-0.1-0.18-0.24-0.72-0.42-1.5
			c-0.19-0.86-0.52-1.19-1.25-1.22h-0.76v2.71h-0.81V-232.47z M95.62-229.62h0.83c0.86,0,1.41-0.47,1.41-1.19
			c0-0.81-0.59-1.16-1.44-1.17c-0.39,0-0.67,0.04-0.8,0.07V-229.62z"/>
		<path fill="#1A171C" d="M100.62-232.55v6.26h-0.81v-6.26H100.62z"/>
	</g>
</g>
</svg>
