<svg enable-background="new 0 0 595 842" version="1.1" viewBox="0 0 600 350" xml:space="preserve" xmlns="http://www.w3.org/2000/svg">

{%- comment -%}

HOT TO ADD A RESELLER
=====================

 - scroll to the bottom of this file.
 - copy-paste a `<a>[...]</a> link
 - update `translate(X Y)`coordinates
 - update maps.google.com link
 - update title and town text
{%- endcomment -%}




<g><path d="m0 0"/><path d="m541-545-1.1 0.33-1.8 2.4-2.3-1.6 0.39 3.3-0.2 1.6 0.16 2-0.38 2.7-0.69 2.1-0.07 1.6 0.68 2-1.2 0.7-0.25 1.9 0.76 3-1.9 0.56-1.9 3.5-0.63-3 0.11-3.7-2.2-2.2 1.1-2.2-0.63-3.8-0.89-2.1-0.94-0.13-0.85 0.89-0.51 2.7-2.1 6.1-0.95 3.9-0.8 1.5-0.48 3-1.1 2.6-0.2 4.2 1.1-1.5-2.5 7-1.4 1.2-0.78-2.3-0.18-2.3 0.64-1.9 0.79-0.88-0.42-1.1-0.09-3.7-0.51-1.4 0.27-1.6 0.19-1.8 0.89-2.9 1.7-3.6 0.67-3.1-1.8-0.63-2.2 2.9-1.4 0.72-0.71-2.3-1.4-0.45-0.93-0.93-0.51-1.4-1.2 2.8-0.67-0.96-1.4 0.28 0.62 2.8 0.14 1.8-2.1-0.39-0.52 0.053 1.4 2.3 1.8 1.3 0.46 0.76-2 2-0.93 2.5 1.1 2.4-4.5 1-1.7 3.2-0.41 2.2-1.7 3.5-0.1 1.2 0.85 1.5-0.15 2.3 0.35 2.8-1.4 0.5-1.1-0.84-0.34-1.8 0.85-0.96-2.6-0.33 0.13-0.82 0.74-1.5-2-0.46-4 0.61 0.91 2.3-0.69 0.51-1.5-0.29-0.3-1.4-0.86-1.8-0.67 0.65-0.54-1.8-1.2 1.1-0.65-0.74-0.64 1.1 0.46 3.4-1.4-1.5-1-2-0.85-0.72 0.79 5 3.4 1.4 1.2-0.34 0.38 2.4 0.34 4.3 1.1 1.9 0.62 2.8-1.6-0.87-2.2-2.8-4-3.5-1.5-1.1 1.2 3.8-0.92 0.09-0.34 2.3-0.92 0.088-0.41 1.4-0.83-0.51-0.23-1.2 0.35-2.3-1.4 1.2-0.95 2.1-0.33 2.4-1.1 0.76 0.77 3.1 0.67 0.96-2.5 3.5-0.78 4.3-1.1 2.2 0.56-2.1 0.53-2.5 0.21-2.2-0.58-4.8-0.29-3.6-1-3.9-1.9 1.2-0.71 2.7-1.4 3.1 0.055 4.9-0.38 4.3-1.1-6-0.21-2.6-0.29-2-1.3 0.56-3.4 0.92-1.3 4 0.08 1 0.9 3.9 2.2 2.6 1.7 0.5 1.8 2.5 0.025 2-1.5 0.15-1.7-3.3-2.2-0.95-2.3-3.1-1.6-1.5-2.3 0.81 1.7 3.1 3 2.3-1.7 2.2-1.8-1.3-0.62 1.3-0.72-2.4-1.4 1.4-0.21-1 0.3-2.9-1.2-1.1-0.45 1.1-0.63 3.7-0.088 1.4 0.53 1.8 1 1.3-1.5 1.4-2.8 1.9-0.95 1.3-0.47 4.1 0.9 1.3 1.6-0.96 1.4 1.7-2.4 0.23 0.88 2 0.3 1.4-2.6-0.55-0.88 0.53 1.6 1.7-0.83 1.3-2.2-0.81-0.39 1.7-1.6-0.51-3 1.8-0.76 2-1.2 1-0.13 0.81 2.3 1.4 1.8-0.98 1-1.6 3.2 1.7 2-2 0.83 0.51 0.86 1.7-2 0.2-0.79 1.8-0.094 3-3.3-1.5-2 0.19-0.61-1.1-2.5-0.42-0.66 0.87-1.9 1.4-0.59 1.7 2.2 3.3 0.14 1.8-1.3-0.096 1.3 3.1 0.37 2.2-1.5-0.51 0.19 2.5-1.4 0.5-0.78-2.3-0.61-3.6-0.7-2.2-1.3 0.56-0.5 2.9-2.1 0.79 2.2 0.59-0.44 1.1-1.6 0.38-1.2 1.4-0.56 2 0.57 2.2 1.7 1.2-1.4 1 1 1.1-1 0.75-0.71 2.7-0.67 0.65-1.1-0.11 0.26 0.78 2 0.61 1.8-0.54 2.1-1.2-2.4 3.5-1.2 1.1-2.2-0.59-1.6 0.16-1-0.93-0.33-1.6-1.6 0.38-2 2.4-0.83 3.7-1.8 2-0.037 2.1 1.2-0.12-0.088 3.1-1.8 0.76-0.57 4.5-1.7-0.2-0.98 0.9-1.5 0.15-0.64 1.1-0.5 0.42-0.42 1.3 1.4 2.1-0.84 1-2.1 0.65 0.18 2.2-2.5 0.61 0.62 1.2-0.99 0.9-0.23 2.1 2.8 0.32-0.48 1.4-1.7 1.2-1.4-0.89-0.16 0.45 0.47 3.4 1.5 1.9 0.72-1.7 1 1.1-0.36 2.1-4.3 1.1-0.86 0.89-0.057 3.4-1.7 1.8-1.9 0.77-1 3.4 2-0.41 1.5-2.2 2.3-1.2 0.18 2.3 1.5 3.1-4.3-1.4-0.17 2.1 0.8 0.95-1.2 1.4-0.42 1.4 0.57 2.2-0.69 0.43-1.4-0.67-1 1.6 0.97 2.3 1.3 1.1 0.58 2.4 0.18 2.3-1.7-1.9-1.7-0.49-1.3-2.6 0.38 3.8-0.82 1.3-1.4 0.72-0.59 2.5 1.2 0.47 1.3-0.71 0.69-2.1 0.47 0.98-0.17 2.9 0.54 1.8-1.3 1.5-1.2-0.69-1.3-0.46-1.2 2.1-0.79-0.73-0.73-0.076-1.4 2.6-0.35 2.2-1.4 1.3-0.12 0.1-1.8 0.98-0.73 3.9-0.022 2e-3 -0.19 1 0.022-8e-3 -4e-3 0.02 2.2-0.8 2-1.7 0.8 0.95-1.4 0.36-2.2 1.6 0.012 2.6 0.73 2.6-0.71 1.9-2.5 0.9-3.2-2.8-0.72 0.072-1.9 3.6-2.4 2.1-0.28 1.5-2.4 3.5-1 1.3-0.79 1.7-1.6 3 0.8 2.6 0.078 1-2.2 1.8-2.9 1.3-0.12 2.6 1.2 1.4 2.7-1.3-1 3.8 1.6 3.1 1.7 0.86 3.8-3.2 4.6-3.9 3-1.3 2.1-1.4 1.1-1.7 0.98 0.71-0.8 1.5-2.9 2.1-1.8 0.18-4.4 4.3 1.4 1.7-0.12 0.96-4.2 1.9-2.4 0.01-0.64 1.1 0.65 1.5-1.1 0.54-2.2-0.45 0.25-0.98-0.25-1.4-1.9-3.8-1-1.4-1.3 0.13-0.82 1.3-1.6 0.38-0.78 1-0.73 0.73-0.18 1.8 1.4 1.3 0.49 1.2-2.8 1.7-0.99-1.7-0.023-2-0.46-1.6-1.6 0.59-1.4 1.2-0.8-0.14-2.6 1.3-0.82 1.3-1.1 2.7-1.5-0.078 0.34 1.8-0.44 1.1-0.9 0.31-1.1-0.11 0.12-1-0.51-1.4-1 0.32-0.49 1.3 0.1 1.2-0.29 0.62-0.72 0.07-0.62-0.38-2.5 0.9-0.49 0.41-1.2 0.56-0.58 1.9-0.25 1.9-1 3-1.8-1.5-2.5-0.35-2.2 1.8-0.38 1.9 2.3 1.8-1.3 1.6 2.2 0.73 2.7-0.85 0.6 0.97 0.26 0.78 1.4 0.89-1.1 0.91-0.64 1.1 0.67 1.8-1.7-1.2-2.2 0.21-2.1-0.82-1.4 0.14-2-0.46-1.6 0.014-1.2 1.1-1.7-0.42-1.3 1.4 0.24 0.56 1.3 0.68 0.033 0.44-1.4 0.36 0.11 1.4 1.8-0.18 0.67-0.65 0.52-0.051-1.8 2.6 0.16 2 0.87 4.4-0.9 0.31-1-3.8-1.1-1.7-2.3 1.5-1.5 2.1-0.39 1.7-0.53 0.86 1.2 1.5 0.34 1.8-1.4-0.67-0.99-0.93-0.7-2.2-2 0.63-3.3-0.27-0.2 1.6 0.3 1.4-3.8-3.5-1 0.98 0.89 2.1 0.55 2-1.2 1.5 0.46 0.76 7 0.34 4.8-1.3 1.4-0.14-4.1 2 0.8 0.95 2.8-0.049 2.3-0.81 0.59 0.75-2.4 1.6-3.8 0.37-3.8-0.21-1.4-1.3-1.5-0.076-3.1 2.4-0.086 1.4-1.9-0.26-0.69 0.51-0.38 1.9 2.1 1.2 1.7 0.5-0.38 1.9-0.051 1.8-1.4 0.94-1.8 2.4 0.49 2-0.64 1.1-0.23 2.1 1 1.1 0.023 2 1.3 0.68 2.6 0.41 2.3-0.67 3.2-1.7 2.1-0.64 1.8 1.4 3 0.15 0.99-3.3 2.2-4.1 0.4 2.6-1 3.8 1.4 0.89 2.9 0.084 1.8-0.76 0.44 0.55 0.95 0.35 2.7-3.1 1.1-6.4 3.1-1.9 0.29 1.1-2.2 4.3-0.48 3.1-0.48 1.4 1.6-0.38 1.6-1.2 1.4 0.89-3.6 3.2-4.5 1.5-0.52 2.7 1.6 2.1-3.7 2.2 0.088-3.1-0.69-2-2.3-2.2-2.8-0.17-3.4 0.99-2.6-0.77-2.5 0.46-2.5-0.64-2.2 2-2.2-0.37-2.5-1-1.6 3.5-0.5 2.9 2.4 0.35 1.1-0.47-0.053 1.8-8e-3 2.4-2.1-1.3-1.6-1.7-0.28 0.69-0.39 0.037-0.066 0.81 2.2 5.5 1.7 0.42 3.5-2.4 2.1-0.43-3.5 3.6-1.1 2.2 0.88 1.1-2.8 1.7-1.3 1.5 0.39 2.5 1.2 1.5 0.55 2 1.8-1.2 1.6-2.2-0.12 2.6 1.4 2.3 0.73 1.8-2.2 0.22-2.2 1.9-0.088 1.4 1.2 1.3 2.8-1.9 1.7-3.2 0.25-3.5 2.3-1.6 2.6-3.6 2.9-5.5 2.6-2.3 1.2 1.6 0.088 1.2 3.1-0.89 2.4 0.57-4.3 2-0.5 2.9-0.58 1.9-0.45-3.2-1.3-0.53-2.4 4.1-2.5 3.1 1.4 1.5 0.19 0.79-3 1.8-2 2.8-2.6 2.7-0.93 1.6 1.8 1.7 4-0.17 1.1 0.26 1.5-1.4 0.47 0.98-5.3 2.3-1.5 1.6-0.5 1.2-2.6-0.33-1.2 0.92-1.4-1-2.8 3.5-1.2 2.5-2e-3 2.5 0.81 1.1 0.29 1.2 2.5-0.46 1.1-2.5 0.4 2.6 2 0.023 0.59-1.7-0.34-1.8 2 1.4 3.8-2.2 1.5-2 1.2 1.1-4 5.1 1.7 0.059-0.17 2.9-1.6 2.8-0.78 1.9-1.7 1.8 0.36 2-0.35 0.62 0.068 0.87-1.5-0.3-1.2 0.34-0.96-2.2-1.1-0.12-2.3 9.6 3.3 5.4 5.4 6 3.9 2.8 3.2 0.72 2.1-3.9-0.098 5.5-0.82 3.7 1.7-1.3 2.7 1.7 1-2.7 4.1 0.41-2 2.7 4.5 2 3.4-1.6 3.3-3 1.5-4.2 1.9 3.5 5.5-4.1 5.4-8.2 3.3-1.9 0.86-3.4 1.7-1.6 0.71-1.9 4.4-5.3-0.78-2.3 3.5 2.1 3.9-0.16 1.9-0.99 0.84-3.5 0.15-2.3 1.2-0.93 0.84-1.1-0.25-3.2-1.8-2.1-1.1-2.5 0.67-0.65 0.43-1.3-0.31-2.2-0.5-1.3 1.2 0.91 1.2 2.3 0.057 2.4 1.6-0.74 0.38-1.9-1.3-2.5-0.54-4.4 0.51-1.1 0.73 0.15 0.29-0.47 1.3-0.49 1.3 0.9 0.15 2-1.9 1.2-0.27 1.6 0.86 3.4 0.81 8.6 0.52 1.6 0.34 1.8 1.9-0.55 2.6 2.4 1.8-0.18 1.2 2.1 0.61 1.1-4e-3 -9e-5 -0.61-1.1-0.66 0.87-1.1 3 0.1 3 0.74 5.3 0.94 4.4 0.22 2.8 0.45 1.6 1.3 0.24 0.64 1.4-0.12 3.5 1.5-2.2 0.55-2.2 1.2 1.3-0.88 2.9 1.3-0.34 0.58 0.75-1.2 1.1-2 3.3 4.4 1.8 0.96 3-0.66 5 3-0.96 0.82 3.8-1.8 2.8 1.1 4.6-0.24 3.7 1.2-0.34 1.1 0.33 1.6 4.1 0.83 3.8 1.7 3.6 3.7 3.8 2.8 1.8 2.3 3.2-2e-3 2.5-1.7 1.3-3-0.66-1.7 1.1-0.49 2.2 2.4 7 1.7 5.1 0.23 4.5 1.6 2.4 1.3 3.2-0.72 1.7-0.29 3.9-0.89 0.45-0.21 1.5 3.8-0.37 7.7 1.1 5.3-2.7 3.8-0.48 3.3 0.2 1.3-1.6 0.89-3.5-1.3-4.8 2.4-6.2 1.9-0.36 2.1-2.4 3.9-2.3 3.1-0.19 2 0.44 1.6-0.86 3.1-0.15 3.5-2 1.1-2.8 1.9-7.7 1.3-6.4-0.068-9.4 1.3 1.5-0.6-6.3 1.5-6.8 0.027-4-1.4-1.8 1.4-3.4-0.75-2.8-1.7-1.9-0.45-1.6 0.22-1.4 1.7 0.86 1.3-0.56-0.97-3.1 1.9-1.9-0.33-1.7-2.1-5.1 0.64-1.6-2.4-1.6-2.8-1.2 0.69-0.43 2.4 0.57 2.6-0.7 1.6-1.7-3.8-2.2-7.8-0.49 0.33-0.84 6.1-1.4 3.6 0.9 1.9-1.4-0.99-2.9 1.6-0.59 2 0.022 1.3-1.7 1.5-4.5 1.8-3.6 2.2 0.59-1.9 3.4 0.93 0.13 2.3-0.88 3.7-4 4.6-4.2-1.4-3.7 1.6 1.3 1.6-0.16-0.14-1.8 1.5-1.8-0.68-1.1-3.9 1.8-9.6 3.6-3.1-0.28-1.2 1.1-0.88-2-1.7-1.2-6.8-2.4-3.5 1.1-1.5-0.66 1.4-1.2 0.89-2.1 1.7 0.49 2.2-1.1 3.1 0.14 0.36-0.48 2.9 2.6 1.5-1.3 0.12-1 4 2 0.57-1.9 0.98 0.71 1.6 3.1 2 0.39 7.9-6.3 0.9-2.7 2.3-3 1.1-1.7 0.4-4.9 0.36-1.8-1.4-2.5-3.7-2.1-1.7-2.7-1.2-1.1 2-0.42-0.28-1-5.8-2.1-0.81-2.8-1.3-2.7-2.2 0.36-2.1 1-2.1-2.8-0.93-0.13 0.098 1.2-1 5.6-1.7 3.4-2.2 2.3-3.6 4-2.3 0.45-3 1.3-2.1-0.46 2.1-2 3-1.1 2.1-2.8 2.2-1.6 4-4.9 0.5-2.8-0.48-3.6-2.2-0.23 0.73-2.5-0.22-2.8-1.1-2.4-1.7-7.7-0.2-5-0.7-2.2-0.12-1.6-0.78-2.3 0.23-2.1 0.56-2.1-0.54-1.8 4 1.9-0.18-2.3-1.6-5.9 0.27-5.7 0.84-3.5 0.082-1.5-2-2.2-1.1-2.3-0.3-3.9 4.4 1.8-0.062-0.8 1-0.68 1.1-2.5-0.33-1.7 0.17-4.5-1.3-2.7-0.17-2.2 0.71 2.3 1.7 0.86 0.78 0.73 0.9-0.3 0.91-2.7 1.7 0.64 0.041-2 0.72-1.8-2.4-0.93 1.6-0.014 1.7-2-0.27-0.93 1.7-1.4-0.01-2.6 1.2-0.77-0.25-3.2 1.6-0.59 2.4 0.21 2.3-2.9 0.49-2.9 2.9-3.5 1.9 1.4 2.3-2.3 0.32-2.7 1.5-2 1.9 0.4 0.82-1.3 1.4-1.2 2.1-3.7 1.4-1.1 1.1-4.4 0.21-2.4 2.1-3.9 0.39-1.6 1.4-5.3 0.81-1.5 0.5 1.3 0.19 2.5 1.4-3.6 0.23-1.2-1.3-1.1-0.5-1.3-1-0.93-2.7-2.2-0.65-1.5 0.49-0.42-0.66-1.8-1.2-1.1-0.064-0.8 0.82-1.3 0.07-1.6 1.7-1.4 0.49-2.9 0.6-1.7 0.12-3.5-1.7-2.5-1.2-1.4 1.5-2 0.66-0.87-0.14-1.8 0.89-0.46 0.96 0.5 1.1 0.11 0.55-0.49 6e-3 -1.6-0.63-1.3 1.8-0.39 0.08-1.5-3-3.1-0.061-0.8 2.7 1.4 1.4 1.7 0.91-0.086-0.11-1.4-0.48-2 0.67-0.65-0.2-2.6-0.39-2.5 1.8-0.54 0.092 1.2 1.9 1.5 0.21-2.3 0.43-1.3 1.4 0.89 0.41 0.98 1.2 1.1 0.7-0.29 1.5 0.88 0.48-3.1 5.4-1.7 2.2 0.95 1.6 1.5 0.57-2 0.85-0.89-1.1-2.7 2 1.4 1.1 0.12 1 1.5 1.5 0.44 1-1.5 2.1 3.5 2.3 1.2 1.7 0.5 5 4.6 1.2 1.7 0.51 1.4 0.49 3.8 0.59 3.2 1.1 1.9 2.2 2-1.8 0.18-0.35 2.3 1 2.1-2.4-0.94-5.7 3.8-0.41 9-2.2 4.1-3 7.8-4.2 7.9-2.6 6.7-1.1 4-2.2 7.2-2 2.2-1.1 3.2-0.95 1.3-1.1 2.7-2.1 0.43-2.3 1.2-2.2-0.66-0.99 4.2 2.5 1.8-0.98 0.9-4 1.4 0.2-0.022 0.3 1.4-0.34 2.3-1.6 0.53-0.67 0.72-0.63 2-0.45 5.2 1.5 5.3 0.86 1.7 1.2 1.5 1.4 3.2 0.36 7.1-0.74 4.7 2.2 2 0.57 3 0.9 1.4 0.73 2.6 1.4 2.1 1.6 1.3 0.2 0.79-1.7-1.2-0.96 0.19-0.61 1.5 0.52 1.6-0.055 1.8 0.89 2.1 0.32 4.1-0.6 4.1-0.7 0.29-0.3 4 1.2 1.3 0.47 1.8-0.22 1.4 0.71 1.9-0.24 1 0.87 1.4-1.3 0.56 0.75 2 3.5-0.55 3 1.5 1.8 1.4 3 0.96 4.6 0.36 0.81 1.1-0.21 2.3 2.3 1 3.4-3.4 0.52 1.6 0.46 3.4 3.2 3.6 0.16 2 2.1 0.61-0.44 1.9-2.2 2.6 1.3 0.09 2.4-2.3 1-3.1 0.68-3.1 0.77 0.51 0.42 2.8 1.5 0.078 1.5-1.8 3.8-3.2 2-0.41 1.7-1.3 1.4 0.81 0.74 0.15 1.1-1.7 0.75-2.1 2.8-3.1 1.8-2.1 1.9 0.41 3.5-3.8 4.3-3 1.2-4.6 1.6 2.5 4.3-3.3-1.3-2.5 0.79 0.73 2.2 0.23 1.4-0.58 0.81-1.2 3.6-1.1 2.1-1.1 2.4-1.7 3.3 0.69 1.5 0.2 1.1 1.3 1.9-4.7 2.5-3 7-10 8.7-17 6.2-15 2.7-7.7 4.3-14 2.2-13 0.37-4.6-2.8-9.8-0.59 1.7-2.2-2.4-1.6-1.1-2.1-3.9-2.5-1.4-2.7-0.54-5.8-3.7-2.7-4.2-0.14-4.3 1.3-4.6 6e-3 -4.9-1.5-4.3-4.7-2.4-2.7-3.4-0.92-5-2.9-3.6-3.8 0.15-1.5-4.7 0.48-3.1-1.4-4.1-1.3-1.9-0.13-4.1-1-5.4 2-3.2 0.098-1.3-2.8-6.5-4.6-6.9-4.6-4.8-1.8-3.9-2.4-3.4-3.3-3.8-1.4-4.5 0.47-3.3 0.94-11 1.5-8.9-2-4.7-2.7-2.2-5.9-6.8-3.3-0.7-2.9 0.5-3.5-2.2-2.1-3.6-2-7.1 0.48-3.1 0.12-3.5-0.26-0.78-2.1-0.46 3.4-6.4 0.79-0.88-1.6-0.75 1.6 0.74 0.5-0.41 1.1-2.4-0.17-2.2-0.26-0.78 0.12-1 3.6-5.4 1.5-2.5 0.074-0.65-0.28-1.3-0.36-2.7 0.13-0.61 0.41-0.5 0.9 0.41 1.7 1 1.1-0.086 1.4-0.89 1-1.2 0.36-1.1-0.12-1.1-0.62-0.33-0.49-1.9-1.2-2.9-1.4 1.6-0.91-0.92-1.6 0.33 0.9 2.4 0.67 2.7-1 0.12-0.29-0.7-1.2-0.02-1-1.1 0.78 2.3-0.15 0.6-1.4-1.5-0.52 0.051-0.36 0.48-1.4 0.5-1.5 2-8e-3 -2.6 0.98-1.7 1.2-0.77 0.29-1.2-0.68-1.2-1.1-0.91-3.8 1.6 0.49-1.3-1.4-0.89-2.6-0.55-2.7-1.4-2.5 0.025-0.98-0.71 0.068-0.81-0.19-0.79 4.4 0.16 1.3-0.49 1.7 0.21 3.8-0.37 2.7-0.63 1.4-2.6 1.3-1.3 1.9-3.7 1.9-1.8 0.99-1.7-1.1-2.3-2.4-0.43-2.2-2-2.8 0.86-1.7-0.42 1.3-1.6-3.2-0.72-1.4-1.5-0.75 2.1-0.99 0.9-0.29-1.2-0.66-0.89-3.1 2.5-0.34-0.19-0.34-1.8-0.67-1.8-0.75-0.29-0.81-1.2-1.4 1.2-1.3-0.31-1.3 0.78-0.78 3.5 0.19 2.4 0.81 3.6 1.1 2.7-1.9 1.8-0.53-0.096-1.3-0.68-0.9 0.24-1 0.91-0.59-0.75 1.5-2.3 0.8-3.2-1.2-1.5-2.2 2.6-1.6 0.59 1.9-3-2-1.4 0.58-1.9 3.3-0.54 0.49-2.9-0.57-3.2-2 0.56-0.14-1.8zm-24 5.2 0.4 0.99-0.023 1.4-1.7-0.062-1.4 0.8 0.08 1 1.1-0.76 1.6-0.3-0.24 1.2-1 1.1 0.41 0.98 0.55-0.49 0.93 0.13 0.69-0.43 0.94 0.27 0.87-0.67 1.6-0.74-0.26-0.85-0.46-0.76-0.55-0.31-0.23-0.42-1-1.1-0.92 0.09zm-16 17-0.31 1.1 1.2 4 1.6 2 0.66-0.87 1.1-0.47-0.26-0.78 0.13-0.81-0.42-0.4-0.68-2-1.3-0.9-0.88 0.53zm-8.2 2.5-1.1 0.25 0.36 2-1.1 0.54-0.67 0.65-0.44-1.3-0.053-0.65-0.42-0.33-0.13 0.82-0.51 0.27-0.41-0.18 0.26 0.78-0.49 0.49-0.53 0.86-1.3-0.096-0.98 1.7 1.3 0.092 1.3 3.8 0.2-2.5 0.84 1.4 1.2-1.6 0.8 0.95 0.89-0.45 0.61-1.5 1.5 0.52 0.64-1.1-0.12-1.5 1.1-0.33-0.29-1.1-0.6-0.97-1.3-0.31zm6.2 3.6-0.59 1.7-0.92 0.09-0.75-0.29-0.24 2-1.2-0.47-0.41 1.5 0.42 0.32 0.21 1 0.1 1.2 0.47 0.98 1 1.1 1.8-0.18 0.74 0.15-0.36-2 0.74 0.15 0.76-2.1 0.36-2.1-0.44-1.3-0.81-1.2zm65 29h-2e-3zm-72-21-0.92 0.09-0.43 1.2 0.43 1.2 1.5 0.44 1.2 0.76 0.47 0.91-0.076-0.95 1.4-0.36 0.29-0.47-0.26-1.6-1.2-0.91-0.73-0.15zm-18 8-0.5 0.27-1.4 0.94-0.48 1.4 0.36 2 0.98 0.71 0.61-1.4 0.15 2 0.93 0.13 0.37-0.4-0.36-2 0.15-2.3-0.57-0.53zm-11 1.5-0.51 0.27 1.1 1.7 1.1 2.4 0.4 0.91 1.2 0.55 1.7 0.2 0.4-1.7-0.57-0.53-0.83-1.4-0.72 0.068-0.26-0.78-0.38 0.26-0.66 0.87-0.47-1.8-0.46-0.76zm-8.1 6.3-0.31 1.1 0.64 1.4 0.63 0.53 0.62-1.3 0.54 0.17-0.23 1.3 0.13 1.6-0.79-0.73 0.67 1.8 1.7 0.64 1.4 1.3 1.2 0.48 1.2-1.1 0.66-1.7 0.69-2.1 0.29-1.3-1.5-0.22-0.95-0.35-1.2 0.93 0.033 2-0.8-0.95 0.041-1.2-0.096-1.2-0.39-0.77-0.93-0.13-1.8 0.4zm0.9 7.2 0.42 2.8-0.43 1.3-0.59 0.057-1-1.5-0.16 2.2-0.33 0.84-2.2 0.21 0.36 2-0.31 1.1-1.2 0.12-0.12 1 1.9 0.26 1.3 0.025 3.2-1.5 1.2-1.1-0.12-1.6 1.2-3.8-0.85-1.6zm-10 11-0.55 0.49-0.051 1.8-1.2-1.7-0.21-0.2 1.1 2.5-0.64 1.1-1.5-0.52-1.1 0.77 1.2 1.3-0.99 1.7-1.4-0.82-1.5 1.8 0.86 0.94-1.1 0.47 1.3 0.32-0.022 1.4-0.33 0.84-1.3-0.025 0.57 0.53 0.75 0.29 0.45 0.62 0.54 0.17-0.43 1.2-1.7 1.4-0.16 0.38 1 1.4 1.4-1.2 1.4-0.58 1.8-0.32 0.69-2.9 1.4-0.8 0.31 1.4 1.6-0.38 1.6-0.74-0.52-4.1 0.74-2.3-0.93-2.5-0.82-1.2-1.5-2.5zm-16 11-1.1 0.11-0.28 3.1 0.029 0.36-0.9 0.31 0.098 1.2-1 0.9-1.2 0.7 0.01 2.6 0.51 1.4 1.2-0.12 1.3-0.78 0.98-0.9 0.85-0.89 0.53-0.85 0.35-2.3 8e-3 -2.4 0.4-1.6zm-1.5 12-1.1 0.11 0.018 0.22-0.85 0.89-0.18 1.8-0.19 2.7 0.14 1.8-0.87 0.74 0.37 2.2-2.3 3.3 0.5 1.3-1.6 1.2-2.2 0.87-0.94 1.5-0.93-0.13-1.5 1.4-1.3-0.092-0.59 1.7-1 0.54 0.12 1.6-0.082 1.5 0.4 0.91 1.6-0.96 1.8-0.76 0.97-1.9 1.5 0.08-0.15 0.6 0.12 1.5 1.6-1.2 2.1-2.2 1.6-2.4 1.6-3.2-0.23 1.2 0.51 2.2 1 1.5 0.82-1.3-0.11-1.4 0.79-1.7 1-1.1 0.28-0.61 1.3 1.9 0.55-2.2 1.3-2 2-0.86 0.92-1.7 0.43-2.1-0.61-2.7-1.8-1.9-1.9-0.62-0.57 2 0.52 1.6-1.6 0.74-0.67 3.1-1.3 0.88 0.52-1.5 0.33-2.4-0.88-2-0.34 0.69 0.23-2.1-0.32-1.6zm-7.7 0.38 0.19 2.4 0.14 1.8-1.6 0.38-1.1-1.9-0.32 2.7-0.43 1.3-1.2-0.47-0.41 1.4-0.78-0.73-0.11 1 0.27 1-0.54 0.64-0.29 0.47 0.092 1.2 0.82 1.2 2.2-2.3 1.2-0.92 1.1 0.11 1.1-1.9-0.59 1.7-1.1 1.5 0.66 1.8 1.6-0.52 1-1.6 1.6-0.3-0.37-2.2-0.3-1.4-0.16-2-2.5-4zm-443 14-3.5 0.14-0.16 1.9-1.6 0.85 1.9 1.5 2.2 0.54 4.6 1.8 0.07 0.043-0.0059 2e-3 -0.068-0.043-4.7-0.87-1.5 0.6 5.5 6.5 0.44 3.3-0.71-0.41-2e-3 -8e-3v-2e-3l-2e-3 -6e-3 -0.012-0.012-0.29-0.4-0.12 0.016-0.0059-6e-3 -2e-3 6e-3 -2.1-3.1-0.0059-0.014-0.021-0.02-0.012-0.012-0.0059 4e-3 -0.67-0.44-1.2 1.3-2.4-3.4h-0.0059l-5.1-2.9-2.1 2.7 2.6 2.8-4.2-2.3-0.19 3.1 1.8 2.2-1.2-0.55-1.3-0.43 0.072 4.1 2 1.4 2.4 0.76-1.2-0.082-0.66 0.62 1.4 1.2 0.0039 4e-3 0.23 0.22 0.29-0.34-0.29 0.35-1.8 0.65-2e-3 -6e-3 -2e-3 2e-3 -0.074-0.18 2e-3 -6e-3 -0.0039-4e-3 -0.21-1.9-1.8-0.83-1.5-1.3-1.5-1-1.9-0.096 0.4 2.3 1 1.8-1.1-0.11 0.3 1.3 1.7 2 0.14 0.85-2.2-2.4-1.2-1.1-1.7-0.71-0.93 2.1-1.6 1.6h-2e-3l-0.029 6e-3 0.014 8e-3 0.0039-4e-3h2e-3l4.7 0.6 1.3 0.75 0.52 1.5 8.6-0.92 0.84-0.61-2e-3 6e-3 -0.84 0.6-2.7-0.17-2.4 0.95-3.5 0.14-0.09 0.053 0.4 1.1 4.1-1.3 4.9-0.31 0.44-1.1 0.84-0.61 0.021-0.07-0.71-0.37 2e-3 -6e-3 0.71 0.37 3-0.35 0.9 1.9 1.2-0.62 1.4 0.21 0.89 0.65 0.77 0.14-2e-3 2e-3 1.4 0.21 0.63 2.6 1.2-1 1.2-0.92 1.8 1.4-2.1-1.8 2.1 1.8 0.32 0.89 2.1-0.71-0.031 0.014-2.1 0.7-5.5 2.5-4.2 4 7.9 1.7 2-1.8-0.3-0.42 2e-3 -4e-3 0.31 0.42 0.02-0.02-0.0039 0.041 0.53 0.73-0.53-0.73-1.6 4.6-22 1.8-4.7-0.49 2 5.3 2.6-0.1 2.5-2 13 1.4 0.83 2.7-1.7 2 1.1 3.1 2.1 2.3 5.2-3.9-1.5 1.4-0.18 0.16-3.9 6.3 1.8 0.51 1.5-0.48 2.4-2 3.1 0.98 0.0059-2e-3 0.098 0.08-0.012-4e-3 -0.092-0.074-0.096 0.016-0.0078-2e-3 -0.016 2e-3 -4.4 1.1-0.22 0.12 0.21-0.12-1.1 1.7 1.5 2.7-0.0059 2e-3 -1.5-2.7-0.45 0.67 1.2 0.65 0.38 1.3-2.9-0.3 0.14 2.2 0.19-1.8h0.0039l-0.26 2.5h-0.0059l0.074-0.72-3.3 0.99-1.8 0.38-1.3 0.9-1.8-2.8-1.2-0.46-0.42 7.7 4.9-0.97 2e-3 -0.033-2.5-0.031 2.5 0.029 6.2 1.1 4-0.094 1.6-0.88 1.2-1.7 2.5 0.62-0.016 4e-3 -2.5-0.62-2.8 2.6-4 0.094-6.2-1.1-2e-3 0.031 2.9 0.99 3.3 0.094 2 0.87 4.8-2.7 0.5 0.01-0.36 0.6 0.21 1.5 3.8 2.2-2e-3 2e-3 0.33 0.39 2-1.3-0.29-0.76 0.0059-0.01 1.2 3.1 0.96-0.64 1.3-0.22-0.012 8e-3 -1.3 0.21-0.97 0.65-0.85-2.3 0.53 1.9-1.5 0.21 2.1 0.59 0.29 2.2 1.1 1.5 2.7 2.6 17 5.4 5.7-1.2 5-2.9-0.57-1.2-0.66-1.1 1.6-1.7 10-0.77 0.17-1.8 0.8-0.93-0.6-0.86 0.0039-0.01 0.6 0.87 0.051-0.059 0.082 0.25 1.2 1.7 4.7-2.4 4-3.2 9.6-4.6 0.2-1.5-0.3-1.1 5.4 3.4 0.086 0.023 4.4-3.5 0.99-1.2 0.76-1.5 2e-3 4e-3 -0.76 1.5-2e-3 6e-3 -0.98 1.2-1.5-0.28-1.3 0.74-1.5 3.1 0.36 0.074 4.4-3.2 1.6-4.2-0.87-1.2-0.59 0.2-0.0039-4e-3 0.59-0.2 0.0039 2e-3 0.22-0.1-0.41-0.018-0.0059-4e-3 0.41 0.016 1.8-2.1 2e-3 6e-3 -1.8 2.1 2-1.1 0.14-2.6 1.2 0.67-0.57-0.59 0.58 0.59 0.32 0.18 2.9-0.41-0.027-0.98 0.029 0.98-2.8 0.41 0.52 0.3 2.7-0.3-0.14-2.2-0.36-0.088-2e-3 -6e-3 0.36 0.088 0.0059-0.051 0.53 0.086 1.2-0.45 0.79-0.86 0.87-0.84-0.059-0.84h2e-3l1 0.047-2.6-2.8-0.61-1.2 0.98-0.11 2.1 2.3 2.1-0.9 1.1-2.1-1.5-3.1-0.3 0.98 0.3-0.99v-2e-3l0.02-0.025-0.02-4e-3 0.46-1.4-2e-3 -2e-3 0.52-0.68-1.6-2 1.4-2.1 0.41-1.8-0.4-1.6-7.7-5 0.21-2.4h0.0039l0.16-1.3-3.4 0.29-2.9 0.89 1.1-2.4 1.6-2.1 0.96-2.2-0.89-2.8-3.5-0.14-1.3-0.7-0.8-1.2h-2e-3l-2e-3 -0.01 2.8-2.3 2e-3 0.01-2.8 2.3 3.1-1.9-0.15-1.7 0.09-1.2 1.9-0.78 1-0.29 0.61-0.78-0.83-0.99-1.6-0.36-1.1 1.3 0.0059 8e-3 -2e-3 4e-3 -0.0098-0.012-3.8 2.8h-2e-3l-1.6 2.2-3.7-3.3 0.7-2.1 0.11-2.2-1.7-0.91-8.1-3.1 2e-3 0.047-0.0078-0.045-0.36 0.023 0.51 4.6-0.35 4.6-1.5 0.19-1.1 0.63 0.29 1.2-0.11 0.68-2.5-1.1-1.2-2.2h0.0039v-2e-3l-0.014-0.36-4 1.8-2.1 4.2-2.2-0.22-2.2-4.3-4.8-2.3-0.5 6.6 0.072-0.025-0.22-2.6 0.22 2.6 1.5 1.2v0.01l0.42 4.4-0.42-4.4-1.5-1.2-0.072 0.025 1.1 9.2-0.87-4.6-1.1-4.4-1.4-0.17-0.67-0.79-1.2-5.5-2-1.3-2.8 0.26-1.4 2.4-2.9-0.3-1.2 5.3-1 5.2-1.3-0.7-1.1-4.3-1.8-1.6-2e-3 -2e-3 -0.0039-0.01-2e-3 -2e-3 -0.98-3.1-1.1-3-2 0.38-1.8 0.7 0.43 9.6-0.53 4.2-2.4 3.6-1.7-1.6 0.45-4.4-2 1.2-3.1 5.2-0.94 0.26-0.016-6e-3 -0.0098 0.012-0.16-0.012-0.027 0.24 0.0039-4e-3 -0.47 8.1-2e-3 -0.023 0.46-8.1-0.7 5.5-0.22 0.014-0.0059-0.025-0.46-3.7-0.12-4-1.1-3.2-3.3-1.4-0.64-2.1-0.34-0.92 0.26-0.77 0.84 1.1 0.35 1.5 2.2 0.22 2.6-7.4-2.1-1.3 0.85-0.23-0.48-1.7-1-0.72-1.2-0.1-3-6.5-2.9-0.3-0.95-3.1-5.9-3.2zm102 59-2e-3 4e-3 -1.2 0.45h2e-3l3-1.9-0.11-0.21-0.87 0.84-0.79 0.86zm-4.8 2.6-0.0098-4e-3 -0.12 0.018 0.0039 6e-3 0.13-0.02zm-9.4 12-0.084-0.022 0.078 0.057 0.0059-0.035zm-25 7.6-0.13-0.19-0.0039 6e-3 0.14 0.21-0.0059-0.02zm0.0059 0.02 1.1 1.8 0.045-0.055-1.2-1.7zm-45-3-0.0098-0.031-2e-3 2e-3 0.012 0.029zm-15-8.5h2e-3v-0.01zm1.6-4.6 0.0039-4e-3 -0.014-0.016 0.93-1.6-0.94 1.6 0.014 0.016zm3.8-26v-4e-3l-0.016-0.022-0.0039 2e-3 0.02 0.023zm-6.8-9.6-0.77-0.14v2e-3l0.13 0.13 0.63 2e-3zm-0.77-0.13-2.3-0.86-0.5 0.4-0.66 0.21-0.9-1.9-3 0.36-0.02 0.07 1.3 0.23 1.7-0.3 0.54 1.9 3.9-0.084zm-18 0.5 0.09-0.055-0.52-1.5-1.3-0.75-1.6-0.16-3.1-0.45-0.41 0.32 6.9 2.6zm12-26 1 1.1 2.3 0.49 2.7 0.41 2.3 0.97-2e-3 4e-3 -7.4-1.9-1-1.1zm2.1 3.4h0.0059l1.6 2.7 4.2 4.6-1.8-2.5-4-4.8zm77 2.1 0.6 2.4 0.38 2.4-0.38-2.4-0.6-2.4v-0.01zm-86 0.71 2.3 2.9v4e-3l-1.8-1.7-0.54-1.1 2e-3 -2e-3zm-1.6 1.3 0.0039 2e-3 -0.44 1.9 0.44-1.9zm109 2.4 0.0098 6e-3 -3 1.5-0.79 1.1 0.79-1.1 2.9-1.5zm-109 0.047 1.5 2 4.9 2.8h-0.012l-4.9-2.8-1.5-2v-4e-3zm41 0.97 0.39 9.5-0.5 4.2-0.0039 8e-3 0.5-4.2-0.38-9.5 0.0039-2e-3zm41 0.91h0.018l-0.018 2e-3zm-25 0.027 0.11 1.4-0.11-1.4 2e-3 -8e-3zm-28 0.73 2e-3 6e-3 -2.7 1.5-0.0039 2e-3 0.99-1.2 1.7-0.31zm57 0.74 0.86 2.3h-0.0039l-0.86-2.3 0.0059-2e-3zm-72 0.28 0.55 0.52-0.55-0.51v-4e-3zm0.57 0.53 0.023 0.93-0.43 0.82-0.79 0.22 0.79-0.22 0.41-1.8zm-15 0.13 4.6 2.8 3-0.48v2e-3l-7.6-2.3v-4e-3zm53 0.62 0.14 2.8 0.16 2.9-0.31-5.7 2e-3 -4e-3zm-56 0.38-0.55 0.98 2.4 3.4 1 0.85-1-0.84-2.1-2.2-0.32-1.2zm465 0.24-0.83 1.1-0.97 1.1-1.3 0.34-1.7-0.64 0.48 1.1 0.4 0.98 0.39-0.039 0.061 0.8-1.1 0.32-1.1 2.2 0.98 0.71 1-0.32 1.7-1.6 0.97-1.9 1.4-0.94 0.26-1.7zm-438 2.8 2.3 2.8 0.73 0.074 1.3-0.91 0.8-1.6-2e-3 6e-3 -2.1 2.5-0.73-0.076-0.89-1.6-0.39-0.85-1-0.35 2e-3 -8e-3zm-21 0.23 0.75 0.63v2e-3l-0.75-0.63v-4e-3zm1.5 0.71 0.17 0.6-2e-3 2e-3 -0.17-0.59 0.0039-4e-3zm-8.5 0.24 0.0059 2e-3 1.1 2.1 1.8 1.5-0.0059 2e-3 -2.9-3.6zm-3.9 1.9-0.66 0.97zm118 0.56 2e-3 6e-3 -3.7 6.6h-0.0039l3.7-6.6zm-75 1.4-0.096 0.059zm-16 0.3 0.58 0.38-2e-3 2e-3 -0.58-0.38-0.92 0.46 0.92-0.47zm15 1.1-1.4 4.6-0.0039-2e-3 1.4-4.6 2e-3 -2e-3zm-17 1.5 0.18 0.85-0.18-0.85 2e-3 -2e-3zm0.18 0.86 0.4 0.67-0.0039 4e-3 -0.4-0.67zm96 1.2-0.02 4e-3v-2e-3h2e-3zm-0.4 2.2-2.5 3.1zm-1.2 2.9-1.7 2.1v-4e-3l1.7-2.1zm-98 1.3 7.5 1.7-2e-3 4e-3 -5.1-0.4-2.4-1.3 2e-3 -2e-3zm107 3-1.8 3.8-2e-3 -2e-3 1.8-3.8zm-121 5.9 10 1.5 3.6-0.11v2e-3l-7.2-0.5-6.6-0.92-3.2 2.2-0.0039-4e-3 1.8-0.8 1.3-1.4zm120 0.22-2e-3 6e-3 2e-3 2e-3 -1.1 0.56-3.2-0.14-1.1 0.5h-0.0059l1.1-0.5 4.3-0.42zm-5.1 4.3 3 2.9 1.8-0.69 1-1.6 0.0039 8e-3 -2.8 2.3-1.4-1.5-1.6-1.4-0.29 1.6 0.29-1.6zm-93 2.6 0.09 0.082-0.088-0.078-2e-3 -4e-3zm0.092 0.082 1.7 0.1-0.0039 2e-3 -1.7-0.1-0.0039-2e-3zm-0.037 4e-3v2e-3h0.0039l-6.7 4.4-2e-3 -4e-3 3.2-2.5 3.6-1.8zm95 2 0.0098 0.01-3.2 0.38-0.098 2e-3 3.3-0.39zm-98 0.33-0.14 0.13zm89 2.2 0.0039 6e-3 -1.1 0.13-0.0098-6e-3 1.1-0.13zm-0.46 0.56 0.44 0.2 0.066 0.037-0.5-0.23-2e-3 -6e-3zm5.5 0.2-0.0039 0.051 0.53 0.037-0.52-0.088zm-93 1.1 3.9 1.1-0.012 2e-3 -3.9-1.1-5.3 2 2e-3 -4e-3 5.3-2zm-13 8.2 2e-3 4e-3 -1.1 6.9-0.0059 2e-3 1.1-6.9zm88 0.94 0.1 2.6-5.3 1.6-4.2 3-4 3.2-4.7 2.4-0.047 0.055 0.37 0.35 18-11 0.22-2.2-0.69-0.44zm0.69 0.44 4.7 3-4.7-3v4e-3zm-84 0.85-1.1 1h-2e-3l1.1-1 0.0059-2e-3zm13 3.6 3.6 4 1.2-0.56-1.2 0.57 2e-3 -4e-3 -3.6-4 0.0039-2e-3zm7.9 5.4-0.5 0.51-0.066 1 1.7 2.6 2.2 2.2 17 5.4 11-4 0.0039 4e-3 -11 4-4.4-1-3.9-2.1-3.9-1.9-4.4-0.38-2.2-2.2-1.7-2.6 0.064-1 0.0078-8e-3 0.5-0.51zm38 2.8 2.9 0.072-2e-3 8e-3 -5.2 0.61-4.8 0.2 0.0059-8e-3 7.1-0.88zm320 74-2.8 1.4-0.31 1.1-0.85 0.89-1.5-6e-3 -0.15 0.6-1 0.32 0.63 1.3 1.2 1.5 2.8-1.9 5-1.5-0.34-1.8-1-0.93 0.32-0.98zm-41 41-0.71 1.1 0.1 3 0.08 1 0.15 0.21 0.59-0.059 0.28-0.61 1.2-1.8 0.43-1.2-0.41-0.98zm-12 16-0.09 3.9 0.51-1.1 1.4-0.94 0.14-0.68-1.4-0.67-0.55-0.31zm-1.9 23-0.64 1.1-0.89 0.45-0.95 1.3 0.049 0.58-0.18 0.24-0.33 0.84 0.25 0.56 1.1-0.11 0.49-0.41 0.9-2.7 0.1-1.3zm208 11-1.3 1.6 1 1.3 0.14 1.8-1.7-0.21 8e-3 2.6 0.73 2.6 1.7 0.057 1.9 0.62 2.3 2 0.61-2.3-1.9-0.62-0.91-2.4 1.2-0.92 0.56-2.1-0.11-1.4-1-1.1-0.39-0.77-2-0.023zm38 0.33-0.84 1.1-1.2 0.92-1.9 1.7 0.17 2.2-0.95 1.3-0.27 1.6 2.1-1 1.2 0.33 0.94 0.28 0.82-1.2 0.3-2.9zm-13 4.4-1.6 0.74-0.035 2.1 1.2 1.1 1.4-0.36-0.18-2.2zm38 21-8.8 5.2-7.3 1.9-4.8 7.9-7.4 1.7-3 4 1.9 3.5-0.24 8.7 3.4 1 3.2 13 8.9 1.2 3.6-4.1 2.5 1.2 1.2 4.7v2e-3l-2.2 3.9 2.4 9.6-1.8 11-2.8 2.5-5.8 1.8-8.5-6.6-6.6-2.8-1.8-6.2-4.4 4.5-6.4 2.4-2.7 13 1.4 3.1-1.1 5.3-1.4 2.7 0.91 5.7-1.3 12-0.65 4.5 2.3 4.1 3.2-0.051 0.82-2.5 2.1 0.11 1.1 7.7 0.92 7.5-2.5 4.7-5.3-0.84-1.7-1.6 0.39-2.2 2.7-8.4-2.4-0.57-2.6 8.9-3.3 0.17-2 4.3 2.1 0.27 0.3 1.6 2.4 0.81-4.6 2.9-2.6-0.15-3.1 4-3.3 2.6-3.9 1.2-0.29-1.5 4.8-3.1 0.14-2.2-3.4 2.9-4 1.1-2.1-1.3-0.043-1.5-2.1 0.014-6.3 1.1-5.9 3-2.6 2.5-3.6 0.82-6.7 1.4-3.7 2.2-1.7 2-2.6 3.4-5 2.3-9.2 2-5.3 1.5-3.7 2.4-3 3.9-0.59-0.96-3.6 1.5-1.3 1.7 1.4 0.064 2.5 0.86 0.21 2.4-0.72 1.8-5.1-2-2.3-0.37-2.2-0.5-2.2-0.89-1-3.8-1.3-2.2-1.4-1.8-0.87 0.21-2.1 0.18-1.9-1.4-0.89-0.047-0.88-2.1-2.2-1.4-1.7-1.7-2.1 0.19-2.4 0.9-2.4 1.1-1.8 1.4 0.55-1.6 1.6-1.7 2.6-1.8-1.9-0.15-2.4 0.53-2 2.8-1.8 2.2-1.1 3-1.2 0.8-0.17-2-2.3 0.77-3.3 0.99-2.5 2.3-1.1 1.2-0.66 0.38 0.96 1.5-2.8 0.24-1.8-0.35-1.8-0.73-2.5 1.6-1.5 1.2-0.72-1.7-0.64-1.5 1-2.8 2.1-1.6 1.5-2-0.043-2.7-1.3-0.96-1.7 0.85-3.1 1-2-0.021-1.2-1.9-3.7-1.3-1.1 1.7-1.8-0.031-0.18-2.1-2.3 0.0098-0.97-0.93 1.8-2.4 0.1-2.5-1.7-3.2-2.1-0.51-2.4-1.1-3.4 0.3 2.1-1.1 1.9-0.49 0.19-0.71 0.68-0.19 0.62 0.64 1.6 0.31-0.12-1.4-0.7-1.5-1.5-1-2.1-0.066-0.15-1.7 0.094-2.5 1.6-1.1 1.4-0.95-0.1-1.1-0.7-0.064-0.24-2.8 0.36-2.4 0.48-1.1-0.91-1 1.2-1.7 1.6-1.7-0.098-1.1-2.1-2 1.8-0.73 3.9 0.55 0.52-2-1.6-2.6 1.3-1.1 3.8 0.37 1.7-2-0.91-3.8 1.2-3.7 1.6-0.84 0.13 1.5 1.1 2.1 1.7-2.5 0.53 1 1.4-1.1 2.8-3 1.2-3.4-0.64-2.3-1.6-0.56-1.8 0.38-1-0.078-1.4-1.8-2-1.2-1.3 2.1-0.71-1.5 0.3-1.7 1.9-2.4-0.63-0.64-2.6 0.92-0.5-1.9 2.5-1.6 0.73-1.1 0.033-1.2-0.67-2.3-1.3-1.7-6.1-0.45-4.6 0.72-6.4 0.73-2.6 1.4-4.6 0.48-1.9 2.2-6.3-0.082-2.4 6.6-0.5 3.7-1.7 4.5-0.23 3.9 0.75 8.6 0.98 3.3 0.11 4.2-0.7 3.5-0.22 1.8 1.5-0.0059 1.1-0.79 3.1 2 2.2 2.2 1.4 3.2-0.055 10 0.71 3 2.5 0.1-2.5-0.098-0.068 1.4-0.18 1.6 1 1.7 1.4 2.5 1.8 1.9 0.69 2-1.8 1.2-2 1.1-0.29 1-1.1 1.4 1.7 0.16 1.3 0.96-0.54 1.8 0.85 1.7 1.3 1.3-0.21 1.2-1.2 0.3-0.3 2.3 2 1.4 2.1 1.2-0.62 0.81-4.9 0.24-1.8-0.037-1 1.9-0.57 1.4-0.12 3 0.012 2.3 1.8 6.2-1.6-2.3-1.8-3.7-2.3-0.68-0.051 3-2.1 0.19-0.45-3.7-1.5-2.8-4.7-0.99-5.1 0.63-3.1 0.78-1 2.4-1.3 1.2-0.89 2.2 0.25 0.67 1.1 0.6 1.9 0.53 1.5 1.1 1.4 1.5 0.75 2.7-0.53-0.27-1.5-2.7-4.5 0.96-0.19 0.02-0.18-0.55-1-1.3-2.4-2.3-0.72-0.25-2-0.59-3.7 0.2-0.87 0.2-1.5 1-0.8 0.26-0.77-0.12-1.2-0.4-1.8-0.35-1.4 0.12-1.8 0.28-2.4 1.3-0.99 0.27-0.84 0.58-0.64 0.63-0.55 0.18-0.64 0.63-0.87 1.7-0.51 0.74-0.26 0.72-0.14 0.53-0.064 1.4 0.34 1.7-0.076 1.3 0.076 0.89 0.041 0.5 0.22 0.3 2.1 0.014 0.72 0.31 0.027 0.32-0.074 0.57-1.1 2.2-0.22 1.1-0.27 1.2-0.28 1.1-0.039 1-1.5 1.2-0.34 0.41-0.7 0.061-0.39-0.15-0.11 0.19-0.18 0.14 0.064 0.76 0.062 0.69 0.97 0.93 0.39 0.85 0.22 2.5-0.07 0.7-0.55 0.24-1.6-0.24-1.9-1-1.1-0.41-0.61-0.52-0.91-0.94-0.035-0.38-0.21-0.29 0.26-0.6-0.016-0.19-0.17-1.9 0.035-1.8 0.35-1.8 0.49-0.93 0.85-0.39 1.7-0.34 0.17-0.21-0.027-0.32 0.13-0.71-0.22-0.36-0.22-0.3-0.89-0.81-0.62-0.52-0.25-0.68-0.67-1.8-2.7 0.93-2.2 5.1-1.7 6.3-1.1 5-4 4.5-1.3 1.2-0.92 1.2-0.19 0.02-0.63 0.75-0.19 0.021-0.33 0.54-0.22 1.1-0.13 2.8 1.7 1.8 2.4 1 2.9 0.45 1.4-0.31 2.4-0.9 1.3 1.2-2 1.1-5.6 1-3.2 1.5-6.6 1.1-1.2 2.4 1.6 0.56 3-0.07 2.1 0.51 0.85 0.87-1.1-0.15-3.5 0.12-2.9 1.3-0.92-0.43-2.3-2h-2.2l-0.83 0.64-2.3 0.2-3.3 0.99-7.6 3.6-0.031 1.1-0.43 5.3 0.58 2.9h-2e-3l-0.57-2.9 0.42-5.3-1.6 0.84-3.8 0.65-3.2 0.15-4.3 0.88-4.3 1.5-2.7 5.7-2.2 9.5 1.2 1.5-0.52 2-4.6 3.7-4.5 2.7-5.9 1.3-4.8 0.93-5.2 2.5-2.7 3.8 0.027 1.8 4.6 0.8 1.9 0.92-0.7 0.76-6.8 0.031-3.5 1.9-3 0.26-3.4-0.4-4.4-1.9-5.1-1.5-1.7-0.043-1.5-3.2-1.8-2.3 1-2.9-1.1-0.79-6.9-0.66-3-1.4-0.49 6.7 0.64 2.9 1.9 2 4e-3 4.4 0.49 3.5-0.54 3.9 0.37 4.2 2.1 1.7-1.7 1.4-3.9-0.42-1-1.6-1.3-0.77-2.6 0.23-2.6 0.73-1.9-0.53-0.79-0.44-2.9 0.38-3.3 0.67-2.9-2.9-2.5-3.6-1.7-1.8-3.7-0.56-1.9 0.035-1.3-0.96-2 0.68-0.72 1.8-2.7 0.049-2.3 0.38-2.8-0.45-5.5-0.031-3.9 0.66-4.1 1.2-1.9 3-0.36 1.7 6.9 0.48-0.89 1.5-1.8-0.037-1.8 1.7 0.34 1.7 2.5 0.17 0.34 1.7-5.3 1.2 3.6 4.6 1.2 3.1 4-0.86 3 0.24 1.9 1.4 4.8 2.6 2.9 1.8 2.7 2.7 0.45 0.85 0.22 1.1 1.7 0.87 4.4-0.7 2.2 1.2-1.7 1 6.1 1.1 0.94 0.61-0.84 2.7-0.81 3.1 4.1 0.84 5.7 0.58 3.3 2-7 0.3 0.61 2.5-0.23 3.9-1.1 3.6 1.7 5 2.5 4.5 3.8 3.5 4.2 2.8 2.9 1.1 0.21 0.17 0.69-0.062-0.41 3.3 0.97 3.1-0.67 4.7-2.5 3.5 0.81 3.5 3.4 2.9 2.1 4.1 0.61 4.8-0.86-1.8-1.8-2.8-2.7-3.6-1.4 2.5-1.1 5.9-2 6.7-1.2 4.9 0.078 0.88 2.3 2.8-1.1 0.98-3.3 5.9-2.8 8.4-2.7 7.3-1.6 5.2-2.1 3.9-4.2 2-3.6-0.95v2e-3l0.34 1.7c3 2.7 3 2.7-2e-3 2e-3l-0.34-1.7-3.5 0.5-6.6-1.3-4.8-2.6-11-1.3-6.9-2.4-3.8-1.9-5.1 0.45-7.1-0.96-6.3-1.7-7.7-3.1-4-1.9-4-1-6.4-3.3-4.2-1.6-4.1 1.1-7.5-1.3-7.5-1.8-6.6-2.9-4.9-3.8-3.3-1.7-3.8-0.18-5.1 0.062-3.3 3.1-0.48 2.5-3.5 2.1-6.8-1.4-4.4 0.19-5 1.8-3 4.3 2.3 3.7 2.1 2.7-1.3 2.9 2.1 2.1 1.8 0.22-3.7 4.2 3 2.4-2 2.8 3.4 0.46-3.3 2.6-2.4 4.1-0.78 3.4 0.54 1.9-0.26 5-0.58 7.1-0.25 5.2-0.98 3.3-1.3 3.3-1.8 3.8-1.9 4-2 3.2-2.7 5.7-2 5.6-2 3.5-2.7 3.8-1.4 2.4-3.5 4-4.1 3.2-2.3 2.3-1.9 6.9-3 5-0.084 1.2 2.7 2.9 1.6 4.4 0.61 2.6 3.1-0.47 3.9 0.17 2.1 0.38-0.74 1.7-1.5 1.1-0.33 2-1 4.1-2.1 4.4 0.055 2.8-1.1 3.3-0.54 1.8-0.58 3.5-1.7 3.3-3.5 4.4-1.4 4.4 0.85 1.7 4.7-0.096 4.9 1.2 5.1 1.5 3.4 2.2 4.5 1 4-0.35 3.4-1.2 2.8-0.062 0.8-0.26 5.7 0.9 3.2 0.6 2.8 1.5 5.3 4.5 3 3.6 0.82 3.6-0.53 4.1 2.4 3.1-0.28 3.4 1.2 3.2 2 4.6 4.3 4.4 4.6 1.9 2.2 0.7 1.6-0.26 1-0.66 1.1 0.096 2.3-1.6 1.8-2.1 4.3-3 5-1 5.3 0.61 5.7-4 3.9 0.36 4.1 0.027 7.4 0.55 5.1 1.7 6.9 0.094 6.3 2.6 5.4 1.1 6.6-1.5 4.9 1.8 3.3-0.096 2.7-2.2 2.2-3 2.2-3.5 1.6-3.5 9.6-5.9 4.5-0.21 4.8 0.28 3.8-0.21-0.39-2.4 1.5-3.3 2.4-2.9 1.4-3.7 2.4-2.7 2.4-3.2 3.1-2.6 4.1-1.8 5.7-3.5 2.3-3.2-1.1-2.5-3.1-1.1-2-1.4-1.7-2.5-0.54-2.6-0.17-4.2-1.3-2.2 0.1-1 1.5-2.1 2.1-4.7 4.5-4.6 4.6-4.1 7.4-9.8 5.4-5.2 3.8-2.8 0.29-2.5 5.2-5.2 17-4.3 7-1.6 5.6-4.2 8-3.7 7.2-4 3.8-4.2-1-3.5 0.36-2.9 2.3-1.8-0.4-2.2-1.1-0.54-1.2-1.5 0.13-11-0.97-0.93-0.39-0.85 1.4-5.3 2.5-3.7 4.6-1.5 2.9-1.1 4.2-2.3 2.1-2 3.4-1.6 2.1 0.2 1.2 1.5 5.6 1.3 1.1 0.6 0.81 1.3 3.1 1.3 3.2 0.11 0.58-1.3 2.1 4e-3 0.77 0.13 1.7 1.1 2.6 0.27 2.2 1.1 0.48 1.9 1.5 0.63 1.8 0.35 2.5 0.1 1 1.4 1.1 0.79 0.92 1.1 2.9 0.12 2.7 0.28 0.34 0.29 1.5-0.83 7.5-2.6 0.97-1.2 0.18-2.3 1.2-0.48 2.3-1.8 2.3-1.9 2.1-2 2.2-1.3 0.57-1.4 6.9-3.4 0.43-0.79-0.016-2e-3v-2e-3l0.016 2e-3v2e-3l3 0.3 3.5-0.3 3.9-1.4 1.9-1.2v-2e-3l0.67-2.5v-2e-3l3.4-4.9 1.7-0.85 0.7-2.2 3-1.5 3.4-1.3 3.2 0.039 3.4 0.78 3.7 2 11 6.6 6.4 2.4 1 1.7 0.77 4.5 2.1 5.6 3.1 7 1.2 4.1-0.15 2.7 1.2 1.3 6.7 6.1 3.9 4.4 1.6 5.5 2.9-1.1 2.7-0.045 3.6 2.5 3 4.1 2.6 3.3v2e-3l3.7 0.37 2.1 2.8 5.3 5.9 5.1 4.8 5.8 3.7 4.2 3.3 2.2-0.89 10-0.19 2.3 0.49 3.1 2.8 3.1 3.2 1.9 3.9 6.5 2.1 0.59 0.96-0.24 3.1 3.6-0.88 3.7-0.83 2.1 0.33 1.8 2.1 1.8 4.1 0.012 1.6-0.46 1.3 2.2 2.6 4.7 1.4 2.2 1.7 2.2 2.7 1.6-3.7 2.1-0.19 0.6 1 1.4 1.7 0.96 1.5 0.61 2.5 1.8 5 2.6 3.6 2.6 3.3 2.4 7 1.5 2.5 1.3 3.4 1.2 2-5.3 3.1-2.1 2.5 1.1 4.1v2e-3l-2.4 4.5-1.2 4.2 0.72 4.7v2e-3l1.1 2.9 0.39 0.15 3-0.068 3.1-0.84 1.1-0.92 0.86-2.5v-2e-3l1.7-4.6 1.1-1.9v-2e-3l2.4-2.6 2.6-0.98 0.86-2.5-0.42-4.7v-2e-3l-0.35-4 1-2.1 3.1-1.3 3.8-2.6 1.9-0.17 0.54-1.8-0.57-2.1-0.1-3.4-0.64-1.5-0.53-3.8v-2e-3l-0.21-0.3-1.9-1.8-4.2-1.5-2.1-2.5-4.6-1.4-0.16-4 0.71-4.2 0.4-3.4 2.7-5 3.9-5.3 4.1-1.2 2.4 1.6 4.6 2.3 5.5 0.72 4.5 1.7 1.9 3.4 3.5 4.1 4 1.2 0.62 0.51-0.076-0.88 0.76-2.9 1.5-3.6-1.6-2.7-2.7-3.1-4.3-3.4-3-3.9v-2e-3l-2.1-2.7-4.1-0.66-10-2.6-3.4-3.1-4.9-2-9.6-2.6-4.9-1.5-3.1-1.5-2.5-0.6-1.6 0.13-1.3-1.5-0.19-2.1 2.1-2.6 2.6-2.1 0.084-3.4-1.2-1.1-1.6-1.8-2.1 0.18-1.9 0.55-1.4 1.1-3.3 0.48-8.4 0.54-0.13 0.71 0.2 2.3-5.3-4.4-4.1-2.5-1.2-0.4-0.66 0.37-1.1-2.9-1.6 0.14-1.2-1.3-7.1-5.5-2.2-3-3.2-5-1.5-3.2-1.2-3.3-1.3-1.7-1.5-4.8-1.4-3.7-1.6-2.1-1.7-3.2-1.7-0.87-2.3 0.012-0.41-0.35-0.2-0.87-1.7-0.87-3.8-2.3-2.7-2.4-2.9-0.76-3.2-1.5-1.8-0.92-2.4-2.6-2.2-3.2v-2e-3l-1.4-3.2-0.19-6.5-0.01-3.7v-2e-3l0.37-2.3 2.1-2 0.3-2.3-1.3-2.4-2.7-0.65-1-5.4 0.47-2.6 1.7-1 2.1-2.2 1.3-0.11 0.56 0.65 1.5-0.45 3.7-2.1 5.2-2.9 2.3-1.8 3.4 0.59 3-1.8 2.7 0.14 0.31 2.1-0.56 1.6-0.16 1.1v2e-3l0.01 6e-3 -2.6 2.3 0.81 3.5 0.91 3.9 2 3 3.3 6.1 1.9 1.3 1.9-0.55 3.3-7.5 1.9-6.5 4.5 1 3.3 3.3 1.1-0.094 1.8 1.9 1.3 3.6 0.46 5.2 3.3 5.7 3.7 2.1 4.3 3-3.8 1.2-0.93 1.7 0.36 1.9 4.5 4.9 4.1 2.1 2.7 2.1 4.2 1.5 1.9 3.2 0.93 2.6 1.6 0.051 5-1 4.6-0.014 6.7 1.9 5.9 3.3 5.3 4.6 3.3 1.9 0.72 1.7-2.2 0.06-2.3-2.3-4.1-0.34-1.1 1.7 4.8 0.6 6.2 2.8 2.9 0.25 3.3-0.1 7.8 4.1 3.8 2.3 3.4 1.5 1.7 1.2 2.6 1.2 2e-3 2e-3 4.9 3.4 3.5 1.8 3.1 4.5 2.2 1.4 0.012-0.062h-0.014l0.014-5e-5 3.3 0.082 2.1 1.7-0.98 5.5-0.64 4.3-0.18 2.3 2.3 3.9-0.29 3.2 0.89 3.6-0.6 1.1-0.64 5 2.2 5.1 0.46 3.1-2.9-0.064 2.1 3.3 4.5 4.9 7.2 1.5 3.3 3.2 1.3 4.1 4 1 0.39 0.16v2e-3l3.6 6.6 4.3 2.3 7.6 8.8 0.37-3.7 6.3 1.4 1.9 3-3.6 1.4-4.2 0.18 6.4 6.5 3.1 4.5 2.1 2.3 2.2-1.1 0.56-1.6 1.4-0.25 5.9 1.2 7-2.3 5 0.074 5-1.7 4 0.53 2.1-2.5 3.2 2.2 3.3 1.8 4.7-0.22-0.1 3.2-3.9 2.1 4.2 1 5.7-1.2 5.3-2 5.1 4.1 5.5 2 1.1-2.7-1-4.7-0.35-3.6-2.8-3.4-3.5-1.3-2.1 0.19-3.6-1.6-3.6-2.5-2.6 0.55-2.8-3.9-3.7 0.46-3.3-1.1-3.7-0.18-5-1.1-2.3-2.1 3.7-1.6 2.5-0.21 1.8-0.86 0.95-1.5-0.8-1.2-2.4-3.7 0.2-3.5 3.7-0.13 2.1 1.9-0.15 2.7 1.8 0.16 1.6-1.5-1.5-2.8-2.8-3.5-3.4-2.5-4.8-2.6-2.8-5.4-3.2-2.4-1.7-4.6-0.99-5.6-0.11-5.6 3.2-1.5 1.7 2.8 5.4 2 4.4 1.9 5.5 6.2 5.9 1.7 0.59-1.3-4.2-2.1-2.8-3.9 1.5-0.83 4.1 0.72 4.1 3.1 3.8 2.5-0.037-2.5-5.9-4.2-0.7-3.8 2.4-0.4 5 0.36 2.7 1.8 2.3 0.74-1.4-1.8-2.1-1.8-2.9-1.8-5.6-1.7-5-3.5 3.7-3.8 5.9-2.8 3.1-4.8 4.4 0.69 2.8-0.62 1.8-1.2 3.3-3.1 3.5 0.076 3-0.26 12 0.31 6.2 2.5 4.2-1.1 3.1-0.51 4.9 0.22-2.2 2.2-4.7 1.6-3.4 2-0.45 2.1-0.092 4.6 2.4-0.98 2.2-3.5 3-2.3 4-2.7 4.2-2.6 5.7-5.7 2.7-5.3 5.9-2.4 3.3-0.67 5.9-6.4 5.4 0.36 2.3-3.2 17-3.5 1.1-4.2-13-2.6-3.2-8e-3 -3.7 0.059-6-1.4-4.6-2.3-1.8-2.5-3.2-1.6h-2e-3l-2.4-3.3-3.2-2.2-2.3-2.1-2.4-3.3-2.1-2-2-0.14-1.5-1.3 1.9-2.5 1-2.1 0.51-2.1 2.8-2-1.5-5.9-1.1-4.8 2.8-6.3 6.4-3.7 0.67-4.6-0.7-5.8-1.7-3.9-0.43-2.8-1.8-6.3 0.23-3.2-0.54-4 0.47-4.8-0.72-4.6-0.33-3.8 2.5-0.73 0.83 2.9 0.68 1.9-0.77 5-1.5 3.1 1.4 1.8 1.9-3 1.7-4.4 2.7-3.6 3.4-1.9 1.5-4.5-0.52-3.8-1.2-4-0.37-2.1-1.8-2.3-2.2-0.38-2.9 0.63 2.9-0.63 2.2 0.38 0.46-2.6-2.1-4.2 6.4-1.3 0.5-5.2-2.8-5.9 0.19-5.5 6.8 2.4 2.6-10 14-5.3 3.2-3 4.7 1.4-1.1 5.3-11 2.2-2 5.8 7.9 4.2 5.5-2.8 12 4.4 18-9.5 6.9 2.7-4 6.6-2.5-1.2-3.4 6.5-7.3 4.6-1.5 3.7 4.9 2.1 8-5.7 1.8 5.4 8.6-0.053-1.1 13 12 3.3 5.6-5.2 5.7-9.3 11-1.3 5.7-9.3 11-2.2 3-2.9-0.44-7.3-12-1.8-11 6.2-19-11-9.6 0.96 4.5-7.4 12-4.1 8.8-1.8 14-19 9.2-0.17 4.9-9.8 0.54-3.5 5.4-4.5-3.9-6.3 2-5.5 10-3.4 11-7.4 0.19-11-9.3-7.9-0.62-19-13-6.2-28 1.6-17-8.1-24 5.9-6.5-2.1-4.2-9.7-7.2-4.3 0.3-3.1-6.6-5.5-13 2-6.7-6.1 2.4-3.6-2-2-6.5-2.1-5.4-7.7-10 0.37-8.9 7.6-18 5-7.5-13-0.039-4.7-9.9-6.1 0.1-4.1 7.9-1.6 11-4.7 2.8-4.7-6.5-5.5-4.4 1.9-9.4-2.2-2.7-5.2-16-23-2.3-13-10-8.5-1-11-4.3 0.88-9.8 16-3.8-2.9 0.91-3.2-4.5-3.2-4.8 2.7-1.9-3-8.7 2.5-2.1-2.2-0.21-4-9.1-11 3.3-11-12-12-3.4-9.8-3.9-2.1-10-10 0.08-6.2 7.3-0.84 0.32-6.8-17 1zm-268 1.6-0.92 0.088-0.45 3.5 0.096 1.2 1 1.1 1.2 0.84 0.24-1.2 0.12-3.5-0.59-0.82zm-128 4.6-0.93 2.5-0.34 2.3 1.3 1.2 1.7 0.39 2 0.025 2.6 1.5 0.92-0.29 0.49-0.58-0.16-0.33-0.47-0.77-1.7 0.012-1.3-0.63-1.6-0.27-0.25-1.3v-1.6l-1.1-1.9zm-1.7 6.7-1.1 0.1-0.39 1.7 0.86 1.3 1.5 0.21 0.51-0.39 0.34-0.77-0.72-1.3zm-47 4.9-1.3 0.25-3.5 1.1-2.1 1.3-2.4 0.95-0.3 1.2 0.15 1.7-1.7 0.14-1.7-2-1.5 2.6-0.97 3.7 1.2 2.9-1.6 1.4-0.34 0.78-0.039 1.9 2.1-0.38 1.2-0.65 0.49-1.4 1.5-0.46 1.2-1.3 2 0.57 1.1-0.23 1.4-1.1 0.62-1.4 0.16-0.56-0.99-0.46 0.4-1.6 0.19-0.15 0.48-0.66 0.91-0.42 1.5 4e-3 1.6-0.88-0.74 0.064-0.65-1.2 0.81-1.6 0.9-2.9 0.26-0.97zm24 1.5-1.1 0.3-2-0.023-2.6 2.7-1.2 1.7-0.55 2.3-0.39 1.7-0.39 0.23-1.9-0.24-0.77-0.27-0.2 0.016 0.012 0.14-0.81 3.9-1.7 0.55 0.33 1.5 1.7 2.5-0.19 0.15-1.2 0.72-1.5 0.33-1.6 0.14-1.4 0.87-1.3-0.09-1.3 0.66-0.36 2.1-0.32 0.97-0.19 1.7-0.31 1.1 1.7 1.5-0.77 0.47-1.7-0.6-0.86 0.28-0.85 3.5 0.074 0.88 1.7 0.46 3.4 0.041-0.42 1.4-1.9 0.5 0.37 0.38 1.2 0.44-0.17 0.42-1.9 1.7-0.34 0.78-0.17 0.42-0.18 1.8-0.61 0.055-1.4 1.3-0.24 1.2-1.3 0.86-1.5 2.4-0.082 1.4-0.19 1.7-0.37 0.37-3.2 0.074-1.8 0.77 0.082 0.94 2.2 0.56 0.57 0.29-0.12 0.96-0.18 1.9 1.3 1.2 1.7 2.5 0.54-0.053-8e-3 -0.13 2.9-1.2 3-2 0.72-0.27 0.25 0.52-0.48 1.5-1.6 2.2-1.2 2-2 3-0.64 1.2-0.78 2-0.64 1.2-0.29 1.3-1 1.4-1.2 3.4-0.53 2.5 1.7-0.14 0.52 1.2-0.59 1.7-1.4 1.6-2 2.5-1.3 2.4-2.1 4.3-0.14 0.76 1.9 0.58 1.2-1.2 1.6-3.3 2.5-3.6 1.1-2 1.2-1.6 0.61-2.4 0.19-1.7-0.55-2.4 0.025-1.3 1.1-0.71 4.2-3.6 0.52-0.25-0.58 2-3.2 4.4-0.56 2.2-0.11 1.1 1.1-0.84 0.94-0.086 0.45-1.1 0.91-0.49 1.4 1.2 0.25 0.52 0.2-0.018 0.52-0.25 0.8-4 0.84 1 1.4 1 1.4 1.6 0.051 0.54-1.7 0.0078-1 1.4-0.83 1.4-0.61 1.5-0.21 1.5-0.49 1.3 0.75 1.6 1.4 1.8-0.06 3.2-2.2 2.5-2.2 3.8-2.9 3.6-1.3 2.3-0.29 2.9-1.7-2.1-0.75 1.6 1 7.5 1.1 1.4 0.72-0.27 0.38-4.2 0.66-1 1.1-0.1 1.8 1.5 2.5 3.4 1.6 0.94 1.1-1.6 0.53-2.5 0.96 0.12 2 1.1 4 0.8 3.7-1.1 1.8-0.36 0.74-0.81 2.4-0.95 4.5 1.3 1.9 0.58-1 0.83-1.4-0.22-1 0.83-2 0.93-1.3 2.1-2.1 2.6-1.6 2.4-1.2 2.3 0.42 2.4 1.8 3.2 0.43 2.6 0.45 0.5 0.67-0.94 0.064 0.74 0.67 1.4 0.61 2.4 2-0.38 2.6-0.43 3-2.1 1.2 0.64-1.5 1.8-0.53 2.5-0.89 2.9-1.9 1.3-1.8 3.5 3 1.4-2.5 2.1-1.6 3-0.59 1.7 0.69 1.6 1.3 1.2-1.3 0.52-1.8 2.2-2.9-0.7-4.2-0.58-5.4-1.4-4.7 1.7-4.8 2.9-8.9 6.5 1.5 1.2 5-2.1 3.8-0.13 0.055 3-0.65 3.4-0.48 3.1 0.11 1.3 1.6 1.8-1.6 2.4-2.9 4-11 4.9-4.1 0.89-4 1.5-3.1 0.81 0.65 1.3 0.18 2 0.7 1.8 0.37 1.9 0.59 0.49 0.053 0.6 2 0.78 2.6-0.63 3.4-2.2 3.3-0.84 1 0.86 0.25 1.3-0.27 3.1 1.1 1.4 3.9 0.95 2.8-1.7 0.94-0.084 1 0.86 0.72 2 1.6 2.8 1.3 2.3 2 1.2 2.9 0.29 2.2-0.93 2-2.3 2.3-1.2 2.3-0.54 5.6-2.9-0.21 2.3-2 2.3-3.3 3.1-3 2.6-1.1 2.1-1.3 1.1-1.2 0.52-3.3-0.12-5.7-1.2-4.7-0.73-5.1 0.1-0.34 0.77-2 2.2-3.7 1.7-3.2 4.2-17 13-3.3 1.2-2.7 1.4-2.7 2.6 0.84 1.3 1.5-2.2 1.4-0.53 2 1.5 1 1.6 1.9-0.17-0.19 0.22 0.94 1.4 1.6-1.1 1.6-2.8 4.2-1.3 2.8-3.2 2.8 0.5 2.9 0.29 2.3 0.61 1.9 0.38 4.5 2.2 1.6 1.4 1.8 0.79 0.74-0.061 2.8-2.5 2.9-7.4 1.1-0.3 0.64 0.36 1.9 0.38 3.7-1.1 4.1-0.36 1.4-0.53 3 4.1 0.91 1.8 0.72 1.3 0.37 0.31-0.029-0.34 1.2-1.5 3.4-0.29 3.1 1.6 2.1-0.59-0.63-2.6 8.6 1.1 1.2-0.85 2.4-0.76 0.61-1.5 0.17-1.9 1.9 1.9 2.2 0.96 2.8-0.039 0.72 1.2 1.6 1.8 10-0.49 2.8 0.09 3.7 1.6 4-0.35 6.3-1.1 4.1-0.56 2.6-0.84 0.64-1.1 4.3-2.3 3.5-2.2 1.2-3.7-0.73-1.4-4.7-0.67-3.6 0.11-4-1 0.078-3-1.3-2.3 3.5-0.71 0.79-1.8 2-1.7-0.71-1.1-1.8-0.93 2.2-1.1 2.4-0.61 1.4 1.2 2.6-0.63 0.98-2-0.31-1.3 0.055-1.7 1.5 0.21 2.6-0.77 2.7-2.9 2.7-6.8 0.86-5-0.48-5.4-2.4-4.5-2.9-2.4-2.6-1.3-4.3-0.58-4.2 0.37-2.8 0.045-2 2.6-2 1.5-1.1-1.6-2.3-0.74-2.2-0.56-0.018-0.21 1.7-2.8 2-1.5 2.3-2.7 1.2-1.8 0.26-3.2-0.92-2-1.5-2.7-1.7-1.9-0.9-1.8-1.4-1.2-1.9-2.1-2.1-2.7 1.4-0.67 1.8 2.5 1.2 1.2 4.1 1.1 0.12-0.15-0.037-5.1-2.1-2.3-2.3-4.3-0.55-4.7-1.5-3.6-0.2 0.018-0.02-0.2-0.2 0.018-1.1-3.5-2.3-4.5-3.4-2-4.1-1.3-1.1-1.2-0.6-4.5-1.8-3.8-1.1-4.4-0.5-3.4 0.24-3.4 0.43-4.4-8e-3 -3.9-2.4-2.4-2.7-4.1-1.4-3.8-2.5-2.2-3.2-2.2-2-1.7-1.5-0.61-2.2 0.4-3.2 0.82-2.3-0.74-2-1.3-0.045-0.54 1.2-2.2 2.1-1.5 2.4-0.41 3.2 0.46 3-0.8-1.1-2-1.4-2.9-1.4-1-0.15-1.7 2.7 0.71 2-0.92 2.2-2.3 0.95-2.3 2.9-2.9 0.68-0.81 0.71-1.2 0.54-0.047 0.89-2.9 1.8-2.9 0.54-2.4 0.95-2.3 3.4-2.7 1.4-1.3 0.81-5.5-0.57-2.6-1.5-0.61-3.1-0.68-3.9-0.064-2.9-1-3.3-0.87-3.4 0.094-3.2-1.8-11 1.9-2.4 1.5-0.99-1.2 0.91-2 0.32-0.98-2.6 0.23 0.22-1.3 4.3-0.38 3.1-2.2-0.86-0.47-3.8-1 0.98-2 0.17 0.39 3.5-3 6.2-2.4 2.9-3.8 4.1-1.7 1-4 1-3.1-3.1-1.6-1.1 0.1-0.52 0.25-2.4 0.21-4 0.15-3.2-0.46-1.9 0.17-2.8 0.11-0.25-0.59-2.2-1.1-0.88 0.08zm150 1.3-0.68 0.65-0.033 2.1-0.34 3.3 0.022 0.22 1.3 0.092 0.22-3.9-0.12-1.6zm229 1.3-3.8 7.1 4 6.7 3.4 0.45 2-5.2 0.4-4.2zm-426 16-0.52 1 0.86 0.47 0.24 1.1 0.8 0.67 1.4 0.62 1.5 0.21 0.13-0.76 0.46-0.99 0.54-0.79 0.85-0.28-0.01-0.13-1.6-0.81zm430 1.5-1.7 0.26-4.6 2.7-1.8 5.9 3.6 3.6-0.16 7.2 2.7 3.7 2.7-3-0.18-6.3 9.1-9.3-3.6-3.6zm-412 0.68 0.033 0.4-0.79 1.8-1.4 3.7-1.8-2.7-2.3 1.9-1.1 2.3 1 1.1 2 0.58 0.45 3.6 1.3 1.8-0.39 1.7 3.2 0.6 2.4-0.012-0.29 1.4 0.014 1.7 1.8-0.35 1.4-2.4 1.2-1.5-1.9-0.58-1.8-0.79-0.65-1.2 0.49-2.9-1.4-3.3 0.44-1.9 0.037-1.9-1.4-2.7zm373 15-1.6 2.1-2.2-0.95-6.4 7.6-1.2 3.7-0.35 3.2 0.24 0.68-0.48 3.1 0.16 2 1.4 1.8 0.63 2.6 0.52-0.23 1.1-0.18-0.37 2-0.89 1.8 0.23 0.72 1.4-0.5 0.89-3.1 3.4-3.5 0.29-4.8 1-0.47 0.12-1.5-0.72-1.2 1-4 0.088-4.3 1.7 0.07 1.7-1.5-0.29-2.3 0.17-2.2zm-122 12-1.8 1.7-6.7 2.9-2.3 2.4-3 2.3-0.99 3.2-5.1 2.2-3.1 0.84-4.5 0.52-4.9 1-3 3-0.66 2.1 4.6 0.33 2.2-2.2 4.3-0.25 2.7-1.4 6.9-0.72 1.7-1.7 2.7-0.24 1.7 1.4 5.7-0.037 1.2-1.6 2.5-2.8-0.11-2.7-0.16-2.8-0.77-2.3 0.82-2.4 0.71-2zm-256 5.2-1.2 1.1-0.26 1.7 1.6 1.2 0.67 0.68-0.69 1.4-0.27 0.77 0.38 0.51-0.66 1-1.7 0.35-1.9-0.38-0.28-0.79-0.12 0.96 1.4 1.2 2.9 0.7 2.2-0.81 1.1-0.64 1.2 0.1 1.5-0.13 0.037-1.9-1.1-1.2-2.6-4.3-0.12-1.4zm357 6.8-1.2 1.5-0.65 2.6-0.56 2.9-1.2 7.6-1.3 3-1.9 6.1-0.35 4.7-0.25 6.1 0.32 1.6 1.9-3.2 0.81-4 0.46-5.8 1.2-6 0.91-4.3 0.7-5.3 0.37-4.5 0.79-1.7zm-353 9.3-0.74 0.066-2.3 1.8-1.3 1.2-0.41 1.5-2 1.5-0.39 1.7 1.7-0.15 1.2-2 2.3-2.6 1.2-2.2 0.17-0.35zm-8.8 4.6-1.4 0.87-2.8 0.25-2 3.2 0.074 0.81 2.5-2.1 0.25 1.3 0.29 3.4 3.2-0.82 0.66-2.5-0.56-2.6-0.12-1.3zm12 9.1-0.56 2.1-0.66 3.3 0.95 2.4 1.7-0.15 1.5-4.1 0.3-2.8-0.78-0.34-2.3-0.14zm-35 2.8-0.12 0.58-0.51 0.79-1.1 0.46-1 1.8-2e-3 1.9-0.54 2.3-1 1.8-1.1 0.47-0.38-0.14 0.27-1.1 0.17-0.012 0.19-2.5 0.79-3.8-0.29-0.92-1.9-0.0078-1.6 0.72-1.5 0.3-1-1.2-3.7 1.5-2.8 1.7-1.7 0.14-1.7 2.6 0.33 1.5-0.51 0.79-2.6 1.9-4 1.5 0.38 2 2.5 0.73 1.4 0.83 1.9-0.17 2.7 0.71-0.055 1.3-1.9 2.4-1.3 0.12-2.9 1.2-2 0.92-0.09 1.3-0.62 1.4-0.17 0.39-4.6-1.3-2.8-0.13-2.9-0.32-0.56-2.2-7.4-2.7-2.5 1.7-2.2 2.6-0.11 4.9-1.8-1.2-2.9-0.12 1.6 3 4.3 1.9 1.9 0.58-0.037 1.9-5.5 1.8-1.9 2-2.8 0.99-0.93 2.1 1.6 2.7 1.4 0.82-0.42 1.7 2 0.74 1.9 0.043 0.031 2.3 2.9 1.2 7.1 1.8 0.57 1.8-1.6 0.89-4.5 0.59-2.8 1.9-0.95 1.9-0.73 2.5-2.2 2.5-2.1 1.5-2.7 1.4-0.57 0.051-0.34 0.4-0.37 0.029 0.23 0.36 2.3 0.21 0.55-0.25 1.5 0.44 3 0.28 3 0.31 3.1-1.8 2.1-1.7 1.1-0.47 0.033 0.37-0.76 2.1-0.1 1.2 2.6 1.1 0.068 0.78-2.8 0.24-4.2-0.58-4.1 0.15-5-0.88-1.7 1.8-3.4 2.6-0.56 2.1-1.3 0.68-1.8-0.96-2.2 0.2-1.9-0.98-2.3 1.4-1.7 2.4 4 0.8 4.2 0.38 0.16 1.8-4.6 0.78-3.5 2.4-0.79 1.8 2.1 0.36 0.51 1.6-0.13 0.38 0.76 0.14 7.7-0.3-0.4 1.9-3.1 0.64-5.2 2.5 1.3 0.25 3.1-0.48 2.1 0.39 3-0.26 0.72-0.27 0.3 1.1-1.4 1.8-1.9-0.41-2.4 0.58 0.45 0.9-0.44 1.5 3.3-0.67 2.7 0.35 0.84 1 1.5 0.64 0.94-0.084 0.54-0.45 1.3-0.48 1.9 0.78 2.4-0.38 2.3 0.34 2.8-0.62 2.4-0.21 1.1-0.47 1.8-0.9 0.94-2 0.36-2.5 1.2 0.85 0.16 1.8 1.2 0.84 4.4-0.97 1.7-1.8 1.2 0.3 1.8 0.76 1.4-1 1.3-2.2 1.1-0.84 3.9-0.14 4.2 0.38 2-0.55 2.1-0.016 4 0.97 2.2 1.5 2.3 0.38 1.5-1.8-0.46-3.3 1.3-1.8 2-3.4 1.9-4.5 0.52-0.25 2.2-3 1.5-2.6 0.13-0.79 0.2-4.3 0.26-1.3 0.13-4.7-0.12-1.3 1.3-0.49 0.79-1.8 0.87-2.9-0.6-2.6-1.3-8.5 0.7-2.5 2.8-0.047 2.2-0.6 2.5-1.3 1.4-3.1 4.1 0.012 2.1-1.7-0.031-0.37-0.9-3.7-0.21-2.4 0.47 0.74 1.2 3.4 1.4-3.3-0.86-3.7-1.3-1.2-4.3-0.19 2.2-2.8 1-5.5-2.1-4.3-1.1-3.7-3.3-1.8-1.4-1-4.6 0.61-3 0.064-2.5 1.4-2.4 0.38-0.1-1.1 3.9-3.1-0.48-1.3-1.9-2.1-1.6-0.98zm314 7-0.95 0.082-0.93 0.27-0.41 0.42-1.1 0.29-0.65 0.57-1.2 0.54-1.9 2.3 0.084 0.95 0.15 0.3 0.96 0.041 0.34 0.23 0.13-0.014 0.61 0.52 0.3 0.54-0.049 7.4-0.82 0.07-0.078-0.88-0.45-0.088-0.035-0.38 0.52-0.62 0.44-0.035-0.031-1.8-0.14-0.11-0.36-0.54-0.033-0.38-0.27-0.17 0.1-0.26-0.69-1.3 0.11-0.27-0.17-0.43-0.57 0.049 0.062 0.7-0.059 2.2-0.12 0.13-0.44 0.041 0.092 1-0.5 0.87 0.084 0.94-0.42 1.1-0.52 0.62-0.47-0.28 0.074-0.57-0.21-0.94-0.82 0.076 0.78-0.52-0.082-0.94-0.35-1.1-0.31 0.027-0.33 0.6-0.33-0.1-0.039-0.44 0.43-0.16-0.033-0.38 0.45 0.088-0.11-2.7 0.78-0.51 0.44-0.039-0.13-1.5-0.32-0.098-1.2 0.36-2.8 0.12-0.14-0.12-1.7-0.27-0.14 0.18 1.5 1.4 0.47 0.34-0.3 1.6-0.78 0.58-1.6 0.14 0.037 0.45-0.28 1.9-0.1 0.26-0.83-0.055-1.1 0.67-4.3-0.066-0.88 0.9 0.039 0.44 1.8 0.41-0.99 1 0.3 0.54 2.4 0.24 0.97 0.99 0.022 5.3-0.31 1.5-0.49 0.17 0.053 0.56 0.46 0.91 0.56-0.049 0.18 0.56 0.82-0.074 0.36 0.41 0.13 1.5 0.33 0.92 0.48 0.4 0.57-0.049 1-0.54 1.8-0.16 0.73 0.38 0.82-0.07 1.7 0.42 0.36 0.41 0.69-0.061 0.084 0.95-0.57 0.047 0.051 0.57 0.15 0.24 0.11 1.3-0.74-0.51-0.78 0.51 1.3 0.83 1.3-0.11 1.3 0.46 0.94-0.082 0.98 0.36 1.1 0.98 2.8-0.53-0.19-2.1 0.36-0.92 0.54-0.31-0.43-1.2-0.69 0.064-0.092-1.1 0.92-1.1 1.2-0.8 0.96 0.17 2-0.68-0.14-3.1-0.32-0.8-0.53-0.91-0.62-0.52-1.9 0.039 0.041-2.4 0.72-1.1 0.074-0.58 0.18-1.5 0.27-0.47 1.1-0.13 0.8-1 1-0.037 0.11-0.26-0.17-2.1-0.062-0.7-0.32-0.096 0.26-1.3-0.22-0.68-0.29-2.5 0.029-0.61-0.48-0.24-1.4-2.9-0.94-2.4zm-30 17-0.74 0.89 0.041 2-0.68 0.18-0.25 0.023-0.49-0.53-0.28-0.36-1.6-0.68-0.014-0.19-1.9 0.035-1.5 0.46-0.51 0.039-1.4 1.1-0.12 0.012-1.4 1.1-0.41 0.35-0.69 0.061-1.6-1.6-1.5 0.13-0.037 1 0.17 0.55 1.2 0.97-0.066 0.7-0.44 0.041 1.1 1.3 0.19-0.014 0.049 0.57-0.3 0.15 0.027 0.32-0.21 0.52 0.3 0.54 1.2 0.91 0.25 1.4-0.041 0.96 0.38-0.033 1.1 0.6 0.96 0.17 1.2 0.59 1.4 0.19 0.012 0.12-0.44 0.039-0.72 1.2-6e-3 1.4 1.1-0.096 0.89-0.65 0.94-0.088 0.014 0.13 0.44-0.039 1.6 1.1 0.56-0.049 0.022 0.25 1.9 0.28 1.5-0.58 0.082-0.51 0.57-0.053 1.5-0.45 0.7 0.066-0.045-0.5 0.13-0.012 0.19-2.9-0.09-2.5 0.95-0.076 0.14-0.59-1.6-0.43-0.14-0.12-0.19-0.68-0.36-1.2-0.51-0.78-0.14-1.6 0.44-0.039-0.074-0.88-0.53-0.9-0.6-0.39-0.15-0.24-0.6-1.8-0.77-0.76zm67 10-0.47 5.5 1.8 1.6 1.9 0.53 2.2-0.19 1.1 0.027-0.059-0.69-1.4-3.9-2.7-2.2zm-308 3.7-4.2 3.6-3.9 4.8 2.6-0.023 3.8-1.3 1.9-2.2 0.59-1.8 0.35-2.1zm247 0.16-0.49 1-0.059 2.2-0.57 0.047-0.65 0.5 0.051 0.57-0.23 0.27-0.91 1.2 0.049 0.57-0.1 0.26 0.014 0.12-0.37 0.86 0.051 0.57-0.32 0.72-0.28 0.47 0.44 1.4 0.25-0.018 0.18 0.55 0.15 1.8 0.25 0.68 0.25-0.027 0.52-0.62 0.74-2.4 0.12-0.014 0.61-1 8e-3 -2.1 0.57-1.4 0.73-1.1 0.32-0.6-0.11-3.5-0.27-0.92zm17 5.5-0.57 0.047-0.24 0.15-1.1 0.098-0.076 0.58 0.8 1.2 0.033 0.38 0.31 0.67 0.36 0.54 0.25-0.025 0.07 0.82 0.13 0.12 0.031 0.31 0.49 0.53-0.11 0.13 0.9 0.87 0.25 4.4 0.44 0.66 0.72 0.32 0.13-2.1-6e-3 -1.5 0.18-0.84 0.15-0.46-0.049-0.57 2.1-0.66 0.75-0.89-0.39-1.6-0.3-0.54-0.31 0.027-0.29-0.42-1.8-0.066-0.57 0.049-0.035-0.38-0.57 0.051-0.25-1.4-0.44 0.041-0.27-0.17-0.69 0.059zm-10 0.44-0.25 0.02-0.53 0.49-2.4-0.11-0.63 0.75-0.54 0.37 0.06 0.69 0.78 0.88 0.95 0.045 0.016 0.19-0.96 1.3-1 0.086 0.051 0.57 0.65 0.96 0.57-0.051 0.61 0.46 1.4 0.44 0.29 0.42 0.57-0.049 0.49 0.53 0.12-0.0098 1 0.73 0.18 0.56 0.62 0.52 0.72 0.31 1.7-0.52 0.73-1.1 1.7 0.67 1.8-0.16 0.66-0.44-0.15-0.3-0.043-0.5-0.33-0.16-0.23-1.2-0.062-0.7-0.53-1-0.15-0.3-0.033-0.38-0.62-0.51-0.26-0.11-0.17-0.43-0.15-0.37-0.053-0.57-0.31 0.027-0.41-0.41-0.53 0.49-0.076 0.58-1 0.088 0.072 0.82-0.98-0.37-0.88-0.62-0.19 0.014-0.19-0.68-1.4-0.13-0.49-1.2-0.037-0.44zm26 6.9-0.61 1.1 1.1 1.3 1.9 1.3 0.62 1.3-1.6-0.36-2.2-1.3-1.2 0.48 0.7 2.2-0.068 1.4-0.58 1.3 1.9 1.5 2.5 0.35 0.81-0.96 1.7-0.65 1.5 0.88 0.023-1.2-1-1.5-0.11-1.3-0.045-0.5 0.48-3.2-1.5-0.57-2.3 0.012-0.45-1.5zm-286 16 2.6 5.8 2.1-1.5-1.5-2-1.7-1.8zm154 25-1.5 2.6-2.7 3.1-1.1 2.5 2.5-1.6 1.1-2.9 1.5-1.4-0.029-0.31 0.58-1.3zm13 37 3.2 0.23 3.8 1.8 2.4-0.59v2e-3l-2.4 0.59-3.8-1.8zm0 0-0.27 2.7 0.92 4.8-0.93-4.8zm-31 1.9-2.3 0.0078 0.77 0.82 3.9 3 0.5-0.049-0.22-1.1-1.4-1.1zm-3.9 1.7-1.1 0.092-0.64 0.63 1.4 0.2 2.1 1.4 1.1 0.28-0.094-1.1zm-4.8 4.9-0.59 2 0.076 0.88 0.9 0.11 0.99-0.97 0.09-1.1zm22 3.7h2e-3l1.6 2 1.1 0.094 0.49 2 2.5 1.8 3 0.24 2.4 1.9 2e-3 2e-3 -0.098 3.1 0.096-3.1-2.4-1.9-3-0.24-2.5-1.8-0.49-2-1.1-0.098zm-106 14-1.9 0.5-0.42-0.1-1.4 0.67-0.66 1 0.49 0.91 2.5 1.1 2 0.025 2-1.7-0.057-0.61-2-0.91zm570 60h2e-3l3.9 8.3zm-9.1 40h2e-3v2e-3l-2.7 3.8zm-22 42 2.9 1.3 11-0.068 8.8 2.9-8.8-2.9-11 0.066-2.9-1.3-6.9 1.6zm26 57-1.2 0.44-2.6 1.2 2.6-1.2zm-18 4.2-7.3 4-1.9 2.5h-2e-3l2-2.5v-2e-3zm-364 17-0.053 1.6-0.4 1.2-0.36 2.4-0.86 1.8-3.3 0.86-1.8 1.6-2.3 1.6-2.5 0.91-1.6-0.55-0.92 1.9-0.31 2.3-0.5 0.74-0.035 1.1 0.27 1.6-0.57 1.4 0.17 1.9 1.4 2 0.35 1.7-0.12 3 0.87 5.6 2.5 0.8-0.039 3.2 1.1 2.1 2.6 1.4 2.1 0.51 1.8 3 0.18-2.3 1.2-2.6 0.65-0.56 0.76-1.5 0.64-2.8 1-2.4 0.55-3.8 1.5-3.4 0.53-4.1-2.2-10 0.1-3.2-0.48-7.7zm325 24-2.5 3.9 0.64 1.5 2.5 0.67 1.5-1 1.8-1.4-1.1-0.79-0.73-2.6zm18 15-2.5 0.21-2.9 1.5-0.043 3.9 1.6 0.55 0.74-1.7 1.1-0.09 2.1 0.51 0.71 0.13 0.37-3.7-0.55-0.48zm-347 8.8-2.2 3.4-2.4 1.1-7.9 7.2-3.6 0.7-1.9-1.4-1.7-1.8-0.082 0.52 0.15 1.8-0.22 1.8-0.11 4.6 1.2 2.2 2 0.022 0.55 0.46 1.3 3 0.59 3.1 0.21 3.9-0.43 3 0.62 3.4 1 1.4-0.3 2.3-1.5 1.3-0.51 4.3-0.13 0.71-0.62 3 1.2 3.1-0.18 2.3 0.67 3.3 3.2 4.3 0.43 0.53 0.83 1.5 1.9 1.7 2.2-0.38 1.7-0.66 2.6-2.2 1.6-3.8 2.3-2 2.9 1 2.3 0.49 2.3-2 0.21-1.9 1.2-2.6-0.012-2.3 0.29-8.3 0.023-9.9-0.39-2.2 0.79-3.2 0.092-3.3-0.012-1.6-0.62-5.6-1.9-5.2-0.56-2.7-0.85-1.7-1.1-2.4-2.1-1.6-0.79-1.1-1.6-0.37-1.3-0.96zm231 24-2.7 1.5 4.6 6.4 3.2 2.4 2.2-0.77 0.049-1.6-2.3-3-2.3-3.5zm80 6.6-2.4 0.4-3.1 4-1.2 2.4 1-0.094 2.9-0.76 3.2 1.8 3.4 2.3 3.4 1.1 2.5 2.9 3.9 1.7 3.4-1 4.9 2.2 2 2.2 1.9 3.1 2.6 1.6 1.4-0.22 2.8-0.24-0.82-2.9 1.3 0.17-1-3.2h-3.3l-2.3-0.31-3.6-5.1-0.79-3.3-2.6-1.9-6.3 0.17-4.5-1-4.3-2.3-3.2-2.2zm-422 0.27-1.8 1.4 2.7 3.1 3.5 1.7 2.1 0.13 0.082-1.2-0.074-2.3-0.24-1.2-0.38 0.031-0.98-1.1-1.4-0.38zm-16 1-0.56 0.055-2.4 1.1-4.5 1.3-6.6 2.9-4.2 4.1 2.2 3 2.4-0.91 3 0.06 1.2 3.1 6 4.4 4.8-4.1 2.3-5.5-1.7-3.3-3.4-0.28-0.14-1.6 1.1-2.4 0.098-0.32 0.13-0.71zm474 19 0.17 1.9 2.5 1.7 3.1 3.8 1.2-0.11 0.93-1.7-0.77-3-1-1.3-3.1-1.3zm-512 2-0.35 0.35-0.53-0.27-3.9 1.7-1.7 2.8 2.6 1.9 1.9-1 2.6-2.3zm452 3-5.4 1.7-5 4.8-3.3-0.6-3.3 8.2-0.37 3.8 3.7 4.7 6.5 1.7 3.9 4.4-0.78 7 2 5.1 2.6 1.9 3.5 0.58 0.13-4.4 2.1-3.9 2.4 2.5 3.7 2.1 3.2 6.1 0.73 2.3 2.6 1.8 0.29-2.4-0.061-7.2 3.6-0.7 5.5 5.1 3.9 2.3 1.4-0.8-3-7 0.2-2.4-5.1-10-3.9-3.7-2.1-4.6 1.7 0.42 3.1 1.1 3.3 1.5 1.2 2.4 1.9-0.86 2.2-3 3.4-1.2-1.2-2.7-2.5-0.86-3.1-1.3-2.4-3.3-1.8-2-0.64-2.3-3.9-1.2-10-2.1-5.1-0.44-2.3 0.39-1.9-1.6zm-32 3-2 1.6-2.6 3.3-0.1 0.33 2.2 1.4 1.3 1.5 3.2-0.09 2.4 0.87 0.4-3.4-3.3-1.7zm6.7 11-0.12 3.9 1.7 1.3 3.1-0.36v-2.8zm100 1.6-1.4 1.2v2.4l1.9 0.48 1.4-1.2-0.48-2.7zm-218 4.8-1.3 0.89-3.6 0.82-1.1-0.094-2.3 2.3-7.4 0.64-3.7 2.3-3.1 1.2-12 2.3-2.7 1.1-2.9 0.45-1.8-2.8-4.9-1.5-3.9-1.8-3.5 1.9-2.8 2.2-2.4 0.4-2.4-1.9-1.5-0.57-1.6 0.84-0.93 1.7-0.57 1.4-0.78 3.4 1.6 5.5 2.5 2.8 6.9 1.2 5.1 1.8 5.2 3.2 4.9 1.9 3.2 2.8 3.5 1.4 3.7 0.059 6 1.6 3.8 4.1 4.9 2.9 4.8 1 3.7-0.19 2.8-0.37 0.11-3.1 1-4.1 1-2.8-1.2-1.9-1.3-2.7-0.31-2.1-1.9-1.4-0.018-2.3 1.2-4.1 2-6.5 2.7-4.9 2.1-4.4 0.12-4.5zm217 13-0.96 0.48 0.96 1.4 0.72-0.48zm11 19-1.5 0.44-1.2 2.3-2.4 1.5-1.1 2.8-1.2-0.33-0.61-2.6-3.9 2-3.6-1-1.8 1.7-1.8-0.98-6.3 0.81-4 3.7-2.7-0.13-1.3-1.8-3.5-0.52-0.39-2.4-1.6-0.28-0.76 2.5-2.4-0.67-0.96-2.3-1.5 0.68-0.19 2.4-2.3-0.19-1.3 3.6 1.4 2.7 12 1.7 2-1.5 8.9 0.31 0.68 2.4 0.32 2.8 5.4-3.1 5.3-1.2 1.1-2.8 7.6 6e-3 1.4-2.4 3.1 0.57 0.22-6.8zm-248 26-2.3 0.84 1.7 2 2.1 1.1 1.3 0.086 1.3-2.1-0.045-0.22-1.4-0.81-0.23 0.02-0.6-0.73zm5.4 4.2-1.6 3.6 2.5 2.5 3.2 1.3 1.9 0.11 0.078-0.97-0.066-1.8-0.22-1-0.34 0.029-0.89-0.9-2.7-0.31z" style="fill:#00517d;stroke-width:2.3"/></g>
<g><path d="m604 68 17-17 11-0.76 7.3 1.2 8.5-1.7 5.7 1.2 11-9.4 12 1.7 6.6-4.8 13-1.1 8.9 6.3 1.2 8.6 2.9 3.5 3.7-0.75 1.2-5-3.8-11-9.2-14 0.066-5.8 14-11m-7 296 3.4 1.5 3.1 2.1 0.19 4.8-2.8 4.7 1.1 6.9-0.7 4.9-2 4.6m-275-118 8.8-0.26 7.2 0.12 3.8-4.2 4.4-3 8.5 0.52 2.9-3.4 6 0.18 3.9-5.8m142 105-19 5.7-6.8 9.6-6.8-1.1m12 33-3.5-2.2-4.3-3-4.5-7-1.6-13-0.071-5.3 2.2-2.5-5.8-5.2-4.1-1.2-6.9-3.4m28-466 0.32-6.8m-260 150 9.9 1.9 2.1-1.1m178-26 26 3.4 4.1 5.9 2.6 9.7m48-38-14-2.6-2.6-5.2-12-2.9-4.5-4.8-3.2-0.97-5.2 6-12-1-11 7-4.2-1.7s-3.8 3.9-5.3 3.5-9.1 14-9.1 14l-2.3 2m39-70 4.1-4.6 6.5-2.9 7.7 0.3 2.5 3.8 12 1.4 4.9-2.8 7.7 0.42 2.7 1.5 4.4-3.2m-9.5-17 3.4 9.8 12 12-3.3 11 9.1 11 0.21 4v1.6m251 195-3.9-6.3 2-5.5 10-3.4 7.7-5.1 3.5-3.7 0.17-9.9-10-7.9 0.069-19-13-6.2-28 1.6-17-8.1-24 5.9-6.5-2.1-4.2-9.7-7.2-4.3 0.3-3.1-6.5-5.5-13 2-6.7-6.1 2.4-3.6-2-2s-4.6 0.56-6.5-2.1c-1.8-2.6-5.4-7.7-5.4-7.7l-10 0.37-8.9 7.6-18 5-7.5-13-0.039-4.7-9.9-6.1-1.2-4.6 9.4-2.3 11-3.5 2.8-4.7-6.5-5.5-2.1 0.94s-9.4-0.69-11-0.94c-1.1-0.25-2.4-2.9-2.4-2.9l-17-25-2.3-13-10-8.5-1-11-4.3 0.87-9.8 16-3.8-3.5v-1.8l-1.4-3.1-2.2-1.5-4.8 2.7-2.9-2.7s-0.87 0.24-2.5 0.69-3.2 0.89-3.2 0.89l-2.1 0.6-2.1-0.6s-3.2 0.14-3.5 1.3l-0.29 1.1-3.7 4-1 2.2-4.7 3.9-3.4 4.6-0.33 23-3.9 10-1 13-11 4.4-2.5 1.8-1.5 1.7-8.3 1.2m148 209 4.9-2.3 4.1-2.6 3.8 0.11m-145-38 9-0.66 6.1-0.35 8.1-1.1 2-1 7.8-2.8 4.4 2.3 3.6 1.1 4.5-5 5-2.7 5.5-1.6 9.6-9.5 4.7-1.1 10 5.4 6.4 8.9 3.9 4.1 5 4.7 3.6 2.8 5.3 5.7 2.6 5.3 2.4 6.9 4.1 13 1.5 3.7 1.5 4.4 0.36 1.9 2.7-1.1 3 2.2 3 2.2 3.8-1.2 2.7-3.8-2.2-8.8 3.3-7.4 3.9-6.7 8.1-8.4-3.9-8.3-8.1-5.1-0.014-3.3-3.6-6.5-9-9.2-8.7-3.2-8.5-3.3-6.8 7.2-8.3-1.6-7.9 4.7m-81 17 19-1.6 4-0.54 4.7-2.5 5-1.3 4.4 2.3 3.6 1.1 4.5-5 5-2.7 5.5-1.6 9.6-9.5 4.7-1.1 5.6 1.6 3.2 1.3 5.6 6.2 2.5 5.2 5.7 6 4.1 2.8 7.9 8.5s1.2 2.5 2.9 5.9c1.6 3.4 3.4 9.7 3.4 9.7s-0.17 1.7 2.8 9.8c3 8.2 0 3.2 0 3.2l3 4.9 3.1 0.81 3 2.2 3 2.2 3.8-1.2 2.7-3.8 4.9-2.3 2.8-2.2 2.9-0.63 2.6-2.2m-160-45 0.38-6.6 1.2-6.7 0.54-5.7m2.4 265 2.9-3 1.4-3.8 0.38-3.6 3.2-3.4 2.4-7.1 4.2-5.2-0.86-5.4-1.4-3.7 13-4.1 3.5-4.7 6.4-3.9 7.1-1.4 5.2-6.1 2.4-1.3m-21-74-4.5 3.1v2.2l0.3 3.5s0.73 3.8 0.89 4.4c0.16 0.52 1.6 5.2 1.6 5.2l2.2 2.2s2.5 1.5 3.1 2 5.6 5.3 5.6 5.3l-4.5 9.1-0.75 2.7s-0.85 3.2-0.7 3.9c0.15 0.73 0.6 2.9 0.96 4.6 0.37 1.8 0.74 3.6 0.74 3.6l4.2 2.3s4.2 2.2 4.9 2.6c0.78 0.42 4.6 9.6 4.6 9.6l2.2 7.6 9.8-3.5 4.9-1.2 3.6-0.74 6.3-3.6 5.6-2 4.1-1.8 5.6 1.8 5.4 1.1 7.8 0.9 5.9-2.8 5.5-6.3-0.26-6.6 4.1-1.1 2.3-2.4 7.8-4.3 4.4-3.8 7.8 2.2 6.3-2.7 5-1.6m-181-81 7.5 2.8 4.2 3.7 4 6.5 1.2 2.8 3.1 3.4 1.1 1.2 3.4 0.19 2.5 0.84 1.2 0.51 2 2.4 1 3.2s-1.4 2.3-0.16 2.9c1.2 0.6 1.8 0.9 1.8 0.9s1.2 0.42 1.7 0.75c0.51 0.34 2.7 1.5 2.7 1.5h3.7l5.4 1.2 1.6 0.49 3.5-4s1.5 2.3 2.4 2.9l0.93 0.59-3 4.6s1.4 1.8 2 2.6c0.6 0.78 3 2.6 3 2.6l2.7 0.17 4.2 0.58 0.51 0.51-1.1 5.1 4.4 2.4 16-2.4 5.8-0.65 5.9-1.3 5.9-1.1 16-1.1 5.4-2.9 4.9-5.3 4.5-3.8 4.2-3.2 4.8-3 3.7-1.8 4.1-1.3h1.4l2.9 1.3 11-0.066 8.1 2.7 6.8-2.3m-180 48 6.3 2.9 12 8.4-2.7 5 0.21 2.2 0.38 4.1-5.3 1.8-3.2-2.2-1.1 3.1-2.8 2.9s-0.43 0.32-0.67 2c-0.24 1.7-0.57 4-0.57 4 0 2e-3 0.93 2.6 0.93 2.6s-0.016 1.5 0.35 2.1c0.37 0.59-1.1 5.5-1.1 5.5m-14-11-1-9.8m-21-84 6-3.4h6.3l1.1 7.2s-0.085 2.8 1.6 3.3c1.7 0.52 5.3 5.3 5.3 5.3l6.2 4.6 2.3-0.53 2.1-0.092-0.86 4.1-9.4 3.5-6.8-2.9-5.2-6-4.6 1.3-9.2 1.9-8.7 3.3-12-2.6-12 6.6-6.7-0.33s1.3 2.7 0.91 5.4c-0.43 2.7 0.77 3.8 2.3 5.3s7.2 6.9 7.2 6.9l6.3 6 8.1 5.2 10 6.1 6.9 10 6.3 7.7 5.5 0.039 11 6.3 3.5-16 4.7-1 5.2-12-1.8-5.8-8.1-13 0.27-9.9 0.69-4.1m-117-9e-3 4.1-2.3 4.6-1.3 6.8 1.3h5.3l4.8 1.1 2.6-0.33 2.9-3.4 3.3-5 5.2-5.2 1.9-4.7 2.5-6.6 7-2.3 6.7 1.1 4.2-0.66 0.95-1.5 2.6-0.085m-186-186-3.5 14-4.7 3.1 0.64 2.9 5.5 2.7-0.59 3.4-5.3 5.2-0.59 3.4-1.7 3.1-2.4 0.59-7-2.1 0.65 7.5-0.28 6.9-0.35 4.1-1.9 4s-0.45 2.8 0.29 5.4c0.74 2.6 2.1 6.5 2.1 6.5l2 6.4-2.4 5.8 1.3 3.4-0.87 2.4 9e-3 2.3 1.7 2.5 0.99 4.6-1.6 3.5 4.2 3.9 2.1 2.5 1.8 3.3 6.4 0.84 11 3.8 6.2 2.6-2.4 6.2-3.8 3.1-1.4 6.2-2.8 8.2-0.63 5.1 0.053 4.2 3.5 6.3 17-2.3 3.6-0.73 6.9 1.9 4 1.7 8.7-0.7 7.5 3.6 3.4-1.6 2.3-2.3 3.9 0.16 3.7 0.95h3.5l5.4-0.65 3.1-2.4 5.2-0.93 6.1-0.94 1.2-1.9 4 1.1 4.9-0.24 1.6 2.7 2.3-4.1-3.2-11 1.4-4 7.2-3.4 2.1-6.2 3.1-1.3 3.8-3.7m-61 54-2.8-1.9-2.5 1.7-4.3-0.91s-1.2-2.1-3.3-3.4-1.5-0.93-1.5-0.93l0.63-1.8 0.75-2.2-1.2-3.2-2-0.82-2-3.5m-48 44 5.8-0.82 3.3-0.86 2.8-0.37 4.6 0.3 1.3-1.4 3.9-3.5-0.085-3.2 2.2-2.7 3.9-2 1.1 4.4 0.87 2.5 3.9 2.8 2.2 2.8 2.4 1.6 0.46-2.6 1.2-2.3 3.5-6.8v-2.3l0.94-1.5 2.5 1.2 2.1 1.9 4.1 0.21 1.8-0.5h1.7l3.7 1.8 0.57-1.4-1.1-2-0.42-2.6 0.57-2.1 3.8-0.33 1.5-1-0.071-4.4 2.1-1.2 4.6 0.61 5.5-1.9 6.4-3.2 6.7-0.59 0.82-0.19 4.1-1.9 2.1-0.19 0.89 2.2 0.74 2.7 3 3.6 2.7 1.3 1.6 0.053 4.2 2.2 8.1 0.57 4.8 0.63 4.6 0.8-3.4 3.5-0.7 4.3 2.3 0.12-0.3 2.4-0.053 3 0.97 1.7 1 3.1 2.5 1.4 1.1 0.41 2.3 2.3v1.1l-0.46 3-1.9 0.48-1.4-0.89m-353-291-1.6 3.7-2.2 2.7-3.2-0.49-0.98 3.9-4 1.6 4.2 4.5 0.89 5.9 3 2.7 4.5-2.7 2.7-3 5.6 0.044 3.9-0.34 1.8 2.7 1.7 4.9-1.1 4.6-1.7 2.2m-117 319 4.2-3 5.9-0.64 3.9 0.26 1.5-0.034s-0.54 3.8-0.47 3.4c0.069-0.4 0.47 1.9 0.47 1.9l1.6 1.7 5 0.45 6.2 1.9 2.5 0.99 5.5-1.2 6.2 1.6 5.7 2.5s0.35 0.096 0.42 1.4c0.062 1.3 0.85 2.9 0.85 2.9l2.2 3.7v1.7l-1.7 2.5-3 3.5-4 2.5h-2.9l-3.1 3.6-1.6 4.9-0.79 3.9s0.28-0.67-0.57 1.4c-0.85 2-1.6 3.8-1.6 3.8l-1.9 3.6-2 2.8v2s0.63 1.6 0.57 1.4c-0.06-0.15 0.39 4.1 0.39 4.1l-3.4 3.8-3.3 1.1-3.1 0.52-3.9 1.7-0.17 3.1s-0.037 0.66-0.11 1.9c-0.069 1.2 0.31 2.3 0.31 2.3l1.2 3.4 0.3 1.6 0.94 1.6 0.71 2 0.16 0.74-2.3 3-3.9 4.1-0.81 2.8-0.65 3.2 0.2 3.2 0.096 1.5 2.1 3.8 0.67 2.5 0.08 1.7 0.066 1.5-2.4 1.9-6 3.1-2.6 1.5-3.2 2.4-0.25 1.7v1.3l-0.38 1.3v5.3l-0.14 1.8m212-114 1.1 4.5 2.5 0.54 1.7-0.52m-68-35 3 4.2 7.5 7.4 4 1.4 3.8 3 2.1 2.6 11 4 4.5 1.5 7.1 2.4 2.5-0.023 4.2-2.3 3.3-0.29 3 1.5 3.6 2.9 3.5 1.9 2.8 0.64 2 2.1 2.6 2.5 4.1 2.2 5.5 0.096h7.9l7.5 0.034 2.3 0.69m12-241-0.46 6.4 0.57 2.9 3.3 2 3.5-0.13 1.9 4.9 0.6 1.4 3.1 1.1 2.2 1.2 2.1 1.8 4 1.7 1.6 1.8 0.54 2.6s-0.47 0.83 0 3.1l0.47 2.3 1.3 0.54 2.7 1.7 2.4-0.71 1.5-2.2 1.4-1.6 2.8-0.74 0.18 2.1-0.38 3.6 1.1 2.7-0.73 1.8 2.7 1.7 2 1.6 1.5 1.4 3.4 0.9 3-1.1 0.12-4.3-1.2-4.1 1.3-3 4.4-3.9 1.9-1.4 1.7-1.4m-1.7-13-4.6-1.8-1.9-3.8v-4.1l-1.8-4.4h-3.8l-1.7-2-0.49-2-2.7-2.1-2.7-0.76-5.8 1.5-6.6 3.1-4.5 1-2-1-3.1-2.6m67 106-6 3-4.7-0.65-1.6 2.2 2 1.7-5.5 5.1-4.7 5.3-2.1 4.2-2.9 2.7-0.61 0.98-2.3 2.4-1.4 4.1-0.77 5.4 1.3 2.5 1.7-1.4 2.3-2.1 2.2-2.8 2.8-0.055 3.3 0.41 1.1 0.6-0.29 2.5s0.092 3.2 0.087 3.2c-5e-3 -0.062 0.73 4 0.73 4l2.5 0.8 0.72 1.7-2 2.1s-1.4-2.1-1.4-0.98c0.025 1.1-0.4 2.7-0.4 2.7l1.4 4.2 0.93 2.6 1.8 5.3 0.63 2.4-4 2.6-2.7 5.3 0.44 2.5 1.6 1.1 1.7 0.87 0.25 2.8-0.75 4v3.4c0 5e-3 1 4 1 4l2 3 2.1 0.51 4.3 0.39 2.6 0.46 1 3.7-0.51 6.1m172-142 0.58 4.5 7.3 12 4.7 2.5 7.4 4.3 13-2.4 3.6-7 4.8-2 6.8-5.4 3-0.92 4.1 0.62 5.9-2.8 3.2-1.5 0.84-4.1 4.9-3.8 5.8-0.51 6.6-1.7 8.7 3.3 4.1-3.4 9.6 5.6 4.2 3.5 0.38 4.5-2 2.8-2.4 0.41-6 5.7-0.84 4.1-0.55 2-0.85 5.9-3.3 5.2-2.1 6.1-2.5 8.4-1.4 6.6-15 8-3.9-1.5-4.1 2.1-4.1 0.86-3.1 2.7-6.8 2.6h-5.1l-5.8 6.7-8.5 2.7-7.6-2.3-6.3-3-6.3-4-4.1-3.6-3.9-4.8-3.4-0.41-4.1-4.8-2.8-2.8-1.8-1.2 2.4-2.7 3.8-1.4-0.9-3.8 0.35-4.5 0.3-5.1 5e-3 -5.4 1.7-0.34 7-0.8 2.1-9.3m-53-76-3.6 0.84-5.4-4.3-0.76 7.3-12 5.3-1.9 3.8-16 7.5-1.3 4.5-6-4.2-0.32 4.3 2.9 3.2 4 1.4 1 4 0.2 5.9 3.3 4.1 13 11 8.8 6.1 8.5 5.1 10-2.2 3.7-6.1 1.8-3.3 11-0.46 8 4.9 12-2.4 2.9 3.2 3.2-5.7 7.4 1.2 3.4-4 4.1-8.5 2.7-2.5 5.7-7.1 4.2-3.6m-14-135 5.1 3.3 19 0.91 13-0.93 8.5-3.7 5.8-1.9 5.9-2.6 6.5-2.1 11 3.9 3.6 8.2 2.5 10 4.1 9.6 1.1 4.7-3.7 11-4.1 3.5-2.2 4.4 2.4 3 3.3 1.8 2.7 7 0.82 6.7 4 7.4 4.2 6.1 4 2.8 3.3 6-0.61 6.7-6.5 7.4-5.5 8.1-2.2 6-2.4 10 2 8.8-4.8 1.1-11-4.7-8.4-1-8.8 5.5-3.7-1.8-6.3 0.93-5.3 5.7-3.8-1.8-8.4-5.6-3 2-5.7 0.62-5.1-2.5h-5l-2.5-4.5-2.9-3.6-4.6-0.36-3.7-4.4-4.7-2.8-7.8-1.4-2.3-0.3 1 3.8-3.4 3-9.1-5.9 1.1-3.6-4.2-1.7-3.3-3.6-9.3-0.26-5.3-4.3-3.4 3.8-4.1-1.4 0.5-12-3.7-7.6-2.4-15-2-8.1-1.1-5-4.5-3 0.63-5 1.6-3.8-0.041-5.6-0.98-4.8-3.2-7.3m49-478 1.1 1.2 16 13 7.2 0.69 7 6 4.2 5.3 2.2 9.9 0.95 4.5s-0.38 1.9 0.98 3.2c1.4 1.3 2.3 4.5 2.3 4.5l-0.35 4.7 3.3 7.1 2.5 3.4 2.2 5.1-1 5.7 1.6 8.6 2.9 4.6 3 4.5m30-113-0.71 10 3.7 14 11 3.6 7.2 7.6 0.47 14-0.62 7 0.62 11 5.7 7.2s5.6 7.6 7.1 9.8c1.5 2.2 6.5 12 6.5 12l-2.1 4.4 1.1 9.5 2.6 6v4.6l1 3.2 3.8-0.15s2.4 1.3 2.9 3.6c0.42 2.3 3.6 8.4 3.6 8.4h2.8l1.9 2.4 1.5 4.3-7e-3 4.9-1.3 4.6 0.14 4.3 2.7 4.2 2.2 1.4 6.3 2.8 2.5 1.4 3.7 5 2.8 0.68 2.8 9.8-0.7 8.4-4.1 17-8 22-9.5 20-7.8 12-3.8 4.9-1.9 4.7m-223 80 1.4 5.8 3.4-1.2 2.9-12-2.7-5.2 2.2-7.3 0.63-5.4 6.8-3.5 1.6-3.2 0.18-4.5-1.2-2.3 1.5-8.7-2.6-9.3-2.8-3.4 0.35-3.2 4.2-0.79 2.9-5.5-0.41-8.7-6.7-6.2-1.4-8.8-0.95-12-1.5-3 0.67-5.8-0.27-5.1 0.85-5.9 1.4-2.6-3.9-9.7 3.5-11 3.9-6.1 4.6-3.3 4-1.6 4.1 0.85 3.5-0.12 2-4.5-0.4-7.5-3.2-4.2-2.1-4 3.7-7.8 2-7.5 2.4-12v-7.1l-0.63-7.6 1-4.8 2.6-0.25 3.5-4.2 1.4-8.7 6.6-14 2.8-5.2-0.4-5.1-2.4-3.6-0.37-4.3 3.2-5.5 0.86-7.1 4.7-7.9 2.5-0.9 5.6 3.8 1.9-18 19-0.64 0.13-13-1.5-5.2 3.3-3.5 4-2.3 2.5-6.7 11 7 3.8 6.4 8 1.6 6.3-2.7 2.7-4.9 8.3 3.5 4.6-6.8 4-7.7-2.7-12 0.37-10 2.4-4.2 5.5-2.8 5.9-5.6 5.2-1.5 6.5 4.5 7.6 4.7 1.1 9.4-0.93 5 2.9 3.2 1.5-3.9-0.85-2.8 3.5-4.5 2.2-4.2-0.51-4.6 4.1 0.85 2.8-3.3-1.2-3.4-1.2-2.9" style="fill:none;stroke-miterlimit:10;stroke-width:2.3;stroke:#fff"/></g>
<g class="pos">
		<style>
			.pos a{
				text-decoration: none;
			}
			.pos a:hover circle {
				stroke-width:1;
				stroke: #ffffffff;
			}

			.pos a text.town{
				fill: #ffffffcc;
				font-family: sans-serif;
				font-size: 12px;
				line-height: 1.25;
				text-align: start;
				text-anchor: start;
			}

			.pos a:hover text.town {
				text-decoration: underline;
				fill: #ffffffff;
			}

			.pos a text.left{
				text-align: end;
				text-anchor: end;
			}
			.pos a text.center{
				text-align: center;
				text-anchor: middle;
			}
		</style>
	
	<a target="_blank" href="https://www.google.com/maps/place/Holusion/@50.7007444,3.1578966,19z/data=!4m8!1m2!3m1!2sHolusion!3m4!1s0x0:0x60b453b312cc0a2b!8m2!3d50.7011311!4d3.1584262" transform="translate(245 100)">
		<title>Holusion, Roubaix (France)</title>
		<circle fill="#ff9966" x="0" y="0" r="5"/>
		<text x="-10" y="16" class="town center">Lille</text>
	</a>

	<a target="_blank" href="https://www.google.com/maps/place/Prodware/@48.8865608,2.3718308,17z/data=!3m1!4b1!4m5!3m4!1s0x47e66dd75d45fb6f:0xf1997a3a7ef3bb9c!8m2!3d48.8865608!4d2.3740195" transform="translate(230 165)">
		<title>Prodware, {{site.data.strings.partner-and-reseller[page.lang]}}</title>
		<circle fill="#ff9966" x="0" y="0" r="5"/>
		<text x="5" y="4" class="town">Paris</text>
	</a>

	<a target="_blank" href="https://www.google.fr/maps/place/scanways+-+scan+laser+3D+-+BIM/@46.1913846,6.1270091,17.5z/data=!4m5!3m4!1s0x478c7b2fb2dd788d:0x7b1b752d22252360!8m2!3d46.1913727!4d6.1285207" transform="translate(292 219)">
		<title>Scanways (CH), {{site.data.strings.partner-and-reseller[page.lang]}}</title>
		<circle fill="#ff9966" x="0" y="0" r="5"/>
		<text x="-5" y="0" class="town left">Genve</text>
	</a>

	<a target="_blank" href="https://www.google.fr/maps/place/Akeo+Lab,+oblikovanje+,+prevajanje+in+izobra%C5%BEevanje,+d.o.o./@45.9587468,13.64462,17z/data=!3m1!4b1!4m5!3m4!1s0x477b011c962a095f:0xa56247c6870374be!8m2!3d45.9587413!4d13.6468199" transform="translate(438 228)">
		<title>Akeo Lab (SI), {{site.data.strings.partner-and-reseller[page.lang]}}</title>
		<circle fill="#ff9966" x="0" y="0" r="5"/>
		<text x="-6" y="10" class="town left">Nova Gorica</text>
	</a>

	<a target="_blank" href="https://www.google.fr/maps/place/ATIproject+S.r.l.+Studio+di+progettazione+ingegneria+e+architettura/@43.7065879,10.4179884,17z/data=!3m1!4b1!4m5!3m4!1s0x12d591be20241e7d:0x8a046352bbe020!8m2!3d43.7065851!4d10.4201778" transform="translate(379 293)">
		<title>ATI Project (IT), {{site.data.strings.partner-and-reseller[page.lang]}}</title>
		<circle fill="#ff9966" x="0" y="0" r="5"/>
		<text x="5" y="4" class="town">Pise</text>
	</a>

	<a target="_blank" href="https://www.google.com/maps/place/HYLIAD+Distribution/@45.7623107,4.8548433,17z/data=!3m1!4b1!4m5!3m4!1s0x47f4ea6211ef8e3d:0x3256ba2ebb524b7d!8m2!3d45.762307!4d4.857032" transform="translate(264 233)">
		<title>Hyliad distribution, {{site.data.strings.partner-and-reseller[page.lang]}}</title>
		<circle fill="#ff9966" x="0" y="0" r="5"/>
		<text x="-5" y="4" class="town left">Lyon</text>
	</a>

	<a target="_blank" href="https://www.google.com/maps/place/Gustav+by+Cocktail/@46.6437745,-1.4154018,17z/data=!3m1!4b1!4m5!3m4!1s0x4804257317506feb:0xfe7fff89d6e484de!8m2!3d46.6437708!4d-1.4132131" transform="translate(153 198)">
		<title>Gustav by Cocktail, {{site.data.strings.partner-and-reseller[page.lang]}}</title>
		<circle fill="#ff9966" x="0" y="0" r="5"/>
		<text x="5" y="4" class="town">La Roche-sur-Yon</text>
	</a>

	<a target="_blank" href="https://www.google.fr/maps/place/Laval+Virtual+Center/@48.0876776,-0.7544305,17z/data=!3m1!4b1!4m5!3m4!1s0x480901f82a32903d:0xbd190995d7a247dc!8m2!3d48.0877196!4d-0.7523441" transform="translate(173 160)">
		<title>Laval Virtual Center, {{site.data.strings.partner-and-reseller[page.lang]}}</title>
		<circle fill="#ff9966" x="0" y="0" r="5"/>
		<text x="-5" y="4" class="town left">Laval</text>
	</a>
</g></svg>
