<?xml version="1.0" encoding="iso-8859-1"?>
<!-- Generator: Adobe Illustrator 18.0.0, SVG Export Plug-In . SVG Version: 6.00 Build 0)  -->
<!DOCTYPE svg PUBLIC "-//W3C//DTD SVG 1.1//EN" "http://www.w3.org/Graphics/SVG/1.1/DTD/svg11.dtd">
<svg version="1.1" id="Capa_1" xmlns="http://www.w3.org/2000/svg" xmlns:xlink="http://www.w3.org/1999/xlink" x="0px" y="0px"
	 viewBox="0 0 496.068 496.068" style="enable-background:new 0 0 496.068 496.068;" xml:space="preserve">
<path id="XMLID_132_" d="M425.044,95.855c-23.493-26.767-60.451-36.729-94.282-25.424l-17.9,6.006l7.084-38.761h3.44
	c10.414,0,18.838-8.434,18.838-18.837C342.222,8.436,333.799,0,323.385,0H172.681c-10.412,0-18.837,8.436-18.837,18.838
	c0,10.404,8.425,18.837,18.837,18.837h3.439l7.083,38.761l-17.899-6.006c-33.793-11.304-70.789-1.333-94.264,25.424
	c-23.492,26.748-28.604,64.727-13.023,96.765l28.461,58.399c-6.203,20.356-9.751,41.042-9.751,60.892
	c0,65.272,36.515,121.997,90.233,150.907c-4.25,3.458-7.139,8.507-7.139,14.413c0,10.404,8.428,18.838,18.84,18.838h138.762
	c10.414,0,18.838-8.434,18.838-18.838c0-5.906-2.887-10.964-7.137-14.413c53.699-28.92,90.217-85.635,90.217-150.907
	c0-19.85-3.551-40.545-9.752-60.892l28.46-58.408C453.633,160.582,448.517,122.603,425.044,95.855z M105.793,204.614l-13.891-28.486
	c-8.939-18.35-6.015-40.095,7.45-55.42c13.45-15.323,34.642-21.036,53.958-14.55l35.91,12.039
	C154.984,135.978,125.806,167.656,105.793,204.614z M306.847,118.197l35.908-12.039c19.28-6.494,40.492-0.772,53.977,14.55
	c13.446,15.325,16.372,37.069,7.432,55.412l-13.89,28.486C370.26,167.656,341.083,135.978,306.847,118.197z"/>
<g>
</g>
<g>
</g>
<g>
</g>
<g>
</g>
<g>
</g>
<g>
</g>
<g>
</g>
<g>
</g>
<g>
</g>
<g>
</g>
<g>
</g>
<g>
</g>
<g>
</g>
<g>
</g>
<g>
</g>
</svg>
