<?xml version="1.0" encoding="iso-8859-1"?>
<!-- Generator: Adobe Illustrator 18.1.1, SVG Export Plug-In . SVG Version: 6.00 Build 0)  -->
<svg version="1.1" id="Capa_1" xmlns="http://www.w3.org/2000/svg" xmlns:xlink="http://www.w3.org/1999/xlink" x="0px" y="0px"
	 viewBox="0 0 22.018 22.018" style="enable-background:new 0 0 22.018 22.018;" xml:space="preserve">
<g>
	<g>
		<g>
			<path style="fill:#010002;" d="M10.928,4.84c-0.319,0.539-0.761,0.874-1.248,0.874c-0.972,0-1.764-1.332-1.764-2.964
				c0-0.202,0.012-0.399,0.035-0.589h0.212C8.152,2.254,8.14,2.353,8.128,2.458C7.904,4.399,8.615,5.397,9.581,5.561
				C10.376,5.695,10.671,5.086,10.928,4.84z"/>
			<path style="fill:#010002;" d="M12.083,1.345c2.494,0.225,3.773,0.951,3.773,1.397c0,0.445-1.979,0.876-5.139,0.876
				c-3.159,0-5.736-0.393-5.736-0.876c0-0.297,0.96-0.781,2.435-1.11C7.807,0.717,8.794,0,9.822,0
				C10.846,0,11.639,0.584,12.083,1.345z"/>
			<path style="fill:#010002;" d="M8.649,11.514c0.149,0,1.649-1.113,1.69-2.521c0.049-1.697,0.972-3.785,1.426-3.726
				c0.379,0.048-0.408,0.778-0.039,0.991c0.718,0.414,2.269,0.648,2.764,1.394c-0.667,2.835-2.059,5.466-1.879,8.323
				c0.065,1.051,0.931,2.156,1.925,3.385c0.694,0.857,1.559,1.75,2.5,2.658H5.499c1.176-2.336,2.087-4.73,2.63-6.424
				c0.277-0.867,0.225-2.458,0.124-2.721c-0.354-0.934-1.727-1.585-1.407-2.892c0.14-0.58,0.521-1.968,0.851-2.711
				c0.403-0.907,0.909-1.254,1.376-1.387c0.165-0.046-1.316,2.052-1.378,3.466C7.654,10.317,8.561,11.514,8.649,11.514L8.649,11.514
				z M14.15,18.768l-0.271-0.351C13.958,18.521,14.048,18.643,14.15,18.768z"/>
		</g>
	</g>
</g>
<g>
</g>
<g>
</g>
<g>
</g>
<g>
</g>
<g>
</g>
<g>
</g>
<g>
</g>
<g>
</g>
<g>
</g>
<g>
</g>
<g>
</g>
<g>
</g>
<g>
</g>
<g>
</g>
<g>
</g>
</svg>
