<?xml version="1.0" encoding="iso-8859-1"?>
<!-- Generator: Adobe Illustrator 18.1.1, SVG Export Plug-In . SVG Version: 6.00 Build 0)  -->
<svg version="1.1" id="Capa_1" xmlns="http://www.w3.org/2000/svg" xmlns:xlink="http://www.w3.org/1999/xlink" x="0px" y="0px"
	 viewBox="0 0 24.16 24.16" style="enable-background:new 0 0 24.16 24.16;" xml:space="preserve">
<g>
	<path style="fill:#010002;" d="M12.737,19.54l6.682,2.256l-0.798,2.364l-6.541-2.21l-6.541,2.21l-0.798-2.364l6.683-2.256
		l0.656,1.946L12.737,19.54z M22.237,7.056c0,0-2.342,0.002-2.936,0.712c-0.068,0.083-0.115,0.176-0.13,0.279
		c-0.114,0.789,2.267,2.844,0.483,5.5c0,0-0.567,0.762-0.874,1.019c-0.254,0.233-0.822,0.718-1.368,1.088l0.47-1.392l0.527-1.562
		c0,0,0.047-0.119,0.064-0.271c0.022-0.207-0.018-0.475-0.333-0.581c-0.546-0.184-1.363-0.46-1.363-0.46s-0.485-0.062-0.761,0.211
		c-0.065,0.062-0.117,0.141-0.151,0.24c-0.052,0.152-0.259,0.765-0.527,1.563c-0.478,1.415-1.155,3.42-1.524,4.514
		c-0.162,0.48-0.265,0.784-0.265,0.784l5.815,1.964c0,0,3.021-4.144,3.573-5.78C22.936,14.885,24.497,10.857,22.237,7.056z
		 M10.612,18.701c0,0-0.103-0.304-0.265-0.784c-0.37-1.094-1.046-3.099-1.524-4.514c-0.27-0.799-0.476-1.411-0.528-1.563
		c-0.033-0.1-0.086-0.178-0.15-0.24c-0.276-0.273-0.762-0.211-0.762-0.211s-0.817,0.276-1.363,0.46
		c-0.315,0.106-0.355,0.374-0.335,0.581C5.701,12.581,5.75,12.7,5.75,12.7l0.527,1.562l0.47,1.392
		c-0.545-0.37-1.113-0.854-1.367-1.088c-0.308-0.257-0.875-1.019-0.875-1.019c-1.784-2.656,0.599-4.711,0.483-5.5
		C4.974,7.943,4.927,7.851,4.86,7.768c-0.595-0.71-2.938-0.712-2.938-0.712c-2.261,3.802-0.698,7.829-0.698,7.829
		c0.553,1.637,3.572,5.78,3.572,5.78L10.612,18.701z M2.825,5.952c-0.282-1.723-0.03-3.113,0.744-4.131
		c0.78-1.021,2.019-1.612,3.789-1.8C7.502,0.005,7.651,0,7.802,0c1.531,0,3.266,0.74,4.278,2.143C13.092,0.74,14.827,0,16.36,0
		c0.152,0,0.301,0.005,0.442,0.02c1.769,0.188,3.009,0.779,3.791,1.804c0.772,1.014,1.021,2.403,0.74,4.127
		c-0.03,0.18-0.077,0.369-0.132,0.559c-0.898,0.117-1.923,0.39-2.449,1.019c-0.196,0.238-0.318,0.505-0.364,0.805
		c-0.084,0.573,0.178,1.069,0.479,1.642c0.07,0.133,0.134,0.261,0.196,0.388c-0.201,0.27-0.412,0.537-0.626,0.805l-1.041-0.352
		l-0.206-0.049c0,0-0.1-0.015-0.258-0.015c-0.554,0-1.049,0.189-1.385,0.519c-0.191,0.186-0.333,0.411-0.419,0.667l-1.432,4.24
		c-0.591,0.55-0.991,0.899-1.059,0.96c-0.151,0.132-0.338,0.195-0.523,0.195c-0.187,0-0.373-0.063-0.522-0.193
		c-0.035-0.031-0.162-0.14-0.352-0.31l-1.652-4.893c-0.086-0.256-0.228-0.481-0.413-0.66c-0.344-0.337-0.837-0.525-1.392-0.525
		c-0.156,0-0.257,0.015-0.257,0.015l-1.569,0.509c-0.033,0.011-0.062,0.026-0.093,0.04c-0.139-0.17-0.278-0.341-0.411-0.511
		c0.11-0.268,0.243-0.541,0.395-0.83C6.15,9.402,6.41,8.906,6.326,8.324C6.282,8.034,6.16,7.766,5.958,7.523
		C5.32,6.759,3.932,6.522,2.94,6.454C2.893,6.283,2.852,6.115,2.825,5.952z M15.935,1.507c3.996,0.6,4.295,5.092,4.295,5.092
		C20.727,0.809,15.935,1.507,15.935,1.507z"/>
</g>
<g>
</g>
<g>
</g>
<g>
</g>
<g>
</g>
<g>
</g>
<g>
</g>
<g>
</g>
<g>
</g>
<g>
</g>
<g>
</g>
<g>
</g>
<g>
</g>
<g>
</g>
<g>
</g>
<g>
</g>
</svg>
