<?xml version="1.0" encoding="iso-8859-1"?>
<!-- Generator: Adobe Illustrator 16.0.0, SVG Export Plug-In . SVG Version: 6.00 Build 0)  -->
<!DOCTYPE svg PUBLIC "-//W3C//DTD SVG 1.1//EN" "http://www.w3.org/Graphics/SVG/1.1/DTD/svg11.dtd">
<svg version="1.1" id="Capa_1" xmlns="http://www.w3.org/2000/svg" xmlns:xlink="http://www.w3.org/1999/xlink" x="0px" y="0px"
	 width="35.545px" height="35.545px" viewBox="0 0 35.545 35.545" style="enable-background:new 0 0 35.545 35.545;"
	 xml:space="preserve">
<g>
	<path d="M18.737,19.449v4.291l5.858,5.861l-2.144-8.007L18.737,19.449z M19.778,23.308v-2.056l1.778,1.027l1.027,3.835
		L19.778,23.308z M32.862,24.167l1.241,0.719l-0.918,1.588c0.015,0.062,0.011,0.128-0.022,0.186c-0.032,0.06-0.087,0.09-0.146,0.108
		l-0.921,1.599l-1.24-0.717l-3.179,0.845l-0.85-3.174l-0.348-0.2l0.527,1.968c0.074,0.279-0.091,0.563-0.368,0.639
		c-0.274,0.066-0.562-0.093-0.637-0.369l-1.178-4.397l2.899,1.675l0.691,2.586l1.88-0.5l-0.175-0.696l1.597,0.916l0.354-0.612
		l-8.193-4.732l1.542,5.768c0.039,0.139-0.045,0.282-0.183,0.318c-0.022,0.006-0.045,0.011-0.067,0.011
		c-0.114,0-0.22-0.077-0.25-0.194l-1.681-6.271l-5.207-3.007v6.014l4.586,4.589c0.104,0.103,0.104,0.268,0,0.369
		c-0.051,0.051-0.115,0.075-0.183,0.075s-0.135-0.024-0.186-0.075l-4.22-4.222v9.459h0.708v-2.053l0.56,0.673l1.333-1.333
		l-1.893-1.894v-3.345l3.217,3.217c0.204,0.203,0.204,0.533,0,0.736c-0.203,0.203-0.533,0.203-0.736,0l-1.439-1.438v0.398
		l2.324,2.325l-2.324,2.326v1.43h-1.833c-0.046,0.045-0.107,0.072-0.176,0.072c-0.069,0-0.13-0.027-0.176-0.072h-1.834v-1.43
		l-2.324-2.326l2.324-2.325v-0.4l-1.438,1.44c-0.203,0.203-0.535,0.203-0.736,0c-0.203-0.203-0.203-0.533,0-0.736l3.216-3.219v3.347
		l-1.893,1.894l1.333,1.333l0.556-0.668l0.004,2.05h0.708v-9.459l-4.22,4.22c-0.102,0.104-0.267,0.104-0.369,0
		c-0.102-0.102-0.102-0.267,0-0.368l4.588-4.588v-6.013l-5.209,3.007l-1.68,6.27c-0.03,0.118-0.136,0.195-0.25,0.195
		c-0.021,0-0.044-0.004-0.066-0.011c-0.141-0.036-0.222-0.181-0.186-0.319l1.543-5.764l-8.19,4.729l0.354,0.614l1.599-0.924
		l-0.177,0.702l1.878,0.502l0.693-2.588l2.899-1.67l-1.182,4.395c-0.074,0.28-0.356,0.443-0.637,0.369
		c-0.278-0.075-0.441-0.361-0.369-0.638l0.528-1.966l-0.345,0.198L7.86,28.501l-3.178-0.848l-1.239,0.717l-0.922-1.598
		c-0.06-0.02-0.112-0.052-0.148-0.108C2.34,26.607,2.336,26.54,2.35,26.477L1.433,24.89l1.242-0.72l0.849-3.175l3.177,0.851
		l0.347-0.199l-1.966-0.525c-0.279-0.074-0.443-0.359-0.369-0.638c0.075-0.277,0.36-0.438,0.638-0.369l4.395,1.176l-2.897,1.675
		l-2.584-0.693l-0.459,1.717h1.259l-2.207,1.279l0.352,0.615l8.192-4.73L5.637,19.61c-0.141-0.037-0.223-0.183-0.186-0.321
		c0.037-0.14,0.184-0.218,0.32-0.185l6.269,1.679l5.208-3.008l-5.209-3.008l-6.268,1.679c-0.022,0.006-0.045,0.008-0.067,0.008
		c-0.113,0-0.221-0.075-0.251-0.194c-0.037-0.139,0.044-0.282,0.185-0.318l5.762-1.545L3.211,9.669l-0.352,0.612l1.652,0.952
		l-0.747,0.185l0.499,1.864l2.589-0.694l2.897,1.671l-4.396,1.178c-0.046,0.012-0.091,0.018-0.136,0.018
		c-0.23,0-0.442-0.152-0.503-0.384c-0.074-0.279,0.091-0.563,0.369-0.639l1.967-0.527l-0.345-0.199l-3.179,0.852l-0.852-3.18
		l-1.24-0.715l0.917-1.588c-0.014-0.063-0.008-0.13,0.024-0.189C2.411,8.826,2.466,8.79,2.528,8.771l0.918-1.589l1.24,0.717
		l3.176-0.85l0.853,3.176l0.345,0.199L8.532,8.46C8.458,8.18,8.622,7.897,8.9,7.822C9.182,7.754,9.464,7.914,9.539,8.19l1.178,4.397
		l-2.899-1.675L7.125,8.328L5.14,8.861v0.502L3.824,8.608L3.472,9.221l8.189,4.729l-1.542-5.766
		c-0.037-0.138,0.045-0.282,0.185-0.318c0.139-0.038,0.282,0.045,0.319,0.184l1.68,6.27l5.209,3.007v-6.015l-4.586-4.588
		c-0.104-0.103-0.104-0.267,0-0.369c0.102-0.104,0.267-0.102,0.369,0l4.22,4.221V1.114h-0.707v2.058l-0.561-0.673l-1.333,1.334
		l1.894,1.893V9.07l-3.218-3.217c-0.203-0.202-0.203-0.533,0-0.736c0.204-0.202,0.534-0.202,0.737,0l1.439,1.438V6.156L13.44,3.833
		l2.325-2.327V0.073h1.833C17.644,0.028,17.706,0,17.774,0s0.13,0.028,0.176,0.073h1.834v1.432l2.325,2.327l-2.325,2.324v0.399
		l1.438-1.438c0.203-0.202,0.534-0.202,0.736,0c0.203,0.203,0.203,0.534,0,0.736l-3.216,3.217V5.724l1.893-1.893l-1.333-1.334
		l-0.556,0.668l-0.004-2.051h-0.708v9.458l4.221-4.221c0.102-0.102,0.266-0.102,0.369,0c0.102,0.102,0.102,0.267,0,0.369
		l-4.589,4.588v6.015l5.209-3.007l1.681-6.27c0.036-0.14,0.185-0.222,0.319-0.185c0.14,0.037,0.223,0.18,0.185,0.319l-1.544,5.766
		l8.19-4.729l-0.353-0.612l-1.314,0.76v-0.51l-1.985-0.531l-0.693,2.583l-2.899,1.676l1.179-4.398
		c0.074-0.277,0.36-0.436,0.638-0.369c0.28,0.074,0.444,0.361,0.37,0.637l-0.527,1.964l0.344-0.198l0.853-3.177l3.176,0.852
		l1.241-0.717l0.917,1.59c0.061,0.02,0.114,0.055,0.151,0.113c0.032,0.06,0.038,0.125,0.024,0.188l0.917,1.59l-1.241,0.714
		l-0.849,3.18l-3.182-0.852l-0.344,0.198l1.967,0.527c0.279,0.075,0.443,0.361,0.369,0.638c-0.065,0.232-0.274,0.385-0.504,0.385
		c-0.045,0-0.089-0.006-0.135-0.019l-4.396-1.178l2.897-1.672l2.589,0.694l0.499-1.861l-0.738-0.186l1.645-0.952l-0.354-0.613
		l-8.188,4.729l5.762,1.543c0.141,0.037,0.222,0.181,0.186,0.319c-0.031,0.117-0.137,0.195-0.253,0.195
		c-0.021,0-0.045-0.004-0.064-0.011l-6.269-1.678l-5.21,3.009l5.208,3.007l6.271-1.677c0.138-0.036,0.282,0.044,0.319,0.184
		c0.036,0.139-0.045,0.283-0.186,0.319l-5.764,1.545l8.192,4.729l0.353-0.612l-2.214-1.28h1.268l-0.459-1.718l-2.584,0.696
		l-2.899-1.675l4.396-1.176c0.281-0.068,0.563,0.092,0.638,0.368c0.073,0.279-0.092,0.563-0.369,0.637l-1.967,0.525l0.35,0.199
		l3.176-0.851L32.862,24.167z M19.703,17.773l3.715,2.146l8.008-2.146l-8.008-2.145L19.703,17.773z M27.403,17.773l-3.839,1.028
		l-1.778-1.028l1.78-1.027L27.403,17.773z M16.799,19.449l-3.715,2.147l-2.148,8.008l5.863-5.861V19.449z M15.758,23.308
		l-2.808,2.809l1.028-3.837l1.781-1.027L15.758,23.308L15.758,23.308z M15.834,17.773l-3.715-2.145L4.11,17.773l8.009,2.146
		L15.834,17.773z M8.133,17.773l3.838-1.027l1.78,1.027l-1.78,1.028L8.133,17.773z M18.737,16.097l3.717-2.147l2.147-8.008
		l-5.864,5.866V16.097z M19.778,12.239l2.81-2.809l-1.028,3.836l-1.781,1.028V12.239z M16.799,16.099v-4.291l-5.863-5.865
		l2.148,8.009L16.799,16.099z M15.758,12.239v2.057l-1.78-1.027L12.95,9.43L15.758,12.239z"/>
</g>
<g>
</g>
<g>
</g>
<g>
</g>
<g>
</g>
<g>
</g>
<g>
</g>
<g>
</g>
<g>
</g>
<g>
</g>
<g>
</g>
<g>
</g>
<g>
</g>
<g>
</g>
<g>
</g>
<g>
</g>
</svg>
