<?xml version="1.0" encoding="UTF-8" standalone="no"?>
<!-- Created with Inkscape (http://www.inkscape.org/) -->

<svg
   xmlns:dc="http://purl.org/dc/elements/1.1/"
   xmlns:cc="http://creativecommons.org/ns#"
   xmlns:rdf="http://www.w3.org/1999/02/22-rdf-syntax-ns#"
   xmlns:svg="http://www.w3.org/2000/svg"
   xmlns="http://www.w3.org/2000/svg"
   version="1.1"
   width="800"
   height="270"
   id="svg3039">
  <metadata
     id="metadata3045">
    <rdf:RDF>
      <cc:Work
         rdf:about="">
        <dc:format>image/svg+xml</dc:format>
        <dc:type
           rdf:resource="http://purl.org/dc/dcmitype/StillImage" />
        <dc:title></dc:title>
      </cc:Work>
    </rdf:RDF>
  </metadata>
  <defs
     id="defs3043" />
  <rect
     width="11.582797"
     height="1.016026"
     ry="0.50801301"
     x="107.85767"
     y="128.55141"
     id="rect3874"
     style="fill:none;stroke:#000000;stroke-width:4.63253164;stroke-miterlimit:4;stroke-opacity:1;stroke-dasharray:none" />
  <path
     d="m 137.11352,128.03454 a 17.12159,17.12159 0 1 1 -1.34609,22.0373"
     transform="matrix(1.1581329,0,0,1.1581329,-42.184176,-32.475183)"
     id="path3878"
     style="fill:none;stroke:#000000;stroke-width:4;stroke-miterlimit:4;stroke-opacity:1;stroke-dasharray:none" />
  <path
     d="m 154.21836,114.54094 a 28.53598,28.53598 0 1 1 -57.07196,0 28.53598,28.53598 0 1 1 57.07196,0 z"
     transform="matrix(1.1581329,0,0,1.1581329,-15.458032,-3.0189486)"
     id="path3880"
     style="fill:none;stroke:#000000;stroke-width:4;stroke-miterlimit:4;stroke-opacity:1;stroke-dasharray:none" />
  <path
     d="m 154.21836,114.54094 a 28.53598,28.53598 0 1 1 -57.07196,0 28.53598,28.53598 0 1 1 57.07196,0 z"
     transform="matrix(1.1581329,0,0,1.1581329,263.01114,-1.8694334)"
     id="path3880-1"
     style="fill:none;stroke:#000000;stroke-width:4;stroke-miterlimit:4;stroke-opacity:1;stroke-dasharray:none" />
  <path
     d="m 419.05735,107.07553 -26.72615,24.5708"
     id="path3902"
     style="fill:none;stroke:#000000;stroke-width:4.63253164;stroke-linecap:round;stroke-linejoin:miter;stroke-miterlimit:4;stroke-opacity:1;stroke-dasharray:none" />
  <path
     d="M 419.59875,153.73234 392.01047,132.03531"
     id="path3904"
     style="fill:none;stroke:#000000;stroke-width:4.63253164;stroke-linecap:round;stroke-linejoin:miter;stroke-miterlimit:4;stroke-opacity:1;stroke-dasharray:none" />
  <path
     d="m 154.21836,114.54094 a 28.53598,28.53598 0 1 1 -57.07196,0 28.53598,28.53598 0 1 1 57.07196,0 z"
     transform="matrix(1.1581329,0,0,1.1581329,388.12251,0.20723537)"
     id="path3880-1-7"
     style="fill:none;stroke:#000000;stroke-width:4;stroke-miterlimit:4;stroke-opacity:1;stroke-dasharray:none" />
  <path
     d="m 526.36396,147.28855 -15.2405,-14.63089 23.57198,-20.01587 22.65757,21.03191 -14.6309,13.71645"
     id="path3926"
     style="fill:none;stroke:#000000;stroke-width:4.63253164;stroke-linecap:round;stroke-linejoin:round;stroke-miterlimit:4;stroke-opacity:1;stroke-dasharray:none" />
  <rect
     width="775.43011"
     height="139.50226"
     ry="66.499825"
     x="11.673802"
     y="60.687916"
     id="rect3930"
     style="fill:none;stroke:#000000;stroke-width:4.63253164;stroke-linecap:round;stroke-linejoin:round;stroke-miterlimit:4;stroke-opacity:1;stroke-dasharray:none" />
  <path
     d="m 154.21836,114.54094 a 28.53598,28.53598 0 1 1 -57.07196,0 28.53598,28.53598 0 1 1 57.07196,0 z"
     transform="matrix(-1.1555417,-0.07742925,0.07742925,-1.1555417,798.16375,275.6604)"
     id="path3880-1-5"
     style="fill:none;stroke:#000000;stroke-width:4;stroke-miterlimit:4;stroke-opacity:1;stroke-dasharray:none" />
  <path
     d="m 649.75041,156.52644 28.30908,-22.72901"
     id="path3902-3"
     style="fill:none;stroke:#000000;stroke-width:4.63253164;stroke-linecap:round;stroke-linejoin:miter;stroke-miterlimit:4;stroke-opacity:1;stroke-dasharray:none" />
  <path
     d="m 652.32956,109.9378 26.07595,23.49296"
     id="path3904-1"
     style="fill:none;stroke:#000000;stroke-width:4.63253164;stroke-linecap:round;stroke-linejoin:miter;stroke-miterlimit:4;stroke-opacity:1;stroke-dasharray:none" />
  <path
     d="m 282.134,144.44168 a 14.640199,14.640199 0 1 1 -29.28039,0 14.640199,14.640199 0 1 1 29.28039,0 z"
     transform="matrix(1.1581329,0,0,1.1581329,-42.615242,-36.785851)"
     id="path3956"
     style="fill:#00ff00;fill-opacity:1;stroke:#000000;stroke-width:1;stroke-linecap:round;stroke-linejoin:round;stroke-miterlimit:4;stroke-opacity:1;stroke-dasharray:none" />
</svg>
